<?xml version="1.0" encoding="UTF-8" standalone="no"?>
<svg
   viewBox="0 0 648.56 401.06293"
   version="1.1"
   id="svg274"
   sodipodi:docname="ecommerce-checkout-laptop-cuate.svg"
   width="648.56"
   height="401.06293"
   inkscape:version="1.3.2 (1:1.3.2+202311252150+091e20ef0f)"
   xmlns:inkscape="http://www.inkscape.org/namespaces/inkscape"
   xmlns:sodipodi="http://sodipodi.sourceforge.net/DTD/sodipodi-0.dtd"
   xmlns="http://www.w3.org/2000/svg"
   xmlns:svg="http://www.w3.org/2000/svg">
  <defs
     id="defs274" />
  <sodipodi:namedview
     id="namedview274"
     pagecolor="#ffffff"
     bordercolor="#666666"
     borderopacity="1.0"
     inkscape:showpageshadow="2"
     inkscape:pageopacity="0.0"
     inkscape:pagecheckerboard="0"
     inkscape:deskcolor="#d1d1d1"
     inkscape:zoom="2.39"
     inkscape:cx="324.26778"
     inkscape:cy="206.90377"
     inkscape:window-width="3440"
     inkscape:window-height="1391"
     inkscape:window-x="0"
     inkscape:window-y="0"
     inkscape:window-maximized="1"
     inkscape:current-layer="svg274" />
  <g
     id="freepik--background-complete--inject-2"
     transform="translate(-50.72,-43.007162)">
    <rect
       x="593.84003"
       y="280.70001"
       width="100.17"
       height="110.51"
       style="fill:#ebebeb"
       id="rect1" />
    <rect
       x="623.37"
       y="290.47"
       width="41.110001"
       height="1.55"
       style="fill:#c7c7c7"
       id="rect2" />
    <rect
       x="633.37"
       y="294.89999"
       width="21.110001"
       height="1.55"
       style="fill:#c7c7c7"
       id="rect3" />
    <rect
       x="603.37"
       y="308.20999"
       width="41.110001"
       height="1.74"
       style="fill:#c7c7c7"
       id="rect4" />
    <rect
       x="603.37"
       y="313.17999"
       width="51.110001"
       height="1.74"
       style="fill:#c7c7c7"
       id="rect5" />
    <rect
       x="603.37"
       y="318.16"
       width="26.6"
       height="1.74"
       style="fill:#c7c7c7"
       id="rect6" />
    <rect
       x="603.37"
       y="323.14001"
       width="45.560001"
       height="1.74"
       style="fill:#c7c7c7"
       id="rect7" />
    <rect
       x="603.37"
       y="328.12"
       width="50.209999"
       height="1.74"
       style="fill:#c7c7c7"
       id="rect8" />
    <rect
       x="603.37"
       y="333.10001"
       width="46"
       height="1.74"
       style="fill:#c7c7c7"
       id="rect9" />
    <rect
       x="603.37"
       y="338.07001"
       width="51.110001"
       height="1.74"
       style="fill:#c7c7c7"
       id="rect10" />
    <rect
       x="603.37"
       y="343.04999"
       width="47.220001"
       height="1.74"
       style="fill:#c7c7c7"
       id="rect11" />
    <rect
       x="603.37"
       y="348.03"
       width="38.57"
       height="1.74"
       style="fill:#c7c7c7"
       id="rect12" />
    <rect
       x="603.37"
       y="353.01001"
       width="50.650002"
       height="1.74"
       style="fill:#c7c7c7"
       id="rect13" />
    <rect
       x="603.37"
       y="357.98999"
       width="47.77"
       height="1.74"
       style="fill:#c7c7c7"
       id="rect14" />
    <rect
       x="668.98999"
       y="313.17999"
       width="15.49"
       height="1.74"
       style="fill:#c7c7c7"
       id="rect15" />
    <rect
       x="668.98999"
       y="318.16"
       width="15.49"
       height="1.74"
       style="fill:#c7c7c7"
       id="rect16" />
    <rect
       x="668.98999"
       y="323.14001"
       width="15.49"
       height="1.74"
       style="fill:#c7c7c7"
       id="rect17" />
    <rect
       x="668.98999"
       y="328.12"
       width="15.49"
       height="1.74"
       style="fill:#c7c7c7"
       id="rect18" />
    <rect
       x="668.98999"
       y="333.10001"
       width="15.49"
       height="1.74"
       style="fill:#c7c7c7"
       id="rect19" />
    <rect
       x="668.98999"
       y="338.07001"
       width="15.49"
       height="1.74"
       style="fill:#c7c7c7"
       id="rect20" />
    <rect
       x="668.98999"
       y="343.04999"
       width="15.49"
       height="1.74"
       style="fill:#c7c7c7"
       id="rect21" />
    <rect
       x="668.98999"
       y="348.03"
       width="15.49"
       height="1.74"
       style="fill:#c7c7c7"
       id="rect22" />
    <rect
       x="603.37"
       y="378.63"
       width="38.57"
       height="1.74"
       style="fill:#c7c7c7"
       id="rect23" />
    <rect
       x="668.98999"
       y="378.63"
       width="15.49"
       height="1.74"
       style="fill:#c7c7c7"
       id="rect24" />
    <rect
       x="668.98999"
       y="353.01001"
       width="15.49"
       height="1.74"
       style="fill:#c7c7c7"
       id="rect25" />
    <rect
       x="668.98999"
       y="357.98999"
       width="15.49"
       height="1.74"
       style="fill:#c7c7c7"
       id="rect26" />
    <path
       d="m 233.12,50.43 22.73,98.91 a 10.27,10.27 0 0 1 -7.7,12.32 L 91.27,197.71 A 10.27,10.27 0 0 1 79,190 L 56.23,91.08 A 9.57,9.57 0 0 1 63.4,79.62 L 221.67,43.25 a 9.55,9.55 0 0 1 11.45,7.18 z"
       style="fill:#ebebeb"
       id="path26" />
    <rect
       x="75.059998"
       y="91.220001"
       width="34.07"
       height="23.549999"
       rx="4.1999998"
       transform="rotate(-12.94,92.099397,103.01789)"
       style="fill:#dbdbdb"
       id="rect27" />
    <path
       d="m 81.72,139.48 -1.18,1.12 a 0.38,0.38 0 0 1 -0.15,0.09 0.35,0.35 0 0 1 -0.33,-0.1 0.32,0.32 0 0 1 0,-0.48 l 1.6,-1.56 a 0.37,0.37 0 0 1 0.48,0 0.46,0.46 0 0 1 0.1,0.24 l 2,8.85 a 0.33,0.33 0 0 1 -0.25,0.4 0.34,0.34 0 0 1 -0.41,-0.25 z"
       style="fill:#c7c7c7"
       id="path27" />
    <path
       d="m 86.6,146.85 3.56,-5.09 A 2.54,2.54 0 0 0 86,138.85 l -0.37,0.54 a 0.33,0.33 0 0 1 -0.47,0.09 0.33,0.33 0 0 1 -0.1,-0.47 l 0.37,-0.55 a 3.27,3.27 0 0 1 2,-1.3 3.15,3.15 0 0 1 2.55,0.5 3.18,3.18 0 0 1 1.31,1.91 3.29,3.29 0 0 1 -0.5,2.58 l -3,4.37 4.55,-1.05 a 0.35,0.35 0 0 1 0.16,0.68 l -5.5,1.23 v 0 a 0.31,0.31 0 0 1 -0.27,0 0.37,0.37 0 0 1 -0.13,-0.53 z"
       style="fill:#c7c7c7"
       id="path28" />
    <path
       d="m 98.61,135.21 -1.91,3.13 a 3.4,3.4 0 0 1 1.86,0.51 3.35,3.35 0 0 1 1,4.62 3.39,3.39 0 0 1 -2.09,1.5 3.3,3.3 0 0 1 -2.52,-0.44 0.35,0.35 0 0 1 0.37,-0.59 2.64,2.64 0 0 0 2,0.33 2.7,2.7 0 0 0 1.68,-1.17 2.6,2.6 0 0 0 0.34,-2 2.65,2.65 0 0 0 -3.16,-2 0.39,0.39 0 0 1 -0.31,-0.08 v 0 a 0.35,0.35 0 0 1 -0.12,-0.49 l 1.83,-3 -3.69,0.84 a 0.35,0.35 0 1 1 -0.16,-0.68 l 4.5,-1 a 0.36,0.36 0 0 1 0.43,0.27 0.29,0.29 0 0 1 0,0.16 0.25,0.25 0 0 1 -0.05,0.09 z"
       style="fill:#c7c7c7"
       id="path29" />
    <path
       d="m 108.31,140.4 -5.21,1.2 v 0 a 0.33,0.33 0 0 1 -0.37,-0.48 l 4,-8.22 v 0 a 0.33,0.33 0 0 1 0.46,-0.15 c 0.07,0 0.11,0.09 0.15,0.14 v 0.05 0 l 1.51,6.6 0.65,-0.14 a 0.34,0.34 0 0 1 0.42,0.25 0.35,0.35 0 0 1 -0.27,0.41 l -0.65,0.15 0.38,1.65 a 0.34,0.34 0 0 1 -0.26,0.41 0.35,0.35 0 0 1 -0.41,-0.26 z m -0.15,-0.66 -1.3,-5.64 -3.26,6.69 z"
       style="fill:#c7c7c7"
       id="path30" />
    <path
       d="m 120.62,138.66 a 0.34,0.34 0 0 1 -0.11,-0.48 0.36,0.36 0 0 1 0.49,-0.12 2.67,2.67 0 0 0 2,0.33 2.66,2.66 0 0 0 2,-3.17 2.64,2.64 0 0 0 -4.81,-0.8 0.34,0.34 0 0 1 -0.48,0.11 0.29,0.29 0 0 1 -0.1,-0.09 v 0 a 0.23,0.23 0 0 1 0,-0.1 v -0.07 l -0.43,-4 a 0.34,0.34 0 0 1 0.08,-0.28 0.3,0.3 0 0 1 0.21,-0.13 l 4.48,-1 a 0.37,0.37 0 0 1 0.43,0.27 0.34,0.34 0 0 1 -0.27,0.42 l -4.2,1 0.32,2.94 a 3.36,3.36 0 0 1 1.53,-0.82 3.32,3.32 0 0 1 4,2.52 3.32,3.32 0 0 1 -0.42,2.53 3.46,3.46 0 0 1 -2.09,1.48 3.35,3.35 0 0 1 -2.63,-0.54 z"
       style="fill:#c7c7c7"
       id="path31" />
    <path
       d="m 128.28,130 a 4,4 0 0 1 2.89,-2.86 0.34,0.34 0 0 1 0.42,0.23 0.38,0.38 0 0 1 -0.25,0.44 3.35,3.35 0 0 0 -2.41,2.39 6.52,6.52 0 0 0 -0.24,2.09 3.22,3.22 0 0 1 2.13,-1.64 3.26,3.26 0 1 1 -2.42,4 4.17,4.17 0 0 1 -0.18,-0.63 8.13,8.13 0 0 1 0.06,-4.02 z m 0.78,4.46 a 0.44,0.44 0 0 0 0.07,0.17 0.17,0.17 0 0 1 0,0.1 2.7,2.7 0 1 0 -0.08,-0.33 z"
       style="fill:#c7c7c7"
       id="path32" />
    <path
       d="m 138.87,135 1.62,-9.27 -4.65,1.07 a 0.34,0.34 0 0 1 -0.41,-0.25 0.35,0.35 0 0 1 0.26,-0.41 l 5.09,-1.17 a 0.37,0.37 0 0 1 0.21,0 0.42,0.42 0 0 1 0.23,0.16 0.54,0.54 0 0 1 0.05,0.11 0.31,0.31 0 0 1 0,0.19 l -1.69,9.72 a 0.36,0.36 0 0 1 -0.25,0.27 0.26,0.26 0 0 1 -0.15,0 0.37,0.37 0 0 1 -0.31,-0.42 z"
       style="fill:#c7c7c7"
       id="path33" />
    <path
       d="m 146.28,123.62 a 2.07,2.07 0 0 1 2.47,1.53 2.1,2.1 0 0 1 -0.46,1.82 3.19,3.19 0 1 1 -2.38,0.54 2.1,2.1 0 0 1 -1.17,-1.44 2,2 0 0 1 1.54,-2.45 z m 2.06,9 a 2.52,2.52 0 1 0 -3,-1.9 2.51,2.51 0 0 0 3,1.87 z M 147.05,127 a 1.41,1.41 0 0 0 1,-1.67 1.38,1.38 0 0 0 -2.69,0.61 1.41,1.41 0 0 0 1.69,1.06 z"
       style="fill:#c7c7c7"
       id="path34" />
    <path
       d="m 163.4,119.69 a 3.24,3.24 0 0 1 3.81,2.08 v 0.06 c 0.08,0.26 0.15,0.53 0.22,0.82 a 8.06,8.06 0 0 1 0,4 4.07,4.07 0 0 1 -2.89,2.86 v 0 a 0.34,0.34 0 0 1 -0.42,-0.24 0.36,0.36 0 0 1 0.25,-0.43 3.37,3.37 0 0 0 2.4,-2.4 6.22,6.22 0 0 0 0.25,-2.08 3.26,3.26 0 1 1 -3.61,-4.73 z m 3.25,2.58 a 2.58,2.58 0 1 0 -2,3.08 2.57,2.57 0 0 0 2,-3.08 z"
       style="fill:#c7c7c7"
       id="path35" />
    <path
       d="m 170.14,123.21 a 6.35,6.35 0 0 1 0.15,-3.59 2.8,2.8 0 0 1 4.82,-1.1 6.46,6.46 0 0 1 1.71,3.15 6.39,6.39 0 0 1 -0.17,3.58 2.78,2.78 0 0 1 -4.81,1.1 6.17,6.17 0 0 1 -1.7,-3.14 z m 0.68,-0.16 a 5.58,5.58 0 0 0 1.5,2.8 2.35,2.35 0 0 0 2.11,0.73 2.4,2.4 0 0 0 1.57,-1.58 6,6 0 0 0 -1.37,-6 2.11,2.11 0 0 0 -3.69,0.85 5.66,5.66 0 0 0 -0.12,3.2 z"
       style="fill:#c7c7c7"
       id="path36" />
    <path
       d="m 180.39,116.81 -1.18,1.11 a 0.34,0.34 0 0 1 -0.15,0.09 0.35,0.35 0 0 1 -0.33,-0.09 0.33,0.33 0 0 1 0,-0.49 l 1.6,-1.55 a 0.35,0.35 0 0 1 0.48,0 0.43,0.43 0 0 1 0.1,0.24 l 2,8.84 a 0.34,0.34 0 0 1 -0.25,0.41 0.35,0.35 0 0 1 -0.41,-0.25 z"
       style="fill:#c7c7c7"
       id="path37" />
    <path
       d="m 185.26,124.18 3.57,-5.09 a 2.58,2.58 0 0 0 0.4,-2 2.54,2.54 0 0 0 -3,-1.89 2.53,2.53 0 0 0 -1.53,1 l -0.37,0.53 a 0.32,0.32 0 0 1 -0.47,0.09 0.32,0.32 0 0 1 -0.1,-0.47 l 0.37,-0.54 a 3.33,3.33 0 0 1 1.95,-1.31 3.24,3.24 0 0 1 3.85,2.42 3.25,3.25 0 0 1 -0.49,2.58 l -3.05,4.36 4.55,-1 a 0.34,0.34 0 0 1 0.41,0.27 0.35,0.35 0 0 1 -0.25,0.4 l -5.37,1.23 h -0.06 a 0.36,0.36 0 0 1 -0.27,0 0.39,0.39 0 0 1 -0.14,-0.58 z"
       style="fill:#c7c7c7"
       id="path38" />
    <path
       d="m 205.52,110.64 -1.9,3.13 a 3.47,3.47 0 0 1 1.86,0.5 3.42,3.42 0 0 1 1.48,2.1 3.27,3.27 0 0 1 -0.44,2.53 3.37,3.37 0 0 1 -2.09,1.5 3.28,3.28 0 0 1 -2.51,-0.44 0.35,0.35 0 1 1 0.37,-0.59 2.59,2.59 0 0 0 2,0.32 2.63,2.63 0 0 0 2,-3.16 2.64,2.64 0 0 0 -3.17,-2 0.36,0.36 0 0 1 -0.3,-0.08 v 0 a 0.35,0.35 0 0 1 -0.11,-0.49 l 1.83,-3 -3.69,0.84 a 0.34,0.34 0 0 1 -0.42,-0.26 0.36,0.36 0 0 1 0.26,-0.43 l 4.5,-1 a 0.36,0.36 0 0 1 0.43,0.26 0.32,0.32 0 0 1 0,0.17 0.26,0.26 0 0 1 -0.1,0.1 z"
       style="fill:#c7c7c7"
       id="path39" />
    <path
       d="M 215.23,115.83 210,117 v 0 a 0.34,0.34 0 0 1 -0.22,0 0.33,0.33 0 0 1 -0.15,-0.46 l 4,-8.22 v 0 a 0.33,0.33 0 0 1 0.46,-0.14 0.4,0.4 0 0 1 0.15,0.14 c 0,0 0,0 0,0.05 v 0 l 1.52,6.6 0.65,-0.14 a 0.34,0.34 0 0 1 0.42,0.25 0.35,0.35 0 0 1 -0.27,0.41 l -0.65,0.14 0.38,1.66 a 0.34329288,0.34329288 0 1 1 -0.67,0.15 z m -0.15,-0.66 -1.3,-5.64 -3.26,6.69 z"
       style="fill:#c7c7c7"
       id="path40" />
    <path
       d="m 219.29,116 a 0.34,0.34 0 0 1 -0.11,-0.48 0.35,0.35 0 0 1 0.49,-0.11 2.61,2.61 0 0 0 2,0.32 2.57,2.57 0 0 0 1.64,-1.17 2.63,2.63 0 0 0 0.34,-2 2.64,2.64 0 0 0 -4.81,-0.81 0.34,0.34 0 0 1 -0.48,0.11 0.24,0.24 0 0 1 -0.11,-0.09 v 0 a 0.28,0.28 0 0 1 0,-0.11 c 0,0 0,0 0,-0.07 l -0.43,-4 a 0.32,0.32 0 0 1 0.08,-0.28 0.35,0.35 0 0 1 0.2,-0.13 l 4.49,-1 a 0.35415392,0.35415392 0 0 1 0.16,0.69 l -4.2,1 0.31,2.94 a 3.33,3.33 0 0 1 1.54,-0.81 3.24,3.24 0 0 1 2.52,0.42 3.27,3.27 0 0 1 1.48,2.09 3.31,3.31 0 0 1 -0.42,2.53 3.42,3.42 0 0 1 -2.09,1.48 3.3,3.3 0 0 1 -2.6,-0.52 z"
       style="fill:#c7c7c7"
       id="path41" />
    <path
       d="m 227,107.3 a 4,4 0 0 1 2.89,-2.87 0.34,0.34 0 0 1 0.41,0.24 0.36,0.36 0 0 1 -0.24,0.43 3.36,3.36 0 0 0 -2.41,2.4 6.46,6.46 0 0 0 -0.24,2.08 3.21,3.21 0 0 1 2.13,-1.63 3.26,3.26 0 1 1 -2.43,4 5.79,5.79 0 0 1 -0.17,-0.63 8.13,8.13 0 0 1 0.06,-4.02 z m 0.78,4.46 a 0.85,0.85 0 0 0 0.06,0.17 0.18,0.18 0 0 1 0,0.1 2.64,2.64 0 1 0 -0.09,-0.33 z"
       style="fill:#c7c7c7"
       id="path42" />
    <rect
       x="88.099998"
       y="154.67999"
       width="86.190002"
       height="4.2399998"
       transform="rotate(-12.94,131.23723,156.80198)"
       style="fill:#c7c7c7"
       id="rect42" />
    <rect
       x="90.529999"
       y="166.66"
       width="61.02"
       height="4.2399998"
       transform="rotate(-12.94,121.07657,168.82343)"
       style="fill:#c7c7c7"
       id="rect43" />
    <rect
       x="145.37"
       y="73.790001"
       width="42.990002"
       height="4.2399998"
       transform="rotate(-12.94,166.89241,75.908421)"
       style="fill:#c7c7c7"
       id="rect44" />
    <g
       id="freepik--u5Zjqx--inject-2">
      <path
         d="m 222,79.72 -1,-0.61 -0.56,-0.34 A 11,11 0 0 0 217,63.57 l 0.34,-0.52 c 0.21,-0.32 0.41,-0.64 0.61,-1 v 0 h 0.06 c 0.37,0.26 0.75,0.51 1.11,0.79 a 12.36,12.36 0 0 1 2,2 12,12 0 0 1 1.72,2.83 c 0.21,0.48 0.37,1 0.55,1.48 0.06,0.16 0.32,1.29 0.32,1.33 0.06,0.35 0.12,0.7 0.16,1.06 a 11.65,11.65 0 0 1 0,3 13.08,13.08 0 0 1 -1.31,4.2 c -0.18,0.33 -0.38,0.66 -0.56,1 z"
         style="fill:#ffffff"
         id="path44" />
      <path
         d="m 215.14,66.63 c 0.31,-0.51 0.63,-1 1,-1.52 a 9,9 0 0 1 3.69,4.49 9.1,9.1 0 0 1 -0.79,8.19 l -1.53,-1 a 7.4,7.4 0 0 0 -2.32,-10.2 z"
         style="fill:#ffffff"
         id="path45" />
      <path
         d="m 215.92,75.86 -1.52,-1 a 3.77,3.77 0 0 0 -1.19,-5.22 l 1,-1.52 a 5.54,5.54 0 0 1 1.71,7.74 z"
         style="fill:#ffffff"
         id="path46" />
    </g>
  </g>
  <g
     id="freepik--Floor--inject-2"
     transform="translate(-50.72,-43.007162)">
    <polygon
       points="212.86,441.27 375,441.11 537.14,441.27 618.21,441.36 699.28,441.6 618.21,441.85 537.14,441.94 375,442.1 212.86,441.94 131.79,441.85 50.72,441.6 131.79,441.36 "
       style="fill:#263238"
       id="polygon46" />
  </g>
  <g
     id="freepik--Plant--inject-2"
     transform="translate(-50.72,-43.007162)">
    <path
       d="m 94.27,274.51 c 0,0 -23.52,-3.3 -18,-31.7 -0.03,0 26.26,5.9 18,31.7 z"
       style="fill:#00adef"
       id="path47" />
    <path
       d="m 94.27,274.51 c 0,0 -23.52,-3.3 -18,-31.7 -0.03,0 26.26,5.9 18,31.7 z"
       style="opacity:0.1"
       id="path48" />
    <path
       d="m 93.08,268.58 a 44.83,44.83 0 0 0 -1.6,-4.23 c 0,-0.19 0,-0.37 -0.06,-0.54 0,-0.39 -0.07,-0.78 -0.1,-1.17 -0.06,-0.85 -0.12,-1.7 -0.17,-2.55 -0.1,-1.69 -0.21,-3.39 -0.23,-5.09 0,-0.09 -0.14,-0.09 -0.15,0 0,1.7 0,3.4 0,5.1 0,0.85 0.08,1.7 0.14,2.55 0,0.18 0,0.37 0,0.56 a 51.28,51.28 0 0 0 -4.72,-8.07 c -0.81,-1.13 -1.66,-2.21 -2.57,-3.26 -0.91,-1.05 -1.93,-2.09 -2.88,-3.15 -0.06,-0.07 -0.16,0 -0.1,0.1 a 42.47,42.47 0 0 1 4.54,6 c 0.71,1.08 1.39,2.19 2,3.32 L 86.96,258.06 86.12,257.72 84.3,257 c -1.26,-0.47 -2.53,-0.93 -3.78,-1.41 -0.08,0 -0.13,0.1 -0.06,0.13 1.26,0.5 2.49,1 3.73,1.56 l 1.82,0.78 c 0.31,0.14 0.61,0.26 0.92,0.38 a 2.56,2.56 0 0 0 0.62,0.22 c 0.48,0.86 1,1.71 1.38,2.58 a 62.1,62.1 0 0 1 2.88,6.78 c 0,0.16 0.11,0.32 0.17,0.49 a 14.81,14.81 0 0 0 -1.93,-0.93 c -0.81,-0.38 -1.63,-0.74 -2.44,-1.11 -1.65,-0.76 -3.29,-1.53 -4.87,-2.42 -0.08,-0.05 -0.15,0.08 -0.07,0.12 1.62,0.89 3.2,1.83 4.82,2.71 0.81,0.44 1.63,0.86 2.45,1.26 a 7.94,7.94 0 0 0 2.21,0.89 27.76,27.76 0 0 1 1.55,6.67 c 0.26,3.21 0.23,6.45 0.3,9.67 a 0.045,0 -180 0 0 0.09,0 c 0.23,-2.92 0.37,-5.87 0.38,-8.8 a 25.46,25.46 0 0 0 -1.39,-7.99 z"
       style="fill:#263238"
       id="path49" />
    <path
       d="m 89.46,251.88 a 28,28 0 0 0 -0.23,5 c 0,0 0.06,0 0.07,0 0.09,-1.66 0.11,-3.31 0.3,-5 0.01,-0.06 -0.13,-0.09 -0.14,0 z"
       style="fill:#263238"
       id="path50" />
    <path
       d="m 82.73,253.3 a 18,18 0 0 1 -3,-1.49 c -0.08,-0.05 -0.15,0.08 -0.07,0.13 a 11.58,11.58 0 0 0 3,1.46 c 0.09,0.01 0.13,-0.08 0.07,-0.1 z"
       style="fill:#263238"
       id="path51" />
    <path
       d="m 95,319.59 c 0,-2.6 -0.07,-5.2 -0.1,-7.8 0,-8.63 -0.12,-17.26 -0.27,-25.9 q -0.2,-10.27 -0.48,-20.55 a 0.11,0.11 0 0 0 -0.06,-0.09 v -5.62 c 0,0 -0.06,-0.07 -0.11,-0.06 -0.05,0.01 -0.11,0 -0.11,0.07 0,1.87 0,3.75 0,5.62 a 0.1,0.1 0 0 0 0,0.08 c -0.35,12.2 -0.66,24.4 -0.73,36.6 0,2.48 0,5 0,7.44 q -0.13,11.94 -0.1,23.86 c 0,1.27 0,2.54 0,3.8 0,7.28 0.07,14.56 0.07,21.84 0,0.39 0.44,0.58 0.9,0.6 0.46,0.02 1.09,-0.19 1.09,-0.64 0,-8 0.06,-16 0.06,-24.07 C 95,329.71 95.06,324.65 95,319.59 Z"
       style="fill:#263238"
       id="path52" />
    <path
       d="m 85.2,311.69 c 0,0 -11.32,-8.38 -22.06,-2.69 -10.74,5.69 -12.42,27.5 -12.42,27.5 0,0 15.77,2.25 25.7,-7.2 9.58,-9.13 8.78,-17.61 8.78,-17.61 z"
       style="fill:#00adef"
       id="path53" />
    <path
       d="m 88.28,312.21 a 13.51,13.51 0 0 0 -6.55,-0.85 9.22,9.22 0 0 0 -1.39,-0.14 l -1.59,-0.12 -3.3,-0.23 c -2.24,-0.17 -4.48,-0.3 -6.7,-0.53 -0.08,0 -0.1,0.13 0,0.14 2.21,0.28 4.4,0.6 6.61,0.82 1.14,0.12 2.28,0.23 3.42,0.31 l 0.83,0.09 c -0.34,0.07 -0.68,0.15 -1,0.24 A 27.76,27.76 0 0 0 73.45,314 c -0.89,0.16 -1.77,0.41 -2.65,0.61 -1.4,0.33 -2.79,0.69 -4.18,1.06 -2.75,0.72 -5.47,1.53 -8.2,2.32 -0.08,0 0,0.16 0,0.14 2.72,-0.67 5.46,-1.28 8.19,-1.93 l 4,-1 c 0.34,-0.09 0.69,-0.17 1,-0.24 a 32.87,32.87 0 0 0 -8,7 42.9,42.9 0 0 0 -5.59,8.81 c 0,0.08 0.07,0.16 0.12,0.08 A 43.26,43.26 0 0 1 64.93,322 l -0.15,0.45 -0.63,2 c -0.41,1.34 -0.84,2.67 -1.24,4 a 0.07,0.07 0 0 0 0.14,0 c 0.48,-1.29 0.93,-2.59 1.39,-3.89 0.22,-0.64 0.45,-1.27 0.67,-1.91 0.12,-0.33 0.23,-0.66 0.34,-1 a 2.83,2.83 0 0 1 0.11,-0.31 40.49,40.49 0 0 1 4,-3.42 30.56,30.56 0 0 1 6,-3.44 l -0.12,0.58 -0.33,1.55 c -0.22,1.07 -0.43,2.14 -0.64,3.22 -0.42,2.19 -0.69,4.4 -1.1,6.59 0,0.09 0.12,0.13 0.14,0 0.51,-2.2 1.16,-4.37 1.65,-6.58 0.25,-1.1 0.5,-2.21 0.73,-3.31 0.1,-0.52 0.21,-1 0.31,-1.55 a 8.85,8.85 0 0 0 0.16,-0.87 c 0.21,-0.08 0.41,-0.18 0.61,-0.25 3,-1.1 6.25,-1.9 9.42,-1.29 a 9.25,9.25 0 0 1 6.81,5.45 c 0.1,0.25 0.49,0.1 0.43,-0.16 a 8.75,8.75 0 0 0 -5.35,-5.65 z"
       style="fill:#263238"
       id="path54" />
    <path
       d="m 71,321.54 -1,4.3 a 33.1,33.1 0 0 0 -0.79,4.18 c 0,0.06 0.08,0.06 0.1,0 a 33.74,33.74 0 0 0 1,-4.21 c 0.28,-1.42 0.55,-2.83 0.83,-4.25 A 0.07071068,0.07071068 0 0 0 71,321.54 Z"
       style="fill:#263238"
       id="path55" />
    <path
       d="m 60,325.18 c -1.44,0.73 -2.84,1.56 -4.35,2.16 -0.09,0 0,0.18 0.06,0.13 a 46.38,46.38 0 0 0 4.32,-2.23 c 0,0 0.02,-0.08 -0.03,-0.06 z"
       style="fill:#263238"
       id="path56" />
    <path
       d="m 87.74,296.3 c 0,0 -13.83,0.88 -20.26,-8.24 -6.43,-9.12 -5,-22.14 -5,-22.14 0,0 14.53,1.76 20.3,8.31 5.77,6.55 4.96,22.07 4.96,22.07 z"
       style="fill:#00adef"
       id="path57" />
    <path
       d="m 94.23,309.94 c -0.48,-1.48 -1.07,-2.94 -1.63,-4.39 -0.56,-1.45 -1.11,-2.78 -1.72,-4.14 a 83.19,83.19 0 0 0 -4.15,-8.15 c -1,-1.68 -2,-3.31 -3.09,-4.92 0,-0.25 -0.07,-0.49 -0.11,-0.74 -0.07,-0.43 -0.13,-0.85 -0.19,-1.28 -0.14,-0.88 -0.29,-1.75 -0.44,-2.62 -0.32,-1.91 -0.71,-3.81 -1,-5.72 0,-0.09 -0.15,-0.09 -0.14,0 0.28,1.89 0.47,3.79 0.73,5.68 0.13,0.92 0.25,1.85 0.39,2.78 0.06,0.33 0.11,0.67 0.16,1 a 97.38,97.38 0 0 0 -6.84,-8.87 c -0.33,-0.38 -0.67,-0.76 -1,-1.13 a 2.15,2.15 0 0 0 -0.13,-0.32 l -0.3,-0.79 -0.6,-1.65 c -0.38,-1.08 -0.73,-2.18 -1,-3.29 a 0.07,0.07 0 1 0 -0.13,0 c 0.28,1.14 0.57,2.27 0.9,3.39 0.16,0.54 0.34,1.08 0.53,1.61 l 0.1,0.27 c -1.77,-1.93 -3.61,-3.79 -5.47,-5.62 -0.07,-0.07 -0.17,0 -0.1,0.1 a 100.1,100.1 0 0 1 9.8,12 7.77,7.77 0 0 0 -1,-0.26 c -1.06,-0.21 -2.14,-0.36 -3.21,-0.5 -2.26,-0.28 -4.5,-0.57 -6.75,-0.92 a 0.07,0.07 0 0 0 0,0.14 c 2.14,0.42 4.27,0.9 6.39,1.39 1,0.23 2,0.43 3,0.63 a 18.1,18.1 0 0 1 2.42,0.69 c 0.23,0.32 0.46,0.63 0.68,1 1,1.47 2,3 2.94,4.5 l -1.41,-0.28 c -1.07,-0.2 -2.14,-0.4 -3.21,-0.57 -2.11,-0.35 -4.22,-0.72 -6.31,-1.19 a 0.07,0.07 0 0 0 0,0.14 c 2.11,0.49 4.21,1.07 6.31,1.63 1,0.27 2,0.52 3,0.74 l 1.54,0.34 a 3.79,3.79 0 0 0 0.62,0.1 c 2,3.28 3.92,6.63 5.67,10 0.78,1.51 1.52,3 2.24,4.56 0.72,1.56 1.37,3.17 2,4.76 0.12,0.38 0.62,0.25 0.51,-0.1 z"
       style="fill:#263238"
       id="path58" />
    <path
       d="m 80.08,278.16 c -0.27,-1.32 -0.55,-2.63 -0.84,-4 0,-0.09 -0.15,0 -0.13,0 0.26,1.3 0.51,2.6 0.74,3.9 a 39,39 0 0 0 0.79,3.87 c 0,0 0,0 0,0 a 27.91,27.91 0 0 0 -0.56,-3.77 z"
       style="fill:#263238"
       id="path59" />
    <path
       d="m 72,277.78 c -0.64,-0.32 -1.32,-0.58 -2,-0.84 l -1,-0.41 -0.53,-0.22 a 2.31,2.31 0 0 1 -0.58,-0.25 c -0.11,-0.08 -0.17,0.1 -0.07,0.12 a 2.71,2.71 0 0 1 0.59,0.24 l 0.52,0.24 1,0.45 a 21.29,21.29 0 0 0 2,0.81 c 0.07,0.02 0.16,-0.11 0.07,-0.14 z"
       style="fill:#263238"
       id="path60" />
    <path
       d="m 101.9,285.42 c 0,0 8.37,-15.63 21.1,-18.05 12.73,-2.42 20.53,10.68 20.53,10.68 0,0 -9.29,11.86 -21,13.93 -11.71,2.07 -20.63,-6.56 -20.63,-6.56 z"
       style="fill:#00adef"
       id="path61" />
    <path
       d="m 131.53,274.38 a 34.07,34.07 0 0 0 -10,0.12 l 0.57,-0.31 2.82,-1.45 a 66.06,66.06 0 0 1 6,-2.92 c 0.09,0 0,-0.18 -0.06,-0.13 -2,0.92 -4.06,1.7 -6.05,2.62 -1,0.46 -2,0.94 -3,1.45 -0.63,0.34 -1.32,0.65 -1.94,1.05 a 34.64,34.64 0 0 0 -8.09,2.69 l 1.59,-1.74 c 1.19,-1.29 2.35,-2.66 3.66,-3.84 0.07,-0.06 0,-0.16 -0.11,-0.1 -1.33,1.21 -2.74,2.33 -4,3.59 -0.63,0.61 -1.23,1.24 -1.81,1.89 -0.29,0.33 -0.58,0.66 -0.86,1 a 33.49,33.49 0 0 0 -17.07,23.05 c 0,0.09 0.11,0.14 0.13,0.05 a 38.46,38.46 0 0 1 9.36,-15.84 36.76,36.76 0 0 1 17.06,-9.87 37.4,37.4 0 0 1 11.78,-1.07 c 0.17,0.02 0.18,-0.22 0.02,-0.24 z"
       style="fill:#263238"
       id="path62" />
    <path
       d="m 143.53,278.05 c 0,0 -9.29,11.86 -21,13.93 -8.91,1.58 -16.24,-3.07 -19.22,-5.36 l -0.64,-1.05 c 0,0 6,-5.08 17.43,-8 11.43,-2.92 23.43,0.48 23.43,0.48 z"
       style="opacity:0.1"
       id="path63" />
    <path
       d="m 124.14,268.8 a 31.45,31.45 0 0 0 -2.83,1.87 18.09,18.09 0 0 0 -2.46,2.25 c -0.06,0.07 0,0.16 0.11,0.1 0.85,-0.73 1.7,-1.47 2.58,-2.16 a 26.72,26.72 0 0 1 2.67,-1.94 c 0.08,-0.04 0.01,-0.17 -0.07,-0.12 z"
       style="fill:#263238"
       id="path64" />
    <path
       d="m 131.13,271.45 c -0.48,0.2 -1,0.37 -1.43,0.56 l -1.42,0.59 c -0.1,0 -0.05,0.21 0.05,0.16 l 1.42,-0.57 c 0.48,-0.19 0.94,-0.41 1.42,-0.6 0.08,-0.04 0.04,-0.18 -0.04,-0.14 z"
       style="fill:#263238"
       id="path65" />
    <path
       d="m 100.23,305.1 c 0,0 2.23,15.51 13.9,20.93 C 125.8,331.45 140,326 140,326 c 0,0 -5.59,-33.52 -39.77,-20.9 z"
       style="fill:#00adef"
       id="path66" />
    <path
       d="m 132,316 c -1.08,-0.13 -2.15,-0.31 -3.21,-0.51 l -1.57,-0.29 -0.82,-0.17 c -0.31,-0.29 -0.62,-0.59 -0.94,-0.87 a 46.93,46.93 0 0 0 -7.13,-5.17 40.17,40.17 0 0 0 -4.28,-2.2 h 0.22 l 3.84,0.17 c 2.56,0.12 5.12,0.18 7.68,0.34 0.09,0 0.09,-0.14 0,-0.14 -2.56,-0.18 -5.12,-0.46 -7.68,-0.68 l -3.73,-0.33 -1.92,-0.17 -0.49,-0.05 c -0.67,-0.25 -1.34,-0.48 -2,-0.69 a 18.16,18.16 0 0 0 -9.88,-0.55 c -2.93,0.75 -5.86,2.67 -6.62,5.77 0,0.1 0.14,0.18 0.19,0.07 1.09,-2.58 4,-3.88 6.55,-4.42 a 15.86,15.86 0 0 1 5.28,-0.11 12.07,12.07 0 0 0 0.59,2.35 c 0.32,1.09 0.64,2.18 1,3.27 0.66,2.18 1.39,4.34 2,6.52 a 0.07,0.07 0 1 0 0.13,0 c -0.54,-2.18 -1,-4.37 -1.52,-6.56 -0.26,-1.07 -0.53,-2.13 -0.79,-3.2 a 17.26,17.26 0 0 0 -0.59,-2.21 27.83,27.83 0 0 1 3,0.72 44.56,44.56 0 0 1 5.28,1.93 c 0.17,1.11 0.42,2.2 0.67,3.29 0.32,1.37 0.68,2.73 1.11,4.07 a 0.07,0.07 0 0 0 0.13,0 2.38,2.38 0 0 0 0,-0.26 v 0 c -0.26,-1.27 -0.54,-2.53 -0.81,-3.8 -0.22,-1 -0.41,-2.05 -0.64,-3.07 a 47.07,47.07 0 0 1 4.25,2.16 c 0,0.31 0.11,0.64 0.16,0.92 0.08,0.54 0.18,1.07 0.27,1.6 0.22,1.19 0.46,2.38 0.75,3.57 a 56.64,56.64 0 0 0 2,6.74 0.1,0.1 0 0 0 0,0.09 l 0.07,0.08 c 0,0.06 0.13,0 0.12,-0.07 -0.54,-2.3 -1.16,-4.58 -1.66,-6.89 -0.25,-1.15 -0.51,-2.3 -0.74,-3.46 l -0.33,-1.73 c 0,-0.17 -0.05,-0.34 -0.08,-0.52 a 49.27,49.27 0 0 1 11.49,9.37 c 0.08,0.09 0.25,0 0.17,-0.14 a 42.78,42.78 0 0 0 -2.78,-3.39 c -0.58,-0.63 -1.19,-1.23 -1.81,-1.83 h 0.19 c 0.55,0.09 1.09,0.17 1.64,0.24 1.08,0.15 2.16,0.25 3.24,0.37 0,-0.07 0.06,-0.16 0,-0.16 z"
       style="fill:#263238"
       id="path67" />
    <path
       d="m 123.77,321.2 v 0 c 0,-0.13 0,-0.27 -0.06,-0.4 a 4.25,4.25 0 0 1 -0.14,-0.51 v 0 c -0.24,-1 -0.44,-2.08 -0.63,-3.13 0,-0.07 -0.13,-0.05 -0.12,0 a 12.56,12.56 0 0 0 0.88,4.05 c 0,0 0.09,0 0.08,0 z"
       style="fill:#263238"
       id="path68" />
    <path
       d="m 114,321 c 0,0 0,-0.06 -0.07,-0.06 -0.32,-1.37 -0.64,-2.75 -0.92,-4.13 -0.15,-0.73 -0.3,-1.45 -0.44,-2.18 -0.08,-0.4 -0.15,-0.79 -0.22,-1.18 a 3.48,3.48 0 0 0 -0.25,-1 0.07,0.07 0 0 0 -0.13,0 6.75,6.75 0 0 0 0.29,2.08 c 0.14,0.76 0.29,1.52 0.46,2.27 0.34,1.53 0.72,3.05 1.15,4.56 a 0.08,0.08 0 0 0 0.16,0 z"
       style="fill:#263238"
       id="path69" />
    <path
       d="m 130.91,311.48 c -2.13,-0.29 -4.26,-0.6 -6.4,-0.86 -0.09,0 -0.12,0.13 0,0.14 2.13,0.31 4.26,0.58 6.39,0.86 0.1,0.01 0.1,-0.13 0.01,-0.14 z"
       style="fill:#263238"
       id="path70" />
    <path
       d="m 94.25,268.73 c 0,0 -7.13,-31.31 26.5,-44 0,0.02 9.32,41.27 -26.5,44 z"
       style="fill:#00adef"
       id="path71" />
    <path
       d="m 101.51,251 0.36,-0.22 1.91,-1.06 3.9,-2.18 c 2.56,-1.44 5.1,-2.93 7.68,-4.34 0.08,0 0,-0.16 -0.07,-0.12 -2.59,1.41 -5.23,2.73 -7.83,4.1 l -3.86,2 -1.6,0.82 c 1.12,-2.12 2.32,-4.21 3.64,-6.22 1.75,-2.68 3.68,-5.23 5.69,-7.73 a 0.12,0.12 0 0 0 -0.17,-0.16 53.21,53.21 0 0 0 -7.78,9.53 c 0,-0.11 0,-0.22 0,-0.32 0,-0.78 0.06,-1.56 0.07,-2.34 0,-1.53 0,-3.06 0,-4.59 0,-0.09 -0.14,-0.08 -0.15,0 -0.06,1.5 -0.24,3 -0.33,4.5 0,0.76 -0.07,1.5 -0.09,2.26 0,0.4 0,0.86 0,1.31 -0.69,1.1 -1.36,2.22 -2,3.35 a 57.93,57.93 0 0 0 -3,6.31 c 0,-0.78 -0.08,-1.56 -0.13,-2.34 -0.1,-1.71 -0.31,-3.42 -0.38,-5.14 a 0.07,0.07 0 1 0 -0.14,0 c 0,1.71 0,3.43 0,5.14 0,0.86 0.06,1.72 0.11,2.57 l 0.06,1 a 57.53,57.53 0 0 0 -2.54,8.6 94.37,94.37 0 0 0 -1.25,9.45 c 0,0 0,0 0,0 a 50.77,50.77 0 0 1 1.78,-8.43 c 0.42,-1.47 0.86,-2.94 1.33,-4.4 1.4,-0.66 2.74,-1.48 4.09,-2.23 1.35,-0.75 2.82,-1.54 4.22,-2.31 2.81,-1.54 5.61,-3.11 8.5,-4.47 0.09,0 0,-0.16 -0.07,-0.12 -2.93,1.33 -5.89,2.59 -8.77,4 -1.43,0.72 -2.84,1.49 -4.24,2.27 -1.17,0.66 -2.37,1.32 -3.48,2.08 0.32,-1 0.66,-1.95 1,-2.91 1.11,-2.58 2.26,-5.17 3.54,-7.66 z"
       style="fill:#263238"
       id="path72" />
    <path
       d="m 98.68,243.81 a 0.08,0.08 0 0 0 -0.15,0 c 0.13,1.78 0.19,3.57 0.37,5.35 0,0.1 0.17,0.1 0.16,0 -0.06,-1.78 -0.25,-3.56 -0.38,-5.35 z"
       style="fill:#263238"
       id="path73" />
    <path
       d="m 114.8,249.79 c -2.1,0.85 -4.22,1.66 -6.32,2.53 -0.06,0 0,0.12 0,0.1 2.13,-0.8 4.22,-1.66 6.34,-2.49 0.11,-0.03 0.07,-0.17 -0.02,-0.14 z"
       style="fill:#263238"
       id="path74" />
    <path
       d="m 118,235.35 a 56.31,56.31 0 0 0 -6,3.21 0.0917878,0.0917878 0 0 0 0.09,0.16 c 2,-1.14 3.94,-2.24 6,-3.24 0.07,-0.04 -0.01,-0.16 -0.09,-0.13 z"
       style="fill:#263238"
       id="path75" />
    <rect
       x="68.980003"
       y="336.42999"
       width="48.509998"
       height="51.130001"
       style="fill:#455a64"
       id="rect75" />
    <rect
       x="65.650002"
       y="354.51999"
       width="2.48"
       height="87.580002"
       style="fill:#263238"
       id="rect76" />
    <rect
       x="118.09"
       y="354.51999"
       width="2.48"
       height="87.580002"
       style="fill:#263238"
       id="rect77" />
    <rect
       x="93.190002"
       y="354.51999"
       width="2.48"
       height="87.580002"
       style="fill:#263238"
       id="rect78" />
    <rect
       x="66.889999"
       y="384.28"
       width="52.439999"
       height="7.0799999"
       style="fill:#263238"
       id="rect79" />
  </g>
  <g
     id="freepik--Device--inject-2"
     transform="translate(-50.72,-43.007162)">
    <rect
       x="68.629997"
       y="419.29001"
       width="612.73999"
       height="22.32"
       style="fill:#c7c7c7"
       id="rect80" />
    <rect
       x="122.94"
       y="82.07"
       width="504.10999"
       height="337.22"
       style="fill:#dbdbdb"
       id="rect81" />
    <rect
       x="126.61"
       y="86.18"
       width="496.79001"
       height="328.98999"
       style="fill:#263238"
       id="rect82" />
    <rect
       x="148.60001"
       y="107.33"
       width="452.79001"
       height="286.69"
       style="fill:#ffffff"
       id="rect83" />
    <polygon
       points="121.77,81.93 626.36,81.93 674.46,121.29 75.54,121.29 "
       style="fill:#00adef"
       id="polygon83" />
    <polygon
       points="121.61,121.29 163.44,81.93 206,81.93 167.68,121.29 "
       style="fill:#ebebeb"
       id="polygon84" />
    <polygon
       points="213.75,121.29 246.68,81.93 287.53,81.93 259.82,121.29 "
       style="fill:#ebebeb"
       id="polygon85" />
    <polygon
       points="305.89,121.29 320.59,81.93 356.74,81.93 351.96,121.29 "
       style="fill:#ebebeb"
       id="polygon86" />
    <polygon
       points="585.11,81.93 628.39,121.29 582.32,121.29 542.56,81.93 "
       style="fill:#ebebeb"
       id="polygon87" />
    <polygon
       points="503.09,81.93 536.25,121.29 490.18,121.29 465.6,81.93 "
       style="fill:#ebebeb"
       id="polygon88" />
    <polygon
       points="427.45,81.93 444.11,121.29 398.04,121.29 391.28,81.93 "
       style="fill:#ebebeb"
       id="polygon89" />
    <path
       d="m 98.57,144.61 v 0 a 23,23 0 0 1 -23,-23 v -0.28 h 46.07 v 0.28 a 23,23 0 0 1 -23.07,23 z"
       style="fill:#00adef"
       id="path89" />
    <path
       d="m 98.57,144.61 v 0 a 23,23 0 0 1 -23,-23 v -0.28 h 46.07 v 0.28 a 23,23 0 0 1 -23.07,23 z"
       style="opacity:0.1"
       id="path90" />
    <path
       d="m 144.64,144.61 v 0 a 23,23 0 0 1 -23,-23 v -0.28 h 46.07 v 0.28 a 23,23 0 0 1 -23.07,23 z"
       style="fill:#dbdbdb"
       id="path91" />
    <path
       d="m 190.72,144.61 v 0 a 23,23 0 0 1 -23,-23 v -0.28 h 46.07 v 0.28 a 23,23 0 0 1 -23.07,23 z"
       style="fill:#00adef"
       id="path92" />
    <path
       d="m 190.72,144.61 v 0 a 23,23 0 0 1 -23,-23 v -0.28 h 46.07 v 0.28 a 23,23 0 0 1 -23.07,23 z"
       style="opacity:0.1"
       id="path93" />
    <path
       d="m 236.79,144.61 v 0 a 23,23 0 0 1 -23,-23 v -0.28 h 46.07 v 0.28 a 23,23 0 0 1 -23.07,23 z"
       style="fill:#dbdbdb"
       id="path94" />
    <path
       d="m 282.86,144.61 v 0 a 23,23 0 0 1 -23,-23 v -0.28 h 46.07 v 0.28 a 23,23 0 0 1 -23.07,23 z"
       style="fill:#00adef"
       id="path95" />
    <path
       d="m 282.86,144.61 v 0 a 23,23 0 0 1 -23,-23 v -0.28 h 46.07 v 0.28 a 23,23 0 0 1 -23.07,23 z"
       style="opacity:0.1"
       id="path96" />
    <path
       d="m 328.93,144.61 v 0 a 23,23 0 0 1 -23,-23 v -0.28 H 352 v 0.28 a 23,23 0 0 1 -23.07,23 z"
       style="fill:#dbdbdb"
       id="path97" />
    <path
       d="m 375,144.61 v 0 a 23,23 0 0 1 -23,-23 v -0.28 h 46 v 0.28 a 23,23 0 0 1 -23,23 z"
       style="fill:#00adef"
       id="path98" />
    <path
       d="m 375,144.61 v 0 a 23,23 0 0 1 -23,-23 v -0.28 h 46 v 0.28 a 23,23 0 0 1 -23,23 z"
       style="opacity:0.1"
       id="path99" />
    <path
       d="m 421.07,144.61 v 0 a 23,23 0 0 1 -23,-23 v -0.28 h 46.07 v 0.28 a 23,23 0 0 1 -23.07,23 z"
       style="fill:#dbdbdb"
       id="path100" />
    <path
       d="m 467.14,144.61 v 0 a 23,23 0 0 1 -23,-23 v -0.28 h 46.07 v 0.28 a 23,23 0 0 1 -23.07,23 z"
       style="fill:#00adef"
       id="path101" />
    <path
       d="m 467.14,144.61 v 0 a 23,23 0 0 1 -23,-23 v -0.28 h 46.07 v 0.28 a 23,23 0 0 1 -23.07,23 z"
       style="opacity:0.1"
       id="path102" />
    <path
       d="m 513.21,144.61 v 0 a 23,23 0 0 1 -23,-23 v -0.28 h 46.07 v 0.28 a 23,23 0 0 1 -23.07,23 z"
       style="fill:#dbdbdb"
       id="path103" />
    <path
       d="m 559.28,144.61 v 0 a 23,23 0 0 1 -23,-23 v -0.28 h 46.07 v 0.28 a 23,23 0 0 1 -23.07,23 z"
       style="fill:#00adef"
       id="path104" />
    <path
       d="m 559.28,144.61 v 0 a 23,23 0 0 1 -23,-23 v -0.28 h 46.07 v 0.28 a 23,23 0 0 1 -23.07,23 z"
       style="opacity:0.1"
       id="path105" />
    <path
       d="m 605.36,144.61 v 0 a 23,23 0 0 1 -23,-23 v -0.28 h 46.07 v 0.28 a 23,23 0 0 1 -23.07,23 z"
       style="fill:#dbdbdb"
       id="path106" />
    <path
       d="m 651.43,144.61 v 0 a 23,23 0 0 1 -23,-23 v -0.28 h 46.07 v 0.28 a 23,23 0 0 1 -23.07,23 z"
       style="fill:#00adef"
       id="path107" />
    <path
       d="m 651.43,144.61 v 0 a 23,23 0 0 1 -23,-23 v -0.28 h 46.07 v 0.28 a 23,23 0 0 1 -23.07,23 z"
       style="opacity:0.1"
       id="path108" />
    <path
       d="m 671.42,134.76 0.08,0.15 a 0.18,0.18 0 0 1 -0.08,-0.07 0.91,0.91 0 0 1 -0.13,-0.08 z"
       style="fill:#00adef"
       id="path109" />
    <rect
       x="195"
       y="184.63"
       width="156.96001"
       height="156.96001"
       style="fill:#00adef"
       id="rect109" />
    <path
       d="m 317.83,285.22 h -67.19 a 2.92,2.92 0 0 1 -2.79,-2 l -19.2,-58.7 H 213 a 2.94,2.94 0 0 1 0,-5.87 h 17.79 a 2.93,2.93 0 0 1 2.79,2 l 19.19,58.69 h 65.07 a 2.94,2.94 0 0 1 0,5.87 z"
       style="fill:#ffffff"
       id="path110" />
    <path
       d="m 311.31,307.58 a 9.44,9.44 0 1 1 9.44,-9.44 9.45,9.45 0 0 1 -9.44,9.44 z m 0,-13 a 3.57,3.57 0 1 0 3.57,3.56 3.57,3.57 0 0 0 -3.57,-3.56 z"
       style="fill:#ffffff"
       id="path111" />
    <path
       d="m 255.82,307.58 a 9.44,9.44 0 1 1 9.43,-9.44 9.46,9.46 0 0 1 -9.43,9.44 z m 0,-13 a 3.57,3.57 0 1 0 3.56,3.56 3.57,3.57 0 0 0 -3.56,-3.56 z"
       style="fill:#ffffff"
       id="path112" />
    <polygon
       points="255.57,276.09 240.62,229.17 290.15,229.22 333.98,229.17 319.02,276.09 "
       style="fill:#ffffff"
       id="polygon112" />
    <circle
       cx="195"
       cy="184.63"
       r="26.24"
       style="fill:#455a64"
       id="circle112" />
    <polygon
       points="184.52,184.44 191.1,191.11 204.79,169.65 209.28,172.52 192,199.6 180.73,188.18 "
       style="fill:#ffffff"
       id="polygon113" />
    <rect
       x="477.32001"
       y="318.5"
       width="77.089996"
       height="25.110001"
       style="fill:#00adef"
       id="rect113" />
    <path
       d="m 496.74,337 v -11.87 a 1.11,1.11 0 0 1 1.11,-1.1 h 2.85 a 3.81,3.81 0 0 1 3.05,6.1 4.3,4.3 0 0 1 -2.27,7.95 h -3.55 c 0,0 0,0 -0.06,0 A 1.12,1.12 0 0 1 496.74,337 Z m 2.23,-7.51 h 1.73 a 1.62,1.62 0 0 0 1.59,-1.63 1.58,1.58 0 0 0 -1.59,-1.58 H 499 Z m 0,6.39 h 2.51 a 2.08,2.08 0 0 0 0,-4.16 H 499 Z"
       style="fill:#ffffff"
       id="path113" />
    <path
       d="m 514.49,338.08 a 5.79,5.79 0 0 1 -5.8,-5.8 v -7.15 a 1.08,1.08 0 0 1 1.1,-1.1 1.12,1.12 0 0 1 1.13,1.1 v 7.15 a 3.58,3.58 0 1 0 7.15,0 v -7.15 a 1.12,1.12 0 0 1 2.23,0 v 7.15 a 5.81,5.81 0 0 1 -5.81,5.8 z"
       style="fill:#ffffff"
       id="path114" />
    <path
       d="m 534.79,325.92 -4.12,5.64 V 337 a 1.08,1.08 0 0 1 -1.1,1.1 1.11,1.11 0 0 1 -1.1,-1.1 v -5.42 l -4.08,-5.64 a 1.06,1.06 0 0 1 0.22,-1.53 1.08,1.08 0 0 1 1.53,0.24 l 3.43,4.7 3.43,-4.7 a 1.1031999,1.1031999 0 0 1 1.79,1.29 z"
       style="fill:#ffffff"
       id="path115" />
    <path
       d="m 554.42,305.52 c -40,0.12 -120.45,0.35 -160.44,0.36 h -0.35 v -0.36 l -0.15,-122.34 v -0.5 h 0.5 l 160.75,0.19 c 0.32,0.12 -0.55,122.46 -0.31,122.65 z m 0,0 c 0,0.12 -0.67,-123.69 0,-122 l -160.42,0.16 0.5,-0.5 c -0.08,-0.15 0.33,123.89 -0.5,122 40,0 120.46,0.23 160.44,0.35 z"
       style="fill:#c7c7c7"
       id="path116" />
    <rect
       x="404.75"
       y="194.63"
       width="62.57"
       height="12.72"
       style="fill:#ebebeb"
       id="rect116" />
    <rect
       x="496.12"
       y="290.35001"
       width="49.630001"
       height="8.1999998"
       style="fill:#c7c7c7"
       id="rect117" />
    <path
       d="m 404.75,218.9 c 22.3,-0.67 44.75,-0.67 67.06,0 -22.31,0.68 -44.76,0.68 -67.06,0 z"
       style="fill:#c7c7c7"
       id="path117" />
    <path
       d="m 404.75,227 c 22.3,-0.67 44.75,-0.67 67.06,0 -22.31,0.67 -44.76,0.67 -67.06,0 z"
       style="fill:#c7c7c7"
       id="path118" />
    <path
       d="m 404.75,235.08 c 22.3,-0.67 44.75,-0.67 67.06,0 -22.31,0.67 -44.76,0.67 -67.06,0 z"
       style="fill:#c7c7c7"
       id="path119" />
    <path
       d="m 404.75,243.17 c 22.3,-0.68 44.75,-0.68 67.06,0 -22.31,0.68 -44.76,0.68 -67.06,0 z"
       style="fill:#c7c7c7"
       id="path120" />
    <path
       d="m 404.75,251.25 c 22.3,-0.67 44.75,-0.67 67.06,0 -22.31,0.67 -44.76,0.67 -67.06,0 z"
       style="fill:#c7c7c7"
       id="path121" />
    <path
       d="m 404.75,259.34 c 22.3,-0.67 44.75,-0.67 67.06,0 -22.31,0.67 -44.76,0.67 -67.06,0 z"
       style="fill:#c7c7c7"
       id="path122" />
    <path
       d="m 404.75,267.43 c 22.3,-0.68 44.75,-0.68 67.06,0 -22.31,0.67 -44.76,0.67 -67.06,0 z"
       style="fill:#c7c7c7"
       id="path123" />
    <path
       d="m 477.2,218.9 a 202.84,202.84 0 0 1 28.75,0 199.91,199.91 0 0 1 -28.75,0 z"
       style="fill:#c7c7c7"
       id="path124" />
    <path
       d="m 477.2,227 a 202.84,202.84 0 0 1 28.8,0 202.84,202.84 0 0 1 -28.75,0 z"
       style="fill:#c7c7c7"
       id="path125" />
    <path
       d="m 477.2,235.08 a 202.84,202.84 0 0 1 28.75,0 202.84,202.84 0 0 1 -28.75,0 z"
       style="fill:#c7c7c7"
       id="path126" />
    <path
       d="m 477.2,243.17 a 199.91,199.91 0 0 1 28.75,0 202.84,202.84 0 0 1 -28.75,0 z"
       style="fill:#c7c7c7"
       id="path127" />
    <path
       d="m 477.2,251.25 a 202.84,202.84 0 0 1 28.75,0 202.84,202.84 0 0 1 -28.75,0 z"
       style="fill:#c7c7c7"
       id="path128" />
    <path
       d="m 477.2,259.34 a 202.84,202.84 0 0 1 28.75,0 202.84,202.84 0 0 1 -28.75,0 z"
       style="fill:#c7c7c7"
       id="path129" />
    <path
       d="m 520.94,218.9 a 149.66,149.66 0 0 1 24.78,0 148.58,148.58 0 0 1 -24.78,0 z"
       style="fill:#c7c7c7"
       id="path130" />
    <path
       d="m 520.94,227 a 149.66,149.66 0 0 1 24.78,0 148.58,148.58 0 0 1 -24.78,0 z"
       style="fill:#c7c7c7"
       id="path131" />
    <path
       d="m 520.94,235.08 a 148.58,148.58 0 0 1 24.78,0 149.66,149.66 0 0 1 -24.78,0 z"
       style="fill:#c7c7c7"
       id="path132" />
    <path
       d="m 520.94,243.17 a 148.58,148.58 0 0 1 24.78,0 148.58,148.58 0 0 1 -24.78,0 z"
       style="fill:#c7c7c7"
       id="path133" />
    <path
       d="m 520.94,251.25 a 149.66,149.66 0 0 1 24.78,0 148.58,148.58 0 0 1 -24.78,0 z"
       style="fill:#c7c7c7"
       id="path134" />
    <path
       d="m 520.94,259.34 a 148.58,148.58 0 0 1 24.78,0 149.66,149.66 0 0 1 -24.78,0 z"
       style="fill:#c7c7c7"
       id="path135" />
    <path
       d="m 520.94,267.43 a 148.58,148.58 0 0 1 24.78,0 149.66,149.66 0 0 1 -24.78,0 z"
       style="fill:#c7c7c7"
       id="path136" />
  </g>
  <g
     id="freepik--Cart--inject-2"
     transform="translate(-50.72,-43.007162)">
    <polygon
       points="467.25,261.75 406.49,261.75 393.98,349.12 479.76,349.12 "
       style="fill:#00adef"
       id="polygon136" />
    <polygon
       points="393.98,349.12 406.49,261.75 416.02,349.13 "
       style="fill:#00adef"
       id="polygon137" />
    <polygon
       points="393.98,349.12 406.49,261.75 416.02,349.13 "
       style="opacity:0.1"
       id="polygon138" />
    <path
       d="m 450.14,267.78 2.68,-0.57 c 0,-0.07 -1.57,-7.42 -3.23,-14.83 -1.8,-8 -9.68,-11.69 -16.26,-10.63 -4.92,0.8 -10.39,4.64 -9.56,12.86 0.88,8.79 1.54,12.93 1.57,13.1 l 2.71,-0.44 c 0,0 -0.69,-4.24 -1.56,-12.94 -0.63,-6.31 3.35,-9.24 7.28,-9.87 5.32,-0.86 11.7,2.09 13.14,8.52 1.66,7.4 3.21,14.72 3.23,14.8 z"
       style="fill:#263238"
       id="path138" />
    <path
       d="m 414.86,348.45 c -1.76,-1.25 -3.59,-2.4 -5.41,-3.55 -1.82,-1.15 -3.69,-2.23 -5.56,-3.3 l -0.26,-0.15 -0.24,0.18 c -1.45,1.09 -2.9,2.17 -4.3,3.32 -1.4,1.15 -2.83,2.28 -4.18,3.49 1.56,-0.93 3.07,-1.94 4.57,-3 1.5,-1.06 3,-2.06 4.45,-3.13 h -0.49 q 2.79,1.64 5.64,3.16 c 1.92,1.08 3.81,2.08 5.78,2.98 z"
       style="fill:#ffffff"
       id="path139" />
    <path
       d="m 403.66,342 c 0.38,-5.57 0.66,-11.15 0.92,-16.72 0.26,-5.57 0.45,-11.15 0.68,-16.73 0.23,-5.58 0.34,-11.16 0.46,-16.74 l 0.16,-8.37 c 0,-2.79 0.07,-5.58 0.06,-8.37 -0.2,2.78 -0.34,5.57 -0.51,8.36 l -0.41,8.36 c -0.27,5.57 -0.45,11.15 -0.68,16.73 -0.23,5.58 -0.34,11.16 -0.46,16.74 -0.12,5.58 -0.22,11.15 -0.22,16.74 z"
       style="fill:#ffffff"
       id="path140" />
    <path
       d="m 447.84,267.49 a 3.64,3.64 0 1 0 3.64,-3.64 3.64,3.64 0 0 0 -3.64,3.64 z"
       style="fill:#263238"
       id="path141" />
    <path
       d="m 423.33,267.49 a 3.64,3.64 0 1 0 3.64,-3.64 3.64,3.64 0 0 0 -3.64,3.64 z"
       style="fill:#263238"
       id="path142" />
    <path
       d="m 521.81,267.27 a 4.76,4.76 0 0 1 -1,2.22 c 0,-0.16 0,-0.33 0,-0.49 0,-0.16 0,-0.34 -0.08,-0.52 a 9.51,9.51 0 0 0 -1.42,-3.31 l -0.23,-0.34 -0.06,-0.09 v 0 a 0.91,0.91 0 0 1 -0.11,-0.16 c -6.14,-10.08 -14.87,4 -15.06,4.31 v 0 c 0,0 1.41,-14.92 9.39,-14.37 6.19,0.48 9.49,8.2 8.57,12.75 z"
       style="fill:#455a64"
       id="path143" />
    <path
       d="m 520.79,269.49 a 3.3,3.3 0 0 1 -0.74,0.6 c -4.13,2.44 -15.52,-1 -16.23,-1.18 v 0 c 10.8,2.38 14.28,-1.23 15.17,-4.16 l 0.06,0.09 0.23,0.34 a 9.7,9.7 0 0 1 1.42,3.31 c 0,0.18 0.06,0.35 0.08,0.52 0.02,0.17 0,0.32 0.01,0.48 z"
       style="fill:#263238"
       id="path144" />
    <path
       d="m 486.2,264.67 a 4.77,4.77 0 0 0 0.69,2.33 c 0,-0.15 0.06,-0.31 0.11,-0.48 0.05,-0.17 0.09,-0.32 0.15,-0.49 A 9.63,9.63 0 0 1 489,263 l 0.27,-0.3 0.08,-0.07 v 0 l 0.13,-0.14 c 7.55,-9.08 14.13,6.11 14.27,6.46 v 0 c 0,0 0.78,-15 -7.19,-15.58 -6.21,-0.54 -10.56,6.63 -10.36,11.3 z"
       style="fill:#455a64"
       id="path145" />
    <path
       d="m 486.89,267 a 3.1,3.1 0 0 0 0.64,0.71 c 3.74,3 15.49,1.3 16.22,1.2 v 0 c -11,0.78 -14,-3.3 -14.4,-6.32 l -0.08,0.07 -0.27,0.3 a 9.74,9.74 0 0 0 -1.89,3.08 c -0.06,0.17 -0.11,0.33 -0.15,0.49 -0.04,0.16 -0.04,0.32 -0.07,0.47 z"
       style="fill:#263238"
       id="path146" />
    <polygon
       points="523.65,271.47 487.36,270.18 483.16,349.12 525.19,349.12 "
       style="fill:#00adef"
       id="polygon146" />
    <polygon
       points="523.65,271.47 487.36,270.18 483.16,349.12 525.19,349.12 "
       style="opacity:0.6;fill:#ffffff"
       id="polygon147" />
    <polygon
       points="488.33,270.18 476.02,272.47 474.56,349.12 486.51,349.12 "
       style="fill:#00adef"
       id="polygon148" />
    <polygon
       points="488.33,279.39 488.33,267.5 525.76,270.29 525.76,280.67 "
       style="fill:#00adef"
       id="polygon149" />
    <polygon
       points="488.33,279.39 488.33,267.5 525.76,270.29 525.76,280.67 "
       style="opacity:0.4;fill:#ffffff"
       id="polygon150" />
    <polygon
       points="488.33,267.5 473.46,270.29 474.26,280.67 488.33,279.39 "
       style="fill:#00adef"
       id="polygon151" />
    <polygon
       points="488.33,267.5 473.46,270.29 474.26,280.67 488.33,279.39 "
       style="opacity:0.1"
       id="polygon152" />
    <polygon
       points="503.41,349.12 503.25,268.61 513.7,269.39 513.33,349.12 "
       style="fill:#455a64"
       id="polygon153" />
    <polygon
       points="478.67,349.12 481.79,349.12 482.4,268.61 478.67,269.31 "
       style="fill:#455a64"
       id="polygon154" />
    <path
       d="m 495.86,300 c 0.65,-2.17 -0.34,-5.11 -5.56,-6.55 -7.95,-2.19 -13.66,6 -14.35,7.07 0.73,-1.19 7.66,-12 15.69,-9.87 6.36,1.68 5.99,6.58 4.22,9.35 z"
       style="fill:#00adef"
       id="path154" />
    <path
       d="m 495.86,300 a 4.3,4.3 0 0 1 -2.08,1.83 c -2.8,0.86 -9.14,1.39 -17.35,-1 l -0.55,-0.16 0.07,-0.11 v -0.06 h 0.07 c 8.63,1.25 14.64,0.33 17.11,-0.56 A 3.29,3.29 0 0 0 495,297 a 4,4 0 0 0 -0.05,-1 4.1,4.1 0 0 1 0.91,4 z"
       style="fill:#00adef"
       id="path155" />
    <path
       d="m 495.86,300 a 4.3,4.3 0 0 1 -2.08,1.83 c -2.8,0.86 -9.14,1.39 -17.35,-1 l -0.55,-0.16 0.07,-0.11 v -0.06 h 0.07 c 8.63,1.25 14.64,0.33 17.11,-0.56 A 3.29,3.29 0 0 0 495,297 a 4,4 0 0 0 -0.05,-1 4.1,4.1 0 0 1 0.91,4 z"
       style="opacity:0.2"
       id="path156" />
    <path
       d="m 490.7,288.63 c -1.07,-2.52 -4,-4.87 -9.08,-3.33 -7.76,2.34 -6.25,13.74 -6,15.15 -0.3,-1.6 -2.76,-16.28 5.06,-18.68 6.14,-1.91 9.41,3.15 10.02,6.86 z"
       style="fill:#00adef"
       id="path157" />
    <path
       d="m 490.7,288.63 a 4.58,4.58 0 0 1 -0.31,3 c -1.54,2.44 -6.09,6.57 -14.23,8.83 l -0.55,0.15 v -0.15 c 0,0 0,-0.05 0,-0.08 h 0.05 c 7.62,-3.66 11.63,-8 12.91,-10.27 0.5,-0.89 0.25,-2.5 -0.68,-3.92 a 5.87,5.87 0 0 0 -0.74,-0.94 6.17,6.17 0 0 1 3.55,3.38 z"
       style="fill:#00adef"
       id="path158" />
    <path
       d="m 490.7,288.63 a 4.58,4.58 0 0 1 -0.31,3 c -1.54,2.44 -6.09,6.57 -14.23,8.83 l -0.55,0.15 v -0.15 c 0,0 0,-0.05 0,-0.08 h 0.05 c 7.62,-3.66 11.63,-8 12.91,-10.27 0.5,-0.89 0.25,-2.5 -0.68,-3.92 a 5.87,5.87 0 0 0 -0.74,-0.94 6.17,6.17 0 0 1 3.55,3.38 z"
       style="opacity:0.2"
       id="path159" />
    <path
       d="m 455.29,300 c -0.65,-2.17 0.34,-5.11 5.56,-6.55 7.95,-2.19 13.67,6 14.35,7.07 -0.73,-1.19 -7.66,-12 -15.69,-9.87 -6.34,1.68 -5.99,6.58 -4.22,9.35 z"
       style="fill:#00adef"
       id="path160" />
    <path
       d="m 455.29,300 a 4.28,4.28 0 0 0 2.09,1.83 c 2.79,0.86 9.13,1.39 17.34,-1 l 0.55,-0.16 -0.07,-0.11 v -0.06 h -0.07 c -8.63,1.25 -14.64,0.33 -17.11,-0.56 a 3.29,3.29 0 0 1 -1.84,-2.9 4,4 0 0 1 0.05,-1 4.13,4.13 0 0 0 -0.94,3.96 z"
       style="fill:#00adef"
       id="path161" />
    <path
       d="m 455.29,300 a 4.28,4.28 0 0 0 2.09,1.83 c 2.79,0.86 9.13,1.39 17.34,-1 l 0.55,-0.16 -0.07,-0.11 v -0.06 h -0.07 c -8.63,1.25 -14.64,0.33 -17.11,-0.56 a 3.29,3.29 0 0 1 -1.84,-2.9 4,4 0 0 1 0.05,-1 4.13,4.13 0 0 0 -0.94,3.96 z"
       style="opacity:0.2"
       id="path162" />
    <path
       d="m 459.92,288.63 c 1.07,-2.52 4,-4.87 9.08,-3.33 7.76,2.34 6.25,13.74 6,15.15 0.3,-1.6 2.76,-16.28 -5,-18.68 -6.2,-1.91 -9.47,3.15 -10.08,6.86 z"
       style="fill:#00adef"
       id="path163" />
    <path
       d="m 459.92,288.63 a 4.65,4.65 0 0 0 0.31,3 c 1.55,2.44 6.09,6.57 14.24,8.83 l 0.54,0.15 c 0,0 0,-0.05 0,-0.15 0,-0.1 0,-0.05 0,-0.08 h -0.06 c -7.62,-3.66 -11.63,-8 -12.91,-10.27 -0.5,-0.89 -0.24,-2.5 0.68,-3.92 a 6.5,6.5 0 0 1 0.74,-0.94 6.17,6.17 0 0 0 -3.54,3.38 z"
       style="fill:#00adef"
       id="path164" />
    <path
       d="m 459.92,288.63 a 4.65,4.65 0 0 0 0.31,3 c 1.55,2.44 6.09,6.57 14.24,8.83 l 0.54,0.15 c 0,0 0,-0.05 0,-0.15 0,-0.1 0,-0.05 0,-0.08 h -0.06 c -7.62,-3.66 -11.63,-8 -12.91,-10.27 -0.5,-0.89 -0.24,-2.5 0.68,-3.92 a 6.5,6.5 0 0 1 0.74,-0.94 6.17,6.17 0 0 0 -3.54,3.38 z"
       style="opacity:0.2"
       id="path165" />
    <polygon
       points="451.26,302.82 496.91,304.36 495.05,349.12 452.98,349.12 "
       style="fill:#37474f"
       id="polygon165" />
    <polygon
       points="495.66,304.36 511.62,306.14 509.81,349.12 495.05,349.12 "
       style="fill:#455a64"
       id="polygon166" />
    <polygon
       points="495.66,316.75 495.66,299.06 447.84,302.06 448.86,316.75 "
       style="fill:#263238"
       id="polygon167" />
    <polygon
       points="495.66,299.06 514,302.82 512.45,316.31 495.66,316.75 "
       style="fill:#37474f"
       id="polygon168" />
    <polygon
       points="500.94,349.12 502.99,300.56 507.72,301.54 504.64,349.12 "
       style="fill:#00adef"
       id="polygon169" />
    <polygon
       points="500.94,349.12 502.99,300.56 507.72,301.54 504.64,349.12 "
       style="opacity:0.1"
       id="polygon170" />
    <polygon
       points="467.59,349.12 466.48,300.93 477.32,300.24 477.32,349.12 "
       style="fill:#00adef"
       id="polygon171" />
    <path
       d="M 508,427.72 H 374.49 a 2.67,2.67 0 0 1 -2.66,-2.67 v -15.92 0 a 0.76,0.76 0 0 1 0,-0.15 2.7,2.7 0 0 1 0,-0.28 L 388,349.41 367.09,219.82 l -7,-2.42 a 2.67,2.67 0 0 1 1.5,-5.12 l 8.61,2.9 a 2.66,2.66 0 0 1 1.89,2.16 l 21.25,131.73 a 3,3 0 0 1 0,0.89 l -15.67,56.8 124.38,8.84 a 2.68,2.68 0 0 1 1.8,0.88 l 6.14,6.78 a 2.67,2.67 0 0 1 -2,4.46 z M 377.15,422.38 H 502 l -1.38,-1.52 -123.46,-8.79 z"
       style="fill:#a6a6a6"
       id="path171" />
    <path
       d="m 556.9,261.92 h -180 a 2.67,2.67 0 0 1 0,-5.34 h 180 a 2.67,2.67 0 0 1 0,5.34 z"
       style="fill:#a6a6a6"
       id="path172" />
    <path
       d="m 390.72,350.35 a 0.89,0.89 0 0 1 -0.05,-1.77 L 523.41,348.84 552.5,259 a 0.88,0.88 0 0 1 1.12,-0.57 0.89,0.89 0 0 1 0.57,1.11 L 524.91,350 a 0.87,0.87 0 0 1 -0.8,0.61 l -133.34,-0.23 z"
       style="fill:#a6a6a6"
       id="path173" />
    <path
       d="M 528,337.12 H 387.36 a 0.89,0.89 0 0 1 0,-1.78 H 528 a 0.89,0.89 0 1 1 0,1.78 z"
       style="fill:#a6a6a6"
       id="path174" />
    <path
       d="M 531.55,326.31 H 385.71 a 0.89,0.89 0 0 1 0,-1.78 h 145.84 a 0.89,0.89 0 0 1 0,1.78 z"
       style="fill:#a6a6a6"
       id="path175" />
    <path
       d="M 534.86,315.5 H 384.05 a 0.89,0.89 0 0 1 0,-1.78 h 150.81 a 0.89,0.89 0 0 1 0,1.78 z"
       style="fill:#a6a6a6"
       id="path176" />
    <path
       d="m 538.44,304.68 h -156 a 0.89,0.89 0 1 1 0,-1.78 h 156 a 0.89,0.89 0 1 1 0,1.78 z"
       style="fill:#a6a6a6"
       id="path177" />
    <path
       d="M 541.86,293.87 H 380.74 a 0.89,0.89 0 1 1 0,-1.78 h 161.12 a 0.89,0.89 0 1 1 0,1.78 z"
       style="fill:#a6a6a6"
       id="path178" />
    <path
       d="M 545.53,283.05 H 379.09 a 0.89,0.89 0 1 1 0,-1.78 h 166.44 a 0.89,0.89 0 1 1 0,1.78 z"
       style="fill:#a6a6a6"
       id="path179" />
    <path
       d="M 549,272.24 H 377.43 a 0.89,0.89 0 1 1 0,-1.78 H 549 a 0.89,0.89 0 1 1 0,1.78 z"
       style="fill:#a6a6a6"
       id="path180" />
    <path
       d="m 402.85,349.22 a 0.88,0.88 0 0 1 -0.88,-0.82 l -6.81,-89.08 a 0.89,0.89 0 0 1 0.82,-1 0.93,0.93 0 0 1 1,0.82 l 6.8,89.08 a 0.89,0.89 0 0 1 -0.82,1 z"
       style="fill:#a6a6a6"
       id="path181" />
    <path
       d="m 511.56,350.27 h -0.23 a 0.88,0.88 0 0 1 -0.62,-1.09 L 534.88,259 a 0.9,0.9 0 0 1 1.09,-0.63 0.89,0.89 0 0 1 0.63,1.09 l -24.18,90.14 a 0.89,0.89 0 0 1 -0.86,0.67 z"
       style="fill:#a6a6a6"
       id="path182" />
    <path
       d="m 417.13,349.68 a 0.9,0.9 0 0 1 -0.89,-0.87 L 414,259.27 a 0.89,0.89 0 0 1 0.87,-0.91 v 0 a 0.89,0.89 0 0 1 0.89,0.87 l 2.24,89.54 a 0.89,0.89 0 0 1 -0.87,0.91 z"
       style="fill:#a6a6a6"
       id="path183" />
    <path
       d="m 431.64,349.81 v 0 a 0.89,0.89 0 0 1 -0.87,-0.91 l 1.63,-89.67 a 0.89,0.89 0 0 1 0.89,-0.87 v 0 a 0.89,0.89 0 0 1 0.87,0.91 l -1.63,89.67 a 0.89,0.89 0 0 1 -0.89,0.87 z"
       style="fill:#a6a6a6"
       id="path184" />
    <path
       d="m 496.7,349.76 h -0.18 a 0.89,0.89 0 0 1 -0.69,-1.05 l 18.08,-89.62 a 0.89332245,0.89332245 0 0 1 1.75,0.36 l -18.09,89.62 a 0.88,0.88 0 0 1 -0.87,0.69 z"
       style="fill:#a6a6a6"
       id="path185" />
    <path
       d="m 479.9,350.27 h -0.14 a 0.88,0.88 0 0 1 -0.73,-1 L 493,259.11 a 0.89186602,0.89186602 0 1 1 1.76,0.29 l -13.93,90.13 a 0.89,0.89 0 0 1 -0.93,0.74 z"
       style="fill:#a6a6a6"
       id="path186" />
    <path
       d="m 446.56,349.7 h -0.06 a 0.91,0.91 0 0 1 -0.83,-1 l 6.5,-89.56 a 0.91,0.91 0 0 1 0.95,-0.82 0.89,0.89 0 0 1 0.82,1 l -6.49,89.56 a 0.9,0.9 0 0 1 -0.89,0.82 z"
       style="fill:#a6a6a6"
       id="path187" />
    <path
       d="m 463.23,350.2 h -0.1 a 0.88,0.88 0 0 1 -0.78,-1 l 10.33,-90.07 a 0.8906318,0.8906318 0 0 1 1.77,0.2 l -10.33,90.06 a 0.89,0.89 0 0 1 -0.89,0.81 z"
       style="fill:#a6a6a6"
       id="path188" />
    <circle
       cx="391.79001"
       cy="431.64001"
       r="9.96"
       transform="rotate(-45,391.7893,431.63556)"
       style="fill:#263238"
       id="circle188" />
    <path
       d="m 396.32,431.64 a 4.53,4.53 0 1 1 -4.53,-4.53 4.53,4.53 0 0 1 4.53,4.53 z"
       style="fill:#ebebeb"
       id="path189" />
    <path
       d="m 490.88,431.64 a 10,10 0 1 1 -10,-10 10,10 0 0 1 10,10 z"
       style="fill:#263238"
       id="path190" />
    <path
       d="m 485.45,431.64 a 4.53,4.53 0 1 1 -4.53,-4.53 4.53,4.53 0 0 1 4.53,4.53 z"
       style="fill:#ebebeb"
       id="path191" />
    <path
       d="m 367.5,220.29 a 3.06,3.06 0 0 1 -1.06,-0.2 l -14,-5.32 a 3,3 0 1 1 2.12,-5.61 l 14,5.32 a 3,3 0 0 1 -1.07,5.81 z"
       style="fill:#00adef"
       id="path192" />
  </g>
  <g
     id="freepik--Character--inject-2"
     transform="translate(-50.72,-43.007162)">
    <path
       d="m 246,338 -24.27,30.86 c -4.95,6.56 -9.18,12.39 -11.09,15.61 v 0.05 a 5.66,5.66 0 0 0 -1,2.39 c 0,0 0,0.05 0,0.07 0.95,2.8 52.16,43.94 54.43,44.77 2.27,0.83 4.82,-5.57 4.11,-8.75 -0.71,-3.18 -13.28,-27.71 -13.28,-27.71 l 22.83,-31.79 z"
       style="fill:#d3766a"
       id="path193" />
    <path
       d="m 264,431.77 c -2.27,-0.83 -53.48,-42 -54.43,-44.77 0,0 0,0 0,-0.07 a 5.82,5.82 0 0 1 1,-2.38 v -0.06 c 1.9,-3.22 6.13,-9.06 11.09,-15.6 0,0 1.19,-1.52 3.05,-3.87 l 33,26.09 -3,4.2 c 0,0 12.66,24.52 13.39,27.69 0.73,3.17 -1.84,9.61 -4.1,8.77 z"
       style="fill:#dbdbdb"
       id="path194" />
    <path
       d="m 264,431.77 c -2.27,-0.83 -53.48,-42 -54.43,-44.77 -0.38,-1.06 5.18,-8.87 12.17,-18.11 a 3.15,3.15 0 0 1 0.22,-0.29 l 33.33,26.17 -0.46,0.55 c 0,0 12.55,24.51 13.28,27.7 0.73,3.19 -1.85,9.59 -4.11,8.75 z"
       style="fill:#263238"
       id="path195" />
    <path
       d="m 265,429.32 c -8.46,-7.15 -43.27,-35.17 -52.17,-41.59 -0.08,-0.05 -0.11,0 -0.05,0.06 8.23,7.26 43.26,35 52.1,41.67 0.2,0.14 0.3,0.01 0.12,-0.14 z"
       style="fill:#ffffff"
       id="path196" />
    <path
       d="m 257.51,397.65 c -2.89,-3.37 -7.46,-6.18 -12,-5.85 -0.17,0 -0.15,0.27 0,0.32 a 61.17,61.17 0 0 1 11.65,5.94 0.28,0.28 0 0 0 0.35,-0.41 z"
       style="fill:#ffffff"
       id="path197" />
    <path
       d="m 258.78,401.09 c -2.89,-3.36 -7.46,-6.18 -12,-5.84 -0.18,0 -0.16,0.26 0,0.32 a 61.25,61.25 0 0 1 11.66,5.94 0.28,0.28 0 0 0 0.34,-0.42 z"
       style="fill:#ffffff"
       id="path198" />
    <path
       d="m 260,404.54 c -2.89,-3.36 -7.46,-6.18 -12,-5.84 -0.17,0 -0.15,0.26 0,0.31 a 61,61 0 0 1 11.68,5.99 0.28017851,0.28017851 0 0 0 0.32,-0.46 z"
       style="fill:#ffffff"
       id="path199" />
    <path
       d="m 266.25,430.56 c 0.63,1.09 -2,4 -2.9,3.73 -0.9,-0.27 -56.49,-45.38 -57.27,-46.36 -0.78,-0.98 2.31,-4.1 3.55,-3.39 1.24,0.71 56.62,46.02 56.62,46.02 z"
       style="fill:#00adef"
       id="path200" />
    <path
       d="m 225.8,381.12 c -2.23,-4.83 -9.75,-1.39 -7.52,3.46 2.23,4.85 9.72,1.42 7.52,-3.46 z"
       style="fill:#ffffff"
       id="path201" />
    <path
       d="m 230.89,356.2 32.71,27.22 c 0,0 52.38,-61.81 54.3,-71.09 2.18,-10.55 8.25,-93.21 8.11,-97.33 -0.17,-5 -5.67,-26.95 -5.67,-26.95 H 281.1 c 0,0 -5.49,108.09 -6.63,111.44 -1.23,3.6 -43.58,56.71 -43.58,56.71 z"
       style="fill:#263238"
       id="path202" />
    <polygon
       points="266.02,382.5 259.34,388.36 227.43,361.37 232.03,352.69 "
       style="fill:#455a64"
       id="polygon202" />
    <path
       d="m 266.69,375.22 c -5.06,-4.88 -24.79,-20.55 -27.24,-21.83 -0.06,0 -0.13,0.06 -0.09,0.11 1.78,2.12 18.57,15.9 27.2,21.89 0.09,0.06 0.21,-0.09 0.13,-0.17 z"
       style="fill:#37474f"
       id="path203" />
    <path
       d="m 322.28,204.3 a 12.82,12.82 0 0 0 -1.6,-0.38 9.29,9.29 0 0 1 -1.65,-0.63 12.31,12.31 0 0 1 -3,-2.14 11.46,11.46 0 0 1 -2.33,-3.74 c -0.34,-0.79 -1.94,-5 -2,-5 -0.06,0 -0.16,0 -0.14,0.07 0.11,0.58 1.21,4.21 1.53,5.12 a 11.82,11.82 0 0 0 2.43,4.34 9.59,9.59 0 0 0 3.35,2.26 7,7 0 0 0 1.79,0.48 2.85,2.85 0 0 0 1.64,-0.09 c 0.11,-0.08 0.05,-0.26 -0.02,-0.29 z"
       style="fill:#37474f"
       id="path204" />
    <path
       d="m 287.57,190 -0.82,21.71 -0.94,21.7 -2.09,43.4 c -0.39,7.24 -0.78,14.46 -1.24,21.7 -0.05,0.89 -0.12,1.82 -0.21,2.75 a 1.26,1.26 0 0 1 -0.08,0.41 3.76,3.76 0 0 1 -0.18,0.35 c -0.12,0.22 -0.24,0.41 -0.36,0.61 -0.25,0.38 -0.51,0.76 -0.78,1.13 -1.05,1.49 -2.14,2.94 -3.23,4.38 -2.2,2.89 -4.45,5.73 -6.7,8.56 q -6.76,8.5 -13.64,16.91 l -13.84,16.75 13.49,-17 c 4.5,-5.68 9,-11.35 13.44,-17.07 q 3.33,-4.29 6.61,-8.61 c 1.09,-1.44 2.17,-2.89 3.2,-4.36 0.26,-0.37 0.51,-0.74 0.75,-1.12 0.24,-0.38 0.53,-0.74 0.51,-1.06 0.07,-0.87 0.14,-1.75 0.19,-2.67 0.42,-7.22 0.78,-14.45 1.15,-21.68 l 2.29,-43.39 1.19,-21.69 z"
       style="fill:#37474f"
       id="path205" />
    <path
       d="m 318.68,306.57 c -0.28,2.66 -0.54,4.64 -0.78,5.76 -1.08,5.21 -18.08,27 -32.77,45.09 l -10.07,-63.37 c 1.79,-22.49 6,-106 6,-106 h 19.55 z"
       style="fill:#37474f"
       id="path206" />
    <path
       d="m 293.59,381.27 c 0,0 7.59,38.49 7.59,38.52 1.74,8 3.41,15 4.61,18.58 a 0.14,0.14 0 0 0 0,0.06 5.75,5.75 0 0 0 1.13,2.35 c 0,0 0,0 0.06,0 2.74,1.1 67.31,-10.92 69.42,-12.1 2.11,-1.18 -1.07,-7.28 -3.95,-8.82 -2.88,-1.54 -29.67,-8 -29.67,-8 l -9.23,-38 z"
       style="fill:#d3766a"
       id="path207" />
    <path
       d="m 376.43,428.72 c -2.11,1.18 -66.69,13.21 -69.44,12.1 h -0.05 a 5.75,5.75 0 0 1 -1.13,-2.35 0.13,0.13 0 0 1 0,-0.06 c -1.21,-3.54 -2.88,-10.55 -4.62,-18.58 0,0 -0.37,-1.89 -0.94,-4.83 l 41.33,-8.06 1.22,5 c 0,0 26.78,6.46 29.67,8 2.89,1.54 6.08,7.61 3.96,8.78 z"
       style="fill:#dbdbdb"
       id="path208" />
    <path
       d="m 376.43,428.72 c -2.12,1.18 -66.69,13.21 -69.43,12.1 -1.06,-0.4 -3.36,-9.71 -5.81,-21 0,-0.12 -0.05,-0.24 -0.08,-0.36 l 41.57,-8.22 0.12,0.71 c 0,0 26.77,6.45 29.67,8 2.9,1.55 6.07,7.6 3.96,8.77 z"
       style="fill:#263238"
       id="path209" />
    <path
       d="m 375.23,426.36 c -10.93,1.75 -54.87,9.88 -65.54,12.45 -0.09,0 -0.08,0.08 0,0.07 10.87,-1.5 54.74,-10 65.56,-12.35 0.24,-0.05 0.21,-0.21 -0.02,-0.17 z"
       style="fill:#ffffff"
       id="path210" />
    <path
       d="m 346.32,411.39 c -4.43,0 -9.54,1.64 -12.25,5.3 -0.1,0.14 0.1,0.29 0.23,0.22 a 61.19,61.19 0 0 1 12.11,-5 0.28,0.28 0 0 0 -0.09,-0.52 z"
       style="fill:#ffffff"
       id="path211" />
    <path
       d="m 349.76,412.68 c -4.43,0 -9.55,1.63 -12.25,5.29 -0.11,0.15 0.1,0.29 0.23,0.22 a 60.56,60.56 0 0 1 12.11,-5 0.28,0.28 0 0 0 -0.09,-0.51 z"
       style="fill:#ffffff"
       id="path212" />
    <path
       d="m 353.2,414 c -4.43,0 -9.55,1.63 -12.25,5.29 -0.11,0.14 0.1,0.29 0.23,0.22 a 61.11,61.11 0 0 1 12.1,-5 0.28,0.28 0 0 0 -0.08,-0.51 z"
       style="fill:#ffffff"
       id="path213" />
    <path
       d="m 377,426.22 c 1.24,0.23 1.71,4.16 0.94,4.63 -0.77,0.47 -71.24,13.26 -72.49,13.22 -1.25,-0.04 -1.6,-4.42 -0.25,-4.9 1.35,-0.48 71.8,-12.95 71.8,-12.95 z"
       style="fill:#00adef"
       id="path214" />
    <path
       d="m 313.12,424.68 c -5.12,-1.47 -7.41,6.48 -2.28,7.95 5.13,1.47 7.41,-6.48 2.28,-7.95 z"
       style="fill:#ffffff"
       id="path215" />
    <path
       d="m 312.53,188.05 c 0,0 -1,16.77 -5.66,28.72 0,0 -6.68,4.17 -7.38,4.82 l 41.91,179.23 -43.87,8 c 0,0 -15.07,-87 -16.43,-93 -2.19,-9.55 -19.5,-90.75 -20.26,-95.36 -1.61,-9.65 7.3,-32.49 7.3,-32.49 z"
       style="fill:#263238"
       id="path216" />
    <path
       d="m 335.08,391.74 c -11.21,1.68 -32.64,6.23 -35.28,7.32 -0.06,0 0,0.14 0,0.14 2.85,-0.05 29,-5.23 35.3,-7.26 0.14,-0.03 0.1,-0.21 -0.02,-0.2 z"
       style="fill:#37474f"
       id="path217" />
    <path
       d="m 273.16,204.3 c 0.81,-0.18 1.68,-0.12 2.51,-0.23 a 19.17,19.17 0 0 0 7.23,-2.38 9.84,9.84 0 0 0 3.36,-3.57 c 0.48,-0.77 2.65,-4.89 2.67,-4.92 0.02,-0.03 0.26,0 0.24,0.08 -0.13,0.58 -1.55,4.16 -2,5.05 a 9.7,9.7 0 0 1 -3.47,4.18 15.18,15.18 0 0 1 -5.15,2 15.83,15.83 0 0 1 -2.83,0.32 7,7 0 0 1 -2.63,-0.25 c -0.09,-0.07 -0.09,-0.25 0.07,-0.28 z"
       style="fill:#37474f"
       id="path218" />
    <path
       d="m 307.84,216.32 a 67.57,67.57 0 0 0 -10.75,4.89 0.12083046,0.12083046 0 0 0 0.1,0.22 c 3.62,-1.51 7.31,-3 10.84,-4.68 a 0.24,0.24 0 0 0 -0.19,-0.43 z"
       style="fill:#37474f"
       id="path219" />
    <path
       d="m 309.21,191.6 c 0,-0.13 -0.23,-0.16 -0.23,0 0,4.28 -0.32,8 -0.71,12 -0.19,1.85 -1.78,12.1 -5,11.32 -0.54,-0.13 -0.81,-0.66 -0.88,-1.47 a 12.61,12.61 0 0 1 0.45,-3.15 c 0.38,-2.14 0.68,-4.3 0.89,-6.46 a 59.44,59.44 0 0 0 0,-12.15 0.11,0.11 0 0 0 -0.21,0 111.63,111.63 0 0 1 -1.13,16.75 c -0.43,2.67 -1.81,6.68 1,7.11 2.81,0.43 4.74,-6.27 5.1,-8.11 a 61.15,61.15 0 0 0 0.72,-15.84 z"
       style="fill:#37474f"
       id="path220" />
    <path
       d="m 303.36,215.22 a 19.69,19.69 0 0 0 -0.74,2.12 5,5 0 0 0 -0.32,1.75 0.13,0.13 0 0 0 0.23,0 6.36,6.36 0 0 0 0.76,-1.7 c 0.25,-0.65 0.52,-1.31 0.75,-2 a 0.36,0.36 0 0 0 -0.68,-0.17 z"
       style="fill:#37474f"
       id="path221" />
    <path
       d="m 271.48,188.05 c -1.11,4.25 -2.16,8.52 -3.12,12.81 -0.96,4.29 -1.86,8.59 -2.4,12.94 l -0.15,1.63 c -0.05,0.54 0,1.08 -0.05,1.62 l 0.48,3.23 1.23,6.47 2.62,12.93 10.78,51.64 10.78,51.68 5.35,25.79 5.28,25.84 -5.72,-25.75 -5.56,-25.77 -11,-51.6 c -3.56,-17.22 -7.16,-34.44 -10.56,-51.69 l -2.5,-13 -1.17,-6.49 -0.46,-3.3 a 28,28 0 0 1 0.24,-3.32 c 0.62,-4.38 1.61,-8.67 2.63,-12.94 1.02,-4.27 2.12,-8.49 3.3,-12.72 z"
       style="fill:#37474f"
       id="path222" />
    <polygon
       points="341.56,394.76 342.1,403.63 298.11,412.42 294.07,403.47 "
       style="fill:#455a64"
       id="polygon222" />
    <path
       d="m 263.79,196.79 60.93,3.62 a 10,10 0 0 0 2.06,-6.21 c 0.09,-15.5 -3.29,-55.65 -7.68,-64.12 -1.16,-2.24 -6.74,-9.89 -16.49,-3.06 -13.19,9.25 -32.41,45.51 -38.83,61.64 a 10.06,10.06 0 0 0 0.01,8.13 z"
       style="fill:#455a64"
       id="path223" />
    <path
       d="m 316,137.37 c -3.36,-0.25 -8.7,-6 -9.52,-11.13 -0.06,-0.35 1.51,-3.31 3.25,-7 1,-2.24 2.15,-4.76 3,-7.13 0.17,-0.49 13.57,8.92 13.57,8.92 a 40.29,40.29 0 0 0 -4.68,8.59 5.72,5.72 0 0 0 -0.25,1 c 0,0 0,0.1 0,0.17 -0.37,1.97 -1.82,6.84 -5.37,6.58 z"
       style="fill:#d3766a"
       id="path224" />
    <path
       d="m 313.22,112.31 c 2.51,1.32 13,8.73 13,8.73 a 43.74,43.74 0 0 0 -4.31,7.61 c -0.09,0.35 -10.29,-2.86 -8.69,-16.34 z"
       style="fill:#263238"
       id="path225" />
    <path
       d="m 313.11,94.09 c -2.54,5.27 -2.06,21.7 1.33,25.87 4.91,6 14.18,8 19.62,1.78 5.27,-6 4.28,-27.4 0.38,-31.31 -5.75,-5.76 -17.58,-4.14 -21.33,3.66 z"
       style="fill:#d3766a"
       id="path226" />
    <path
       d="m 327.24,106 c 0,0 -0.09,0.06 -0.08,0.1 0.06,1.11 -0.06,2.39 -1.05,2.78 0,0 0,0.07 0,0.06 1.23,-0.16 1.36,-1.86 1.13,-2.94 z"
       style="fill:#263238"
       id="path227" />
    <path
       d="m 326.22,104.91 c -1.78,-0.09 -1.84,3.48 -0.18,3.57 1.66,0.09 1.68,-3.48 0.18,-3.57 z"
       style="fill:#263238"
       id="path228" />
    <path
       d="m 333.64,106.32 c 0,0 0.09,0.06 0.09,0.1 -0.05,1.11 0.07,2.38 1.07,2.77 a 0.03,0 -90 0 0 0,0.06 c -1.23,-0.19 -1.38,-1.89 -1.16,-2.93 z"
       style="fill:#263238"
       id="path229" />
    <path
       d="m 334.65,105.18 c 1.78,-0.11 1.87,3.47 0.22,3.57 -1.65,0.1 -1.71,-3.48 -0.22,-3.57 z"
       style="fill:#263238"
       id="path230" />
    <path
       d="m 324.84,103.26 c 0.49,-0.12 0.92,-0.31 1.39,-0.47 a 2.43,2.43 0 0 0 1.33,-0.75 0.74,0.74 0 0 0 -0.11,-0.91 1.88,1.88 0 0 0 -1.89,-0.23 2.79,2.79 0 0 0 -1.6,1.17 0.81,0.81 0 0 0 0.88,1.19 z"
       style="fill:#263238"
       id="path231" />
    <path
       d="m 336.06,103.4 a 13.34,13.34 0 0 1 -1.41,-0.39 2.32,2.32 0 0 1 -1.37,-0.67 0.74,0.74 0 0 1 0.06,-0.92 1.88,1.88 0 0 1 1.87,-0.33 2.8,2.8 0 0 1 1.66,1.08 0.8,0.8 0 0 1 -0.81,1.23 z"
       style="fill:#263238"
       id="path232" />
    <path
       d="m 326.06,116.3 c 0.26,0.27 0.52,0.63 0.92,0.67 a 2.86,2.86 0 0 0 1.19,-0.26 0.03535534,0 -135 0 0 0.05,0.05 1.46,1.46 0 0 1 -1.41,0.58 1.18,1.18 0 0 1 -0.86,-1 c -0.01,-0.05 0.05,-0.07 0.11,-0.04 z"
       style="fill:#263238"
       id="path233" />
    <path
       d="m 327.27,113 a 3.76,3.76 0 0 0 2.49,1.71 4.42,4.42 0 0 0 1.36,0.08 1.1,1.1 0 0 0 0.26,0 h 0.24 a 0.3,0.3 0 0 0 0.23,-0.25 v 0 a 0.41,0.41 0 0 0 0,-0.11 v 0 -0.1 c 0,-0.85 0,-2.15 0,-2.15 0.31,0.17 1.89,0.9 1.87,0.46 a 57.28,57.28 0 0 0 -1.29,-11.43 c 0,-0.12 -0.21,-0.1 -0.2,0 0,3.55 0.66,7.08 0.73,10.65 a 6.6,6.6 0 0 0 -1.77,-0.57 c -0.12,0 0.17,2.51 0.12,2.89 a 5.23,5.23 0 0 1 -3.88,-1.27 c -0.13,-0.07 -0.22,0.01 -0.16,0.09 z"
       style="fill:#263238"
       id="path234" />
    <path
       d="m 330.62,114.37 a 4.54,4.54 0 0 1 -1.81,1.36 2,2 0 0 1 -1.22,0 c -0.88,-0.24 -0.89,-1 -0.72,-1.75 a 5,5 0 0 1 0.41,-1 5.78,5.78 0 0 0 3.34,1.39 z"
       style="fill:#263238"
       id="path235" />
    <path
       d="m 328.81,115.73 a 2,2 0 0 1 -1.22,0 c -0.88,-0.24 -0.89,-1 -0.72,-1.75 a 2.09,2.09 0 0 1 1.94,1.75 z"
       style="fill:#ff9bbc"
       id="path236" />
    <path
       d="m 338.7,97.11 c -6,3.85 -13.91,-2.55 -13.91,-2.55 a 6.43,6.43 0 0 1 -6.66,3.85 c 0,0 -1.5,10 -4.13,9.85 -4,-0.16 -4.8,-13.84 -3.44,-16.47 1.36,-2.63 4.79,-3.21 4.79,-3.21 a 6.56,6.56 0 0 1 2.86,-3.88 c 2.82,-2 12.19,1.14 12.19,1.14 a 8.83,8.83 0 0 1 2.53,-3.19 2.47,2.47 0 0 1 3.56,0.44 6,6 0 0 0 -1,2.44 c -0.58,2.91 1.81,3 1.88,0.33 a 4.15,4.15 0 0 0 -0.84,-2.77 c 1.24,-1.69 3.19,-2.19 4.33,-1.22 2.02,1.76 2.87,12.04 -2.16,15.24 z"
       style="fill:#263238"
       id="path237" />
    <path
       d="m 317.67,95.22 c 0,-0.17 -0.27,-0.12 -0.25,0.06 a 25.43,25.43 0 0 1 0.39,6.1 c -0.2,2 -1.44,7.05 -4.32,6.36 a 0.11067972,0.11067972 0 0 0 -0.07,0.21 c 1.88,1 3.28,-1.42 4,-3.1 1.2,-3.05 0.93,-6.5 0.25,-9.63 z"
       style="fill:#263238"
       id="path238" />
    <path
       d="m 340.66,81.73 c 0,0 0,0 0,0 2.93,4 3.48,9.55 0.52,13.74 -3.73,5.26 -10.77,1.55 -15,-0.89 -0.2,-0.12 -0.41,0.18 -0.21,0.31 4.08,2.5 11.24,6.06 15.1,1.29 C 344.53,92 344,85.82 340.66,81.73 Z"
       style="fill:#263238"
       id="path239" />
    <path
       d="m 316.2,88.6 c -4,0.28 -6.85,2.05 -7.38,6.22 a 15.27,15.27 0 0 0 3.74,11.71 0.15239751,0.15239751 0 0 0 0.23,-0.2 17.21,17.21 0 0 1 -3.59,-8.78 c -0.2,-2.43 0.18,-5.13 1.94,-7 1.27,-1.32 3.38,-1.57 5.09,-1.84 0.09,0.02 0.06,-0.12 -0.03,-0.11 z"
       style="fill:#263238"
       id="path240" />
    <path
       d="m 331.55,86.72 c -4.82,-3.18 -14.47,-6.37 -16.16,1.81 0,0.06 0.1,0.09 0.12,0 2.16,-8.17 11,-4.17 15.93,-1.62 0.12,0.09 0.22,-0.12 0.11,-0.19 z"
       style="fill:#263238"
       id="path241" />
    <path
       d="m 315.13,107.91 c 0,0 -2.94,-5.66 -5.46,-4.68 -2.52,0.98 -0.8,8.86 1.83,10.25 a 2.83,2.83 0 0 0 4,-1 z"
       style="fill:#d3766a"
       id="path242" />
    <path
       d="m 310.22,105.47 c 0,0 -0.06,0.06 0,0.08 1.83,1 2.61,3 3.08,4.92 a 1.58,1.58 0 0 0 -2.27,-0.73 c -0.05,0 0,0.12 0,0.11 a 1.74,1.74 0 0 1 1.82,0.86 8.14,8.14 0 0 1 0.71,1.66 c 0.07,0.18 0.39,0.13 0.35,-0.08 v 0 c 0.39,-2.51 -1.07,-6.22 -3.69,-6.82 z"
       style="fill:#263238"
       id="path243" />
    <path
       d="m 304.57,126.91 c 0,0 1.56,-7.44 2.45,-7.57 0.89,-0.13 4.47,7 7.87,8.5 3.4,1.5 7.33,1.1 7.89,1.21 0.56,0.11 -1.4,6.68 -2.1,8.11 -0.83,1.68 -2.29,3.22 -4.91,2.62 -4.84,-1.1 -10.88,-9.34 -11.2,-12.87 z"
       style="fill:#455a64"
       id="path244" />
    <path
       d="m 307.53,121.33 a 16.59,16.59 0 0 1 -1.85,5.74 16.38,16.38 0 0 1 1.85,-5.74 z"
       style="fill:#263238"
       id="path245" />
    <path
       d="m 321.91,129.65 a 16.72,16.72 0 0 1 -1.49,5.84 16.4,16.4 0 0 1 1.49,-5.84 z"
       style="fill:#263238"
       id="path246" />
    <path
       d="m 319.81,130.59 a 29,29 0 0 1 -2,7.76 28.87,28.87 0 0 1 2,-7.76 z"
       style="fill:#263238"
       id="path247" />
    <path
       d="m 317,130.22 a 29,29 0 0 1 -2,7.76 28.87,28.87 0 0 1 2,-7.76 z"
       style="fill:#263238"
       id="path248" />
    <path
       d="m 314.05,128.65 a 29,29 0 0 1 -2,7.76 29,29 0 0 1 2,-7.76 z"
       style="fill:#263238"
       id="path249" />
    <path
       d="m 311.62,126.73 a 26.12,26.12 0 0 1 -1.89,7.38 25.87,25.87 0 0 1 1.89,-7.38 z"
       style="fill:#263238"
       id="path250" />
    <path
       d="m 309.4,124.18 a 20.46,20.46 0 0 1 -1.93,6.48 20.64,20.64 0 0 1 1.93,-6.48 z"
       style="fill:#263238"
       id="path251" />
    <path
       d="m 299.31,137.06 c -2.63,7.95 -9.34,40 -2.11,48.36 8.76,10.16 22.18,18.57 28.42,22 1.52,0.83 15.91,-19.25 12.32,-21.37 -5.58,-3.3 -20.69,-15 -21.62,-16 -1.63,-1.79 -3.6,-19.84 -5.63,-31.37 -1.84,-10.45 -9.84,-6.31 -11.38,-1.62 z"
       style="fill:#d3766a"
       id="path252" />
    <path
       d="m 337.5,185.9 c 0,0 9.31,2.49 15.32,4.41 3.36,1.07 8.94,3.41 11.05,5.33 3.13,2.86 14.49,16.83 11.13,19.66 -3,2.55 -11.23,-10.69 -11.23,-10.69 0,0 9.47,12.63 5.28,15 -4.19,2.37 -11.49,-13.79 -11.49,-13.79 0,0 9.44,13.19 4.72,15 -3.56,1.36 -11,-12.94 -11,-12.94 0,0 8,11.4 4.43,13 -4,1.72 -11.67,-11.05 -11.67,-11.05 -9.84,2.42 -15.51,-0.46 -19.3,-3 -0.89,-0.6 12.76,-20.93 12.76,-20.93 z"
       style="fill:#d3766a"
       id="path253" />
    <path
       d="m 360.8,200 c 1.17,1.44 2.36,2.89 3.39,4.44 1.03,1.55 2,3.12 2.9,4.75 a 31.77,31.77 0 0 1 2.85,6.68 68.83,68.83 0 0 0 -6.18,-11.16 c -1,-1.54 -2,-3.14 -3,-4.68 -0.05,-0.03 0.01,-0.03 0.04,-0.03 z"
       style="fill:#263238"
       id="path254" />
    <path
       d="m 355.16,203.66 c 1.41,1.91 2.88,3.75 4.21,5.72 1.33,1.97 2.4,3.94 3.58,6 0.09,0.16 0,0.16 -0.12,0 -1.26,-2 -2.58,-3.74 -3.87,-5.73 -1.29,-1.99 -2.49,-4 -3.85,-5.94 -0.02,-0.05 0.03,-0.08 0.05,-0.05 z"
       style="fill:#263238"
       id="path255" />
    <path
       d="m 349.76,205.91 a 52.78,52.78 0 0 1 5.77,9.24 c 0.08,0.16 -0.07,0.14 -0.16,0 -1.86,-3.11 -3.3,-5.56 -5.7,-9.14 -0.04,-0.08 0.05,-0.16 0.09,-0.1 z"
       style="fill:#263238"
       id="path256" />
    <path
       d="m 336.28,184.25 -11.73,26.28 c 0,0 -24.71,-17.06 -29.19,-26.16 -4.48,-9.1 -0.84,-31.31 2.3,-43.33 3.14,-12.02 11.7,-16.57 14.52,2.77 2.82,19.34 3.5,25.28 4.14,26.18 0.64,0.9 19.96,14.26 19.96,14.26 z"
       style="fill:#455a64"
       id="path257" />
    <path
       d="m 315.91,204 c -0.36,-0.52 -19.07,-15.66 -21.48,-22.67 -1.05,-3.06 -1.2,-12.14 -0.68,-17.77 0.2,-2.15 0.6,-4.29 0.93,-6.43 0.68,-4.32 1.44,-8.63 1.83,-13 0,0 -0.07,-0.06 -0.08,0 -0.75,2.7 -1.34,5.45 -1.83,8.22 0,-0.15 0,-0.31 0,-0.46 -0.14,-1.33 -0.33,-2.66 -0.34,-4 0,-0.09 -0.15,-0.08 -0.15,0 0.06,1.32 0,2.64 0,4 0,0.64 0,1.27 0.08,1.91 0,0.24 0.05,0.5 0.08,0.76 -0.13,0.86 -0.26,1.71 -0.38,2.57 -0.31,2.19 -0.48,4.39 -0.74,6.58 -0.72,6 -0.73,14.08 0.63,18.35 2.29,7.23 21.81,21.92 22,22.11 0.19,0.19 0.22,-0.05 0.13,-0.17 z"
       style="fill:#263238"
       id="path258" />
    <path
       d="m 319.86,204.44 c 1,-1.77 1.8,-3.71 2.64,-5.57 0.84,-1.86 1.64,-3.68 2.44,-5.53 1.62,-3.73 3.34,-7.45 4.72,-11.28 a 0.08,0.08 0 0 0 -0.14,-0.07 c -2,3.59 -3.63,7.39 -5.28,11.14 -0.83,1.88 -1.64,3.78 -2.42,5.68 a 52.83,52.83 0 0 0 -2.11,5.58 c -0.03,0.09 0.11,0.12 0.15,0.05 z"
       style="fill:#263238"
       id="path259" />
    <path
       d="m 312.55,145.48 c 1.61,7.85 2.8,15.91 4.11,23.82 0.09,0.36 0,0.48 0.32,0.77 2.81,2.55 6,4.65 9,7 a 86.06,86.06 0 0 1 -7.85,-4.87 c -0.91,-0.77 -2.31,-1.37 -2.45,-2.74 -1.41,-7.95 -2.42,-16 -3.16,-24 z"
       style="fill:#263238"
       id="path260" />
    <path
       d="m 314.09,147.53 a 7.9,7.9 0 0 1 -0.31,5.1 38,38 0 0 1 0.31,-5.1 z"
       style="fill:#263238"
       id="path261" />
  </g>
  <g
     id="freepik--Bags--inject-2"
     transform="translate(-50.72,-43.007162)">
    <polygon
       points="624.33,309.5 547.98,309.5 532.27,419.28 640.05,419.28 "
       style="fill:#37474f"
       id="polygon261" />
    <polygon
       points="532.26,419.29 547.98,309.49 559.96,419.29 "
       style="fill:#455a64"
       id="polygon262" />
    <path
       d="m 602.83,317.06 3.37,-0.71 c 0,-0.09 -2,-9.31 -4.06,-18.63 C 599.88,287.66 590,283 581.71,284.36 c -6.19,1 -13.05,5.84 -12,16.16 1.11,11 1.95,16.25 2,16.46 l 3.4,-0.55 c 0,-0.05 -0.86,-5.33 -2,-16.26 -0.8,-7.93 4.2,-11.61 9.14,-12.41 6.69,-1.08 14.7,2.63 16.52,10.72 2.09,9.29 4.04,18.52 4.06,18.58 z"
       style="fill:#263238"
       id="path262" />
    <path
       d="m 558.5,418.44 c -2.22,-1.57 -4.51,-3 -6.8,-4.46 -2.29,-1.46 -4.63,-2.81 -7,-4.15 l -0.32,-0.18 -0.3,0.22 c -1.82,1.36 -3.64,2.73 -5.41,4.17 -1.77,1.44 -3.55,2.87 -5.25,4.39 2,-1.18 3.86,-2.44 5.74,-3.72 1.88,-1.28 3.75,-2.59 5.59,-3.93 h -0.61 c 2.33,1.37 4.7,2.7 7.08,4 2.38,1.3 4.78,2.53 7.28,3.66 z"
       style="fill:#ffffff"
       id="path263" />
    <path
       d="m 544.43,410.32 c 0.47,-7 0.82,-14 1.15,-21 0.33,-7 0.57,-14 0.85,-21 0.28,-7 0.44,-14 0.58,-21 l 0.2,-10.52 c 0,-3.51 0.09,-7 0.08,-10.52 -0.25,3.5 -0.43,7 -0.64,10.5 l -0.52,10.51 c -0.33,7 -0.56,14 -0.84,21 -0.28,7 -0.44,14 -0.59,21 -0.15,7 -0.27,14.02 -0.27,21.03 z"
       style="fill:#ffffff"
       id="path264" />
    <path
       d="m 599.94,316.71 a 4.58,4.58 0 1 0 4.57,-4.58 4.58,4.58 0 0 0 -4.57,4.58 z"
       style="fill:#263238"
       id="path265" />
    <path
       d="m 569.15,316.71 a 4.58,4.58 0 1 0 4.57,-4.58 4.58,4.58 0 0 0 -4.57,4.58 z"
       style="fill:#263238"
       id="path266" />
    <polygon
       points="656.73,323.79 590.32,323.79 576.65,419.28 670.4,419.28 "
       style="fill:#00adef"
       id="polygon266" />
    <polygon
       points="576.65,419.29 590.32,323.79 600.74,419.29 "
       style="fill:#00adef"
       id="polygon267" />
    <polygon
       points="576.65,419.29 590.32,323.79 600.74,419.29 "
       style="opacity:0.1"
       id="polygon268" />
    <path
       d="m 638,330.37 2.93,-0.62 c 0,-0.08 -1.72,-8.1 -3.53,-16.2 -2,-8.75 -10.57,-12.78 -17.77,-11.62 -5.38,0.87 -11.35,5.07 -10.45,14.05 1,9.61 1.69,14.13 1.72,14.32 l 3,-0.48 c 0,0 -0.74,-4.64 -1.69,-14.14 -0.7,-6.9 3.65,-10.1 7.95,-10.79 5.82,-0.94 12.79,2.28 14.36,9.32 1.8,8.08 3.48,16.08 3.48,16.16 z"
       style="fill:#263238"
       id="path268" />
    <path
       d="m 599.47,418.55 c -1.93,-1.37 -3.92,-2.62 -5.92,-3.88 -2,-1.26 -4,-2.44 -6.07,-3.61 l -0.29,-0.16 -0.25,0.19 c -1.59,1.19 -3.17,2.38 -4.71,3.64 -1.54,1.26 -3.08,2.49 -4.57,3.81 1.71,-1 3.36,-2.12 5,-3.23 1.64,-1.11 3.26,-2.26 4.86,-3.43 h -0.53 q 3,1.8 6.16,3.46 c 2.08,1.13 4.17,2.23 6.32,3.21 z"
       style="fill:#ffffff"
       id="path269" />
    <path
       d="m 587.23,411.49 c 0.41,-6.09 0.72,-12.18 1,-18.28 0.28,-6.1 0.48,-12.19 0.73,-18.28 0.25,-6.09 0.38,-12.2 0.51,-18.29 l 0.17,-9.15 c 0,-3.06 0.08,-6.1 0.07,-9.16 -0.22,3.05 -0.37,6.09 -0.56,9.14 l -0.45,9.14 c -0.28,6.09 -0.49,12.19 -0.73,18.28 -0.24,6.09 -0.38,12.2 -0.51,18.3 -0.13,6.1 -0.23,12.2 -0.23,18.3 z"
       style="fill:#ffffff"
       id="path270" />
    <path
       d="m 635.51,330.06 a 4,4 0 1 0 4,-4 4,4 0 0 0 -4,4 z"
       style="fill:#263238"
       id="path271" />
    <path
       d="m 608.73,330.06 a 4,4 0 1 0 4,-4 4,4 0 0 0 -4,4 z"
       style="fill:#263238"
       id="path272" />
  </g>
  <g
     id="freepik--speech-bubble--inject-2"
     transform="translate(-50.72,-43.007162)">
    <path
       d="m 399.87,76.9 a 22.62,22.62 0 0 1 -37.79,14.31 l -11.31,1.66 5.66,-9.78 a 22.62,22.62 0 1 1 43.44,-6.19 z"
       style="fill:#ffffff"
       id="path273" />
    <path
       d="m 399.87,76.9 a 22.79,22.79 0 0 1 -4.56,11.47 27.08,27.08 0 0 1 -2.05,2.36 27.14,27.14 0 0 1 -2.39,2 23.12,23.12 0 0 1 -11.55,4.49 23.48,23.48 0 0 1 -3.14,0.06 20.51,20.51 0 0 1 -3.13,-0.33 22.88,22.88 0 0 1 -11.19,-5.52 l 0.27,0.08 -11.31,1.73 -0.82,0.13 0.42,-0.72 5.63,-9.81 v 0.39 a 22.9,22.9 0 0 1 1.39,-20.16 23.24,23.24 0 0 1 7.09,-7.54 22.77,22.77 0 0 1 9.65,-3.62 22.83,22.83 0 0 1 25.72,25 z m 0,0 a 22.39,22.39 0 0 0 -25.65,-24.48 22.39,22.39 0 0 0 -9.34,3.69 23.3,23.3 0 0 0 -6.77,7.38 22.46,22.46 0 0 0 -2.87,9.57 22.73,22.73 0 0 0 1.59,9.86 l 0.09,0.2 -0.11,0.19 -5.7,9.76 -0.4,-0.6 11.29,-1.59 h 0.16 l 0.11,0.11 a 22.33,22.33 0 0 0 10.83,5.58 19.8,19.8 0 0 0 3.07,0.37 21.39,21.39 0 0 0 3.1,0 22.08,22.08 0 0 0 6,-1.33 20.83,20.83 0 0 0 5.45,-2.94 23.78,23.78 0 0 0 2.39,-2 25.53,25.53 0 0 0 2.06,-2.34 22.75,22.75 0 0 0 4.7,-11.43 z"
       style="fill:#263238"
       id="path274" />
    <polygon
       points="368.31,74.46 373.95,80.17 385.68,61.79 389.53,64.25 374.73,87.45 365.07,77.67 "
       style="fill:#00adef"
       id="polygon274" />
  </g>
</svg>
