<svg xmlns="http://www.w3.org/2000/svg" viewBox="0 0 500 500"><g id="freepik--background-complete--inject-31"><path d="M369.19,53.56c-56.16,0-56.26,79.87,0,79.87S425.45,53.56,369.19,53.56Z" style="fill:#ebebeb"></path><path d="M403.35,101c-3,13.74-14.39,25.66-34.16,25.66-46.69,0-46.62-66.29,0-66.29.3,0,.61,0,.91,0-43.87.8-43.65,63.58.86,63.58C389.12,124,399.94,113.44,403.35,101Z" style="fill:#dbdbdb"></path><path d="M369.53,69.09A1.42,1.42,0,0,1,371,70.42v2.23a20.88,20.88,0,0,1,10.81,3.89c.55.39.85.72.85,1.28a1.5,1.5,0,0,1-1.58,1.39,1.58,1.58,0,0,1-1.09-.39,18.14,18.14,0,0,0-9.12-3.61V90.77c9.24,1.78,13.13,5,13.13,10.4,0,5.89-5.41,10.06-13,10.29v4.33a1.47,1.47,0,0,1-2.92,0V111.4A23.94,23.94,0,0,1,354.4,106a1.42,1.42,0,0,1-.67-1.17,1.53,1.53,0,0,1,1.52-1.39,1.59,1.59,0,0,1,1.09.39,20.49,20.49,0,0,0,11.85,5.06V93.05c-9.12-1.83-12.88-4.89-12.88-10.45s5.34-9.9,12.76-10.06V70.42A1.42,1.42,0,0,1,369.53,69.09Zm-1.34,21.13V75c-5.89.11-9.78,3.33-9.78,7.34C358.41,86.16,360.35,88.49,368.19,90.22Zm2.67,3.39V109c6.08-.11,10-3.33,10-7.56C380.89,97.56,378.76,95.22,370.86,93.61Z" style="fill:#dbdbdb"></path><path d="M116.44,50.59c-42,0-42.07,59.72,0,59.72S158.5,50.59,116.44,50.59Z" style="fill:#ebebeb"></path><path d="M142,86.05c-2.24,10.27-10.76,19.18-25.54,19.18-34.9,0-34.85-49.56,0-49.56h.68c-32.79.6-32.63,47.54.65,47.54C131.33,103.22,139.42,95.37,142,86.05Z" style="fill:#dbdbdb"></path><path d="M116.69,62.2a1.06,1.06,0,0,1,1.09,1v1.66a15.61,15.61,0,0,1,8.08,2.91c.41.3.64.54.64,1a1.13,1.13,0,0,1-1.18,1,1.18,1.18,0,0,1-.82-.29,13.62,13.62,0,0,0-6.82-2.7V78.42c6.91,1.33,9.82,3.7,9.82,7.77,0,4.41-4,7.52-9.72,7.69v3.24a1.1,1.1,0,0,1-2.19,0V93.84a17.9,17.9,0,0,1-10.22-4,1.06,1.06,0,0,1-.5-.88,1.14,1.14,0,0,1,1.14-1,1.19,1.19,0,0,1,.82.3A15.26,15.26,0,0,0,115.69,92V80.12c-6.82-1.37-9.64-3.66-9.64-7.81s4-7.4,9.54-7.53V63.2A1.07,1.07,0,0,1,116.69,62.2Zm-1,15.8V66.65c-4.41.09-7.32,2.5-7.32,5.49C108.37,75,109.83,76.71,115.69,78Zm2,2.54V92c4.55-.08,7.5-2.49,7.5-5.65C125.18,83.49,123.59,81.74,117.68,80.54Z" style="fill:#dbdbdb"></path><path d="M67.4,248.67c-31.05,5.58-22.85,51.58,8.26,46S98.51,243.09,67.4,248.67Z" style="fill:#dbdbdb"></path><path d="M70.32,248.15c-29.6,5.31-21.39,51.32,8.25,46S100,242.83,70.32,248.15Z" style="fill:#ebebeb"></path><path d="M93.22,272.23c-.16,8.2-4.93,16.14-15.35,18-24.6,4.41-31.42-33.77-6.85-38.18l.48-.08c-23,4.62-16.43,40.75,7,36.54C88.09,286.8,92.71,279.73,93.22,272.23Z" style="fill:#dbdbdb"></path><path d="M72.1,257.06a.8.8,0,0,1,.91.63l.23,1.28a10.62,10.62,0,0,1,6.1,1.22c.33.18.52.34.58.66a.86.86,0,0,1-1.31.83,9.25,9.25,0,0,0-5.17-1.22l1.6,9c5.06.15,7.43,1.61,8,4.75.6,3.39-1.81,6.31-5.79,7.15l.44,2.5a.78.78,0,1,1-1.53.28l-.46-2.53a12.22,12.22,0,0,1-7.76-1.82.83.83,0,0,1-.47-.6.85.85,0,0,1,.66-.95.81.81,0,0,1,.61.12,10.5,10.5,0,0,0,6.77,1.8L73.87,271c-5-.19-7.29-1.6-7.87-4.8s1.8-6.21,5.69-7L71.47,258A.79.79,0,0,1,72.1,257.06Zm1.48,12.3L72,260.61c-3.09.63-4.81,2.85-4.4,5.16S69.27,269.11,73.58,269.36Zm1.76,1.7,1.58,8.83c3.19-.63,4.94-2.86,4.51-5.3C81,272.38,79.67,271.24,75.34,271.06Z" style="fill:#dbdbdb"></path><path d="M417.93,158.24C380.12,165,390.1,221,428,214.25S455.8,151.45,417.93,158.24Z" style="fill:#dbdbdb"></path><path d="M421.48,157.61c-36,6.46-26.05,62.48,10,56S457.57,151.13,421.48,157.61Z" style="fill:#ebebeb"></path><path d="M449.36,186.93c-.19,10-6,19.65-18.69,21.92-29.95,5.38-38.25-41.12-8.34-46.48l.59-.1c-28.05,5.62-20,49.61,8.55,44.49C443.12,204.67,448.74,196.06,449.36,186.93Z" style="fill:#dbdbdb"></path><path d="M428.67,168.43a1,1,0,0,1,.83,1.06l-.18,1.57a13,13,0,0,1,6.68,3.58,1.1,1.1,0,0,1,.44,1,1,1,0,0,1-1.14.86,1,1,0,0,1-.67-.36,11.28,11.28,0,0,0-5.6-3.25l-1.3,11c5.83,2,8.09,4.5,7.63,8.35-.49,4.17-4.33,6.71-9.27,6.29l-.36,3.07a1,1,0,0,1-1.89-.22l.37-3.11a14.94,14.94,0,0,1-8.41-4.86,1.06,1.06,0,0,1-.33-.88,1,1,0,0,1,1.1-.86,1,1,0,0,1,.67.36,12.87,12.87,0,0,0,7.25,4.48l1.32-11.21c-5.75-2-7.93-4.45-7.47-8.38s4.29-6.6,9.1-6.15l.18-1.49A1,1,0,0,1,428.67,168.43Zm-2.62,14.85,1.26-10.74c-3.82-.37-6.61,1.62-6.94,4.45C420.05,179.66,421.12,181.46,426.05,183.28Zm1.45,2.6-1.28,10.86c3.94.38,6.77-1.6,7.12-4.59C433.66,189.44,432.48,187.62,427.5,185.88Z" style="fill:#dbdbdb"></path><path d="M457.47,297l-16.28,78.23a8.09,8.09,0,0,1-9.56,6.27L307.56,355.68a8.08,8.08,0,0,1-6.26-9.57l16.28-78.22a7.53,7.53,0,0,1,8.9-5.84L451.64,288.1A7.52,7.52,0,0,1,457.47,297Z" style="fill:#ebebeb"></path><path d="M423.32,360a7.44,7.44,0,1,1-5.77-8.8A7.44,7.44,0,0,1,423.32,360Z" style="fill:#a6a6a6"></path><path d="M432.29,361.87a7.44,7.44,0,1,1-5.77-8.79A7.44,7.44,0,0,1,432.29,361.87Z" style="fill:#dbdbdb"></path><rect x="325.9" y="278.94" width="26.82" height="18.54" rx="4.2" transform="translate(65.85 -63.1) rotate(11.76)" style="fill:#dbdbdb"></rect><path d="M438,309.66l-11.88-2.48a5.08,5.08,0,0,1-3.94-6h0a5.08,5.08,0,0,1,6-3.94L440,299.7a5.1,5.1,0,0,1,3.94,6h0A5.1,5.1,0,0,1,438,309.66Z" style="fill:#fff"></path><path d="M319.89,310.89l-1.21.41a.33.33,0,0,1-.14,0,.27.27,0,0,1-.2-.17.26.26,0,0,1,.17-.34l1.66-.59a.27.27,0,0,1,.33.17.37.37,0,0,1,0,.21l-1.46,7a.26.26,0,1,1-.52-.1Z" style="fill:#a6a6a6"></path><path d="M321,317.77l4.23-2.47a2.08,2.08,0,0,0,1-1.33,2,2,0,0,0-.24-1.41,2,2,0,0,0-1.32-.94,2.06,2.06,0,0,0-1.43.22l-.44.26a.27.27,0,1,1-.28-.45l.44-.27a2.55,2.55,0,0,1,1.82-.29,2.44,2.44,0,0,1,1.66,1.19,2.48,2.48,0,0,1,.31,1.8,2.55,2.55,0,0,1-1.2,1.68l-3.62,2.12,3.6.75a.28.28,0,0,1-.11.54l-4.25-.89h0a.23.23,0,0,1-.18-.11A.3.3,0,0,1,321,317.77Z" style="fill:#a6a6a6"></path><path d="M333.37,313.39,331,315a2.57,2.57,0,0,1,1.16,1,2.65,2.65,0,0,1-.77,3.66,2.67,2.67,0,0,1-2,.38,2.62,2.62,0,0,1-1.66-1.14.28.28,0,0,1,.08-.38.27.27,0,0,1,.38.08,2.08,2.08,0,0,0,1.32.88,2.06,2.06,0,0,0,2.47-1.6,2.08,2.08,0,0,0-1.61-2.46.29.29,0,0,1-.2-.16h0a.28.28,0,0,1,.08-.39l2.3-1.55-2.92-.61a.28.28,0,0,1,.12-.55l3.56.74a.28.28,0,0,1,.21.33.23.23,0,0,1-.06.12A.16.16,0,0,1,333.37,313.39Z" style="fill:#a6a6a6"></path><path d="M338.61,320.29l-4.13-.85h0a.21.21,0,0,1-.15-.09.25.25,0,0,1,0-.38l5.55-4.56h0a.26.26,0,0,1,.38,0,.28.28,0,0,1,.06.15s0,0,0,.05v0l-1.08,5.22.51.11a.27.27,0,1,1-.11.52l-.51-.1-.27,1.3a.28.28,0,0,1-.33.21.28.28,0,0,1-.21-.32Zm.1-.52.93-4.46L335.11,319Z" style="fill:#a6a6a6"></path><path d="M348,323.1a.26.26,0,0,1,.08-.38.28.28,0,0,1,.39.08,2.06,2.06,0,0,0,1.32.88,2.08,2.08,0,0,0,1.56-.29,2.12,2.12,0,0,0,.61-2.89,2.07,2.07,0,0,0-1.32-.88,2.1,2.1,0,0,0-1.57.29.27.27,0,0,1-.38-.07.22.22,0,0,1-.05-.11h0a0,0,0,0,1,0,0,.28.28,0,0,1,0-.09s0,0,0-.05l1-3a.25.25,0,0,1,.15-.18.3.3,0,0,1,.19,0l3.55.74a.28.28,0,0,1-.12.55l-3.32-.7-.74,2.21a2.65,2.65,0,0,1,1.37-.08,2.61,2.61,0,0,1,1.66,1.13,2.57,2.57,0,0,1,.37,2,2.66,2.66,0,0,1-1.13,1.67,2.77,2.77,0,0,1-2,.37A2.67,2.67,0,0,1,348,323.1Z" style="fill:#a6a6a6"></path><path d="M356.32,319.41a3.14,3.14,0,0,1,3-1.1.27.27,0,0,1,.22.3.29.29,0,0,1-.32.23,2.64,2.64,0,0,0-2.51.92,5.12,5.12,0,0,0-.86,1.41,2.61,2.61,0,0,1,2.06-.47,2.57,2.57,0,1,1-3.05,2.08,2.89,2.89,0,0,1,.08-.5A6.38,6.38,0,0,1,356.32,319.41Zm-.91,3.44a.76.76,0,0,0,0,.15s0,.05,0,.07a2,2,0,1,0,2.44-1.83,2,2,0,0,0-2.39,1.57Z" style="fill:#a6a6a6"></path><path d="M362.25,326.46l4.21-6.09-3.68-.77a.27.27,0,0,1-.21-.31.27.27,0,0,1,.32-.21l4,.84a.29.29,0,0,1,.16,0,.33.33,0,0,1,.11.2.28.28,0,0,1,0,.09.35.35,0,0,1-.08.13l-4.41,6.4a.28.28,0,0,1-.27.11l-.1-.05A.29.29,0,0,1,362.25,326.46Z" style="fill:#a6a6a6"></path><path d="M371.28,320.78a1.62,1.62,0,0,1,1.26,1.91,1.6,1.6,0,0,1-.92,1.15,2.52,2.52,0,1,1-1.88-.39,1.63,1.63,0,0,1,1.54-2.67Zm-1.48,7.1a2,2,0,1,0-1.54-2.36A2,2,0,0,0,369.8,327.88Zm.93-4.44a1.11,1.11,0,0,0,1.29-.86,1.08,1.08,0,0,0-.85-1.27,1.06,1.06,0,0,0-1.27.83A1.1,1.1,0,0,0,370.73,323.44Z" style="fill:#a6a6a6"></path><path d="M384.82,323.6a2.55,2.55,0,0,1,2,2.74.15.15,0,0,1,0,.06c0,.21-.06.43-.11.66a6.4,6.4,0,0,1-1.36,2.88,3.2,3.2,0,0,1-3,1.1h0a.26.26,0,0,1-.22-.31.28.28,0,0,1,.32-.23,2.61,2.61,0,0,0,2.5-.92,4.68,4.68,0,0,0,.86-1.41,2.51,2.51,0,0,1-2.06.45,2.56,2.56,0,1,1,1-5Zm1.47,2.92a2,2,0,1,0-2.4,1.56A2,2,0,0,0,386.29,326.52Z" style="fill:#a6a6a6"></path><path d="M388.49,328.34a4.92,4.92,0,0,1,1.28-2.52,2.21,2.21,0,0,1,3.81.8,5.28,5.28,0,0,1-1.11,5.32,2.37,2.37,0,0,1-2.14.75,2.4,2.4,0,0,1-1.67-1.54A4.88,4.88,0,0,1,388.49,328.34Zm.53.11a4.34,4.34,0,0,0,.15,2.49,1.85,1.85,0,0,0,1.27,1.22,1.92,1.92,0,0,0,1.65-.61,4.38,4.38,0,0,0,1.14-2.22,4.46,4.46,0,0,0-.16-2.5,1.85,1.85,0,0,0-1.27-1.22,1.83,1.83,0,0,0-1.65.61A4.41,4.41,0,0,0,389,328.45Z" style="fill:#a6a6a6"></path><path d="M397.92,327.13l-1.21.41a.23.23,0,0,1-.14,0,.26.26,0,0,1-.2-.18.25.25,0,0,1,.17-.34l1.65-.59a.28.28,0,0,1,.34.18.27.27,0,0,1,0,.2l-1.45,7a.27.27,0,0,1-.32.2.26.26,0,0,1-.2-.31Z" style="fill:#a6a6a6"></path><path d="M399,334l4.23-2.47a2,2,0,0,0,1-1.32,2,2,0,0,0-1.55-2.36,2.06,2.06,0,0,0-1.43.22l-.44.27a.27.27,0,0,1-.37-.09.25.25,0,0,1,.09-.37l.44-.27a2.55,2.55,0,0,1,1.82-.29,2.47,2.47,0,0,1,1.66,1.19,2.5,2.5,0,0,1,.31,1.81,2.54,2.54,0,0,1-1.21,1.67l-3.62,2.12,3.61.75a.28.28,0,0,1,.2.33.27.27,0,0,1-.31.21l-4.25-.89h0a.23.23,0,0,1-.18-.11A.29.29,0,0,1,399,334Z" style="fill:#a6a6a6"></path><path d="M417.92,331l-2.39,1.62a2.57,2.57,0,0,1,1.16,1,2.62,2.62,0,0,1,.37,2,2.57,2.57,0,0,1-1.14,1.67,2.65,2.65,0,0,1-2,.38,2.6,2.6,0,0,1-1.66-1.14.26.26,0,0,1,.08-.38.27.27,0,0,1,.38.08,2.06,2.06,0,0,0,1.31.88,2.09,2.09,0,0,0,1.57-.28,2.08,2.08,0,0,0,.6-2.89,2.05,2.05,0,0,0-1.31-.89.29.29,0,0,1-.2-.16h0a.29.29,0,0,1,.08-.39l2.3-1.56-2.91-.6A.28.28,0,0,1,414,330a.28.28,0,0,1,.33-.22l3.56.74a.27.27,0,0,1,.21.33.17.17,0,0,1-.05.12A.27.27,0,0,1,417.92,331Z" style="fill:#a6a6a6"></path><path d="M423.16,337.89,419,337h0a.24.24,0,0,1-.15-.09.26.26,0,0,1,0-.38l5.55-4.56h0a.25.25,0,0,1,.37,0,.28.28,0,0,1,.06.15s0,0,0,.05v0l-1.09,5.22.51.11a.28.28,0,0,1,.22.32.27.27,0,0,1-.33.2l-.51-.1-.27,1.3a.28.28,0,0,1-.33.21.27.27,0,0,1-.2-.32Zm.11-.52.93-4.46-4.53,3.71Z" style="fill:#a6a6a6"></path><path d="M426,339.34a.26.26,0,0,1,.08-.38.28.28,0,0,1,.39.08,2.08,2.08,0,0,0,1.31.89,2.11,2.11,0,0,0,1.57-.3,2.08,2.08,0,1,0-2.28-3.47.27.27,0,0,1-.38-.08.24.24,0,0,1-.05-.1h0v0a.15.15,0,0,1,0-.09s0,0,0,0l1-3a.23.23,0,0,1,.15-.18.3.3,0,0,1,.19,0l3.54.74a.28.28,0,0,1,.22.33.28.28,0,0,1-.33.22l-3.32-.69-.74,2.2a2.76,2.76,0,0,1,1.37-.08,2.64,2.64,0,0,1,.9,4.79,2.66,2.66,0,0,1-3.66-.76Z" style="fill:#a6a6a6"></path><path d="M434.35,335.65a3.14,3.14,0,0,1,3-1.1.27.27,0,0,1,.22.3.29.29,0,0,1-.32.23,2.64,2.64,0,0,0-2.51.92,5.27,5.27,0,0,0-.86,1.41,2.55,2.55,0,1,1-1,1.61,4.8,4.8,0,0,1,.09-.5A6.38,6.38,0,0,1,434.35,335.65Zm-.91,3.44a.39.39,0,0,0,0,.15s0,.05,0,.07a2.13,2.13,0,1,0,.05-.26Z" style="fill:#a6a6a6"></path><rect x="315.66" y="337.88" width="67.86" height="3.33" transform="matrix(0.98, 0.2, -0.2, 0.98, 76.53, -64.11)" style="fill:#c7c7c7"></rect><rect x="314.35" y="343.11" width="48.04" height="3.33" transform="translate(77.36 -61.72) rotate(11.76)" style="fill:#c7c7c7"></rect><rect x="384.78" y="291.76" width="33.84" height="3.33" transform="translate(68.22 -75.7) rotate(11.76)" style="fill:#c7c7c7"></rect></g><g id="freepik--Floor--inject-31"><path d="M42.91,390c132.68-.61,281.51-.61,414.18,0-132.68.62-281.51.61-414.18,0Z" style="fill:#263238"></path></g><g id="freepik--Shadow--inject-31"><ellipse cx="250" cy="440.82" rx="198.97" ry="24.49" style="fill:#ebebeb"></ellipse></g><g id="freepik--Device--inject-31"><path d="M118.44,119.78V430.5H86.89V245.08c0-18.26-3.29-28.67-16.63-41.14-21.16-19.79-22.7-35.21-22.7-49.3,0-25.22,14.93-50.53,36.52-50.53C98.16,104.11,110.73,109.52,118.44,119.78Z" style="fill:#455a64"></path><path d="M285.64,123.83V430.5H110.83V138c0-26.86-20.45-34-23.71-34h178.7A19.82,19.82,0,0,1,285.64,123.83Z" style="fill:#37474f"></path><rect x="227.61" y="304.46" width="35.62" height="15.87" transform="translate(490.83 624.79) rotate(180)" style="fill:#ebebeb"></rect><rect x="183.43" y="304.46" width="35.62" height="15.87" transform="translate(402.47 624.79) rotate(180)" style="fill:#ebebeb"></rect><rect x="139.25" y="304.46" width="35.62" height="15.87" transform="translate(314.12 624.79) rotate(180)" style="fill:#ebebeb"></rect><rect x="227.61" y="327" width="35.62" height="15.87" transform="translate(490.83 669.87) rotate(180)" style="fill:#ebebeb"></rect><rect x="183.43" y="327" width="35.62" height="15.87" transform="translate(402.47 669.87) rotate(180)" style="fill:#ebebeb"></rect><rect x="139.25" y="327" width="35.62" height="15.87" transform="translate(314.12 669.87) rotate(180)" style="fill:#ebebeb"></rect><rect x="227.61" y="349.54" width="35.62" height="15.87" transform="translate(490.83 714.94) rotate(180)" style="fill:#ebebeb"></rect><rect x="183.43" y="349.54" width="35.62" height="15.87" transform="translate(402.47 714.94) rotate(180)" style="fill:#ebebeb"></rect><rect x="139.25" y="349.54" width="35.62" height="15.87" transform="translate(314.12 714.94) rotate(180)" style="fill:#ebebeb"></rect><rect x="227.61" y="372.08" width="35.62" height="15.87" transform="translate(490.83 760.02) rotate(180)" style="fill:#ebebeb"></rect><rect x="183.43" y="372.08" width="35.62" height="15.87" transform="translate(402.47 760.02) rotate(180)" style="fill:#ebebeb"></rect><rect x="139.25" y="372.08" width="35.62" height="15.87" transform="translate(314.12 760.02) rotate(180)" style="fill:#ebebeb"></rect><rect x="227.61" y="394.61" width="35.62" height="15.87" transform="translate(490.83 805.1) rotate(180)" style="fill:#263238"></rect><rect x="183.43" y="394.61" width="35.62" height="15.87" transform="translate(402.47 805.1) rotate(180)" style="fill:#00ADEF"></rect><rect x="139.25" y="394.61" width="35.62" height="15.87" transform="translate(314.12 805.1) rotate(180)" style="fill:#a6a6a6"></rect><path d="M126.27,294.09H274.2a.23.23,0,0,0,.24-.23V118.63A14.61,14.61,0,0,0,259.82,104H115.87a.24.24,0,0,0-.12.44h0A21.47,21.47,0,0,1,126,122.78V293.86A.23.23,0,0,0,126.27,294.09Z" style="fill:#263238"></path><rect x="228.43" y="257.7" width="33.15" height="10.98" transform="translate(490 526.39) rotate(180)" style="fill:#a6a6a6"></rect><rect x="228.43" y="275.16" width="33.15" height="10.98" transform="translate(490 561.3) rotate(180)" style="fill:#a6a6a6"></rect><rect x="138.25" y="257.7" width="33.15" height="10.98" transform="translate(309.65 526.39) rotate(180)" style="fill:#a6a6a6"></rect><rect x="138.25" y="275.16" width="33.15" height="10.98" transform="translate(309.65 561.3) rotate(180)" style="fill:#a6a6a6"></rect><rect x="135.37" y="148.98" width="129.73" height="100.88" transform="translate(400.48 398.84) rotate(180)" style="fill:#fff"></rect><g style="opacity:0.4"><polygon points="201.45 148.98 135.37 215.06 135.37 180.93 167.33 148.98 201.45 148.98" style="fill:#ebebeb"></polygon><polygon points="265.1 177.38 265.1 211.52 226.76 249.86 192.62 249.86 265.1 177.38" style="fill:#ebebeb"></polygon><polygon points="239.96 148.98 139.08 249.86 135.37 249.86 135.37 241.52 227.92 148.98 239.96 148.98" style="fill:#ebebeb"></polygon><polygon points="162.1 148.98 135.37 175.72 135.37 163.66 150.05 148.98 162.1 148.98" style="fill:#ebebeb"></polygon><polygon points="265.1 148.98 265.1 150.3 165.54 249.86 163.6 249.86 264.48 148.98 265.1 148.98" style="fill:#ebebeb"></polygon><polygon points="265.1 229.96 265.1 231.89 247.13 249.86 245.2 249.86 265.1 229.96" style="fill:#ebebeb"></polygon></g><rect x="152.4" y="128.48" width="95.68" height="5.63" style="fill:#455a64"></rect><path d="M155.75,134.12c28.72-.06,57.4.06,86.11,0a126,126,0,0,0,0-92.66l-86.15-.18A126.07,126.07,0,0,1,155.75,134.12Z" style="fill:#ebebeb"></path><path d="M185.66,55,221,55c-.17-.63-.34-1.26-.52-1.89l-35.36,0C185.31,53.69,185.49,54.32,185.66,55Z" style="fill:#c7c7c7"></path><path d="M195.59,60.38l18.15,0c-.14-.63-.28-1.26-.44-1.9l-18.15,0C195.3,59.11,195.45,59.75,195.59,60.38Z" style="fill:#c7c7c7"></path><path d="M206.72,76.87h35.34c-.05-.64-.11-1.28-.18-1.93l-35.34,0Z" style="fill:#c7c7c7"></path><path d="M198.48,82.4h43.94c0-.65-.06-1.29-.1-1.94H198.38C198.42,81.11,198.45,81.75,198.48,82.4Z" style="fill:#c7c7c7"></path><path d="M219.66,87.94h22.87c0-.64,0-1.29,0-1.93H219.65C219.66,86.65,219.66,87.3,219.66,87.94Z" style="fill:#c7c7c7"></path><path d="M203.23,93.49H242.4c0-.65,0-1.3.07-1.94H203.31C203.29,92.19,203.26,92.84,203.23,93.49Z" style="fill:#c7c7c7"></path><path d="M198.85,99,242,99c.06-.64.11-1.29.16-1.93l-43.17,0C199,97.73,198.91,98.38,198.85,99Z" style="fill:#c7c7c7"></path><path d="M201.85,104.54l39.55,0c.09-.64.17-1.29.25-1.93l-39.55,0C202,103.25,201.94,103.9,201.85,104.54Z" style="fill:#c7c7c7"></path><path d="M196.59,110l43.95,0,.33-1.92-44,.05C196.82,108.76,196.71,109.4,196.59,110Z" style="fill:#c7c7c7"></path><path d="M198.83,115.49l40.6,0,.42-1.9-40.6,0Z" style="fill:#c7c7c7"></path><path d="M204.91,120.9l33.17-.05c.17-.63.34-1.26.5-1.89l-33.17.05C205.25,119.64,205.08,120.27,204.91,120.9Z" style="fill:#c7c7c7"></path><path d="M192.92,126.28l43.56-.07c.2-.62.4-1.25.59-1.87l-43.56.07C193.32,125,193.12,125.66,192.92,126.28Z" style="fill:#c7c7c7"></path><path d="M193.56,131.59l41.09-.08c.22-.62.45-1.23.67-1.85l-41.09.08C194,130.36,193.79,131,193.56,131.59Z" style="fill:#c7c7c7"></path><path d="M172.69,82.39H186c0-.65-.06-1.3-.1-1.94H172.59C172.63,81.1,172.66,81.74,172.69,82.39Z" style="fill:#c7c7c7"></path><path d="M172.8,87.94h13.32c0-.64,0-1.29,0-1.94H172.79C172.79,86.65,172.8,87.3,172.8,87.94Z" style="fill:#c7c7c7"></path><path d="M172.66,93.49H186c0-.65.06-1.29.08-1.94H172.74C172.72,92.2,172.69,92.85,172.66,93.49Z" style="fill:#c7c7c7"></path><path d="M172.29,99h13.32c0-.65.11-1.29.16-1.94H172.45C172.4,97.74,172.35,98.39,172.29,99Z" style="fill:#c7c7c7"></path><path d="M171.66,104.56H185c.09-.64.17-1.29.25-1.93H171.91C171.83,103.27,171.75,103.92,171.66,104.56Z" style="fill:#c7c7c7"></path><path d="M170.8,110.06h13.32l.33-1.92H171.13Z" style="fill:#c7c7c7"></path><path d="M169.69,115.53l13.32,0,.42-1.91-13.33,0C170,114.26,169.83,114.89,169.69,115.53Z" style="fill:#c7c7c7"></path><path d="M168.33,121l13.32,0c.18-.63.34-1.26.51-1.89l-13.33,0C168.67,119.69,168.5,120.32,168.33,121Z" style="fill:#c7c7c7"></path><path d="M166.73,126.33l13.33,0c.2-.63.39-1.25.58-1.88l-13.32,0C167.13,125.08,166.93,125.7,166.73,126.33Z" style="fill:#c7c7c7"></path><path d="M164.89,131.65l13.32,0c.23-.62.46-1.23.68-1.85l-13.33,0C165.34,130.41,165.12,131,164.89,131.65Z" style="fill:#c7c7c7"></path><rect x="285.64" y="123.78" width="18.95" height="166.38" style="fill:#37474f"></rect><rect x="285.64" y="123.78" width="4.35" height="166.38" style="fill:#263238"></rect></g><g id="freepik--Wallet--inject-31"><rect x="183.32" y="376.12" width="51.34" height="26.05" style="fill:#00ADEF"></rect><path d="M228.93,389.14a5.83,5.83,0,1,1-5.82-5.82A5.83,5.83,0,0,1,228.93,389.14Z" style="fill:#ebebeb"></path><circle cx="223.11" cy="389.14" r="3.19" style="fill:#dbdbdb"></circle><rect x="48.24" y="330.1" width="155.39" height="116.02" style="fill:#00ADEF"></rect><rect x="48.24" y="330.1" width="155.39" height="116.02" style="opacity:0.1"></rect><rect x="55.13" y="293.99" width="139.09" height="67" transform="translate(-37.17 16.68) rotate(-6.66)" style="fill:#ebebeb"></rect><path d="M189.87,286.14l-4.19.49L55.9,301.8l-4.19.49.49,4.18L59,364.64l.49,4.19,4.19-.49,129.78-15.17,4.18-.49h0l-7.77-66.54ZM193,349,63.19,364.15,56.39,306l129.78-15.16Z" style="fill:#dbdbdb"></path><ellipse cx="124.78" cy="328.3" rx="19.48" ry="22.72" transform="translate(-37.26 16.7) rotate(-6.67)" style="fill:#dbdbdb"></ellipse><path d="M92.4,330.6A5.22,5.22,0,1,1,86.61,326,5.21,5.21,0,0,1,92.4,330.6Z" style="fill:#dbdbdb"></path><path d="M167.18,321.86a5.22,5.22,0,1,1-5.79-4.57A5.23,5.23,0,0,1,167.18,321.86Z" style="fill:#dbdbdb"></path><path d="M72.45,363.07l-9.26,1.08-1.08-9.25A9.33,9.33,0,0,1,72.45,363.07Z" style="fill:#dbdbdb"></path><path d="M191.89,339.73,193,349l-9.25,1.08A9.33,9.33,0,0,1,191.89,339.73Z" style="fill:#dbdbdb"></path><path d="M176.91,291.9l9.26-1.08,1.08,9.24A9.31,9.31,0,0,1,176.91,291.9Z" style="fill:#dbdbdb"></path><path d="M57.47,315.23,56.39,306l9.25-1.09A9.31,9.31,0,0,1,57.47,315.23Z" style="fill:#dbdbdb"></path><path d="M123,311.23a1,1,0,0,1,1,.83l.18,1.56a12.76,12.76,0,0,1,7.25,1.91,1.1,1.1,0,0,1,.65.83,1,1,0,0,1-.9,1.09.94.94,0,0,1-.73-.19,11.31,11.31,0,0,0-6.14-1.85l1.28,10.9c6.06.55,8.81,2.48,9.25,6.29.48,4.13-2.64,7.45-7.48,8.18l.35,3a1,1,0,0,1-.82,1,1,1,0,0,1-1-.82l-.36-3.08a14.62,14.62,0,0,1-9.19-2.75,1,1,0,0,1-.53-.76,1,1,0,0,1,.86-1.09,1,1,0,0,1,.74.19,12.6,12.6,0,0,0,8,2.65l-1.3-11.09c-6-.6-8.65-2.46-9.1-6.35s2.61-7.32,7.35-8l-.18-1.47A1,1,0,0,1,123,311.23Zm.87,14.89-1.24-10.62c-3.77.52-6,3.06-5.67,5.87C117.28,324,118.72,325.5,123.88,326.12Zm2,2.17L127.12,339c3.89-.53,6.15-3.08,5.81-6C132.61,330.31,131.06,328.83,125.87,328.29Z" style="fill:#ebebeb"></path><path d="M190,343.39l.19,71.75a7.26,7.26,0,0,1-7.24,7.28l-113.8.3a7.26,7.26,0,0,1-7.27-7.25l-.19-71.75A6.76,6.76,0,0,1,68.42,337l114.8-.3A6.76,6.76,0,0,1,190,343.39Z" style="fill:#dbdbdb"></path><path d="M171.66,405.08a6.68,6.68,0,1,1-6.7-6.67A6.68,6.68,0,0,1,171.66,405.08Z" style="fill:#a6a6a6"></path><path d="M179.88,405.05a6.68,6.68,0,1,1-6.69-6.66A6.68,6.68,0,0,1,179.88,405.05Z" style="fill:#00ADEF"></path><rect x="72.5" y="349.23" width="24.09" height="16.65" rx="4.2" transform="translate(-0.93 0.22) rotate(-0.15)" style="fill:#00ADEF"></rect><path d="M175.2,358.12l-10.9,0a4.57,4.57,0,0,1-4.58-4.55h0a4.58,4.58,0,0,1,4.56-4.58l10.89,0a4.58,4.58,0,0,1,4.58,4.56h0A4.56,4.56,0,0,1,175.2,358.12Z" style="fill:#fff"></path><path d="M71.68,381.08l-1,.58a.23.23,0,0,1-.33-.08.22.22,0,0,1,.09-.32l1.35-.83a.25.25,0,0,1,.33.09.29.29,0,0,1,0,.18v6.42a.24.24,0,0,1-.24.24.24.24,0,0,1-.24-.24Z" style="fill:#f8f8f8"></path><path d="M73.89,386.93l3.25-3a1.82,1.82,0,0,0,.6-1.34,1.76,1.76,0,0,0-.47-1.19,1.78,1.78,0,0,0-1.33-.59,1.82,1.82,0,0,0-1.22.46l-.34.31a.24.24,0,0,1-.34,0,.23.23,0,0,1,0-.34l.34-.32a2.36,2.36,0,0,1,1.55-.6,2.24,2.24,0,0,1,1.68.75,2.21,2.21,0,0,1,.6,1.52,2.3,2.3,0,0,1-.75,1.7l-2.78,2.53H78a.23.23,0,0,1,.24.24.24.24,0,0,1-.24.24H74.06a.23.23,0,0,1-.18-.07A.25.25,0,0,1,73.89,386.93Z" style="fill:#f8f8f8"></path><path d="M84,380.78l-1.8,1.86a2.37,2.37,0,0,1,1.2,4,2.38,2.38,0,0,1-1.68.7,2.28,2.28,0,0,1-1.67-.69.25.25,0,0,1,.35-.35,1.88,1.88,0,0,0,1.32.54,1.92,1.92,0,0,0,1.32-.55,1.87,1.87,0,0,0,.55-1.33,1.88,1.88,0,0,0-1.87-1.86.26.26,0,0,1-.2-.1h0a.25.25,0,0,1,0-.36l1.73-1.79H80.56a.25.25,0,0,1-.25-.25.23.23,0,0,1,.24-.25h3.27a.25.25,0,0,1,.25.25.2.2,0,0,1,0,.11A.22.22,0,0,1,84,380.78Z" style="fill:#f8f8f8"></path><path d="M89.87,385.88H86.05a.21.21,0,0,1-.15-.05.23.23,0,0,1,0-.34l4-5h0a.23.23,0,0,1,.34,0,.38.38,0,0,1,.08.11s0,0,0,0v4.83h.47a.25.25,0,0,1,.25.24.24.24,0,0,1-.24.24h-.47v1.19a.25.25,0,0,1-.49,0Zm0-.48v-4.09l-3.3,4.1Z" style="fill:#f8f8f8"></path><path d="M98.62,386.6a.24.24,0,0,1,0-.35.25.25,0,0,1,.36,0,1.88,1.88,0,0,0,1.32.54,1.86,1.86,0,0,0,1.86-1.87A1.85,1.85,0,0,0,99,383.61a.24.24,0,0,1-.35,0,.16.16,0,0,1-.06-.08h0a0,0,0,0,1,0,0,.19.19,0,0,1,0-.08.43.43,0,0,0,0-.05l.33-2.82a.21.21,0,0,1,.1-.18.23.23,0,0,1,.16-.06h3.25a.25.25,0,0,1,.25.25.24.24,0,0,1-.25.25h-3l-.25,2.08a2.36,2.36,0,0,1,1.19-.32,2.26,2.26,0,0,1,1.67.68,2.39,2.39,0,0,1,0,3.35,2.49,2.49,0,0,1-1.68.7A2.37,2.37,0,0,1,98.62,386.6Z" style="fill:#f8f8f8"></path><path d="M105.27,381.81a2.81,2.81,0,0,1,2.44-1.52.24.24,0,0,1,.25.23.26.26,0,0,1-.24.26,2.34,2.34,0,0,0-2,1.27,4.57,4.57,0,0,0-.5,1.4,2.29,2.29,0,1,1-.58,1.6,3.46,3.46,0,0,1,0-.46A5.77,5.77,0,0,1,105.27,381.81Zm-.17,3.2a.51.51,0,0,0,0,.13.15.15,0,0,1,0,.07,1.86,1.86,0,1,0,0-.24Z" style="fill:#f8f8f8"></path><path d="M111.78,386.92l2.57-6.14H111a.24.24,0,0,1,0-.48h3.69a.26.26,0,0,1,.15,0,.27.27,0,0,1,.13.15.24.24,0,0,1,0,.08.2.2,0,0,1,0,.13l-2.69,6.44a.25.25,0,0,1-.22.15.18.18,0,0,1-.1,0A.27.27,0,0,1,111.78,386.92Z" style="fill:#f8f8f8"></path><path d="M118.67,380.25a1.45,1.45,0,0,1,.86,2.62A2.3,2.3,0,0,1,121,385a2.27,2.27,0,1,1-3.14-2.09,1.48,1.48,0,0,1-.58-1.18A1.43,1.43,0,0,1,118.67,380.25Zm0,6.51a1.79,1.79,0,1,0-1.8-1.78A1.78,1.78,0,0,0,118.69,386.76Zm0-4.07a1,1,0,0,0,1-1,1,1,0,0,0-2,0A1,1,0,0,0,118.68,382.69Z" style="fill:#f8f8f8"></path><path d="M131.09,380.22a2.3,2.3,0,0,1,2.3,2l0,.05c0,.19,0,.39,0,.6a5.79,5.79,0,0,1-.66,2.79,2.91,2.91,0,0,1-2.44,1.52h0a.24.24,0,0,1-.25-.23.25.25,0,0,1,.24-.26,2.37,2.37,0,0,0,2-1.27,4.17,4.17,0,0,0,.49-1.4,2.25,2.25,0,0,1-1.73.77,2.3,2.3,0,1,1,0-4.6Zm1.83,2.29a1.82,1.82,0,1,0-1.82,1.82A1.81,1.81,0,0,0,132.92,382.51Z" style="fill:#f8f8f8"></path><path d="M135.18,383.7a4.42,4.42,0,0,1,.67-2.44,2,2,0,0,1,3.49,0,4.58,4.58,0,0,1,.69,2.44,4.49,4.49,0,0,1-.68,2.44,2.14,2.14,0,0,1-1.74,1.06,2.18,2.18,0,0,1-1.75-1.05A4.49,4.49,0,0,1,135.18,383.7Zm.49,0a4.06,4.06,0,0,0,.6,2.17,1.48,1.48,0,0,0,2.67,0,4.18,4.18,0,0,0,0-4.33,1.65,1.65,0,0,0-1.34-.84,1.61,1.61,0,0,0-1.33.84A4,4,0,0,0,135.67,383.7Z" style="fill:#f8f8f8"></path><path d="M143.25,380.9l-1,.58a.23.23,0,0,1-.33-.08.23.23,0,0,1,.09-.33l1.35-.82a.26.26,0,0,1,.33.09.38.38,0,0,1,0,.18v6.41a.24.24,0,0,1-.48,0Z" style="fill:#f8f8f8"></path><path d="M145.46,386.74l3.25-2.95a1.82,1.82,0,0,0,.6-1.34,1.78,1.78,0,0,0-.47-1.2,1.74,1.74,0,0,0-1.33-.58,1.82,1.82,0,0,0-1.22.46l-.34.31a.24.24,0,0,1-.33-.35l.34-.32a2.35,2.35,0,0,1,1.55-.59,2.21,2.21,0,0,1,1.67.74,2.24,2.24,0,0,1,.61,1.53,2.3,2.3,0,0,1-.75,1.7l-2.79,2.53h3.31a.25.25,0,0,1,0,.49h-3.93a.23.23,0,0,1-.18-.07A.26.26,0,0,1,145.46,386.74Z" style="fill:#f8f8f8"></path><path d="M161.54,380.58l-1.8,1.86a2.35,2.35,0,0,1,1.2.64,2.38,2.38,0,0,1,0,3.35,2.38,2.38,0,0,1-1.68.7,2.26,2.26,0,0,1-1.66-.69.23.23,0,0,1,0-.35.24.24,0,0,1,.35,0,1.83,1.83,0,0,0,1.32.53,1.9,1.9,0,0,0,1.33-.54,1.88,1.88,0,0,0-1.33-3.19.26.26,0,0,1-.2-.1h0a.25.25,0,0,1,0-.36l1.73-1.79h-2.67a.25.25,0,0,1,0-.5h3.26a.25.25,0,0,1,.25.25.2.2,0,0,1,0,.11A.22.22,0,0,1,161.54,380.58Z" style="fill:#f8f8f8"></path><path d="M167.42,385.68h-3.81a.17.17,0,0,1-.15,0,.23.23,0,0,1,0-.34l4-5.05h0a.24.24,0,0,1,.34,0,.32.32,0,0,1,.08.12s0,0,0,0v4.82h.47a.24.24,0,1,1,0,.48h-.47v1.2a.25.25,0,0,1-.49,0Zm0-.48v-4.1l-3.29,4.1Z" style="fill:#f8f8f8"></path><path d="M170.19,386.42a.24.24,0,0,1,0-.35.25.25,0,0,1,.36,0,1.91,1.91,0,0,0,1.32.53,1.85,1.85,0,0,0,1.32-.55,1.86,1.86,0,0,0-1.32-3.18,1.85,1.85,0,0,0-1.33.55.23.23,0,0,1-.34,0,.18.18,0,0,1-.07-.08h0a0,0,0,0,1,0,0,.19.19,0,0,1,0-.08.43.43,0,0,0,0-.05l.34-2.81a.21.21,0,0,1,.1-.18.23.23,0,0,1,.16-.06H174a.25.25,0,0,1,.25.25.24.24,0,0,1-.25.25h-3l-.25,2.07a2.38,2.38,0,0,1,2.86.36,2.31,2.31,0,0,1,.69,1.68,2.38,2.38,0,0,1-.68,1.68,2.43,2.43,0,0,1-1.68.69A2.4,2.4,0,0,1,170.19,386.42Z" style="fill:#f8f8f8"></path><path d="M176.83,381.63a2.87,2.87,0,0,1,2.45-1.53.24.24,0,0,1,.25.23.26.26,0,0,1-.24.26,2.4,2.4,0,0,0-2,1.28,4.84,4.84,0,0,0-.49,1.4,2.29,2.29,0,1,1-.58,1.59,3.39,3.39,0,0,1,0-.45A5.88,5.88,0,0,1,176.83,381.63Zm-.16,3.19a.51.51,0,0,0,0,.13.15.15,0,0,1,0,.07,1.86,1.86,0,1,0,0-.24Z" style="fill:#f8f8f8"></path><rect x="72.61" y="399.26" width="60.93" height="2.99" transform="translate(-1.04 0.27) rotate(-0.15)" style="fill:#a6a6a6"></rect><rect x="72.63" y="405.94" width="43.14" height="2.99" transform="translate(-1.06 0.25) rotate(-0.15)" style="fill:#a6a6a6"></rect><rect x="125.13" y="349.08" width="30.39" height="2.99" transform="translate(-0.91 0.37) rotate(-0.15)" style="fill:#a6a6a6"></rect><rect x="58.11" y="357.11" width="135.65" height="66.48" style="fill:#00ADEF"></rect><rect x="58.11" y="357.11" width="135.65" height="66.48" style="opacity:0.2"></rect><rect x="58.11" y="368.92" width="135.65" height="66.48" style="fill:#00ADEF"></rect><rect x="58.11" y="368.92" width="135.65" height="66.48" style="opacity:0.30000000000000004"></rect><rect x="58.11" y="381.1" width="135.65" height="54.3" style="fill:#00ADEF"></rect><rect x="58.11" y="381.1" width="135.65" height="54.3" style="opacity:0.2"></rect><path d="M192,450.72l-143.78-4.6v-116l4.53,3.36a15.2,15.2,0,0,0,7.45,2.91l131.8,0Z" style="fill:#00ADEF"></path><rect x="48.53" y="334.96" width="1" height="2" transform="translate(-245.78 167.55) rotate(-51.96)" style="fill:#fff"></rect><path d="M60,342.13a15.23,15.23,0,0,1-1.64-.26l.21-1a14.94,14.94,0,0,0,1.49.25H62.4v1Zm5.43,0v-1h4v1Zm7,0v-1h4v1Zm7,0v-1h4v1Zm7,0v-1h4v1Zm7,0v-1h4v1Zm7,0v-1h4v1Zm7,0v-1h4v1Zm7,0v-1h4v1Zm7,0v-1h4v1Zm7,0v-1h4v1Zm7,0v-1h4v1Zm7,0v-1h4v1Zm7,0v-1h4v1Zm7,0v-1h4v1Zm7,0v-1h4v1Zm7,0v-1h4v1Zm7,0v-1h4v1ZM55.38,340.92a15.75,15.75,0,0,1-3.42-2l-.1-.08.62-.79.1.08a14.81,14.81,0,0,0,3.2,1.91Z" style="fill:#fff"></path><polygon points="186.64 343.57 185.64 343.57 185.64 342.07 184.14 342.07 184.14 341.07 186.64 341.07 186.64 343.57" style="fill:#fff"></polygon><path d="M186.64,440.51h-1v-4h1Zm0-6.93h-1v-3.95h1Zm0-6.92h-1v-4h1Zm0-6.92h-1v-4h1Zm0-6.93h-1v-3.95h1Zm0-6.92h-1v-4h1Zm0-6.93h-1V395h1Zm0-6.92h-1v-4h1Zm0-6.92h-1v-4h1Zm0-6.93h-1v-4h1Zm0-6.92h-1v-4h1Zm0-6.93h-1v-3.95h1Zm0-6.92h-1v-4h1Zm0-6.92h-1v-4h1Z" style="fill:#fff"></path><polygon points="186.64 445.99 184.12 445.91 184.16 444.91 185.64 444.96 185.64 443.48 186.64 443.48 186.64 445.99" style="fill:#fff"></polygon><path d="M181.17,445.81l-3.94-.13,0-1,3.94.13Zm-6.89-.23-3.94-.13,0-1,3.94.13Zm-6.9-.23-3.93-.13,0-1,3.94.13Zm-6.89-.23-3.94-.13,0-1,3.94.13Zm-6.89-.23-3.94-.13,0-1,3.93.13Zm-6.89-.23-3.94-.13,0-1,3.94.13Zm-6.89-.23-3.94-.13,0-1,3.94.13Zm-6.9-.23-3.93-.13,0-1,3.94.13ZM126,444l-3.94-.13,0-1,3.94.13Zm-6.89-.23-3.94-.13,0-1,3.93.13Zm-6.89-.23-3.94-.13,0-1,3.94.13Zm-6.89-.23-3.94-.13,0-1,3.94.13Zm-6.9-.23-3.93-.13,0-1,3.94.13Zm-6.89-.23-3.94-.13,0-1,3.94.13Zm-6.89-.23-3.94-.13,0-1,3.93.13Zm-6.89-.23-3.94-.13,0-1,3.94.13Zm-6.89-.23L67,442l0-1,3.94.13ZM64,441.9l-3.93-.13,0-1,3.94.13Zm-6.89-.23-3.94-.13,0-1,3.94.13Z" style="fill:#fff"></path><rect x="48.74" y="439.91" width="1" height="2" transform="translate(-393.07 475.48) rotate(-88.1)" style="fill:#fff"></rect><path d="M179.43,392c0,3.54-2.52,6.42-5.63,6.42s-5.64-2.88-5.64-6.42,2.52-6.42,5.64-6.42S179.43,388.48,179.43,392Z" style="fill:#ebebeb"></path><path d="M176.42,392a2.64,2.64,0,1,1-2.62-3A2.82,2.82,0,0,1,176.42,392Z" style="fill:#dbdbdb"></path></g><g id="freepik--Character--inject-31"><path d="M319.44,451.8c2.15.71,63.47.54,65.8-.95.88-.55,1.38-9.49,1.67-20.3.07-2.33.11-4.74.15-7.19.05-2.9.09-5.84.11-8.69.07-12.81-.11-24.08-.11-24.08H347.14l0,24.08v8.69l.21,7.19S323.93,441.13,321.55,443,317.3,451.1,319.44,451.8Z" style="fill:#c95f50"></path><path d="M319.44,451.8c2.15.71,63.47.54,65.8-.95.88-.55,1.38-9.49,1.67-20.3.07-2.33.11-4.74.15-7.19.05-2.9.09-5.84.11-8.69h-40v8.69l.21,7.19S323.93,441.13,321.55,443,317.3,451.1,319.44,451.8Z" style="fill:#fff"></path><path d="M319.25,451.89c1.4.46,27.52.56,46.54.16,4.4-.09,8.42-.21,11.67-.35,4.47-.21,7.48-.45,8-.76,1.08-.7,1.6-13.81,1.84-27.65H347.15l.2,7.23s-23.57,10.63-26,12.55S317.11,451.17,319.25,451.89Z" style="fill:#00ADEF"></path><path d="M320.13,449.43c10.34-.29,52.05-.46,62.29.05.08,0,.08.06,0,.06-10.24.51-51.95.34-62.29,0C319.91,449.59,319.91,449.43,320.13,449.43Z" style="fill:#263238"></path><path d="M345.88,428.23c4.07-.77,9.05-.16,12.16,2.73.12.11,0,.28-.17.24a57.44,57.44,0,0,0-12-2.45A.26.26,0,0,1,345.88,428.23Z" style="fill:#263238"></path><path d="M343,430c4.07-.77,9.05-.16,12.16,2.73.12.11,0,.28-.17.24a57.46,57.46,0,0,0-12-2.46A.26.26,0,0,1,343,430Z" style="fill:#263238"></path><path d="M340,431.79c4.07-.77,9.05-.16,12.16,2.73.12.11,0,.28-.17.24a56.82,56.82,0,0,0-12-2.46A.26.26,0,0,1,340,431.79Z" style="fill:#263238"></path><path d="M337.09,433.57c4.07-.78,9-.17,12.16,2.72.12.12,0,.29-.17.24a57.44,57.44,0,0,0-12-2.45A.26.26,0,0,1,337.09,433.57Z" style="fill:#263238"></path><path d="M340.19,424.64c2.88,2.22,6.63,3.13,10,4.36.35.13.62-.2.63-.51a.11.11,0,0,0,.1-.15,21.68,21.68,0,0,0-6.29-9.29c-1.7-1.43-4.68-2.41-6.27-.2S338.5,423.33,340.19,424.64Zm-1.05-3.27c-.73-4.47,4.07-2.14,5.28-1a23.64,23.64,0,0,1,2.16,2.32,64,64,0,0,1,3.8,5.35c-1.62-.7-3.28-1.27-4.92-1.91C343.51,425.32,339.54,423.82,339.14,421.37Z" style="fill:#263238"></path><path d="M364.47,422.11c-1-2.54-4.12-2.33-6.12-1.38a21.67,21.67,0,0,0-8.42,7.44.11.11,0,0,0,.06.16.51.51,0,0,0,.49.66c3.56-.36,7.42-.3,10.76-1.74C363.2,426.41,365.41,424.5,364.47,422.11Zm-8.7,5.23c-1.75.22-3.5.35-5.24.63,1.65-1.44,3.22-3,5-4.23a24.29,24.29,0,0,1,2.68-1.71c1.45-.76,6.67-1.82,4.85,2.32C362.07,426.63,357.86,427.08,355.77,427.34Z" style="fill:#263238"></path><path d="M367.4,452c3.77-.1,7.21-.2,10.05-.32,4.48-.2,7.48-.45,8-.77.82-.52,1.32-8.19,1.62-17.9Z" style="opacity:0.1"></path><path d="M402.08,217.35s-12.49,109.83-12.75,111.18c0,.18-.91,97.8-.91,97.8h-44s1.55-84.41,3.2-100.24c2.11-20.19,17.06-108.74,17.06-108.74Z" style="fill:#37474f"></path><path d="M384.09,332.29q2-34.68,6.12-69.2c1.54-13,3.4-25.88,5.25-38.81,0-.11.2-.1.18,0-3.41,23-5.82,46.18-7.9,69.34s-3.58,46.31-4,69.53c-.25,13.08.06,39.79-.36,52.94a.25.25,0,0,1-.49,0C382.29,392.49,382.71,355.7,384.09,332.29Z" style="fill:#263238"></path><path d="M402.08,217.35s-12.49,109.83-12.75,111.18c0,.06-.23,7.8-.52,18.49L369.19,217.35Z" style="fill:#263238"></path><path d="M346.93,418.05c6.55.33,33.32.64,39.08.3.4,0,.47-.31.05-.32-19.49-.75-32.7-.27-39.12-.25A.14.14,0,0,0,346.93,418.05Z" style="fill:#263238"></path><path d="M379.19,456.17c2.19.55,63.34-4,65.56-5.64.85-.62.7-9.57.22-20.37-.09-2.33-.11-4.75-.36-7.18-.3-3.06-.64-6.12-1-9.07-1.55-12.79-3.36-23.48-3.36-23.48l-38.69,2.76,2.33,23.14.95,9.48.71,7.16s-22.63,12.22-24.87,14.29S377,455.61,379.19,456.17Z" style="fill:#c95f50"></path><path d="M379.19,456.17c2.19.55,63.34-4,65.56-5.64.85-.62.7-9.57.22-20.37-.09-2.33-.11-4.75-.36-7.18-.3-3.06-.64-6.12-1-9.07-11.92.8-29.06,1.81-39.72,2.42l.95,9.48.71,7.16s-22.63,12.22-24.87,14.29S377,455.61,379.19,456.17Z" style="fill:#fff"></path><path d="M379,456.26c2.2.56,63.69-4,65.93-5.66,1-.77.61-13.88-.14-27.71l-40,2.86.72,7.2s-22.76,12.28-25,14.36S376.81,455.71,379,456.26Z" style="fill:#00ADEF"></path><path d="M379.71,453.74c10.29-1,51.88-4.16,62.13-4.38.08,0,.09.05,0,.06-10.18,1.23-51.8,4-62.13,4.49C379.5,453.92,379.49,453.76,379.71,453.74Z" style="fill:#263238"></path><path d="M403.89,430.77c4-1.06,9-.81,12.32,1.85.13.1,0,.29-.16.25a57.35,57.35,0,0,0-12.11-1.59A.26.26,0,0,1,403.89,430.77Z" style="fill:#263238"></path><path d="M401.09,432.75c4-1.06,9-.81,12.32,1.85.13.11,0,.29-.15.26a56.89,56.89,0,0,0-12.12-1.6A.26.26,0,0,1,401.09,432.75Z" style="fill:#263238"></path><path d="M398.29,434.73c4-1.06,9-.8,12.33,1.86.12.1,0,.28-.16.25a56.71,56.71,0,0,0-12.11-1.6A.26.26,0,0,1,398.29,434.73Z" style="fill:#263238"></path><path d="M395.5,436.71c4-1.06,9-.8,12.32,1.86.13.1,0,.28-.16.25a57.36,57.36,0,0,0-12.11-1.6A.26.26,0,0,1,395.5,436.71Z" style="fill:#263238"></path><path d="M398,427.58c3,2,6.83,2.66,10.27,3.65.36.1.61-.25.6-.56a.11.11,0,0,0,.09-.15,21.75,21.75,0,0,0-6.94-8.83c-1.8-1.29-4.84-2.06-6.27.25S396.17,426.41,398,427.58Zm-1.28-3.18c-1-4.4,3.91-2.42,5.19-1.41a23.84,23.84,0,0,1,2.33,2.16,65.14,65.14,0,0,1,4.16,5.07c-1.66-.59-3.36-1-5-1.56C401.31,428,397.25,426.82,396.67,424.4Z" style="fill:#263238"></path><path d="M422,423.33c-1.17-2.45-4.28-2-6.21-.93a21.72,21.72,0,0,0-7.86,8,.1.1,0,0,0,.07.16.51.51,0,0,0,.53.62c3.53-.61,7.38-.82,10.62-2.5C421,427.72,423.1,425.66,422,423.33Zm-8.31,5.84c-1.72.34-3.46.6-5.17,1,1.53-1.55,3-3.17,4.69-4.58a23.68,23.68,0,0,1,2.55-1.89c1.39-.86,6.53-2.29,5,2C419.92,428,415.75,428.77,413.68,429.17Z" style="fill:#263238"></path><path d="M366.51,217.35s-1.19,14.54,4.66,22.48c1.74,2.37,7.33,4.35,9.8,6.15,0,0,4.15,75.52,6.2,85.75,1.05,5.28,16.37,97.64,16.37,97.64l45.21-3.29S428,334.67,427,328.93s-5.53-75.25-5.22-76.89c4.34-23.44-4.77-34.69-4.77-34.69Z" style="fill:#37474f"></path><path d="M398.59,221.66A14.7,14.7,0,0,0,404,229.4a18.17,18.17,0,0,0,9.78,3.35c.59.05.64.94,0,.95-7.18,0-14.43-4.55-15.48-12C398.27,221.54,398.55,221.5,398.59,221.66Z" style="fill:#263238"></path><path d="M369.72,238.84a40,40,0,0,1,7.42,3.94c2.46,1.52,4.74,3.31,7.11,4.95.1.07,0,.22-.08.16-2.5-1.44-5.09-2.68-7.56-4.17a47.17,47.17,0,0,1-7-4.68C369.53,239,369.61,238.8,369.72,238.84Z" style="fill:#263238"></path><path d="M368.71,223.88c.38,1.64.86,3.27,1.29,4.9s.73,3.09,1.21,4.6a8,8,0,0,0,2.34,3.81c.64.53,1.33,1,2,1.49.36.26.75.51,1.12.77q-.07-.31-.15-.66c-.14-.62-.28-1.24-.41-1.87-.3-1.38-.59-2.77-.86-4.16-.55-2.74-1.06-5.5-1.76-8.2a.09.09,0,0,1,.17-.05c.81,2.67,1.68,5.31,2.41,8,.35,1.32,1.69,7.87,1.76,8.33s.13,1,.17,1.45a5.64,5.64,0,0,1,.07,1.48c0,.12-.17.1-.22,0h0a5.73,5.73,0,0,1-.48-1.41c-.14-.47-.27-.94-.38-1.41,0-.18-.07-.35-.1-.53-.67-.36-1.3-.86-1.92-1.27s-1.37-.87-2-1.37a7.43,7.43,0,0,1-2.54-3.59,27.65,27.65,0,0,1-1-4.7c-.29-1.86-.53-3.74-.88-5.59C368.52,223.82,368.68,223.77,368.71,223.88Z" style="fill:#263238"></path><path d="M415.21,220A40.78,40.78,0,0,1,420,235c.55,5.75-.92,11.35-1.2,17.06-.29,5.89.11,11.8.38,17.68q.41,9.09.79,18.18t.78,18c.26,6,.39,12,.87,18a123.38,123.38,0,0,0,3.18,17.35q2,8.88,4.06,17.77c2.69,11.79,8.63,39.9,11,51.75.29,1.46.6,2.92.89,4.38a.08.08,0,0,1-.15,0c-3-11.65-8.95-39.68-11.66-51.41q-2-8.79-4.06-17.58c-1.32-5.7-2.85-11.41-3.71-17.2a168.35,168.35,0,0,1-1.2-17.39q-.39-9-.78-18t-.79-18.18c-.26-5.94-.61-11.88-.66-17.82a78.63,78.63,0,0,1,.34-8.68c.29-2.88.86-5.73,1.07-8.62a37.91,37.91,0,0,0-2.64-16.17c-.51-1.34-1.08-2.64-1.71-3.93C414.64,219.94,415.06,219.7,415.21,220Z" style="fill:#263238"></path><path d="M404.94,420.13c6.55-.22,33.25-2.11,39-2.93.4-.05.44-.35,0-.33-19.48.87-32.61,2.44-39,3A.14.14,0,0,0,404.94,420.13Z" style="fill:#263238"></path><path d="M378.38,163.82c-13.2,15.78-35.58,31.79-42.8,31.56-7.7-.25-27.06-20-36-37.65-1.47-2.93,23.16-9.78,27.77-5.9,2.5,2.11,11.72,17.68,13.84,18,1.13.17,19.65-9.49,32.09-14.57C384.44,150.72,382.68,158.67,378.38,163.82Z" style="fill:#c95f50"></path><path d="M299.61,157.73c-1.87-2.77-9.36-16.21-10.61-20.41s-4-16.57-.83-17.85,4.2,2.27,4.2,2.27-.31-5.4,2.95-6.4,4.76,4.58,4.76,4.58.08-5.57,3.41-6.34,3.89,5.1,3.89,5.1-.17-5.1,2.84-4.58c3.62.63,2.86,10.06,4.59,14.6.39,1,9.43,20.33,9.43,20.33Z" style="fill:#c95f50"></path><path d="M307.32,118.18c-.54,6.94.43,10.06,3.63,16.12.06.12-.1.24-.18.12-3.67-5.65-5.45-9.39-3.78-16.29C307.07,117.8,307.35,117.85,307.32,118.18Z" style="fill:#263238"></path><path d="M300.13,119.37c.07,7.25,1.09,10.65,4,17.24,0,.1-.11.18-.16.09-3.37-6.23-5.05-10-4.17-17.27C299.81,119.1,300.13,119,300.13,119.37Z" style="fill:#263238"></path><path d="M292.53,122.07c.58,7,1.53,10.8,5.15,16.84a.13.13,0,0,1-.22.14c-4.29-5.8-5.51-10.5-5.14-16.94C292.34,121.67,292.49,121.63,292.53,122.07Z" style="fill:#263238"></path><path d="M327.38,151.83s.81-8.68.32-12.57S320.07,121.53,317,122.9c-4,1.78-1.42,10.58.4,14.72,0,0-9.2,4.1-8.73,10.81S327.38,151.83,327.38,151.83Z" style="fill:#c95f50"></path><path d="M316.06,123.75c-2.45,4.23.28,9.52,1.74,13.67a.41.41,0,0,1-.37.56c-3.74,2-8.43,5.84-9,10.27a.1.1,0,1,1-.2,0c-.06-4.83,4.24-9,8.48-10.91-1.57-4.23-4.07-9.66-.71-13.61C316,123.7,316.08,123.72,316.06,123.75Z" style="fill:#263238"></path><path d="M328.2,151.61l-25.67,15.61s22.33,29.14,34.49,28.86,37.92-25.83,43-34,.45-10.14-7.84-6.83S342,168.36,341.5,168.29,328.2,151.61,328.2,151.61Z" style="fill:#00ADEF"></path><path d="M308.37,171.81c3.91-2.12,19.65-11.36,22.92-13.58.22-.16.19-.34-.07-.21-11.89,6.06-19.19,11.36-22.93,13.63C308.2,171.71,308.27,171.86,308.37,171.81Z" style="fill:#263238"></path><path d="M380,162.05c-3.92,6.35-20.24,23.1-33.06,30.47l29.88-38.67C382,153,384,155.56,380,162.05Z" style="opacity:0.1"></path><path d="M363.73,226.68c1.56,1.23,57.42,0,57.67-.47.69-1.19-11.19-55.52-37.45-72.58-4.63-3-11.61-.81-14.62,1.6-1.5,1.2-5.12,9.81-5.64,17.2S362.75,225.9,363.73,226.68Z" style="fill:#ebebeb"></path><path d="M382.21,152.38s-3,35-3.11,36.42S383,231.75,383,231.75l41.56-2.53s-6-39.82-27.32-63.76C386.51,153.43,382.21,152.38,382.21,152.38Z" style="fill:#00ADEF"></path><path d="M368.46,155.82s-1.38,30.92-1.31,32.85.19,41.7.19,41.7L361.22,229s1.24-26.92,1.39-29,.4-24.82.94-29.11C364.39,164,368.46,155.82,368.46,155.82Z" style="fill:#00ADEF"></path><path d="M353.5,247.74a6.76,6.76,0,0,1-6.73,6.78l-61.13.22V126.43l60.65-.22a6.75,6.75,0,0,1,6.78,6.73Z" style="fill:#00ADEF"></path><path d="M353.5,247.74a6.76,6.76,0,0,1-6.73,6.78l-61.13.22V126.43l60.65-.22a6.75,6.75,0,0,1,6.78,6.73Z" style="opacity:0.2"></path><rect x="320.45" y="140.76" width="24.09" height="16.65" rx="4.2" transform="translate(480.34 -183.96) rotate(89.79)" style="fill:#00ADEF"></rect><path d="M332,239.74l0-10.9a4.57,4.57,0,0,1,4.55-4.58h0a4.56,4.56,0,0,1,4.58,4.55l0,10.89a4.56,4.56,0,0,1-4.55,4.58h0A4.56,4.56,0,0,1,332,239.74Z" style="fill:#fff"></path><path d="M309.59,136.36l-.82-1.34a.23.23,0,0,0-.33-.09.23.23,0,0,0-.08.33l.58,1-6,0a.24.24,0,0,0-.23.24.24.24,0,0,0,.24.24l6.41,0a.28.28,0,0,0,.18,0A.25.25,0,0,0,309.59,136.36Z" style="fill:#f8f8f8"></path><path d="M309.07,139l-.32-.34a.24.24,0,1,0-.35.33l.32.34a1.82,1.82,0,0,1-.12,2.54,1.84,1.84,0,0,1-1.2.48,1.82,1.82,0,0,1-1.34-.6l-3-3.25a.26.26,0,0,0-.36,0,.23.23,0,0,0-.07.18v0l0,3.89a.25.25,0,0,0,.49,0v-3.3L305.7,142a2.26,2.26,0,0,0,3.23.14,2.25,2.25,0,0,0,.74-1.68A2.31,2.31,0,0,0,309.07,139Z" style="fill:#f8f8f8"></path><path d="M309.69,145.12a.25.25,0,0,0-.25-.25.25.25,0,0,0-.25.25v2.68l-1.8-1.73a.25.25,0,0,0-.36,0h0a.26.26,0,0,0-.1.2,1.78,1.78,0,0,1-.54,1.32,1.82,1.82,0,0,1-1.31.55,1.9,1.9,0,0,1-1.33-.54,1.88,1.88,0,0,1,0-2.65.24.24,0,0,0,0-.35.23.23,0,0,0-.34,0,2.33,2.33,0,0,0-.7,1.67,2.39,2.39,0,0,0,2.39,2.37,2.35,2.35,0,0,0,1.67-.69,2.42,2.42,0,0,0,.64-1.21l1.86,1.8.08,0a.2.2,0,0,0,.11,0,.25.25,0,0,0,.25-.25Z" style="fill:#f8f8f8"></path><path d="M309.6,154.48h0l-5-4a.22.22,0,0,0-.33,0,.2.2,0,0,0,0,.14v3.82H303a.25.25,0,0,0,0,.49h1.2v.47a.25.25,0,0,0,.24.25.26.26,0,0,0,.24-.26v-.46l4.79,0h.07a.32.32,0,0,0,.12-.08A.23.23,0,0,0,309.6,154.48Zm-5,0v-3.31l4.1,3.29Z" style="fill:#f8f8f8"></path><path d="M309.75,163.71a.23.23,0,0,0-.06-.16.21.21,0,0,0-.18-.1l-2.81-.33h-.17a.18.18,0,0,0-.08.07.23.23,0,0,0,0,.34,1.85,1.85,0,0,1,.55,1.33,1.81,1.81,0,0,1-.53,1.32,1.9,1.9,0,0,1-2.65,0,1.85,1.85,0,0,1-.55-1.32,1.91,1.91,0,0,1,.53-1.32.25.25,0,0,0,0-.36.25.25,0,0,0-.35,0,2.4,2.4,0,0,0-.68,1.68,2.44,2.44,0,0,0,.7,1.67,2.33,2.33,0,0,0,1.68.68,2.31,2.31,0,0,0,1.67-.69,2.26,2.26,0,0,0,.68-1.67,2.36,2.36,0,0,0-.32-1.19l2.08.24V167a.24.24,0,0,0,.25.25.25.25,0,0,0,.25-.25Z" style="fill:#f8f8f8"></path><path d="M308.25,169.83a5.88,5.88,0,0,0-2.78-.67,2.32,2.32,0,0,0-.46,0,2.31,2.31,0,0,0,.1,4.62,2.32,2.32,0,0,0,2.3-2.33,2.29,2.29,0,0,0-.8-1.72,4.56,4.56,0,0,1,1.4.49,2.4,2.4,0,0,1,1.28,2,.26.26,0,0,0,.26.24.24.24,0,0,0,.23-.25A2.85,2.85,0,0,0,308.25,169.83Zm-1.33,1.65a1.82,1.82,0,1,1-2.06-1.8h.07l.13,0h0A1.84,1.84,0,0,1,306.92,171.48Z" style="fill:#f8f8f8"></path><path d="M309.76,175.54a.24.24,0,0,0-.48,0v3.38l-6.14-2.56a.27.27,0,0,0-.32.14.34.34,0,0,0,0,.1.24.24,0,0,0,.15.21l6.43,2.69a.2.2,0,0,0,.13,0l.08,0a.34.34,0,0,0,.15-.14.26.26,0,0,0,0-.15Z" style="fill:#f8f8f8"></path><path d="M308.37,181.79a1.46,1.46,0,0,0-1.17.58,2.27,2.27,0,1,0-2.09,3.15,2.3,2.3,0,0,0,2.1-1.42,1.45,1.45,0,1,0,1.16-2.31ZM305.11,185a1.77,1.77,0,0,1-1.79-1.78,1.79,1.79,0,1,1,1.79,1.78Zm3.27-.82a1,1,0,1,1,0-1.95,1,1,0,0,1,1,1A1,1,0,0,1,308.38,184.22Z" style="fill:#f8f8f8"></path><path d="M307.57,193.35a2.31,2.31,0,0,0-2.3,2.32,2.26,2.26,0,0,0,.78,1.73,4.4,4.4,0,0,1-1.4-.49,2.38,2.38,0,0,1-1.28-2,.25.25,0,0,0-.26-.24.24.24,0,0,0-.23.25h0a2.91,2.91,0,0,0,1.53,2.44,6.19,6.19,0,0,0,3.39.63l.05,0a2.31,2.31,0,0,0-.28-4.6Zm0,4.14a1.83,1.83,0,1,1,1.8-1.84A1.81,1.81,0,0,1,307.58,197.49Z" style="fill:#f8f8f8"></path><path d="M308.84,200.41a4.54,4.54,0,0,0-2.45-.66,4.48,4.48,0,0,0-2.43.68,2,2,0,0,0,0,3.49,4.4,4.4,0,0,0,2.44.67,4.55,4.55,0,0,0,2.45-.68,2,2,0,0,0,0-3.5Zm-.27,3.09a4.24,4.24,0,0,1-4.33,0,1.67,1.67,0,0,1-.84-1.33,1.69,1.69,0,0,1,.83-1.34,4.29,4.29,0,0,1,4.34,0,1.49,1.49,0,0,1,0,2.68Z" style="fill:#f8f8f8"></path><path d="M309.86,207.93l-.82-1.34a.23.23,0,0,0-.33-.09.23.23,0,0,0-.08.33l.58,1-6,0a.26.26,0,0,0-.24.25.23.23,0,0,0,.24.23l6.42,0a.29.29,0,0,0,.18,0A.25.25,0,0,0,309.86,207.93Z" style="fill:#f8f8f8"></path><path d="M309.34,210.53l-.32-.34a.24.24,0,1,0-.35.33l.31.34a1.78,1.78,0,0,1,.46,1.21,1.74,1.74,0,0,1-.58,1.33,1.84,1.84,0,0,1-1.2.48,1.81,1.81,0,0,1-1.33-.6l-3-3.25a.26.26,0,0,0-.36,0,.23.23,0,0,0-.07.18v3.93a.26.26,0,0,0,.24.24.25.25,0,0,0,.25-.24v-3.3l2.54,2.78a2.25,2.25,0,0,0,1.7.74,2.21,2.21,0,0,0,1.52-.6,2.18,2.18,0,0,0,.74-1.68A2.3,2.3,0,0,0,309.34,210.53Z" style="fill:#f8f8f8"></path><path d="M310,222.67a.25.25,0,1,0-.5,0v2.68l-1.79-1.73a.25.25,0,0,0-.36,0h0a.26.26,0,0,0-.1.2,1.87,1.87,0,0,1-3.19,1.33,1.9,1.9,0,0,1-.54-1.33,2,2,0,0,1,.53-1.32.23.23,0,0,0,0-.34.24.24,0,0,0-.35,0,2.36,2.36,0,0,0-.69,1.67,2.33,2.33,0,0,0,.71,1.67,2.29,2.29,0,0,0,1.68.69,2.36,2.36,0,0,0,1.67-.69,2.26,2.26,0,0,0,.63-1.2l1.87,1.8.08,0a.2.2,0,0,0,.11,0,.25.25,0,0,0,.25-.25Z" style="fill:#f8f8f8"></path><path d="M309.89,232h0l-5.05-4a.23.23,0,0,0-.34,0,.21.21,0,0,0-.05.15v0l0,3.78h-1.2a.24.24,0,0,0-.24.24.23.23,0,0,0,.24.24h1.2V233a.24.24,0,1,0,.48,0v-.47l4.79,0h.07a.32.32,0,0,0,.12-.08A.23.23,0,0,0,309.89,232Zm-4.95,0v-3.3L309,232Z" style="fill:#f8f8f8"></path><path d="M310,235.28a.23.23,0,0,0-.06-.16.21.21,0,0,0-.18-.1l-2.82-.33h-.17a.16.16,0,0,0-.08.06.24.24,0,0,0,0,.35,1.85,1.85,0,0,1,.55,1.33,1.89,1.89,0,0,1-.53,1.32,1.87,1.87,0,0,1-1.33.54,1.87,1.87,0,0,1-1.34-3.18.25.25,0,0,0,0-.36.24.24,0,0,0-.35,0,2.35,2.35,0,0,0-.68,1.68,2.43,2.43,0,0,0,.69,1.68,2.4,2.4,0,0,0,3.36,0,2.37,2.37,0,0,0,.68-1.67,2.27,2.27,0,0,0-.33-1.19l2.08.24v3a.23.23,0,0,0,.25.24.25.25,0,0,0,.25-.25Z" style="fill:#f8f8f8"></path><path d="M308.52,241.4a5.76,5.76,0,0,0-2.78-.67,3.46,3.46,0,0,0-.46,0,2.31,2.31,0,1,0,2.39,2.3,2.26,2.26,0,0,0-.79-1.72,4.31,4.31,0,0,1,1.4.49,2.36,2.36,0,0,1,1.27,2,.26.26,0,0,0,.26.24.24.24,0,0,0,.23-.25A2.82,2.82,0,0,0,308.52,241.4Zm-1.34,1.65a1.82,1.82,0,1,1-2.06-1.8h.07l.13,0h0A1.82,1.82,0,0,1,307.18,243.05Z" style="fill:#f8f8f8"></path><rect x="258.83" y="166.17" width="60.93" height="2.99" transform="translate(455.89 -122.25) rotate(89.79)" style="fill:#37474f"></rect><rect x="324.33" y="203.36" width="30.39" height="2.99" transform="translate(543.12 -135.42) rotate(89.79)" style="fill:#37474f"></rect><path d="M396.26,166.51c16,22.21,32.68,58.52,23.06,64.77-8.79,5.72-35.45-3.34-53.09-12.65-3.35-1.77,3.82-29.2,7.71-28.06,7.17,2.08,20,8.13,20.49,8.31,1,.39-3.93-15.48-8.38-30.82C381.08,150.94,387.14,153.81,396.26,166.51Z" style="fill:#c95f50"></path><path d="M379.06,192.32s-10.84-3.69-18-5.71c-4-1.13-11-2.45-14.33-1.93-5,.77-25.2,7.16-23.76,12.1,1.31,4.47,18-3.22,18-3.22s-17.53,6.27-15,11.37,20.26-6.11,20.26-6.11-17.86,6.86-14.39,11.69c2.63,3.66,19.23-5.59,19.23-5.59s-15.31,6-12.77,9.88c2.8,4.28,18.66-3.29,18.66-3.29,8.12,8.76,15.56,9.61,20.93,9.59C379.23,221.1,379.06,192.32,379.06,192.32Z" style="fill:#c95f50"></path><path d="M346.9,191c-2.09.67-4.21,1.33-6.23,2.17s-4,1.76-5.94,2.8a36.83,36.83,0,0,0-7.13,4.72c4.12-3,11.31-6.13,13.33-7s4-1.79,6-2.64C347,191.05,347,191,346.9,191Z" style="fill:#263238"></path><path d="M350.08,198.23c-2.62,1-5.27,1.82-7.85,2.9s-6.13,2.7-8.62,4c-.19.09-.13.41.06.32,2.54-1.15,6.24-2.64,8.8-3.75s5.06-2.34,7.64-3.36C350.15,198.28,350.12,198.22,350.08,198.23Z" style="fill:#263238"></path><path d="M353.94,204a62.79,62.79,0,0,0-11.67,5.35c-.19.11,0,.18.16.09,3.85-1.85,6.85-3.33,11.55-5.3C354.05,204.06,354,203.93,353.94,204Z" style="fill:#263238"></path><path d="M388.29,156.61c12.3,9.44,41.19,60.55,33.64,73s-48.41-6.28-48.41-6.28L380,190.57s11.43,5,11.86,4.43-4.4-17.45-6.36-24.33S381.75,151.59,388.29,156.61Z" style="fill:#00ADEF"></path><path d="M381,223.6c1.11-4.67,4.93-23.91,5.48-28.13,0-.29-.14-.39-.22-.09-3.65,13.9-4.59,23.54-5.44,28.17C380.75,223.66,380.93,223.71,381,223.6Z" style="fill:#263238"></path><path d="M379.77,190.11a26.19,26.19,0,0,1,3.71,1.36c1.09.44,2.19.88,3.27,1.33,2.36,1,4.69,2,7,3.1s4.63,2.15,6.93,3.27,4.52,2.37,6.81,3.49c.11.05,0,.21-.09.16-2.32-1.09-4.72-2-7.07-3l-6.91-3-6.91-3-3.37-1.5c-1.1-.48-2.17-1-3.23-1.56a14.86,14.86,0,0,1-.36,1.81C379.33,192.37,379.49,190.05,379.77,190.11Z" style="fill:#263238"></path><path d="M385.94,178.35c.59.94,1.17,1.89,1.72,2.86l.29.55c-.13-.49-.26-1-.38-1.46a45,45,0,0,1-1.26-5.12c0-.08.1-.1.14,0a49.91,49.91,0,0,1,1.71,5.23c.53,1.71,1.07,3.42,1.57,5.14s1,3.44,1.48,5.17a36.69,36.69,0,0,1,1.18,5.16c0,.1-.13.12-.17,0a38.6,38.6,0,0,1-1.79-5.21c-.52-1.72-1-3.45-1.48-5.17-.2-.72-.39-1.45-.59-2.17-.1-.17-.19-.35-.29-.51-.28-.47-.53-1-.77-1.43-.51-1-1-2-1.42-3A0,0,0,0,1,385.94,178.35Z" style="fill:#263238"></path><path d="M373.52,223.35c6.82,2.32,14.07,5.53,20.94,7.7-7.36-1.25-14.31-4.37-20.94-7.7Z" style="fill:#263238"></path><path d="M422.09,229.35c.9-2.51.79-5.16.94-7.8.08.32.13.65.2,1,.27,2.28.25,4.89-1.14,6.82Z" style="fill:#263238"></path><path d="M372.25,164.65c3.57.4,8.89-5.62,10.72-10.2.13-.31-2.52-11.93-2.8-14.29-.06-.48-14.38,5.38-14.38,5.38a37.68,37.68,0,0,1,2.53,8.88C368.35,154.76,368.8,164.26,372.25,164.65Z" style="fill:#c95f50"></path><path d="M365.79,145.54h0c0,.07.15.35.32.8.3.76.77,2,1.19,3.45a27.89,27.89,0,0,1,1,4.62c0,.11,0,.22,0,.33v.05c0,.19,0,.45.06.76a9.39,9.39,0,0,0,1.45-.1c8-1.15,9.55-11.37,9.85-15.25l-.26.07c-.38.11-.88.28-1.48.49l-.46.17-3.29,1.23-1.18.46-2.5,1c-.34.15-.68.28-1,.4l-1,.41-.47.19-.22.09-1.18.48-.57.23-.24.1,0,0Z" style="fill:#263238"></path><path d="M381.07,125.27c1.49,5.32-1.65,20.5-5.49,23.82-5.57,4.8-14.5,5.06-18.55-1.58-3.92-6.43.53-26.15,4.8-29.15C368.12,114,378.86,117.42,381.07,125.27Z" style="fill:#c95f50"></path><path d="M365.94,133.86s.07.06.06.11c-.27,1-.41,2.21.44,2.76,0,0,0,.07,0,.06C365.33,136.37,365.52,134.77,365.94,133.86Z" style="fill:#263238"></path><path d="M367.1,133c1.66.25,1,3.56-.51,3.33S365.7,132.79,367.1,133Z" style="fill:#263238"></path><path d="M360,132.89s-.09,0-.09.08c-.17,1-.53,2.18-1.52,2.35,0,0,0,.06,0,.06C359.51,135.43,360,133.9,360,132.89Z" style="fill:#263238"></path><path d="M359.25,131.64c-1.63-.44-2.39,2.85-.88,3.26S360.62,132,359.25,131.64Z" style="fill:#263238"></path><path d="M368.59,131.7c-.45-.16-.84-.37-1.27-.57a2.2,2.2,0,0,1-1.18-.82.71.71,0,0,1,.18-.85,1.76,1.76,0,0,1,1.79,0,2.6,2.6,0,0,1,1.41,1.24A.76.76,0,0,1,368.59,131.7Z" style="fill:#263238"></path><path d="M358.27,129.59c.48,0,.92-.06,1.39-.09a2.25,2.25,0,0,0,1.39-.36.73.73,0,0,0,.12-.87,1.76,1.76,0,0,0-1.67-.65,2.59,2.59,0,0,0-1.74.67A.76.76,0,0,0,358.27,129.59Z" style="fill:#263238"></path><path d="M365.07,143.57c-.29.19-.6.48-1,.44a2.76,2.76,0,0,1-1-.47,0,0,0,0,0-.06,0,1.41,1.41,0,0,0,1.2.81,1.1,1.1,0,0,0,1-.76S365.11,143.54,365.07,143.57Z" style="fill:#263238"></path><path d="M364.58,140.29A3.56,3.56,0,0,1,362,141.4a4.93,4.93,0,0,1-1.27-.18l-.24-.08a.9.9,0,0,1-.21-.08.26.26,0,0,1-.17-.26h0a.3.3,0,0,1,0-.1h0l0-.09c.12-.8.43-2,.43-2-.32.09-1.91.47-1.81.06a53.44,53.44,0,0,1,3.37-10.32.1.1,0,0,1,.19.06c-.7,3.28-2,6.42-2.72,9.7a6.13,6.13,0,0,1,1.75-.18c.1,0-.63,2.28-.66,2.64a0,0,0,0,0,0,0,5,5,0,0,0,3.83-.43C364.59,140.13,364.66,140.22,364.58,140.29Z" style="fill:#263238"></path><path d="M361.22,140.9a4.24,4.24,0,0,0,1.42,1.61,1.94,1.94,0,0,0,1.12.29c.86-.06,1-.81,1-1.48a4.44,4.44,0,0,0-.18-1.06A5.46,5.46,0,0,1,361.22,140.9Z" style="fill:#263238"></path><path d="M362.64,142.51a1.94,1.94,0,0,0,1.12.29c.86-.06,1-.81,1-1.48A2,2,0,0,0,362.64,142.51Z" style="fill:#ff9abb"></path><path d="M379.63,139.5s6.09-9,5.85-14.33c-.11-2.43-3.31-4.23-3.31-4.23a5.48,5.48,0,0,0-1.44-5.59c-2.72-2.84-9.67-2.6-9.67-2.6s-4.14-6.72-10.63-4.49-2.73,9.65-2.73,9.65-2.5,3.19,3.05,6.07,16.87.93,16.87.93a39.3,39.3,0,0,0-.45,11.74A3.61,3.61,0,0,0,379.63,139.5Z" style="fill:#263238"></path><path d="M370,112.78a11,11,0,0,1,4.51-.58,11.86,11.86,0,0,1,4,.84c2.24.94,4.18,2.73,4.43,5.26a4.63,4.63,0,0,1-1.07,3.46s-.09,0-.06-.06c1.57-1.73.94-4.6-.49-6.2a10,10,0,0,0-6.57-2.83,20,20,0,0,0-4.7.24A.07.07,0,1,1,370,112.78Z" style="fill:#263238"></path><path d="M355.73,111.09a5.45,5.45,0,0,1,3.95-3.27,9.22,9.22,0,0,1,6,.53,11.73,11.73,0,0,1,4.73,3.9s0,.09-.07,0a10.26,10.26,0,0,0-9.62-4.17,5,5,0,0,0-4.32,7.28,10.39,10.39,0,0,0,3.87,4.31s0,.08,0,.06a10.73,10.73,0,0,1-3.88-3.69A6,6,0,0,1,355.73,111.09Z" style="fill:#263238"></path><path d="M359.36,124.21a19,19,0,0,0,7.91,1.8,38.82,38.82,0,0,0,8.47-.7c1.62-.3,3.23-.67,4.84-1.06a0,0,0,0,1,0,.08,43.39,43.39,0,0,1-8.74,2.2,21.45,21.45,0,0,1-8.29-.52,18.23,18.23,0,0,1-4.24-1.75S359.33,124.19,359.36,124.21Z" style="fill:#263238"></path><path d="M377.37,137.61s3.67-4.78,5.85-3.46-.71,8.36-3.39,9.22a2.67,2.67,0,0,1-3.52-1.59Z" style="fill:#c95f50"></path><path d="M382.34,136.15a0,0,0,0,1,0,.07c-1.87.67-2.92,2.33-3.67,4.07a1.47,1.47,0,0,1,2.22-.31c.05,0,0,.11,0,.1a1.66,1.66,0,0,0-1.84.49,8.34,8.34,0,0,0-.93,1.43c-.09.16-.38.06-.31-.13v0C377.84,139.48,379.81,136.28,382.34,136.15Z" style="fill:#263238"></path><path d="M368.37,155.67l4.46,8.45,9.79-12.3,3.48,3.26s-8.87,18.84-9,18l-4.43-7.23L368,171.74l-1-13.32Z" style="fill:#ebebeb"></path><path d="M367.11,165.18c-.08-2.2-.23-4.42-.21-6.63,0-.07.12-.12.15,0,.65,2.07.93,10.5,1.15,12.5l0,0c.2-.25,4.38-5.16,4.43-5.1.92,1.13,4.16,6.39,4.39,6.87,1.4-3,6.84-13.9,8.57-16.77.05-.08.17,0,.13.06-1.18,3.13-8.35,17.81-8.48,17.78a83.68,83.68,0,0,1-4.64-7.64c-.68,1.05-4.85,6.53-4.9,6.2A69.59,69.59,0,0,1,367.11,165.18Z" style="fill:#263238"></path></g></svg>