<?xml version="1.0" encoding="UTF-8" standalone="no"?>
<!-- Created with Inkscape (http://www.inkscape.org/) -->

<svg
   width="6.5110431mm"
   height="6.4790263mm"
   viewBox="0 0 6.5110431 6.4790263"
   version="1.1"
   id="svg35214"
   inkscape:version="1.2.2 (1:1.2.2+202305151915+b0a8486541)"
   sodipodi:docname="phone.svg"
   xmlns:inkscape="http://www.inkscape.org/namespaces/inkscape"
   xmlns:sodipodi="http://sodipodi.sourceforge.net/DTD/sodipodi-0.dtd"
   xmlns="http://www.w3.org/2000/svg"
   xmlns:svg="http://www.w3.org/2000/svg">
  <sodipodi:namedview
     id="namedview35216"
     pagecolor="#ffffff"
     bordercolor="#666666"
     borderopacity="1.0"
     inkscape:showpageshadow="2"
     inkscape:pageopacity="0.0"
     inkscape:pagecheckerboard="0"
     inkscape:deskcolor="#d1d1d1"
     inkscape:document-units="mm"
     showgrid="false"
     inkscape:zoom="0.914906"
     inkscape:cx="-335.00709"
     inkscape:cy="214.22966"
     inkscape:window-width="3440"
     inkscape:window-height="1391"
     inkscape:window-x="0"
     inkscape:window-y="0"
     inkscape:window-maximized="1"
     inkscape:current-layer="layer1" />
  <defs
     id="defs35211" />
  <g
     inkscape:label="Layer 1"
     inkscape:groupmode="layer"
     id="layer1"
     transform="translate(-132.08625,-91.615404)">
    <g
       id="g750"
       transform="matrix(0.35277776,0,0,0.35277776,132.08647,91.614396)">
      <path
         d="m 5.0830145,7.5511365 c 0.6204214,1.1191611 1.3354821,2.1932549 2.2638602,3.1727085 0.9313836,0.985464 2.089603,1.882294 3.5888283,2.648432 0.111165,0.05408 0.216322,0.05408 0.310961,0.01653 0.142712,-0.05408 0.288429,-0.172759 0.431141,-0.31547 0.111165,-0.111163 0.249372,-0.288428 0.393586,-0.482215 0.576855,-0.758627 1.290415,-1.700525 2.298412,-1.228824 0.02254,0.01051 0.03906,0.02253 0.06159,0.03155 l 3.361993,1.933371 c 0.01052,0.006 0.02253,0.01652 0.03155,0.02253 0.443157,0.304952 0.626431,0.775151 0.630938,1.308442 0,0.542307 -0.199797,1.15221 -0.492733,1.667476 -0.387577,0.680511 -0.958424,1.131178 -1.6164,1.428619 -0.626432,0.288431 -1.323465,0.443159 -1.993461,0.542307 -1.051563,0.154728 -2.037023,0.05558 -3.045022,-0.253876 C 10.322796,17.737763 9.3298207,17.234516 8.2452107,16.56452 L 8.1655927,16.51344 C 7.6683521,16.202478 7.1305547,15.870485 6.603272,15.478403 4.674408,14.02124 2.7079887,11.916616 1.4265864,9.6001768 0.35249171,7.6562924 -0.23337802,5.5576763 0.08659698,3.5582078 0.26386014,2.4615796 0.73405814,1.4640992 1.554276,0.80612224 2.2693372,0.22926591 3.2322664,-0.08620244 4.4791179,0.02496264 4.62183,0.03547824 4.7495193,0.1181009 4.8171196,0.24128376 L 6.9728198,3.8856936 C 7.2882867,4.2943006 7.3273458,4.699903 7.1545897,5.105505 7.0118771,5.4374976 6.7234497,5.7439528 6.329865,6.0293765 6.2141933,6.1285243 6.0759888,6.2291737 5.9302721,6.3343291 5.4480572,6.6843495 4.8997421,7.088449 5.0875211,7.5631542 l -0.00451,-0.012018 z"
         style="fill:#242424;fill-opacity:1;fill-rule:nonzero;stroke:none"
         id="path752" />
    </g>
  </g>
</svg>
