<?xml version="1.0" encoding="iso-8859-1"?>
<!-- Uploaded to: SVG Repo, www.svgrepo.com, Generator: SVG Repo Mixer Tools -->
<!DOCTYPE svg PUBLIC "-//W3C//DTD SVG 1.1//EN" "http://www.w3.org/Graphics/SVG/1.1/DTD/svg11.dtd">
<svg fill="#000000" version="1.1" id="Capa_1" xmlns="http://www.w3.org/2000/svg" xmlns:xlink="http://www.w3.org/1999/xlink" 
	 width="800px" height="800px" viewBox="0 0 32 32" xml:space="preserve">
<g>
	<path d="M0,0v32h32V0H0z M23.754,12.022c0.008,0.172,0.012,0.345,0.012,0.519c0,5.285-4.021,11.383-11.383,11.383
		c-2.26,0-4.361-0.66-6.133-1.797c0.314,0.035,0.632,0.055,0.955,0.055c1.875,0,3.599-0.639,4.968-1.712
		c-1.75-0.032-3.228-1.188-3.736-2.776c0.244,0.047,0.494,0.07,0.752,0.07c0.365,0,0.719-0.049,1.054-0.143
		c-1.828-0.367-3.209-1.983-3.209-3.922c0-0.017,0-0.033,0-0.05c0.541,0.3,1.157,0.479,1.813,0.5
		c-1.073-0.717-1.779-1.942-1.779-3.332c0-0.731,0.197-1.42,0.542-2.01c1.972,2.42,4.921,4.015,8.245,4.18
		c-0.067-0.293-0.104-0.598-0.104-0.911c0-2.209,1.791-4,4.002-4c1.147,0,2.188,0.485,2.919,1.264
		c0.91-0.18,1.768-0.514,2.541-0.971c-0.3,0.935-0.934,1.719-1.759,2.213c0.81-0.097,1.58-0.312,2.297-0.629
		C25.214,10.756,24.536,11.459,23.754,12.022z"/>
</g>
</svg>