<?xml version="1.0" encoding="UTF-8" standalone="no"?>
<svg
   viewBox="0 0 637.7583 396.00998"
   version="1.1"
   id="svg689"
   sodipodi:docname="assets.svg"
   width="637.7583"
   height="396.00998"
   inkscape:version="1.2.2 (1:1.2.2+202305151915+b0a8486541)"
   xmlns:inkscape="http://www.inkscape.org/namespaces/inkscape"
   xmlns:sodipodi="http://sodipodi.sourceforge.net/DTD/sodipodi-0.dtd"
   xmlns="http://www.w3.org/2000/svg"
   xmlns:svg="http://www.w3.org/2000/svg">
  <defs
     id="defs693" />
  <sodipodi:namedview
     id="namedview691"
     pagecolor="#ffffff"
     bordercolor="#666666"
     borderopacity="1.0"
     inkscape:showpageshadow="2"
     inkscape:pageopacity="0.0"
     inkscape:pagecheckerboard="0"
     inkscape:deskcolor="#d1d1d1"
     showgrid="false"
     inkscape:zoom="1.596"
     inkscape:cx="190.16291"
     inkscape:cy="194.86216"
     inkscape:window-width="3440"
     inkscape:window-height="1391"
     inkscape:window-x="0"
     inkscape:window-y="0"
     inkscape:window-maximized="1"
     inkscape:current-layer="svg689" />
  <g
     id="freepik--Shadow--inject-219"
     transform="translate(-51.911671,-55)">
    <ellipse
       cx="253.69"
       cy="428.01999"
       rx="175.33"
       ry="22.99"
       style="fill:#ebebeb"
       id="ellipse2" />
  </g>
  <g
     id="freepik--Server--inject-219"
     transform="translate(-51.911671,-55)">
    <rect
       x="470.03"
       y="232.00999"
       width="105.39"
       height="157.97"
       style="fill:#263238"
       id="rect5" />
    <rect
       x="452.64001"
       y="370.84"
       width="122.78"
       height="25.51"
       transform="rotate(180,514.03,383.59)"
       style="fill:#37474f"
       id="rect7" />
    <rect
       x="495.57001"
       y="375.04999"
       width="75.199997"
       height="2.1500001"
       transform="rotate(180,533.17,376.13)"
       style="fill:#455a64"
       id="rect9" />
    <rect
       x="495.57001"
       y="378.78"
       width="75.199997"
       height="2.1500001"
       transform="rotate(180,533.17,379.86)"
       style="fill:#455a64"
       id="rect11" />
    <rect
       x="495.57001"
       y="382.51999"
       width="75.199997"
       height="2.1500001"
       transform="rotate(180,533.17,383.59)"
       style="fill:#455a64"
       id="rect13" />
    <rect
       x="495.57001"
       y="386.25"
       width="75.199997"
       height="2.1500001"
       transform="rotate(180,533.17,387.325)"
       style="fill:#455a64"
       id="rect15" />
    <rect
       x="495.57001"
       y="389.98001"
       width="75.199997"
       height="2.1500001"
       transform="rotate(180,533.17,391.055)"
       style="fill:#455a64"
       id="rect17" />
    <path
       d="m 484.11,377.19 a 2.14,2.14 0 1 0 2.13,-2.14 2.13,2.13 0 0 0 -2.13,2.14 z"
       style="fill:#ffffff"
       id="path19" />
    <circle
       cx="479.20001"
       cy="377.19"
       r="2.1400001"
       style="fill:#263238"
       id="circle21" />
    <circle
       cx="472.17001"
       cy="377.19"
       r="2.1400001"
       style="fill:#ffffff"
       id="circle23" />
    <path
       d="m 463,377.19 a 2.14,2.14 0 1 0 2.14,-2.14 2.13,2.13 0 0 0 -2.14,2.14 z"
       style="fill:#ffffff"
       id="path25" />
    <path
       d="m 456,377.19 a 2.14,2.14 0 1 0 2.14,-2.14 2.13,2.13 0 0 0 -2.14,2.14 z"
       style="fill:#263238"
       id="path27" />
    <path
       d="m 484.11,383.59 a 2.14,2.14 0 1 0 2.13,-2.13 2.13,2.13 0 0 0 -2.13,2.13 z"
       style="fill:#263238"
       id="path29" />
    <path
       d="m 477.07,383.59 a 2.14,2.14 0 1 0 2.13,-2.13 2.13,2.13 0 0 0 -2.13,2.13 z"
       style="fill:#ffffff"
       id="path31" />
    <path
       d="m 470,383.59 a 2.14,2.14 0 1 0 2.14,-2.13 2.14,2.14 0 0 0 -2.14,2.13 z"
       style="fill:#263238"
       id="path33" />
    <path
       d="m 463,383.59 a 2.14,2.14 0 1 0 2.14,-2.13 2.14,2.14 0 0 0 -2.14,2.13 z"
       style="fill:#ffffff"
       id="path35" />
    <path
       d="m 456,383.59 a 2.14,2.14 0 1 0 2.14,-2.13 2.14,2.14 0 0 0 -2.14,2.13 z"
       style="fill:#263238"
       id="path37" />
    <path
       d="m 484.11,390 a 2.14,2.14 0 1 0 2.13,-2.14 2.13,2.13 0 0 0 -2.13,2.14 z"
       style="fill:#263238"
       id="path39" />
    <path
       d="m 477.07,390 a 2.14,2.14 0 1 0 2.13,-2.14 2.13,2.13 0 0 0 -2.13,2.14 z"
       style="fill:#ffffff"
       id="path41" />
    <path
       d="m 470,390 a 2.14,2.14 0 1 0 2.14,-2.14 A 2.13,2.13 0 0 0 470,390 Z"
       style="fill:#ffffff"
       id="path43" />
    <path
       d="m 463,390 a 2.14,2.14 0 1 0 2.14,-2.14 A 2.13,2.13 0 0 0 463,390 Z"
       style="fill:#ffffff"
       id="path45" />
    <path
       d="m 456,390 a 2.14,2.14 0 1 0 2.14,-2.14 A 2.13,2.13 0 0 0 456,390 Z"
       style="fill:#ffffff"
       id="path47" />
    <rect
       x="491.20001"
       y="375.04999"
       width="1.23"
       height="17.08"
       transform="rotate(180,491.815,383.59)"
       style="fill:#263238"
       id="rect49" />
    <rect
       x="575.41998"
       y="370.84"
       width="22.32"
       height="25.51"
       style="fill:#263238"
       id="rect51" />
    <rect
       x="452.64001"
       y="341.32999"
       width="122.78"
       height="25.51"
       transform="rotate(180,514.03,354.085)"
       style="fill:#37474f"
       id="rect53" />
    <rect
       x="495.57001"
       y="345.54001"
       width="75.199997"
       height="2.1500001"
       transform="rotate(180,533.17,346.62)"
       style="fill:#455a64"
       id="rect55" />
    <rect
       x="495.57001"
       y="349.26999"
       width="75.199997"
       height="2.1500001"
       transform="rotate(180,533.17,350.35)"
       style="fill:#455a64"
       id="rect57" />
    <rect
       x="495.57001"
       y="353.01001"
       width="75.199997"
       height="2.1500001"
       transform="rotate(180,533.17,354.085)"
       style="fill:#455a64"
       id="rect59" />
    <rect
       x="495.57001"
       y="356.73999"
       width="75.199997"
       height="2.1500001"
       transform="rotate(180,533.17,357.815)"
       style="fill:#455a64"
       id="rect61" />
    <rect
       x="495.57001"
       y="360.47"
       width="75.199997"
       height="2.1500001"
       transform="rotate(180,533.17,361.545)"
       style="fill:#455a64"
       id="rect63" />
    <path
       d="m 484.11,347.68 a 2.14,2.14 0 1 0 2.13,-2.14 2.13,2.13 0 0 0 -2.13,2.14 z"
       style="fill:#263238"
       id="path65" />
    <circle
       cx="479.20001"
       cy="347.67999"
       r="2.1400001"
       style="fill:#ffffff"
       id="circle67" />
    <circle
       cx="472.17001"
       cy="347.67999"
       r="2.1400001"
       style="fill:#ffffff"
       id="circle69" />
    <path
       d="m 463,347.68 a 2.14,2.14 0 1 0 2.14,-2.14 2.13,2.13 0 0 0 -2.14,2.14 z"
       style="fill:#ffffff"
       id="path71" />
    <path
       d="m 456,347.68 a 2.14,2.14 0 1 0 2.14,-2.14 2.13,2.13 0 0 0 -2.14,2.14 z"
       style="fill:#263238"
       id="path73" />
    <path
       d="m 484.11,354.08 a 2.14,2.14 0 1 0 2.13,-2.13 2.13,2.13 0 0 0 -2.13,2.13 z"
       style="fill:#ffffff"
       id="path75" />
    <path
       d="m 477.07,354.08 a 2.14,2.14 0 1 0 2.13,-2.08 2.13,2.13 0 0 0 -2.13,2.08 z"
       style="fill:#263238"
       id="path77" />
    <path
       d="m 470,354.08 a 2.14,2.14 0 1 0 2.14,-2.13 2.14,2.14 0 0 0 -2.14,2.13 z"
       style="fill:#263238"
       id="path79" />
    <path
       d="m 463,354.08 a 2.14,2.14 0 1 0 2.14,-2.13 2.14,2.14 0 0 0 -2.14,2.13 z"
       style="fill:#263238"
       id="path81" />
    <path
       d="m 456,354.08 a 2.14,2.14 0 1 0 2.14,-2.13 2.14,2.14 0 0 0 -2.14,2.13 z"
       style="fill:#ffffff"
       id="path83" />
    <path
       d="m 484.11,360.49 a 2.14,2.14 0 1 0 2.13,-2.14 2.13,2.13 0 0 0 -2.13,2.14 z"
       style="fill:#ffffff"
       id="path85" />
    <path
       d="m 477.07,360.49 a 2.14,2.14 0 1 0 2.13,-2.14 2.13,2.13 0 0 0 -2.13,2.14 z"
       style="fill:#ffffff"
       id="path87" />
    <path
       d="m 470,360.49 a 2.14,2.14 0 1 0 2.14,-2.14 2.13,2.13 0 0 0 -2.14,2.14 z"
       style="fill:#263238"
       id="path89" />
    <path
       d="m 463,360.49 a 2.14,2.14 0 1 0 2.14,-2.14 2.13,2.13 0 0 0 -2.14,2.14 z"
       style="fill:#ffffff"
       id="path91" />
    <path
       d="m 456,360.49 a 2.14,2.14 0 1 0 2.14,-2.14 2.13,2.13 0 0 0 -2.14,2.14 z"
       style="fill:#ffffff"
       id="path93" />
    <rect
       x="491.20001"
       y="345.54001"
       width="1.23"
       height="17.08"
       transform="rotate(180,491.815,354.085)"
       style="fill:#263238"
       id="rect95" />
    <rect
       x="575.41998"
       y="341.32999"
       width="22.32"
       height="25.51"
       style="fill:#263238"
       id="rect97" />
    <rect
       x="452.64001"
       y="310.59"
       width="122.78"
       height="25.51"
       transform="rotate(180,514.03,323.34)"
       style="fill:#37474f"
       id="rect99" />
    <rect
       x="495.57001"
       y="314.79999"
       width="75.199997"
       height="2.1500001"
       transform="rotate(180,533.17,315.875)"
       style="fill:#455a64"
       id="rect101" />
    <rect
       x="495.57001"
       y="318.53"
       width="75.199997"
       height="2.1500001"
       transform="rotate(180,533.17,319.61)"
       style="fill:#455a64"
       id="rect103" />
    <rect
       x="495.57001"
       y="322.26001"
       width="75.199997"
       height="2.1500001"
       transform="rotate(180,533.17,323.34)"
       style="fill:#455a64"
       id="rect105" />
    <rect
       x="495.57001"
       y="326"
       width="75.199997"
       height="2.1500001"
       transform="rotate(180,533.17,327.07)"
       style="fill:#455a64"
       id="rect107" />
    <rect
       x="495.57001"
       y="329.73001"
       width="75.199997"
       height="2.1500001"
       transform="rotate(180,533.17,330.805)"
       style="fill:#455a64"
       id="rect109" />
    <path
       d="m 484.11,316.93 a 2.14,2.14 0 1 0 2.13,-2.13 2.13,2.13 0 0 0 -2.13,2.13 z"
       style="fill:#263238"
       id="path111" />
    <path
       d="m 477.07,316.93 a 2.14,2.14 0 1 0 2.13,-2.13 2.13,2.13 0 0 0 -2.13,2.13 z"
       style="fill:#ffffff"
       id="path113" />
    <path
       d="m 470,316.93 a 2.14,2.14 0 1 0 2.14,-2.13 2.14,2.14 0 0 0 -2.14,2.13 z"
       style="fill:#ffffff"
       id="path115" />
    <path
       d="m 463,316.93 a 2.14,2.14 0 1 0 2.14,-2.13 2.14,2.14 0 0 0 -2.14,2.13 z"
       style="fill:#ffffff"
       id="path117" />
    <path
       d="m 456,316.93 a 2.14,2.14 0 1 0 2.14,-2.13 2.14,2.14 0 0 0 -2.14,2.13 z"
       style="fill:#263238"
       id="path119" />
    <path
       d="m 484.11,323.34 a 2.14,2.14 0 1 0 2.13,-2.14 2.13,2.13 0 0 0 -2.13,2.14 z"
       style="fill:#ffffff"
       id="path121" />
    <path
       d="m 477.07,323.34 a 2.14,2.14 0 1 0 2.13,-2.14 2.13,2.13 0 0 0 -2.13,2.14 z"
       style="fill:#ffffff"
       id="path123" />
    <path
       d="m 470,323.34 a 2.14,2.14 0 1 0 2.14,-2.14 2.13,2.13 0 0 0 -2.14,2.14 z"
       style="fill:#263238"
       id="path125" />
    <path
       d="m 463,323.34 a 2.14,2.14 0 1 0 2.14,-2.14 2.13,2.13 0 0 0 -2.14,2.14 z"
       style="fill:#263238"
       id="path127" />
    <path
       d="m 456,323.34 a 2.14,2.14 0 1 0 2.14,-2.14 2.13,2.13 0 0 0 -2.14,2.14 z"
       style="fill:#ffffff"
       id="path129" />
    <path
       d="m 484.11,329.75 a 2.14,2.14 0 1 0 2.13,-2.14 2.13,2.13 0 0 0 -2.13,2.14 z"
       style="fill:#263238"
       id="path131" />
    <path
       d="m 477.07,329.75 a 2.14,2.14 0 1 0 2.13,-2.14 2.13,2.13 0 0 0 -2.13,2.14 z"
       style="fill:#ffffff"
       id="path133" />
    <path
       d="m 470,329.75 a 2.14,2.14 0 1 0 2.14,-2.14 2.14,2.14 0 0 0 -2.14,2.14 z"
       style="fill:#ffffff"
       id="path135" />
    <path
       d="m 463,329.75 a 2.14,2.14 0 1 0 2.14,-2.14 2.14,2.14 0 0 0 -2.14,2.14 z"
       style="fill:#ffffff"
       id="path137" />
    <path
       d="m 456,329.75 a 2.14,2.14 0 1 0 2.14,-2.14 2.14,2.14 0 0 0 -2.14,2.14 z"
       style="fill:#263238"
       id="path139" />
    <rect
       x="491.20001"
       y="314.79999"
       width="1.23"
       height="17.08"
       transform="rotate(180,491.815,323.34)"
       style="fill:#263238"
       id="rect141" />
    <rect
       x="575.41998"
       y="310.59"
       width="22.32"
       height="25.51"
       style="fill:#263238"
       id="rect143" />
    <rect
       x="452.64001"
       y="279.84"
       width="122.78"
       height="25.51"
       transform="rotate(180,514.03,292.595)"
       style="fill:#37474f"
       id="rect145" />
    <rect
       x="495.57001"
       y="284.06"
       width="75.199997"
       height="2.1500001"
       transform="rotate(180,533.17,285.135)"
       style="fill:#455a64"
       id="rect147" />
    <rect
       x="495.57001"
       y="287.79001"
       width="75.199997"
       height="2.1500001"
       transform="rotate(180,533.17,288.865)"
       style="fill:#455a64"
       id="rect149" />
    <rect
       x="495.57001"
       y="291.51999"
       width="75.199997"
       height="2.1500001"
       transform="rotate(180,533.17,292.595)"
       style="fill:#455a64"
       id="rect151" />
    <rect
       x="495.57001"
       y="295.25"
       width="75.199997"
       height="2.1500001"
       transform="rotate(180,533.17,296.33)"
       style="fill:#455a64"
       id="rect153" />
    <rect
       x="495.57001"
       y="298.98001"
       width="75.199997"
       height="2.1500001"
       transform="rotate(180,533.17,300.06)"
       style="fill:#455a64"
       id="rect155" />
    <path
       d="m 484.11,286.19 a 2.14,2.14 0 1 0 2.13,-2.13 2.13,2.13 0 0 0 -2.13,2.13 z"
       style="fill:#ffffff"
       id="path157" />
    <path
       d="m 477.07,286.19 a 2.14,2.14 0 1 0 2.13,-2.13 2.13,2.13 0 0 0 -2.13,2.13 z"
       style="fill:#263238"
       id="path159" />
    <path
       d="m 470,286.19 a 2.14,2.14 0 1 0 2.14,-2.13 2.14,2.14 0 0 0 -2.14,2.13 z"
       style="fill:#ffffff"
       id="path161" />
    <path
       d="m 463,286.19 a 2.14,2.14 0 1 0 2.14,-2.13 2.14,2.14 0 0 0 -2.14,2.13 z"
       style="fill:#ffffff"
       id="path163" />
    <path
       d="m 456,286.19 a 2.14,2.14 0 1 0 2.14,-2.13 2.14,2.14 0 0 0 -2.14,2.13 z"
       style="fill:#263238"
       id="path165" />
    <path
       d="m 484.11,292.6 a 2.14,2.14 0 1 0 2.13,-2.14 2.13,2.13 0 0 0 -2.13,2.14 z"
       style="fill:#ffffff"
       id="path167" />
    <path
       d="m 477.07,292.6 a 2.14,2.14 0 1 0 2.13,-2.14 2.13,2.13 0 0 0 -2.13,2.14 z"
       style="fill:#ffffff"
       id="path169" />
    <path
       d="m 470,292.6 a 2.14,2.14 0 1 0 2.14,-2.14 2.13,2.13 0 0 0 -2.14,2.14 z"
       style="fill:#263238"
       id="path171" />
    <path
       d="m 463,292.6 a 2.14,2.14 0 1 0 2.14,-2.14 2.13,2.13 0 0 0 -2.14,2.14 z"
       style="fill:#263238"
       id="path173" />
    <path
       d="m 456,292.6 a 2.14,2.14 0 1 0 2.14,-2.14 2.13,2.13 0 0 0 -2.14,2.14 z"
       style="fill:#ffffff"
       id="path175" />
    <path
       d="m 484.11,299 a 2.14,2.14 0 1 0 2.13,-2.13 2.13,2.13 0 0 0 -2.13,2.13 z"
       style="fill:#263238"
       id="path177" />
    <circle
       cx="479.20001"
       cy="299"
       r="2.1400001"
       style="fill:#ffffff"
       id="circle179" />
    <circle
       cx="472.17001"
       cy="299"
       r="2.1400001"
       style="fill:#ffffff"
       id="circle181" />
    <path
       d="m 463,299 a 2.14,2.14 0 1 0 2.14,-2.13 A 2.14,2.14 0 0 0 463,299 Z"
       style="fill:#263238"
       id="path183" />
    <path
       d="m 456,299 a 2.14,2.14 0 1 0 2.14,-2.13 A 2.14,2.14 0 0 0 456,299 Z"
       style="fill:#ffffff"
       id="path185" />
    <rect
       x="491.20001"
       y="284.06"
       width="1.23"
       height="17.08"
       transform="rotate(180,491.815,292.595)"
       style="fill:#263238"
       id="rect187" />
    <rect
       x="575.41998"
       y="279.84"
       width="22.32"
       height="25.51"
       style="fill:#263238"
       id="rect189" />
    <rect
       x="452.64001"
       y="249.10001"
       width="122.78"
       height="25.51"
       transform="rotate(180,514.03,261.855)"
       style="fill:#37474f"
       id="rect191" />
    <rect
       x="495.57001"
       y="253.31"
       width="75.199997"
       height="2.1500001"
       transform="rotate(180,533.17,254.39)"
       style="fill:#455a64"
       id="rect193" />
    <rect
       x="495.57001"
       y="257.04999"
       width="75.199997"
       height="2.1500001"
       transform="rotate(180,533.17,258.12)"
       style="fill:#455a64"
       id="rect195" />
    <rect
       x="495.57001"
       y="260.78"
       width="75.199997"
       height="2.1500001"
       transform="rotate(180,533.17,261.855)"
       style="fill:#455a64"
       id="rect197" />
    <rect
       x="495.57001"
       y="264.51001"
       width="75.199997"
       height="2.1500001"
       transform="rotate(180,533.17,265.585)"
       style="fill:#455a64"
       id="rect199" />
    <rect
       x="495.57001"
       y="268.23999"
       width="75.199997"
       height="2.1500001"
       transform="rotate(180,533.17,269.32)"
       style="fill:#455a64"
       id="rect201" />
    <path
       d="m 484.11,255.45 a 2.14,2.14 0 1 0 2.13,-2.14 2.13,2.13 0 0 0 -2.13,2.14 z"
       style="fill:#ffffff"
       id="path203" />
    <path
       d="m 477.07,255.45 a 2.14,2.14 0 1 0 2.13,-2.14 2.13,2.13 0 0 0 -2.13,2.14 z"
       style="fill:#ffffff"
       id="path205" />
    <path
       d="m 470,255.45 a 2.14,2.14 0 1 0 2.14,-2.14 2.13,2.13 0 0 0 -2.14,2.14 z"
       style="fill:#ffffff"
       id="path207" />
    <path
       d="m 463,255.45 a 2.14,2.14 0 1 0 2.14,-2.14 2.13,2.13 0 0 0 -2.14,2.14 z"
       style="fill:#263238"
       id="path209" />
    <path
       d="m 456,255.45 a 2.14,2.14 0 1 0 2.14,-2.14 2.13,2.13 0 0 0 -2.14,2.14 z"
       style="fill:#ffffff"
       id="path211" />
    <path
       d="m 484.11,261.85 a 2.14,2.14 0 1 0 2.13,-2.13 2.13,2.13 0 0 0 -2.13,2.13 z"
       style="fill:#263238"
       id="path213" />
    <path
       d="m 477.07,261.85 a 2.14,2.14 0 1 0 2.13,-2.13 2.13,2.13 0 0 0 -2.13,2.13 z"
       style="fill:#ffffff"
       id="path215" />
    <path
       d="m 470,261.85 a 2.14,2.14 0 1 0 2.14,-2.13 2.14,2.14 0 0 0 -2.14,2.13 z"
       style="fill:#263238"
       id="path217" />
    <path
       d="m 463,261.85 a 2.14,2.14 0 1 0 2.14,-2.13 2.14,2.14 0 0 0 -2.14,2.13 z"
       style="fill:#ffffff"
       id="path219" />
    <path
       d="m 456,261.85 a 2.14,2.14 0 1 0 2.14,-2.13 2.14,2.14 0 0 0 -2.14,2.13 z"
       style="fill:#ffffff"
       id="path221" />
    <path
       d="m 484.11,268.26 a 2.14,2.14 0 1 0 2.13,-2.14 2.13,2.13 0 0 0 -2.13,2.14 z"
       style="fill:#ffffff"
       id="path223" />
    <path
       d="m 477.07,268.26 a 2.14,2.14 0 1 0 2.13,-2.14 2.13,2.13 0 0 0 -2.13,2.14 z"
       style="fill:#263238"
       id="path225" />
    <path
       d="m 470,268.26 a 2.14,2.14 0 1 0 2.14,-2.14 2.13,2.13 0 0 0 -2.14,2.14 z"
       style="fill:#ffffff"
       id="path227" />
    <path
       d="m 463,268.26 a 2.14,2.14 0 1 0 2.14,-2.14 2.13,2.13 0 0 0 -2.14,2.14 z"
       style="fill:#ffffff"
       id="path229" />
    <path
       d="m 456,268.26 a 2.14,2.14 0 1 0 2.14,-2.14 2.13,2.13 0 0 0 -2.14,2.14 z"
       style="fill:#263238"
       id="path231" />
    <rect
       x="491.20001"
       y="253.31"
       width="1.23"
       height="17.08"
       transform="rotate(180,491.815,261.855)"
       style="fill:#263238"
       id="rect233" />
    <rect
       x="575.41998"
       y="249.10001"
       width="22.32"
       height="25.51"
       style="fill:#263238"
       id="rect235" />
    <rect
       x="452.64001"
       y="218.36"
       width="122.78"
       height="25.51"
       transform="rotate(180,514.03,231.11)"
       style="fill:#37474f"
       id="rect237" />
    <rect
       x="495.57001"
       y="222.57001"
       width="75.199997"
       height="2.1500001"
       transform="rotate(180,533.17,223.645)"
       style="fill:#455a64"
       id="rect239" />
    <rect
       x="495.57001"
       y="226.3"
       width="75.199997"
       height="2.1500001"
       transform="rotate(180,533.17,227.38)"
       style="fill:#455a64"
       id="rect241" />
    <rect
       x="495.57001"
       y="230.03"
       width="75.199997"
       height="2.1500001"
       transform="rotate(180,533.17,231.11)"
       style="fill:#455a64"
       id="rect243" />
    <rect
       x="495.57001"
       y="233.77"
       width="75.199997"
       height="2.1500001"
       transform="rotate(180,533.17,234.845)"
       style="fill:#455a64"
       id="rect245" />
    <rect
       x="495.57001"
       y="237.5"
       width="75.199997"
       height="2.1500001"
       transform="rotate(180,533.17,238.575)"
       style="fill:#455a64"
       id="rect247" />
    <path
       d="m 484.11,224.71 a 2.14,2.14 0 1 0 2.13,-2.14 2.13,2.13 0 0 0 -2.13,2.14 z"
       style="fill:#263238"
       id="path249" />
    <path
       d="m 477.07,224.71 a 2.14,2.14 0 1 0 2.13,-2.14 2.13,2.13 0 0 0 -2.13,2.14 z"
       style="fill:#263238"
       id="path251" />
    <path
       d="m 470,224.71 a 2.14,2.14 0 1 0 2.14,-2.14 2.14,2.14 0 0 0 -2.14,2.14 z"
       style="fill:#ffffff"
       id="path253" />
    <path
       d="m 463,224.71 a 2.14,2.14 0 1 0 2.14,-2.14 2.14,2.14 0 0 0 -2.14,2.14 z"
       style="fill:#263238"
       id="path255" />
    <path
       d="m 456,224.71 a 2.14,2.14 0 1 0 2.14,-2.14 2.14,2.14 0 0 0 -2.14,2.14 z"
       style="fill:#ffffff"
       id="path257" />
    <path
       d="m 484.11,231.11 a 2.14,2.14 0 1 0 2.13,-2.13 2.13,2.13 0 0 0 -2.13,2.13 z"
       style="fill:#ffffff"
       id="path259" />
    <path
       d="m 477.07,231.11 a 2.14,2.14 0 1 0 2.13,-2.11 2.13,2.13 0 0 0 -2.13,2.11 z"
       style="fill:#ffffff"
       id="path261" />
    <path
       d="m 470,231.11 a 2.14,2.14 0 1 0 2.14,-2.13 2.14,2.14 0 0 0 -2.14,2.13 z"
       style="fill:#263238"
       id="path263" />
    <path
       d="m 463,231.11 a 2.14,2.14 0 1 0 2.14,-2.13 2.14,2.14 0 0 0 -2.14,2.13 z"
       style="fill:#ffffff"
       id="path265" />
    <path
       d="m 456,231.11 a 2.14,2.14 0 1 0 2.14,-2.13 2.14,2.14 0 0 0 -2.14,2.13 z"
       style="fill:#263238"
       id="path267" />
    <path
       d="m 484.11,237.52 a 2.14,2.14 0 1 0 2.13,-2.14 2.13,2.13 0 0 0 -2.13,2.14 z"
       style="fill:#ffffff"
       id="path269" />
    <path
       d="m 477.07,237.52 a 2.14,2.14 0 1 0 2.13,-2.14 2.13,2.13 0 0 0 -2.13,2.14 z"
       style="fill:#263238"
       id="path271" />
    <path
       d="m 470,237.52 a 2.14,2.14 0 1 0 2.14,-2.14 2.13,2.13 0 0 0 -2.14,2.14 z"
       style="fill:#ffffff"
       id="path273" />
    <path
       d="m 463,237.52 a 2.14,2.14 0 1 0 2.14,-2.14 2.13,2.13 0 0 0 -2.14,2.14 z"
       style="fill:#ffffff"
       id="path275" />
    <path
       d="m 456,237.52 a 2.14,2.14 0 1 0 2.14,-2.14 2.13,2.13 0 0 0 -2.14,2.14 z"
       style="fill:#ffffff"
       id="path277" />
    <rect
       x="491.20001"
       y="222.57001"
       width="1.23"
       height="17.08"
       transform="rotate(180,491.815,231.11)"
       style="fill:#263238"
       id="rect279" />
    <rect
       x="575.41998"
       y="218.36"
       width="22.32"
       height="25.51"
       style="fill:#263238"
       id="rect281" />
  </g>
  <g
     id="freepik--Window--inject-219"
     transform="translate(-51.911671,-55)">
    <rect
       x="169.31"
       y="106.67"
       width="149.82001"
       height="94.519997"
       style="fill:#37474f"
       id="rect284" />
    <rect
       x="169.31"
       y="106.67"
       width="149.82001"
       height="8.3299999"
       style="fill:#ffc727"
       id="rect286" />
    <path
       d="m 177.13,110.89 a 2.1,2.1 0 1 1 -2.1,-2.09 2.1,2.1 0 0 1 2.1,2.09 z"
       style="fill:#a6a6a6"
       id="path288" />
    <path
       d="m 185.69,110.89 a 2.1,2.1 0 1 1 -2.1,-2.09 2.1,2.1 0 0 1 2.1,2.09 z"
       style="fill:#ebebeb"
       id="path290" />
    <path
       d="m 194.24,110.89 a 2.1,2.1 0 1 1 -2.09,-2.09 2.1,2.1 0 0 1 2.09,2.09 z"
       style="fill:#ffffff"
       id="path292" />
    <rect
       x="178.25"
       y="131.56"
       width="4.4499998"
       height="1.63"
       style="fill:#ebebeb"
       id="rect294" />
    <rect
       x="185.94"
       y="131.56"
       width="71.889999"
       height="1.63"
       style="fill:#ebebeb"
       id="rect296" />
    <rect
       x="260.57001"
       y="131.56"
       width="8.4499998"
       height="1.63"
       style="fill:#ffc727"
       id="rect298" />
    <rect
       x="274.10001"
       y="153.31"
       width="8.4499998"
       height="1.63"
       style="fill:#ebebeb"
       id="rect300" />
    <rect
       x="270.85999"
       y="131.56"
       width="28.5"
       height="1.63"
       style="fill:#a6a6a6"
       id="rect302" />
    <rect
       x="182.7"
       y="135.91"
       width="4.4499998"
       height="1.63"
       style="fill:#ebebeb"
       id="rect304" />
    <rect
       x="190.28"
       y="135.91"
       width="33.509998"
       height="1.63"
       style="fill:#a6a6a6"
       id="rect306" />
    <rect
       x="259.42001"
       y="153.31"
       width="12.67"
       height="1.63"
       style="fill:#a6a6a6"
       id="rect308" />
    <rect
       x="185.94"
       y="148.96001"
       width="32.009998"
       height="1.63"
       style="fill:#a6a6a6"
       id="rect310" />
    <rect
       x="190.28"
       y="140.25999"
       width="22.450001"
       height="1.63"
       style="fill:#ffc727"
       id="rect312" />
    <rect
       x="266.22"
       y="144.61"
       width="22.450001"
       height="1.63"
       style="fill:#a6a6a6"
       id="rect314" />
    <rect
       x="215.22"
       y="140.25999"
       width="56.689999"
       height="1.63"
       style="fill:#a6a6a6"
       id="rect316" />
    <rect
       x="185.94"
       y="153.31"
       width="70.580002"
       height="1.63"
       style="fill:#ffc727"
       id="rect318" />
    <rect
       x="269.92001"
       y="135.91"
       width="37.080002"
       height="1.63"
       style="fill:#ffc727"
       id="rect320" />
    <rect
       x="225.89"
       y="135.91"
       width="42.189999"
       height="1.63"
       style="fill:#ebebeb"
       id="rect322" />
    <rect
       x="287.48999"
       y="140.25999"
       width="14.41"
       height="1.63"
       style="fill:#ebebeb"
       id="rect324" />
    <rect
       x="182.7"
       y="140.25999"
       width="4.4499998"
       height="1.63"
       style="fill:#ebebeb"
       id="rect326" />
    <rect
       x="178.25"
       y="144.61"
       width="4.4499998"
       height="1.63"
       style="fill:#a6a6a6"
       id="rect328" />
    <rect
       x="185.94"
       y="144.61"
       width="26.309999"
       height="1.63"
       style="fill:#ebebeb"
       id="rect330" />
    <rect
       x="190.28"
       y="157.67"
       width="26.309999"
       height="1.63"
       style="fill:#ebebeb"
       id="rect332" />
    <rect
       x="260.17001"
       y="162.02"
       width="33.889999"
       height="1.63"
       style="fill:#ffc727"
       id="rect334" />
    <rect
       x="218.72"
       y="157.67"
       width="47.209999"
       height="1.63"
       style="fill:#ffc727"
       id="rect336" />
    <rect
       x="214.07001"
       y="162.02"
       width="43.799999"
       height="1.63"
       style="fill:#ebebeb"
       id="rect338" />
    <rect
       x="190.28"
       y="162.02"
       width="7.6199999"
       height="1.63"
       style="fill:#a6a6a6"
       id="rect340" />
    <rect
       x="219.75999"
       y="148.96001"
       width="49.27"
       height="1.63"
       style="fill:#ebebeb"
       id="rect342" />
    <rect
       x="270.85999"
       y="148.96001"
       width="31.98"
       height="1.63"
       style="fill:#ffc727"
       id="rect344" />
    <rect
       x="214.92"
       y="144.61"
       width="49.23"
       height="1.63"
       style="fill:#ffc727"
       id="rect346" />
    <rect
       x="178.25"
       y="148.96001"
       width="4.4499998"
       height="1.63"
       style="fill:#ebebeb"
       id="rect348" />
    <rect
       x="178.25"
       y="153.31"
       width="4.4499998"
       height="1.63"
       style="fill:#ebebeb"
       id="rect350" />
    <rect
       x="182.7"
       y="157.67"
       width="4.4499998"
       height="1.63"
       style="fill:#a6a6a6"
       id="rect352" />
    <rect
       x="182.7"
       y="162.02"
       width="4.4499998"
       height="1.63"
       style="fill:#ebebeb"
       id="rect354" />
    <rect
       x="178.25"
       y="165.66"
       width="4.4499998"
       height="1.63"
       style="fill:#ebebeb"
       id="rect356" />
    <rect
       x="185.94"
       y="165.66"
       width="52.189999"
       height="1.63"
       style="fill:#ebebeb"
       id="rect358" />
    <rect
       x="182.7"
       y="170.00999"
       width="4.4499998"
       height="1.63"
       style="fill:#ebebeb"
       id="rect360" />
    <rect
       x="190.28"
       y="170.00999"
       width="33.509998"
       height="1.63"
       style="fill:#a6a6a6"
       id="rect362" />
    <rect
       x="185.94"
       y="183.07001"
       width="32.009998"
       height="1.63"
       style="fill:#a6a6a6"
       id="rect364" />
    <rect
       x="190.28"
       y="174.36"
       width="22.450001"
       height="1.63"
       style="fill:#ffc727"
       id="rect366" />
    <rect
       x="215.22"
       y="174.36"
       width="56.689999"
       height="1.63"
       style="fill:#a6a6a6"
       id="rect368" />
    <rect
       x="185.94"
       y="187.42"
       width="70.580002"
       height="1.63"
       style="fill:#ffc727"
       id="rect370" />
    <rect
       x="269.92001"
       y="170.00999"
       width="37.080002"
       height="1.63"
       style="fill:#ffc727"
       id="rect372" />
    <rect
       x="225.89"
       y="170.00999"
       width="42.189999"
       height="1.63"
       style="fill:#ebebeb"
       id="rect374" />
    <rect
       x="287.48999"
       y="174.36"
       width="14.41"
       height="1.63"
       style="fill:#ebebeb"
       id="rect376" />
    <rect
       x="182.7"
       y="174.36"
       width="4.4499998"
       height="1.63"
       style="fill:#ebebeb"
       id="rect378" />
    <rect
       x="178.25"
       y="178.72"
       width="4.4499998"
       height="1.63"
       style="fill:#a6a6a6"
       id="rect380" />
    <rect
       x="185.94"
       y="178.72"
       width="26.309999"
       height="1.63"
       style="fill:#ebebeb"
       id="rect382" />
    <rect
       x="219.75999"
       y="183.07001"
       width="49.27"
       height="1.63"
       style="fill:#ebebeb"
       id="rect384" />
    <rect
       x="214.92"
       y="178.72"
       width="49.23"
       height="1.63"
       style="fill:#ffc727"
       id="rect386" />
    <rect
       x="178.25"
       y="183.07001"
       width="4.4499998"
       height="1.63"
       style="fill:#ebebeb"
       id="rect388" />
    <path
       d="m 181,127.28 a 0.39,0.39 0 0 1 0,0.55 0.43,0.43 0 0 1 -0.27,0.11 0.39,0.39 0 0 1 -0.28,-0.11 l -1.72,-1.75 v 0 c 0,0 0,0 0,-0.05 0,-0.05 0,0 0,0 0,0 0,0 0,0 0,0 0,0 0,0 v 0 c 0,0 0,0 0,0 0,0 0,0 0,0 v -0.06 a 0.33,0.33 0 0 1 0,-0.06 v 0 0 l 1.72,-1.74 a 0.39,0.39 0 0 1 0.55,0.55 l -1.45,1.46 z"
       style="fill:#ffc727"
       id="path390" />
    <path
       d="m 182.55,127.47 1.5,-3.56 a 0.34,0.34 0 0 1 0.62,0.26 l -1.5,3.56 a 0.35,0.35 0 0 1 -0.31,0.21 0.31,0.31 0 0 1 -0.13,0 0.34,0.34 0 0 1 -0.18,-0.47 z"
       style="fill:#ffc727"
       id="path392" />
    <path
       d="m 187.62,126 v 0 h -0.05 l -1.71,1.75 a 0.43,0.43 0 0 1 -0.28,0.11 0.39,0.39 0 0 1 -0.27,-0.11 0.38,0.38 0 0 1 0,-0.55 l 1.44,-1.46 -1.44,-1.46 a 0.38,0.38 0 0 1 0,-0.55 0.39,0.39 0 0 1 0.55,0 l 1.71,1.74 h 0.05 v 0 c 0,0 0,0 0,0.06 v 0.06 c 0,0 0,0 0,0 v 0.09 c 0,0 0,0 0,0 0,0 0.01,0.32 0,0.32 z"
       style="fill:#ffc727"
       id="path394" />
  </g>
  <g
     id="freepik--Files--inject-219"
     transform="translate(-51.911671,-55)">
    <polygon
       points="350.88,55 398.91,55 414.59,70.68 414.59,138.21 350.88,138.21 "
       style="fill:#ffc727"
       id="polygon397" />
    <polygon
       points="350.88,55 398.91,55 414.59,70.68 414.59,138.21 350.88,138.21 "
       style="opacity:0.6;fill:#ffffff"
       id="polygon399" />
    <polygon
       points="398.91,55 414.59,70.68 398.91,70.68 "
       style="fill:#ffc727"
       id="polygon401" />
    <path
       d="m 365.61,84.33 a 4.75,4.75 0 1 0 4.74,-4.77 4.75,4.75 0 0 0 -4.74,4.77 z"
       style="fill:#ffc727"
       id="path403" />
    <polygon
       points="389.05,85.76 372.94,105.43 405.16,105.43 "
       style="fill:#ffc727"
       id="polygon405" />
    <polygon
       points="373.61,92.62 360.31,105.43 386.91,105.43 "
       style="fill:#ffc727"
       id="polygon407" />
    <polygon
       points="373.61,92.62 360.31,105.43 386.91,105.43 "
       style="opacity:0.1"
       id="polygon409" />
    <path
       d="M 406.16,106.43 H 359.31 V 73 h 46.85 z m -44.85,-2 h 42.85 V 75 h -42.85 z"
       style="fill:#ffc727"
       id="path411" />
    <rect
       x="335.41"
       y="108.82"
       width="45.759998"
       height="18.940001"
       style="fill:#455a64"
       id="rect413" />
    <path
       d="m 348.84,114 v 9.18 h -1.77 v -3.91 h -4.16 v 3.91 h -1.79 V 114 h 1.79 v 3.71 h 4.16 V 114 Z"
       style="fill:#ffffff"
       id="path415" />
    <path
       d="m 357.63,115.55 h -2.94 v 7.61 h -1.77 v -7.61 H 350 V 114 h 7.65 z"
       style="fill:#ffffff"
       id="path417" />
    <path
       d="m 366.25,123.16 v -6.07 l -2.36,4.52 h -1 l -2.37,-4.52 v 6.07 h -1.79 V 114 h 1.92 l 2.72,5.23 2.74,-5.23 H 368 v 9.18 z"
       style="fill:#ffffff"
       id="path419" />
    <path
       d="M 370,123.16 V 114 h 1.79 v 7.62 h 4.68 v 1.56 z"
       style="fill:#ffffff"
       id="path421" />
    <polygon
       points="350.88,163.57 398.91,163.57 414.59,179.25 414.59,246.78 350.88,246.78 "
       style="fill:#ffc727"
       id="polygon423" />
    <polygon
       points="350.88,163.57 398.91,163.57 414.59,179.25 414.59,246.78 350.88,246.78 "
       style="opacity:0.6;fill:#ffffff"
       id="polygon425" />
    <polygon
       points="398.91,163.57 414.59,179.25 398.91,179.25 "
       style="fill:#ffc727"
       id="polygon427" />
    <path
       d="m 365.61,192.9 a 4.75,4.75 0 1 0 4.74,-4.77 4.75,4.75 0 0 0 -4.74,4.77 z"
       style="fill:#ffc727"
       id="path429" />
    <polygon
       points="389.05,194.33 372.94,214 405.16,214 "
       style="fill:#ffc727"
       id="polygon431" />
    <polygon
       points="373.61,201.19 360.31,214 386.91,214 "
       style="fill:#ffc727"
       id="polygon433" />
    <polygon
       points="373.61,201.19 360.31,214 386.91,214 "
       style="opacity:0.1"
       id="polygon435" />
    <path
       d="m 406.16,215 h -46.85 v -33.47 h 46.85 z m -44.85,-2 h 42.85 v -29.47 h -42.85 z"
       style="fill:#ffc727"
       id="path437" />
    <rect
       x="335.41"
       y="217.39"
       width="45.759998"
       height="18.940001"
       style="fill:#455a64"
       id="rect439" />
    <path
       d="m 346.22,227.08 a 4.77,4.77 0 0 1 0.3,-1.66 4.42,4.42 0 0 1 0.89,-1.47 4.57,4.57 0 0 1 1.42,-1 4.37,4.37 0 0 1 1.92,-0.4 4.2,4.2 0 0 1 2.19,0.56 3.53,3.53 0 0 1 1.37,1.45 l -1.37,0.94 a 2.07,2.07 0 0 0 -0.44,-0.65 2,2 0 0 0 -0.55,-0.42 2.45,2.45 0 0 0 -0.62,-0.23 2.85,2.85 0 0 0 -0.64,-0.07 2.43,2.43 0 0 0 -1.17,0.27 2.54,2.54 0 0 0 -0.82,0.7 3.08,3.08 0 0 0 -0.5,1 3.75,3.75 0 0 0 -0.17,1.09 3.5,3.5 0 0 0 0.19,1.17 3.17,3.17 0 0 0 0.55,1 2.76,2.76 0 0 0 0.86,0.69 2.33,2.33 0 0 0 1.09,0.25 3,3 0 0 0 0.65,-0.07 2.65,2.65 0 0 0 0.64,-0.25 2.26,2.26 0 0 0 0.56,-0.43 2,2 0 0 0 0.41,-0.64 l 1.46,0.84 a 2.68,2.68 0 0 1 -0.62,0.91 4.1,4.1 0 0 1 -0.92,0.67 4.62,4.62 0 0 1 -1.09,0.41 4.56,4.56 0 0 1 -1.14,0.14 3.85,3.85 0 0 1 -1.8,-0.41 4.85,4.85 0 0 1 -2.32,-2.59 4.74,4.74 0 0 1 -0.33,-1.8 z"
       style="fill:#ffffff"
       id="path441" />
    <path
       d="m 361.12,225 a 2.68,2.68 0 0 0 -0.33,-0.25 5.14,5.14 0 0 0 -0.58,-0.3 5.07,5.07 0 0 0 -0.75,-0.25 3.16,3.16 0 0 0 -0.81,-0.11 1.84,1.84 0 0 0 -1.1,0.27 0.92,0.92 0 0 0 -0.36,0.77 0.79,0.79 0 0 0 0.13,0.47 1.24,1.24 0 0 0 0.4,0.33 3.81,3.81 0 0 0 0.65,0.26 c 0.26,0.08 0.57,0.16 0.91,0.24 a 11.75,11.75 0 0 1 1.22,0.39 3.18,3.18 0 0 1 0.93,0.52 2,2 0 0 1 0.59,0.74 2.46,2.46 0 0 1 0.21,1.07 2.61,2.61 0 0 1 -0.28,1.26 2.28,2.28 0 0 1 -0.75,0.85 3.4,3.4 0 0 1 -1.08,0.47 5.43,5.43 0 0 1 -1.29,0.15 6.78,6.78 0 0 1 -2,-0.31 6.4,6.4 0 0 1 -1.82,-0.88 l 0.79,-1.54 a 2.32,2.32 0 0 0 0.42,0.3 7.88,7.88 0 0 0 0.72,0.38 6.58,6.58 0 0 0 0.92,0.32 4.46,4.46 0 0 0 1,0.12 c 1,0 1.48,-0.31 1.48,-0.94 a 0.76,0.76 0 0 0 -0.17,-0.5 1.45,1.45 0 0 0 -0.48,-0.37 4.79,4.79 0 0 0 -0.75,-0.28 l -1,-0.29 a 9,9 0 0 1 -1.15,-0.39 3,3 0 0 1 -0.8,-0.5 1.91,1.91 0 0 1 -0.49,-0.68 2.25,2.25 0 0 1 -0.16,-0.91 2.89,2.89 0 0 1 0.26,-1.24 2.55,2.55 0 0 1 0.72,-0.91 3.33,3.33 0 0 1 1.06,-0.55 4.61,4.61 0 0 1 1.31,-0.18 5.17,5.17 0 0 1 1.79,0.3 6.51,6.51 0 0 1 1.42,0.72 z"
       style="fill:#ffffff"
       id="path443" />
    <path
       d="m 369.05,225 a 2.68,2.68 0 0 0 -0.33,-0.25 5,5 0 0 0 -1.33,-0.55 3.22,3.22 0 0 0 -0.81,-0.11 1.84,1.84 0 0 0 -1.1,0.27 0.93,0.93 0 0 0 -0.37,0.77 0.79,0.79 0 0 0 0.14,0.47 1.31,1.31 0 0 0 0.39,0.33 4.33,4.33 0 0 0 0.66,0.26 c 0.26,0.08 0.57,0.16 0.91,0.24 a 11.75,11.75 0 0 1 1.22,0.39 3.18,3.18 0 0 1 0.93,0.52 2.1,2.1 0 0 1 0.59,0.74 2.46,2.46 0 0 1 0.21,1.07 2.61,2.61 0 0 1 -0.28,1.26 2.28,2.28 0 0 1 -0.75,0.85 3.36,3.36 0 0 1 -1.09,0.47 5.34,5.34 0 0 1 -1.28,0.15 6.89,6.89 0 0 1 -2.05,-0.31 6.48,6.48 0 0 1 -1.81,-0.88 l 0.79,-1.54 a 2.32,2.32 0 0 0 0.42,0.3 5.9,5.9 0 0 0 0.72,0.38 6.58,6.58 0 0 0 0.92,0.32 4.46,4.46 0 0 0 1,0.12 c 1,0 1.48,-0.31 1.48,-0.94 a 0.76,0.76 0 0 0 -0.17,-0.5 1.45,1.45 0 0 0 -0.48,-0.37 5.7,5.7 0 0 0 -0.75,-0.28 l -1,-0.29 a 9,9 0 0 1 -1.15,-0.39 3.19,3.19 0 0 1 -0.81,-0.5 2,2 0 0 1 -0.48,-0.68 2.25,2.25 0 0 1 -0.16,-0.91 2.75,2.75 0 0 1 0.26,-1.24 2.64,2.64 0 0 1 0.71,-0.91 3.5,3.5 0 0 1 1.07,-0.55 4.61,4.61 0 0 1 1.31,-0.18 5.12,5.12 0 0 1 1.78,0.3 6.37,6.37 0 0 1 1.43,0.72 z"
       style="fill:#ffffff"
       id="path445" />
    <polygon
       points="350.88,272.15 398.91,272.15 414.59,287.82 414.59,355.36 350.88,355.36 "
       style="fill:#ffc727"
       id="polygon447" />
    <polygon
       points="350.88,272.15 398.91,272.15 414.59,287.82 414.59,355.36 350.88,355.36 "
       style="opacity:0.6;fill:#ffffff"
       id="polygon449" />
    <polygon
       points="398.91,272.15 414.59,287.82 398.91,287.82 "
       style="fill:#ffc727"
       id="polygon451" />
    <path
       d="m 365.61,301.47 a 4.75,4.75 0 1 0 4.74,-4.77 4.75,4.75 0 0 0 -4.74,4.77 z"
       style="fill:#ffc727"
       id="path453" />
    <polygon
       points="389.05,302.9 372.94,322.57 405.16,322.57 "
       style="fill:#ffc727"
       id="polygon455" />
    <polygon
       points="373.61,309.76 360.31,322.57 386.91,322.57 "
       style="fill:#ffc727"
       id="polygon457" />
    <polygon
       points="373.61,309.76 360.31,322.57 386.91,322.57 "
       style="opacity:0.1"
       id="polygon459" />
    <path
       d="M 406.16,323.57 H 359.31 V 290.1 h 46.85 z m -44.85,-2 h 42.85 V 292.1 h -42.85 z"
       style="fill:#ffc727"
       id="path461" />
    <rect
       x="335.41"
       y="325.95999"
       width="45.759998"
       height="18.940001"
       style="fill:#455a64"
       id="rect463" />
    <path
       d="m 352.34,338.43 a 2.87,2.87 0 0 0 1.59,0.44 1.7,1.7 0 0 0 0.87,-0.19 1.11,1.11 0 0 0 0.49,-0.57 3.09,3.09 0 0 0 0.22,-1 13.4,13.4 0 0 0 0.05,-1.35 v -4.67 h 1.79 v 4.67 a 15.75,15.75 0 0 1 -0.11,1.91 4,4 0 0 1 -0.47,1.47 2.41,2.41 0 0 1 -1,0.94 4,4 0 0 1 -1.81,0.34 3.43,3.43 0 0 1 -2,-0.57 z"
       style="fill:#ffffff"
       id="path465" />
    <path
       d="m 361.43,340.44 a 5.25,5.25 0 0 1 -1.66,-0.27 4.31,4.31 0 0 1 -1.4,-0.78 l 0.65,-1.09 a 5.06,5.06 0 0 0 1.21,0.67 3.23,3.23 0 0 0 1.17,0.22 1.47,1.47 0 0 0 0.81,-0.19 0.62,0.62 0 0 0 0.3,-0.56 0.57,0.57 0 0 0 -0.35,-0.53 7,7 0 0 0 -1.14,-0.38 c -0.44,-0.12 -0.81,-0.24 -1.12,-0.35 a 2.9,2.9 0 0 1 -0.75,-0.39 1.3,1.3 0 0 1 -0.42,-0.49 1.62,1.62 0 0 1 -0.13,-0.66 2.12,2.12 0 0 1 0.2,-0.93 2.06,2.06 0 0 1 0.57,-0.71 2.59,2.59 0 0 1 0.84,-0.44 3.32,3.32 0 0 1 1.06,-0.16 4.46,4.46 0 0 1 1.43,0.22 3.52,3.52 0 0 1 1.22,0.71 l -0.7,1.05 a 4,4 0 0 0 -1,-0.57 2.81,2.81 0 0 0 -1,-0.18 1.36,1.36 0 0 0 -0.73,0.18 0.62,0.62 0 0 0 -0.3,0.58 0.56,0.56 0 0 0 0.07,0.3 0.59,0.59 0 0 0 0.23,0.21 2.66,2.66 0 0 0 0.4,0.17 6.46,6.46 0 0 0 0.63,0.18 q 0.7,0.18 1.2,0.36 a 3.39,3.39 0 0 1 0.81,0.41 1.58,1.58 0 0 1 0.47,0.54 1.61,1.61 0 0 1 0.15,0.73 1.89,1.89 0 0 1 -0.74,1.57 3.2,3.2 0 0 1 -1.98,0.58 z"
       style="fill:#ffffff"
       id="path467" />
    <path
       d="m 328.43,226.86 h -1 v -4 h 1 z m 0,-7 h -1 v -4 h 1 z m 0,-7 h -1 v -4 h 1 z m 0,-7 h -1 v -4 h 1 z m 0,-7 h -1 v -4 h 1 z m 0,-7 h -1 v -4 h 1 z m 0,-7 h -1 v -4 h 1 z m 0,-7 h -1 v -4 h 1 z m 0,-7 h -1 v -4 h 1 z m 0,-7 h -1 v -4 h 1 z m 0,-7 h -1 v -4 h 1 z m 0,-7 h -1 v -4 h 1 z m 0,-7 h -1 v -4 h 1 z m 0,-7 h -1 v -4 h 1 z m 0,-7 h -1 v -4 h 1 z m 0,-7 h -1 v -4.07 h 0.93 v 0.5 h 0.07 z m 3.06,-3.07 h -0.13 v -1 h 0.13 z"
       style="fill:#263238"
       id="path469" />
    <circle
       cx="331.41"
       cy="118.29"
       r="1.5"
       style="fill:#263238"
       id="circle471" />
    <path
       d="m 246.52,245.36 h -1 v -4 h 1 z m 0,-7 h -1 v -4 h 1 z m 0,-7 h -1 v -4 h 1 z m 83,-4 h -4 v -1 h 4 z m -7,0 h -4 v -1 h 4 z m -7,0 h -4 v -1 h 4 z m -7,0 h -4 v -1 h 4 z m -7,0 h -4 v -1 h 4 z m -7,0 h -4 v -1 h 4 z m -7,0 h -4 v -1 h 4 z m -7,0 h -4 v -1 h 4 z m -7,0 h -4 v -1 h 4 z m -7,0 h -4 v -1 h 4 z m -7,0 h -4 v -1 h 4 z m -7,0 h -4 v -1 h 4 z"
       style="fill:#263238"
       id="path473" />
    <path
       d="m 247.53,245.28 a 1.51,1.51 0 1 1 -3,0 1.51,1.51 0 0 1 3,0 z"
       style="fill:#263238"
       id="path475" />
    <circle
       cx="331.41"
       cy="226.86"
       r="1.5"
       style="fill:#263238"
       id="circle477" />
    <path
       d="m 331.49,335.93 h -0.13 v -1 h 0.13 z m -3.13,0 h -0.93 v -4.07 h 1 v 3.57 h -0.07 z m 0.07,-7.07 h -1 v -4 h 1 z m 0,-7 h -1 v -4 h 1 z m 0,-7 h -1 v -4 h 1 z m 0,-7 h -1 v -4 h 1 z m 0,-7 h -1 v -4 h 1 z m 0,-7 h -1 v -4 h 1 z m 0,-7 h -1 v -4 h 1 z m 0,-7 h -1 v -4 h 1 z m 0,-7 h -1 v -4 h 1 z m 0,-7 h -1 v -4 h 1 z m 0,-7 h -1 v -4 h 1 z m 0,-7 h -1 v -4 h 1 z m 0,-7 h -1 v -4 h 1 z m 0,-7 h -1 v -4 h 1 z m 0,-7 h -1 v -4 h 1 z"
       style="fill:#263238"
       id="path479" />
    <circle
       cx="331.41"
       cy="335.42999"
       r="1.5"
       style="fill:#263238"
       id="circle481" />
    <path
       d="m 422.64,226.86 h -1 v -4 h 1 z m 0,-7 h -1 v -4 h 1 z m 0,-7 h -1 v -4 h 1 z m 0,-7 h -1 v -4 h 1 z m 0,-7 h -1 v -4 h 1 z m 0,-7 h -1 v -4 h 1 z m 0,-7 h -1 v -4 h 1 z m 0,-7 h -1 v -4 h 1 z m 0,-7 h -1 v -4 h 1 z m 0,-7 h -1 v -4 h 1 z m 0,-7 h -1 v -4 h 1 z m 0,-7 h -1 v -4 h 1 z m 0,-7 h -1 v -4 h 1 z m 0,-7 h -1 v -4 h 1 z m 0,-7 h -1 v -4 h 1 z m 0,-7 h -1 v -3.57 h 0.07 v -0.5 h 0.93 z m -3.93,-3.07 h -0.13 v -1 h 0.13 z"
       style="fill:#263238"
       id="path483" />
    <circle
       cx="418.66"
       cy="118.29"
       r="1.5"
       style="fill:#263238"
       id="circle485" />
    <path
       d="m 447.1,227.36 h -4 v -1 h 4 z m -7,0 h -4 v -1 h 4 z m -7,0 h -4 v -1 h 4 z m -7,0 h -4 v -1 h 4 z m -7,0 h -0.52 v -1 h 0.52 z"
       style="fill:#263238"
       id="path487" />
    <path
       d="m 447,225.36 a 1.5,1.5 0 1 1 -1.51,1.5 1.5,1.5 0 0 1 1.51,-1.5 z"
       style="fill:#263238"
       id="path489" />
    <circle
       cx="418.66"
       cy="226.86"
       r="1.5"
       style="fill:#263238"
       id="circle491" />
    <path
       d="m 422.64,335.93 h -0.93 v -0.5 h -0.07 v -3.57 h 1 z m -3.93,0 h -0.13 v -1 h 0.13 z m 3.93,-7.07 h -1 v -4 h 1 z m 0,-7 h -1 v -4 h 1 z m 0,-7 h -1 v -4 h 1 z m 0,-7 h -1 v -4 h 1 z m 0,-7 h -1 v -4 h 1 z m 0,-7 h -1 v -4 h 1 z m 0,-7 h -1 v -4 h 1 z m 0,-7 h -1 v -4 h 1 z m 0,-7 h -1 v -4 h 1 z m 0,-7 h -1 v -4 h 1 z m 0,-7 h -1 v -4 h 1 z m 0,-7 h -1 v -4 h 1 z m 0,-7 h -1 v -4 h 1 z m 0,-7 h -1 v -4 h 1 z m 0,-7 h -1 v -4 h 1 z"
       style="fill:#263238"
       id="path493" />
    <circle
       cx="418.66"
       cy="335.42999"
       r="1.5"
       style="fill:#263238"
       id="circle495" />
  </g>
  <g
     id="freepik--Floor--inject-219"
     transform="translate(-51.911671,-55)">
    <polygon
       points="217.66,396.15 375,395.98 532.34,396.15 611.01,396.23 689.67,396.48 611.01,396.72 532.34,396.81 375,396.98 217.66,396.81 138.99,396.72 60.33,396.48 138.99,396.24 "
       style="fill:#263238"
       id="polygon498" />
  </g>
  <g
     id="freepik--Character--inject-219"
     transform="translate(-51.911671,-55)">
    <path
       d="m 94.24,429.28 166.59,0.71 C 301.32,398.2 305.5,351.09 276.62,322.54 259.14,305.27 236.94,308.75 215.8,306 h -0.06 c -7.37,-1 -14.59,-2.67 -21.45,-6.29 -21.76,-11.48 -34,-38.57 -52.35,-61.36 -2.28,-2.85 -4.66,-5.63 -7.17,-8.31 -15.06,-16.08 -45,-16.6 -60.7,6 C 34.23,293.47 52.48,379 94.24,429.28 Z"
       style="fill:#ffc727"
       id="path501" />
    <path
       d="m 90.54,297.85 c 4.37,68.35 83.3,93.86 132.6,73.39 C 266,353.43 252,312.8 215.8,306 h -0.06 c -7.37,-1 -14.59,-2.67 -21.45,-6.29 -21.76,-11.48 -34,-38.57 -52.35,-61.36 -27.28,-14.18 -54.6,9.46 -51.4,59.5 z"
       style="opacity:0.1"
       id="path503" />
    <path
       d="m 247.37,440 c -2.57,-0.94 -60.62,-47.34 -61.72,-50.51 -0.42,-1.2 5.84,-10 13.72,-20.53 1.7,-2.26 3.47,-4.59 5.28,-6.94 11.73,-15.29 24.53,-31.23 24.53,-31.23 l 38.93,30.92 -25.61,30.43 -5.62,6.67 c 0,0 14.29,27.71 15.11,31.31 0.82,3.6 -2.05,10.88 -4.62,9.88 z"
       style="fill:#ad6359"
       id="path505" />
    <path
       d="m 247.37,440 c -2.56,-1 -60.62,-47.34 -61.72,-50.51 -0.34,-1 3.74,-7 9.51,-14.87 8.44,10.09 37.87,40.13 45.91,44.15 5.11,2.55 4.09,-2.46 2.19,-7.44 3.92,7.83 8.28,16.8 8.74,18.74 0.81,3.65 -2,10.93 -4.63,9.93 z"
       style="fill:#263238"
       id="path507" />
    <path
       d="m 307.43,302.29 c -2.67,20.22 -52.51,78.6 -58.27,85.3 l -1.31,1.52 -41.23,-31.68 0.48,-0.61 36.3,-47.54 c 0,0 -60,35 -90.07,19.13 -13.48,-7.14 -23.49,-19.83 -23.49,-19.83 l 39.21,-20.9 c 0,0 10.84,3.51 17.78,2.5 23.9,-3.5 77.45,-23.83 90.15,-23.32 16.39,0.67 32.89,16.87 30.45,35.43 z"
       style="fill:#37474f"
       id="path509" />
    <path
       d="m 256.44,291.61 a 49.87,49.87 0 0 0 -3.75,4.8 c -1.28,1.69 -2.58,3.35 -3.86,5 v 0.05 c 0.23,-0.5 0.45,-1 0.68,-1.48 0.81,-1.68 1.46,-3.41 2.42,-5 a 0.09,0.09 0 1 0 -0.15,-0.09 c -1,1.59 -2.13,3.1 -3,4.77 -0.4,0.79 -0.77,1.59 -1.12,2.4 -0.19,0.44 -0.39,0.89 -0.56,1.34 a 4.14,4.14 0 0 0 -0.23,0.65 c -0.58,0.78 -1.15,1.56 -1.7,2.36 -1.22,1.77 -2.3,3.64 -3.54,5.4 -0.06,0.09 0.09,0.18 0.16,0.09 1.25,-1.65 2.65,-3.19 3.93,-4.83 1.28,-1.64 2.52,-3.38 3.73,-5.11 1.21,-1.73 2.35,-3.39 3.53,-5.08 a 50.56,50.56 0 0 0 3.57,-5.21 c 0.02,-0.04 -0.06,-0.11 -0.11,-0.06 z"
       style="fill:#263238"
       id="path511" />
    <path
       d="m 182.6,237.64 a 0.53,0.53 0 0 1 -0.38,0.59 l -2.12,0.33 c -2.36,-4.83 -4.78,-8.62 -4.1,-7.11 a 25.83,25.83 0 0 1 2,7.42 c -0.94,0.14 -3.11,0.43 -4.21,0.58 -2.43,-8.65 -5.14,-15 -4.83,-13 1.25,8.07 1,10.72 0.68,13.56 -10.16,1.37 -23.5,3 -33.17,4 -1.55,-4.76 -3,-9.94 -3.12,-9.55 -1.08,2.86 -1.09,6.88 -0.85,10 -3.08,0.29 -5.55,0.47 -7.06,0.5 0,0 -1.08,-4 -1.3,-5.36 a 28.25,28.25 0 0 1 0.18,-10.33 50.88,50.88 0 0 1 3.65,-9.9 v -0.07 c 0,0 0,0 0,0 a 28.17,28.17 0 0 0 2,-6.57 c 0,0 0,0 0,0 a 28.89,28.89 0 0 0 0.37,-4.94 c -0.08,-6 2.85,-11.53 8.35,-13.62 9.77,-11 20.82,-7.69 24.72,-0.28 0.38,0.73 0.75,1.56 1.13,2.47 v 0 c 1.39,3.37 2.77,7.79 4,11.19 v 0 c 0,0 0,0 0,0 v 0 a 33.54,33.54 0 0 0 1.62,3.91 c 3.33,6.01 9.84,9.03 12.44,26.18 z"
       style="fill:#263238"
       id="path513" />
    <path
       d="m 136.45,195.94 a 11.38,11.38 0 0 0 -5.74,9.71 29.36,29.36 0 0 1 -0.83,7.59 26.73,26.73 0 0 1 -3.69,6.94 c -2.33,3.47 -3.87,6.86 -3.9,11.19 -0.03,4.33 0.63,9.54 2.46,13.49 0,0 0,0 0,0 a 35.19,35.19 0 0 1 -1.73,-14.14 c 0.39,-4.82 2.82,-8 5.26,-11.91 a 19.9,19.9 0 0 0 3.19,-10.06 c 0.09,-2.19 -0.14,-4.44 0.55,-6.56 0.83,-2.52 2.77,-4.26 4.71,-5.81 a 0.2607681,0.2607681 0 0 0 -0.28,-0.44 z"
       style="fill:#263238"
       id="path515" />
    <path
       d="m 177,217.61 c -2.91,-3.17 -5.88,-5.83 -7.79,-9.92 -1.73,-3.72 -2.88,-7.72 -4.64,-11.44 a 0.045,0 0 0 0 -0.09,0 c 2.79,6.63 3.81,13.48 8.72,18.83 2.67,2.91 5.32,5.59 7.23,9.19 a 33.58,33.58 0 0 1 3.57,12.16 0.11,0.11 0 1 0 0.21,0 27.74,27.74 0 0 0 -7.21,-18.82 z"
       style="fill:#263238"
       id="path517" />
    <path
       d="m 139.93,192.83 c 0,1.45 -6.71,5.29 -11.84,1.85 -5.13,-3.44 -3.46,-10.9 3.33,-10.53 4.28,0.24 8.52,5.6 8.51,8.68 z"
       style="fill:#263238"
       id="path519" />
    <path
       d="m 125.25,188.27 a 8.56,8.56 0 0 1 3.53,-4.38 5.13,5.13 0 0 1 5.13,-0.27 10.34,10.34 0 0 1 4,3.83 15.11,15.11 0 0 1 1.32,2.56 7.8,7.8 0 0 1 0.7,2.82 7,7 0 0 0 -0.19,-3 13.14,13.14 0 0 0 -1.09,-2.83 10,10 0 0 0 -4.26,-4.37 5.91,5.91 0 0 0 -3.13,-0.61 6,6 0 0 0 -2.94,1.15 7.53,7.53 0 0 0 -3.07,5.1 z"
       style="fill:#263238"
       id="path521" />
    <path
       d="m 148.75,246.33 c 7.34,10.54 32.41,39.5 49.81,43.46 9.59,2.19 55.92,8.67 62.27,2.89 7.43,-6.77 4,-32.27 -1.93,-32.5 -18,-0.71 -51.43,2.82 -59.78,1 -3.77,-0.84 -23.77,-13.74 -45.13,-24.06 -8.07,-3.92 -9.99,2.41 -5.24,9.21 z"
       style="fill:#ad6359"
       id="path523" />
    <path
       d="m 166.67,271.59 7,-25.79 c 0,0 -11.75,-6.52 -18.76,-9.21 -9.27,-3.56 -12.77,-1 -7.08,9.82 3.81,7.21 18.84,25.18 18.84,25.18 z"
       style="fill:#ebebeb"
       id="path525" />
    <path
       d="m 164.94,268.31 c 0.76,-3.82 1.57,-7.63 2.56,-11.4 0.49,-1.88 1,-3.76 1.55,-5.62 0.55,-1.86 1.29,-3.68 1.81,-5.55 a 0.08,0.08 0 0 1 0.16,0 c -0.62,1.84 -1,3.78 -1.51,5.65 -0.51,1.87 -1,3.75 -1.52,5.63 -1,3.76 -2,7.52 -2.89,11.29 -0.03,0.16 -0.18,0.11 -0.16,0 z"
       style="fill:#263238"
       id="path527" />
    <path
       d="m 172.58,249.86 -5.9,21.74 c 0,0 -15,-18 -18.85,-25.19 -1.75,-3.33 -2.63,-5.88 -2.74,-7.7 z"
       style="fill:#263238"
       id="path529" />
    <path
       d="m 111,317.71 c 2.3,0.75 67.84,-18.22 67.84,-18.22 l -7.74,-22.75 c 0,0 3.82,-7.32 2.05,-14.36 C 170.8,253 153.4,237.52 152,236.61 146.51,232.97 141.36,233.03 136.81,235.45 117.89,245.52 111,317.71 111,317.71 Z"
       style="fill:#ebebeb"
       id="path531" />
    <path
       d="m 161,244.8 c 1.69,2 3.5,3.84 5.25,5.76 -0.82,-1.43 -1.62,-2.87 -2.49,-4.28 0,0 0,-0.06 0,0 a 32.41,32.41 0 0 1 3.33,5.29 43.74,43.74 0 0 1 3.61,4.62 20.44,20.44 0 0 1 3,6.34 17.3,17.3 0 0 1 0.2,7 44.57,44.57 0 0 1 -2.21,7.84 c -0.12,0.34 -0.6,0.12 -0.51,-0.21 1.23,-4.44 2.63,-9.13 1.64,-13.77 -0.99,-4.64 -3.85,-8.46 -6.63,-12.11 a 67.46,67.46 0 0 0 -5.33,-6.36 c -0.05,-0.09 0.14,-0.2 0.14,-0.12 z"
       style="fill:#263238"
       id="path533" />
    <path
       d="m 150.1,275.1 a 58.42,58.42 0 0 1 8.54,-1 c 1.43,0 2.84,0 4.26,0.07 0.71,0 1.42,0 2.13,0 a 9.1,9.1 0 0 0 2.21,-0.2 0.05,0.05 0 0 1 0,0.1 15.66,15.66 0 0 1 -2,0.53 15.16,15.16 0 0 1 -2,0.18 c -1.44,0 -2.89,0 -4.33,0.06 -2.92,0.06 -5.83,0.12 -8.74,0.4 -0.17,0.11 -0.17,-0.12 -0.07,-0.14 z"
       style="fill:#263238"
       id="path535" />
    <path
       d="m 144,279.44 a 63.18,63.18 0 0 1 6.73,-2.24 c 1.14,-0.31 2.29,-0.54 3.46,-0.75 0.55,-0.1 1.11,-0.19 1.67,-0.27 0.56,-0.08 1.24,-0.1 1.86,-0.2 0.06,0 0.09,0.09 0,0.1 -0.57,0.11 -1.13,0.32 -1.7,0.46 l -1.71,0.43 c -1.15,0.29 -2.29,0.6 -3.43,0.88 -2.3,0.56 -4.58,1.14 -6.85,1.78 -0.11,0.03 -0.15,-0.15 -0.03,-0.19 z"
       style="fill:#263238"
       id="path537" />
    <path
       d="m 140.94,236.73 c 0.26,1.19 5.8,9 11.22,8.78 1.77,-0.06 1.87,-9.7 1.87,-9.7 l 0.17,-0.71 2.37,-9.95 -13.29,-8.71 c 0,0 -2.45,19.78 -2.34,20.29 z"
       style="fill:#ad6359"
       id="path539" />
    <path
       d="m 156.57,225.14 -2.37,10 a 20.55,20.55 0 0 1 -11.74,-11.89 c 0.41,-3.43 0.76,-6.28 0.8,-6.7 a 0.28,0.28 0 0 0 0,-0.06 l 1.69,1 z"
       style="fill:#263238"
       id="path541" />
    <path
       d="m 169.47,206.82 c 4.42,17.4 -5.49,22 -9.25,23 -3.4,0.86 -15.11,3.37 -21.31,-13.47 -6.2,-16.84 0.49,-24.4 8.17,-26.79 7.68,-2.39 17.92,-0.13 22.39,17.26 z"
       style="fill:#ad6359"
       id="path543" />
    <path
       d="m 166.48,205.17 c -0.42,0 -0.81,0 -1.23,0 a 2,2 0 0 1 -1.26,-0.28 0.64,0.64 0 0 1 -0.14,-0.77 1.58,1.58 0 0 1 1.47,-0.64 2.33,2.33 0 0 1 1.58,0.55 0.68,0.68 0 0 1 -0.42,1.14 z"
       style="fill:#263238"
       id="path545" />
    <path
       d="m 154.64,208.75 a 9.56,9.56 0 0 0 1.15,-0.47 2,2 0 0 0 1.08,-0.7 0.64,0.64 0 0 0 -0.14,-0.76 1.58,1.58 0 0 0 -1.6,-0.09 2.32,2.32 0 0 0 -1.29,1.07 0.68,0.68 0 0 0 0.8,0.95 z"
       style="fill:#263238"
       id="path547" />
    <path
       d="m 157.62,210.94 c 0,0 -0.08,0.08 -0.07,0.13 0.29,1.19 0.41,2.6 -0.59,3.22 0,0 0,0.07 0,0.06 1.31,-0.46 1.12,-2.35 0.66,-3.41 z"
       style="fill:#263238"
       id="path549" />
    <path
       d="m 156.3,209.91 c -2,0.25 -1.32,4.14 0.5,3.91 1.82,-0.23 1.14,-4.12 -0.5,-3.91 z"
       style="fill:#263238"
       id="path551" />
    <path
       d="m 155.57,210.24 c -0.31,0.28 -0.58,0.72 -1,0.83 -0.42,0.11 -0.89,-0.22 -1.27,-0.56 0,0 -0.06,0 -0.06,0.05 0.12,0.75 0.53,1.47 1.35,1.45 0.82,-0.02 1.16,-0.77 1.22,-1.55 0.03,-0.14 -0.12,-0.33 -0.24,-0.22 z"
       style="fill:#263238"
       id="path553" />
    <path
       d="m 164.68,209.46 c 0,-0.05 0.11,0 0.11,0.09 0.16,1.22 0.53,2.58 1.69,2.81 0,0 0,0.07 0,0.07 -1.36,0.02 -1.85,-1.79 -1.8,-2.97 z"
       style="fill:#263238"
       id="path555" />
    <path
       d="m 165.56,208 c 1.92,-0.45 2.69,3.42 0.91,3.84 -1.78,0.42 -2.47,-3.43 -0.91,-3.84 z"
       style="fill:#263238"
       id="path557" />
    <path
       d="m 166.42,208.13 c 0.35,0.14 0.72,0.46 1.09,0.41 0.37,-0.05 0.66,-0.54 0.85,-1 0,-0.05 0.06,0 0.07,0 0.17,0.73 0.08,1.55 -0.61,1.83 -0.69,0.28 -1.22,-0.28 -1.54,-1 -0.06,-0.07 0,-0.3 0.14,-0.24 z"
       style="fill:#263238"
       id="path559" />
    <path
       d="m 159,221.21 c 0.32,0.26 0.65,0.62 1.09,0.62 a 3.09,3.09 0 0 0 1.28,-0.43 c 0,0 0.08,0 0.06,0.06 a 1.63,1.63 0 0 1 -1.49,0.8 1.3,1.3 0 0 1 -1,-1 c -0.06,-0.06 0.06,-0.09 0.06,-0.05 z"
       style="fill:#263238"
       id="path561" />
    <path
       d="m 163.45,215.69 c 0,0 0.52,1.77 0.65,2.62 0,0.08 -0.19,0.15 -0.48,0.21 0,0 0,0 0,0 a 4.1,4.1 0 0 1 -4.16,-0.93 0.09,0.09 0 0 1 0.11,-0.14 6.14,6.14 0 0 0 3.86,0.51 c 0,-0.24 -1,-3 -0.86,-3 a 7.88,7.88 0 0 1 2,0.16 c -1,-3.72 -2.53,-7.25 -3.44,-11 a 0.12,0.12 0 0 1 0.22,-0.09 62.31,62.31 0 0 1 4.2,11.64 c 0.11,0.5 -1.73,0.12 -2.1,0.02 z"
       style="fill:#263238"
       id="path563" />
    <path
       d="m 163.53,218.19 a 5,5 0 0 1 -1.57,2 2.2,2.2 0 0 1 -1.31,0.42 c -1,0 -1.26,-0.89 -1.28,-1.69 a 5.62,5.62 0 0 1 0.14,-1.26 6.54,6.54 0 0 0 4.02,0.53 z"
       style="fill:#263238"
       id="path565" />
    <path
       d="m 162,220.18 a 2.2,2.2 0 0 1 -1.31,0.42 c -1,0 -1.26,-0.89 -1.28,-1.69 a 2.34,2.34 0 0 1 2.59,1.27 z"
       style="fill:#ff9cbd"
       id="path567" />
    <path
       d="m 140.16,217.61 c 1.87,-0.62 5.42,-7.18 3.11,-16.41 0,0 1.5,8.43 1.21,9.8 -0.29,1.37 2,-3.68 0.22,-11.15 a 31.28,31.28 0 0 0 8.66,1.91 c 3.76,0 5.89,-0.56 6.07,-0.88 0.18,-0.32 -5.4,-0.57 -7.22,-1.8 0,0 10.47,1.83 14.84,1 0.51,-0.09 -1.63,-10.45 -9.42,-13 -7.79,-2.55 -17,4.93 -19.14,8.42 0,0 -3.19,1.36 -5.48,7.23 -2.29,5.87 5.13,15.55 7.15,14.88 z"
       style="fill:#263238"
       id="path569" />
    <path
       d="m 160.46,210.34 a 5.95,5.95 0 1 0 -5,8 5.59,5.59 0 0 0 1.44,-0.34 5.94,5.94 0 0 0 3.52,-7.64 z m -3.79,6.9 a 5.1539742,5.1539742 0 0 1 -3.57,-9.67 5.07,5.07 0 0 1 1.24,-0.29 5.15,5.15 0 0 1 2.33,10 z"
       style="fill:#ffc727"
       id="path571" />
    <path
       d="m 160.46,210.34 a 5.95,5.95 0 1 0 -5,8 5.59,5.59 0 0 0 1.44,-0.34 5.94,5.94 0 0 0 3.52,-7.64 z m -3.79,6.9 a 5.1539742,5.1539742 0 0 1 -3.57,-9.67 5.07,5.07 0 0 1 1.24,-0.29 5.15,5.15 0 0 1 2.33,10 z"
       style="fill:#ffc727"
       id="path573" />
    <path
       d="m 172.21,208.41 a 7.17,7.17 0 0 0 -2.14,-3.78 3.71,3.71 0 0 0 -6.19,1.39 7.12,7.12 0 0 0 -0.32,4.34 c 0.69,3 3,5.13 5.25,4.89 0.13,0 0.26,0 0.38,-0.06 2.39,-0.54 3.74,-3.58 3.02,-6.78 z m -3.19,6 c -2,0.44 -4.05,-1.46 -4.68,-4.23 a 6.27,6.27 0 0 1 0.27,-3.84 3.18,3.18 0 0 1 2.14,-2 h 0.3 a 3.28,3.28 0 0 1 2.49,0.91 6.39,6.39 0 0 1 1.89,3.36 c 0.62,2.75 -0.43,5.39 -2.43,5.8 z"
       style="fill:#ffc727"
       id="path575" />
    <path
       d="m 172.21,208.41 a 7.17,7.17 0 0 0 -2.14,-3.78 3.71,3.71 0 0 0 -6.19,1.39 7.12,7.12 0 0 0 -0.32,4.34 c 0.69,3 3,5.13 5.25,4.89 0.13,0 0.26,0 0.38,-0.06 2.39,-0.54 3.74,-3.58 3.02,-6.78 z m -3.19,6 c -2,0.44 -4.05,-1.46 -4.68,-4.23 a 6.27,6.27 0 0 1 0.27,-3.84 3.18,3.18 0 0 1 2.14,-2 h 0.3 a 3.28,3.28 0 0 1 2.49,0.91 6.39,6.39 0 0 1 1.89,3.36 c 0.62,2.75 -0.43,5.39 -2.43,5.8 z"
       style="fill:#ffc727"
       id="path577" />
    <path
       d="m 164.07,209.38 -0.45,0.66 c -1.57,-1.08 -3.13,0.93 -3.2,1 l -0.63,-0.49 c 0.71,-0.91 2.52,-2.37 4.28,-1.17 z"
       style="fill:#ffc727"
       id="path579" />
    <path
       d="m 164.07,209.38 -0.45,0.66 c -1.57,-1.08 -3.13,0.93 -3.2,1 l -0.63,-0.49 c 0.71,-0.91 2.52,-2.37 4.28,-1.17 z"
       style="fill:#ffc727"
       id="path581" />
    <path
       d="m 149.49,212.72 c -3,0.38 -11.23,1.51 -12.43,2 -1.2,0.49 -1.94,2.8 -2.16,3.66 l -0.77,-0.2 c 0.09,-0.36 1,-3.52 2.63,-4.19 1.63,-0.67 12.18,-2 12.63,-2 z"
       style="fill:#ffc727"
       id="path583" />
    <path
       d="m 149.49,212.72 c -3,0.38 -11.23,1.51 -12.43,2 -1.2,0.49 -1.94,2.8 -2.16,3.66 l -0.77,-0.2 c 0.09,-0.36 1,-3.52 2.63,-4.19 1.63,-0.67 12.18,-2 12.63,-2 z"
       style="fill:#ffc727"
       id="path585" />
    <path
       d="m 142,216.94 c 0,0 -4.78,-4.89 -7.06,-3.1 -2.28,1.79 1.94,9.32 5.07,9.93 a 3,3 0 0 0 3.74,-2.26 z"
       style="fill:#ad6359"
       id="path587" />
    <path
       d="m 136.22,216 c 0,0 0,0.07 0,0.08 2.2,0.49 3.61,2.23 4.69,4.09 a 1.68,1.68 0 0 0 -2.55,0 c 0,0 0,0.12 0.08,0.1 a 1.85,1.85 0 0 1 2.13,0.31 8.39,8.39 0 0 1 1.24,1.48 c 0.13,0.17 0.45,0 0.34,-0.19 v 0 c -0.4,-2.75 -3.05,-6.1 -5.93,-5.87 z"
       style="fill:#263238"
       id="path589" />
    <path
       d="m 127.85,249.8 c -9.45,28.84 -7.58,51.73 -2.94,55.19 12.47,9.33 47.11,-1 56.7,-2.68 3.88,-0.67 -9,-31.43 -13,-30.22 -9.5,2.84 -23,8.05 -23.48,7.92 -1,-0.24 -1.08,-8 -3.1,-30.72 -1.63,-18.4 -10.32,-11.29 -14.18,0.51 z"
       style="fill:#ad6359"
       id="path591" />
    <path
       d="m 167.53,272.42 c 0,0 15,-6.08 23.23,-8.34 4.59,-1.26 12.66,-2.72 16.45,-2.1 5.68,0.92 28.85,8.42 27.15,14.07 -1.53,5.12 -20.62,-3.84 -20.62,-3.84 0,0 20.06,7.34 17.08,13.17 -2.98,5.83 -23.2,-7.18 -23.2,-7.18 0,0 20.44,8 16.42,13.53 -3,4.17 -22,-6.57 -22,-6.57 0,0 17.52,7 14.58,11.43 -3.26,4.89 -21.39,-3.92 -21.39,-3.92 -9.38,10 -17.93,10.91 -24.09,10.84 -1.51,-0.02 -3.61,-31.09 -3.61,-31.09 z"
       style="fill:#ad6359"
       id="path593" />
    <path
       d="m 207,269.22 c 2.39,0.78 4.81,1.55 7.12,2.54 2.31,0.99 4.59,2.05 6.79,3.25 a 42.44,42.44 0 0 1 8.15,5.48 c -4.71,-3.46 -12.92,-7.12 -15.23,-8.11 -2.31,-0.99 -4.57,-2.08 -6.87,-3.07 z"
       style="fill:#263238"
       id="path595" />
    <path
       d="m 203.25,277.5 c 3,1.12 6,2.13 9,3.39 3,1.26 7,3.14 9.86,4.59 0.22,0.12 0.15,0.48 -0.08,0.38 -2.9,-1.34 -7.14,-3.08 -10.06,-4.38 -2.92,-1.3 -5.78,-2.72 -8.74,-3.91 -0.05,-0.02 -0.02,-0.09 0.02,-0.07 z"
       style="fill:#263238"
       id="path597" />
    <path
       d="m 198.79,284 a 71.64,71.64 0 0 1 13.34,6.23 c 0.22,0.12 0,0.21 -0.19,0.1 -4.4,-2.16 -7.83,-3.88 -13.2,-6.17 -0.09,0 -0.05,-0.16 0.05,-0.16 z"
       style="fill:#263238"
       id="path599" />
    <path
       d="m 168,272.1 c 5.66,-1.83 22.56,-8.73 28.36,-10.08 A 27.6,27.6 0 0 1 211,262 a 69.57,69.57 0 0 1 21,9.88 c 1.28,1 3.19,2.59 2.47,4.36 -0.87,2.16 -6.63,2.15 -13.73,-1.09 -0.25,-0.12 -0.16,-0.27 0.09,-0.17 9.73,3.82 12.59,2.12 13.06,0.79 0.3,-0.86 -0.59,-1.9 -1.35,-2.67 a 18.45,18.45 0 0 0 -3.9,-2.78 80.61,80.61 0 0 0 -15,-6.55 31.53,31.53 0 0 0 -17.53,-0.92 c -5.95,1.37 -22.2,8.17 -28.16,9.45 -0.04,0.05 -0.08,-0.16 0.05,-0.2 z"
       style="fill:#263238"
       id="path601" />
    <path
       d="m 231,282.59 a 13.28,13.28 0 0 0 -3.66,-3.5 30.31,30.31 0 0 0 -5.09,-3.29 0.07,0.07 0 1 0 -0.07,0.12 46.07,46.07 0 0 1 4.6,3.26 27.83,27.83 0 0 1 2.25,2.09 4.69,4.69 0 0 1 1.56,2.57 c 0.18,2 -2.17,2.67 -3.71,2.61 a 15.86,15.86 0 0 1 -3,-0.43 27.69,27.69 0 0 1 -3.92,-1.39 c -0.11,-0.05 -0.32,0.05 -0.21,0.11 2.69,1.31 7.89,4.16 10.61,1.65 a 3,3 0 0 0 0.64,-3.8 z"
       style="fill:#263238"
       id="path603" />
    <path
       d="m 119.14,274.81 25.34,-8.49 c 0,0 -1.1,-13.4 -2.75,-20.72 -2.19,-9.69 -6.31,-11.15 -12.11,-0.44 -3.88,7.17 -10.48,29.65 -10.48,29.65 z"
       style="fill:#ebebeb"
       id="path605" />
    <path
       d="m 120.9,271.55 c 3.61,-1.49 7.22,-2.93 10.91,-4.21 1.84,-0.64 3.68,-1.25 5.54,-1.83 1.86,-0.58 3.77,-1 5.62,-1.58 0.1,0 0.14,0.14 0,0.16 -1.87,0.51 -3.69,1.28 -5.53,1.89 -1.84,0.61 -3.69,1.23 -5.53,1.87 -3.67,1.26 -7.36,2.51 -11,3.86 -0.06,0.03 -0.1,-0.12 -0.01,-0.16 z"
       style="fill:#263238"
       id="path607" />
    <path
       d="m 122.17,273.8 c -1,0.42 -2,0.8 -3,1.2 l -0.35,0.14 0.1,-0.38 q 1.24,-4.83 2.8,-9.56 c 1,-3.16 2.16,-6.29 3.49,-9.34 -0.42,1.61 -0.88,3.21 -1.36,4.8 -0.48,1.59 -0.94,3.18 -1.44,4.76 -1,3.17 -2,6.31 -3.11,9.45 l -0.25,-0.24 c 1.06,-0.29 2.08,-0.58 3.12,-0.83 z"
       style="fill:#263238"
       id="path609" />
    <path
       d="m 123.48,258.94 a 20.8,20.8 0 0 1 -0.79,4.53 19.34,19.34 0 0 1 0.27,-2.29 22,22 0 0 1 0.52,-2.24 z"
       style="fill:#263238"
       id="path611" />
    <path
       d="m 141.4,267.36 c 0.25,-0.14 2.83,-1.1 3,-1.11 -0.17,-1.58 -0.36,-3.15 -0.51,-4.72 -0.08,-0.79 -0.14,-1.58 -0.19,-2.36 -0.05,-0.78 -0.17,-1.86 -0.21,-2.63 a 0.08,0.08 0 1 1 0.16,0 c 0.16,1 0.25,1.74 0.39,2.6 0.14,0.86 0.23,1.54 0.31,2.31 0.19,1.64 0.46,3.37 0.56,5 a 28,28 0 0 1 -3.52,1 c 0,0 -0.04,-0.07 0.01,-0.09 z"
       style="fill:#263238"
       id="path613" />
    <path
       d="m 144.69,257.8 a 8.52,8.52 0 0 1 -0.08,1.43 7.66,7.66 0 0 1 -0.32,1.4 7.54,7.54 0 0 1 0.07,-1.43 8.62,8.62 0 0 1 0.33,-1.4 z"
       style="fill:#263238"
       id="path615" />
    <rect
       x="169.67999"
       y="294.39001"
       width="69.540001"
       height="3.1199999"
       style="fill:#c7c7c7"
       id="rect617" />
    <polygon
       points="239.22,297.51 239.22,294.39 184.56,294.39 182.18,297.51 "
       style="fill:#a6a6a6"
       id="polygon619" />
    <polygon
       points="260.94,251.48 193.17,251.48 187.53,297.5 255.3,297.5 "
       style="fill:#c7c7c7"
       id="polygon621" />
    <path
       d="m 220.11,274.49 a 4,4 0 0 0 4,4.13 4.22,4.22 0 0 0 4.2,-4.13 4,4 0 0 0 -4.05,-4.12 4.21,4.21 0 0 0 -4.15,4.12 z"
       style="fill:#ffffff"
       id="path623" />
    <path
       d="m 260.39,255.93 c 2.56,3.94 8.86,8.55 9.73,11.93 a 4,4 0 0 1 -1.65,4.49 c 0,0 3.65,1.26 3.94,4.46 0.14,1.64 -2.36,3.32 -2.36,3.32 0,0 2.88,1.13 3,4 0.05,2.28 -2.46,3.62 -2.46,3.62 0,0 2.26,2.38 1.57,4.72 -1.38,4.75 -20.78,7.31 -24.73,0.56 -1.83,-3.14 2.94,-3.51 2.94,-3.51 0,0 -7,-1.13 -7.62,-5.12 -0.62,-3.99 5.6,-4.09 5.6,-4.09 0,0 -6.77,-1.15 -7,-5.35 -0.24,-4.37 6,-3.4 6,-3.4 0,0 -4.7,-2.36 -4.15,-5.62 0.92,-5.37 12,0.34 16.11,-1.23 z"
       style="fill:#ad6359"
       id="path625" />
    <path
       d="m 270.18,288 a 0.05,0.05 0 0 1 0,0.1 33.92,33.92 0 0 1 -20.14,1.45 c -0.21,-0.06 -0.21,-0.42 0,-0.41 A 69.4,69.4 0 0 0 270.18,288 Z"
       style="fill:#263238"
       id="path627" />
    <path
       d="m 270.15,280.16 c 0.07,0 0.1,0.1 0,0.13 -6.37,2.44 -14.87,3 -22.07,0.22 -0.25,-0.1 -0.37,-0.43 -0.08,-0.34 5,1.51 16,1.35 22.15,-0.01 z"
       style="fill:#263238"
       id="path629" />
    <path
       d="m 246.85,271.17 c 7,2.44 14.09,2.39 21.36,1.29 0.1,0 0.11,0.12 0,0.16 -3.41,1.5 -8.12,1.72 -11.79,1.58 a 19.52,19.52 0 0 1 -9.69,-2.78 c -0.09,-0.07 -0.03,-0.3 0.12,-0.25 z"
       style="fill:#263238"
       id="path631" />
    <path
       d="m 397.88,387.45 c -0.95,2.57 -47.54,60.48 -50.71,61.56 -1.2,0.42 -10,-5.87 -20.48,-13.78 -2.26,-1.71 -4.58,-3.48 -6.93,-5.3 -15.25,-11.78 -31.15,-24.64 -31.15,-24.64 l 31.05,-38.82 30.3,25.7 6.65,5.64 c 0,0 27.76,-14.19 31.36,-15 3.6,-0.81 10.86,2.08 9.91,4.64 z"
       style="fill:#ad6359"
       id="path633" />
    <path
       d="m 397.88,387.46 c -0.95,2.56 -47.53,60.47 -50.7,61.56 -1.05,0.37 -7.94,-4.4 -16.64,-10.89 8.88,-6.47 42.62,-36.86 47.15,-45.09 2.39,-4.33 -1.09,-4.3 -5.35,-3.1 7,-3.43 13.94,-6.75 15.63,-7.14 3.6,-0.8 10.85,2.09 9.91,4.66 z"
       style="fill:#263238"
       id="path635" />
    <path
       d="M 348.34,386.31 316,429.91 207,354.25 196.48,347 c 0,0 -3,2 -7.46,4.48 -6.23,3.44 -15.35,7.8 -23.42,9 -13.54,2 -36.14,1.79 -47.55,-13.47 -9.61,-12.84 -4.39,-29.6 -4.39,-29.6 L 128.53,311 c 0,0 35.17,-29.3 57.95,-30.18 9.68,-0.39 23.77,7 36.82,14.61 13.05,7.61 125.04,90.88 125.04,90.88 z"
       style="fill:#37474f"
       id="path637" />
    <path
       d="m 196.48,347 c 0,0 -3,2 -7.46,4.48 -7.93,-9.48 -24.7,-26.71 -25.21,-27.32 z"
       style="fill:#263238"
       id="path639" />
    <path
       d="m 141.41,301.15 c -2.1,1.46 -4.13,3 -6.21,4.51 -2.08,1.51 -4.14,2.86 -6.08,4.47 -1.94,1.61 -3.84,3.39 -5.7,5.15 -0.9,0.85 -1.79,1.71 -2.65,2.59 a 24.49,24.49 0 0 0 -2.54,2.75 c -0.06,0.09 0.07,0.2 0.16,0.15 a 30.78,30.78 0 0 0 2.82,-2.3 l 2.93,-2.5 c 1.89,-1.61 3.82,-3.17 5.71,-4.78 1.89,-1.61 3.61,-3.35 5.46,-5 1.85,-1.65 4.08,-3.36 6.15,-5 z"
       style="fill:#263238"
       id="path641" />
    <path
       d="m 340.75,384.75 c -2.1,2.26 -4,4.7 -6,7.09 -2,2.39 -3.92,4.81 -5.85,7.22 -3.88,4.85 -7.79,9.66 -11.6,14.56 -2.09,2.69 -4.15,5.4 -6.1,8.19 -0.09,0.13 0.11,0.27 0.21,0.16 4.17,-4.59 8,-9.48 11.85,-14.31 3.85,-4.83 7.74,-9.66 11.55,-14.61 2.08,-2.68 4.22,-5.35 6.13,-8.16 0.06,-0.11 -0.1,-0.24 -0.19,-0.14 z"
       style="fill:#263238"
       id="path643" />
    <path
       d="m 251.27,385.2 c -5.43,-4.28 -11.05,-8.32 -16.68,-12.33 -5.63,-4.01 -11.19,-8 -16.87,-11.86 -1.63,-1.11 -3.27,-2.2 -4.92,-3.29 -1.65,-1.09 -3.34,-2.1 -5,-3.23 -0.09,-0.06 -0.18,0.09 -0.09,0.16 1.48,1.06 2.87,2.24 4.32,3.34 1.45,1.1 2.76,2.11 4.16,3.14 2.72,2 5.47,4 8.22,6 q 8.35,6 16.85,11.9 c 3.22,2.2 6.42,4.42 9.71,6.52 0.25,0.1 0.48,-0.21 0.3,-0.35 z"
       style="fill:#263238"
       id="path645" />
    <path
       d="m 286.14,340.21 c -5,-4.15 -10.39,-7.89 -15.64,-11.73 -5.25,-3.84 -10.61,-7.81 -15.94,-11.66 l -15.88,-11.48 c -5.14,-3.71 -10.24,-7.48 -15.66,-10.77 -3,-1.79 -6,-3.46 -9.14,-5 a 59.57,59.57 0 0 0 -9.44,-3.86 0.09013878,0.09013878 0 0 0 -0.06,0.17 c 2.67,1.49 5.48,2.74 8.18,4.18 2.7,1.44 5.3,2.92 7.89,4.49 5.38,3.27 10.46,7 15.57,10.64 10.6,7.62 21.17,15.28 31.85,22.8 6,4.2 11.82,8.64 18,12.51 0.22,0.16 0.44,-0.14 0.27,-0.29 z"
       style="fill:#263238"
       id="path647" />
  </g>
  <g
     id="freepik--Plant--inject-219"
     transform="translate(-51.911671,-55)">
    <path
       d="m 649.46,334.19 a 263.89,263.89 0 0 0 -0.38,-27.7 352.79,352.79 0 0 0 -8.68,-56.44 c -2.42,-10.45 -5.4,-20.72 -8.51,-31 -0.09,-0.31 -0.59,-0.23 -0.5,0.1 9.6,36.16 17.48,73.47 16.94,111.06 -0.15,10.52 -1.37,20.85 -2.37,31.3 0,0.28 0.43,0.39 0.5,0.11 1.98,-8.92 2.62,-18.29 3,-27.43 z"
       style="fill:#ffc727"
       id="path650" />
    <path
       d="m 631.39,219.18 c 0,0 -14.55,36.92 -11.29,45.6 3.26,8.68 10,10.53 10,10.53 0,0 -8.9,12.71 -2.68,24.63 6.22,11.92 20,11.35 21,24.87 -0.07,0 0.7,-56.51 -17.03,-105.63 z"
       style="fill:#ffc727"
       id="path652" />
    <path
       d="m 646.77,301.47 a 0.32,0.32 0 0 0 0,-0.19 A 338.13,338.13 0 0 0 632.64,227 c 0,-0.07 -0.14,-0.05 -0.12,0 2.88,10.8 5.45,21.66 7.64,32.57 a 16.16,16.16 0 0 0 -6.94,-3.87 c -0.05,0 -0.08,0.06 0,0.08 a 18.35,18.35 0 0 1 7.17,4.79 c 0.42,2.14 0.84,4.28 1.24,6.42 -3.26,-3.63 -7.76,-5.43 -12.28,-7.15 -0.06,0 -0.09,0.08 0,0.1 4.7,1.91 9.38,4.38 12.56,8.43 q 1.67,9.19 2.92,18.44 a 17.59,17.59 0 0 0 -8.67,-5 c -0.1,0 -0.16,0.13 -0.06,0.16 a 18.32,18.32 0 0 1 8.8,5.63 h 0.06 c 0.29,2.17 0.56,4.35 0.82,6.52 a 22.42,22.42 0 0 0 -6.08,-3.67 c -0.06,0 -0.09,0.07 0,0.1 a 20.71,20.71 0 0 1 6.09,4 h 0.08 c 0.24,2.06 0.49,4.13 0.7,6.21 a 29.56,29.56 0 0 0 -12.34,-8.81 0.08,0.08 0 1 0 -0.06,0.14 32.21,32.21 0 0 1 12.16,9.36 0.28,0.28 0 0 0 0.31,0.1 c 0.31,3.17 0.6,6.36 0.83,9.55 0,0 0.07,0 0.07,0 -0.28,-3.1 -0.54,-6.37 -0.77,-9.63 z"
       style="fill:#263238"
       id="path654" />
    <path
       d="m 635.08,252.06 a 18.21,18.21 0 0 0 -8.74,-2.72 c -0.07,0 -0.08,0.1 0,0.11 a 34.56,34.56 0 0 1 8.64,2.82 c 0.12,0.06 0.21,-0.13 0.1,-0.21 z"
       style="fill:#263238"
       id="path656" />
    <path
       d="m 636.84,291.16 a 18.33,18.33 0 0 0 -6.56,-2.25 c -0.08,0 -0.08,0.11 0,0.13 a 24.42,24.42 0 0 1 6.49,2.27 c 0.08,0.05 0.16,-0.1 0.07,-0.15 z"
       style="fill:#263238"
       id="path658" />
    <path
       d="m 687.7,265.38 a 99.24,99.24 0 0 0 -16.84,14.72 60.65,60.65 0 0 0 -11.81,20 149.61,149.61 0 0 0 -8.79,47.9 116.14,116.14 0 0 0 2.59,27 0.26,0.26 0 0 0 0.5,-0.1 151.1,151.1 0 0 1 0.27,-47.08 c 2.5,-15.28 6.42,-31.89 16.13,-44.31 5.29,-6.76 11.88,-12.08 18.4,-17.57 0.34,-0.33 -0.1,-0.81 -0.45,-0.56 z"
       style="fill:#ffc727"
       id="path660" />
    <path
       d="m 652.4,337 a 90.44,90.44 0 0 1 12.27,-15.69 c 7.28,-7.27 13.41,-12.44 14.35,-17.25 0.94,-4.81 -7.29,-8.36 -7.29,-8.36 0,0 10.07,1.81 12.83,-2.42 2.76,-4.23 4.09,-28.7 4.09,-28.7 0,0 -18.33,13.1 -26.86,31.42 -8.53,18.32 -9.39,41 -9.39,41 z"
       style="fill:#ffc727"
       id="path662" />
    <path
       d="m 682.31,270.87 c -7.71,7.57 -15.47,15.64 -20,25.59 a 98.58,98.58 0 0 0 -4,10.55 v 0 c -0.24,0.72 -0.47,1.44 -0.69,2.17 a 0.19,0.19 0 0 0 0,0.12 208,208 0 0 0 -5.21,22.61 c 0,0.05 0.07,0.08 0.08,0 0.79,-3.82 1.66,-7.68 2.63,-11.52 h 0.11 a 16.08,16.08 0 0 1 4.81,-1.23 c 0.11,0 0.1,-0.2 0,-0.19 a 18,18 0 0 0 -4.76,0.87 c 0.89,-3.47 1.86,-6.93 2.94,-10.34 A 51.74,51.74 0 0 1 669,308.11 c 0,0 0,-0.05 0,-0.05 a 40.69,40.69 0 0 0 -10.68,0.9 c 0.19,-0.58 0.38,-1.16 0.58,-1.75 a 55.11,55.11 0 0 1 7.23,-1.22 0.04,0 90 0 0 0,-0.08 35.14,35.14 0 0 0 -7.08,0.86 c 1,-2.95 2.08,-5.86 3.27,-8.69 a 53.91,53.91 0 0 1 3.46,-6.72 44.8,44.8 0 0 1 5.87,-1 c 0,0 0,-0.1 0,-0.1 a 15.84,15.84 0 0 0 -5.48,0.54 c 1,-1.55 2,-3.08 3.06,-4.55 v 0 c 4.11,-0.91 8.27,-1.76 12.48,-1 0.07,0 0.09,-0.11 0,-0.13 -4,-1.05 -8,-0.44 -12,0.35 0.43,-0.58 0.88,-1.15 1.33,-1.72 a 27.31,27.31 0 0 1 7.67,-1.21 c 0.06,0 0.07,-0.08 0,-0.08 a 20.12,20.12 0 0 0 -7.16,0.63 c 3.4,-4.22 7.15,-8.18 10.86,-12.1 0.21,-0.19 0.08,-0.3 -0.1,-0.12 z"
       style="fill:#263238"
       id="path664" />
    <path
       d="m 682.1,287.56 a 16.42,16.42 0 0 0 -3.64,-0.13 c -0.15,0 -0.14,0.26 0,0.26 1.21,0 2.41,-0.05 3.62,0 0.1,0.02 0.11,-0.12 0.02,-0.13 z"
       style="fill:#263238"
       id="path666" />
    <path
       d="m 668.91,311.31 a 16.33,16.33 0 0 0 -5.64,1.13 c 0,0 0,0.09 0,0.08 1.87,-0.45 3.76,-0.63 5.64,-0.94 a 0.14,0.14 0 0 0 0,-0.27 z"
       style="fill:#263238"
       id="path668" />
    <path
       d="m 665,303.1 a 12,12 0 0 0 -2.39,0.22 c -0.08,0 -0.08,0.14 0,0.14 a 12.13,12.13 0 0 0 2.41,-0.11 0.13,0.13 0 0 0 -0.02,-0.25 z"
       style="fill:#263238"
       id="path670" />
    <path
       d="m 598.69,291.36 a 83.82,83.82 0 0 1 17,8 50.72,50.72 0 0 1 14.18,13.48 125.75,125.75 0 0 1 18.19,36.72 98.18,98.18 0 0 1 4.13,22.4 0.22,0.22 0 0 1 -0.43,0 127,127 0 0 0 -11.1,-38 c -5.55,-11.78 -12.57,-24.33 -23.29,-32.13 -5.85,-4.25 -12.41,-7 -18.95,-10 -0.32,-0.1 -0.07,-0.59 0.27,-0.47 z"
       style="fill:#ffc727"
       id="path672" />
    <path
       d="m 643.82,341.18 a 76,76 0 0 0 -13.56,-9.86 c -7.57,-4.21 -13.73,-7 -15.61,-10.65 -1.88,-3.65 4,-8.45 4,-8.45 0,0 -7.73,3.79 -10.94,1 -3.21,-2.79 -9.94,-22.29 -9.94,-22.29 0,0 17.85,6.35 29,19.22 11.15,12.87 17.05,31.03 17.05,31.03 z"
       style="fill:#ffc727"
       id="path674" />
    <path
       d="m 642.89,337.16 c -8.93,-16.76 -20.84,-31.92 -37.17,-41.93 0,0 0,0 0,0 a 82.7,82.7 0 0 1 11.94,9.35 18.94,18.94 0 0 0 -9.59,2 c -0.07,0 0,0.12 0,0.1 a 26.27,26.27 0 0 1 9.88,-1.67 0.18,0.18 0 0 0 0.11,0 c 0.58,0.55 1.15,1.11 1.72,1.67 a 30.41,30.41 0 0 0 -5.13,0.68 c -0.05,0 0,0.08 0,0.07 a 26.63,26.63 0 0 1 5.42,-0.45 114.18,114.18 0 0 1 8.42,9.56 8.7,8.7 0 0 0 -3.59,0.26 0.07,0.07 0 0 0 0,0.14 18.87,18.87 0 0 1 3.83,-0.05 c 0.49,0.62 1,1.24 1.46,1.87 a 34.67,34.67 0 0 0 -10.83,1.05 0.04,0 -90 0 0 0,0.08 43.74,43.74 0 0 1 11.13,-0.72 c 0.45,0.6 0.89,1.23 1.33,1.84 a 23.08,23.08 0 0 0 -6.45,0.74 0.06,0.06 0 1 0 0,0.12 24.89,24.89 0 0 1 6.67,-0.52 q 2.88,4 5.53,8.09 a 6.17,6.17 0 0 0 -2.83,0.17 0.04,0 -90 0 0 0,0.08 12.05,12.05 0 0 1 3.06,0.15 q 2.38,3.71 4.6,7.48 c 0.26,0.22 0.6,0.06 0.49,-0.16 z"
       style="fill:#263238"
       id="path676" />
    <path
       d="m 629,323.26 a 13.83,13.83 0 0 0 -5.19,0.63 c 0,0 0,0.09 0,0.08 a 38.73,38.73 0 0 1 5.16,-0.53 c 0.13,-0.01 0.15,-0.17 0.03,-0.18 z"
       style="fill:#263238"
       id="path678" />
    <path
       d="M 613.43,302.83 A 9.13,9.13 0 0 0 611,303 a 0.07,0.07 0 1 0 0,0.14 c 0.79,-0.08 1.57,-0.05 2.35,-0.07 a 0.12649111,0.12649111 0 0 0 0.08,-0.24 z"
       style="fill:#263238"
       id="path680" />
    <polygon
       points="632.29,354.51 633.76,343.72 659.63,343.72 661.1,354.51 666.84,396.59 626.55,396.59 "
       style="fill:#455a64"
       id="polygon682" />
    <polygon
       points="633.76,343.72 659.63,343.72 661.1,354.51 632.29,354.51 "
       style="fill:#263238"
       id="polygon684" />
    <rect
       x="630.06"
       y="339.97"
       width="33.259998"
       height="9.1400003"
       style="fill:#455a64"
       id="rect686" />
  </g>
</svg>
