<svg xmlns="http://www.w3.org/2000/svg" viewBox="0 0 500 500"><g id="freepik--background-complete--inject-160"><path d="M81.35,354l-13.44.28-6.81.11c-2.28,0-4.57,0-6.85.06H53.8V354l0-11.45V342h.51l13.55.06c4.51,0,9,.12,13.55.17h.27v.27c0,1.94-.09,3.88-.13,5.79Zm0,0-.14-5.78c0-1.91-.12-3.79-.14-5.67l.28.27c-4.52.06-9,.16-13.55.17L54.25,343l.5-.5L54.69,354l-.44-.44c2.23,0,4.46,0,6.7.05l6.73.11Z" style="fill:#ebebeb"></path><path d="M66.23,368.4l-13.44.28-6.81.11c-2.28,0-4.57,0-6.85.06h-.44v-.45l0-11.45v-.5h.5l13.55.07c4.52,0,9,.11,13.55.16h.28V357c0,1.94-.08,3.88-.13,5.79Zm0,0-.14-5.78c0-1.91-.11-3.79-.13-5.67l.27.27c-4.52.06-9,.16-13.55.17l-13.55.06.5-.5-.06,11.45-.44-.44c2.23,0,4.46,0,6.7.05l6.73.11Z" style="fill:#ebebeb"></path><rect x="69.36" y="356.95" width="27.1" height="11.45" style="fill:#ebebeb"></rect><path d="M428.84,197l-13.43.28-6.82.11c-2.28.05-4.56,0-6.85.06h-.44V197l-.06-11.45V185h.5l13.55.06c4.52,0,9,.12,13.55.17h.28v.27c0,1.94-.09,3.87-.14,5.79Zm0,0-.14-5.78c0-1.91-.11-3.79-.13-5.67l.27.27c-4.51.05-9,.16-13.55.17l-13.55.06.5-.5L402.19,197l-.45-.44c2.24,0,4.46,0,6.7,0l6.74.11Z" style="fill:#ebebeb"></path><rect x="386.62" y="199.98" width="27.1" height="11.45" style="fill:#ebebeb"></rect><path d="M444,211.43l-13.43.28-6.82.11c-2.28.05-4.57,0-6.85.06h-.44v-.45L416.36,200v-.5h.5l13.55.06c4.52,0,9,.12,13.55.17h.28V200c0,1.94-.08,3.87-.13,5.79Zm0,0-.14-5.78c-.05-1.91-.11-3.79-.13-5.67l.27.27c-4.52.05-9,.16-13.55.17l-13.55.06.5-.5-.05,11.45-.45-.44c2.23,0,4.46,0,6.7,0l6.73.11Z" style="fill:#ebebeb"></path><rect x="418.65" y="356.95" width="27.1" height="11.45" style="fill:#ebebeb"></rect><path d="M445.75,58.46l-13.43.28-6.82.11c-2.28,0-4.56,0-6.85.06h-.44v-.45L418.15,47v-.5h.5l13.55.06c4.52,0,9,.12,13.55.17H446V47c0,1.94-.09,3.87-.13,5.78Zm0,0-.14-5.78c0-1.91-.11-3.8-.13-5.67l.27.27c-4.51,0-9,.16-13.55.17l-13.55.06.5-.5,0,11.45-.45-.44c2.24,0,4.46,0,6.7,0l6.74.11Z" style="fill:#ebebeb"></path><rect x="433.77" y="61.45" width="27.1" height="11.45" style="fill:#ebebeb"></rect><path d="M66.23,58.47l-13.44.28L46,58.86c-2.28,0-4.57,0-6.85.06h-.44v-.45l0-11.45v-.5h.5l13.55.07c4.52,0,9,.11,13.55.16h.28V47c0,1.94-.08,3.88-.13,5.79Zm0,0-.14-5.78C66,50.78,66,48.9,66,47l.27.28c-4.52.05-9,.15-13.55.16l-13.55.06.5-.5-.06,11.45L39.13,58c2.23,0,4.46,0,6.7,0l6.73.12Z" style="fill:#ebebeb"></path><rect x="91.97" y="215.78" width="27.1" height="11.45" style="fill:#ebebeb"></rect><rect x="199.89" y="310.23" width="27.1" height="11.45" style="fill:#ebebeb"></rect><path d="M201.69,86.67l13.44-.27,6.81-.12c2.28,0,4.57,0,6.85,0h.45v.45l0,11.46v.5h-.5l-13.55-.07c-4.51,0-9-.11-13.55-.16h-.27v-.27c0-1.95.09-3.88.13-5.79Zm0,0,.14,5.79c0,1.9.12,3.79.14,5.67l-.28-.28c4.52,0,9-.16,13.55-.16l13.55-.06-.5.5.06-11.46.44.45c-2.23,0-4.46,0-6.7-.06L215.36,87Z" style="fill:#ebebeb"></path><path d="M216.81,72.23,230.25,72l6.81-.11c2.28,0,4.57,0,6.85,0h.44v.45l0,11.46v.5h-.5l-13.55-.06c-4.52,0-9-.11-13.55-.16h-.28v-.27c0-2,.08-3.88.13-5.79Zm0,0L217,78c.05,1.9.11,3.79.13,5.67l-.27-.28c4.52,0,9-.16,13.55-.16l13.55-.06-.5.5.06-11.46.44.45c-2.23,0-4.46,0-6.7-.06l-6.73-.11Z" style="fill:#ebebeb"></path><rect x="56.29" y="170.02" width="36.05" height="36.05" transform="translate(262.35 113.73) rotate(90)" style="fill:#dbdbdb"></rect><rect x="61.88" y="175.61" width="24.87" height="24.87" transform="translate(262.35 113.73) rotate(90)" style="fill:#fff"></rect><polygon points="86.75 175.6 61.88 175.6 61.88 200.47 86.75 175.6" style="fill:#ebebeb"></polygon><rect x="52.76" y="170.02" width="3.52" height="36.05" transform="translate(109.05 376.08) rotate(180)" style="fill:#c7c7c7"></rect><rect x="100.91" y="170.02" width="36.05" height="36.05" transform="translate(306.97 69.11) rotate(90)" style="fill:#dbdbdb"></rect><rect x="106.5" y="175.61" width="24.87" height="24.87" transform="translate(306.97 69.11) rotate(90)" style="fill:#fff"></rect><polygon points="124.07 175.6 106.5 175.6 106.5 193.17 124.07 175.6" style="fill:#ebebeb"></polygon><rect x="97.39" y="170.02" width="3.52" height="36.05" transform="translate(198.3 376.08) rotate(180)" style="fill:#c7c7c7"></rect><rect x="73.07" y="197.91" width="47.11" height="80.67" transform="translate(334.87 141.62) rotate(90)" style="fill:#dbdbdb"></rect><rect x="78.89" y="203.8" width="35.46" height="68.89" transform="translate(334.87 141.62) rotate(90)" style="fill:#fff"></rect><polygon points="107.34 220.52 62.18 220.52 62.18 243.76 107.34 220.52" style="fill:#ebebeb"></polygon><rect x="52.76" y="214.69" width="3.52" height="47.11" transform="translate(109.05 476.49) rotate(180)" style="fill:#c7c7c7"></rect><rect x="56.29" y="80.94" width="80.67" height="80.67" transform="translate(217.9 24.65) rotate(90)" style="fill:#dbdbdb"></rect><rect x="62.17" y="86.83" width="68.9" height="68.89" style="fill:#fff"></rect><path d="M62.17,136.43c10.48-10.42,40.15-39.94,49.69-49.6H62.17Z" style="fill:#ebebeb"></path><rect x="52.76" y="80.94" width="3.52" height="80.67" transform="translate(109.05 242.55) rotate(180)" style="fill:#c7c7c7"></rect></g><g id="freepik--Table--inject-160"><polygon points="39.13 454.76 91.85 454.52 144.56 454.43 250 454.27 355.44 454.43 408.15 454.52 460.87 454.76 408.15 455.01 355.44 455.1 250 455.26 144.56 455.1 91.85 455.01 39.13 454.76" style="fill:#263238"></polygon></g><g id="freepik--Article--inject-160"><rect x="87.9" y="53.6" width="324.94" height="247.04" style="fill:#fff"></rect><path d="M412.84,300.64l-324.94.14h-.14v-.14l-.11-247v-.25h.25l324.94.14H413v.11Zm0,0-.1-247,.1.1L87.9,53.85l.25-.25-.11,247-.14-.14Z" style="fill:#263238"></path><rect x="87.9" y="53.41" width="324.94" height="8.95" style="fill:#455a64"></rect><path d="M95.66,57.89a1.95,1.95,0,1,1-2-2A2,2,0,0,1,95.66,57.89Z" style="fill:#c7c7c7"></path><path d="M103.61,57.89a2,2,0,1,1-2-2A2,2,0,0,1,103.61,57.89Z" style="fill:#fff"></path><path d="M111.55,57.89a1.95,1.95,0,1,1-1.94-2A1.94,1.94,0,0,1,111.55,57.89Z" style="fill:#FFC727"></path><rect x="314.17" y="119.76" width="70.28" height="67.52" transform="translate(698.62 307.04) rotate(180)" style="fill:#455a64"></rect><polygon points="337.36 164.15 384.45 164.15 360.9 140.5 337.36 164.15" style="fill:#263238"></polygon><polygon points="314.17 164.17 355.93 164.17 335.05 148.77 314.17 164.17" style="fill:#37474f"></polygon><rect x="314.17" y="164.15" width="70.28" height="23.13" style="fill:#37474f"></rect><path d="M333.9,136.46a6,6,0,1,1-6-6A6,6,0,0,1,333.9,136.46Z" style="fill:#fff"></path><path d="M275.65,120.3c1.92-.15,3.84-.23,5.77-.29s3.84-.08,5.77-.09,3.84,0,5.77.09,3.84.13,5.77.29c-1.93.16-3.85.23-5.77.29s-3.85.08-5.77.08-3.85,0-5.77-.08S277.57,120.45,275.65,120.3Z" style="fill:#c7c7c7"></path><path d="M222,120.3c4-.15,8-.23,12-.29l12-.08,12,.08c4,.06,8,.13,12,.29-4,.16-8,.23-12,.29l-12,.08-12-.08C230,120.53,226,120.45,222,120.3Z" style="fill:#c7c7c7"></path><path d="M187,120.3c2.35-.15,4.71-.23,7.07-.29s4.71-.05,7.07-.08,4.71,0,7.06.08,4.72.13,7.07.29c-2.35.16-4.71.23-7.07.29s-4.71,0-7.06.08-4.72,0-7.07-.08S189.32,120.45,187,120.3Z" style="fill:#c7c7c7"></path><path d="M139.53,120.3c3.19-.15,6.38-.23,9.57-.29s6.38-.05,9.57-.08,6.38,0,9.57.08,6.38.13,9.58.29c-3.2.16-6.39.23-9.58.29s-6.38,0-9.57.08-6.38,0-9.57-.08S142.72,120.45,139.53,120.3Z" style="fill:#c7c7c7"></path><path d="M281.19,129.87c1.46-.16,2.92-.23,4.38-.29s2.93-.08,4.39-.09,2.92,0,4.38.09,2.93.13,4.39.29c-1.46.15-2.93.23-4.39.29s-2.92.07-4.38.08-2.93,0-4.39-.09S282.65,130,281.19,129.87Z" style="fill:#c7c7c7"></path><path d="M244.21,129.87c2.62-.16,5.24-.23,7.86-.29s5.24-.06,7.86-.09,5.24,0,7.86.09,5.24.13,7.86.29c-2.62.15-5.24.23-7.86.29s-5.24.05-7.86.08-5.24,0-7.86-.09S246.83,130,244.21,129.87Z" style="fill:#c7c7c7"></path><path d="M199.89,129.87c3.11-.16,6.23-.23,9.34-.29s6.23-.06,9.34-.09,6.23,0,9.35.09,6.22.13,9.34.29c-3.12.15-6.23.23-9.34.29s-6.23.05-9.35.08-6.22,0-9.34-.09S203,130,199.89,129.87Z" style="fill:#c7c7c7"></path><path d="M139.53,129.87c4.41-.16,8.83-.23,13.24-.29l13.25-.09,13.24.09c4.42.06,8.83.13,13.25.29-4.42.15-8.83.23-13.25.29l-13.24.08-13.25-.09C148.36,130.09,143.94,130,139.53,129.87Z" style="fill:#c7c7c7"></path><path d="M279.19,139.44c1.63-.16,3.26-.23,4.89-.29s3.25-.08,4.88-.09,3.26,0,4.88.09,3.26.13,4.89.29c-1.63.15-3.26.22-4.89.28s-3.25.08-4.88.09-3.26,0-4.88-.09S280.82,139.59,279.19,139.44Z" style="fill:#c7c7c7"></path><path d="M252.21,139.44c1.71-.16,3.42-.23,5.13-.29s3.42-.08,5.14-.09,3.42,0,5.13.09,3.42.13,5.14.29c-1.72.15-3.43.22-5.14.28s-3.42.08-5.13.09-3.43,0-5.14-.09S253.92,139.59,252.21,139.44Z" style="fill:#c7c7c7"></path><path d="M210.81,139.44c3.1-.16,6.21-.23,9.31-.29s6.22-.06,9.32-.09,6.21,0,9.32.09,6.21.13,9.32.29c-3.11.15-6.22.22-9.32.28s-6.21.06-9.32.09-6.21,0-9.32-.09S213.91,139.59,210.81,139.44Z" style="fill:#c7c7c7"></path><path d="M178.29,139.44c2.37-.16,4.73-.23,7.09-.29s4.73-.06,7.09-.09,4.73,0,7.09.09,4.73.13,7.09.29c-2.36.15-4.73.22-7.09.28s-4.73.06-7.09.09-4.72,0-7.09-.09S180.66,139.59,178.29,139.44Z" style="fill:#c7c7c7"></path><path d="M115.59,139.44c4.66-.16,9.33-.23,14-.29l14-.09,14,.09c4.66.06,9.33.13,14,.29-4.66.15-9.33.22-14,.28l-14,.09-14-.09C124.92,139.66,120.25,139.59,115.59,139.44Z" style="fill:#c7c7c7"></path><path d="M196,149c2-.15,4-.22,6-.28s4-.08,6-.09,4,0,6,.09,4,.13,6,.28c-2,.16-4,.23-6,.29s-4,.08-6,.09-4,0-6-.09S198,149.16,196,149Z" style="fill:#c7c7c7"></path><path d="M154.84,149c3-.15,6-.22,8.93-.28s6-.06,8.94-.09,5.95,0,8.93.09,6,.13,8.93.28c-3,.16-6,.23-8.93.29s-6,.06-8.93.09-6,0-8.94-.09S157.82,149.16,154.84,149Z" style="fill:#c7c7c7"></path><path d="M115.59,149c2.83-.15,5.65-.22,8.48-.28s5.65-.06,8.48-.09,5.65,0,8.47.09,5.66.13,8.48.28c-2.82.16-5.65.23-8.48.29s-5.65.06-8.47.09-5.66,0-8.48-.09S118.42,149.16,115.59,149Z" style="fill:#c7c7c7"></path><path d="M275.65,168.14c1.92-.16,3.84-.23,5.77-.29s3.84-.08,5.77-.09,3.84,0,5.77.09,3.84.13,5.77.29c-1.93.16-3.85.23-5.77.29s-3.85.08-5.77.08-3.85,0-5.77-.08S277.57,168.29,275.65,168.14Z" style="fill:#c7c7c7"></path><path d="M229.59,168.14c3.38-.16,6.75-.23,10.13-.29s6.75,0,10.13-.08,6.75,0,10.13.08,6.75.13,10.13.29c-3.38.16-6.76.23-10.13.29s-6.76,0-10.13.08-6.76,0-10.13-.08S233,168.29,229.59,168.14Z" style="fill:#c7c7c7"></path><path d="M188.74,168.14c2.85-.16,5.69-.23,8.54-.29s5.69,0,8.53-.08,5.7,0,8.54.08,5.69.13,8.54.29c-2.85.16-5.69.23-8.54.29s-5.69,0-8.54.08-5.69,0-8.53-.08S191.59,168.29,188.74,168.14Z" style="fill:#c7c7c7"></path><path d="M162.5,168.14c1.67-.16,3.34-.23,5-.29s3.34-.08,5-.09,3.34,0,5,.09,3.34.13,5,.29c-1.67.16-3.34.23-5,.29s-3.34.08-5,.08-3.33,0-5-.08S164.17,168.29,162.5,168.14Z" style="fill:#c7c7c7"></path><path d="M115.59,168.14c3.39-.16,6.79-.23,10.18-.29s6.79,0,10.18-.08,6.79,0,10.19.08,6.78.13,10.18.29c-3.4.16-6.79.23-10.18.29s-6.79,0-10.19.08-6.78,0-10.18-.08S119,168.29,115.59,168.14Z" style="fill:#c7c7c7"></path><path d="M280.2,177.71c1.55-.16,3.09-.23,4.63-.29s3.09-.08,4.63-.09,3.09,0,4.64.09,3.08.13,4.63.29c-1.55.15-3.09.23-4.63.29s-3.09.07-4.64.08-3.08,0-4.63-.09S281.75,177.86,280.2,177.71Z" style="fill:#c7c7c7"></path><path d="M243.58,177.71c2.5-.16,5-.23,7.51-.29s5-.06,7.52-.09,5,0,7.52.09,5,.13,7.52.29c-2.51.15-5,.23-7.52.29s-5,.05-7.52.08-5,0-7.52-.09S246.08,177.86,243.58,177.71Z" style="fill:#c7c7c7"></path><path d="M207.16,177.71c2.61-.16,5.23-.23,7.84-.29s5.23-.06,7.85-.09,5.22,0,7.84.09,5.23.13,7.84.29c-2.61.15-5.23.23-7.84.29s-5.23.05-7.84.08-5.23,0-7.85-.09S209.77,177.86,207.16,177.71Z" style="fill:#c7c7c7"></path><path d="M179.61,177.71c1.79-.16,3.58-.23,5.38-.29s3.58-.08,5.37-.09,3.58,0,5.37.09,3.58.13,5.38.29c-1.8.15-3.59.23-5.38.29s-3.58.07-5.37.08-3.58,0-5.37-.09S181.4,177.86,179.61,177.71Z" style="fill:#c7c7c7"></path><path d="M143.58,177.71c2.56-.16,5.12-.23,7.68-.29s5.13-.06,7.69-.09,5.12,0,7.69.09,5.12.13,7.68.29c-2.56.15-5.12.23-7.68.29s-5.13.05-7.69.08-5.13,0-7.69-.09S146.14,177.86,143.58,177.71Z" style="fill:#c7c7c7"></path><path d="M115.59,177.71c2-.16,4-.23,6-.29s4-.08,6-.09,4,0,6,.09,4,.13,6,.29c-2,.15-4,.23-6,.29s-4,.07-6,.08-4,0-6-.09S117.59,177.86,115.59,177.71Z" style="fill:#c7c7c7"></path><path d="M213.44,187.28c2.22-.16,4.43-.23,6.65-.29s4.43-.06,6.65-.09,4.43,0,6.65.09,4.43.13,6.65.29c-2.22.15-4.43.22-6.65.28s-4.43.06-6.65.09-4.43,0-6.65-.09S215.66,187.43,213.44,187.28Z" style="fill:#c7c7c7"></path><path d="M192.47,187.28c1.36-.16,2.72-.23,4.09-.29s2.72-.08,4.08-.09,2.72,0,4.08.09,2.73.13,4.09.29c-1.36.15-2.72.22-4.09.28s-2.72.08-4.08.09-2.72,0-4.08-.09S193.83,187.43,192.47,187.28Z" style="fill:#c7c7c7"></path><path d="M159.81,187.28c2.23-.16,4.45-.23,6.68-.29s4.46-.06,6.69-.09,4.46,0,6.69.09,4.46.13,6.69.29c-2.23.15-4.46.22-6.69.28s-4.46.06-6.69.09-4.46,0-6.69-.09S162,187.43,159.81,187.28Z" style="fill:#c7c7c7"></path><path d="M115.59,187.28c3.21-.16,6.42-.23,9.63-.29s6.42-.06,9.63-.09,6.42,0,9.63.09,6.42.13,9.63.29c-3.21.15-6.42.22-9.63.28s-6.42.06-9.63.09-6.42,0-9.63-.09S118.8,187.43,115.59,187.28Z" style="fill:#c7c7c7"></path><path d="M365.43,196.84c1.59-.15,3.17-.22,4.76-.28s3.16-.08,4.75-.09,3.17,0,4.75.09,3.17.13,4.76.28c-1.59.16-3.17.23-4.76.29s-3.17.08-4.75.09-3.17,0-4.75-.09S367,197,365.43,196.84Z" style="fill:#c7c7c7"></path><path d="M327.89,196.84c2.75-.15,5.5-.22,8.25-.28s5.5-.06,8.25-.09,5.51,0,8.26.09,5.5.13,8.25.28c-2.75.16-5.5.23-8.25.29s-5.51.06-8.26.09-5.5,0-8.25-.09S330.64,197,327.89,196.84Z" style="fill:#c7c7c7"></path><path d="M281.19,196.84c3.39-.15,6.78-.22,10.17-.28s6.78-.06,10.17-.09,6.78,0,10.17.09,6.78.13,10.17.28c-3.39.16-6.78.23-10.17.29s-6.78.06-10.17.09-6.78,0-10.17-.09S284.58,197,281.19,196.84Z" style="fill:#c7c7c7"></path><path d="M246.81,196.84c2.4-.15,4.81-.22,7.21-.28s4.81-.06,7.21-.09,4.81,0,7.21.09,4.8.13,7.21.28c-2.41.16-4.81.23-7.21.29s-4.81.06-7.21.09-4.81,0-7.21-.09S249.21,197,246.81,196.84Z" style="fill:#c7c7c7"></path><path d="M206.65,196.84c2.78-.15,5.57-.22,8.35-.28s5.56-.06,8.35-.09,5.56,0,8.34.09,5.57.13,8.35.28c-2.78.16-5.57.23-8.35.29s-5.56.06-8.34.09-5.57,0-8.35-.09S209.43,197,206.65,196.84Z" style="fill:#c7c7c7"></path><path d="M169.28,196.84c2.65-.15,5.3-.22,7.95-.28s5.31-.06,8-.09,5.31,0,8,.09,5.3.13,8,.28c-2.66.16-5.31.23-8,.29s-5.31.06-8,.09-5.3,0-8-.09S171.93,197,169.28,196.84Z" style="fill:#c7c7c7"></path><path d="M115.84,196.84c4-.15,8-.22,12.08-.28l12.07-.09,12.07.09c4,.06,8.05.13,12.07.28-4,.16-8,.23-12.07.29l-12.07.09-12.07-.09C123.89,197.07,119.87,197,115.84,196.84Z" style="fill:#c7c7c7"></path><path d="M351,206.41c2.79-.15,5.57-.23,8.36-.29s5.57-.05,8.35-.08,5.58,0,8.36.08,5.57.14,8.36.29c-2.79.16-5.57.23-8.36.29s-5.57.06-8.36.09-5.57,0-8.35-.09S353.81,206.57,351,206.41Z" style="fill:#c7c7c7"></path><path d="M319.32,206.41c2.23-.15,4.47-.23,6.71-.29s4.47-.05,6.7-.08,4.47,0,6.71.08,4.47.14,6.7.29c-2.23.16-4.47.23-6.7.29s-4.47.06-6.71.09-4.47,0-6.7-.09S321.55,206.57,319.32,206.41Z" style="fill:#c7c7c7"></path><path d="M293.35,206.41c1.59-.15,3.18-.23,4.77-.29s3.19-.07,4.78-.08,3.18,0,4.77.08,3.19.14,4.78.29c-1.59.16-3.19.23-4.78.29s-3.18.08-4.77.09-3.18,0-4.78-.09S294.94,206.57,293.35,206.41Z" style="fill:#c7c7c7"></path><path d="M261.23,206.41c2.16-.15,4.33-.23,6.49-.29s4.33-.05,6.49-.08,4.33,0,6.49.08,4.32.14,6.49.29c-2.17.16-4.33.23-6.49.29s-4.33.06-6.49.09-4.33,0-6.49-.09S263.39,206.57,261.23,206.41Z" style="fill:#c7c7c7"></path><path d="M218.57,206.41c3-.15,6-.23,9-.29s6-.05,9-.08,6,0,9,.08,6,.14,9,.29c-3,.16-6,.23-9,.29s-6,.06-9,.09-6,0-9-.09S221.57,206.57,218.57,206.41Z" style="fill:#c7c7c7"></path><path d="M180,206.41c2.79-.15,5.57-.23,8.36-.29s5.57-.05,8.35-.08,5.57,0,8.36.08,5.57.14,8.35.29c-2.78.16-5.57.23-8.35.29s-5.57.06-8.36.09-5.57,0-8.35-.09S182.81,206.57,180,206.41Z" style="fill:#c7c7c7"></path><path d="M147.51,206.41c2.34-.15,4.68-.23,7-.29s4.68-.05,7-.08,4.68,0,7,.08,4.69.14,7,.29c-2.34.16-4.69.23-7,.29s-4.69.06-7,.09-4.69,0-7-.09S149.85,206.57,147.51,206.41Z" style="fill:#c7c7c7"></path><path d="M115.84,206.41c2.11-.15,4.22-.23,6.33-.29s4.21-.05,6.32-.08,4.22,0,6.33.08,4.21.14,6.32.29c-2.11.16-4.22.23-6.32.29s-4.22.06-6.33.09-4.21,0-6.32-.09S118,206.57,115.84,206.41Z" style="fill:#c7c7c7"></path><path d="M309.34,216c2.4-.16,4.79-.23,7.19-.29s4.79-.05,7.19-.09,4.79,0,7.19.09,4.79.13,7.18.29c-2.39.16-4.79.23-7.18.29s-4.8,0-7.19.08-4.79,0-7.19-.08S311.74,216.13,309.34,216Z" style="fill:#c7c7c7"></path><path d="M272.75,216c2.62-.16,5.24-.23,7.87-.29s5.25-.05,7.87-.09,5.25,0,7.88.09,5.25.13,7.87.29c-2.62.16-5.25.23-7.87.29s-5.25,0-7.88.08-5.25,0-7.87-.08S275.37,216.13,272.75,216Z" style="fill:#c7c7c7"></path><path d="M245.15,216c1.79-.16,3.58-.23,5.37-.29s3.57-.08,5.36-.09,3.57,0,5.36.09,3.58.13,5.36.29c-1.78.16-3.57.23-5.36.29s-3.57.08-5.36.08-3.58,0-5.36-.08S246.94,216.13,245.15,216Z" style="fill:#c7c7c7"></path><path d="M212.46,216c2.3-.16,4.6-.23,6.9-.29s4.59-.05,6.89-.09,4.6,0,6.9.09,4.59.13,6.89.29c-2.3.16-4.6.23-6.89.29s-4.6,0-6.9.08-4.59,0-6.89-.08S214.76,216.13,212.46,216Z" style="fill:#c7c7c7"></path><path d="M192.47,216a66.33,66.33,0,0,1,14.18,0,58.07,58.07,0,0,1-7.09.37A60.14,60.14,0,0,1,192.47,216Z" style="fill:#c7c7c7"></path><path d="M157.18,216c2.39-.16,4.79-.23,7.19-.29s4.79-.05,7.19-.09,4.79,0,7.19.09,4.79.13,7.19.29c-2.4.16-4.8.23-7.19.29s-4.8,0-7.19.08-4.8,0-7.19-.08S159.57,216.13,157.18,216Z" style="fill:#c7c7c7"></path><path d="M115.84,216c2.94-.16,5.87-.23,8.8-.29s5.86-.05,8.8-.09,5.86,0,8.79.09,5.87.13,8.8.29c-2.93.16-5.87.23-8.8.29s-5.86,0-8.79.08-5.87,0-8.8-.08S118.78,216.13,115.84,216Z" style="fill:#c7c7c7"></path><path d="M338.09,235.12c3.87-.16,7.73-.23,11.59-.29l11.59-.09,11.59.09c3.86.06,7.72.13,11.59.29-3.87.15-7.73.22-11.59.28l-11.59.09-11.59-.09C345.82,235.34,342,235.27,338.09,235.12Z" style="fill:#c7c7c7"></path><path d="M281.19,235.12c4.29-.16,8.59-.23,12.88-.29l12.89-.09,12.89.09c4.29.06,8.59.13,12.88.29-4.29.15-8.59.22-12.88.28l-12.89.09-12.89-.09C289.78,235.34,285.48,235.27,281.19,235.12Z" style="fill:#c7c7c7"></path><path d="M241.28,235.12c2.87-.16,5.73-.23,8.59-.29s5.73-.06,8.6-.09,5.72,0,8.59.09,5.72.13,8.59.29c-2.87.15-5.73.22-8.59.28s-5.73.06-8.59.09-5.73,0-8.6-.09S244.15,235.27,241.28,235.12Z" style="fill:#c7c7c7"></path><path d="M213.44,235.12c1.81-.16,3.61-.23,5.42-.29s3.61-.08,5.42-.09,3.61,0,5.41.09,3.62.13,5.42.29c-1.8.15-3.61.22-5.42.28s-3.61.08-5.41.09-3.62,0-5.42-.09S215.25,235.27,213.44,235.12Z" style="fill:#c7c7c7"></path><path d="M166,235.12c3.49-.16,7-.23,10.48-.29s7-.06,10.48-.09,7,0,10.48.09,7,.13,10.48.29c-3.49.15-7,.22-10.48.28s-7,.06-10.48.09-7,0-10.48-.09S169.51,235.27,166,235.12Z" style="fill:#c7c7c7"></path><path d="M137,235.12c2-.16,4.1-.23,6.15-.29s4.1-.08,6.15-.09,4.1,0,6.16.09,4.1.13,6.15.29c-2,.15-4.1.22-6.15.28s-4.11.08-6.16.09-4.1,0-6.15-.09S139,235.27,137,235.12Z" style="fill:#c7c7c7"></path><path d="M115.84,235.12c1.27-.16,2.54-.23,3.81-.29s2.54-.08,3.81-.09,2.54,0,3.8.09,2.54.13,3.81.29c-1.27.15-2.54.22-3.81.28s-2.53.08-3.8.09-2.54,0-3.81-.09S117.11,235.27,115.84,235.12Z" style="fill:#c7c7c7"></path><path d="M322.87,244.68c2.43-.15,4.87-.22,7.3-.28s4.87-.06,7.31-.09,4.87,0,7.31.09,4.87.13,7.3.28c-2.43.16-4.87.23-7.3.29s-4.87.06-7.31.09-4.87,0-7.31-.09S325.3,244.84,322.87,244.68Z" style="fill:#c7c7c7"></path><path d="M294.27,244.68c1.81-.15,3.62-.22,5.43-.28s3.62-.08,5.43-.09,3.62,0,5.43.09,3.62.13,5.43.28c-1.81.16-3.62.23-5.43.29s-3.62.08-5.43.09-3.62,0-5.43-.09S296.08,244.84,294.27,244.68Z" style="fill:#c7c7c7"></path><path d="M267.16,244.68c1.66-.15,3.33-.22,5-.28s3.34-.08,5-.09,3.34,0,5,.09,3.34.13,5,.28c-1.67.16-3.34.23-5,.29s-3.34.08-5,.09-3.34,0-5-.09S268.82,244.84,267.16,244.68Z" style="fill:#c7c7c7"></path><path d="M233.42,244.68c2.37-.15,4.74-.22,7.11-.28s4.75-.06,7.12-.09,4.74,0,7.11.09,4.74.13,7.12.28c-2.38.16-4.75.23-7.12.29s-4.74.06-7.11.09-4.75,0-7.12-.09S235.79,244.84,233.42,244.68Z" style="fill:#c7c7c7"></path><path d="M210.81,244.68c1.46-.15,2.91-.22,4.37-.28s2.91-.08,4.37-.09,2.92,0,4.37.09,2.92.13,4.37.28c-1.45.16-2.91.23-4.37.29s-2.91.08-4.37.09-2.91,0-4.37-.09S212.27,244.84,210.81,244.68Z" style="fill:#c7c7c7"></path><path d="M178.29,244.68c2.19-.15,4.37-.22,6.55-.28s4.37-.06,6.55-.09,4.36,0,6.54.09,4.37.13,6.55.28c-2.18.16-4.36.23-6.55.29s-4.36.06-6.54.09-4.37,0-6.55-.09S180.48,244.84,178.29,244.68Z" style="fill:#c7c7c7"></path><path d="M151.9,244.68c1.78-.15,3.56-.22,5.34-.28s3.56-.08,5.34-.09,3.56,0,5.34.09,3.55.13,5.33.28c-1.78.16-3.56.23-5.33.29s-3.56.08-5.34.09-3.56,0-5.34-.09S153.68,244.84,151.9,244.68Z" style="fill:#c7c7c7"></path><path d="M115.84,244.68c2.46-.15,4.91-.22,7.36-.28s4.91-.06,7.37-.09,4.9,0,7.36.09,4.91.13,7.36.28c-2.45.16-4.91.23-7.36.29s-4.91.06-7.36.09-4.91,0-7.37-.09S118.3,244.84,115.84,244.68Z" style="fill:#c7c7c7"></path><path d="M225.93,100.66h-3.64l-.74,2a.83.83,0,0,1-.78.52.86.86,0,0,1-.28,0A.85.85,0,0,1,220,102l3.32-8.84a.87.87,0,0,1,1.59,0l3.31,8.84a.86.86,0,0,1-.49,1.08.85.85,0,0,1-.29,0,.8.8,0,0,1-.76-.52ZM225.32,99l-1.22-3.23L222.89,99Z" style="fill:#c7c7c7"></path><path d="M237.21,101.89a.83.83,0,0,1-.52,1,1.71,1.71,0,0,1-.33,0h0a1.11,1.11,0,0,1-.58-.16,1.45,1.45,0,0,1-.48-.53,4,4,0,0,1-.32-1.8,1.16,1.16,0,0,0-.18-.64,1.36,1.36,0,0,0-.45-.44,2.75,2.75,0,0,0-.84-.36h-1.77v3.26a.83.83,0,0,1-.84.82.82.82,0,0,1-.82-.82V93.46a.81.81,0,0,1,.82-.83h2.69a3.21,3.21,0,0,1,3.21,3.23,3.18,3.18,0,0,1-1.17,2.46,2.49,2.49,0,0,1,.52.55,2.86,2.86,0,0,1,.5,1.62,3.57,3.57,0,0,0,.06.89A.78.78,0,0,1,237.21,101.89Zm-2.1-6a1.55,1.55,0,0,0-1.54-1.56h-1.85v3.09h1.85A1.54,1.54,0,0,0,235.11,95.86Z" style="fill:#c7c7c7"></path><path d="M245.76,94.3h-2.38v8a.83.83,0,0,1-1.65,0v-8h-2.37a.84.84,0,0,1-.83-.84.82.82,0,0,1,.83-.83h6.4a.83.83,0,0,1,.83.83A.85.85,0,0,1,245.76,94.3Z" style="fill:#c7c7c7"></path><path d="M249.17,93.46a.81.81,0,0,1,.82-.83.84.84,0,0,1,.84.83v8.85a.83.83,0,0,1-.84.82.81.81,0,0,1-.82-.82Z" style="fill:#c7c7c7"></path><path d="M253.17,97.73a5.52,5.52,0,0,1,5.51-5.4,5.62,5.62,0,0,1,3.46,1.17.89.89,0,0,1,.15,1.2.87.87,0,0,1-1.2.17,3.73,3.73,0,0,0-2.41-.83,4,4,0,0,0-2.7,1.08,3.68,3.68,0,0,0-1.1,2.61,3.63,3.63,0,0,0,1.1,2.61,4,4,0,0,0,2.7,1.08,3.74,3.74,0,0,0,2.41-.82.9.9,0,0,1,1.2.16.88.88,0,0,1-.15,1.2,5.56,5.56,0,0,1-3.46,1.17A5.49,5.49,0,0,1,253.17,97.73Z" style="fill:#c7c7c7"></path><path d="M265.2,102.31V93.46a.83.83,0,0,1,.83-.83.84.84,0,0,1,.84.83v8h4.06a.83.83,0,1,1,0,1.66H266A.82.82,0,0,1,265.2,102.31Z" style="fill:#c7c7c7"></path><path d="M273.65,102.31V93.46a.81.81,0,0,1,.82-.83h4.91a.83.83,0,0,1,.82.83.85.85,0,0,1-.82.84h-4.07V97h3.5a.84.84,0,0,1,0,1.67h-3.5v2.76h4.07a.83.83,0,0,1,0,1.66h-4.91A.82.82,0,0,1,273.65,102.31Z" style="fill:#c7c7c7"></path><polygon points="293.35 99.34 304.74 99.16 316.12 99.06 338.89 98.97 361.66 99.06 373.04 99.16 384.43 99.34 373.04 99.53 361.66 99.63 338.89 99.72 316.12 99.63 304.74 99.53 293.35 99.34" style="fill:#c7c7c7"></polygon><polygon points="115.57 99.34 126.96 99.16 138.34 99.06 161.11 98.97 183.88 99.06 195.26 99.16 206.65 99.34 195.26 99.53 183.88 99.63 161.11 99.72 138.34 99.63 126.96 99.53 115.57 99.34" style="fill:#c7c7c7"></polygon><rect x="116.55" y="113.2" width="16.66" height="16.66" style="fill:#ebebeb"></rect><rect x="87.9" y="62.37" width="324.94" height="17.95" style="fill:#FFC727"></rect><rect x="210.81" y="262.06" width="82.38" height="23.24" style="fill:#ebebeb"></rect><rect x="208.81" y="260.06" width="82.38" height="23.24" style="fill:#FFC727"></rect><path d="M229.7,272.36h-1.41v2.47a.63.63,0,0,1-1.26,0V268.1a.62.62,0,0,1,.63-.62h2a2.44,2.44,0,1,1,0,4.88Zm-1.41-1.27h1.41a1.17,1.17,0,0,0,1.18-1.16,1.18,1.18,0,0,0-1.18-1.19h-1.41Z" style="fill:#fff"></path><path d="M237,275.46a3.3,3.3,0,0,1-3.3-3.3V268.1a.62.62,0,0,1,.63-.62.63.63,0,0,1,.64.62v4.06a2,2,0,1,0,4.06,0V268.1a.62.62,0,0,1,.64-.62.61.61,0,0,1,.62.62v4.06A3.3,3.3,0,0,1,237,275.46Z" style="fill:#fff"></path><path d="M243,274.83V268.1a.62.62,0,0,1,.62-.62h1.62a2.17,2.17,0,0,1,1.74,3.46,2.48,2.48,0,0,1,1.15,2.07,2.45,2.45,0,0,1-2.44,2.45h-2.07A.63.63,0,0,1,243,274.83Zm1.26-4.26h1a.92.92,0,0,0,.9-.93.9.9,0,0,0-.9-.9h-1Zm0,3.62h1.43a1.18,1.18,0,0,0,0-2.36h-1.43Z" style="fill:#fff"></path><path d="M249.72,274.83V268.1a.62.62,0,0,1,.62-.62.63.63,0,0,1,.64.62v6.09h3.09a.64.64,0,0,1,0,1.27h-3.73A.63.63,0,0,1,249.72,274.83Z" style="fill:#fff"></path><path d="M256.27,268.1a.61.61,0,0,1,.62-.62.63.63,0,0,1,.64.62v6.73a.64.64,0,0,1-.64.63.62.62,0,0,1-.62-.63Z" style="fill:#fff"></path><path d="M259.41,273.47a.6.6,0,0,1,.83-.08,3.76,3.76,0,0,0,2.18.88,2.44,2.44,0,0,0,1.42-.42,1,1,0,0,0,.49-.82.66.66,0,0,0-.1-.37,1.21,1.21,0,0,0-.34-.34,4.61,4.61,0,0,0-1.56-.53h0a6.18,6.18,0,0,1-1.47-.45,2.37,2.37,0,0,1-1.06-.89,1.74,1.74,0,0,1-.27-.93,2.1,2.1,0,0,1,.92-1.67,3.4,3.4,0,0,1,2-.6,4.5,4.5,0,0,1,2.48.91.59.59,0,0,1,.16.81.58.58,0,0,1-.81.17,3.29,3.29,0,0,0-1.83-.73,2.16,2.16,0,0,0-1.28.39.9.9,0,0,0-.43.72.53.53,0,0,0,.08.32,1,1,0,0,0,.31.29,3.83,3.83,0,0,0,1.42.51h0a7,7,0,0,1,1.58.47,2.79,2.79,0,0,1,1.14.95,1.86,1.86,0,0,1,.27,1,2.21,2.21,0,0,1-1,1.77,3.57,3.57,0,0,1-2.11.65,5,5,0,0,1-2.92-1.14A.62.62,0,0,1,259.41,273.47Z" style="fill:#fff"></path><path d="M267.26,274.83V268.1a.62.62,0,0,1,.63-.62.63.63,0,0,1,.64.62v2.74h3V268.1a.61.61,0,0,1,.63-.62.63.63,0,0,1,.64.62v6.73a.64.64,0,0,1-.64.63.62.62,0,0,1-.63-.63v-2.74h-3v2.74a.64.64,0,0,1-.64.63A.63.63,0,0,1,267.26,274.83Z" style="fill:#fff"></path></g><g id="freepik--Cursor--inject-160"><polygon points="261.19 295.62 265.42 305.85 261.19 307.6 256.94 297.3 249.95 302.73 249.95 273.93 270.11 294.29 261.19 295.62" style="fill:#263238"></polygon><path d="M250,270.79a4.17,4.17,0,0,1,0-2.9,4.17,4.17,0,0,1,0,2.9Z" style="fill:#263238"></path><path d="M247.51,271.82a4.15,4.15,0,0,1-2-2.05,4.37,4.37,0,0,1,2,2.05Z" style="fill:#263238"></path><path d="M246.47,274.31a4.15,4.15,0,0,1-2.89,0,4.3,4.3,0,0,1,2.89,0Z" style="fill:#263238"></path><path d="M247.51,276.81a4.37,4.37,0,0,1-2,2.05,4.15,4.15,0,0,1,2-2.05Z" style="fill:#263238"></path><path d="M253.53,274.31a4.3,4.3,0,0,1,2.89,0,4.15,4.15,0,0,1-2.89,0Z" style="fill:#263238"></path><path d="M252.49,271.82a4.37,4.37,0,0,1,2-2.05,4.15,4.15,0,0,1-2,2.05Z" style="fill:#263238"></path></g><g id="freepik--Character--inject-160"><path d="M185.26,262.31a10.16,10.16,0,0,0-1.13-18.39c3.45-2.32,5.68-6.21,4.35-10.55-1.38-4.49-5.79-6.66-10.25-6,0,0,0,.06,0,.06,4.13-.16,8.3,2,9.52,6.13,1,3.56-.4,6.5-2.8,8.7a11.25,11.25,0,0,0,.93-8.91,8.7,8.7,0,0,0-7.69-5.8c.24-3.92-.88-8.19-4-10.77a8.71,8.71,0,0,0-9.45-1.17,9.73,9.73,0,0,0-17.13-5.13,8.16,8.16,0,0,0-12.9-4.74,5.51,5.51,0,0,0-4.93-3.31c-2.48-.12-4.67,1.25-6.45,2.88a6.56,6.56,0,0,0-6.25-.72,6,6,0,0,0-3.33,7c-3.9.45-8.07,1.48-10.76,4.52-2.21,2.51-3.18,6.25-1.64,9.29a11.81,11.81,0,0,0-8.14,15.68,8.3,8.3,0,0,0-4,7.27,12.34,12.34,0,0,0,1.32,5.78A6.22,6.22,0,0,0,88.2,261a8.19,8.19,0,0,0,4.91,5,4.86,4.86,0,0,1,.74,2,10.82,10.82,0,0,0,6,8.25,7.37,7.37,0,0,0,7.13,8.44,8.28,8.28,0,0,0,9.37,6.88,12.08,12.08,0,0,0,6.19,7.91c2.4,1.21,5.6,1.53,7.68-.3.68,2,3.23,2.67,5.21,2.12a10.71,10.71,0,0,0,2.15-.92,8.82,8.82,0,0,1,2.66-1.36c1-.14,1.91.48,2.79.75a10.07,10.07,0,0,0,2,.37,11,11,0,0,0,11.2-7.92c3.43,1,6.75-1.05,8.94-3.66a18.57,18.57,0,0,0,1.84-2.75,4.72,4.72,0,0,1,2-2.13c.58-.29,1.23-.45,1.81-.74,2-1,2.85-2.92,3.5-4.92C183.55,280.35,189.24,270.12,185.26,262.31Zm-95.87-.47a6.56,6.56,0,0,1,1.28-7.47l.18.29s-.42.79-.59,1.2a8.25,8.25,0,0,0-.53,2.36,8.54,8.54,0,0,0,1.06,4.85,9,9,0,0,0,1.36,1.78l.18.2A7.88,7.88,0,0,1,89.39,261.84Zm29.48-56a6.29,6.29,0,0,0-4.55,5.63l-.21,0c-.24-2.7.29-5.22,3.18-6.43a5.51,5.51,0,0,1,5.45.75l0,0A7,7,0,0,0,118.87,205.87ZM174.4,277.6s0-.06,0-.1a11.39,11.39,0,0,0,11.2-11.25C186,272.81,182.53,278.7,174.4,277.6Z" style="fill:#263238"></path><path d="M139.76,327c8.7,37,26.53,81.23,34.08,88.39,9.54,9.05,72.62,20.54,75.76,20.86,7.76.74,22.87-50.34,14.6-51.49-12.59-1.75-58.36-4-61.12-6.8s-22.3-27.17-42.3-54.58C147,304.42,134.36,304.05,139.76,327Z" style="fill:#ad6359"></path><path d="M245.32,433.7c.83.42,12.71,6.31,20.05,8.4,5.47,1.55,21.35,5.6,23.66-.25,1.58-4-7.48-7.48-13.83-10.08-3.34-1.38-7.47-4.85-6.5-7,1.7-3.76,10.31,0,16,3.22,10.95,6.29,25.57,17.63,32.21,12.05,2.51-2.1-.44-5.9-4.75-9.62,7,4.32,14.42,7.86,17.29,5.62,1.66-1.27,1.73-3,.79-5,2.15.68,4,.54,5.36-.87,2.25-2.38,1.13-5.86-1.36-9.43a2.66,2.66,0,0,0,2-1.36c4.75-7.32-19.32-28.14-27.61-30.06-24.4-5.66-50.08-4.44-50.08-4.44C249,392.61,245.3,433.68,245.32,433.7Z" style="fill:#ad6359"></path><path d="M281,411.07a41.29,41.29,0,0,1,16.29,6.17c6.2,4,10.33,8.8,15.54,13.58a.14.14,0,0,1-.19.21c-2.48-2.27-12.77-10.81-15.42-12.74A39.25,39.25,0,0,0,281,411.17C281,411.16,281,411.06,281,411.07Z" style="fill:#263238"></path><path d="M285.52,400.7c6.41,1.72,13,3.46,19,6.45,6.52,3.28,11.64,8.66,16.68,13.84q4.53,4.67,8.86,9.52c.12.13-.06.35-.19.22q-7.67-8-15.8-15.57a52,52,0,0,0-17.31-10.78c-3.68-1.38-7.45-2.47-11.21-3.56C285.43,400.8,285.45,400.68,285.52,400.7Z" style="fill:#263238"></path><path d="M292.31,391.62c6.23,1.25,11.67,2.31,17.2,5.62,7.32,4.37,14.4,11.77,16.89,14.4,2.74,2.9,5.39,5.88,8,8.91.11.13-.11.31-.22.19A207.89,207.89,0,0,0,315.09,402a41.29,41.29,0,0,0-10.66-6.85,73.76,73.76,0,0,0-12.12-3.52S292.29,391.62,292.31,391.62Z" style="fill:#263238"></path><path d="M253.54,381.78l-19,61.33s-52.41-14.66-62-24.92S145,354.77,139.63,329s7.72-25.21,19.81-9,42.15,55.48,43.82,56.33S253.54,381.78,253.54,381.78Z" style="fill:#FFC727"></path><path d="M228.44,415.21c2.15-6.85,4.36-13.68,6.26-20.61,1.08-3.94,2.18-7.87,3.22-11.82,0-.15-.21-.24-.26-.09-2.44,6.78-4.86,13.59-7,20.49s-4.28,13.71-6.31,20.6c-1.14,3.92-2.17,7.86-3.08,11.85,0,.08.11.13.14.05C224.09,429,226.28,422.11,228.44,415.21Z" style="fill:#263238"></path><path d="M208.1,434.83l-2.32-.8c-4.37-1.53-8.82-3.18-13-4.86l-1.6-.65-2.49-1c-.42-.17-.82-.36-1.23-.53l-.43-.19-1.26-.57c-1.67-.76-3.25-1.51-4.72-2.28l-1-.53a37.37,37.37,0,0,1-6.48-4.21l-.53-.49c-.18-.16-.34-.33-.49-.48-9.62-10.26-27.55-63.42-32.88-89.2l-.18-.89,0-.19c-.36-2-.68-4.39-.95-7v0c-.79-12.84,5.28-15,12.82-9.37C170.3,351.6,199.33,417.83,208.1,434.83Z" style="opacity:0.1"></path><polygon points="44.27 454.76 171.49 454.76 146.13 307.2 50.99 307.2 44.27 454.76" style="fill:#dbdbdb"></polygon><polygon points="44.27 454.76 55.42 454.76 61.68 307.2 50.99 307.2 44.27 454.76" style="fill:#a6a6a6"></polygon><path d="M185.94,454.76H54.76c-.58-2.61,20.06-117.55,64.29-149.9,9.82-7.18,27.23-2.57,32.07,4.41C175.47,344.35,185.94,454.76,185.94,454.76Z" style="fill:#ebebeb"></path><path d="M116.15,305.72s11.58,50.87,12.77,55.26,5.48,93.78,5.48,93.78H53.57S71.76,340.76,116.15,305.72Z" style="fill:#FFC727"></path><path d="M151.12,309.27s5.07,39,5.67,41.26S174,454.76,174,454.76h12.59S175.58,336.9,151.12,309.27Z" style="fill:#FFC727"></path><path d="M141.63,330.23c-7.89.58-19.08-13.12-22.72-23.36-.25-.71,6.57-26.1,7.39-31.27.17-1.06,31.18,13.07,31.18,13.07S152.55,299,151.16,308C151.06,308.78,149.26,329.67,141.63,330.23Z" style="fill:#ad6359"></path><path d="M157.48,288.68S152.55,299,151.17,308c0,.09,0,.5-.13,1.14-5.54-1.05-20.46-5.74-26.24-26.76h0c.73-3,1.3-5.53,1.5-6.8C126.47,274.54,157.48,288.68,157.48,288.68Z" style="fill:#263238"></path><path d="M129.79,236.07c-5.9,10.65-6.9,44.84-.36,53.9,9.48,13.14,28.49,18.26,40.54,6.06,11.67-11.81,12.19-56.39,4.56-65C163.29,218.38,138.52,220.34,129.79,236.07Z" style="fill:#ad6359"></path><path d="M157.69,264.61c0-.08-.19.11-.19.2,0,2.3-.47,4.94-2.59,5.6-.07,0-.07.14,0,.13C157.48,270.31,158,266.8,157.69,264.61Z" style="fill:#263238"></path><path d="M155.75,262.11c-3.69-.46-4.34,6.95-.92,7.38S158.84,262.5,155.75,262.11Z" style="fill:#263238"></path><path d="M170.73,266c0-.08.17.13.15.22-.27,2.29-.2,5,1.81,5.9.06,0,.05.15,0,.13C170.16,271.62,170.1,268.08,170.73,266Z" style="fill:#263238"></path><path d="M173,263.74c3.71,0,3.35,7.47-.09,7.43S169.87,263.7,173,263.74Z" style="fill:#263238"></path><path d="M153.28,260a28.31,28.31,0,0,0,3.05.27,4.93,4.93,0,0,0,3.15-.32,1.57,1.57,0,0,0,.56-1.83c-.61-1.37-2-1.83-3.42-2a5.74,5.74,0,0,0-4,.89A1.68,1.68,0,0,0,153.28,260Z" style="fill:#263238"></path><path d="M176.18,260.26c-1-.26-1.9-.67-2.88-1a4.93,4.93,0,0,1-2.73-1.61,1.56,1.56,0,0,1,.25-1.9c1.12-1,2.59-.82,3.93-.39a5.7,5.7,0,0,1,3.3,2.49A1.68,1.68,0,0,1,176.18,260.26Z" style="fill:#263238"></path><path d="M152.74,285.39c.5.58,1,1.37,1.81,1.51a6.06,6.06,0,0,0,2.52-.36.08.08,0,0,1,.09.13,3.1,3.1,0,0,1-3,1,2.45,2.45,0,0,1-1.63-2.19C152.49,285.33,152.67,285.3,152.74,285.39Z" style="fill:#263238"></path><path d="M155.75,278.73a7.85,7.85,0,0,0,4.91,3.93,9.8,9.8,0,0,0,2.8.38,2.49,2.49,0,0,0,.55,0l.51,0a.57.57,0,0,0,.5-.47v0a1,1,0,0,0,0-.24h0l0-.21c.2-1.76.26-4.46.26-4.46.62.38,3.78,2.15,3.81,1.22.22-7.68.46-16.22-1-23.91a.22.22,0,0,0-.43,0c-.5,7.37.31,14.79-.08,22.2a13.55,13.55,0,0,0-3.59-1.44c-.25.05,0,5.22-.18,6a.18.18,0,0,1,0,.08c-3,.12-5.16-1-7.86-3.22C155.83,278.39,155.63,278.53,155.75,278.73Z" style="fill:#263238"></path><path d="M181,245.16c-.55-2.8-1.78-3.56-1.78-3.56s.53-3.14-1.83-7.6c-2.46-4.67-5.77-5.73-5.77-5.73s-2.37-3.46-8.69-5.57c-1.46-.48-6-1.22-7.46-.9-1.71.38-3.29-.68-5-1a12.09,12.09,0,0,0-4.68.15,12.38,12.38,0,0,0-3.65,1.47,17.65,17.65,0,0,0-1.87,1.38,5.57,5.57,0,0,1-3.13,1.16,9.67,9.67,0,0,0-6.67,4,11.36,11.36,0,0,0-1.88,4.48c-.4,2-2.78,2.6-3.89,4.2a7.27,7.27,0,0,0,.18,8.44,7.94,7.94,0,0,0-3.83,9c.73,2.73,3,4.22,5.29,5.21a6.29,6.29,0,0,0,1.34.41c4.85,1.52,10.58-2.92,9.67-8.77,0,0,0,0,0,0a14,14,0,0,0,7.54-3.56c2.26-2,3.38-5.06,3.9-8.11a11,11,0,0,0,17.21-5.16c1.48,2.11,6.09,6,8.55,5.63-.07,6.95,4.25,10.18,5.51,10.33C180.33,251.15,181.67,248.38,181,245.16Zm-48,14.4c1.67-1.2,3.09-3.05,4.28-7.23A7.58,7.58,0,0,1,133.05,259.56Zm23-17.83a12.52,12.52,0,0,0,9.38-6.46A9.92,9.92,0,0,1,156.1,241.73Z" style="fill:#263238"></path><path d="M131.5,263.76s-5.41-12.12-10.77-10.39-2.72,18.3,2.56,21.51a5.9,5.9,0,0,0,8.36-1.62Z" style="fill:#ad6359"></path><path d="M121.6,258.1c-.09,0-.13.1-.06.15,3.68,2.38,5.07,6.48,5.81,10.6-.91-1.7-2.37-2.82-4.62-1.79-.12.06,0,.24.07.24a3.62,3.62,0,0,1,3.68,2,18.11,18.11,0,0,1,1.27,3.53c.11.39.8.33.74-.11,0,0,0-.07,0-.1C129.55,267.54,127,259.66,121.6,258.1Z" style="fill:#263238"></path><path d="M151,309.17l-8.29,16.69-22.26-26.09-5.95,8.94s20.22,37.74,20.44,36.1l8.32-15.3L153.56,341l.55-27.45Z" style="fill:#ebebeb"></path><path d="M154.6,327.44c-.07-4.54,0-9.11-.27-13.64,0-.16-.26-.24-.31-.05-1.13,4.31-.8,21.65-1,25.79l0-.05c-.43-.49-9.54-10.12-9.64-10-1.76,2.4-7.86,13.54-8.29,14.56-3.19-6-16.85-29.68-20.7-35.39a.16.16,0,0,0-.28.15c2.77,6.29,20.38,37.53,20.65,37.46a175.05,175.05,0,0,0,8.71-16.18c1.52,2.08,10.66,12.89,10.72,12.22A142.36,142.36,0,0,0,154.6,327.44Z" style="fill:#263238"></path><path d="M245.08,455.26H172.7c-6.17,0,2.76-17.58,25.3-24.33S252.19,448.67,245.08,455.26Z" style="fill:#37474f"></path><path d="M216.68,455.26a22,22,0,0,1,1-5.89,25.08,25.08,0,0,1,2.44-5.51A19.73,19.73,0,0,1,224,439.2,17,17,0,0,1,229,436c-.4.3-.81.58-1.21.86l-.61.42-.56.48-1.12.94-1,1a25.07,25.07,0,0,0-3.52,4.62,35.29,35.29,0,0,0-2.56,5.24A41.83,41.83,0,0,0,216.68,455.26Z" style="fill:#263238"></path><path d="M225.25,438.53a42.3,42.3,0,0,1,6.23,2.57,43.31,43.31,0,0,1,5.82,3.46,26,26,0,0,1,5,4.56,15.59,15.59,0,0,1,1.88,2.87,8.53,8.53,0,0,1,.86,3.27,9.89,9.89,0,0,0-1.29-3,15.81,15.81,0,0,0-2-2.59,35.58,35.58,0,0,0-5.05-4.26c-1.79-1.3-3.69-2.45-5.6-3.6-1-.57-1.93-1.11-2.91-1.64S226.24,439.06,225.25,438.53Z" style="fill:#263238"></path><path d="M100.64,320.47C77,353.77,42.75,413.38,58.53,424c26,17.45,97.35,22.13,113.67,22.53,7,.18,16.64-46.65,11.43-52.09s-79.94-2.52-80.89-7c-.55-2.56,8.59-26.15,13.22-54.46C121.3,300.3,107.31,311.09,100.64,320.47Z" style="fill:#ad6359"></path><path d="M171.1,391.84s21.31-2.2,35.32-3c7.82-.44,21.28,0,27.17,2.32,8.8,3.45,43.43,23.5,38.75,32-4.24,7.69-31.8-13.31-31.8-13.31s29.69,18.73,22.88,27.06-34.79-19.54-34.79-19.54,30.07,19.93,21.7,27.41c-6.33,5.65-33.1-18.17-33.1-18.17S243,443.94,236.69,450c-6.91,6.73-33-13.71-33-13.71-18.52,12.81-32.57,11.33-42.45,9.09C158.85,444.88,171.1,391.84,171.1,391.84Z" style="fill:#ad6359"></path><path d="M230.69,402.73c3.57,2.08,7.19,4.15,10.56,6.54s6.66,4.89,9.79,7.57c7.69,6.59,11.47,11.92,11.2,11.62-6.37-7.18-18.3-15.91-21.68-18.29s-6.6-4.93-10-7.31C230.51,402.8,230.6,402.68,230.69,402.73Z" style="fill:#263238"></path><path d="M221.86,414.74c4.44,2.85,8.95,5.51,13.27,8.56s10.17,7.47,14.24,10.79c.31.25.08.81-.25.57-4.2-3.15-10.4-7.41-14.64-10.51s-8.36-6.37-12.7-9.31C221.71,414.8,221.79,414.7,221.86,414.74Z" style="fill:#263238"></path><path d="M212.43,423.69c7,4,13.26,9.29,19.28,14.63.3.27,0,.34-.34.09-6.32-5-11.25-8.94-19.09-14.48C212.16,423.85,212.28,423.61,212.43,423.69Z" style="fill:#263238"></path><path d="M247.74,398.61a142.67,142.67,0,0,1,12.44,7.9c2,1.44,3.95,2.94,5.82,4.55a36.72,36.72,0,0,1,5.2,5.3,11.6,11.6,0,0,1,1.86,3.32,5,5,0,0,1,.26,2,3.67,3.67,0,0,1-.72,1.91,4.46,4.46,0,0,1-1.51,1.35,4.32,4.32,0,0,1-2,.49,11.1,11.1,0,0,1-3.75-.78,69.86,69.86,0,0,1-6.74-3.09c-2.2-1.09-4.37-2.23-6.58-3.29l.5-.82a58.09,58.09,0,0,1,7.79,7.33,27.34,27.34,0,0,1,3.15,4.36,9.28,9.28,0,0,1,1.41,5.27,4.93,4.93,0,0,1-3.4,4.17,8.79,8.79,0,0,1-5.37-.57,48.27,48.27,0,0,1-9.25-5.27l.13-.14a24.61,24.61,0,0,1,2.77,3.66,25.28,25.28,0,0,0-2.91-3.53l-.51-.54.63.4a49.73,49.73,0,0,0,9.31,4.93,8.21,8.21,0,0,0,5,.46,4.24,4.24,0,0,0,2.86-3.64,8.64,8.64,0,0,0-1.41-4.78,26.87,26.87,0,0,0-3.09-4.2,57.21,57.21,0,0,0-7.7-7.14l-3.51-2.74,4,1.92q3.33,1.61,6.6,3.28a68.22,68.22,0,0,0,6.62,3.09,9.93,9.93,0,0,0,3.41.75,3.34,3.34,0,0,0,3.14-4.56,11.28,11.28,0,0,0-1.68-3.1,36.13,36.13,0,0,0-5-5.29c-1.82-1.63-3.74-3.15-5.69-4.63C256,404,251.9,401.22,247.74,398.61Z" style="fill:#263238"></path><path d="M171.13,389.05l-20,60.42s-91.21-11.61-98-28.09,20.45-66.4,43-97.09c22.19-30.18,24.07-9.78,19.94,12.34s-11.89,47.87-10.58,49.61S171.13,389.05,171.13,389.05Z" style="fill:#FFC727"></path><path d="M140,440.87c.71-1.73,1.39-3.47,2.07-5.21q2-5.31,4.06-10.62c2.67-7,5.14-14.15,7.53-21.29,1.35-4.05,2.86-8.08,4-12.19a.16.16,0,0,0-.31-.11c-1.55,3.45-2.84,7-4.23,10.55s-2.83,7-4.17,10.58c-2.65,7.05-5.18,14.13-7.64,21.25-.68,2-1.45,4-2,6-.31,1-.7,2.06-1,3.1s-.51,2.11-.83,3.15a.09.09,0,0,0,.17.06C138.37,444.37,139.24,442.65,140,440.87Z" style="fill:#263238"></path><path d="M152.7,445.32l-1.41,4.22,0,.13h-.15c-8.61-.79-17.18-1.88-25.72-3.19s-17.05-2.89-25.5-4.76a224.66,224.66,0,0,1-25-6.89,90.75,90.75,0,0,1-12-5.06,39,39,0,0,1-5.52-3.47,13,13,0,0,1-4.21-4.91,13.92,13.92,0,0,0,4.5,4.5,40.42,40.42,0,0,0,5.65,3,104.24,104.24,0,0,0,12.06,4.45c8.21,2.53,16.58,4.56,25,6.4s16.87,3.5,25.34,5.05,17,3.06,25.49,4.47l-.19.12Z" style="fill:#263238"></path><path d="M170.35,391.4,171,389l.1.15c-9,.23-18,.34-27,.25s-18-.27-27-.75c-2.26-.14-4.52-.29-6.78-.51-1.14-.11-2.26-.23-3.43-.44a8.32,8.32,0,0,1-.91-.2,3.88,3.88,0,0,1-.52-.17,3.62,3.62,0,0,1-.37-.2,1,1,0,0,1-.3-.3,1.09,1.09,0,0,1-.14-.23.41.41,0,0,1,0-.12,3.46,3.46,0,0,1-.06-1.2c0-.29,0-.61.1-.89.7-4.55,1.74-8.91,2.79-13.31,2.1-8.77,4.46-17.48,7-26.13l-5.49,26.47c-.86,4.4-1.86,8.83-2.43,13.2,0,.28,0,.53-.08.79a3.7,3.7,0,0,1,0,.48s0,0,0,0a.69.69,0,0,0-.07-.15c-.05-.09-.19-.18-.15-.16s0,0,0,0l.28.08a6.82,6.82,0,0,0,.74.16c1,.18,2.17.29,3.27.39,2.22.2,4.46.34,6.71.46q6.72.36,13.48.6l13.49.52c9,.32,18,.72,27,1.15h.16l0,.13Z" style="fill:#263238"></path><path d="M115.88,350.4a23.86,23.86,0,0,1-2,4.5,18.27,18.27,0,0,1-2.89,4c.7-1.5,1.44-2.94,2.23-4.36A36.26,36.26,0,0,1,115.88,350.4Z" style="fill:#263238"></path></g><g id="freepik--Device--inject-160"><rect x="249.53" y="447.77" width="7.29" height="4.76" style="fill:#455a64"></rect><rect x="258.98" y="447.46" width="7.29" height="4.76" style="fill:#455a64"></rect><rect x="268.43" y="447.14" width="7.29" height="4.76" style="fill:#455a64"></rect><rect x="277.88" y="446.83" width="7.29" height="4.76" style="fill:#455a64"></rect><rect x="287.33" y="446.51" width="7.29" height="4.76" style="fill:#455a64"></rect><rect x="296.78" y="446.2" width="7.29" height="4.76" style="fill:#455a64"></rect><rect x="306.23" y="445.88" width="7.29" height="4.76" style="fill:#455a64"></rect><rect x="315.68" y="445.57" width="7.29" height="4.76" style="fill:#455a64"></rect><rect x="325.13" y="445.25" width="7.29" height="4.76" style="fill:#455a64"></rect><polygon points="334.2 455.26 247.75 455.26 247.75 449.48 334.2 447.06 334.2 455.26" style="fill:#37474f"></polygon><polygon points="404.6 427.51 261.88 427.51 284.57 321.25 427.3 321.25 404.6 427.51" style="fill:#455a64"></polygon><polygon points="409.88 427.51 267.15 427.51 289.85 321.25 432.58 321.25 409.88 427.51" style="fill:#37474f"></polygon><path d="M362.2,368.23A10.74,10.74,0,0,1,352,377.05a7.35,7.35,0,0,1-7.43-8.82,10.75,10.75,0,0,1,10.23-8.83A7.34,7.34,0,0,1,362.2,368.23Z" style="fill:#263238"></path><polygon points="369.52 455.26 299.32 455.26 299.32 449.81 369.52 447.54 369.52 455.26" style="fill:#455a64"></polygon><polygon points="388.6 455.26 350.91 455.26 328.21 395.71 365.9 395.71 388.6 455.26" style="fill:#455a64"></polygon><polygon points="394.81 455.26 357.12 455.26 334.42 395.71 372.11 395.71 394.81 455.26" style="fill:#263238"></polygon></g><g id="freepik--Plant--inject-160"><path d="M416.79,375.54c13.06,12.78,15.25,32.56,12.5,49.89-.07.39-.68.29-.68-.08,0-4,.12-7.86.11-11.75-.07-.18-.13-.35-.21-.53-3.4-2.48-6.54-5.28-8.48-9.11-2.18-4.29-3-9.13-4.71-13.61-.15-.43.31-.3.61-.08,7.94,5.86,10.47,12.16,12.75,20.59a70.35,70.35,0,0,0-1.38-13.12c-1.72-8-5.11-15.92-10.86-21.86A.24.24,0,0,1,416.79,375.54Z" style="fill:#263238"></path><path d="M414.33,377c-2.24.08-3.65,3.67-5.4,4.71a1.68,1.68,0,0,1-2.48-.39c-1.74-2.42.64-5.41,2.88-7.08-1.6.66-2.93,1.82-4.65,2.15a1.62,1.62,0,0,1-2.1-1.26c-.76-3.3,3.38-4.77,6.22-4.84-1.38-1-5.33-3.56-3.23-4.84s6.76,2.43,8.27,3.66c2.22,1.8,4.87,4.5,5,7.31C418.94,379.74,416.06,377.72,414.33,377Z" style="fill:#FFC727"></path><path d="M414.33,377c-2.24.08-3.65,3.67-5.4,4.71a1.68,1.68,0,0,1-2.48-.39c-1.74-2.42.64-5.41,2.88-7.08-1.6.66-2.93,1.82-4.65,2.15a1.62,1.62,0,0,1-2.1-1.26c-.76-3.3,3.38-4.77,6.22-4.84-1.38-1-5.33-3.56-3.23-4.84s6.76,2.43,8.27,3.66c2.22,1.8,4.87,4.5,5,7.31C418.94,379.74,416.06,377.72,414.33,377Z" style="opacity:0.1"></path><path d="M415,377.58c-2.87-1.3-8.39.58-8.86-.51-.95-2.21,3.46-3.73,5.84-4-2.19-.59-6.39-1.54-6.26-3.65.16-2.58,6.44-.36,9.62,2.08,4,3.07,4,6,3.32,6.63C417.73,378.91,415.46,377.8,415,377.58Z" style="fill:#FFC727"></path><path d="M446.53,374.27c-13.54,12.28-16.48,32-14.39,49.38.06.4.67.31.69,0,.15-4,.17-7.86.33-11.75l.23-.52c3.5-2.34,6.74-5,8.82-8.78,2.34-4.21,3.39-9,5.22-13.42.17-.42-.29-.31-.6-.11-8.16,5.56-10.93,11.76-13.53,20.09a71.17,71.17,0,0,1,1.88-13.05c2-7.93,5.72-15.72,11.68-21.43A.24.24,0,0,0,446.53,374.27Z" style="fill:#263238"></path><path d="M448.93,375.86c2.24.16,3.51,3.8,5.22,4.91a1.67,1.67,0,0,0,2.49-.29c1.83-2.36-.44-5.43-2.61-7.19,1.57.72,2.86,1.93,4.57,2.32a1.62,1.62,0,0,0,2.15-1.18c.88-3.27-3.2-4.89-6-5.07,1.42-.9,5.46-3.36,3.41-4.71s-6.84,2.17-8.4,3.34c-2.29,1.72-5,4.31-5.24,7.12C444.22,378.39,447.17,376.48,448.93,375.86Z" style="fill:#FFC727"></path><path d="M448.93,375.86c2.24.16,3.51,3.8,5.22,4.91a1.67,1.67,0,0,0,2.49-.29c1.83-2.36-.44-5.43-2.61-7.19,1.57.72,2.86,1.93,4.57,2.32a1.62,1.62,0,0,0,2.15-1.18c.88-3.27-3.2-4.89-6-5.07,1.42-.9,5.46-3.36,3.41-4.71s-6.84,2.17-8.4,3.34c-2.29,1.72-5,4.31-5.24,7.12C444.22,378.39,447.17,376.48,448.93,375.86Z" style="opacity:0.1"></path><path d="M448.26,376.38c2.92-1.19,8.36.9,8.87-.17,1-2.18-3.31-3.86-5.68-4.25,2.21-.51,6.44-1.29,6.4-3.41-.06-2.58-6.43-.61-9.7,1.71-4.12,2.92-4.21,5.88-3.57,6.5C445.46,377.61,447.77,376.58,448.26,376.38Z" style="fill:#FFC727"></path><path d="M432.69,406.7a133.52,133.52,0,0,1-4.2,19.42.49.49,0,0,1-.95-.19c.89-6,2.51-11.86,3.4-17.84a89.84,89.84,0,0,0,1-18.32c-.57-10.08-3.31-20.8-9.89-28.69-.14-.19.16-.45.31-.28,13.17,15.36,11.08,34.19,11.07,35.88,1.86-6.36,3.78-13.65,10.84-20.12.3-.28.54-.15.49.32-1.26,11.8-4.54,17.95-11.38,24.26C433.23,403,433,404.87,432.69,406.7Z" style="fill:#263238"></path><path d="M422,362.84c-2.37-1-5.64,2-8,2.18a2,2,0,0,1-2.38-1.66c-.58-3.38,3.4-5.28,6.56-5.89-2-.13-3.95.41-5.91-.12a1.88,1.88,0,0,1-1.55-2.37c.88-3.8,5.91-3.24,8.9-1.88-.95-1.69-3.74-6.38-.92-6.65s5.79,5.93,6.74,8c1.4,3,2.79,7.12,1.47,10.09C425.38,368,423.42,364.43,422,362.84Z" style="fill:#FFC727"></path><path d="M422,362.84c-2.37-1-5.64,2-8,2.18a2,2,0,0,1-2.38-1.66c-.58-3.38,3.4-5.28,6.56-5.89-2-.13-3.95.41-5.91-.12a1.88,1.88,0,0,1-1.55-2.37c.88-3.8,5.91-3.24,8.9-1.88-.95-1.69-3.74-6.38-.92-6.65s5.79,5.93,6.74,8c1.4,3,2.79,7.12,1.47,10.09C425.38,368,423.42,364.43,422,362.84Z" style="opacity:0.1"></path><path d="M422.37,363.75c-2.32-2.8-9-3.63-8.94-5,.13-2.77,5.47-2.13,8.09-1.23-2-1.72-5.86-4.82-4.66-6.95,1.46-2.6,6.87,2.87,8.94,7,2.61,5.21,1.09,8.27.1,8.55C424.55,366.51,422.75,364.21,422.37,363.75Z" style="fill:#FFC727"></path><path d="M441.35,410.25l5.81,44.39H411.81c.73-3.93,7.31-44.44,7.31-44.44Z" style="fill:#FFC727"></path></g></svg>