<?xml version="1.0" encoding="UTF-8" standalone="no"?>
<svg
   viewBox="0 0 440.6488 385.7348"
   version="1.1"
   id="svg4000"
   sodipodi:docname="server.svg"
   width="440.6488"
   height="385.7348"
   inkscape:version="1.2.2 (1:1.2.2+202305151915+b0a8486541)"
   xmlns:inkscape="http://www.inkscape.org/namespaces/inkscape"
   xmlns:sodipodi="http://sodipodi.sourceforge.net/DTD/sodipodi-0.dtd"
   xmlns="http://www.w3.org/2000/svg"
   xmlns:svg="http://www.w3.org/2000/svg">
  <defs
     id="defs4004" />
  <sodipodi:namedview
     id="namedview4002"
     pagecolor="#ffffff"
     bordercolor="#666666"
     borderopacity="1.0"
     inkscape:showpageshadow="2"
     inkscape:pageopacity="0.0"
     inkscape:pagecheckerboard="0"
     inkscape:deskcolor="#d1d1d1"
     showgrid="false"
     inkscape:zoom="11.619179"
     inkscape:cx="202.98337"
     inkscape:cy="64.462388"
     inkscape:window-width="3440"
     inkscape:window-height="1391"
     inkscape:window-x="0"
     inkscape:window-y="0"
     inkscape:window-maximized="1"
     inkscape:current-layer="freepik--Cloud--inject-225" />
  <g
     id="freepik--Shadow--inject-225"
     transform="translate(-29.641192,-68.565206)">
    <ellipse
       cx="250"
       cy="431.23001"
       rx="211.64999"
       ry="23.07"
       style="fill:#ebebeb"
       id="ellipse3404" />
  </g>
  <g
     id="freepik--Server--inject-225"
     transform="translate(-29.641192,-68.565206)">
    <rect
       x="129.53999"
       y="179.69"
       width="56.43"
       height="212.78999"
       style="fill:#263238"
       id="rect3407" />
    <rect
       x="185.98"
       y="179.69"
       width="103.86"
       height="212.78999"
       style="fill:#455a64"
       id="rect3409" />
    <rect
       x="193.75999"
       y="364.88"
       width="89.580002"
       height="20.690001"
       style="fill:#37474f"
       id="rect3411" />
    <rect
       x="197.53"
       y="368.29999"
       width="50.990002"
       height="1.75"
       style="fill:#455a64"
       id="rect3413" />
    <rect
       x="197.53"
       y="371.32001"
       width="50.990002"
       height="1.75"
       style="fill:#455a64"
       id="rect3415" />
    <rect
       x="197.53"
       y="374.35001"
       width="50.990002"
       height="1.75"
       style="fill:#455a64"
       id="rect3417" />
    <rect
       x="197.53"
       y="377.38"
       width="50.990002"
       height="1.75"
       style="fill:#455a64"
       id="rect3419" />
    <rect
       x="197.53"
       y="380.39999"
       width="50.990002"
       height="1.75"
       style="fill:#455a64"
       id="rect3421" />
    <path
       d="m 257.82,370 a 1.73,1.73 0 1 1 -1.73,-1.73 1.73,1.73 0 0 1 1.73,1.73 z"
       style="fill:#ffc727"
       id="path3423" />
    <path
       d="m 263.53,370 a 1.74,1.74 0 1 1 -1.73,-1.73 1.73,1.73 0 0 1 1.73,1.73 z"
       style="fill:#ffc727"
       id="path3425" />
    <path
       d="m 269.24,370 a 1.74,1.74 0 1 1 -1.74,-1.73 1.73,1.73 0 0 1 1.74,1.73 z"
       style="fill:#ffc727"
       id="path3427" />
    <path
       d="m 274.94,370 a 1.73,1.73 0 1 1 -1.73,-1.73 1.72,1.72 0 0 1 1.73,1.73 z"
       style="fill:#ffc727"
       id="path3429" />
    <path
       d="m 280.65,370 a 1.73,1.73 0 1 1 -1.73,-1.73 1.72,1.72 0 0 1 1.73,1.73 z"
       style="fill:#ffc727"
       id="path3431" />
    <path
       d="m 257.82,375.22 a 1.73,1.73 0 1 1 -1.73,-1.73 1.74,1.74 0 0 1 1.73,1.73 z"
       style="fill:#ffc727"
       id="path3433" />
    <path
       d="m 263.53,375.22 a 1.74,1.74 0 1 1 -1.73,-1.73 1.74,1.74 0 0 1 1.73,1.73 z"
       style="fill:#ffc727"
       id="path3435" />
    <path
       d="m 269.24,375.22 a 1.74,1.74 0 1 1 -1.74,-1.73 1.74,1.74 0 0 1 1.74,1.73 z"
       style="fill:#ffc727"
       id="path3437" />
    <path
       d="m 274.94,375.22 a 1.73,1.73 0 1 1 -1.73,-1.73 1.73,1.73 0 0 1 1.73,1.73 z"
       style="fill:#ffc727"
       id="path3439" />
    <path
       d="m 280.65,375.22 a 1.73,1.73 0 1 1 -1.73,-1.73 1.73,1.73 0 0 1 1.73,1.73 z"
       style="fill:#ffc727"
       id="path3441" />
    <path
       d="m 257.82,380.42 a 1.73,1.73 0 1 1 -1.73,-1.73 1.73,1.73 0 0 1 1.73,1.73 z"
       style="fill:#ffc727"
       id="path3443" />
    <path
       d="m 263.53,380.42 a 1.74,1.74 0 1 1 -1.73,-1.73 1.73,1.73 0 0 1 1.73,1.73 z"
       style="fill:#ffc727"
       id="path3445" />
    <path
       d="m 269.24,380.42 a 1.74,1.74 0 1 1 -1.74,-1.73 1.73,1.73 0 0 1 1.74,1.73 z"
       style="fill:#ffc727"
       id="path3447" />
    <path
       d="m 274.94,380.42 a 1.73,1.73 0 1 1 -1.73,-1.73 1.72,1.72 0 0 1 1.73,1.73 z"
       style="fill:#ffc727"
       id="path3449" />
    <path
       d="m 280.65,380.42 a 1.73,1.73 0 1 1 -1.73,-1.73 1.72,1.72 0 0 1 1.73,1.73 z"
       style="fill:#ffc727"
       id="path3451" />
    <rect
       x="251.07001"
       y="368.29999"
       width="1"
       height="13.85"
       style="fill:#263238"
       id="rect3453" />
    <rect
       x="193.75999"
       y="339.95001"
       width="89.580002"
       height="20.690001"
       style="fill:#37474f"
       id="rect3455" />
    <rect
       x="197.53"
       y="343.35999"
       width="50.990002"
       height="1.75"
       style="fill:#455a64"
       id="rect3457" />
    <rect
       x="197.53"
       y="346.39001"
       width="50.990002"
       height="1.75"
       style="fill:#455a64"
       id="rect3459" />
    <rect
       x="197.53"
       y="349.42001"
       width="50.990002"
       height="1.75"
       style="fill:#455a64"
       id="rect3461" />
    <rect
       x="197.53"
       y="352.44"
       width="50.990002"
       height="1.75"
       style="fill:#455a64"
       id="rect3463" />
    <rect
       x="197.53"
       y="355.47"
       width="50.990002"
       height="1.75"
       style="fill:#455a64"
       id="rect3465" />
    <path
       d="m 257.82,345.1 a 1.73,1.73 0 1 1 -1.73,-1.74 1.74,1.74 0 0 1 1.73,1.74 z"
       style="fill:#ffc727"
       id="path3467" />
    <circle
       cx="261.79999"
       cy="345.10001"
       r="1.73"
       style="fill:#ffc727"
       id="circle3469" />
    <circle
       cx="267.5"
       cy="345.10001"
       r="1.73"
       style="fill:#ffc727"
       id="circle3471" />
    <path
       d="m 274.94,345.1 a 1.73,1.73 0 1 1 -1.73,-1.74 1.73,1.73 0 0 1 1.73,1.74 z"
       style="fill:#ffc727"
       id="path3473" />
    <path
       d="m 280.65,345.1 a 1.73,1.73 0 1 1 -1.73,-1.74 1.73,1.73 0 0 1 1.73,1.74 z"
       style="fill:#ffc727"
       id="path3475" />
    <path
       d="m 257.82,350.29 a 1.73,1.73 0 1 1 -1.73,-1.73 1.73,1.73 0 0 1 1.73,1.73 z"
       style="fill:#ffc727"
       id="path3477" />
    <circle
       cx="261.79999"
       cy="350.29001"
       r="1.73"
       style="fill:#ffc727"
       id="circle3479" />
    <circle
       cx="267.5"
       cy="350.29001"
       r="1.73"
       style="fill:#ffc727"
       id="circle3481" />
    <path
       d="m 274.94,350.29 a 1.73,1.73 0 1 1 -1.73,-1.73 1.72,1.72 0 0 1 1.73,1.73 z"
       style="fill:#ffc727"
       id="path3483" />
    <path
       d="m 280.65,350.29 a 1.73,1.73 0 1 1 -1.73,-1.73 1.72,1.72 0 0 1 1.73,1.73 z"
       style="fill:#ffc727"
       id="path3485" />
    <path
       d="m 257.82,355.49 a 1.73,1.73 0 1 1 -1.73,-1.74 1.74,1.74 0 0 1 1.73,1.74 z"
       style="fill:#ffc727"
       id="path3487" />
    <circle
       cx="261.79999"
       cy="355.48999"
       r="1.73"
       style="fill:#ffc727"
       id="circle3489" />
    <circle
       cx="267.5"
       cy="355.48999"
       r="1.73"
       style="fill:#ffc727"
       id="circle3491" />
    <path
       d="m 274.94,355.49 a 1.73,1.73 0 1 1 -1.73,-1.74 1.73,1.73 0 0 1 1.73,1.74 z"
       style="fill:#ffc727"
       id="path3493" />
    <path
       d="m 280.65,355.49 a 1.73,1.73 0 1 1 -1.73,-1.74 1.73,1.73 0 0 1 1.73,1.74 z"
       style="fill:#ffc727"
       id="path3495" />
    <rect
       x="251.07001"
       y="343.35999"
       width="1"
       height="13.85"
       style="fill:#263238"
       id="rect3497" />
    <rect
       x="193.75999"
       y="315.01001"
       width="89.580002"
       height="20.690001"
       style="fill:#37474f"
       id="rect3499" />
    <rect
       x="197.53"
       y="318.42999"
       width="50.990002"
       height="1.75"
       style="fill:#455a64"
       id="rect3501" />
    <rect
       x="197.53"
       y="321.45999"
       width="50.990002"
       height="1.75"
       style="fill:#455a64"
       id="rect3503" />
    <rect
       x="197.53"
       y="324.48001"
       width="50.990002"
       height="1.75"
       style="fill:#455a64"
       id="rect3505" />
    <rect
       x="197.53"
       y="327.51001"
       width="50.990002"
       height="1.75"
       style="fill:#455a64"
       id="rect3507" />
    <rect
       x="197.53"
       y="330.54001"
       width="50.990002"
       height="1.75"
       style="fill:#455a64"
       id="rect3509" />
    <path
       d="m 257.82,320.16 a 1.73,1.73 0 1 1 -1.73,-1.73 1.73,1.73 0 0 1 1.73,1.73 z"
       style="fill:#ffc727"
       id="path3511" />
    <path
       d="m 263.53,320.16 a 1.74,1.74 0 1 1 -1.73,-1.73 1.73,1.73 0 0 1 1.73,1.73 z"
       style="fill:#ffc727"
       id="path3513" />
    <path
       d="m 269.24,320.16 a 1.74,1.74 0 1 1 -1.74,-1.73 1.73,1.73 0 0 1 1.74,1.73 z"
       style="fill:#ffc727"
       id="path3515" />
    <path
       d="m 274.94,320.16 a 1.73,1.73 0 1 1 -1.73,-1.73 1.72,1.72 0 0 1 1.73,1.73 z"
       style="fill:#ffc727"
       id="path3517" />
    <path
       d="m 280.65,320.16 a 1.73,1.73 0 1 1 -1.73,-1.73 1.72,1.72 0 0 1 1.73,1.73 z"
       style="fill:#ffc727"
       id="path3519" />
    <path
       d="m 257.82,325.36 a 1.73,1.73 0 1 1 -1.73,-1.73 1.74,1.74 0 0 1 1.73,1.73 z"
       style="fill:#ffc727"
       id="path3521" />
    <path
       d="m 263.53,325.36 a 1.74,1.74 0 1 1 -1.73,-1.73 1.74,1.74 0 0 1 1.73,1.73 z"
       style="fill:#ffc727"
       id="path3523" />
    <path
       d="m 269.24,325.36 a 1.74,1.74 0 1 1 -1.74,-1.73 1.74,1.74 0 0 1 1.74,1.73 z"
       style="fill:#ffc727"
       id="path3525" />
    <path
       d="m 274.94,325.36 a 1.73,1.73 0 1 1 -1.73,-1.73 1.73,1.73 0 0 1 1.73,1.73 z"
       style="fill:#ffc727"
       id="path3527" />
    <path
       d="m 280.65,325.36 a 1.73,1.73 0 1 1 -1.73,-1.73 1.73,1.73 0 0 1 1.73,1.73 z"
       style="fill:#ffc727"
       id="path3529" />
    <path
       d="m 257.82,330.55 a 1.73,1.73 0 1 1 -1.73,-1.73 1.73,1.73 0 0 1 1.73,1.73 z"
       style="fill:#ffc727"
       id="path3531" />
    <path
       d="m 263.53,330.55 a 1.74,1.74 0 1 1 -1.73,-1.73 1.73,1.73 0 0 1 1.73,1.73 z"
       style="fill:#ffc727"
       id="path3533" />
    <path
       d="m 269.24,330.55 a 1.74,1.74 0 1 1 -1.74,-1.73 1.73,1.73 0 0 1 1.74,1.73 z"
       style="fill:#ffc727"
       id="path3535" />
    <path
       d="m 274.94,330.55 a 1.73,1.73 0 1 1 -1.73,-1.73 1.72,1.72 0 0 1 1.73,1.73 z"
       style="fill:#ffc727"
       id="path3537" />
    <path
       d="m 280.65,330.55 a 1.73,1.73 0 1 1 -1.73,-1.73 1.72,1.72 0 0 1 1.73,1.73 z"
       style="fill:#ffc727"
       id="path3539" />
    <rect
       x="251.07001"
       y="318.42999"
       width="1"
       height="13.85"
       style="fill:#263238"
       id="rect3541" />
    <rect
       x="193.75999"
       y="290.07999"
       width="89.580002"
       height="20.690001"
       style="fill:#37474f"
       id="rect3543" />
    <rect
       x="197.53"
       y="293.5"
       width="50.990002"
       height="1.75"
       style="fill:#455a64"
       id="rect3545" />
    <rect
       x="197.53"
       y="296.51999"
       width="50.990002"
       height="1.75"
       style="fill:#455a64"
       id="rect3547" />
    <rect
       x="197.53"
       y="299.54999"
       width="50.990002"
       height="1.75"
       style="fill:#455a64"
       id="rect3549" />
    <rect
       x="197.53"
       y="302.57999"
       width="50.990002"
       height="1.75"
       style="fill:#455a64"
       id="rect3551" />
    <rect
       x="197.53"
       y="305.60001"
       width="50.990002"
       height="1.75"
       style="fill:#455a64"
       id="rect3553" />
    <path
       d="m 257.82,295.23 a 1.73,1.73 0 1 1 -1.73,-1.73 1.73,1.73 0 0 1 1.73,1.73 z"
       style="fill:#ffc727"
       id="path3555" />
    <path
       d="m 263.53,295.23 a 1.74,1.74 0 1 1 -1.73,-1.73 1.73,1.73 0 0 1 1.73,1.73 z"
       style="fill:#ffc727"
       id="path3557" />
    <path
       d="m 269.24,295.23 a 1.74,1.74 0 1 1 -1.74,-1.73 1.73,1.73 0 0 1 1.74,1.73 z"
       style="fill:#ffc727"
       id="path3559" />
    <path
       d="m 274.94,295.23 a 1.73,1.73 0 1 1 -1.73,-1.73 1.72,1.72 0 0 1 1.73,1.73 z"
       style="fill:#ffc727"
       id="path3561" />
    <path
       d="m 280.65,295.23 a 1.73,1.73 0 1 1 -1.73,-1.73 1.72,1.72 0 0 1 1.73,1.73 z"
       style="fill:#ffc727"
       id="path3563" />
    <path
       d="m 257.82,300.42 a 1.73,1.73 0 1 1 -1.73,-1.73 1.74,1.74 0 0 1 1.73,1.73 z"
       style="fill:#ffc727"
       id="path3565" />
    <path
       d="m 263.53,300.42 a 1.74,1.74 0 1 1 -1.73,-1.73 1.74,1.74 0 0 1 1.73,1.73 z"
       style="fill:#ffc727"
       id="path3567" />
    <path
       d="m 269.24,300.42 a 1.74,1.74 0 1 1 -1.74,-1.73 1.74,1.74 0 0 1 1.74,1.73 z"
       style="fill:#ffc727"
       id="path3569" />
    <path
       d="m 274.94,300.42 a 1.73,1.73 0 1 1 -1.73,-1.73 1.73,1.73 0 0 1 1.73,1.73 z"
       style="fill:#ffc727"
       id="path3571" />
    <path
       d="m 280.65,300.42 a 1.73,1.73 0 1 1 -1.73,-1.73 1.73,1.73 0 0 1 1.73,1.73 z"
       style="fill:#ffc727"
       id="path3573" />
    <path
       d="m 257.82,305.62 a 1.73,1.73 0 1 1 -1.73,-1.73 1.73,1.73 0 0 1 1.73,1.73 z"
       style="fill:#ffc727"
       id="path3575" />
    <path
       d="m 263.53,305.62 a 1.74,1.74 0 1 1 -1.73,-1.73 1.73,1.73 0 0 1 1.73,1.73 z"
       style="fill:#ffc727"
       id="path3577" />
    <path
       d="m 269.24,305.62 a 1.74,1.74 0 1 1 -1.74,-1.73 1.73,1.73 0 0 1 1.74,1.73 z"
       style="fill:#ffc727"
       id="path3579" />
    <path
       d="m 274.94,305.62 a 1.73,1.73 0 1 1 -1.73,-1.73 1.72,1.72 0 0 1 1.73,1.73 z"
       style="fill:#ffc727"
       id="path3581" />
    <path
       d="m 280.65,305.62 a 1.73,1.73 0 1 1 -1.73,-1.73 1.72,1.72 0 0 1 1.73,1.73 z"
       style="fill:#ffc727"
       id="path3583" />
    <rect
       x="251.07001"
       y="293.5"
       width="1"
       height="13.85"
       style="fill:#263238"
       id="rect3585" />
    <rect
       x="193.75999"
       y="265.14999"
       width="89.580002"
       height="20.690001"
       style="fill:#37474f"
       id="rect3587" />
    <rect
       x="197.53"
       y="268.56"
       width="50.990002"
       height="1.75"
       style="fill:#455a64"
       id="rect3589" />
    <rect
       x="197.53"
       y="271.59"
       width="50.990002"
       height="1.75"
       style="fill:#455a64"
       id="rect3591" />
    <rect
       x="197.53"
       y="274.62"
       width="50.990002"
       height="1.75"
       style="fill:#455a64"
       id="rect3593" />
    <rect
       x="197.53"
       y="277.64001"
       width="50.990002"
       height="1.75"
       style="fill:#455a64"
       id="rect3595" />
    <rect
       x="197.53"
       y="280.67001"
       width="50.990002"
       height="1.75"
       style="fill:#455a64"
       id="rect3597" />
    <path
       d="m 257.82,270.3 a 1.73,1.73 0 1 1 -1.73,-1.74 1.74,1.74 0 0 1 1.73,1.74 z"
       style="fill:#ffc727"
       id="path3599" />
    <path
       d="m 263.53,270.3 a 1.74,1.74 0 1 1 -1.73,-1.74 1.74,1.74 0 0 1 1.73,1.74 z"
       style="fill:#ffc727"
       id="path3601" />
    <path
       d="m 269.24,270.3 a 1.74,1.74 0 1 1 -1.74,-1.74 1.74,1.74 0 0 1 1.74,1.74 z"
       style="fill:#ffc727"
       id="path3603" />
    <path
       d="m 274.94,270.3 a 1.73,1.73 0 1 1 -1.73,-1.74 1.73,1.73 0 0 1 1.73,1.74 z"
       style="fill:#ffc727"
       id="path3605" />
    <path
       d="m 280.65,270.3 a 1.73,1.73 0 1 1 -1.73,-1.74 1.73,1.73 0 0 1 1.73,1.74 z"
       style="fill:#ffc727"
       id="path3607" />
    <path
       d="m 257.82,275.49 a 1.73,1.73 0 1 1 -1.73,-1.73 1.73,1.73 0 0 1 1.73,1.73 z"
       style="fill:#ffc727"
       id="path3609" />
    <path
       d="m 263.53,275.49 a 1.74,1.74 0 1 1 -1.73,-1.73 1.73,1.73 0 0 1 1.73,1.73 z"
       style="fill:#ffc727"
       id="path3611" />
    <path
       d="m 269.24,275.49 a 1.74,1.74 0 1 1 -1.74,-1.73 1.73,1.73 0 0 1 1.74,1.73 z"
       style="fill:#ffc727"
       id="path3613" />
    <path
       d="m 274.94,275.49 a 1.73,1.73 0 1 1 -1.73,-1.73 1.72,1.72 0 0 1 1.73,1.73 z"
       style="fill:#ffc727"
       id="path3615" />
    <path
       d="m 280.65,275.49 a 1.73,1.73 0 1 1 -1.73,-1.73 1.72,1.72 0 0 1 1.73,1.73 z"
       style="fill:#ffc727"
       id="path3617" />
    <path
       d="m 257.82,280.69 a 1.73,1.73 0 1 1 -1.73,-1.74 1.74,1.74 0 0 1 1.73,1.74 z"
       style="fill:#ffc727"
       id="path3619" />
    <path
       d="m 263.53,280.69 a 1.74,1.74 0 1 1 -1.73,-1.69 1.74,1.74 0 0 1 1.73,1.69 z"
       style="fill:#ffc727"
       id="path3621" />
    <path
       d="m 269.24,280.69 a 1.74,1.74 0 1 1 -1.74,-1.69 1.74,1.74 0 0 1 1.74,1.69 z"
       style="fill:#ffc727"
       id="path3623" />
    <path
       d="m 274.94,280.69 a 1.73,1.73 0 1 1 -1.73,-1.74 1.73,1.73 0 0 1 1.73,1.74 z"
       style="fill:#ffc727"
       id="path3625" />
    <path
       d="m 280.65,280.69 a 1.73,1.73 0 1 1 -1.73,-1.74 1.73,1.73 0 0 1 1.73,1.74 z"
       style="fill:#ffc727"
       id="path3627" />
    <rect
       x="251.07001"
       y="268.56"
       width="1"
       height="13.85"
       style="fill:#263238"
       id="rect3629" />
    <rect
       x="193.75999"
       y="240.21001"
       width="89.580002"
       height="20.690001"
       style="fill:#37474f"
       id="rect3631" />
    <rect
       x="197.53"
       y="243.63"
       width="50.990002"
       height="1.75"
       style="fill:#455a64"
       id="rect3633" />
    <rect
       x="197.53"
       y="246.66"
       width="50.990002"
       height="1.75"
       style="fill:#455a64"
       id="rect3635" />
    <rect
       x="197.53"
       y="249.67999"
       width="50.990002"
       height="1.75"
       style="fill:#455a64"
       id="rect3637" />
    <rect
       x="197.53"
       y="252.71001"
       width="50.990002"
       height="1.75"
       style="fill:#455a64"
       id="rect3639" />
    <rect
       x="197.53"
       y="255.74001"
       width="50.990002"
       height="1.75"
       style="fill:#455a64"
       id="rect3641" />
    <path
       d="m 257.82,245.36 a 1.73,1.73 0 1 1 -1.73,-1.73 1.73,1.73 0 0 1 1.73,1.73 z"
       style="fill:#ffc727"
       id="path3643" />
    <path
       d="m 263.53,245.36 a 1.74,1.74 0 1 1 -1.73,-1.73 1.73,1.73 0 0 1 1.73,1.73 z"
       style="fill:#ffc727"
       id="path3645" />
    <path
       d="m 269.24,245.36 a 1.74,1.74 0 1 1 -1.74,-1.73 1.73,1.73 0 0 1 1.74,1.73 z"
       style="fill:#ffc727"
       id="path3647" />
    <path
       d="m 274.94,245.36 a 1.73,1.73 0 1 1 -1.73,-1.73 1.72,1.72 0 0 1 1.73,1.73 z"
       style="fill:#ffc727"
       id="path3649" />
    <path
       d="m 280.65,245.36 a 1.73,1.73 0 1 1 -1.73,-1.73 1.72,1.72 0 0 1 1.73,1.73 z"
       style="fill:#ffc727"
       id="path3651" />
    <path
       d="m 257.82,250.56 a 1.73,1.73 0 1 1 -1.73,-1.73 1.74,1.74 0 0 1 1.73,1.73 z"
       style="fill:#ffc727"
       id="path3653" />
    <path
       d="m 263.53,250.56 a 1.74,1.74 0 1 1 -1.73,-1.73 1.74,1.74 0 0 1 1.73,1.73 z"
       style="fill:#ffc727"
       id="path3655" />
    <path
       d="m 269.24,250.56 a 1.74,1.74 0 1 1 -1.74,-1.73 1.74,1.74 0 0 1 1.74,1.73 z"
       style="fill:#ffc727"
       id="path3657" />
    <path
       d="m 274.94,250.56 a 1.73,1.73 0 1 1 -1.73,-1.73 1.73,1.73 0 0 1 1.73,1.73 z"
       style="fill:#ffc727"
       id="path3659" />
    <path
       d="m 280.65,250.56 a 1.73,1.73 0 1 1 -1.73,-1.73 1.73,1.73 0 0 1 1.73,1.73 z"
       style="fill:#ffc727"
       id="path3661" />
    <path
       d="m 257.82,255.75 a 1.73,1.73 0 1 1 -1.73,-1.73 1.73,1.73 0 0 1 1.73,1.73 z"
       style="fill:#ffc727"
       id="path3663" />
    <path
       d="m 263.53,255.75 a 1.74,1.74 0 1 1 -1.73,-1.75 1.73,1.73 0 0 1 1.73,1.75 z"
       style="fill:#ffc727"
       id="path3665" />
    <path
       d="m 269.24,255.75 a 1.74,1.74 0 1 1 -1.74,-1.75 1.73,1.73 0 0 1 1.74,1.75 z"
       style="fill:#ffc727"
       id="path3667" />
    <path
       d="m 274.94,255.75 a 1.73,1.73 0 1 1 -1.73,-1.73 1.72,1.72 0 0 1 1.73,1.73 z"
       style="fill:#ffc727"
       id="path3669" />
    <path
       d="m 280.65,255.75 a 1.73,1.73 0 1 1 -1.73,-1.73 1.72,1.72 0 0 1 1.73,1.73 z"
       style="fill:#ffc727"
       id="path3671" />
    <rect
       x="251.07001"
       y="243.63"
       width="1"
       height="13.85"
       style="fill:#263238"
       id="rect3673" />
    <rect
       x="213.75999"
       y="215.28"
       width="89.580002"
       height="20.690001"
       style="fill:#37474f"
       id="rect3675" />
    <rect
       x="217.53"
       y="218.7"
       width="50.990002"
       height="1.75"
       style="fill:#455a64"
       id="rect3677" />
    <rect
       x="217.53"
       y="221.72"
       width="50.990002"
       height="1.75"
       style="fill:#455a64"
       id="rect3679" />
    <rect
       x="217.53"
       y="224.75"
       width="50.990002"
       height="1.75"
       style="fill:#455a64"
       id="rect3681" />
    <rect
       x="217.53"
       y="227.78"
       width="50.990002"
       height="1.75"
       style="fill:#455a64"
       id="rect3683" />
    <rect
       x="217.53"
       y="230.81"
       width="50.990002"
       height="1.75"
       style="fill:#455a64"
       id="rect3685" />
    <path
       d="m 277.82,220.43 a 1.73,1.73 0 1 1 -1.73,-1.73 1.73,1.73 0 0 1 1.73,1.73 z"
       style="fill:#ffc727"
       id="path3687" />
    <circle
       cx="281.79999"
       cy="220.42999"
       r="1.73"
       style="fill:#ffc727"
       id="circle3689" />
    <circle
       cx="287.5"
       cy="220.42999"
       r="1.73"
       style="fill:#ffc727"
       id="circle3691" />
    <path
       d="m 294.94,220.43 a 1.73,1.73 0 1 1 -1.73,-1.73 1.72,1.72 0 0 1 1.73,1.73 z"
       style="fill:#ffc727"
       id="path3693" />
    <path
       d="m 300.65,220.43 a 1.73,1.73 0 1 1 -1.73,-1.73 1.72,1.72 0 0 1 1.73,1.73 z"
       style="fill:#ffc727"
       id="path3695" />
    <path
       d="m 277.82,225.62 a 1.73,1.73 0 1 1 -1.73,-1.73 1.74,1.74 0 0 1 1.73,1.73 z"
       style="fill:#ffc727"
       id="path3697" />
    <circle
       cx="281.79999"
       cy="225.62"
       r="1.73"
       style="fill:#ffc727"
       id="circle3699" />
    <circle
       cx="287.5"
       cy="225.62"
       r="1.73"
       style="fill:#ffc727"
       id="circle3701" />
    <path
       d="m 294.94,225.62 a 1.73,1.73 0 1 1 -1.73,-1.73 1.73,1.73 0 0 1 1.73,1.73 z"
       style="fill:#ffc727"
       id="path3703" />
    <path
       d="m 300.65,225.62 a 1.73,1.73 0 1 1 -1.73,-1.73 1.73,1.73 0 0 1 1.73,1.73 z"
       style="fill:#ffc727"
       id="path3705" />
    <path
       d="m 277.82,230.82 a 1.73,1.73 0 1 1 -1.73,-1.73 1.73,1.73 0 0 1 1.73,1.73 z"
       style="fill:#ffc727"
       id="path3707" />
    <circle
       cx="281.79999"
       cy="230.82001"
       r="1.73"
       style="fill:#ffc727"
       id="circle3709" />
    <circle
       cx="287.5"
       cy="230.82001"
       r="1.73"
       style="fill:#ffc727"
       id="circle3711" />
    <path
       d="m 294.94,230.82 a 1.73,1.73 0 1 1 -1.73,-1.73 1.72,1.72 0 0 1 1.73,1.73 z"
       style="fill:#ffc727"
       id="path3713" />
    <path
       d="m 300.65,230.82 a 1.73,1.73 0 1 1 -1.73,-1.73 1.72,1.72 0 0 1 1.73,1.73 z"
       style="fill:#ffc727"
       id="path3715" />
    <rect
       x="271.07001"
       y="218.7"
       width="1"
       height="13.85"
       style="fill:#263238"
       id="rect3717" />
    <rect
       x="193.75999"
       y="215.28"
       width="20"
       height="20.690001"
       style="fill:#263238"
       id="rect3719" />
    <rect
       x="193.75999"
       y="190.35001"
       width="89.580002"
       height="20.690001"
       style="fill:#37474f"
       id="rect3721" />
    <rect
       x="197.53"
       y="193.75999"
       width="50.990002"
       height="1.75"
       style="fill:#455a64"
       id="rect3723" />
    <rect
       x="197.53"
       y="196.78999"
       width="50.990002"
       height="1.75"
       style="fill:#455a64"
       id="rect3725" />
    <rect
       x="197.53"
       y="199.82001"
       width="50.990002"
       height="1.75"
       style="fill:#455a64"
       id="rect3727" />
    <rect
       x="197.53"
       y="202.85001"
       width="50.990002"
       height="1.75"
       style="fill:#455a64"
       id="rect3729" />
    <rect
       x="197.53"
       y="205.87"
       width="50.990002"
       height="1.75"
       style="fill:#455a64"
       id="rect3731" />
    <path
       d="m 257.82,195.5 a 1.73,1.73 0 1 1 -1.73,-1.74 1.74,1.74 0 0 1 1.73,1.74 z"
       style="fill:#ffc727"
       id="path3733" />
    <circle
       cx="261.79999"
       cy="195.5"
       r="1.73"
       style="fill:#ffc727"
       id="circle3735" />
    <circle
       cx="267.5"
       cy="195.5"
       r="1.73"
       style="fill:#ffc727"
       id="circle3737" />
    <path
       d="m 274.94,195.5 a 1.73,1.73 0 1 1 -1.73,-1.74 1.73,1.73 0 0 1 1.73,1.74 z"
       style="fill:#ffc727"
       id="path3739" />
    <path
       d="m 280.65,195.5 a 1.73,1.73 0 1 1 -1.73,-1.74 1.73,1.73 0 0 1 1.73,1.74 z"
       style="fill:#ffc727"
       id="path3741" />
    <path
       d="m 257.82,200.69 a 1.73,1.73 0 1 1 -1.73,-1.73 1.73,1.73 0 0 1 1.73,1.73 z"
       style="fill:#ffc727"
       id="path3743" />
    <path
       d="m 263.53,200.69 a 1.74,1.74 0 1 1 -1.73,-1.69 1.73,1.73 0 0 1 1.73,1.69 z"
       style="fill:#ffc727"
       id="path3745" />
    <path
       d="m 269.24,200.69 a 1.74,1.74 0 1 1 -1.74,-1.69 1.73,1.73 0 0 1 1.74,1.69 z"
       style="fill:#ffc727"
       id="path3747" />
    <path
       d="m 274.94,200.69 a 1.73,1.73 0 1 1 -1.73,-1.73 1.72,1.72 0 0 1 1.73,1.73 z"
       style="fill:#ffc727"
       id="path3749" />
    <path
       d="m 280.65,200.69 a 1.73,1.73 0 1 1 -1.73,-1.73 1.72,1.72 0 0 1 1.73,1.73 z"
       style="fill:#ffc727"
       id="path3751" />
    <path
       d="m 257.82,205.89 a 1.73,1.73 0 1 1 -1.73,-1.74 1.74,1.74 0 0 1 1.73,1.74 z"
       style="fill:#ffc727"
       id="path3753" />
    <path
       d="m 263.53,205.89 a 1.74,1.74 0 1 1 -1.73,-1.74 1.74,1.74 0 0 1 1.73,1.74 z"
       style="fill:#ffc727"
       id="path3755" />
    <path
       d="m 269.24,205.89 a 1.74,1.74 0 1 1 -1.74,-1.74 1.74,1.74 0 0 1 1.74,1.74 z"
       style="fill:#ffc727"
       id="path3757" />
    <path
       d="m 274.94,205.89 a 1.73,1.73 0 1 1 -1.73,-1.74 1.73,1.73 0 0 1 1.73,1.74 z"
       style="fill:#ffc727"
       id="path3759" />
    <path
       d="m 280.65,205.89 a 1.73,1.73 0 1 1 -1.73,-1.74 1.73,1.73 0 0 1 1.73,1.74 z"
       style="fill:#ffc727"
       id="path3761" />
    <rect
       x="251.07001"
       y="193.75999"
       width="1"
       height="13.85"
       style="fill:#263238"
       id="rect3763" />
    <rect
       x="150.64999"
       y="173.13"
       width="118.08"
       height="6.5599999"
       style="fill:#37474f"
       id="rect3765" />
  </g>
  <g
     id="freepik--Floor--inject-225"
     transform="translate(-29.641192,-68.565206)">
    <polygon
       points="139.85,392.15 250,391.98 360.15,392.15 415.22,392.23 470.29,392.48 415.22,392.72 360.15,392.81 250,392.98 139.85,392.81 84.78,392.72 29.71,392.48 84.78,392.24 "
       style="fill:#263238"
       id="polygon3768" />
  </g>
  <g
     id="freepik--Character--inject-225"
     transform="translate(-29.641192,-68.565206)">
    <path
       d="m 309.92,438.31 c 2.17,0.72 64.32,0.54 66.69,-1 0.89,-0.57 1.39,-9.63 1.69,-20.58 0.07,-2.37 0.15,-40.51 0.15,-40.51 H 338 l 0.24,40.51 c 0,0 -23.76,10.72 -26.17,12.65 -2.41,1.93 -4.32,8.21 -2.15,8.93 z"
       style="fill:#eb9481"
       id="path3771" />
    <path
       d="m 378.15,421.57 c -0.31,8.69 -0.79,15.3 -1.55,15.78 -2.36,1.5 -64.51,1.68 -66.69,1 -2.18,-0.68 -0.26,-7 2.14,-8.89 1.33,-1.06 9.11,-4.78 15.84,-7.91 -2.35,1.46 -5.35,3.53 -5.08,4.76 0.52,2.37 31.47,3.94 55.34,-4.74 z"
       style="fill:#263238"
       id="path3773" />
    <path
       d="m 393.31,203.85 c 0,0 -10.94,108.15 -11.19,109.52 0,0.18 -0.12,2.26 -0.22,5.66 -0.59,18.61 -1.26,82.12 -1.26,82.12 H 336 c 0,0 2.12,-74.21 3.79,-90.25 2.13,-20.47 15.65,-107 15.65,-107 z"
       style="fill:#37474f"
       id="path3775" />
    <path
       d="m 376.8,317.18 q 2.06,-35.15 6.2,-70.13 c 1.57,-13.14 3.45,-26.24 5.33,-39.33 0,-0.12 0.19,-0.11 0.18,0 -3.45,23.31 -5.9,46.81 -8,70.28 -0.74,8.29 -2.15,22.57 -2.9,39.22 -1.37,30.4 -2,66.77 -2.23,75.38 a 0.25,0.25 0 0 1 -0.49,0 c 0.62,-23.76 0.51,-51.7 1.91,-75.42 z"
       style="fill:#263238"
       id="path3777" />
    <path
       d="m 339.09,393.75 c 20.33,-0.64 37.93,-0.19 39.45,-0.07 1.26,0.1 0.56,0.23 -0.07,0.27 -17.26,1 -38.71,0.06 -39.38,0 a 0.1,0.1 0 0 1 0,-0.2 z"
       style="fill:#263238"
       id="path3779" />
    <path
       d="m 393.31,203.85 c 0,0 -10.94,108.15 -11.19,109.52 0,0.18 -0.12,2.26 -0.22,5.66 l -21,-115.18 z"
       style="fill:#263238"
       id="path3781" />
    <path
       d="m 380.41,443.7 c 2.26,0.39 64.9,-9.26 67,-11.1 0.81,-0.68 -10.33,-60 -10.33,-60 l -40.88,6 7.52,40.59 c 0,0 -20.41,13.09 -22.52,15.35 -2.11,2.26 -3.04,8.76 -0.79,9.16 z"
       style="fill:#eb9481"
       id="path3783" />
    <path
       d="m 447.42,432.6 c -2.12,1.84 -64.76,11.49 -67,11.1 -2.24,-0.39 -1.28,-6.87 0.82,-9.12 1.22,-1.31 8.56,-6.23 14.53,-10.16 -2.12,1.84 -5.1,4.64 -4.61,5.88 0.91,2.3 31.81,-1.35 53.89,-14 1.55,9.13 2.64,16.07 2.37,16.3 z"
       style="fill:#263238"
       id="path3785" />
    <path
       d="m 355.47,203.85 c 0,0 1.31,11 7.63,19 1.51,1.9 6.16,3.67 8.56,5.42 0,0 9,82.46 11.71,91.8 3,10.37 14.88,81.31 14.88,81.31 l 46,-6.34 c 0,0 -13.37,-66.55 -16.69,-83.8 -0.75,-3.85 -10.73,-76.42 -10.5,-78.1 2.68,-20 -7,-29.24 -7,-29.24 z"
       style="fill:#37474f"
       id="path3787" />
    <path
       d="m 390.59,204.64 a 19.8,19.8 0 0 0 5.55,9.88 18.09,18.09 0 0 0 10.1,5.1 c 0.6,0.06 0.52,0.47 -0.11,0.46 -7.28,0 -14.68,-5.93 -15.84,-15.39 a 0.15206906,0.15206906 0 1 1 0.3,-0.05 z"
       style="fill:#263238"
       id="path3789" />
    <path
       d="m 362.24,222.47 a 40.05,40.05 0 0 1 7.51,4 c 2.5,1.54 4.81,3.35 7.22,5 0.09,0.07 0,0.22 -0.09,0.16 -2.53,-1.46 -5.16,-2.72 -7.66,-4.22 a 47.67,47.67 0 0 1 -7.09,-4.75 0.12,0.12 0 0 1 0.11,-0.19 z"
       style="fill:#263238"
       id="path3791" />
    <path
       d="m 361.21,207.31 c 0.39,1.66 0.88,3.31 1.32,5 0.44,1.69 0.73,3.14 1.22,4.67 a 8.06,8.06 0 0 0 2.37,3.85 c 0.64,0.55 1.34,1 2,1.51 0.37,0.27 0.76,0.52 1.14,0.79 l -0.15,-0.67 -0.42,-1.9 c -0.3,-1.4 -0.59,-2.81 -0.87,-4.22 -0.56,-2.77 -1.08,-5.57 -1.78,-8.3 a 0.09,0.09 0 0 1 0.17,-0.05 c 0.82,2.7 1.71,5.37 2.44,8.11 0.36,1.34 1.72,8 1.79,8.44 0.07,0.44 0.13,1 0.17,1.46 a 5.81,5.81 0 0 1 0.07,1.5 c 0,0.12 -0.17,0.11 -0.22,0 v 0 a 6,6 0 0 1 -0.49,-1.44 14.35,14.35 0 0 1 -0.38,-1.43 c 0,-0.17 -0.08,-0.35 -0.11,-0.53 -0.67,-0.37 -1.31,-0.87 -1.95,-1.28 -0.64,-0.41 -1.38,-0.89 -2,-1.39 a 7.55,7.55 0 0 1 -2.57,-3.64 28.59,28.59 0 0 1 -1,-4.76 c -0.29,-1.89 -0.54,-3.79 -0.89,-5.67 -0.07,-0.11 0.12,-0.17 0.14,-0.05 z"
       style="fill:#263238"
       id="path3793" />
    <path
       d="m 400.39,392.26 c 20,-3.47 37.53,-5.47 39.05,-5.56 1.26,-0.08 0.59,0.15 0,0.27 -17,3.43 -38.32,5.46 -39,5.47 a 0.09340771,0.09340771 0 0 1 -0.05,-0.18 z"
       style="fill:#263238"
       id="path3795" />
    <path
       d="m 430.36,346.72 c -2.63,-11.53 -5,-23.1 -7,-34.77 -2,-11.67 -3.52,-23.28 -5,-35 -1.48,-11.72 -3,-23.56 -4.52,-35.34 A 49.85,49.85 0 0 1 413,233 c 0.13,-2.83 1.1,-5.55 1.37,-8.36 a 37.8,37.8 0 0 0 -2.31,-16.1 c -0.46,-1.3 -1,-2.58 -1.53,-3.85 -0.07,-0.16 -0.34,-0.09 -0.28,0.09 1.77,5.33 3.4,10.8 3.48,16.46 a 38.44,38.44 0 0 1 -1.1,8.54 24.49,24.49 0 0 0 -0.15,8.28 c 1.46,11.73 3,23.46 4.49,35.18 1.49,11.72 3,23.36 4.88,35 1.88,11.64 4,23.11 6.65,34.56 2.65,11.45 5.33,23.06 8.22,34.54 0.36,1.43 0.72,2.85 1.09,4.27 0,0.17 0.29,0.09 0.25,-0.08 -2.3,-11.69 -5.06,-23.24 -7.7,-34.81 z"
       style="fill:#263238"
       id="path3797" />
    <path
       d="m 385.91,100.87 c 6.49,5 9.32,14.26 9.32,14.26 0,0 6.73,8.83 5.83,14.18 a 9.53,9.53 0 0 1 -5.2,7.12 l 0.19,-2.93 c 0,0 -1.39,3.9 -7.41,6.16 -6.02,2.26 -14.44,1.37 -19,-0.26 a 16.44,16.44 0 0 1 -7,-4.73 l 2.12,4 a 12.41,12.41 0 0 1 -10.42,-5.41 c -4.37,-6 4.74,-16.44 5.36,-18.53 0.62,-2.09 0,-16.73 15.5,-16.11 0,0 6.24,-1.2 10.71,2.25 z"
       style="fill:#263238"
       id="path3799" />
    <path
       d="m 398,135.78 a 13.84,13.84 0 0 0 3.49,-4.71 9,9 0 0 0 0.25,-5.81 20,20 0 0 0 -3.66,-6.05 c -1.49,-1.92 -3.14,-3.74 -4.6,-5.69 -0.08,-0.11 0.08,-0.22 0.18,-0.14 a 53.3,53.3 0 0 1 4.39,4.5 26,26 0 0 1 3.62,4.72 9.66,9.66 0 0 1 1.36,5.23 9.35,9.35 0 0 1 -1.4,4.23 19.46,19.46 0 0 1 -3.53,3.83 0.07433034,0.07433034 0 1 1 -0.1,-0.11 z"
       style="fill:#263238"
       id="path3801" />
    <path
       d="m 352.31,126.79 c 1.15,-5.54 5.51,-9.51 7.84,-14.51 1.26,-2.7 2.13,-5.63 3.91,-8.07 0.05,-0.06 0.16,0 0.12,0.08 -1.44,2.18 -2.12,4.66 -3.05,7.06 a 39.73,39.73 0 0 1 -3.74,6.83 c -2.56,4 -5.63,8.7 -4.31,13.67 0.61,2.29 2.31,4.7 4.8,5.13 0.09,0 0.05,0.17 0,0.15 a 7.57,7.57 0 0 1 -4.7,-3.67 9.62,9.62 0 0 1 -0.87,-6.67 z"
       style="fill:#263238"
       id="path3803" />
    <path
       d="m 352.27,128.25 a 9.88,9.88 0 0 1 0.6,-5.93 13.93,13.93 0 0 1 3.84,-4.59 c 1.74,-1.5 3.6,-3 4.55,-5.11 0,-0.09 0.17,0 0.14,0.08 -1.51,3.54 -4.95,5.53 -7.07,8.62 -2.42,3.53 -1.84,8.16 0.55,11.55 a 16.29,16.29 0 0 0 5.76,4.89 0.03,0 -90 0 0 0,0.06 c -3.91,-1.91 -7.53,-5.14 -8.37,-9.57 z"
       style="fill:#263238"
       id="path3805" />
    <path
       d="m 378.27,147 c -7.4,19.58 -16.62,35.61 -22.8,38.72 -5,2.51 -43.86,4.16 -45.2,4.1 -3.3,-0.17 -6.18,-22.46 -3.55,-24.84 0.61,-0.54 37.42,1.62 38.75,0.61 1.33,-1.01 14.32,-13.76 24.66,-23.51 7.24,-6.86 12.25,-5.96 8.14,4.92 z"
       style="fill:#eb9481"
       id="path3807" />
    <path
       d="m 317.11,188.37 a 80.93,80.93 0 0 1 -10.18,2.46 c -2.73,0.36 -10.62,1.18 -11.31,-1.79 -0.48,-2 4.11,-3 7.33,-3.85 1.7,-0.42 3.92,-1.79 3.61,-2.89 -0.55,-1.92 -4.93,-0.74 -7.88,0.41 -5.69,2.24 -13.49,6.64 -16.28,3.5 -1,-1.19 0.63,-2.8 3,-4.27 -3.64,1.57 -7.45,2.74 -8.68,1.47 a 1.78,1.78 0 0 1 0,-2.44 2.36,2.36 0 0 1 -2.51,-0.79 c -0.91,-1.3 -0.12,-2.89 1.32,-4.42 a 1.33,1.33 0 0 1 -0.88,-0.8 c -1.76,-3.84 11.24,-12.11 15.35,-12.44 a 89.15,89.15 0 0 1 24.34,1.92 c 3.95,4.36 2.78,23.92 2.77,23.93 z"
       style="fill:#eb9481"
       id="path3809" />
    <path
       d="m 301.62,174.87 a 19.21,19.21 0 0 0 -8.24,1.8 c -3,1.45 -5.56,3.68 -8.4,5.41 -0.07,0 0,0.16 0.08,0.11 1.35,-0.91 2.8,-1.69 4.19,-2.55 1.39,-0.86 2.69,-1.72 4.09,-2.46 a 19.1,19.1 0 0 1 8.28,-2.26 c 0,0 0.03,-0.05 0,-0.05 z"
       style="fill:#263238"
       id="path3811" />
    <path
       d="m 300.2,169.59 a 46.78,46.78 0 0 0 -9.53,1.75 c -3.35,1.11 -6.19,3.32 -9,5.44 q -2.5,1.92 -4.92,3.94 c -0.07,0.05 0,0.17 0.08,0.12 q 4.23,-3.3 8.67,-6.35 a 25.17,25.17 0 0 1 9,-3.94 c 1.85,-0.4 3.74,-0.65 5.62,-0.91 0.12,0 0.12,-0.06 0.08,-0.05 z"
       style="fill:#263238"
       id="path3813" />
    <path
       d="m 297.59,164.76 c -3.07,0.15 -5.75,0.28 -8.63,1.47 a 43.23,43.23 0 0 0 -9.11,5.7 c -1.52,1.2 -3,2.44 -4.45,3.71 -0.06,0.05 0,0.16 0.09,0.11 a 98.63,98.63 0 0 1 10.51,-7.61 19.93,19.93 0 0 1 5.58,-2.53 36.5,36.5 0 0 1 6.06,-0.83 c 0,0 -0.03,-0.02 -0.05,-0.02 z"
       style="fill:#263238"
       id="path3815" />
    <path
       d="m 313.72,163.61 3,28.18 c 0,0 30.49,-1.47 39.51,-6.1 9.02,-4.63 19.11,-29.57 23,-40.46 3.89,-10.89 -4.3,-8.56 -9.82,-3.49 -5.52,5.07 -23.73,22.52 -24.31,22.9 -0.58,0.38 -31.38,-1.03 -31.38,-1.03 z"
       style="fill:#ffc727"
       id="path3817" />
    <path
       d="m 341.76,184.87 a 1.36,1.36 0 0 0 -0.89,1.26 1.07,1.07 0 0 1 -0.5,0.92 1.1,1.1 0 0 1 -0.56,0.19 c -0.23,0 -0.46,0.07 -0.68,0.13 a 2.45,2.45 0 0 0 1.43,0.06 1.4,1.4 0 0 0 0.84,-1.29 1.09,1.09 0 0 1 1.11,-1.06 c 0.22,-0.05 0.45,-0.08 0.68,-0.14 a 2.74,2.74 0 0 0 -1.43,-0.07 z M 325.32,186 a 1.37,1.37 0 0 0 -0.89,1.26 1,1 0 0 1 -0.49,0.92 1.14,1.14 0 0 1 -0.57,0.19 5.28,5.28 0 0 0 -0.67,0.13 2.43,2.43 0 0 0 1.42,0.05 1.38,1.38 0 0 0 0.85,-1.28 1.08,1.08 0 0 1 0.52,-0.9 1.17,1.17 0 0 1 0.59,-0.17 c 0.22,0 0.44,-0.07 0.67,-0.13 A 2.73,2.73 0 0 0 325.32,186 Z m 16.92,-15.55 a 1.36,1.36 0 0 0 -0.89,1.26 1.08,1.08 0 0 1 -0.5,0.92 1.1,1.1 0 0 1 -0.56,0.19 5.1,5.1 0 0 0 -0.68,0.13 2.46,2.46 0 0 0 1.43,0 1.39,1.39 0 0 0 0.84,-1.28 1.1,1.1 0 0 1 0.52,-0.9 1.2,1.2 0 0 1 0.59,-0.17 c 0.22,0 0.45,-0.07 0.68,-0.13 a 2.74,2.74 0 0 0 -1.43,-0.04 z m -26.75,-6.74 a 1.24,1.24 0 0 0 0,0.27 1.08,1.08 0 0 1 -0.5,0.92 1.1,1.1 0 0 1 -0.56,0.19 4.59,4.59 0 0 0 -0.51,0.1 0.51,0.51 0 0 0 -0.17,0 h 0.17 a 2.06,2.06 0 0 0 1.26,0 1.41,1.41 0 0 0 0.82,-1.19 0.75,0.75 0 0 1 0,-0.26 z m 55.59,-1 a 1.35,1.35 0 0 0 -0.88,1.26 1.07,1.07 0 0 1 -0.5,0.92 1.14,1.14 0 0 1 -0.57,0.19 c -0.22,0 -0.45,0.07 -0.67,0.13 a 2.42,2.42 0 0 0 1.42,0.06 1.41,1.41 0 0 0 0.85,-1.29 1.11,1.11 0 0 1 0.52,-0.9 1.08,1.08 0 0 1 0.59,-0.16 h 0.22 c 0,-0.06 0.05,-0.11 0.07,-0.16 a 1.87,1.87 0 0 0 -1.05,-0.06 z m -19.74,-0.64 a 1.39,1.39 0 0 0 -0.89,1.27 1,1 0 0 1 -0.49,0.92 1.13,1.13 0 0 1 -0.57,0.18 c -0.22,0 -0.45,0.07 -0.67,0.13 a 2.35,2.35 0 0 0 1.42,0.06 1.38,1.38 0 0 0 0.85,-1.28 1.1,1.1 0 0 1 0.52,-0.9 1.17,1.17 0 0 1 0.59,-0.17 l 0.67,-0.13 a 2.62,2.62 0 0 0 -1.43,-0.09 z M 373.6,149.8 a 1.37,1.37 0 0 0 -1.5,0.31 1.08,1.08 0 0 1 -1.53,0 c -0.19,-0.13 -0.38,-0.26 -0.58,-0.38 a 2.61,2.61 0 0 0 1,1.06 1.37,1.37 0 0 0 1.52,-0.26 1.12,1.12 0 0 1 1.53,0 4.52,4.52 0 0 0 0.58,0.39 c -0.31,-0.44 -0.5,-0.92 -1.02,-1.12 z M 334,179 a 1.36,1.36 0 0 0 -1.5,0.31 1.08,1.08 0 0 1 -1,0.26 1.19,1.19 0 0 1 -0.52,-0.29 c -0.2,-0.13 -0.38,-0.27 -0.58,-0.39 a 2.71,2.71 0 0 0 1,1.07 1.39,1.39 0 0 0 1.51,-0.27 1.11,1.11 0 0 1 1,-0.3 1,1 0 0 1 0.53,0.27 c 0.2,0.13 0.37,0.27 0.58,0.39 -0.27,-0.42 -0.46,-0.87 -1.02,-1.05 z m 0.37,-14.49 -1.7,-0.06 v 0 a 0.65,0.65 0 0 0 -0.16,0.13 1.08,1.08 0 0 1 -1,0.26 1.19,1.19 0 0 1 -0.52,-0.29 l -0.26,-0.18 h -0.18 a 2,2 0 0 0 0.82,0.87 1.35,1.35 0 0 0 1.51,-0.27 1.11,1.11 0 0 1 1,-0.3 1,1 0 0 1 0.53,0.27 c 0.2,0.13 0.37,0.27 0.58,0.39 a 4.53,4.53 0 0 0 -0.58,-0.86 z M 317.79,179 a 1.38,1.38 0 0 0 -1.51,0.31 1,1 0 0 1 -0.85,0.28 l 0.05,0.47 a 1.4,1.4 0 0 0 1.17,-0.37 1.1,1.1 0 0 1 1,-0.3 1.08,1.08 0 0 1 0.53,0.27 c 0.2,0.13 0.37,0.27 0.57,0.39 -0.25,-0.42 -0.44,-0.87 -0.96,-1.05 z m 34,-0.6 a 1.38,1.38 0 0 0 -1.51,0.31 1.06,1.06 0 0 1 -1,0.26 1.27,1.27 0 0 1 -0.53,-0.29 c -0.19,-0.13 -0.37,-0.27 -0.57,-0.39 a 2.57,2.57 0 0 0 1,1.07 1.37,1.37 0 0 0 1.51,-0.26 1.09,1.09 0 0 1 1,-0.31 1.08,1.08 0 0 1 0.53,0.27 c 0.2,0.13 0.37,0.27 0.58,0.39 -0.32,-0.45 -0.51,-0.87 -1.03,-1.09 z m 9.08,-6.7 a 1.43,1.43 0 0 0 -1.29,-0.84 1.08,1.08 0 0 1 -0.9,-0.52 1.28,1.28 0 0 1 -0.17,-0.58 c 0,-0.22 -0.07,-0.45 -0.13,-0.68 a 2.73,2.73 0 0 0 -0.07,1.43 1.36,1.36 0 0 0 1.26,0.88 1.12,1.12 0 0 1 0.93,0.51 1.16,1.16 0 0 1 0.18,0.56 c 0,0.23 0.07,0.45 0.13,0.68 a 2.49,2.49 0 0 0 0.04,-1.48 z m 1.36,-13 a 1.39,1.39 0 0 0 -1.28,-0.84 1.1,1.1 0 0 1 -0.9,-0.52 1.17,1.17 0 0 1 -0.17,-0.58 c 0,-0.23 -0.07,-0.46 -0.13,-0.68 a 2.63,2.63 0 0 0 -0.07,1.43 1.34,1.34 0 0 0 1.25,0.88 1.11,1.11 0 0 1 0.93,0.5 1.2,1.2 0 0 1 0.19,0.57 4.16,4.16 0 0 0 0.13,0.67 2.46,2.46 0 0 0 0.03,-1.49 z M 326,172.48 a 1.35,1.35 0 0 0 -1.28,-0.84 1.06,1.06 0 0 1 -0.89,-0.53 1.24,1.24 0 0 1 -0.18,-0.58 5.28,5.28 0 0 0 -0.13,-0.67 2.69,2.69 0 0 0 -0.07,1.42 1.36,1.36 0 0 0 1.27,0.89 1.11,1.11 0 0 1 1.1,1.07 c 0.05,0.22 0.07,0.44 0.13,0.67 a 2.38,2.38 0 0 0 0.05,-1.43 z"
       style="fill:#ffffff"
       id="path3819" />
    <path
       d="m 324,190.33 a 62.77,62.77 0 0 0 -0.68,-6.28 q -0.39,-3.08 -0.83,-6.15 c -0.58,-4.13 -1.07,-8.3 -1.92,-12.39 a 0.08,0.08 0 0 0 -0.15,0 c 0.18,4.2 0.79,8.4 1.35,12.57 q 0.42,3.14 0.93,6.25 a 52.64,52.64 0 0 0 1.14,6 c 0,0.13 0.16,0.08 0.16,0 z"
       style="fill:#263238"
       id="path3821" />
    <path
       d="m 379.22,145.23 c -3.86,10.89 -13.94,35.83 -23,40.46 -4.51,2.31 -14.37,3.84 -23.12,4.79 l 43.52,-52.9 c 3.03,-0.58 4.84,1.32 2.6,7.65 z"
       style="fill:#263238"
       id="path3823" />
    <path
       d="m 311.87,302.66 c -9.78,0 -12.76,-30.71 -14.15,-53.8 -0.09,-1.46 -0.16,-2.63 -0.22,-3.45 -0.88,-11.78 -1.77,-14.09 -10,-14.09 v -1 c 9.39,0 10.16,3.86 11,15 0.06,0.82 0.13,2 0.22,3.47 0.78,13.07 3.18,52.86 13.15,52.86 9.38,0 10.82,-20.87 12.35,-43 0.51,-7.42 1,-15.09 1.89,-22.07 2.82,-23 7.08,-33.27 13.83,-33.27 v 1 c -6.05,0 -10.13,10.29 -12.83,32.39 -0.86,7 -1.38,14.61 -1.9,22 -1.55,22.63 -3.03,43.96 -13.34,43.96 z"
       style="fill:#ffc727"
       id="path3825" />
    <rect
       x="286.87"
       y="230.09"
       width="4.6100001"
       height="1.75"
       style="fill:#dbdbdb"
       id="rect3827" />
    <path
       d="m 316.24,296.27 c -10.95,0 -12.05,-33.81 -12.58,-50 -0.09,-2.65 -0.16,-4.75 -0.25,-6 -0.89,-11.78 -1.78,-14.09 -10,-14.09 v -1 c 9.39,0 10.16,3.86 11,15 0.09,1.28 0.16,3.38 0.25,6 0.48,14.69 1.6,49.09 11.58,49.09 8.15,0 9.06,-21.06 10,-43.35 0.21,-4.75 0.42,-9.66 0.71,-14.46 1.83,-30.79 10.87,-34.11 14.67,-34.11 v 1 c -3.52,0 -11.89,3.23 -13.67,33.17 -0.29,4.79 -0.5,9.7 -0.71,14.44 -1.01,23.78 -1.9,44.31 -11,44.31 z"
       style="fill:#263238"
       id="path3829" />
    <rect
       x="292.78"
       y="224.75"
       width="4.6100001"
       height="1.75"
       style="fill:#dbdbdb"
       id="rect3831" />
    <path
       d="m 359.62,179.08 -4.88,24.64 c 0,0 4.86,0.3 11.92,0.69 l 3.73,-6 4.43,6.49 c 15.37,0.82 31.73,0.66 38.93,0.48 0,0 -7.12,-47.59 -19.8,-62.69 -6.33,-7.55 -14.19,-7.36 -19.42,-2.53 -1.32,1.22 -15.28,17.18 -17.22,24.72 -1.69,6.61 2.31,14.2 2.31,14.2 z"
       style="fill:#ffc727"
       id="path3833" />
    <path
       d="m 402.17,188 a 1.38,1.38 0 0 0 -1.28,-0.84 1.06,1.06 0 0 1 -0.89,-0.52 1.28,1.28 0 0 1 -0.18,-0.58 5.79,5.79 0 0 0 -0.13,-0.68 2.73,2.73 0 0 0 -0.07,1.43 1.35,1.35 0 0 0 1.27,0.88 1.11,1.11 0 0 1 0.92,0.51 1.06,1.06 0 0 1 0.18,0.56 c 0.05,0.23 0.07,0.45 0.13,0.68 a 2.41,2.41 0 0 0 0.05,-1.44 z m -4.8,-22.41 a 1.39,1.39 0 0 0 -1.29,-0.85 1.05,1.05 0 0 1 -0.9,-0.53 1.2,1.2 0 0 1 -0.16,-0.57 c 0,-0.23 -0.07,-0.46 -0.13,-0.69 a 2.67,2.67 0 0 0 -0.07,1.44 1.36,1.36 0 0 0 1.25,0.89 1.07,1.07 0 0 1 0.92,0.49 1,1 0 0 1 0.19,0.57 c 0,0.23 0.07,0.45 0.13,0.68 a 2.46,2.46 0 0 0 0.06,-1.44 z M 385.51,142.9 a 1.39,1.39 0 0 0 -1.28,-0.85 1.05,1.05 0 0 1 -0.9,-0.52 1.24,1.24 0 0 1 -0.17,-0.58 5.79,5.79 0 0 0 -0.13,-0.68 2.64,2.64 0 0 0 -0.07,1.43 1.36,1.36 0 0 0 1.26,0.89 1.09,1.09 0 0 1 0.92,0.49 1.17,1.17 0 0 1 0.19,0.57 c 0,0.23 0.07,0.46 0.13,0.68 a 2.46,2.46 0 0 0 0.05,-1.44 z m -1.18,15.17 a 1.38,1.38 0 0 0 -1.28,-0.84 1.05,1.05 0 0 1 -0.9,-0.52 1.16,1.16 0 0 1 -0.16,-0.58 c -0.05,-0.22 -0.07,-0.45 -0.14,-0.68 a 2.74,2.74 0 0 0 -0.07,1.43 1.37,1.37 0 0 0 1.26,0.89 1.11,1.11 0 0 1 0.93,0.49 1.13,1.13 0 0 1 0.18,0.57 c 0.05,0.23 0.07,0.46 0.13,0.68 a 2.41,2.41 0 0 0 0.05,-1.45 z m -22.12,0.58 a 1.39,1.39 0 0 0 -1.28,-0.84 0.41,0.41 0 0 1 -0.16,0 v 0 c -0.1,0.16 -0.2,0.32 -0.29,0.48 a 1.32,1.32 0 0 0 0.44,0.08 1.11,1.11 0 0 1 0.93,0.5 1.2,1.2 0 0 1 0.19,0.57 4.16,4.16 0 0 0 0.13,0.67 2.46,2.46 0 0 0 0.04,-1.47 z m -1.36,13 a 1.43,1.43 0 0 0 -1.29,-0.84 1.08,1.08 0 0 1 -0.9,-0.52 1.28,1.28 0 0 1 -0.17,-0.58 c 0,-0.22 -0.07,-0.45 -0.13,-0.68 a 2.73,2.73 0 0 0 -0.07,1.43 1.36,1.36 0 0 0 1.26,0.88 1.12,1.12 0 0 1 0.93,0.51 1.16,1.16 0 0 1 0.18,0.56 c 0,0.23 0.07,0.45 0.13,0.68 a 2.49,2.49 0 0 0 0.06,-1.43 z M 381,188 a 1.41,1.41 0 0 0 -1.28,-0.84 1.08,1.08 0 0 1 -0.9,-0.52 1.17,1.17 0 0 1 -0.17,-0.58 c 0,-0.22 -0.07,-0.45 -0.13,-0.68 a 2.63,2.63 0 0 0 -0.07,1.43 1.35,1.35 0 0 0 1.26,0.88 1.11,1.11 0 0 1 0.92,0.51 1.16,1.16 0 0 1 0.19,0.56 c 0,0.23 0.07,0.45 0.13,0.68 A 2.49,2.49 0 0 0 381,188 Z m 11.71,6.9 a 1.36,1.36 0 0 0 -1.5,0.31 1.11,1.11 0 0 1 -1,0.26 1.27,1.27 0 0 1 -0.53,-0.29 c -0.19,-0.14 -0.37,-0.27 -0.57,-0.39 a 2.55,2.55 0 0 0 1,1.06 1.33,1.33 0 0 0 1.51,-0.26 1.11,1.11 0 0 1 1,-0.3 1.14,1.14 0 0 1 0.53,0.26 c 0.2,0.14 0.37,0.28 0.58,0.4 -0.31,-0.39 -0.5,-0.84 -1.02,-1.06 z M 371.3,178.36 a 1.36,1.36 0 0 0 -1.5,0.31 1.06,1.06 0 0 1 -1,0.26 1.16,1.16 0 0 1 -0.53,-0.29 c -0.2,-0.13 -0.37,-0.27 -0.57,-0.39 a 2.55,2.55 0 0 0 0.95,1.07 1.38,1.38 0 0 0 1.52,-0.26 1.11,1.11 0 0 1 1.54,0 c 0.19,0.13 0.36,0.27 0.57,0.39 -0.28,-0.45 -0.46,-0.87 -0.98,-1.09 z m -0.46,15.93 a 1.39,1.39 0 0 0 -1.51,0.31 1.06,1.06 0 0 1 -1,0.26 1.08,1.08 0 0 1 -0.53,-0.29 c -0.19,-0.13 -0.37,-0.27 -0.57,-0.39 a 2.57,2.57 0 0 0 1,1.07 1.37,1.37 0 0 0 1.51,-0.26 1.11,1.11 0 0 1 1,-0.31 1.08,1.08 0 0 1 0.53,0.27 c 0.19,0.13 0.37,0.27 0.57,0.39 -0.29,-0.34 -0.48,-0.82 -1,-1.05 z m 36.57,-19.35 a 1.41,1.41 0 0 0 -1.51,0.31 1.07,1.07 0 0 1 -1,0.26 1.09,1.09 0 0 1 -0.52,-0.29 c -0.19,-0.12 -0.37,-0.27 -0.58,-0.38 a 2.83,2.83 0 0 0 1,1.06 1.37,1.37 0 0 0 1.53,-0.27 1.06,1.06 0 0 1 1,-0.3 0.79,0.79 0 0 1 0.26,0.08 z m 0.78,23.52 a 1.44,1.44 0 0 0 -1.51,0.32 1.06,1.06 0 0 1 -1,0.26 1,1 0 0 1 -0.53,-0.29 c -0.19,-0.12 -0.37,-0.27 -0.57,-0.38 a 2.65,2.65 0 0 0 0.95,1.06 1.38,1.38 0 0 0 1.53,-0.26 1,1 0 0 1 1,-0.3 1,1 0 0 1 0.53,0.27 c 0.19,0.12 0.36,0.27 0.57,0.38 a 2.51,2.51 0 0 0 -0.97,-1.06 z M 373.6,149.8 a 1.37,1.37 0 0 0 -1.5,0.31 1.08,1.08 0 0 1 -1.53,0 c -0.19,-0.13 -0.38,-0.26 -0.58,-0.38 a 2.61,2.61 0 0 0 1,1.06 1.37,1.37 0 0 0 1.52,-0.26 1.12,1.12 0 0 1 1.53,0 4.52,4.52 0 0 0 0.58,0.39 c -0.31,-0.44 -0.5,-0.92 -1.02,-1.12 z m 9.79,20.83 a 1.37,1.37 0 0 0 -1.5,0.31 1.08,1.08 0 0 1 -1,0.26 1.05,1.05 0 0 1 -0.52,-0.29 c -0.19,-0.13 -0.37,-0.27 -0.58,-0.39 a 2.71,2.71 0 0 0 1,1.07 1.37,1.37 0 0 0 1.52,-0.27 1.09,1.09 0 0 1 1,-0.3 1,1 0 0 1 0.52,0.27 c 0.19,0.13 0.37,0.27 0.58,0.39 -0.31,-0.37 -0.49,-0.83 -1.02,-1.05 z m -12.31,-7.93 a 1.35,1.35 0 0 0 -0.88,1.26 1.07,1.07 0 0 1 -0.5,0.92 1.14,1.14 0 0 1 -0.57,0.19 c -0.22,0 -0.45,0.07 -0.67,0.13 a 2.42,2.42 0 0 0 1.42,0.06 1.41,1.41 0 0 0 0.85,-1.29 1.11,1.11 0 0 1 0.52,-0.9 1.08,1.08 0 0 1 0.59,-0.16 c 0.22,0 0.44,-0.08 0.68,-0.14 a 2.77,2.77 0 0 0 -1.44,-0.07 z m -10.91,22.39 a 1.37,1.37 0 0 0 -0.88,1.26 1.08,1.08 0 0 1 -0.5,0.93 1.13,1.13 0 0 1 -0.57,0.18 h -0.27 a 2.83,2.83 0 0 0 -0.4,0.08 l 0.37,0.08 a 1.65,1.65 0 0 0 1.05,0 1.39,1.39 0 0 0 0.85,-1.28 1.13,1.13 0 0 1 0.52,-0.91 1.28,1.28 0 0 1 0.59,-0.16 l 0.67,-0.13 a 2.72,2.72 0 0 0 -1.43,-0.05 z M 361.1,202 a 1.37,1.37 0 0 0 -0.88,1.26 1,1 0 0 1 -0.3,0.76 h 0.59 a 1.28,1.28 0 0 0 0.24,-0.77 1.1,1.1 0 0 1 0.52,-0.9 1.17,1.17 0 0 1 0.59,-0.17 l 0.68,-0.13 A 2.77,2.77 0 0 0 361.1,202 Z m 19.9,-1.17 a 1.34,1.34 0 0 0 -0.89,1.26 1.08,1.08 0 0 1 -0.5,0.92 1,1 0 0 1 -0.56,0.19 c -0.23,0 -0.46,0.07 -0.68,0.13 a 2.38,2.38 0 0 0 1.43,0 1.38,1.38 0 0 0 0.84,-1.28 1.1,1.1 0 0 1 0.52,-0.9 1.13,1.13 0 0 1 0.59,-0.16 l 0.67,-0.13 A 2.51,2.51 0 0 0 381,200.84 Z m 10.64,-22.59 a 1.37,1.37 0 0 0 -0.89,1.25 1.09,1.09 0 0 1 -0.48,0.93 1.28,1.28 0 0 1 -0.58,0.19 c -0.22,0 -0.44,0.07 -0.67,0.13 a 2.55,2.55 0 0 0 1.43,0.05 1.39,1.39 0 0 0 0.84,-1.29 1.07,1.07 0 0 1 0.52,-0.89 1.2,1.2 0 0 1 0.58,-0.17 c 0.23,0 0.45,-0.07 0.68,-0.13 a 2.63,2.63 0 0 0 -1.43,-0.06 z M 396,148.5 a 1.39,1.39 0 0 0 -0.89,1.27 1.06,1.06 0 0 1 -0.49,0.92 1.13,1.13 0 0 1 -0.57,0.18 c -0.22,0 -0.45,0.07 -0.68,0.14 a 2.47,2.47 0 0 0 1.43,0.05 1.39,1.39 0 0 0 0.85,-1.29 1.07,1.07 0 0 1 0.52,-0.89 1.17,1.17 0 0 1 0.58,-0.17 c 0.23,0 0.46,-0.07 0.68,-0.13 A 2.63,2.63 0 0 0 396,148.5 Z"
       style="fill:#ffffff"
       id="path3835" />
    <path
       d="m 356.53,195.31 c 0.68,-2.78 1.2,-5 1.8,-7.75 0.6,-2.75 1.23,-5.58 1.8,-8.38 V 179 l -0.11,-0.19 a 21.54,21.54 0 0 1 -2.5,-7.25 15.83,15.83 0 0 1 -0.16,-3.83 13.13,13.13 0 0 1 0.78,-3.72 45.45,45.45 0 0 1 3.46,-7 c 1.34,-2.26 2.44,-4.16 3.92,-6.36 0.24,-0.34 0.11,-0.43 -0.11,-0.16 -1.46,1.78 -3.08,4.26 -4.35,6.19 a 39.12,39.12 0 0 0 -3.85,7 13.32,13.32 0 0 0 -0.92,4 16.89,16.89 0 0 0 0.13,4.08 21.19,21.19 0 0 0 2.74,7.63 l -0.07,-0.38 c -0.52,2.81 -1,5.63 -1.45,8.45 -0.43,2.53 -0.91,5.26 -1.27,7.81 -0.01,0.26 -0.07,1.06 0.16,0.04 z"
       style="fill:#263238"
       id="path3837" />
    <path
       d="m 363,152.61 a 12.11,12.11 0 0 0 -1.51,2.57 11.06,11.06 0 0 0 -0.53,1.39 6.17,6.17 0 0 0 -0.3,1.48 c 0.48,-0.88 0.93,-1.75 1.34,-2.65 a 17.44,17.44 0 0 0 1,-2.79 z"
       style="fill:#263238"
       id="path3839" />
    <path
       d="m 377.56,144.92 c -0.61,4.85 -1.34,9.68 -2.07,14.51 -0.73,4.83 -1.57,9.64 -2.34,14.47 -0.77,4.83 -1.67,9.62 -2.57,14.42 l -1.36,7.2 c -0.49,2.4 -1,4.8 -1.47,7.19 0.3,-2.43 0.66,-4.85 1,-7.27 l 1.09,-7.25 c 0.73,-4.82 1.56,-9.64 2.33,-14.46 0.77,-4.82 1.67,-9.63 2.57,-14.43 0.9,-4.8 1.8,-9.6 2.82,-14.38 z"
       style="fill:#263238"
       id="path3841" />
    <path
       d="m 371.49,159.09 a 0.92,0.92 0 0 0 1.8,0.34 0.92,0.92 0 1 0 -1.8,-0.34 z"
       style="fill:#263238"
       id="path3843" />
    <path
       d="m 370.1,168.43 a 0.92,0.92 0 0 0 0.73,1.07 0.93,0.93 0 0 0 1.07,-0.73 0.92,0.92 0 0 0 -0.73,-1.07 0.91,0.91 0 0 0 -1.07,0.73 z"
       style="fill:#263238"
       id="path3845" />
    <path
       d="m 368.7,177.76 a 0.92,0.92 0 0 0 1.8,0.34 0.91,0.91 0 0 0 -0.73,-1.07 0.92,0.92 0 0 0 -1.07,0.73 z"
       style="fill:#263238"
       id="path3847" />
    <path
       d="m 367.31,187.09 a 0.92,0.92 0 1 0 1.07,-0.73 0.93,0.93 0 0 0 -1.07,0.73 z"
       style="fill:#263238"
       id="path3849" />
    <path
       d="m 365.92,196.43 a 0.92,0.92 0 1 0 1.8,0.34 0.92,0.92 0 1 0 -1.8,-0.34 z"
       style="fill:#263238"
       id="path3851" />
    <path
       d="m 395.21,142.43 c 17.83,15.82 39.68,50.1 36.24,57.58 -3.83,8.33 -29.94,-13.45 -29.29,-14.69 0.55,-1 -9.24,-17.88 -15.5,-36 -5.53,-16.03 4.14,-10.81 8.55,-6.89 z"
       style="fill:#ffc727"
       id="path3853" />
    <path
       d="m 423.38,198.26 a 1.38,1.38 0 0 0 -1.28,-0.84 1.09,1.09 0 0 1 -0.9,-0.53 1.11,1.11 0 0 1 -0.17,-0.58 c 0,-0.22 -0.07,-0.45 -0.13,-0.67 a 2.72,2.72 0 0 0 -0.08,1.43 1.37,1.37 0 0 0 1.27,0.88 1.12,1.12 0 0 1 0.93,0.5 1.1,1.1 0 0 1 0.17,0.57 c 0.06,0.22 0.08,0.44 0.13,0.67 a 2.38,2.38 0 0 0 0.06,-1.43 z m 0.12,-20.34 v 0 a 1.06,1.06 0 0 1 -0.89,-0.52 1.28,1.28 0 0 1 -0.18,-0.58 c 0,-0.22 -0.07,-0.45 -0.13,-0.68 a 2.73,2.73 0 0 0 -0.07,1.43 1.35,1.35 0 0 0 1.27,0.88 1.06,1.06 0 0 1 0.4,0.08 z m 1.11,1.9 c 0,0.12 0.05,0.25 0.08,0.38 v -0.18 z m -8.5,-11 a 1.38,1.38 0 0 0 -1.28,-0.85 1.05,1.05 0 0 1 -0.9,-0.52 1.16,1.16 0 0 1 -0.16,-0.58 c 0,-0.22 -0.07,-0.45 -0.13,-0.68 a 2.63,2.63 0 0 0 -0.08,1.43 1.37,1.37 0 0 0 1.26,0.89 1.1,1.1 0 0 1 0.93,0.5 1.06,1.06 0 0 1 0.18,0.56 c 0.05,0.23 0.07,0.46 0.13,0.68 a 2.38,2.38 0 0 0 0.05,-1.39 z m -18.74,-3.28 a 1.39,1.39 0 0 0 -1.29,-0.85 1.05,1.05 0 0 1 -0.9,-0.53 1.2,1.2 0 0 1 -0.16,-0.57 c 0,-0.23 -0.07,-0.46 -0.13,-0.69 a 2.67,2.67 0 0 0 -0.07,1.44 1.36,1.36 0 0 0 1.25,0.89 1.07,1.07 0 0 1 0.92,0.49 1,1 0 0 1 0.19,0.57 c 0,0.23 0.07,0.45 0.13,0.68 a 2.46,2.46 0 0 0 0.06,-1.39 z m -11.86,-22.69 a 1.32,1.32 0 0 0 -0.49,-0.61 c 0,0.22 0,0.46 0.05,0.71 l 0.07,0.08 a 1.17,1.17 0 0 1 0.19,0.57 c 0,0.23 0.07,0.46 0.13,0.68 a 2.46,2.46 0 0 0 0.05,-1.39 z m 21.9,32.05 a 1.41,1.41 0 0 0 -1.51,0.31 1.07,1.07 0 0 1 -1,0.26 1.09,1.09 0 0 1 -0.52,-0.29 c -0.19,-0.12 -0.37,-0.27 -0.58,-0.38 a 2.83,2.83 0 0 0 1,1.06 1.37,1.37 0 0 0 1.53,-0.27 1.06,1.06 0 0 1 1,-0.3 1.09,1.09 0 0 1 0.54,0.28 c 0.19,0.12 0.37,0.26 0.57,0.38 -0.32,-0.33 -0.51,-0.78 -1.03,-1.01 z m 21.87,14 h -0.09 a 1.09,1.09 0 0 1 -0.52,-0.29 c -0.19,-0.13 -0.38,-0.27 -0.58,-0.38 a 2.82,2.82 0 0 0 1,1.06 1.36,1.36 0 0 0 0.44,0.11 z m -12.95,-2.75 a 1.38,1.38 0 0 0 -0.89,1.27 1.07,1.07 0 0 1 -0.49,0.92 1,1 0 0 1 -0.57,0.18 c -0.22,0.05 -0.45,0.07 -0.67,0.13 a 2.35,2.35 0 0 0 1.42,0.06 1.38,1.38 0 0 0 0.85,-1.28 1.08,1.08 0 0 1 0.52,-0.9 1.17,1.17 0 0 1 0.58,-0.17 c 0.23,0 0.45,-0.07 0.68,-0.13 a 2.63,2.63 0 0 0 -1.43,0 z m -8.86,-29.17 a 1.37,1.37 0 0 0 -0.89,1.26 1.08,1.08 0 0 1 -0.5,0.93 1.09,1.09 0 0 1 -0.56,0.18 c -0.23,0 -0.46,0.07 -0.68,0.13 a 2.38,2.38 0 0 0 1.43,0.05 1.38,1.38 0 0 0 0.85,-1.28 1.05,1.05 0 0 1 0.52,-0.9 1.41,1.41 0 0 1 0.58,-0.17 c 0.22,0 0.45,-0.07 0.67,-0.13 a 2.69,2.69 0 0 0 -1.42,0.01 z M 396,148.5 a 1.39,1.39 0 0 0 -0.89,1.27 1.06,1.06 0 0 1 -0.49,0.92 1.13,1.13 0 0 1 -0.57,0.18 c -0.22,0 -0.45,0.07 -0.68,0.14 a 2.47,2.47 0 0 0 1.43,0.05 1.39,1.39 0 0 0 0.85,-1.29 1.07,1.07 0 0 1 0.52,-0.89 1.17,1.17 0 0 1 0.58,-0.17 c 0.23,0 0.46,-0.07 0.68,-0.13 A 2.63,2.63 0 0 0 396,148.5 Z"
       style="fill:#ffffff"
       id="path3855" />
    <path
       d="m 401.05,181.55 c -0.53,-1.2 -1.08,-2.38 -1.65,-3.55 -1.11,-2.27 -2.22,-4.54 -3.29,-6.83 -1.07,-2.29 -2.09,-4.6 -3.16,-6.89 -1.07,-2.29 -2.25,-4.68 -3.36,-7 0,0 -0.09,0 -0.07,0 0.68,1.72 1.36,3.45 2.06,5.17 -0.55,-0.87 -1.08,-1.74 -1.59,-2.63 0,0 -0.11,0 -0.08,0.05 a 33.24,33.24 0 0 0 2,3.4 l 0.51,1.25 c 1,2.28 2,4.53 3,6.78 1,2.25 2.07,4.62 3.12,6.93 0.54,1.19 1.11,2.36 1.7,3.52 a 12.38,12.38 0 0 0 1.89,3.15 0.08,0.08 0 0 0 0.13,-0.06 12.35,12.35 0 0 0 -1.21,-3.29 z"
       style="fill:#263238"
       id="path3857" />
    <path
       d="m 431.45,200 c -3.4,5.63 -21.18,9.46 -47.59,11.61 -3.6,0.3 -9.74,-21.82 -6.07,-23 4.63,-1.49 24.82,-3.94 26.2,-4.12 11.65,-1.49 29.77,11.7 27.46,15.51 z"
       style="fill:#eb9481"
       id="path3859" />
    <path
       d="m 386.66,186.5 11.53,26.15 c 0,0 30.34,-5.35 33.26,-12.64 2.92,-7.29 -18.85,-15.76 -24.23,-15.85 -5.38,-0.09 -20.56,2.34 -20.56,2.34 z"
       style="fill:#ffc727"
       id="path3861" />
    <path
       d="m 404.79,209.51 c -0.6,-2 -1.49,-3.95 -2.28,-5.89 -0.79,-1.94 -1.58,-3.82 -2.39,-5.72 -1.63,-3.84 -3.19,-7.75 -5.07,-11.47 a 0.07,0.07 0 0 0 -0.14,0 c 1.26,4 2.94,7.92 4.56,11.79 0.81,1.95 1.66,3.88 2.52,5.81 a 52.55,52.55 0 0 0 2.66,5.5 c 0.05,0.14 0.17,0.06 0.14,-0.02 z"
       style="fill:#263238"
       id="path3863" />
    <path
       d="m 418.53,187.65 a 44,44 0 0 0 -5.71,-2.52 l -0.86,-0.3 a 30.25,30.25 0 0 1 3.52,0.65 c 0.09,0 0.11,-0.1 0,-0.13 a 14.13,14.13 0 0 0 -4.55,-0.83 13.86,13.86 0 0 0 -4.08,-0.65 c -2.14,0 -4.29,0.29 -6.41,0.48 -2.12,0.19 -4.4,0.44 -6.6,0.73 -2.42,0.32 -4.82,0.67 -7.21,1.2 -0.14,0 -0.1,0.26 0,0.25 4.24,-0.32 8.46,-0.89 12.68,-1.33 q 3.12,-0.33 6.24,-0.58 a 11.64,11.64 0 0 1 3.12,0 23.83,23.83 0 0 1 2.9,0.78 c 1.09,0.34 2.2,0.65 3.29,1 1.09,0.35 2.36,0.9 3.52,1.37 0.17,0.08 0.26,-0.06 0.15,-0.12 z"
       style="fill:#263238"
       id="path3865" />
    <path
       d="m 423.38,198.26 a 1.38,1.38 0 0 0 -1.28,-0.84 1.09,1.09 0 0 1 -0.9,-0.53 1.11,1.11 0 0 1 -0.17,-0.58 c 0,-0.22 -0.07,-0.45 -0.13,-0.67 a 2.72,2.72 0 0 0 -0.08,1.43 1.37,1.37 0 0 0 1.27,0.88 1.12,1.12 0 0 1 0.93,0.5 1.1,1.1 0 0 1 0.17,0.57 c 0.06,0.22 0.08,0.44 0.13,0.67 a 2.38,2.38 0 0 0 0.06,-1.43 z M 402.17,188 a 1.38,1.38 0 0 0 -1.28,-0.84 1.06,1.06 0 0 1 -0.89,-0.52 1.28,1.28 0 0 1 -0.18,-0.58 5.79,5.79 0 0 0 -0.13,-0.68 2.73,2.73 0 0 0 -0.07,1.43 1.35,1.35 0 0 0 1.27,0.88 1.11,1.11 0 0 1 0.92,0.51 1.06,1.06 0 0 1 0.18,0.56 c 0.05,0.23 0.07,0.45 0.13,0.68 a 2.41,2.41 0 0 0 0.05,-1.44 z m -9.46,6.9 a 1.36,1.36 0 0 0 -1.5,0.31 1.05,1.05 0 0 1 -0.59,0.28 l 0.2,0.47 v 0 a 1.31,1.31 0 0 0 0.74,-0.37 1.11,1.11 0 0 1 1,-0.3 1.14,1.14 0 0 1 0.53,0.26 c 0.2,0.14 0.37,0.28 0.58,0.4 -0.25,-0.39 -0.44,-0.84 -0.96,-1.06 z m 35.38,7.82 c 0.11,0.16 0.21,0.32 0.33,0.48 a 1.15,1.15 0 0 0 0.19,-0.14 z m -19.9,-4.25 a 1.44,1.44 0 0 0 -1.51,0.32 1.06,1.06 0 0 1 -1,0.26 1,1 0 0 1 -0.53,-0.29 c -0.19,-0.12 -0.37,-0.27 -0.57,-0.38 a 2.65,2.65 0 0 0 0.95,1.06 1.38,1.38 0 0 0 1.53,-0.26 1,1 0 0 1 1,-0.3 1,1 0 0 1 0.53,0.27 c 0.19,0.12 0.36,0.27 0.57,0.38 a 2.51,2.51 0 0 0 -0.97,-1.07 z m 8.14,7 a 1.36,1.36 0 0 0 -0.89,1.26 1.07,1.07 0 0 1 -0.49,0.92 1.14,1.14 0 0 1 -0.57,0.19 c -0.22,0 -0.45,0.07 -0.67,0.13 a 2.51,2.51 0 0 0 1.42,0.06 1.41,1.41 0 0 0 0.85,-1.29 1.08,1.08 0 0 1 0.52,-0.9 1.17,1.17 0 0 1 0.58,-0.17 c 0.23,0 0.45,-0.07 0.68,-0.13 a 2.73,2.73 0 0 0 -1.43,-0.08 z m -0.39,-19 a 1.39,1.39 0 0 0 -0.5,1 1.07,1.07 0 0 1 -0.49,0.92 1,1 0 0 1 -0.57,0.18 c -0.22,0.05 -0.45,0.07 -0.67,0.13 a 2.35,2.35 0 0 0 1.42,0.06 1.38,1.38 0 0 0 0.85,-1.28 1.06,1.06 0 0 1 0.46,-0.86 z"
       style="fill:#ffffff"
       id="path3867" />
    <rect
       x="374.10001"
       y="203.60001"
       width="46.259998"
       height="2.7"
       style="fill:#455a64"
       id="rect3869" />
    <rect
       x="374.10001"
       y="203.60001"
       width="28.120001"
       height="2.7"
       style="fill:#263238"
       id="rect3871" />
    <polygon
       points="330.43,166.38 388.99,166.38 397.36,206.34 338.81,206.35 "
       style="fill:#455a64"
       id="polygon3873" />
    <path
       d="m 367.46,186.36 a 3.15,3.15 0 0 1 -3.19,3.58 4.06,4.06 0 0 1 -3.94,-3.58 3.15,3.15 0 0 1 3.19,-3.58 4.06,4.06 0 0 1 3.94,3.58 z"
       style="fill:#263238"
       id="path3875" />
    <path
       d="m 387.57,208.72 c -3.61,2 -8,6.63 -11,7.16 a 3.51,3.51 0 0 1 -3.8,-1.75 c 0,0 -1.35,3.1 -4.16,3.12 -1.45,0 -2.74,-2.28 -2.74,-2.28 a 4.17,4.17 0 0 1 -3.69,2.3 c -2,-0.1 -3,-2.39 -3,-2.39 0,0 -2.23,1.81 -4.23,1.05 -4,-1.54 -5,-18.63 1.21,-21.61 2.87,-1.38 2.87,2.8 2.87,2.8 0,0 1.46,-6 5,-6.29 3.54,-0.29 3.19,5.16 3.19,5.16 0,0 1.47,-5.82 5.14,-5.74 3.83,0.09 2.56,5.47 2.56,5.47 0,0 2.38,-3.93 5.18,-3.23 4.63,1.17 -0.62,10.1 0.47,13.81 h 6.12 z"
       style="fill:#eb9481"
       id="path3877" />
    <path
       d="m 382.37,212.06 c 3.58,-1.55 5.29,1 9,0.52 4.15,-0.54 2.8,-5.42 -4.5,-6.28 h -6.33 z"
       style="fill:#eb9481"
       id="path3879" />
    <path
       d="m 359,214.54 c 0,0.06 -0.07,0.08 -0.09,0 A 29.63,29.63 0 0 1 359,196.9 c 0.06,-0.19 0.39,-0.16 0.35,0 A 60.65,60.65 0 0 0 359,214.54 Z"
       style="fill:#263238"
       id="path3881" />
    <path
       d="m 365.85,215.05 c 0,0.07 -0.1,0.08 -0.12,0 a 27.8,27.8 0 0 1 1.33,-19.27 c 0.1,-0.21 0.4,-0.3 0.3,-0.05 -1.66,4.27 -2.27,13.84 -1.51,19.32 z"
       style="fill:#263238"
       id="path3883" />
    <path
       d="m 375.29,195.35 c -2.61,5.94 -3.05,12.13 -2.59,18.55 0,0.08 -0.12,0.08 -0.14,0 -1.08,-3.08 -0.95,-7.2 -0.57,-10.4 a 17.14,17.14 0 0 1 3.09,-8.25 c 0.07,-0.09 0.26,-0.03 0.21,0.1 z"
       style="fill:#263238"
       id="path3885" />
    <path
       d="m 384.64,140.3 c -0.3,1 -5.4,7 -9.87,6.52 -1.46,-0.17 -0.9,-8.16 -0.9,-8.16 l -0.09,-0.6 -1.3,-8.38 10.13,-5.59 1.45,-0.73 c 0,0 0.21,2.32 0.43,5.21 v 0.41 c 0,0.17 0,0.32 0.05,0.47 0,0.43 0.08,0.87 0.1,1.31 0.02,0.44 0.05,0.66 0.06,1 0.01,0.34 0,0.7 0.06,1 a 54.24,54.24 0 0 1 -0.12,7.54 z"
       style="fill:#eb9481"
       id="path3887" />
    <path
       d="m 384.49,128.57 a 17,17 0 0 1 -10.71,9.49 l -1.3,-8.38 10.13,-5.59 1.45,-0.73 c 0,0 0.21,2.32 0.43,5.21 z"
       style="fill:#263238"
       id="path3889" />
    <path
       d="m 361.15,119 c 0.85,14.87 9.86,16 13.06,15.85 2.91,-0.17 12.8,-1.12 13.49,-16 0.69,-14.88 -6.5,-19.18 -13.18,-19.15 -6.68,0.03 -14.23,4.45 -13.37,19.3 z"
       style="fill:#eb9481"
       id="path3891" />
    <path
       d="m 363.69,114.78 c 0.35,-0.06 0.66,-0.18 1,-0.27 a 1.71,1.71 0 0 0 1,-0.47 0.54,0.54 0 0 0 0,-0.65 1.31,1.31 0 0 0 -1.31,-0.23 1.92,1.92 0 0 0 -1.17,0.75 0.56,0.56 0 0 0 0.48,0.87 z"
       style="fill:#263238"
       id="path3893" />
    <path
       d="m 373.79,114.59 c -0.35,0 -0.67,-0.1 -1,-0.16 a 1.6,1.6 0 0 1 -1,-0.36 0.53,0.53 0 0 1 0,-0.64 1.29,1.29 0 0 1 1.27,-0.38 1.89,1.89 0 0 1 1.25,0.61 0.57,0.57 0 0 1 -0.52,0.93 z"
       style="fill:#263238"
       id="path3895" />
    <path
       d="m 371.5,118.41 c 0,0 0.08,0 0.08,0.09 0,1 0.17,2.17 1.1,2.48 a 0.03,0 -90 0 0 0,0.06 c -1.13,-0.12 -1.35,-1.67 -1.18,-2.63 z"
       style="fill:#263238"
       id="path3897" />
    <path
       d="m 372.37,117.32 c 1.62,-0.18 1.86,3.09 0.35,3.25 -1.51,0.16 -1.72,-3.1 -0.35,-3.25 z"
       style="fill:#263238"
       id="path3899" />
    <path
       d="m 373,117.45 c 0.3,0.16 0.6,0.47 1,0.48 0.4,0.01 0.67,-0.36 0.91,-0.7 0,0 0.05,0 0.06,0 0.05,0.62 -0.14,1.28 -0.8,1.43 -0.66,0.15 -1.09,-0.4 -1.29,-1 -0.07,-0.1 0.02,-0.28 0.12,-0.21 z"
       style="fill:#263238"
       id="path3901" />
    <path
       d="m 365.86,118.37 c 0,0 -0.07,0.06 -0.07,0.1 0.12,1 0.08,2.18 -0.81,2.59 0,0 0,0.06 0,0 1.11,-0.19 1.15,-1.75 0.88,-2.69 z"
       style="fill:#263238"
       id="path3903" />
    <path
       d="m 364.88,117.39 c -1.64,0 -1.51,3.28 0,3.27 1.51,-0.01 1.37,-3.28 0,-3.27 z"
       style="fill:#263238"
       id="path3905" />
    <path
       d="m 364.2,117.63 c -0.25,0.19 -0.49,0.51 -0.8,0.54 -0.31,0.03 -0.64,-0.3 -0.88,-0.63 0,0 0,0 0,0 0,0.62 0.24,1.27 0.85,1.36 0.61,0.09 0.93,-0.46 1.06,-1.09 -0.03,-0.08 -0.13,-0.25 -0.23,-0.18 z"
       style="fill:#263238"
       id="path3907" />
    <path
       d="m 371.87,126.58 c -0.21,0.27 -0.41,0.62 -0.77,0.7 a 2.68,2.68 0 0 1 -1.12,-0.13 0.03,0 -90 0 0 0,0.06 1.36,1.36 0 0 0 1.34,0.39 1.08,1.08 0 0 0 0.69,-1 c -0.01,-0.04 -0.11,-0.05 -0.14,-0.02 z"
       style="fill:#263238"
       id="path3909" />
    <path
       d="m 367.42,123.18 c 0,0 -0.12,1.53 -0.08,2.24 0,0.07 0.18,0.09 0.43,0.09 v 0 A 3.4,3.4 0 0 0 371,124 c 0.05,-0.07 -0.05,-0.14 -0.11,-0.09 a 5.13,5.13 0 0 1 -3,1.07 c -0.07,-0.19 0.28,-2.6 0.17,-2.6 a 6.42,6.42 0 0 0 -1.6,0.46 c 0.15,-3.18 0.82,-6.32 0.92,-9.49 a 0.1,0.1 0 0 0 -0.19,0 51.78,51.78 0 0 0 -1.42,10.18 c -0.07,0.41 1.37,-0.21 1.65,-0.35 z"
       style="fill:#263238"
       id="path3911" />
    <path
       d="m 368.22,125.3 a 3.81,3.81 0 0 0 1.6,1.06 1.76,1.76 0 0 0 1,0 c 0.74,-0.25 0.7,-0.94 0.52,-1.52 a 3.8,3.8 0 0 0 -0.4,-0.87 5,5 0 0 1 -2.72,1.33 z"
       style="fill:#263238"
       id="path3913" />
    <path
       d="m 369.82,126.36 a 1.76,1.76 0 0 0 1,0 c 0.74,-0.25 0.7,-0.94 0.52,-1.52 a 1.77,1.77 0 0 0 -1.52,1.52 z"
       style="fill:#ff9cbd"
       id="path3915" />
    <path
       d="m 386.82,119.22 c -1.63,0 -6.11,-4.25 -6.67,-12.1 0,0 1,7 1.58,8 0.58,1 -2.51,-2.39 -3.05,-8.71 a 25.71,25.71 0 0 1 -6.31,3.72 c -2.95,1 -4.78,1.08 -5,0.87 -0.22,-0.21 4.1,-1.83 5.22,-3.27 0,0 -7.76,4.14 -11.41,4.62 -0.42,0.06 -1.41,-8.64 4.06,-12.65 5.47,-4.01 14.67,-0.51 17.21,1.69 0,0 2.86,0.24 6.17,4.27 3.31,4.03 -0.04,13.56 -1.8,13.56 z"
       style="fill:#263238"
       id="path3917" />
    <path
       d="m 385.4,120.15 c 0,0 2.55,-5.07 4.81,-4.23 2.26,0.84 0.8,7.87 -1.52,9.14 a 2.51,2.51 0 0 1 -3.53,-0.86 z"
       style="fill:#eb9481"
       id="path3919" />
    <path
       d="m 389.74,117.93 a 0.03,0 -90 0 0 0,0.06 6.38,6.38 0 0 0 -2.68,4.42 1.39,1.39 0 0 1 2,-0.68 0.05,0.05 0 0 1 0,0.1 1.55,1.55 0 0 0 -1.61,0.78 7.33,7.33 0 0 0 -0.61,1.48 c -0.06,0.17 -0.35,0.12 -0.32,-0.06 v 0 c -0.36,-2.23 0.9,-5.54 3.22,-6.1 z"
       style="fill:#263238"
       id="path3921" />
    <path
       d="m 373.86,138.57 3.08,6.59 7.91,-9 2.53,2.61 c 0,0 -7.45,14 -7.54,13.41 l -3.1,-5.67 -3.74,4.27 -0.24,-10.17 z"
       style="fill:#ffc727"
       id="path3923" />
    <path
       d="m 372.55,145.76 c 0,-1.68 0,-3.38 0.08,-5 0,-0.06 0.1,-0.1 0.11,0 0.43,1.6 0.33,8 0.42,9.57 v 0 c 0.16,-0.19 3.52,-3.77 3.56,-3.72 0.65,0.89 2.93,5 3.09,5.39 1.18,-2.22 6.21,-11 7.63,-13.14 0,-0.06 0.14,0 0.11,0.05 -1,2.34 -7.52,13.94 -7.62,13.92 a 66.33,66.33 0 0 1 -3.24,-6 c -0.57,0.77 -3.94,4.79 -4,4.54 a 53.59,53.59 0 0 1 -0.14,-5.61 z"
       style="fill:#263238"
       id="path3925" />
  </g>
  <g
     id="freepik--Cloud--inject-225"
     transform="translate(-29.641192,-68.565206)">
    <path
       d="m 198.35,112 a 13.31,13.31 0 0 0 12.32,13.27 v 0 H 286 a 15.64,15.64 0 0 0 1.46,-31.21 26.34,26.34 0 0 0 -51.05,-8.24 15.64,15.64 0 0 0 -22.6,13 12.85,12.85 0 0 0 -2.16,-0.18 13.31,13.31 0 0 0 -13.3,13.36 z"
       style="fill:#ffc727"
       id="path3928" />
    <g
       id="g4787">
      <rect
         x="243.2"
         y="102.36312"
         width="13.6"
         height="11.67"
         style="fill:#ffffff"
         id="rect3930" />
      <polygon
         points="250,91.1 238.53,102.54 261.47,102.54 "
         style="fill:#ffffff"
         id="polygon3932" />
    </g>
    <rect
       x="316.44"
       y="113.43"
       width="2"
       height="1"
       style="fill:#263238"
       id="rect3934" />
    <path
       d="m 332,114.43 h -3.89 v -1 H 332 Z m -6.8,0 h -3.88 v -1 h 3.88 z"
       style="fill:#263238"
       id="path3936" />
    <polygon
       points="336.45,114.43 334.95,114.43 334.95,113.43 337.45,113.43 337.45,115.93 336.45,115.93 "
       style="fill:#263238"
       id="polygon3938" />
    <path
       d="m 337.45,155.62 h -1 v -3.78 h 1 z m 0,-6.61 h -1 v -3.78 h 1 z m 0,-6.62 h -1 v -3.78 h 1 z m 0,-6.61 h -1 V 132 h 1 z m 0,-6.62 h -1 v -3.78 h 1 z m 0,-6.62 h -1 v -3.78 h 1 z"
       style="fill:#263238"
       id="path3940" />
    <rect
       x="336.45001"
       y="158.46001"
       width="1"
       height="2"
       style="fill:#263238"
       id="rect3942" />
    <path
       d="m 316.54,115.81 a 1.88,1.88 0 1 1 1.88,-1.88 1.88,1.88 0 0 1 -1.88,1.88 z"
       style="fill:#263238"
       id="path3944" />
    <path
       d="m 335.07,160.36 a 1.88,1.88 0 1 0 1.88,-1.88 1.88,1.88 0 0 0 -1.88,1.88 z"
       style="fill:#263238"
       id="path3946" />
    <rect
       x="181.56"
       y="113.43"
       width="2"
       height="1"
       style="fill:#263238"
       id="rect3948" />
    <path
       d="m 178.64,114.43 h -3.88 v -1 h 3.88 z m -6.79,0 H 168 v -1 h 3.89 z"
       style="fill:#263238"
       id="path3950" />
    <polygon
       points="162.55,113.43 165.05,113.43 165.05,114.43 163.55,114.43 163.55,115.93 162.55,115.93 "
       style="fill:#263238"
       id="polygon3952" />
    <path
       d="m 163.55,155.62 h -1 v -3.78 h 1 z m 0,-6.61 h -1 v -3.78 h 1 z m 0,-6.62 h -1 v -3.78 h 1 z m 0,-6.61 h -1 V 132 h 1 z m 0,-6.62 h -1 v -3.78 h 1 z m 0,-6.62 h -1 v -3.78 h 1 z"
       style="fill:#263238"
       id="path3954" />
    <rect
       x="162.55"
       y="158.46001"
       width="1"
       height="2"
       style="fill:#263238"
       id="rect3956" />
    <circle
       cx="183.46001"
       cy="113.93"
       r="1.88"
       style="fill:#263238"
       id="circle3958" />
    <path
       d="m 161.17,160.36 a 1.88,1.88 0 1 0 1.88,-1.88 1.88,1.88 0 0 0 -1.88,1.88 z"
       style="fill:#263238"
       id="path3960" />
  </g>
  <g
     id="freepik--Plant--inject-225"
     transform="translate(-29.641192,-68.565206)">
    <path
       d="m 69,337.93 a 76.74,76.74 0 0 1 1.77,-12.43 27.54,27.54 0 0 1 4.45,-10.5 13.32,13.32 0 0 1 8.7,-5.43 c 3.41,-0.41 6.61,1.11 9.16,3.25 3.16,2.67 5.58,6.19 7.86,9.6 a 118,118 0 0 1 6.78,11.87 c 0.07,0.14 -0.14,0.25 -0.21,0.12 a 73.7,73.7 0 0 0 -6.06,-9.94 62.86,62.86 0 0 0 -7,-8.45 c -2.34,-2.28 -5.31,-4.42 -8.7,-4.53 a 10.7,10.7 0 0 0 -8.52,4.39 C 75,318.8 73.81,322.44 73,326 a 75.15,75.15 0 0 0 -1.75,11.84 c -0.67,8.19 -0.85,16.42 -1,24.63 -0.11,4.65 -0.17,9.3 -0.21,13.94 l -0.06,7.07 a 44.19,44.19 0 0 1 -0.27,6.81 c -0.08,0.45 -0.83,0.41 -0.9,0 a 39.84,39.84 0 0 1 -0.32,-6.46 q 0,-3.34 -0.08,-6.69 c 0,-4.34 -0.06,-8.68 0,-13 -0.1,-8.78 0.01,-17.52 0.59,-26.21 z"
       style="fill:#263238"
       id="path3963" />
    <path
       d="m 80.71,331.76 c 0.43,-2.32 1.22,-5.33 2.54,-7.13 2.37,-3.22 4.93,-1.82 2.56,1.75 a 21.4,21.4 0 0 0 -3.33,8.8 c 0,0 4,5.69 8.8,8.5 -0.21,-2.19 -0.83,-5.56 -0.4,-8.81 0.92,-7 5.18,-6.63 4.13,-1.05 a 48.16,48.16 0 0 0 -1,11.3 23.75,23.75 0 0 0 5.14,2.52 c -0.27,-0.81 -0.57,-1.79 -0.89,-3 -1.71,-6.3 2.5,-8.27 2.63,-4.72 a 48.91,48.91 0 0 0 1.64,8.94 c 2.3,0.77 4.21,1.3 5.38,1.71 a 19.74,19.74 0 0 1 7.89,5.39 25,25 0 0 0 5.37,-7 c -1.47,-1.26 -3.79,-3.14 -7,-5.42 -6,-4.27 -4,-9.66 0.85,-6.31 3.46,2.42 6.14,6.9 7.36,9.2 a 37.62,37.62 0 0 0 2.74,-12.58 c -4.75,-4.46 -16.49,-10.67 -13,-10.67 3.18,0 10.31,4.67 12.92,6.47 a 32.78,32.78 0 0 0 -0.4,-3.66 c -4.47,-2.93 -19,-7.49 -16.69,-8.8 2.55,-1.44 12.68,3.26 15.75,4.74 a 18.22,18.22 0 0 0 -2.69,-5.56 c -6.17,-8.27 -17.32,-11.12 -22.18,-9.55 -3.44,1.12 -2.43,9.85 -3.17,9.55 -13.75,-5.49 -20.03,-1.56 -14.95,15.39 z m 33.87,-1 c 1,-1.18 5.52,2.3 4.2,4.21 -1.32,1.91 -5.46,-2.65 -4.2,-4.17 z m -23.69,-7.44 c 1.19,0.76 -0.57,5.17 -2.41,3.83 -1.57,-1.1 1.21,-4.56 2.41,-3.79 z"
       style="fill:#ffc727"
       id="path3965" />
    <path
       d="m 92.7,324.71 c 0.62,-1.23 1.27,-2.46 2,-3.64 a 21.6,21.6 0 0 1 2.3,-3.31 c -0.19,-0.25 -0.38,-0.49 -0.59,-0.73 a 0.10259142,0.10259142 0 0 1 0.15,-0.14 c 0.23,0.27 0.45,0.54 0.68,0.8 a 0.27,0.27 0 0 1 0.09,0.12 c 0.86,1 1.66,2.07 2.43,3.15 a 37.45,37.45 0 0 1 4,1.16 c 1.36,0.46 2.7,0.93 4,1.48 0.13,0.06 0.06,0.29 -0.07,0.23 -1.31,-0.58 -2.63,-1.14 -4,-1.6 -1.37,-0.46 -2.58,-0.76 -3.88,-1.13 0.42,0.6 0.83,1.2 1.23,1.81 a 47.59,47.59 0 0 1 7.1,2.89 c 2.4,1.14 4.7,2.47 7,3.79 a 0.12,0.12 0 0 1 -0.12,0.2 77.75,77.75 0 0 0 -7,-3.6 c -2.22,-1 -4.52,-1.9 -6.76,-2.89 5.64,8.81 9,19 13.55,28.38 0.07,0.13 -0.15,0.25 -0.2,0.11 -1.39,-3.3 -3,-6.52 -4.48,-9.76 -1.35,-2.91 -2.67,-5.84 -4,-8.76 -0.4,-0.85 -0.8,-1.7 -1.22,-2.55 0.25,4.7 0.15,9.49 0.92,14.14 a 0.12,0.12 0 1 1 -0.23,0 c -0.33,-5 -1.21,-10 -1.18,-15 0,0 0,0 0,-0.06 -1,-1.92 -2,-3.82 -3.08,-5.66 -1.87,4.4 -3.83,8.87 -4.71,13.59 0,0.15 -0.26,0.08 -0.22,-0.06 1.27,-4.74 2.45,-9.49 4.73,-13.86 a 51.69,51.69 0 0 0 -4,-5.73 c -0.63,1.17 -1.43,2.27 -2.15,3.39 -0.72,1.12 -1.38,2.19 -2,3.32 a 47.54,47.54 0 0 0 -3.53,7.46 c 0,0.14 -0.28,0.07 -0.22,-0.07 1.13,-2.52 2.22,-5.04 3.46,-7.47 z"
       style="fill:#263238"
       id="path3967" />
    <path
       d="m 48.22,335.42 c 3.62,-3.63 7.83,-8.4 13.42,-8.39 5.4,0 9.38,4.36 11.66,8.84 2.39,4.69 3.25,10 3.92,15.17 a 182,182 0 0 1 1.43,18.66 c 0.1,3.46 0.09,6.93 0,10.39 a 68.13,68.13 0 0 1 -0.79,10.49 c -0.1,0.56 -1,0.58 -1,0 -0.16,-2.91 0,-5.84 0,-8.76 0,-2.92 0,-5.75 -0.14,-8.62 -0.21,-5.81 -0.63,-11.62 -1.31,-17.39 -0.6,-5 -1.07,-10.23 -2.58,-15.11 -1.36,-4.39 -3.92,-9.42 -8.37,-11.35 -6.08,-2.63 -12,2.18 -16,6.25 -0.17,0.07 -0.35,-0.08 -0.24,-0.18 z"
       style="fill:#263238"
       id="path3969" />
    <path
       d="m 29.74,343.53 v 0 c 0,0.74 0.08,1.48 0.13,2.19 a 13.15,13.15 0 0 1 5.93,-2.46 c 5.14,-0.54 4.81,3.37 1.38,3.53 a 19.61,19.61 0 0 0 -7,1.41 c 0.83,6.79 2.7,12.24 3,12.32 a 100.93,100.93 0 0 0 13.58,-1.72 c -1.28,-2.72 -4.19,-6.34 -2.71,-6.63 1.48,-0.29 3.11,2.93 3.93,6.38 a 63.27,63.27 0 0 0 9.88,-2.72 c -2.26,-1.95 -5.76,-4.39 -4.42,-5.42 1.34,-1.03 4.11,2.39 5.77,4.88 a 20.6,20.6 0 0 0 4.27,-2.38 c -3,-4.47 -10.47,-5.39 -9.5,-8.62 0.97,-3.23 7.91,1.25 11,7.24 3.66,-3.8 4.73,-9.17 4.35,-13.76 -3.19,-0.37 -9.33,0.3 -8.89,-2 0.44,-2.3 4.88,-1.86 8.51,-0.52 a 12.62,12.62 0 0 0 -2.13,-5 c -3.36,-4.31 -13.62,1.17 -13.62,1.17 0,0 1.1,-10.31 -2.81,-12.09 -2.26,-1 -6.24,-1 -10.23,1.34 2.24,0.18 5,0.89 6,2.44 1.4,2 -0.8,3.06 -2.2,2.15 -1,-0.65 -2.81,-2.69 -6.12,-3 a 22,22 0 0 0 -4.84,5.82 14.1,14.1 0 0 1 12,0.21 c 4.45,2.21 2,6.83 -1.86,5 -3.86,-1.83 -7.47,-3.56 -11.53,-2.55 a 28.77,28.77 0 0 0 -1.95,11.5 20.23,20.23 0 0 1 6.59,-3.16 c 4.42,-1.16 5.75,1.48 0.9,2 a 19.51,19.51 0 0 0 -7.41,2.45 z m 5.38,-7.1 c -0.3,-1.43 2.83,-1.84 3.36,-0.68 0.43,0.99 -3.06,2.12 -3.36,0.68 z M 62,344.37 c 0.3,-0.78 2.4,0.1 2.21,1.08 -0.32,1.3 -2.54,-0.3 -2.21,-1.08 z m -14.81,5 c 1.53,-0.61 3.92,3.19 2.25,4.06 -1.67,0.87 -3.55,-3.53 -2.3,-4.04 z"
       style="fill:#ffc727"
       id="path3971" />
    <path
       d="m 33.71,359.74 c 2.3,-3.85 4.58,-7.72 7,-11.5 1.13,-1.77 2.31,-3.49 3.53,-5.19 -0.18,0 -0.36,-0.09 -0.54,-0.13 l -0.92,-0.17 c -0.71,-0.13 -1.42,-0.23 -2.14,-0.3 a 19.38,19.38 0 0 0 -2,-0.11 9.76,9.76 0 0 0 -2.16,0.11 c -0.09,0 -0.1,-0.12 0,-0.11 0.72,0 1.46,-0.07 2.18,-0.08 0.72,-0.01 1.4,0 2.1,0.05 0.7,0.05 1.31,0.1 2,0.2 l 1.07,0.19 a 5,5 0 0 1 0.65,0.14 q 1.88,-2.58 3.88,-5 a 46.39,46.39 0 0 0 -12.61,-4 c -0.08,0 -0.05,-0.13 0,-0.12 a 43,43 0 0 1 12.79,3.88 l 2.23,-2.7 c 0.83,-1 1.72,-2 2.48,-3 a 0.06,0.06 0 1 1 0.09,0.07 42.63,42.63 0 0 0 -2.93,3.58 v 0 a 44.47,44.47 0 0 1 4.69,3.77 c 1.53,1.36 3,2.76 4.48,4.2 0,0.06 0,0.14 -0.08,0.09 -1.44,-1.43 -2.93,-2.79 -4.49,-4.09 -1.56,-1.3 -3.19,-2.48 -4.76,-3.76 0,0 0,0 0,0 l -1.1,1.24 c -0.19,0.23 -0.36,0.47 -0.55,0.71 0,0 0,0 0,0.05 l -1.79,2.34 a 19.4,19.4 0 0 1 1.78,3.22 c 0.51,1.09 1,2.21 1.38,3.34 a 49.87,49.87 0 0 1 1.92,7.22 c 0,0.07 -0.1,0.11 -0.11,0 a 43.61,43.61 0 0 0 -2.1,-7.08 c -0.45,-1.17 -1,-2.32 -1.49,-3.47 -0.49,-1.15 -1,-2 -1.5,-3.1 -0.52,0.69 -1,1.38 -1.54,2.08 -0.15,0.2 -0.29,0.4 -0.43,0.61 0,0 0,0.1 0,0.1 v 0 c -1.58,2.21 -3.09,4.48 -4.55,6.76 a 2.08,2.08 0 0 1 0.2,0.51 c 0.09,0.27 0.18,0.55 0.26,0.84 a 16.37,16.37 0 0 1 0.41,1.71 c 0.09,0.54 0.17,1.09 0.22,1.64 a 16.45,16.45 0 0 0 0.14,1.87 c 0,0.09 -0.13,0.09 -0.11,0 a 6,6 0 0 0 -0.13,-1.74 17.26,17.26 0 0 0 -0.33,-1.77 c -0.12,-0.53 -0.27,-1.06 -0.42,-1.58 -0.08,-0.26 -0.17,-0.52 -0.26,-0.78 -0.09,-0.26 -0.11,-0.28 -0.16,-0.42 -0.68,1.07 -1.36,2.15 -2,3.24 -1.33,2.15 -2.64,4.31 -4,6.47 -0.17,0.23 -0.35,0.08 -0.28,-0.03 z"
       style="fill:#263238"
       id="path3973" />
    <path
       d="m 69.25,389.33 c 0.06,-2.18 0.41,-4.38 0.64,-6.55 0.23,-2.17 0.49,-4.36 0.72,-6.54 a 99,99 0 0 1 1.69,-12.63 18.34,18.34 0 0 1 5.13,-9.44 8.4,8.4 0 0 1 5,-2.41 8.72,8.72 0 0 1 5.35,1.65 18.62,18.62 0 0 1 4.5,4.74 46.88,46.88 0 0 1 3.51,5.7 c 0,0.07 -0.08,0.12 -0.12,0 a 29.42,29.42 0 0 0 -7.59,-8.51 9,9 0 0 0 -4.79,-2 6.46,6.46 0 0 0 -4.63,1.85 c -2.55,2.21 -4,5.47 -4.9,8.67 a 88.26,88.26 0 0 0 -1.9,11.66 c -0.31,2.31 -0.6,4.62 -0.91,6.93 -0.31,2.31 -0.49,4.66 -1,6.93 a 0.38,0.38 0 0 1 -0.7,-0.05 z"
       style="fill:#263238"
       id="path3975" />
    <path
       d="m 80,372.38 a 12.63,12.63 0 0 0 2.38,2.42 c -0.36,-2.13 -0.8,-5.92 0.28,-7.93 1.67,-3.13 3.65,-1.57 2.65,1.15 a 22.37,22.37 0 0 0 -1.61,7.72 33.69,33.69 0 0 0 7.3,3.42 12,12 0 0 1 -0.24,-3.74 c 0.33,-3.34 2.89,-3.28 2.23,0.2 a 21,21 0 0 0 -0.35,4.09 75.7,75.7 0 0 0 11.3,2.55 33,33 0 0 0 4.68,-8.33 c -2.72,-0.68 -8.24,-0.84 -8.12,-2.78 0.16,-2.62 5.5,-0.61 8.62,1.29 a 20.92,20.92 0 0 0 1,-7 35.14,35.14 0 0 0 -7.51,-1.25 c -5.61,-0.48 -5.34,-3.66 -1.27,-3.59 3,0.06 6.79,1.89 8.59,2.85 -1.17,-7.63 -7,-12.52 -11.66,-12.71 -7.84,-0.32 -5,9.45 -5,9.45 0,0 -5.32,-3.74 -10.33,-3.64 -5.01,0.1 -8.31,8.36 -2.94,15.83 z m 21,-14.12 c -0.17,-1.1 3.33,-1.36 3.51,0.05 0.15,1.58 -3.39,1.07 -3.57,-0.05 z m 5.64,11.46 c -0.08,-0.72 1.44,-0.85 1.78,0.06 0.17,0.58 -1.78,0.64 -1.84,-0.06 z m -18.84,0.66 c 1.18,0.17 1.85,4.4 -0.18,4.31 -1.62,-0.06 -0.88,-4.45 0.12,-4.31 z"
       style="fill:#ffc727"
       id="path3977" />
    <path
       d="m 89.38,375.08 c 0.19,-0.53 0.37,-1.06 0.53,-1.6 -0.15,0.54 -0.29,1.09 -0.39,1.64 a 0.0728011,0.0728011 0 1 1 -0.14,-0.04 z"
       style="fill:#263238"
       id="path3979" />
    <path
       d="m 91.45,368.28 c 0.37,-1.08 0.78,-2.15 1.2,-3.21 0.22,-0.57 0.46,-1.14 0.71,-1.69 a 7.17,7.17 0 0 1 0.69,-1.42 11.19,11.19 0 0 1 -0.63,-1.37 0.035,0 -180 0 0 0.07,0 16.81,16.81 0 0 1 1.51,2.33 c 0.22,0.37 0.42,0.75 0.64,1.12 a 9.78,9.78 0 0 1 1.32,0.2 c 0.47,0.09 0.94,0.18 1.4,0.29 l 1.4,0.32 a 13.41,13.41 0 0 0 1.39,0.34 0.08,0.08 0 1 1 0,0.15 9.25,9.25 0 0 0 -1.46,-0.39 c -0.45,-0.09 -0.91,-0.17 -1.36,-0.24 l -1.37,-0.17 -1,-0.08 c 0.19,0.33 0.38,0.65 0.56,1 l 0.09,0.15 a 4.3,4.3 0 0 1 1.12,0.14 c 0.41,0.07 0.81,0.15 1.21,0.24 0.82,0.18 1.64,0.37 2.45,0.6 1.69,0.47 3.37,1 5,1.56 0.1,0 0,0.17 -0.05,0.14 a 49.63,49.63 0 0 0 -5.08,-1.41 l -2.41,-0.53 -1.2,-0.26 a 7.12,7.12 0 0 1 -0.94,-0.2 c 0.86,1.59 1.68,3.21 2.42,4.86 1.63,3.6 3,7.31 4.39,11 a 0.08,0.08 0 0 1 -0.14,0.06 99.59,99.59 0 0 0 -4.67,-10.76 c -0.31,-0.64 -0.64,-1.27 -1,-1.91 l -0.09,0.39 c -0.08,0.44 -0.15,0.87 -0.23,1.31 -0.14,0.88 -0.29,1.75 -0.42,2.63 a 30.36,30.36 0 0 0 -0.64,5.45 0.08,0.08 0 1 1 -0.15,0 c 0.14,-0.87 0.14,-1.78 0.2,-2.66 0.06,-0.88 0.12,-1.83 0.23,-2.75 0.11,-0.92 0.21,-1.76 0.36,-2.63 0.07,-0.44 0.15,-0.88 0.23,-1.31 a 2.52,2.52 0 0 1 0.25,-0.95 l -1.38,-2.77 c -0.44,-0.86 -0.88,-1.72 -1.33,-2.57 -0.19,-0.37 -0.39,-0.73 -0.6,-1.1 a 9.27,9.27 0 0 1 -0.52,1.32 l -0.6,1.48 c -0.45,1.1 -0.87,2.2 -1.29,3.31 -0.59,1.57 -1.25,3.18 -1.73,4.81 0.5,-1.6 0.91,-3.23 1.45,-4.82 z"
       style="fill:#263238"
       id="path3981" />
    <path
       d="m 89.91,373.48 0.12,-0.38 z"
       style="fill:#263238"
       id="path3983" />
    <polygon
       points="58.11,426.86 89.16,426.86 90.58,396.76 91.13,385.09 56.13,385.09 56.69,396.76 "
       style="fill:#37474f"
       id="polygon3985" />
    <polygon
       points="90.58,396.76 91.13,385.09 56.13,385.09 56.69,396.76 "
       style="fill:#263238"
       id="polygon3987" />
    <rect
       x="53.93"
       y="380.35999"
       width="39.41"
       height="9.4399996"
       transform="rotate(180,73.63,385.085)"
       style="fill:#37474f"
       id="rect3989" />
    <rect
       x="81.190002"
       y="426.85999"
       width="5.4499998"
       height="4.9400001"
       style="fill:#37474f"
       id="rect3991" />
    <rect
       x="81.190002"
       y="426.85999"
       width="5.4499998"
       height="2.47"
       style="fill:#263238"
       id="rect3993" />
    <rect
       x="60.619999"
       y="426.85999"
       width="5.4499998"
       height="4.9400001"
       style="fill:#37474f"
       id="rect3995" />
    <rect
       x="60.619999"
       y="426.85999"
       width="5.4499998"
       height="2.47"
       style="fill:#263238"
       id="rect3997" />
  </g>
</svg>
