<?xml version="1.0" encoding="UTF-8" standalone="no"?>
<svg
   xmlns:dc="http://purl.org/dc/elements/1.1/"
   xmlns:cc="http://creativecommons.org/ns#"
   xmlns:rdf="http://www.w3.org/1999/02/22-rdf-syntax-ns#"
   xmlns:svg="http://www.w3.org/2000/svg"
   xmlns="http://www.w3.org/2000/svg"
   xmlns:sodipodi="http://sodipodi.sourceforge.net/DTD/sodipodi-0.dtd"
   xmlns:inkscape="http://www.inkscape.org/namespaces/inkscape"
   viewBox="0 0 405.12 399.20999"
   version="1.1"
   id="svg513"
   sodipodi:docname="version-control.svg"
   width="405.12"
   height="399.20999"
   inkscape:version="0.92.5 (2060ec1f9f, 2020-04-08)">
  <metadata
     id="metadata519">
    <rdf:RDF>
      <cc:Work
         rdf:about="">
        <dc:format>image/svg+xml</dc:format>
        <dc:type
           rdf:resource="http://purl.org/dc/dcmitype/StillImage" />
        <dc:title></dc:title>
      </cc:Work>
    </rdf:RDF>
  </metadata>
  <defs
     id="defs517" />
  <sodipodi:namedview
     pagecolor="#ffffff"
     bordercolor="#666666"
     borderopacity="1"
     objecttolerance="10"
     gridtolerance="10"
     guidetolerance="10"
     inkscape:pageopacity="0"
     inkscape:pageshadow="2"
     inkscape:window-width="2560"
     inkscape:window-height="1391"
     id="namedview515"
     showgrid="false"
     inkscape:zoom="2.264125"
     inkscape:cx="124.4349"
     inkscape:cy="218.53807"
     inkscape:window-x="0"
     inkscape:window-y="0"
     inkscape:window-maximized="1"
     inkscape:current-layer="svg513"
     fit-margin-top="0"
     fit-margin-left="0"
     fit-margin-right="0"
     fit-margin-bottom="0" />
  <g
     id="freepik--Shadow--inject-227"
     transform="translate(-47.44,-42.9)">
    <ellipse
       cx="105.19"
       cy="432.20999"
       rx="51.41"
       ry="9.8999996"
       style="fill:#ebebeb"
       id="ellipse2" />
  </g>
  <g
     id="freepik--Screens--inject-227"
     transform="translate(-47.44,-42.9)">
    <polygon
       points="119.19,210.92 120.19,210.92 120.19,247.69 183.55,247.69 183.55,248.69 119.19,248.69 "
       style="fill:#ffc727"
       id="polygon5" />
    <polygon
       points="268.3,156.98 80.4,156.98 80.4,155.98 269.3,155.98 269.3,192.43 268.3,192.43 "
       style="fill:#ffc727"
       id="polygon7" />
    <path
       d="M 393.15,211.42 H 104.09 A 6.15,6.15 0 0 1 98,205.28 v -48.8 h 1 v 48.8 a 5.14,5.14 0 0 0 5.14,5.14 h 289.01 z"
       style="fill:#ffc727"
       id="path9"
       inkscape:connector-curvature="0" />
    <path
       d="M 133.94,174.44 H 104.11 A 6.16,6.16 0 0 1 98,168.28 v -4.41 l -10.35,-7 0.56,-0.83 10.79,7.29 v 4.95 a 5.16,5.16 0 0 0 5.16,5.16 h 29.83 a 5.16,5.16 0 0 0 5.16,-5.16 v -5.59 l 9,-6.61 0.59,0.81 -8.6,6.3 v 5.09 a 6.16,6.16 0 0 1 -6.2,6.16 z"
       style="fill:#ffc727"
       id="path11"
       inkscape:connector-curvature="0" />
    <path
       d="m 154.88,211.27 -7,-7 v -24.68 a 5.16,5.16 0 0 0 -5.15,-5.15 H 128.6 v -1 h 14.16 a 6.16,6.16 0 0 1 6.15,6.15 v 24.3 l 6.67,6.68 z"
       style="fill:#ffc727"
       id="path13"
       inkscape:connector-curvature="0" />
    <path
       d="m 293.42,211.6 -6,-6 v -7.54 a 5.15,5.15 0 0 0 -5.14,-5.15 H 237 a 5.15,5.15 0 0 0 -5.14,5.15 v 7.54 l -5.65,5.65 -0.71,-0.7 5.36,-5.36 v -7.13 a 6.16,6.16 0 0 1 6.14,-6.15 h 45.3 a 6.15,6.15 0 0 1 6.14,6.15 v 7.13 l 5.69,5.69 z"
       style="fill:#ffc727"
       id="path15"
       inkscape:connector-curvature="0" />
    <path
       d="M 194.48,230.79 H 156.8 a 6.15,6.15 0 0 1 -6.14,-6.14 v -6.59 l -6.79,-6.79 0.71,-0.7 7.08,7.08 v 7 a 5.14,5.14 0 0 0 5.14,5.14 h 37.68 a 5.15,5.15 0 0 0 5.15,-5.14 V 218 l 7.08,-7.08 0.7,0.7 -6.78,6.79 v 6.26 a 6.16,6.16 0 0 1 -6.15,6.12 z"
       style="fill:#ffc727"
       id="path17"
       inkscape:connector-curvature="0" />
    <path
       d="m 371.22,230.79 h -37.69 a 6.15,6.15 0 0 1 -6.14,-6.14 v -6.59 l -6.79,-6.79 0.71,-0.7 7.08,7.08 v 7 a 5.15,5.15 0 0 0 5.14,5.14 h 37.69 a 5.15,5.15 0 0 0 5.14,-5.14 V 218 l 7.08,-7.08 0.71,0.7 -6.79,6.79 v 6.26 a 6.15,6.15 0 0 1 -6.14,6.12 z"
       style="fill:#ffc727"
       id="path19"
       inkscape:connector-curvature="0" />
    <path
       d="m 86,156.48 a 5.63,5.63 0 1 1 -5.63,-5.62 5.63,5.63 0 0 1 5.63,5.62 z"
       style="fill:#ffc727"
       id="path21"
       inkscape:connector-curvature="0" />
    <circle
       cx="168.97"
       cy="156.48"
       r="5.6300001"
       style="fill:#ffc727"
       id="circle23" />
    <circle
       cx="168.97"
       cy="211.36"
       r="5.6300001"
       style="fill:#ffffff"
       id="circle25" />
    <path
       d="m 169,217.49 a 6.13,6.13 0 1 1 6.13,-6.13 6.14,6.14 0 0 1 -6.13,6.13 z m 0,-11.26 a 5.13,5.13 0 1 0 5.13,5.13 5.13,5.13 0 0 0 -5.13,-5.13 z"
       style="fill:#ffc727"
       id="path27"
       inkscape:connector-curvature="0" />
    <path
       d="m 222.8,211.36 a 5.63,5.63 0 1 1 -5.63,-5.63 5.63,5.63 0 0 1 5.63,5.63 z"
       style="fill:#ffffff"
       id="path29"
       inkscape:connector-curvature="0" />
    <path
       d="m 217.17,217.49 a 6.13,6.13 0 1 1 6.13,-6.13 6.14,6.14 0 0 1 -6.13,6.13 z m 0,-11.26 a 5.13,5.13 0 1 0 5.13,5.13 5.13,5.13 0 0 0 -5.13,-5.13 z"
       style="fill:#ffc727"
       id="path31"
       inkscape:connector-curvature="0" />
    <path
       d="m 174.6,230.29 a 5.63,5.63 0 1 1 -5.63,-5.63 5.63,5.63 0 0 1 5.63,5.63 z"
       style="fill:#ffc727"
       id="path33"
       inkscape:connector-curvature="0" />
    <path
       d="m 174.6,230.29 a 5.63,5.63 0 1 1 -5.63,-5.63 5.63,5.63 0 0 1 5.63,5.63 z"
       style="opacity:0.2"
       id="path35"
       inkscape:connector-curvature="0" />
    <path
       d="m 188.3,230.29 a 5.63,5.63 0 1 1 -5.63,-5.63 5.63,5.63 0 0 1 5.63,5.63 z"
       style="fill:#ffc727"
       id="path37"
       inkscape:connector-curvature="0" />
    <path
       d="m 188.3,230.29 a 5.63,5.63 0 1 1 -5.63,-5.63 5.63,5.63 0 0 1 5.63,5.63 z"
       style="opacity:0.2"
       id="path39"
       inkscape:connector-curvature="0" />
    <path
       d="m 351.46,230.29 a 5.63,5.63 0 1 1 -5.63,-5.63 5.63,5.63 0 0 1 5.63,5.63 z"
       style="fill:#ffc727"
       id="path41"
       inkscape:connector-curvature="0" />
    <path
       d="m 365.1,230.29 a 5.63,5.63 0 1 1 -5.63,-5.63 5.63,5.63 0 0 1 5.63,5.63 z"
       style="fill:#ffc727"
       id="path43"
       inkscape:connector-curvature="0" />
    <circle
       cx="268.79999"
       cy="156.48"
       r="5.6300001"
       style="fill:#ffc727"
       id="circle45" />
    <circle
       cx="119.69"
       cy="174.46001"
       r="5.6300001"
       style="fill:#ffc727"
       id="circle47" />
    <circle
       cx="119.69"
       cy="210.92"
       r="5.6300001"
       style="fill:#ffffff"
       id="circle49" />
    <path
       d="m 119.69,217.05 a 6.13,6.13 0 1 1 6.12,-6.13 6.14,6.14 0 0 1 -6.12,6.13 z m 0,-11.26 a 5.13,5.13 0 1 0 5.12,5.13 5.13,5.13 0 0 0 -5.12,-5.13 z"
       style="fill:#ffc727"
       id="path51"
       inkscape:connector-curvature="0" />
    <circle
       cx="119.69"
       cy="248.19"
       r="5.6300001"
       style="fill:#ffc727"
       id="circle53" />
    <circle
       cx="119.69"
       cy="248.19"
       r="5.6300001"
       style="opacity:0.2"
       id="circle55" />
    <circle
       cx="143.71001"
       cy="248.19"
       r="5.6300001"
       style="fill:#ffc727"
       id="circle57" />
    <circle
       cx="143.71001"
       cy="248.19"
       r="5.6300001"
       style="opacity:0.2"
       id="circle59" />
    <circle
       cx="182.67"
       cy="248.19"
       r="5.6300001"
       style="fill:#ffc727"
       id="circle61" />
    <circle
       cx="182.67"
       cy="248.19"
       r="5.6300001"
       style="opacity:0.2"
       id="circle63" />
    <path
       d="m 138.08,210.92 a 5.63,5.63 0 1 1 -5.63,-5.63 5.63,5.63 0 0 1 5.63,5.63 z"
       style="fill:#ffffff"
       id="path65"
       inkscape:connector-curvature="0" />
    <path
       d="m 132.45,217.05 a 6.13,6.13 0 1 1 6.13,-6.13 6.14,6.14 0 0 1 -6.13,6.13 z m 0,-11.26 a 5.13,5.13 0 1 0 5.13,5.13 5.13,5.13 0 0 0 -5.13,-5.13 z"
       style="fill:#ffc727"
       id="path67"
       inkscape:connector-curvature="0" />
    <path
       d="m 259.79,192.43 a 5.63,5.63 0 1 1 -5.63,-5.63 5.63,5.63 0 0 1 5.63,5.63 z"
       style="fill:#ffc727"
       id="path69"
       inkscape:connector-curvature="0" />
    <path
       d="m 259.79,192.43 a 5.63,5.63 0 1 1 -5.63,-5.63 5.63,5.63 0 0 1 5.63,5.63 z"
       style="opacity:0.4"
       id="path71"
       inkscape:connector-curvature="0" />
    <circle
       cx="310.60999"
       cy="210.92"
       r="5.6300001"
       style="fill:#ffffff"
       id="circle73" />
    <path
       d="m 310.61,217.05 a 6.13,6.13 0 1 1 6.13,-6.13 6.14,6.14 0 0 1 -6.13,6.13 z m 0,-11.26 a 5.13,5.13 0 1 0 5.13,5.13 5.13,5.13 0 0 0 -5.13,-5.13 z"
       style="fill:#ffc727"
       id="path75"
       inkscape:connector-curvature="0" />
    <circle
       cx="345.82999"
       cy="210.92"
       r="5.6300001"
       style="fill:#ffffff"
       id="circle77" />
    <path
       d="m 345.83,217.05 a 6.13,6.13 0 1 1 6.13,-6.13 6.14,6.14 0 0 1 -6.13,6.13 z m 0,-11.26 a 5.13,5.13 0 1 0 5.13,5.13 5.13,5.13 0 0 0 -5.13,-5.13 z"
       style="fill:#ffc727"
       id="path79"
       inkscape:connector-curvature="0" />
    <circle
       cx="359.47"
       cy="210.92"
       r="5.6300001"
       style="fill:#ffffff"
       id="circle81" />
    <path
       d="m 359.47,217.05 a 6.13,6.13 0 1 1 6.13,-6.13 6.14,6.14 0 0 1 -6.13,6.13 z m 0,-11.26 a 5.13,5.13 0 1 0 5.13,5.13 5.13,5.13 0 0 0 -5.13,-5.13 z"
       style="fill:#ffc727"
       id="path83"
       inkscape:connector-curvature="0" />
    <circle
       cx="393.14999"
       cy="210.92"
       r="5.6300001"
       style="fill:#ffffff"
       id="circle85" />
    <path
       d="m 393.15,217.05 a 6.13,6.13 0 1 1 6.12,-6.13 6.14,6.14 0 0 1 -6.12,6.13 z m 0,-11.26 a 5.13,5.13 0 1 0 5.12,5.13 5.13,5.13 0 0 0 -5.12,-5.13 z"
       style="fill:#ffc727"
       id="path87"
       inkscape:connector-curvature="0" />
    <path
       d="m 274.42,192.43 a 5.63,5.63 0 1 1 -5.62,-5.63 5.63,5.63 0 0 1 5.62,5.63 z"
       style="fill:#ffc727"
       id="path89"
       inkscape:connector-curvature="0" />
    <path
       d="m 274.42,192.43 a 5.63,5.63 0 1 1 -5.62,-5.63 5.63,5.63 0 0 1 5.62,5.63 z"
       style="opacity:0.4"
       id="path91"
       inkscape:connector-curvature="0" />
    <path
       d="m 81.66,133.24 v 7.08 A 0.67,0.67 0 0 1 81,141 0.65,0.65 0 0 1 80.34,140.34 v -5.9 l -0.48,0.27 a 0.63,0.63 0 0 1 -0.33,0.1 0.67,0.67 0 0 1 -0.35,-1.24 l 1.47,-0.87 v 0 c 0,0 0,0 0.06,0 h 0.07 0.32 c 0,0 0,0 0.07,0 h 0.05 c 0,0 0,0 0.07,0 v 0 0 0 0 c 0,0 0,0 0,0 a 0.14,0.14 0 0 1 0,0.06 c 0,0 0,0.05 0,0.06 a 0.35,0.35 0 0 0 0,0.06 0.13,0.13 0 0 0 0,0.09 z"
       style="fill:#263238"
       id="path93"
       inkscape:connector-curvature="0" />
    <path
       d="m 171.63,140.32 a 0.65,0.65 0 0 1 -0.66,0.66 h -4.27 a 0.67,0.67 0 0 1 -0.46,-1.15 l 3.55,-3.22 a 1.5,1.5 0 0 0 0.51,-1.15 1.58,1.58 0 0 0 -0.4,-1 1.51,1.51 0 0 0 -1.15,-0.51 1.54,1.54 0 0 0 -1,0.4 l -0.38,0.33 a 0.64,0.64 0 0 1 -0.93,0 0.66,0.66 0 0 1 0,-0.94 l 0.37,-0.34 a 2.87,2.87 0 0 1 4.06,0.21 2.81,2.81 0 0 1 0.75,1.93 2.89,2.89 0 0 1 -0.95,2.13 l -2.27,2.06 h 2.6 a 0.66,0.66 0 0 1 0.63,0.59 z"
       style="fill:#263238"
       id="path95"
       inkscape:connector-curvature="0" />
    <path
       d="m 270.46,135.88 a 2.93,2.93 0 0 1 0.88,2.1 3,3 0 0 1 -5.09,2.11 0.70710678,0.70710678 0 0 1 1,-1 1.6,1.6 0 0 0 1.14,0.47 1.64,1.64 0 0 0 1.15,-0.47 1.57,1.57 0 0 0 0.46,-1.09 1.54,1.54 0 0 0 -0.48,-1.14 1.61,1.61 0 0 0 -1.14,-0.48 0.58,0.58 0 0 1 -0.49,-0.22 v 0 a 0.68,0.68 0 0 1 0,-1 l 1.23,-1.25 h -1.94 a 0.68,0.68 0 1 1 0,-1.35 h 3.53 a 0.67,0.67 0 0 1 0.69,0.67 0.66,0.66 0 0 1 -0.09,0.32 0.66,0.66 0 0 1 -0.12,0.17 l -1.51,1.56 a 2.9,2.9 0 0 1 0.78,0.6 z"
       style="fill:#263238"
       id="path97"
       inkscape:connector-curvature="0" />
    <polygon
       points="80.4,146.97 78.18,144.31 82.62,144.31 "
       style="fill:#263238"
       id="polygon99" />
    <polygon
       points="168.97,146.97 166.75,144.31 171.19,144.31 "
       style="fill:#263238"
       id="polygon101" />
    <polygon
       points="268.8,146.97 266.58,144.31 271.01,144.31 "
       style="fill:#263238"
       id="polygon103" />
    <rect
       x="210.31"
       y="248.19"
       width="16.459999"
       height="9.5200005"
       style="fill:#ffc727"
       id="rect105" />
    <rect
       x="264.62"
       y="248.19"
       width="16.459999"
       height="9.5200005"
       style="fill:#ffffff"
       id="rect107" />
    <path
       d="m 281.57,258.21 h -17.45 v -10.52 h 17.45 z m -16.45,-1 h 15.45 v -8.52 h -15.45 z"
       style="fill:#ffc727"
       id="path109"
       inkscape:connector-curvature="0" />
    <rect
       x="318.92001"
       y="248.19"
       width="16.459999"
       height="9.5200005"
       style="fill:#ffc727"
       id="rect111" />
    <rect
       x="318.92001"
       y="248.19"
       width="16.459999"
       height="9.5200005"
       style="opacity:0.4"
       id="rect113" />
    <rect
       x="373.23001"
       y="248.19"
       width="16.459999"
       height="9.5200005"
       style="fill:#ffc727"
       id="rect115" />
    <rect
       x="373.23001"
       y="248.19"
       width="16.459999"
       height="9.5200005"
       style="opacity:0.2"
       id="rect117" />
    <rect
       x="231.77"
       y="248.73"
       width="18.040001"
       height="1"
       style="fill:#c7c7c7"
       id="rect119" />
    <rect
       x="231.77"
       y="251.95"
       width="11.58"
       height="1"
       style="fill:#c7c7c7"
       id="rect121" />
    <rect
       x="285.79999"
       y="248.73"
       width="18.040001"
       height="1"
       style="fill:#c7c7c7"
       id="rect123" />
    <rect
       x="285.79999"
       y="251.95"
       width="9.0200005"
       height="1"
       style="fill:#c7c7c7"
       id="rect125" />
    <rect
       x="339.82001"
       y="248.73"
       width="9.0200005"
       height="1"
       style="fill:#c7c7c7"
       id="rect127" />
    <rect
       x="339.82001"
       y="251.95"
       width="14.28"
       height="1"
       style="fill:#c7c7c7"
       id="rect129" />
    <rect
       x="393.84"
       y="248.73"
       width="12.96"
       height="1"
       style="fill:#c7c7c7"
       id="rect131" />
    <rect
       x="393.84"
       y="251.95"
       width="18.040001"
       height="1"
       style="fill:#c7c7c7"
       id="rect133" />
    <rect
       x="266.78"
       y="42.900002"
       width="93.629997"
       height="76.889999"
       style="fill:#37474f"
       id="rect135" />
    <path
       d="m 360.77,120.15 h -94.35 l 0.36,-77.25 h 93.63 z"
       style="fill:#263238"
       id="path137"
       inkscape:connector-curvature="0" />
    <rect
       x="266.78"
       y="42.900002"
       width="93.629997"
       height="6.77"
       style="fill:#ffc727"
       id="rect139" />
    <path
       d="m 273.14,46.34 a 1.71,1.71 0 1 1 -1.71,-1.71 1.71,1.71 0 0 1 1.71,1.71 z"
       style="fill:#a6a6a6"
       id="path141"
       inkscape:connector-curvature="0" />
    <path
       d="m 280.1,46.34 a 1.71,1.71 0 1 1 -1.71,-1.71 1.71,1.71 0 0 1 1.71,1.71 z"
       style="fill:#ebebeb"
       id="path143"
       inkscape:connector-curvature="0" />
    <path
       d="m 287.06,46.34 a 1.71,1.71 0 1 1 -1.71,-1.71 1.71,1.71 0 0 1 1.71,1.71 z"
       style="fill:#ffffff"
       id="path145"
       inkscape:connector-curvature="0" />
    <rect
       x="274.04999"
       y="63.150002"
       width="3.6199999"
       height="1.3200001"
       style="fill:#ebebeb"
       id="rect147" />
    <rect
       x="280.31"
       y="63.150002"
       width="41.540001"
       height="1.3200001"
       style="fill:#ebebeb"
       id="rect149" />
    <rect
       x="324.07001"
       y="63.150002"
       width="6.8800001"
       height="1.3200001"
       style="fill:#ffffff"
       id="rect151" />
    <rect
       x="339.79999"
       y="80.849998"
       width="6.8800001"
       height="1.3200001"
       style="fill:#ebebeb"
       id="rect153" />
    <rect
       x="332.44"
       y="63.150002"
       width="11.89"
       height="1.3200001"
       style="fill:#a6a6a6"
       id="rect155" />
    <rect
       x="277.67001"
       y="66.690002"
       width="3.6199999"
       height="1.3200001"
       style="fill:#ebebeb"
       id="rect157" />
    <rect
       x="283.84"
       y="66.690002"
       width="27.26"
       height="1.3200001"
       style="fill:#a6a6a6"
       id="rect159" />
    <rect
       x="322.20001"
       y="80.849998"
       width="15.96"
       height="1.3200001"
       style="fill:#a6a6a6"
       id="rect161" />
    <rect
       x="280.31"
       y="77.309998"
       width="26.040001"
       height="1.3200001"
       style="fill:#a6a6a6"
       id="rect163" />
    <rect
       x="283.84"
       y="70.230003"
       width="18.27"
       height="1.3200001"
       style="fill:#ffffff"
       id="rect165" />
    <rect
       x="328.67001"
       y="73.769997"
       width="6.9699998"
       height="1.3200001"
       style="fill:#a6a6a6"
       id="rect167" />
    <rect
       x="304.13"
       y="70.230003"
       width="29.17"
       height="1.3200001"
       style="fill:#a6a6a6"
       id="rect169" />
    <rect
       x="280.31"
       y="80.849998"
       width="34.82"
       height="1.3200001"
       style="fill:#ffffff"
       id="rect171" />
    <rect
       x="331.67001"
       y="66.690002"
       width="18.870001"
       height="1.3200001"
       style="fill:#ffffff"
       id="rect173" />
    <rect
       x="312.81"
       y="66.690002"
       width="17.370001"
       height="1.3200001"
       style="fill:#ebebeb"
       id="rect175" />
    <rect
       x="334.67001"
       y="70.230003"
       width="11.72"
       height="1.3200001"
       style="fill:#ebebeb"
       id="rect177" />
    <rect
       x="277.67001"
       y="70.230003"
       width="3.6199999"
       height="1.3200001"
       style="fill:#ebebeb"
       id="rect179" />
    <rect
       x="274.04999"
       y="73.769997"
       width="3.6199999"
       height="1.3200001"
       style="fill:#a6a6a6"
       id="rect181" />
    <rect
       x="280.31"
       y="73.769997"
       width="21.4"
       height="1.3200001"
       style="fill:#ebebeb"
       id="rect183" />
    <rect
       x="283.84"
       y="84.389999"
       width="21.4"
       height="1.3200001"
       style="fill:#ebebeb"
       id="rect185" />
    <rect
       x="323.73999"
       y="87.93"
       width="16.27"
       height="1.3200001"
       style="fill:#a6a6a6"
       id="rect187" />
    <rect
       x="306.97"
       y="84.389999"
       width="21.459999"
       height="1.3200001"
       style="fill:#ffffff"
       id="rect189" />
    <rect
       x="303.19"
       y="87.93"
       width="18.68"
       height="1.3200001"
       style="fill:#ffffff"
       id="rect191" />
    <polygon
       points="291.65,87.93 301.71,87.94 301.71,89.26 291.65,89.25 "
       style="fill:#ebebeb"
       id="polygon193" />
    <rect
       x="283.84"
       y="87.93"
       width="6.1999998"
       height="1.3200001"
       style="fill:#a6a6a6"
       id="rect195" />
    <rect
       x="307.81"
       y="77.309998"
       width="23.129999"
       height="1.3200001"
       style="fill:#ebebeb"
       id="rect197" />
    <rect
       x="332.44"
       y="77.309998"
       width="14.72"
       height="1.3200001"
       style="fill:#ffffff"
       id="rect199" />
    <rect
       x="303.88"
       y="73.769997"
       width="23.1"
       height="1.3200001"
       style="fill:#ffffff"
       id="rect201" />
    <rect
       x="274.04999"
       y="77.309998"
       width="3.6199999"
       height="1.3200001"
       style="fill:#ebebeb"
       id="rect203" />
    <rect
       x="274.04999"
       y="80.849998"
       width="3.6199999"
       height="1.3200001"
       style="fill:#ebebeb"
       id="rect205" />
    <rect
       x="277.67001"
       y="84.389999"
       width="3.6199999"
       height="1.3200001"
       style="fill:#a6a6a6"
       id="rect207" />
    <rect
       x="277.67001"
       y="87.93"
       width="3.6199999"
       height="1.3200001"
       style="fill:#ebebeb"
       id="rect209" />
    <rect
       x="274.04999"
       y="90.889999"
       width="3.6199999"
       height="1.3200001"
       style="fill:#ebebeb"
       id="rect211" />
    <rect
       x="280.31"
       y="90.889999"
       width="25.34"
       height="1.3200001"
       style="fill:#ebebeb"
       id="rect213" />
    <rect
       x="277.67001"
       y="94.43"
       width="3.6199999"
       height="1.3200001"
       style="fill:#ebebeb"
       id="rect215" />
    <rect
       x="283.84"
       y="94.43"
       width="27.26"
       height="1.3200001"
       style="fill:#a6a6a6"
       id="rect217" />
    <rect
       x="280.31"
       y="105.05"
       width="26.040001"
       height="1.3200001"
       style="fill:#a6a6a6"
       id="rect219" />
    <rect
       x="283.84"
       y="97.970001"
       width="18.27"
       height="1.3200001"
       style="fill:#ffffff"
       id="rect221" />
    <rect
       x="304.13"
       y="97.970001"
       width="29.17"
       height="1.3200001"
       style="fill:#a6a6a6"
       id="rect223" />
    <rect
       x="280.31"
       y="108.59"
       width="34.82"
       height="1.3200001"
       style="fill:#ffffff"
       id="rect225" />
    <rect
       x="331.67001"
       y="94.43"
       width="18.870001"
       height="1.3200001"
       style="fill:#ffffff"
       id="rect227" />
    <rect
       x="312.81"
       y="94.43"
       width="17.370001"
       height="1.3200001"
       style="fill:#ebebeb"
       id="rect229" />
    <rect
       x="334.67001"
       y="97.970001"
       width="11.72"
       height="1.3200001"
       style="fill:#ebebeb"
       id="rect231" />
    <rect
       x="277.67001"
       y="97.970001"
       width="3.6199999"
       height="1.3200001"
       style="fill:#ebebeb"
       id="rect233" />
    <rect
       x="274.04999"
       y="101.51"
       width="3.6199999"
       height="1.3200001"
       style="fill:#a6a6a6"
       id="rect235" />
    <rect
       x="280.31"
       y="101.51"
       width="21.4"
       height="1.3200001"
       style="fill:#ebebeb"
       id="rect237" />
    <rect
       x="307.81"
       y="105.05"
       width="23.129999"
       height="1.3200001"
       style="fill:#ebebeb"
       id="rect239" />
    <rect
       x="303.88"
       y="101.51"
       width="23.1"
       height="1.3200001"
       style="fill:#ffffff"
       id="rect241" />
    <rect
       x="274.04999"
       y="105.05"
       width="3.6199999"
       height="1.3200001"
       style="fill:#ebebeb"
       id="rect243" />
    <path
       d="m 276.28,59.67 a 0.3,0.3 0 0 1 0,0.44 0.31,0.31 0 0 1 -0.22,0.09 0.35,0.35 0 0 1 -0.23,-0.09 l -1.39,-1.41 v 0 0 0 c 0,0 0,0 0,0 v 0 c 0,0 0,0 0,0 v -0.06 c 0,0 0,0 0,0 v 0 -0.05 0 0 l 1.39,-1.42 a 0.33,0.33 0 0 1 0.45,0 0.31,0.31 0 0 1 0,0.45 l -1.18,1.19 z"
       style="fill:#ffffff"
       id="path245"
       inkscape:connector-curvature="0" />
    <path
       d="m 277.55,59.82 1.22,-2.89 a 0.27,0.27 0 0 1 0.36,-0.15 0.28,0.28 0 0 1 0.14,0.36 L 278.05,60 a 0.28,0.28 0 0 1 -0.25,0.16 0.18,0.18 0 0 1 -0.1,0 0.26,0.26 0 0 1 -0.15,-0.34 z"
       style="fill:#ffffff"
       id="path247"
       inkscape:connector-curvature="0" />
    <path
       d="m 281.67,58.66 v 0 0 l -1.39,1.41 a 0.33,0.33 0 0 1 -0.23,0.09 0.31,0.31 0 0 1 -0.22,-0.09 0.3,0.3 0 0 1 0,-0.44 l 1.17,-1.15 -1.18,-1.19 a 0.31,0.31 0 0 1 0,-0.45 0.33,0.33 0 0 1 0.45,0 l 1.39,1.42 v 0 0 0.05 0 0 0.14 0 c 0,0 0,0 0,0.05 v 0 z"
       style="fill:#ffffff"
       id="path249"
       inkscape:connector-curvature="0" />
    <rect
       x="332.56"
       y="101.68"
       width="113.63"
       height="76.889999"
       style="fill:#37474f"
       id="rect251" />
    <path
       d="M 446.55,178.93 H 332.21 l 0.35,-77.25 h 113.63 z"
       style="fill:#37474f"
       id="path253"
       inkscape:connector-curvature="0" />
    <rect
       x="332.56"
       y="101.68"
       width="113.63"
       height="6.77"
       style="fill:#ffc727"
       id="rect255" />
    <path
       d="m 338.92,105.12 a 1.71,1.71 0 1 1 -1.71,-1.71 1.71,1.71 0 0 1 1.71,1.71 z"
       style="fill:#a6a6a6"
       id="path257"
       inkscape:connector-curvature="0" />
    <circle
       cx="344.17001"
       cy="105.12"
       r="1.7"
       style="fill:#ebebeb"
       id="circle259" />
    <path
       d="m 352.84,105.12 a 1.71,1.71 0 1 1 -1.71,-1.71 1.7,1.7 0 0 1 1.71,1.71 z"
       style="fill:#ffffff"
       id="path261"
       inkscape:connector-curvature="0" />
    <rect
       x="339.82999"
       y="121.93"
       width="3.6199999"
       height="1.3200001"
       style="fill:#ebebeb"
       id="rect263" />
    <rect
       x="346.09"
       y="121.93"
       width="21.540001"
       height="1.3200001"
       style="fill:#ebebeb"
       id="rect265" />
    <rect
       x="420.5"
       y="121.93"
       width="8.8999996"
       height="1.3200001"
       style="fill:#ffffff"
       id="rect267" />
    <rect
       x="369.85001"
       y="121.93"
       width="6.8800001"
       height="1.3200001"
       style="fill:#ffffff"
       id="rect269" />
    <rect
       x="392.20001"
       y="121.93"
       width="26.559999"
       height="1.3200001"
       style="fill:#ebebeb"
       id="rect271" />
    <rect
       x="405.57999"
       y="139.63"
       width="21.01"
       height="1.3200001"
       style="fill:#ebebeb"
       id="rect273" />
    <rect
       x="378.22"
       y="121.93"
       width="11.89"
       height="1.3200001"
       style="fill:#a6a6a6"
       id="rect275" />
    <rect
       x="343.45001"
       y="125.47"
       width="3.6199999"
       height="1.3200001"
       style="fill:#ebebeb"
       id="rect277" />
    <rect
       x="349.62"
       y="125.47"
       width="27.26"
       height="1.3200001"
       style="fill:#a6a6a6"
       id="rect279" />
    <rect
       x="387.98999"
       y="139.63"
       width="15.96"
       height="1.3200001"
       style="fill:#a6a6a6"
       id="rect281" />
    <rect
       x="346.09"
       y="136.09"
       width="26.040001"
       height="1.3200001"
       style="fill:#a6a6a6"
       id="rect283" />
    <rect
       x="349.62"
       y="129.00999"
       width="18.27"
       height="1.3200001"
       style="fill:#ffffff"
       id="rect285" />
    <rect
       x="413.79999"
       y="129.00999"
       width="18.27"
       height="1.3200001"
       style="fill:#ffffff"
       id="rect287" />
    <rect
       x="394.45001"
       y="132.55"
       width="6.9699998"
       height="1.3200001"
       style="fill:#a6a6a6"
       id="rect289" />
    <rect
       x="369.91"
       y="129.00999"
       width="29.17"
       height="1.3200001"
       style="fill:#a6a6a6"
       id="rect291" />
    <rect
       x="346.09"
       y="139.63"
       width="34.82"
       height="1.3200001"
       style="fill:#ffffff"
       id="rect293" />
    <rect
       x="386.66"
       y="125.47"
       width="18.870001"
       height="1.3200001"
       style="fill:#ffffff"
       id="rect295" />
    <rect
       x="378.59"
       y="125.47"
       width="6.5700002"
       height="1.3200001"
       style="fill:#ebebeb"
       id="rect297" />
    <rect
       x="407.67999"
       y="125.47"
       width="27.450001"
       height="1.3200001"
       style="fill:#ebebeb"
       id="rect299" />
    <rect
       x="400.45001"
       y="129.00999"
       width="11.72"
       height="1.3200001"
       style="fill:#ebebeb"
       id="rect301" />
    <rect
       x="343.45001"
       y="129.00999"
       width="3.6199999"
       height="1.3200001"
       style="fill:#ebebeb"
       id="rect303" />
    <rect
       x="339.82999"
       y="132.55"
       width="3.6199999"
       height="1.3200001"
       style="fill:#a6a6a6"
       id="rect305" />
    <rect
       x="346.09"
       y="132.55"
       width="21.4"
       height="1.3200001"
       style="fill:#ebebeb"
       id="rect307" />
    <rect
       x="402.70001"
       y="132.55"
       width="21.4"
       height="1.3200001"
       style="fill:#ebebeb"
       id="rect309" />
    <rect
       x="349.62"
       y="143.17"
       width="21.4"
       height="1.3200001"
       style="fill:#ebebeb"
       id="rect311" />
    <rect
       x="379.85001"
       y="146.71001"
       width="16.27"
       height="1.3200001"
       style="fill:#ffffff"
       id="rect313" />
    <rect
       x="372.75"
       y="143.17"
       width="21.459999"
       height="1.3200001"
       style="fill:#ffffff"
       id="rect315" />
    <rect
       x="358.54001"
       y="146.71001"
       width="18.68"
       height="1.3200001"
       style="fill:#ebebeb"
       id="rect317" />
    <rect
       x="349.62"
       y="146.71001"
       width="6.1999998"
       height="1.3200001"
       style="fill:#a6a6a6"
       id="rect319" />
    <rect
       x="397.79001"
       y="146.71001"
       width="15.15"
       height="1.3200001"
       style="fill:#a6a6a6"
       id="rect321" />
    <rect
       x="373.60001"
       y="136.09"
       width="23.129999"
       height="1.3200001"
       style="fill:#ebebeb"
       id="rect323" />
    <rect
       x="398.22"
       y="136.09"
       width="14.72"
       height="1.3200001"
       style="fill:#ffffff"
       id="rect325" />
    <rect
       x="369.66"
       y="132.55"
       width="23.1"
       height="1.3200001"
       style="fill:#ffffff"
       id="rect327" />
    <rect
       x="339.82999"
       y="136.09"
       width="3.6199999"
       height="1.3200001"
       style="fill:#ebebeb"
       id="rect329" />
    <rect
       x="339.82999"
       y="139.63"
       width="3.6199999"
       height="1.3200001"
       style="fill:#ebebeb"
       id="rect331" />
    <rect
       x="343.45001"
       y="143.17"
       width="3.6199999"
       height="1.3200001"
       style="fill:#a6a6a6"
       id="rect333" />
    <rect
       x="395.98001"
       y="143.17"
       width="21.860001"
       height="1.3200001"
       style="fill:#a6a6a6"
       id="rect335" />
    <rect
       x="343.45001"
       y="146.71001"
       width="3.6199999"
       height="1.3200001"
       style="fill:#ebebeb"
       id="rect337" />
    <rect
       x="339.82999"
       y="149.67"
       width="3.6199999"
       height="1.3200001"
       style="fill:#ebebeb"
       id="rect339" />
    <rect
       x="346.09"
       y="149.67"
       width="41.540001"
       height="1.3200001"
       style="fill:#ebebeb"
       id="rect341" />
    <rect
       x="343.45001"
       y="153.21001"
       width="3.6199999"
       height="1.3200001"
       style="fill:#ebebeb"
       id="rect343" />
    <rect
       x="349.62"
       y="153.21001"
       width="27.26"
       height="1.3200001"
       style="fill:#a6a6a6"
       id="rect345" />
    <rect
       x="346.09"
       y="163.83"
       width="26.040001"
       height="1.3200001"
       style="fill:#a6a6a6"
       id="rect347" />
    <rect
       x="349.62"
       y="156.75"
       width="18.27"
       height="1.3200001"
       style="fill:#ffffff"
       id="rect349" />
    <rect
       x="369.91"
       y="156.75"
       width="29.17"
       height="1.3200001"
       style="fill:#a6a6a6"
       id="rect351" />
    <rect
       x="346.09"
       y="167.37"
       width="34.82"
       height="1.3200001"
       style="fill:#ffffff"
       id="rect353" />
    <rect
       x="397.45001"
       y="153.21001"
       width="18.870001"
       height="1.3200001"
       style="fill:#ffffff"
       id="rect355" />
    <rect
       x="378.59"
       y="153.21001"
       width="17.370001"
       height="1.3200001"
       style="fill:#ebebeb"
       id="rect357" />
    <rect
       x="400.45001"
       y="156.75"
       width="11.72"
       height="1.3200001"
       style="fill:#ebebeb"
       id="rect359" />
    <rect
       x="343.45001"
       y="156.75"
       width="3.6199999"
       height="1.3200001"
       style="fill:#ebebeb"
       id="rect361" />
    <rect
       x="339.82999"
       y="160.28999"
       width="3.6199999"
       height="1.3200001"
       style="fill:#a6a6a6"
       id="rect363" />
    <rect
       x="394.31"
       y="160.28999"
       width="14.11"
       height="1.3200001"
       style="fill:#a6a6a6"
       id="rect365" />
    <rect
       x="346.09"
       y="160.28999"
       width="21.4"
       height="1.3200001"
       style="fill:#ebebeb"
       id="rect367" />
    <rect
       x="410.64999"
       y="160.28999"
       width="11.91"
       height="1.3200001"
       style="fill:#ebebeb"
       id="rect369" />
    <rect
       x="373.60001"
       y="163.83"
       width="23.129999"
       height="1.3200001"
       style="fill:#ebebeb"
       id="rect371" />
    <rect
       x="369.66"
       y="160.28999"
       width="23.1"
       height="1.3200001"
       style="fill:#ffffff"
       id="rect373" />
    <rect
       x="339.82999"
       y="163.83"
       width="3.6199999"
       height="1.3200001"
       style="fill:#ebebeb"
       id="rect375" />
    <path
       d="m 342.06,118.44 a 0.31468238,0.31468238 0 1 1 -0.44,0.45 l -1.4,-1.42 c 0,0 0,0 0,0 v 0 c 0,0 0,0 0,0 0,0 0,0 0,0 v 0 c 0,0 0,0 0,0 0,0 0,0 0,0 v 0 c 0,0 0,0 0,0 v 0 0 c 0,0 0,0 0,0 l 1.4,-1.42 a 0.31,0.31 0 0 1 0.44,0 0.31,0.31 0 0 1 0,0.45 l -1.18,1.19 z"
       style="fill:#ffffff"
       id="path377"
       inkscape:connector-curvature="0" />
    <path
       d="m 343.33,118.6 1.22,-2.9 a 0.28,0.28 0 0 1 0.36,-0.14 0.27,0.27 0 0 1 0.14,0.35 l -1.22,2.91 a 0.27,0.27 0 0 1 -0.25,0.16 0.18,0.18 0 0 1 -0.1,0 0.26,0.26 0 0 1 -0.15,-0.38 z"
       style="fill:#ffffff"
       id="path379"
       inkscape:connector-curvature="0" />
    <path
       d="m 347.45,117.43 v 0 0 l -1.45,1.46 a 0.33,0.33 0 0 1 -0.23,0.09 0.32,0.32 0 0 1 -0.22,-0.54 l 1.18,-1.18 -1.18,-1.19 a 0.31,0.31 0 0 1 0,-0.45 0.33,0.33 0 0 1 0.45,0 l 1.39,1.42 v 0 0 0 0 0 0 c 0,0 0,0 0,0 v 0.06 0 0 0 z"
       style="fill:#ffffff"
       id="path381"
       inkscape:connector-curvature="0" />
    <polygon
       points="298.65,126.79 299.65,126.79 299.65,161.11 320.78,161.11 320.78,162.11 298.65,162.11 "
       style="fill:#263238"
       id="polygon383" />
    <polygon
       points="319.9,158.62 319.9,164.6 325.08,161.61 "
       style="fill:#263238"
       id="polygon385" />
  </g>
  <g
     id="freepik--Chair--inject-227"
     transform="translate(-47.44,-42.9)">
    <polygon
       points="166.52,246.67 65.89,246.67 58.78,402.76 193.35,402.76 "
       style="fill:#dbdbdb"
       id="polygon388" />
    <polygon
       points="77.2,246.67 65.89,246.67 58.78,402.76 70.58,402.76 "
       style="fill:#a6a6a6"
       id="polygon390" />
  </g>
  <g
     id="freepik--Character--inject-227"
     transform="translate(-47.44,-42.9)">
    <path
       d="m 177,267.22 c 8.79,38.29 27,84.19 34.77,91.64 9.83,9.43 74.86,26.7 78.1,27.05 8,0.82 24.12,-57 15.57,-58.24 -13,-1.88 -60.36,-4.45 -63.2,-7.37 -2.84,-2.92 -22.92,-28.24 -43.47,-56.71 -14.18,-19.67 -27.22,-20.13 -21.77,3.63 z"
       style="fill:#ad6359"
       id="path393"
       inkscape:connector-curvature="0" />
    <path
       d="m 283.42,382.8 c 1,0.48 14.55,7.32 22.95,9.75 6.27,1.82 24.45,6.56 27.14,-0.14 1.83,-4.57 -8.53,-8.62 -15.8,-11.64 -3.82,-1.6 -8.54,-5.61 -7.41,-8.07 2,-4.3 11.82,0 18.3,3.79 12.53,7.28 29.22,20.38 36.88,14 2.89,-2.41 -0.47,-6.78 -5.39,-11.07 8,5 16.48,9.1 19.8,6.56 1.9,-1.45 2,-3.44 0.93,-5.71 2.47,0.8 4.64,0.65 6.16,-1 2.59,-2.71 1.33,-6.71 -1.51,-10.82 a 3.09,3.09 0 0 0 2.36,-1.55 c 5.48,-8.37 -22,-32.4 -31.49,-34.64 -28,-6.65 -57.41,-5.41 -57.41,-5.41 -10.93,8.84 -15.53,55.93 -15.51,55.95 z"
       style="fill:#ad6359"
       id="path395"
       inkscape:connector-curvature="0" />
    <path
       d="m 324.53,357.06 a 47.59,47.59 0 0 1 18.65,7.18 c 7.08,4.68 11.78,10.15 17.73,15.67 a 0.16278821,0.16278821 0 0 1 -0.22,0.24 c -2.83,-2.62 -14.57,-12.47 -17.61,-14.71 a 45.14,45.14 0 0 0 -18.57,-8.26 0.06082763,0.06082763 0 0 1 0.02,-0.12 z"
       style="fill:#263238"
       id="path397"
       inkscape:connector-curvature="0" />
    <path
       d="m 329.74,345.2 c 7.35,2 14.87,4 21.69,7.52 7.47,3.8 13.31,10 19.05,16 q 5.17,5.37 10.1,11 c 0.14,0.16 -0.07,0.41 -0.22,0.25 q -8.73,-9.26 -18,-18 A 59.86,59.86 0 0 0 342.58,349.5 c -4.21,-1.6 -8.53,-2.88 -12.84,-4.15 -0.11,-0.04 -0.08,-0.17 0,-0.15 z"
       style="fill:#263238"
       id="path399"
       inkscape:connector-curvature="0" />
    <path
       d="m 337.59,334.83 c 7.14,1.46 13.36,2.72 19.69,6.54 8.36,5.07 16.44,13.6 19.28,16.62 3.13,3.35 6.14,6.79 9.11,10.28 0.12,0.14 -0.13,0.35 -0.25,0.21 A 235.75,235.75 0 0 0 363.64,346.92 46.94,46.94 0 0 0 351.47,339 84.22,84.22 0 0 0 337.58,334.88 c 0,0 -0.02,-0.06 0.01,-0.05 z"
       style="fill:#263238"
       id="path401"
       inkscape:connector-curvature="0" />
    <path
       d="m 294.42,324.55 -20,63.36 c 0,0 -54.14,-15.46 -64,-26.13 -9.86,-10.67 -28.19,-65.78 -33.56,-92.48 -5.37,-26.7 8.13,-26.05 20.54,-9.21 12.41,16.84 43.31,57.65 45,58.54 1.69,0.89 52.02,5.92 52.02,5.92 z"
       style="fill:#ffc727"
       id="path403"
       inkscape:connector-curvature="0" />
    <path
       d="m 269.23,359.76 c 2.42,-7.47 4.9,-14.92 7,-22.48 1.22,-4.3 2.46,-8.59 3.64,-12.9 0,-0.16 -0.23,-0.26 -0.29,-0.1 -2.72,7.4 -5.44,14.83 -7.83,22.36 -2.39,7.53 -4.82,14.95 -7.1,22.47 -1.3,4.28 -2.46,8.57 -3.49,12.93 a 0.08,0.08 0 0 0 0.15,0 c 3.02,-7.27 5.48,-14.76 7.92,-22.28 z"
       style="fill:#263238"
       id="path405"
       inkscape:connector-curvature="0" />
    <path
       d="m 247.12,379.19 -2.4,-0.84 c -6,-2.15 -12.19,-4.5 -17.67,-6.89 l -1.26,-0.55 c -2.37,-1.06 -4.6,-2.12 -6.62,-3.18 l -1,-0.56 a 37.67,37.67 0 0 1 -6.68,-4.39 c -0.19,-0.17 -0.38,-0.34 -0.55,-0.51 -0.17,-0.17 -0.35,-0.34 -0.5,-0.5 -9.9,-10.67 -28.16,-65.77 -33.53,-92.48 -0.07,-0.35 -0.14,-0.73 -0.21,-1.12 -0.36,-2 -0.68,-4.56 -0.94,-7.29 -0.5,-8.81 2.1,-12.73 6.16,-12.68 17.23,34.16 54.55,110.07 65.2,130.99 z"
       style="opacity:0.1"
       id="path407"
       inkscape:connector-curvature="0" />
    <path
       d="M 226.77,402.76 H 89.87 C 88.36,400 110.8,280.08 157,246.31 c 10.24,-7.49 28.41,-2.67 33.47,4.61 25.37,36.61 36.3,151.84 36.3,151.84 z"
       style="fill:#ffc727"
       id="path409"
       inkscape:connector-curvature="0" />
    <path
       d="m 205,282.82 q 1.89,6.82 3.65,13.68 c -0.15,-2 -0.37,-4 -0.63,-6 0,-0.11 0.17,-0.16 0.19,0 a 42.59,42.59 0 0 1 0.82,7.47 q 2.1,8.25 4,16.59 c 2.34,10.65 4.43,21.37 6.16,32.13 1,6.07 1.73,12.18 2.76,18.24 0,0.11 -0.16,0.16 -0.18,0 -0.95,-5.37 -2.21,-10.71 -3.38,-16 -1.17,-5.29 -2.31,-10.62 -3.39,-15.93 -2.22,-10.68 -4.56,-21.33 -6.76,-32 -1.24,-6 -2.39,-12.05 -3.63,-18.07 a 0.22,0.22 0 0 1 0.39,-0.11 z"
       style="fill:#263238"
       id="path411"
       inkscape:connector-curvature="0" />
    <path
       d="m 141.45,258.16 c -22.11,23.67 -74.69,112.51 -57.64,128.89 17.05,16.38 111.65,-5.67 138.19,-18.33 7.9,-3.76 -22.14,-53.05 -31.43,-54.2 -7.73,-1 -47.28,17.13 -48.42,14.86 -1.3,-2.57 7.69,-19.07 17.2,-53.43 11.01,-39.62 -8.14,-28.25 -17.9,-17.79 z"
       style="fill:#ad6359"
       id="path413"
       inkscape:connector-curvature="0" />
    <path
       d="m 229.89,298.61 c 19.21,-2.67 24.55,-0.41 39.57,-11.28 9.85,-7.13 18.63,-3.9 13,7.43 -9.19,18.54 -33.26,27.2 -42.46,27.8 z"
       style="fill:#ad6359"
       id="path415"
       inkscape:connector-curvature="0" />
    <path
       d="m 178.85,317.11 c 0,0 21.59,-12 41.78,-16.87 14,-3.37 45.16,-7.32 75,23.46 7.08,7.3 12,22.73 -3.9,15 -11.29,-5.48 -16.79,-12.37 -23.94,-14.37 0,0 3.92,20.36 -3.67,27.17 -3.4,3 -12.85,11.13 -21.11,16.37 a 39.12,39.12 0 0 1 -3.42,-3.67 c 0,0 -7.69,5.69 -22.17,4.31 z"
       style="fill:#ad6359"
       id="path417"
       inkscape:connector-curvature="0" />
    <path
       d="m 234.47,299.15 c 6.68,3.49 20.71,11.1 30,21.32 10.34,11.35 27.19,36 18.73,43.55 -6.2,5.53 -13.46,-3.31 -13.46,-3.31 0,0 4.82,11.65 -1.88,15.43 -6.1,3.43 -11.31,-3.75 -11.31,-3.75 0,0 1.71,7.58 -4.8,9.75 -7.84,2.63 -10.13,-13.68 -20.36,-17.88 -2.29,-0.95 3.08,-65.11 3.08,-65.11 z"
       style="fill:#ad6359"
       id="path419"
       inkscape:connector-curvature="0" />
    <path
       d="m 250.67,329.39 c 5.74,4.31 16.27,17.42 19.18,31 0.07,0.31 -0.13,0.53 -0.25,0.26 a 150.85,150.85 0 0 0 -19,-31.17 0.08,0.08 0 0 1 0.07,-0.09 z"
       style="fill:#263238"
       id="path421"
       inkscape:connector-curvature="0" />
    <path
       d="m 239.51,340.16 c 4.57,4.22 14.82,18.23 17.3,32.1 0.06,0.31 -0.15,0.51 -0.26,0.24 A 162.09,162.09 0 0 0 239.4,340.25 c -0.05,-0.07 0.05,-0.14 0.11,-0.09 z"
       style="fill:#263238"
       id="path423"
       inkscape:connector-curvature="0" />
    <path
       d="m 267.8,324.2 c 6.26,1.85 10.34,4.92 15.62,8.59 a 84.35,84.35 0 0 0 8.07,5.1 c 2.55,1.38 6.31,3.47 9,1.31 1.52,-1.2 1.49,-3.39 1.16,-5.12 a 25.19,25.19 0 0 0 -3.44,-7.12 c -0.06,-0.08 0.08,-0.19 0.14,-0.1 a 35.29,35.29 0 0 1 3.76,6.34 8.32,8.32 0 0 1 0.57,4.89 c -0.92,3.45 -5,3.9 -7.88,3 a 27.54,27.54 0 0 1 -4.92,-2.38 c -1.52,-0.87 -3,-1.82 -4.45,-2.8 -3,-2 -5.83,-4.19 -8.78,-6.23 a 81.71,81.71 0 0 0 -9,-5.22 c -0.06,-0.11 0.03,-0.29 0.15,-0.26 z"
       style="fill:#263238"
       id="path425"
       inkscape:connector-curvature="0" />
    <path
       d="m 280.91,346.23 c -1.62,-3.57 -10.39,-18.44 -13.24,-21.88 a 0.09,0.09 0 0 1 0.13,-0.12 c 4.88,4.62 12.73,16.91 14.55,20.85 1.82,3.94 3.89,8.86 3.89,13.2 0,6.54 -4.34,7.78 -5.94,8.1 a 8.51,8.51 0 0 1 -5.57,-0.91 17.12,17.12 0 0 1 -5,-4.74 c -0.07,-0.09 0.05,-0.22 0.12,-0.13 2.27,2.58 6,5.12 9.59,4.66 a 6,6 0 0 0 4.05,-2.19 7.67,7.67 0 0 0 1,-5.27 c -0.34,-4.05 -1.91,-7.9 -3.58,-11.57 z"
       style="fill:#263238"
       id="path427"
       inkscape:connector-curvature="0" />
    <path
       d="m 178.85,317.11 30.28,63.7 c 0,0 -118.44,26.61 -128.66,6 C 70.25,366.2 116.25,285.48 137,262 c 20.75,-23.48 30,-16.62 24.49,8.65 -5.51,25.27 -18.96,59.35 -18.96,59.35 z"
       style="fill:#ffc727"
       id="path429"
       inkscape:connector-curvature="0" />
    <path
       d="m 106.53,346.93 a 138.89,138.89 0 0 1 17.27,-10.14 134.14,134.14 0 0 1 18.37,-7.37 c 3.59,-1.19 7.21,-2.19 10.84,-3.23 0.11,0 0.15,0.14 0.05,0.18 a 171.27,171.27 0 0 0 -18.56,7.22 q -9,4 -17.92,8.38 c -3.35,1.64 -6.62,3.44 -9.92,5.2 -0.15,0.08 -0.27,-0.17 -0.13,-0.24 z"
       style="fill:#263238"
       id="path431"
       inkscape:connector-curvature="0" />
    <path
       d="m 178.54,316.92 c -0.6,0.16 -33,10.85 -34,11.35 0.13,-0.49 5.94,-17.71 6.81,-20.23 0.09,-0.26 0.16,-0.51 0.25,-0.76 0.59,-1.13 1.18,-2.25 1.73,-3.39 0.7,-1.48 1.39,-2.95 2.08,-4.43 0,0 -0.05,-0.08 -0.07,0 q -1.14,2.16 -2.26,4.33 c -0.35,0.66 -0.67,1.34 -1,2 0.57,-1.78 1.11,-3.57 1.66,-5.36 0.87,-2.86 1.65,-5.74 2.42,-8.63 0,-0.09 -0.11,-0.12 -0.14,0 -1.72,5 -3.6,10 -5.33,15 -1.73,5 -8.4,23.51 -8.35,23.49 0.05,-0.02 35.68,-12.59 36.37,-12.87 a 0.26405492,0.26405492 0 0 0 -0.17,-0.5 z"
       style="fill:#263238"
       id="path433"
       inkscape:connector-curvature="0" />
    <path
       d="m 180.72,358.48 c -3.33,-7.11 -6.61,-14.25 -10.21,-21.24 -2,-4 -4.07,-7.95 -6.15,-11.9 -0.08,-0.15 -0.34,0 -0.28,0.12 3.07,7.27 6.16,14.55 9.55,21.68 3.39,7.13 6.7,14.21 10.17,21.26 2,4 4.06,7.94 6.28,11.83 0,0.08 0.17,0 0.14,-0.07 -2.82,-7.37 -6.14,-14.52 -9.5,-21.68 z"
       style="fill:#263238"
       id="path435"
       inkscape:connector-curvature="0" />
    <path
       d="m 210.66,381.81 c -1.18,-2 -2.68,-4.79 -3.95,-6.7 -0.33,-0.5 -0.72,-0.4 -0.45,0.13 0.9,1.78 1.65,3.78 2.54,5.61 -1.66,0.33 -3.33,0.63 -5,1 l -5.75,1.15 q -5.66,1.15 -11.32,2.21 -11.47,2.12 -23,3.75 a 451.71,451.71 0 0 1 -46.59,4.37 c -4.36,0.16 -8.73,0.24 -13.09,0.18 a 127.15,127.15 0 0 1 -12.89,-0.62 c -0.11,0 -0.14,0.18 0,0.21 a 71.8,71.8 0 0 0 11.21,1.45 q 5.93,0.3 11.86,0.24 c 7.87,-0.09 15.74,-0.6 23.58,-1.32 q 23.31,-2.14 46.4,-6.25 6.47,-1.14 12.9,-2.43 c 2.16,-0.44 4.32,-0.87 6.48,-1.35 2.16,-0.48 7.27,-1.3 7.07,-1.63 z"
       style="fill:#263238"
       id="path437"
       inkscape:connector-curvature="0" />
    <path
       d="m 182.76,275.1 c -8.26,-0.05 -18.77,-15.23 -21.71,-26.19 -0.2,-0.75 9,-26.6 10.27,-31.91 0.26,-1.09 31.35,16.17 31.35,16.17 0,0 -6,10.34 -8.16,19.62 -0.18,0.77 -3.77,22.35 -11.75,22.31 z"
       style="fill:#ad6359"
       id="path439"
       inkscape:connector-curvature="0" />
    <path
       d="m 190.7,254.75 a 19.42,19.42 0 0 0 3.3,0.6 c 0.13,-0.65 0.25,-1.2 0.33,-1.62 a 0.18,0.18 0 0 1 0,-0.06 0.68,0.68 0 0 1 0,-0.14 c 0,-0.16 0.06,-0.34 0.1,-0.51 a 0.22,0.22 0 0 1 0,-0.1 v -0.14 a 55.61,55.61 0 0 1 1.87,-6.11 96.47,96.47 0 0 1 5.09,-11.3 c 0.16,-0.31 0.3,-0.58 0.44,-0.82 0.41,-0.77 0.67,-1.23 0.73,-1.35 v 0 0 l -0.82,-0.47 -1.09,-0.6 a 0.025,0 0 0 0 -0.05,0 l -0.73,-0.39 -0.9,-0.51 c -0.26,-0.13 -0.55,-0.29 -0.83,-0.45 l -0.16,-0.09 c -0.34,-0.19 -0.71,-0.38 -1.09,-0.6 l -0.25,-0.13 -1.08,-0.6 -0.57,-0.3 -1.76,-1 -1.34,-0.73 -1.14,-0.62 -3.9,-2.1 -1.26,-0.68 c -1.54,-0.82 -3.05,-1.62 -4.5,-2.37 -0.33,-0.17 -0.65,-0.35 -1,-0.5 l -0.64,-0.34 -0.76,-0.39 -1.65,-0.84 -1,-0.5 c -0.49,-0.25 -0.95,-0.47 -1.38,-0.67 -0.22,-0.12 -0.43,-0.21 -0.63,-0.3 -0.59,-0.28 -1.1,-0.51 -1.53,-0.68 l -0.27,-0.12 v 0 c -0.23,9 0.46,32.71 18.47,37.53 z"
       style="fill:#263238"
       id="path441"
       inkscape:connector-curvature="0" />
    <path
       d="m 180.65,177 c -7.36,10.36 -12.37,45.7 -6.65,55.86 8.3,14.73 27.43,22.25 41.34,11 13.48,-10.9 19.2,-57.08 12.29,-66.88 -10.18,-14.45 -36.1,-15.3 -46.98,0.02 z"
       style="fill:#ad6359"
       id="path443"
       inkscape:connector-curvature="0" />
    <path
       d="m 207,208.18 c 0,-0.1 -0.2,0.08 -0.21,0.18 -0.28,2.39 -1,5.08 -3.26,5.55 -0.07,0 -0.08,0.14 0,0.14 2.69,0.02 3.6,-3.57 3.47,-5.87 z"
       style="fill:#263238"
       id="path445"
       inkscape:connector-curvature="0" />
    <path
       d="m 205.25,205.38 c -3.78,-0.85 -5.21,6.78 -1.7,7.57 3.51,0.79 4.87,-6.86 1.7,-7.57 z"
       style="fill:#263238"
       id="path447"
       inkscape:connector-curvature="0" />
    <path
       d="m 220,211 c 0,-0.09 0.16,0.15 0.14,0.24 -0.52,2.35 -0.71,5.13 1.28,6.31 0.06,0 0,0.16 0,0.13 -2.59,-0.88 -2.29,-4.57 -1.42,-6.68 z"
       style="fill:#263238"
       id="path449"
       inkscape:connector-curvature="0" />
    <path
       d="m 222.57,208.9 c 3.85,0.42 2.72,8.1 -0.85,7.71 -3.57,-0.39 -2.38,-8.07 0.85,-7.71 z"
       style="fill:#263238"
       id="path451"
       inkscape:connector-curvature="0" />
    <path
       d="m 202.89,201.33 a 30.33,30.33 0 0 0 3.15,-0.49 5.18,5.18 0 0 0 3.12,-1.11 1.64,1.64 0 0 0 0.1,-2 c -0.95,-1.23 -2.49,-1.35 -3.95,-1.17 a 6,6 0 0 0 -3.86,1.91 1.75,1.75 0 0 0 1.44,2.86 z"
       style="fill:#263238"
       id="path453"
       inkscape:connector-curvature="0" />
    <path
       d="m 226.24,205.61 a 28.17,28.17 0 0 1 -2.89,-1.36 5.16,5.16 0 0 1 -2.68,-1.94 1.64,1.64 0 0 1 0.46,-1.95 c 1.26,-0.91 2.77,-0.59 4.13,0 a 6,6 0 0 1 3.17,2.92 1.75,1.75 0 0 1 -2.19,2.33 z"
       style="fill:#263238"
       id="path455"
       inkscape:connector-curvature="0" />
    <path
       d="m 200.1,229.55 c 0.46,0.66 0.89,1.53 1.73,1.76 a 6.42,6.42 0 0 0 2.65,-0.12 0.08062258,0.08062258 0 0 1 0.08,0.14 3.24,3.24 0 0 1 -3.24,0.73 2.59,2.59 0 0 1 -1.47,-2.44 c -0.01,-0.15 0.15,-0.16 0.25,-0.07 z"
       style="fill:#263238"
       id="path457"
       inkscape:connector-curvature="0" />
    <path
       d="m 203.91,222.94 a 8.18,8.18 0 0 0 4.7,4.59 10.35,10.35 0 0 0 2.87,0.67 2.69,2.69 0 0 0 0.56,0 h 0.54 a 0.61,0.61 0 0 0 0.57,-0.44 v 0 a 1.07,1.07 0 0 0 0,-0.25 v 0 -0.21 c 0.39,-1.81 0.73,-4.61 0.73,-4.61 0.61,0.45 3.71,2.61 3.84,1.65 1,-8 2.11,-16.8 1.43,-24.93 a 0.23,0.23 0 0 0 -0.45,0 c -1.26,7.61 -1.18,15.39 -2.33,23.05 a 14.46,14.46 0 0 0 -3.58,-1.86 c -0.27,0 -0.56,5.42 -0.8,6.22 v 0.08 c -3.13,-0.18 -5.26,-1.53 -7.84,-4.14 -0.15,-0.16 -0.35,-0.03 -0.24,0.18 z"
       style="fill:#263238"
       id="path459"
       inkscape:connector-curvature="0" />
    <path
       d="m 210.58,227.08 a 9.71,9.71 0 0 1 -4.38,2.24 4.35,4.35 0 0 1 -2.64,-0.32 c -1.79,-0.85 -1.51,-2.59 -0.89,-4 a 10.74,10.74 0 0 1 1.27,-2.11 12.55,12.55 0 0 0 6.64,4.19 z"
       style="fill:#263238"
       id="path461"
       inkscape:connector-curvature="0" />
    <path
       d="M 206.2,229.32 A 4.35,4.35 0 0 1 203.56,229 c -1.79,-0.85 -1.51,-2.59 -0.89,-4 1.98,0.58 3.73,2.33 3.53,4.32 z"
       style="fill:#ff99ba"
       id="path463"
       inkscape:connector-curvature="0" />
    <path
       d="m 199.48,218.07 a 10.29,10.29 0 1 1 13.42,-9.18 v 0 a 10.31,10.31 0 0 1 -10.9,9.64 10.91,10.91 0 0 1 -2.52,-0.46 z m 5.87,-18.29 a 9.14,9.14 0 0 0 -2.18,-0.41 8.91,8.91 0 1 0 2.18,0.41 z"
       style="fill:#ffc727"
       id="path465"
       inkscape:connector-curvature="0" />
    <path
       d="m 222.68,222.49 c -3.75,-1.21 -5.92,-6.14 -4.89,-11.41 a 12.31,12.31 0 0 1 3.52,-6.64 6.41,6.41 0 0 1 10.77,2.11 12.26,12.26 0 0 1 0.75,7.48 c -1.09,5.57 -5.35,9.44 -9.49,8.62 -0.23,-0.04 -0.44,-0.1 -0.66,-0.16 z m 4.85,-18.55 a 4.07,4.07 0 0 0 -0.5,-0.13 5.47,5.47 0 0 0 -4.78,1.64 10.92,10.92 0 0 0 -3.11,5.9 c -0.94,4.82 1.05,9.29 4.46,10 3.41,0.71 6.94,-2.71 7.88,-7.54 a 10.82,10.82 0 0 0 -0.65,-6.63 5.63,5.63 0 0 0 -3.3,-3.24 z"
       style="fill:#ffc727"
       id="path467"
       inkscape:connector-curvature="0" />
    <path
       d="m 212.33,210 -0.67,-1.21 c 1.79,-1 5.67,-2 7.62,1.1 l -1.17,0.73 c -1.74,-2.8 -5.62,-0.71 -5.78,-0.62 z"
       style="fill:#ffc727"
       id="path469"
       inkscape:connector-curvature="0" />
    <path
       d="m 166.83,203.78 -1.08,-0.85 c 0.4,-0.51 4,-4.91 7.09,-4.81 2.91,0.1 20.67,5.34 21.43,5.57 l -0.39,1.32 c -5.09,-1.51 -18.84,-5.44 -21.08,-5.51 -2.05,-0.07 -5.01,3.07 -5.97,4.28 z"
       style="fill:#ffc727"
       id="path471"
       inkscape:connector-curvature="0" />
    <path
       d="m 229.23,193.25 c -13.47,4.92 -26.1,-11 -26.1,-11 a 12.87,12.87 0 0 1 -14.67,4.64 c 0,0 -7.23,18.83 -12.33,17.48 -7.78,-2 -3.41,-29.12 0.38,-33.69 3.79,-4.57 10.74,-4.2 10.74,-4.2 0,0 1.52,-3.91 7.28,-6.36 6.37,-2.71 23.33,7.49 23.33,7.49 a 17.66,17.66 0 0 1 6.33,-5.15 5,5 0 0 1 6.81,2.44 11.82,11.82 0 0 0 -3.09,4.3 c -2.38,5.45 2.26,6.63 3.54,1.47 A 8.24,8.24 0 0 0 231,164.9 c 3.16,-2.78 7.17,-2.92 9,-0.53 3.22,4.32 0.44,24.8 -10.77,28.88 z"
       style="fill:#263238"
       id="path473"
       inkscape:connector-curvature="0" />
    <path
       d="m 178.72,206.5 c 0,0 -4.21,-13.2 -10,-12 -5.79,1.2 -4.95,18.66 0.16,22.6 a 6.15,6.15 0 0 0 8.85,-0.7 z"
       style="fill:#ad6359"
       id="path475"
       inkscape:connector-curvature="0" />
    <path
       d="m 169.11,199.48 a 0.09,0.09 0 0 0 -0.08,0.15 c 3.54,2.9 4.51,7.32 4.79,11.67 -0.74,-1.87 -2.13,-3.2 -4.58,-2.39 -0.13,0 -0.08,0.24 0,0.25 a 3.79,3.79 0 0 1 3.59,2.5 18.08,18.08 0 0 1 0.9,3.81 c 0.08,0.42 0.79,0.43 0.78,0 v -0.11 c 1.75,-5.16 -0.02,-13.63 -5.4,-15.88 z"
       style="fill:#263238"
       id="path477"
       inkscape:connector-curvature="0" />
    <path
       d="m 194.92,250.89 -5.48,15.88 -26.6,-24.77 -7,7.95 c 0,0 23.73,39.64 23.88,37.85 l 10.46,-17.12 9.37,12.05 -0.4,-25.05 z"
       style="fill:#ebebeb"
       id="path479"
       inkscape:connector-curvature="0" />
    <path
       d="m 200,268.06 c -0.3,-4.88 -0.05,-5.25 -0.58,-10.12 0,-0.17 -0.28,-0.25 -0.33,0 -1,4.71 -0.17,18.82 -0.21,23.3 l -0.05,-0.05 c -0.49,-0.52 -8.52,-10.64 -8.63,-10.48 -1.77,2.68 -10.05,15.21 -10.46,16.33 -3.75,-6.3 -18.14,-29.19 -22.58,-35.15 a 0.1724094,0.1724094 0 0 0 -0.3,0.17 c 3.31,6.65 22.35,37.47 22.64,37.39 0.2,0.15 9.94,-15.23 10.84,-18.09 1.74,2.16 9.86,13.54 9.9,12.82 A 156.82,156.82 0 0 0 200,268.06 Z"
       style="fill:#263238"
       id="path481"
       inkscape:connector-curvature="0" />
  </g>
  <g
     id="freepik--Desk--inject-227"
     transform="translate(-47.44,-42.9)">
    <polygon
       points="148.72,402.43 250,402.26 351.28,402.42 401.92,402.51 452.56,402.76 401.92,403 351.28,403.09 250,403.26 148.72,403.09 98.08,403 47.44,402.76 98.08,402.51 "
       style="fill:#263238"
       id="polygon484" />
  </g>
  <g
     id="freepik--Device--inject-227"
     transform="translate(-47.44,-42.9)">
    <rect
       x="220.37"
       y="400.14001"
       width="137.57001"
       height="6.1700001"
       style="fill:#455a64"
       id="rect487" />
    <rect
       x="288.70001"
       y="400.14001"
       width="69.239998"
       height="6.1700001"
       style="fill:#263238"
       id="rect489" />
    <polygon
       points="447.75,315.25 313.68,315.25 296.15,406.31 430.22,406.31 "
       style="fill:#455a64"
       id="polygon491" />
    <path
       d="m 363.79,360.78 a 7.36,7.36 0 0 0 7.44,8.16 9.1,9.1 0 0 0 8.88,-8.16 7.36,7.36 0 0 0 -7.45,-8.16 9.07,9.07 0 0 0 -8.87,8.16 z"
       style="fill:#ebebeb"
       id="path493"
       inkscape:connector-curvature="0" />
    <polygon
       points="326.25,406.3 436.51,373.61 430.21,406.3 "
       style="fill:#263238"
       id="polygon495" />
  </g>
  <g
     id="freepik--Mug--inject-227"
     transform="translate(-47.44,-42.9)">
    <rect
       x="93.709999"
       y="428.39001"
       width="25.139999"
       height="3.9200001"
       style="fill:#455a64"
       id="rect498" />
    <rect
       x="93.709999"
       y="428.39001"
       width="25.139999"
       height="2.5899999"
       style="fill:#263238"
       id="rect500" />
    <path
       d="m 63.87,417.84 a 14.23,14.23 0 0 0 14.13,6.06 14.07,14.07 0 0 0 2.55,-0.74 17.91,17.91 0 0 0 3.56,-1.86 l -3.2,-4.74 a 11.84,11.84 0 0 1 -1.88,1.07 c -6,2.71 -9.78,-2 -10.53,-3.08 -3.44,-4.85 -4.68,-15.91 -1.18,-20.17 0.23,-0.31 1.23,-0.81 5.29,0.05 0.74,0.17 1.59,0.36 2.55,0.62 a 10.15,10.15 0 0 0 2.3,0.5 l 0.1,-2.85 0.28,-2.83 c -0.26,-0.05 -0.67,-0.17 -1.2,-0.32 a 35.74,35.74 0 0 0 -5.72,-1.18 c -3,-0.31 -6.1,0 -8,2.4 -5.67,6.95 -3.37,21 0.95,27.07 z"
       style="fill:#455a64"
       id="path502"
       inkscape:connector-curvature="0" />
    <path
       d="m 80.93,416.56 a 11.84,11.84 0 0 1 -1.88,1.07 l 1.52,5.53 a 17.91,17.91 0 0 0 3.56,-1.86 z"
       style="fill:#263238"
       id="path504"
       inkscape:connector-curvature="0" />
    <path
       d="m 70.94,388.37 1.69,6.06 c 0.74,0.17 1.59,0.36 2.55,0.62 a 10.15,10.15 0 0 0 2.3,0.5 l 0.1,-2.85 0.28,-2.83 c -0.26,-0.05 -0.67,-0.17 -1.2,-0.32 a 35.74,35.74 0 0 0 -5.72,-1.18 z"
       style="fill:#263238"
       id="path506"
       inkscape:connector-curvature="0" />
    <path
       d="m 139.73,381 c 0,0 -3,25.63 -8.23,36.42 -5.23,10.79 -12.48,12 -17,12 H 98.06 c -4.51,0 -11.79,-1.2 -17,-12 C 75.85,406.62 72.84,381 72.84,381 Z"
       style="fill:#455a64"
       id="path508"
       inkscape:connector-curvature="0" />
    <path
       d="m 134.81,397.74 a 1.62,1.62 0 1 1 1.62,-1.62 1.62,1.62 0 0 1 -1.62,1.62 z m 0,-2.93 a 1.32,1.32 0 1 0 1.32,1.31 1.31,1.31 0 0 0 -1.32,-1.31 z m -47.66,-5.35 a 1.62,1.62 0 1 1 1.61,-1.62 1.62,1.62 0 0 1 -1.61,1.62 z m 0,-2.93 a 1.32,1.32 0 1 0 1.31,1.31 1.32,1.32 0 0 0 -1.31,-1.31 z m 2.38,26.54 a 1.62,1.62 0 1 1 1.61,-1.62 1.63,1.63 0 0 1 -1.61,1.62 z m 0,-2.93 a 1.32,1.32 0 1 0 1.31,1.31 1.32,1.32 0 0 0 -1.31,-1.31 z M 76.39,385.23 a 1.61,1.61 0 1 1 1.61,-1.61 1.62,1.62 0 0 1 -1.61,1.61 z m 0,-2.92 a 1.32,1.32 0 1 0 1.32,1.31 1.31,1.31 0 0 0 -1.32,-1.31 z m 22.44,12.95 a 1.61,1.61 0 1 1 1.61,-1.61 1.62,1.62 0 0 1 -1.61,1.61 z m 0,-2.92 a 1.32,1.32 0 1 0 1.31,1.31 1.32,1.32 0 0 0 -1.31,-1.31 z m 17.5,20.05 a 1.61,1.61 0 1 1 1.62,-1.61 1.62,1.62 0 0 1 -1.62,1.61 z m 0,-2.92 a 1.32,1.32 0 1 0 1.32,1.31 1.31,1.31 0 0 0 -1.32,-1.31 z m -10.7,-24.24 a 1.61,1.61 0 1 1 1.61,-1.61 1.61,1.61 0 0 1 -1.61,1.61 z m 0,-2.92 a 1.32,1.32 0 1 0 1.32,1.31 1.31,1.31 0 0 0 -1.32,-1.31 z m -2,23.63 a 1.61,1.61 0 1 1 1.62,-1.61 1.62,1.62 0 0 1 -1.62,1.61 z m 0,-2.93 a 1.32,1.32 0 1 0 1.32,1.32 1.32,1.32 0 0 0 -1.32,-1.33 z m -16,22.2 a 1.61,1.61 0 1 1 1.61,-1.61 1.61,1.61 0 0 1 -1.57,1.61 z m 0,-2.93 a 1.32,1.32 0 1 0 1.37,1.32 1.32,1.32 0 0 0 -1.33,-1.32 z m 39.16,-34.63 a 1.61,1.61 0 1 1 1.61,-1.61 1.61,1.61 0 0 1 -1.57,1.61 z m 0,-2.93 a 1.32,1.32 0 1 0 1.31,1.32 1.32,1.32 0 0 0 -1.27,-1.32 z m -44.9,16.83 a 1.61,1.61 0 1 1 1.62,-1.61 1.62,1.62 0 0 1 -1.62,1.61 z m 0,-2.93 a 1.32,1.32 0 1 0 1.32,1.32 1.32,1.32 0 0 0 -1.32,-1.32 z m 33,-1.89 a 1.61,1.61 0 1 1 1.61,-1.61 1.61,1.61 0 0 1 -1.63,1.61 z m 0,-2.93 a 1.32,1.32 0 1 0 1.32,1.32 1.33,1.33 0 0 0 -1.34,-1.32 z m -11.24,29 a 1.61,1.61 0 1 1 1.62,-1.61 1.62,1.62 0 0 1 -1.64,1.59 z m 0,-2.92 a 1.32,1.32 0 1 0 1.32,1.31 1.31,1.31 0 0 0 -1.34,-1.33 z m 13.56,8.74 a 1.61,1.61 0 1 1 1.59,-1.62 1.61,1.61 0 0 1 -1.61,1.6 z m 0,-2.93 a 1.32,1.32 0 1 0 1.29,1.31 1.32,1.32 0 0 0 -1.31,-1.33 z m 9.64,-21.19 a 1.61,1.61 0 1 1 1.61,-1.61 1.62,1.62 0 0 1 -1.63,1.59 z m 0,-2.93 a 1.32,1.32 0 1 0 1.31,1.32 1.32,1.32 0 0 0 -1.33,-1.34 z m 1.44,17.43 a 1.62,1.62 0 1 1 1.61,-1.62 1.62,1.62 0 0 1 -1.61,1.62 z m 0,-2.93 a 1.32,1.32 0 1 0 1.32,1.31 1.32,1.32 0 0 0 -1.32,-1.3 z"
       style="fill:#ffffff"
       id="path510"
       inkscape:connector-curvature="0" />
  </g>
</svg>
