<?xml version="1.0" encoding="UTF-8" standalone="no"?>
<svg
   viewBox="0 0 657.95361 410.10001"
   version="1.1"
   id="svg2952"
   sodipodi:docname="webinar.svg"
   width="657.95361"
   height="410.10001"
   inkscape:version="1.2.2 (1:1.2.2+202305151915+b0a8486541)"
   xmlns:inkscape="http://www.inkscape.org/namespaces/inkscape"
   xmlns:sodipodi="http://sodipodi.sourceforge.net/DTD/sodipodi-0.dtd"
   xmlns="http://www.w3.org/2000/svg"
   xmlns:svg="http://www.w3.org/2000/svg">
  <defs
     id="defs2956" />
  <sodipodi:namedview
     id="namedview2954"
     pagecolor="#ffffff"
     bordercolor="#666666"
     borderopacity="1.0"
     inkscape:showpageshadow="2"
     inkscape:pageopacity="0.0"
     inkscape:pagecheckerboard="0"
     inkscape:deskcolor="#d1d1d1"
     showgrid="false"
     inkscape:zoom="1.596"
     inkscape:cx="191.41604"
     inkscape:cy="211.15288"
     inkscape:window-width="3440"
     inkscape:window-height="1391"
     inkscape:window-x="0"
     inkscape:window-y="0"
     inkscape:window-maximized="1"
     inkscape:current-layer="svg2952" />
  <g
     id="freepik--background-complete--inject-113"
     transform="translate(-50.686375,-39.13)">
    <path
       d="m 682.37,304.22 -13.12,0.28 -6.66,0.11 c -2.23,0.05 -4.47,0 -6.7,0.06 h -0.44 v -0.45 L 655.39,293 v -0.5 h 0.5 l 13.24,0.06 c 4.42,0 8.83,0.11 13.24,0.16 h 0.28 V 293 c 0,1.9 -0.08,3.79 -0.13,5.66 z m 0,0 -0.14,-5.65 c -0.05,-1.86 -0.11,-3.7 -0.13,-5.54 l 0.27,0.28 c -4.41,0.05 -8.82,0.16 -13.24,0.16 l -13.24,0.06 0.5,-0.5 v 11.19 l -0.45,-0.44 c 2.18,0 4.36,0 6.55,0.05 L 669,304 Z"
       style="fill:#ebebeb"
       id="path2416" />
    <path
       d="m 667.6,318.33 -13.12,0.28 -6.67,0.11 c -2.22,0 -4.46,0 -6.69,0.06 h -0.44 v -0.45 -11.19 -0.5 h 0.5 l 13.24,0.07 c 4.41,0 8.83,0.11 13.24,0.16 h 0.28 v 0.27 c 0,1.9 -0.08,3.79 -0.13,5.66 z m 0,0 -0.14,-5.65 c -0.05,-1.86 -0.11,-3.7 -0.13,-5.54 l 0.27,0.28 c -4.41,0.05 -8.83,0.16 -13.24,0.16 l -13.24,0.06 0.5,-0.5 v 11.19 l -0.45,-0.44 c 2.18,0 4.36,0 6.55,0.05 l 6.57,0.12 z"
       style="fill:#ebebeb"
       id="path2418" />
    <path
       d="m 697.14,318.33 -13.12,0.28 -6.66,0.11 c -2.23,0 -4.47,0 -6.7,0.06 h -0.44 v -0.45 l -0.06,-11.19 v -0.5 h 0.5 l 13.24,0.07 c 4.42,0 8.83,0.11 13.24,0.16 h 0.28 v 0.27 c 0,1.9 -0.09,3.79 -0.13,5.66 z m 0,0 -0.14,-5.65 c 0,-1.86 -0.11,-3.7 -0.13,-5.54 l 0.27,0.28 c -4.41,0.05 -8.82,0.16 -13.24,0.16 l -13.24,0.06 0.5,-0.5 v 11.19 l -0.45,-0.44 c 2.19,0 4.36,0 6.55,0.05 l 6.58,0.12 z"
       style="fill:#ebebeb"
       id="path2420" />
    <path
       d="m 349.87,116.08 -13.12,0.28 -6.66,0.11 c -2.23,0 -4.47,0 -6.7,0.06 H 323 v -0.45 l -0.06,-11.19 v -0.5 h 0.5 l 13.24,0.07 c 4.42,0 8.83,0.11 13.24,0.16 h 0.28 v 0.27 c 0,1.9 -0.09,3.79 -0.13,5.66 z m 0,0 -0.14,-5.65 c 0,-1.86 -0.11,-3.71 -0.13,-5.54 l 0.27,0.28 c -4.41,0 -8.82,0.15 -13.24,0.16 l -13.24,0.06 0.5,-0.5 -0.05,11.19 -0.45,-0.44 c 2.18,0 4.36,0 6.55,0 l 6.58,0.11 z"
       style="fill:#ebebeb"
       id="path2422" />
    <path
       d="m 335.1,130.19 -13.12,0.28 -6.66,0.11 c -2.23,0 -4.47,0 -6.7,0.06 h -0.44 v -0.45 L 308.12,119 v -0.5 h 0.5 l 13.24,0.07 c 4.42,0 8.83,0.11 13.24,0.16 h 0.28 V 119 c 0,1.9 -0.08,3.79 -0.13,5.66 z m 0,0 -0.14,-5.65 c 0,-1.86 -0.11,-3.71 -0.13,-5.54 l 0.27,0.28 c -4.41,0 -8.82,0.15 -13.24,0.16 l -13.24,0.06 0.5,-0.5 -0.05,11.19 -0.45,-0.44 c 2.18,0 4.36,0 6.55,0.05 l 6.58,0.11 z"
       style="fill:#ebebeb"
       id="path2424" />
    <path
       d="m 364.65,130.19 -13.13,0.28 -6.66,0.11 c -2.23,0 -4.46,0 -6.7,0.06 h -0.44 v -0.45 L 337.67,119 v -0.5 h 0.5 l 13.25,0.07 c 4.41,0 8.82,0.11 13.24,0.16 h 0.27 V 119 c 0,1.9 -0.09,3.79 -0.13,5.66 z m 0,0 -0.15,-5.65 c 0,-1.86 -0.11,-3.71 -0.13,-5.54 l 0.28,0.28 c -4.42,0 -8.83,0.15 -13.24,0.16 l -13.25,0.06 0.5,-0.5 -0.05,11.19 -0.45,-0.44 c 2.19,0 4.36,0 6.55,0.05 l 6.58,0.11 z"
       style="fill:#ebebeb"
       id="path2426" />
    <path
       d="m 158,231.87 -13.13,0.28 -6.66,0.11 c -2.22,0.05 -4.46,0 -6.69,0.05 h -0.44 v -0.45 -11.19 -0.5 h 0.5 l 13.24,0.06 c 4.41,0 8.83,0.11 13.24,0.17 h 0.27 v 0.27 c 0,1.9 -0.08,3.79 -0.13,5.65 z m 0,0 -0.14,-5.66 c 0,-1.86 -0.11,-3.7 -0.13,-5.53 l 0.27,0.27 c -4.41,0.05 -8.83,0.16 -13.24,0.17 l -13.24,0.06 0.5,-0.5 -0.02,11.19 -0.44,-0.45 c 2.18,0 4.36,0 6.54,0.06 l 6.58,0.11 z"
       style="fill:#ebebeb"
       id="path2428" />
    <path
       d="m 682.09,62.38 -13.09,0.28 -6.66,0.11 c -2.22,0 -4.46,0 -6.69,0.06 h -0.45 v -0.45 -11.19 -0.5 h 0.5 l 13.24,0.06 c 4.41,0 8.82,0.12 13.24,0.17 h 0.27 v 0.27 c 0,1.9 -0.09,3.79 -0.13,5.65 z m 0,0 -0.09,-5.65 c -0.05,-1.87 -0.12,-3.71 -0.14,-5.54 l 0.28,0.27 c -4.42,0 -8.83,0.16 -13.24,0.17 l -13.24,0.06 0.5,-0.5 -0.06,11.19 -0.44,-0.45 c 2.18,0 4.36,0 6.54,0.06 l 6.58,0.11 z"
       style="fill:#ebebeb"
       id="path2430" />
    <path
       d="m 696.86,76.49 -13.13,0.28 -6.66,0.11 c -2.22,0.05 -4.46,0 -6.69,0.05 h -0.44 v -0.45 -11.19 -0.5 h 0.5 l 13.24,0.06 c 4.41,0 8.83,0.12 13.24,0.17 h 0.28 v 0.27 c 0,1.9 -0.08,3.79 -0.13,5.65 z m 0,0 -0.14,-5.65 c -0.05,-1.87 -0.11,-3.71 -0.13,-5.54 l 0.27,0.27 c -4.41,0.05 -8.83,0.16 -13.24,0.17 l -13.24,0.06 0.5,-0.5 -0.06,11.19 -0.44,-0.45 c 2.18,0 4.36,0 6.54,0.06 l 6.58,0.11 z"
       style="fill:#ebebeb"
       id="path2432" />
    <path
       d="m 79.34,356.64 -13.13,0.28 -6.66,0.12 c -2.22,0 -4.46,0 -6.69,0 H 52.41 V 356.59 345.41 345 h 0.51 13.18 c 4.41,0 8.82,0.11 13.24,0.16 h 0.27 v 0.27 c 0,1.89 -0.09,3.78 -0.13,5.65 z m 0,0 -0.15,-5.64 c 0,-1.86 -0.11,-3.7 -0.13,-5.53 l 0.28,0.27 c -4.42,0 -8.83,0.16 -13.24,0.16 l -13.24,0.1 0.5,-0.49 -0.06,11.18 -0.44,-0.44 c 2.18,0 4.35,0 6.54,0.05 l 6.58,0.12 z"
       style="fill:#ebebeb"
       id="path2434" />
    <path
       d="M 94.11,370.75 81,371 l -6.66,0.12 c -2.22,0 -4.46,0 -6.69,0.05 H 67.2 v -0.45 l -0.05,-11.19 v -0.5 h 0.5 l 13.24,0.06 c 4.41,0 8.83,0.11 13.24,0.16 h 0.27 v 0.26 c 0,1.9 -0.08,3.79 -0.13,5.66 z m 0,0 L 94,365.1 c 0,-1.86 -0.12,-3.7 -0.13,-5.54 l 0.27,0.28 C 89.73,359.89 85.31,360 80.9,360 l -13.24,0.06 0.5,-0.5 -0.06,11.19 -0.44,-0.44 c 2.18,0 4.36,0 6.54,0.05 l 6.58,0.12 z"
       style="fill:#ebebeb"
       id="path2436" />
    <path
       d="m 79.34,62.39 -13.13,0.28 -6.66,0.11 c -2.22,0 -4.46,0 -6.69,0.06 H 52.41 V 62.39 51.2 50.7 h 0.51 l 13.24,0.07 c 4.41,0 8.82,0.11 13.24,0.16 h 0.27 v 0.27 c 0,1.9 -0.09,3.79 -0.13,5.66 z m 0,0 -0.15,-5.65 c 0,-1.87 -0.11,-3.71 -0.13,-5.54 l 0.28,0.27 c -4.42,0.06 -8.83,0.16 -13.24,0.17 L 52.86,51.7 53.36,51.2 53.3,62.39 52.86,62 c 2.18,0 4.35,0 6.54,0 l 6.58,0.11 z"
       style="fill:#ebebeb"
       id="path2438" />
    <path
       d="M 131.6,122.82 A 37.05,37.05 0 1 1 95,80.34 v 37.05 z"
       style="fill:#dbdbdb"
       id="path2440" />
    <path
       d="m 139.55,109.84 a 37.55,37.55 0 0 1 -0.4,5.44 l -36.65,-5.44 v -37 a 37,37 0 0 1 37.05,37.05 z"
       style="fill:#ebebeb"
       id="path2442" />
    <rect
       x="89.669998"
       y="141.05"
       width="1"
       height="27.57"
       style="fill:#c7c7c7"
       id="rect2444" />
    <path
       d="m 90.17,174.65 a 3.26,3.26 0 1 1 3.26,-3.26 3.27,3.27 0 0 1 -3.26,3.26 z m 0,-5.52 a 2.26,2.26 0 1 0 2.26,2.26 2.27,2.27 0 0 0 -2.26,-2.26 z"
       style="fill:#c7c7c7"
       id="path2446" />
    <rect
       x="90.169998"
       y="179.42"
       width="30.610001"
       height="1.38"
       style="fill:#c7c7c7"
       id="rect2448" />
    <rect
       x="90.169998"
       y="182.19"
       width="17.33"
       height="1.38"
       style="fill:#c7c7c7"
       id="rect2450" />
    <rect
       x="608.21997"
       y="231.25"
       width="8.0299997"
       height="57.139999"
       style="fill:#ebebeb"
       id="rect2452" />
    <rect
       x="622.02002"
       y="245.08"
       width="8.0299997"
       height="43.310001"
       style="fill:#ebebeb"
       id="rect2454" />
    <rect
       x="635.82001"
       y="266.73999"
       width="8.0299997"
       height="21.65"
       style="fill:#ebebeb"
       id="rect2456" />
    <rect
       x="649.62"
       y="254.37"
       width="8.0299997"
       height="34.02"
       style="fill:#ebebeb"
       id="rect2458" />
    <rect
       x="663.41998"
       y="241.38"
       width="8.0299997"
       height="47.009998"
       style="fill:#ebebeb"
       id="rect2460" />
    <rect
       x="677.21997"
       y="233.74001"
       width="8.0299997"
       height="54.650002"
       style="fill:#ebebeb"
       id="rect2462" />
    <path
       d="m 603.56,224 0.1,16.1 v 16.1 l 0.06,32.2 -0.2,-0.2 q 11.07,0 22.14,0 l 22.14,0.05 h 22.13 l 22.14,0.12 -22.14,0.12 H 647.8 l -22.14,0.05 q -11.07,0 -22.14,0 h -0.2 v -0.2 l 0.06,-32.2 0.05,-16.1 z"
       style="fill:#ebebeb"
       id="path2464" />
    <path
       d="m 601.79,227.22 a 6.33,6.33 0 0 1 1.77,-0.23 6,6 0 0 1 1.77,0.23 6,6 0 0 1 -1.77,0.22 6.32,6.32 0 0 1 -1.77,-0.22 z"
       style="fill:#ebebeb"
       id="path2466" />
    <path
       d="m 601.79,232.11 a 6.93,6.93 0 0 1 3.54,0 6.93,6.93 0 0 1 -3.54,0 z"
       style="fill:#ebebeb"
       id="path2468" />
    <path
       d="m 601.79,237 a 6.32,6.32 0 0 1 1.77,-0.22 6,6 0 0 1 1.77,0.22 6,6 0 0 1 -1.77,0.23 6.33,6.33 0 0 1 -1.77,-0.23 z"
       style="fill:#ebebeb"
       id="path2470" />
    <path
       d="m 601.79,241.9 a 6.93,6.93 0 0 1 3.54,0 6.93,6.93 0 0 1 -3.54,0 z"
       style="fill:#ebebeb"
       id="path2472" />
    <path
       d="m 601.79,246.79 a 7.23,7.23 0 0 1 3.54,0 6,6 0 0 1 -1.77,0.23 6.33,6.33 0 0 1 -1.77,-0.23 z"
       style="fill:#ebebeb"
       id="path2474" />
    <path
       d="m 601.79,251.69 a 6.93,6.93 0 0 1 3.54,0 6.93,6.93 0 0 1 -3.54,0 z"
       style="fill:#ebebeb"
       id="path2476" />
    <path
       d="m 601.79,256.58 a 7.23,7.23 0 0 1 3.54,0 6.93,6.93 0 0 1 -3.54,0 z"
       style="fill:#ebebeb"
       id="path2478" />
    <path
       d="m 601.79,261.48 a 6.93,6.93 0 0 1 3.54,0 7.23,7.23 0 0 1 -3.54,0 z"
       style="fill:#ebebeb"
       id="path2480" />
    <path
       d="m 601.79,266.37 a 6.93,6.93 0 0 1 3.54,0 6.93,6.93 0 0 1 -3.54,0 z"
       style="fill:#ebebeb"
       id="path2482" />
    <path
       d="m 601.79,271.27 a 6.93,6.93 0 0 1 3.54,0 7.23,7.23 0 0 1 -3.54,0 z"
       style="fill:#ebebeb"
       id="path2484" />
    <path
       d="m 601.79,276.16 a 6.93,6.93 0 0 1 3.54,0 6.93,6.93 0 0 1 -3.54,0 z"
       style="fill:#ebebeb"
       id="path2486" />
    <path
       d="m 601.79,281.06 a 6.33,6.33 0 0 1 1.77,-0.23 6,6 0 0 1 1.77,0.23 6,6 0 0 1 -1.77,0.22 6.32,6.32 0 0 1 -1.77,-0.22 z"
       style="fill:#ebebeb"
       id="path2488" />
    <path
       d="m 86.63,288.5 a 3.22,3.22 0 0 1 3.37,0 l 0.87,0.5 0.9,0.45 a 3.22,3.22 0 0 1 1.88,2.79 l 0.13,4.16 13.54,-0.42 -0.13,-4.16 a 3.22,3.22 0 0 1 1.7,-2.92 16.76,16.76 0 0 0 1.71,-1.06 3.23,3.23 0 0 1 3.37,-0.21 l 3.65,2 6.4,-11.94 -3.65,-2 a 3.22,3.22 0 0 1 -1.68,-2.92 19.48,19.48 0 0 0 -0.07,-2 3.25,3.25 0 0 1 1.49,-3 l 3.53,-2.19 -7.13,-11.58 -3.55,2.2 a 3.24,3.24 0 0 1 -3.37,0 l -0.86,-0.5 -0.89,-0.45 a 3.2,3.2 0 0 1 -1.89,-2.8 l -0.13,-4.16 -13.53,0.42 0.13,4.15 a 3.22,3.22 0 0 1 -1.7,2.92 18.18,18.18 0 0 0 -1.72,1.09 3.21,3.21 0 0 1 -3.36,0.21 l -3.66,-2 -6.4,11.94 3.65,2 a 3.2,3.2 0 0 1 1.68,2.92 19.58,19.58 0 0 0 0.07,2 3.24,3.24 0 0 1 -1.5,3 l -3.48,2.24 7.14,11.51 z M 90,267.12 a 11.09,11.09 0 1 1 4.54,15 11.1,11.1 0 0 1 -4.54,-15 z"
       style="fill:#ebebeb"
       id="path2490" />
    <path
       d="m 644.78,108.16 a 1.91,1.91 0 0 1 1.78,-0.94 h 0.59 0.6 a 1.9,1.9 0 0 1 1.77,0.94 l 1.24,2.14 7,-4 -1.24,-2.14 a 1.94,1.94 0 0 1 0.07,-2 10.77,10.77 0 0 0 0.6,-1 1.93,1.93 0 0 1 1.71,-1.06 h 2.46 V 92 h -2.46 a 1.91,1.91 0 0 1 -1.71,-1.06 10.77,10.77 0 0 0 -0.6,-1 1.94,1.94 0 0 1 -0.07,-2 l 1.24,-2.14 -7,-4 -1.25,2.16 a 1.91,1.91 0 0 1 -1.77,0.93 h -0.59 -0.59 a 1.91,1.91 0 0 1 -1.78,-0.94 l -1.24,-2.15 -7,4 1.24,2.14 a 1.94,1.94 0 0 1 -0.07,2 9.69,9.69 0 0 0 -0.6,1 1.91,1.91 0 0 1 -1.69,1.06 H 633 v 8 h 2.47 a 1.93,1.93 0 0 1 1.71,1.06 10.93,10.93 0 0 0 0.6,1 1.92,1.92 0 0 1 0.07,2 l -1.24,2.14 7,4 z M 640.54,96 a 6.61,6.61 0 1 1 6.61,6.6 6.61,6.61 0 0 1 -6.61,-6.6 z"
       style="fill:#ebebeb"
       id="path2492" />
    <path
       d="m 132.69,296.24 a 1.91,1.91 0 0 1 0.94,1.78 c 0,0.19 0,0.39 0,0.59 0,0.2 0,0.4 0,0.6 a 1.89,1.89 0 0 1 -0.93,1.77 l -2.14,1.24 4,7 2.15,-1.24 a 1.92,1.92 0 0 1 2,0.07 c 0.34,0.22 0.69,0.42 1,0.61 a 1.88,1.88 0 0 1 1.06,1.7 v 2.47 h 8.06 v -2.47 a 1.9,1.9 0 0 1 1.06,-1.7 11.81,11.81 0 0 0 1,-0.61 1.94,1.94 0 0 1 2,-0.07 l 2.14,1.24 4,-7 L 157,301 a 1.88,1.88 0 0 1 -0.93,-1.77 c 0,-0.19 0,-0.39 0,-0.59 0,-0.2 0,-0.4 0,-0.59 a 1.92,1.92 0 0 1 0.93,-1.78 l 2.15,-1.24 -4,-7 -2.15,1.23 a 1.92,1.92 0 0 1 -2,-0.07 10.93,10.93 0 0 0 -1.05,-0.6 1.93,1.93 0 0 1 -1.06,-1.71 v -2.46 h -8.06 v 2.46 a 1.91,1.91 0 0 1 -1.06,1.71 9.69,9.69 0 0 0 -1,0.6 1.92,1.92 0 0 1 -2,0.07 l -2.19,-1.26 -4,7 z M 144.86,292 a 6.6,6.6 0 1 1 -6.6,6.6 6.6,6.6 0 0 1 6.6,-6.6 z"
       style="fill:#ebebeb"
       id="path2494" />
  </g>
  <g
     id="freepik--Table--inject-113"
     transform="translate(-50.686375,-39.13)">
    <polygon
       points="212.86,448.4 375,448.24 537.14,448.4 618.21,448.49 699.28,448.73 618.21,448.98 537.14,449.07 375,449.23 212.86,449.06 131.79,448.98 50.72,448.73 131.79,448.49 "
       style="fill:#263238"
       id="polygon2497" />
  </g>
  <g
     id="freepik--Plant--inject-113"
     transform="translate(-50.686375,-39.13)">
    <path
       d="m 71.61,333.19 c 19.08,18.67 22.28,47.57 18.26,72.88 -0.1,0.57 -1,0.41 -1,-0.13 0,-5.76 0.17,-11.47 0.16,-17.16 -0.11,-0.26 -0.19,-0.5 -0.3,-0.76 -5,-3.62 -9.55,-7.71 -12.39,-13.32 -3.19,-6.26 -4.44,-13.33 -6.88,-19.88 -0.22,-0.62 0.44,-0.44 0.88,-0.12 11.66,8.56 15.32,17.77 18.66,30.08 a 102.1,102.1 0 0 0 -2,-19.16 c -2.51,-11.68 -7.47,-23.26 -15.86,-31.93 -0.34,-0.33 0.14,-0.83 0.47,-0.5 z"
       style="fill:#263238"
       id="path2500" />
    <path
       d="m 68,335.37 c -3.28,0.11 -5.34,5.35 -7.9,6.88 -1.35,0.82 -2.67,0.77 -3.62,-0.57 -2.53,-3.53 0.94,-7.9 4.21,-10.34 -2.34,1 -4.28,2.65 -6.8,3.13 a 2.37,2.37 0 0 1 -3.07,-1.84 c -1.11,-4.82 4.94,-7 9.09,-7.07 -2,-1.4 -7.78,-5.2 -4.71,-7.07 3.07,-1.87 9.87,3.56 12.08,5.35 3.24,2.63 7.11,6.57 7.26,10.68 0.22,4.81 -3.99,1.85 -6.54,0.85 z"
       style="fill:#ffc727"
       id="path2502" />
    <path
       d="m 68,335.37 c -3.28,0.11 -5.34,5.35 -7.9,6.88 -1.35,0.82 -2.67,0.77 -3.62,-0.57 -2.53,-3.53 0.94,-7.9 4.21,-10.34 -2.34,1 -4.28,2.65 -6.8,3.13 a 2.37,2.37 0 0 1 -3.07,-1.84 c -1.11,-4.82 4.94,-7 9.09,-7.07 -2,-1.4 -7.78,-5.2 -4.71,-7.07 3.07,-1.87 9.87,3.56 12.08,5.35 3.24,2.63 7.11,6.57 7.26,10.68 0.22,4.81 -3.99,1.85 -6.54,0.85 z"
       style="opacity:0.1"
       id="path2504" />
    <path
       d="m 69,336.17 c -4.2,-1.9 -12.26,0.84 -12.94,-0.75 -1.39,-3.23 5.05,-5.45 8.53,-5.87 -3.21,-0.87 -9.34,-2.25 -9.15,-5.34 0.23,-3.77 9.41,-0.53 14,3 5.86,4.49 5.82,8.82 4.85,9.69 -1.29,1.22 -4.62,-0.41 -5.29,-0.73 z"
       style="fill:#ffc727"
       id="path2506" />
    <path
       d="M 115.06,331.34 C 95.29,349.28 91,378 94,403.47 c 0.08,0.58 1,0.46 1,-0.08 0.22,-5.76 0.26,-11.47 0.49,-17.16 0.12,-0.26 0.22,-0.5 0.33,-0.75 5.11,-3.43 9.84,-7.34 12.89,-12.84 3.42,-6.14 4.94,-13.15 7.63,-19.6 0.25,-0.62 -0.43,-0.46 -0.88,-0.15 -11.92,8.11 -16,17.17 -19.76,29.34 a 102.1,102.1 0 0 1 2.75,-19.07 c 2.94,-11.58 8.34,-23 17.06,-31.3 0.36,-0.32 -0.11,-0.86 -0.45,-0.52 z"
       style="fill:#263238"
       id="path2508" />
    <path
       d="m 118.56,333.65 c 3.27,0.24 5.13,5.56 7.63,7.18 1.32,0.87 2.64,0.87 3.64,-0.43 2.67,-3.44 -0.64,-7.93 -3.82,-10.49 2.3,1 4.18,2.81 6.68,3.38 a 2.37,2.37 0 0 0 3.14,-1.72 c 1.29,-4.77 -4.67,-7.15 -8.82,-7.41 2.07,-1.32 8,-4.9 5,-6.88 -3,-1.98 -10,3.18 -12.27,4.88 -3.34,2.51 -7.36,6.29 -7.66,10.4 -0.39,4.8 3.92,2 6.48,1.09 z"
       style="fill:#ffc727"
       id="path2510" />
    <path
       d="m 118.56,333.65 c 3.27,0.24 5.13,5.56 7.63,7.18 1.32,0.87 2.64,0.87 3.64,-0.43 2.67,-3.44 -0.64,-7.93 -3.82,-10.49 2.3,1 4.18,2.81 6.68,3.38 a 2.37,2.37 0 0 0 3.14,-1.72 c 1.29,-4.77 -4.67,-7.15 -8.82,-7.41 2.07,-1.32 8,-4.9 5,-6.88 -3,-1.98 -10,3.18 -12.27,4.88 -3.34,2.51 -7.36,6.29 -7.66,10.4 -0.39,4.8 3.92,2 6.48,1.09 z"
       style="opacity:0.1"
       id="path2512" />
    <path
       d="m 117.58,334.42 c 4.27,-1.74 12.22,1.31 13,-0.25 1.51,-3.18 -4.84,-5.64 -8.3,-6.2 3.24,-0.75 9.42,-1.9 9.35,-5 -0.09,-3.78 -9.39,-0.88 -14.16,2.5 -6,4.26 -6.15,8.59 -5.22,9.5 1.24,1.24 4.63,-0.26 5.33,-0.55 z"
       style="fill:#ffc727"
       id="path2514" />
    <path
       d="m 94.84,378.71 a 194.11,194.11 0 0 1 -6.14,28.36 0.7030825,0.7030825 0 0 1 -1.38,-0.27 c 1.3,-8.74 3.66,-17.32 5,-26.06 A 131,131 0 0 0 93.8,354 C 93,339.26 89,323.59 79.36,312.07 c -0.21,-0.28 0.24,-0.66 0.45,-0.41 19.25,22.43 16.19,49.94 16.19,52.4 2.72,-9.28 5.53,-19.93 15.83,-29.39 0.45,-0.4 0.79,-0.21 0.72,0.48 -1.84,17.23 -6.63,26.22 -16.62,35.43 -0.3,2.73 -0.66,5.42 -1.09,8.13 z"
       style="fill:#263238"
       id="path2516" />
    <path
       d="m 79.19,314.65 c -3.47,-1.54 -8.24,2.87 -11.66,3.17 -1.82,0.16 -3.16,-0.56 -3.48,-2.42 -0.84,-4.94 5,-7.72 9.58,-8.61 -2.91,-0.18 -5.77,0.6 -8.63,-0.17 -1.72,-0.48 -2.67,-1.67 -2.26,-3.46 1.28,-5.56 8.63,-4.74 13,-2.76 -1.38,-2.46 -5.45,-9.31 -1.33,-9.71 4.12,-0.4 8.45,8.67 9.84,11.64 2,4.36 4.07,10.39 2.15,14.73 -2.23,5.09 -5.1,-0.06 -7.21,-2.41 z"
       style="fill:#ffc727"
       id="path2518" />
    <path
       d="m 79.19,314.65 c -3.47,-1.54 -8.24,2.87 -11.66,3.17 -1.82,0.16 -3.16,-0.56 -3.48,-2.42 -0.84,-4.94 5,-7.72 9.58,-8.61 -2.91,-0.18 -5.77,0.6 -8.63,-0.17 -1.72,-0.48 -2.67,-1.67 -2.26,-3.46 1.28,-5.56 8.63,-4.74 13,-2.76 -1.38,-2.46 -5.45,-9.31 -1.33,-9.71 4.12,-0.4 8.45,8.67 9.84,11.64 2,4.36 4.07,10.39 2.15,14.73 -2.23,5.09 -5.1,-0.06 -7.21,-2.41 z"
       style="opacity:0.1"
       id="path2520" />
    <path
       d="m 79.76,316 c -3.39,-4.09 -13.14,-5.3 -13.05,-7.29 0.19,-4.05 8,-3.11 11.81,-1.81 -2.88,-2.51 -8.55,-7 -6.8,-10.14 2.13,-3.8 10,4.19 13,10.22 3.82,7.61 1.6,12.08 0.16,12.5 C 83,320 80.32,316.64 79.76,316 Z"
       style="fill:#ffc727"
       id="path2522" />
    <path
       d="m 107.5,383.9 8.5,64.83 H 64.35 C 65.41,443 75,383.82 75,383.82 Z"
       style="fill:#ffc727"
       id="path2524" />
  </g>
  <g
     id="freepik--Device--inject-113"
     transform="translate(-50.686375,-39.13)">
    <rect
       x="77.540001"
       y="427.07001"
       width="594.90997"
       height="21.67"
       style="fill:#c7c7c7"
       id="rect2527" />
    <rect
       x="317.01001"
       y="427.07001"
       width="115.98"
       height="8.8199997"
       style="fill:#a6a6a6"
       id="rect2529" />
    <rect
       x="139.02"
       y="111.35"
       width="471.97"
       height="315.70999"
       style="fill:#dbdbdb"
       id="rect2531" />
    <rect
       x="142.44"
       y="115.2"
       width="465.10999"
       height="308.01001"
       style="fill:#37474f"
       id="rect2533" />
    <rect
       x="163.03999"
       y="135"
       width="423.92001"
       height="268.41"
       style="fill:#ffffff"
       id="rect2535" />
    <rect
       x="163.03999"
       y="135"
       width="423.92001"
       height="10.33"
       style="fill:#263238"
       id="rect2537" />
    <path
       d="m 172.76,140.17 a 2,2 0 1 1 -1.95,-2 1.95,1.95 0 0 1 1.95,2 z"
       style="fill:#c7c7c7"
       id="path2539" />
    <path
       d="m 180.74,140.17 a 2,2 0 1 1 -2,-2 1.95,1.95 0 0 1 2,2 z"
       style="fill:#ffffff"
       id="path2541" />
    <path
       d="m 188.72,140.17 a 2,2 0 1 1 -1.95,-2 1.95,1.95 0 0 1 1.95,2 z"
       style="fill:#ffc727"
       id="path2543" />
    <rect
       x="163.03999"
       y="391.57001"
       width="423.92001"
       height="11.85"
       style="fill:#263238"
       id="rect2545" />
    <path
       d="M 556.46,396.22 H 190 a 1.13,1.13 0 1 0 0,2.26 h 366.5 a 1.13,1.13 0 1 0 0,-2.26 z"
       style="fill:#ffffff"
       id="path2547" />
    <path
       d="m 190,396.22 a 1.13,1.13 0 1 0 0,2.26 h 279.47 v -2.26 z"
       style="fill:#ffc727"
       id="path2549" />
    <path
       d="m 467.2,397.35 a 2.27,2.27 0 1 1 2.27,2.26 2.27,2.27 0 0 1 -2.27,-2.26 z"
       style="fill:#ffc727"
       id="path2551" />
    <polygon
       points="575.09,396.98 576.13,396.98 576.13,394.73 578.38,394.73 578.38,393.69 576.13,393.69 575.09,393.69 575.09,394.73 "
       style="fill:#ffffff"
       id="polygon2553" />
    <polygon
       points="579.61,394.73 581.87,394.73 581.87,396.98 582.91,396.98 582.91,394.73 582.91,393.69 581.87,393.69 579.61,393.69 "
       style="fill:#ffffff"
       id="polygon2555" />
    <polygon
       points="579.61,401.3 581.87,401.3 582.91,401.3 582.91,400.26 582.91,398.01 581.87,398.01 581.87,400.26 579.61,400.26 "
       style="fill:#ffffff"
       id="polygon2557" />
    <polygon
       points="575.09,400.26 575.09,401.3 576.13,401.3 578.38,401.3 578.38,400.26 576.13,400.26 576.13,398.01 575.09,398.01 "
       style="fill:#ffffff"
       id="polygon2559" />
    <polygon
       points="172.41,397.35 167.09,394.05 167.09,400.64 "
       style="fill:#ffffff"
       id="polygon2561" />
    <path
       d="m 175.29,397.44 a 1.32,1.32 0 0 1 0.21,-0.75 0.71,0.71 0 0 1 0.59,-0.34 0.69,0.69 0 0 1 0.57,0.34 1.32,1.32 0 0 1 0.21,0.75 1.3,1.3 0 0 1 -0.21,0.75 0.7,0.7 0 0 1 -0.57,0.35 0.72,0.72 0 0 1 -0.59,-0.35 1.3,1.3 0 0 1 -0.21,-0.75 z m 1.24,0 a 1.16,1.16 0 0 0 -0.15,-0.56 0.32,0.32 0 0 0 -0.59,0 1.06,1.06 0 0 0 -0.15,0.56 1,1 0 0 0 0.15,0.56 0.32,0.32 0 0 0 0.59,0 1.13,1.13 0 0 0 0.15,-0.56 z"
       style="fill:#ffffff"
       id="path2563" />
    <path
       d="m 177.52,397.44 a 1.4,1.4 0 0 1 0.21,-0.75 0.71,0.71 0 0 1 0.59,-0.34 0.72,0.72 0 0 1 0.58,0.34 1.4,1.4 0 0 1 0.2,0.75 1.37,1.37 0 0 1 -0.2,0.75 0.73,0.73 0 0 1 -0.58,0.35 0.72,0.72 0 0 1 -0.59,-0.35 1.38,1.38 0 0 1 -0.21,-0.75 z m 1.24,0 a 1.06,1.06 0 0 0 -0.15,-0.56 0.32,0.32 0 0 0 -0.59,0 1.06,1.06 0 0 0 -0.15,0.56 1,1 0 0 0 0.15,0.56 0.32,0.32 0 0 0 0.59,0 1,1 0 0 0 0.15,-0.56 z"
       style="fill:#ffffff"
       id="path2565" />
    <path
       d="m 180.05,396.85 a 0.23,0.23 0 1 1 0,0.46 0.23,0.23 0 1 1 0,-0.46 z m 0,1.24 a 0.24,0.24 0 0 1 0.24,0.24 0.23,0.23 0 0 1 -0.24,0.23 0.23,0.23 0 0 1 -0.23,-0.23 0.23,0.23 0 0 1 0.23,-0.24 z"
       style="fill:#ffffff"
       id="path2567" />
    <path
       d="m 180.51,397.44 a 1.32,1.32 0 0 1 0.21,-0.75 0.69,0.69 0 0 1 0.58,-0.34 0.7,0.7 0 0 1 0.58,0.34 1.32,1.32 0 0 1 0.21,0.75 1.3,1.3 0 0 1 -0.21,0.75 0.71,0.71 0 0 1 -0.58,0.35 0.7,0.7 0 0 1 -0.58,-0.35 1.3,1.3 0 0 1 -0.21,-0.75 z m 1.23,0 a 1.06,1.06 0 0 0 -0.15,-0.56 0.37,0.37 0 0 0 -0.29,-0.19 0.4,0.4 0 0 0 -0.3,0.19 1.16,1.16 0 0 0 -0.15,0.56 1.13,1.13 0 0 0 0.15,0.56 0.4,0.4 0 0 0 0.3,0.19 0.37,0.37 0 0 0 0.29,-0.19 1,1 0 0 0 0.15,-0.56 z"
       style="fill:#ffffff"
       id="path2569" />
    <path
       d="m 182.74,397.44 a 1.32,1.32 0 0 1 0.21,-0.75 0.69,0.69 0 0 1 0.58,-0.34 0.7,0.7 0 0 1 0.58,0.34 1.32,1.32 0 0 1 0.21,0.75 1.3,1.3 0 0 1 -0.21,0.75 0.71,0.71 0 0 1 -0.58,0.35 0.7,0.7 0 0 1 -0.58,-0.35 1.3,1.3 0 0 1 -0.21,-0.75 z m 1.23,0 a 1.06,1.06 0 0 0 -0.15,-0.56 0.37,0.37 0 0 0 -0.29,-0.19 0.4,0.4 0 0 0 -0.3,0.19 1.16,1.16 0 0 0 -0.15,0.56 1.13,1.13 0 0 0 0.15,0.56 0.4,0.4 0 0 0 0.3,0.19 0.37,0.37 0 0 0 0.29,-0.19 1,1 0 0 0 0.18,-0.56 z"
       style="fill:#ffffff"
       id="path2571" />
    <path
       d="m 562.44,397.44 a 1.4,1.4 0 0 1 0.21,-0.75 0.67,0.67 0 0 1 1.17,0 1.4,1.4 0 0 1 0.21,0.75 1.38,1.38 0 0 1 -0.21,0.75 0.66,0.66 0 0 1 -1.17,0 1.38,1.38 0 0 1 -0.21,-0.75 z m 1.24,0 a 1.06,1.06 0 0 0 -0.15,-0.56 0.32,0.32 0 0 0 -0.59,0 1.06,1.06 0 0 0 -0.15,0.56 1,1 0 0 0 0.15,0.56 0.32,0.32 0 0 0 0.59,0 1,1 0 0 0 0.15,-0.56 z"
       style="fill:#ffffff"
       id="path2573" />
    <path
       d="m 565.83,397.21 a 0.78,0.78 0 0 1 -0.55,1.33 v 0 a 0.78,0.78 0 0 1 -0.54,-0.23 0.18,0.18 0 0 1 0.25,-0.25 0.41,0.41 0 0 0 0.6,0 0.42426407,0.42426407 0 0 0 -0.6,-0.6 0.18,0.18 0 0 1 -0.25,0 v 0 0 0 0 a 0.06,0.06 0 0 1 0,-0.06 l 0.09,-0.81 a 0.2,0.2 0 0 1 0.08,-0.12 v 0 a 0.12,0.12 0 0 1 0.08,0 h 0.93 a 0.17,0.17 0 0 1 0.18,0.17 0.18,0.18 0 0 1 -0.18,0.18 h -0.77 v 0.31 h 0.21 a 0.78,0.78 0 0 1 0.47,0.08 z"
       style="fill:#ffffff"
       id="path2575" />
    <path
       d="m 566.87,396.85 a 0.23,0.23 0 1 1 0,0.46 0.23,0.23 0 1 1 0,-0.46 z m 0,1.24 a 0.24,0.24 0 0 1 0.24,0.24 0.23,0.23 0 0 1 -0.24,0.23 0.23,0.23 0 0 1 -0.23,-0.23 0.23,0.23 0 0 1 0.23,-0.24 z"
       style="fill:#ffffff"
       id="path2577" />
    <path
       d="m 568.51,397.21 a 0.74,0.74 0 0 1 0.23,0.55 0.77,0.77 0 0 1 -0.23,0.55 0.77,0.77 0 0 1 -1.1,0 0.18,0.18 0 0 1 0.25,-0.25 0.44,0.44 0 0 0 0.3,0.12 0.42,0.42 0 0 0 0.3,-0.12 0.41,0.41 0 0 0 0.13,-0.3 0.39,0.39 0 0 0 -0.13,-0.3 0.43,0.43 0 0 0 -0.29,-0.13 0.15,0.15 0 0 1 -0.13,-0.05 v 0 a 0.17,0.17 0 0 1 0,-0.25 l 0.32,-0.32 h -0.51 a 0.18,0.18 0 0 1 0,-0.36 h 0.92 a 0.18,0.18 0 0 1 0.18,0.18 0.19,0.19 0 0 1 0,0.08 v 0 l -0.4,0.4 a 0.6,0.6 0 0 1 0.16,0.2 z"
       style="fill:#ffffff"
       id="path2579" />
    <path
       d="m 570.38,397.21 a 0.74,0.74 0 0 1 0.23,0.55 0.79,0.79 0 0 1 -0.77,0.78 v 0 a 0.78,0.78 0 0 1 -0.55,-0.23 0.18,0.18 0 0 1 0.25,-0.25 0.46,0.46 0 0 0 0.31,0.13 0.45,0.45 0 0 0 0.42,-0.43 0.39,0.39 0 0 0 -0.13,-0.3 0.42,0.42 0 0 0 -0.29,-0.12 0.47,0.47 0 0 0 -0.31,0.12 0.17,0.17 0 0 1 -0.25,0 v 0 0 0 0 -0.06 l 0.1,-0.81 a 0.16,0.16 0 0 1 0.08,-0.12 v 0 a 0.11,0.11 0 0 1 0.08,0 h 0.92 a 0.17,0.17 0 0 1 0.18,0.17 0.18,0.18 0 0 1 -0.18,0.18 h -0.77 v 0.31 a 0.71,0.71 0 0 1 0.21,0 0.78,0.78 0 0 1 0.47,0.08 z"
       style="fill:#ffffff"
       id="path2581" />
    <circle
       cx="193.41"
       cy="176.12"
       r="15.1"
       style="fill:#c7c7c7"
       id="circle2583" />
    <path
       d="m 202,188.52 c -0.34,0.24 -0.71,0.47 -1.08,0.69 v 0 a 15.15,15.15 0 0 1 -4.41,1.68 v 0 c -0.1,-0.32 -0.21,-0.63 -0.3,-1 l -0.3,-0.94 -0.21,-0.73 c -0.07,-0.22 -0.12,-0.43 -0.18,-0.63 -0.06,-0.2 -0.11,-0.4 -0.15,-0.59 -0.04,-0.19 -0.09,-0.36 -0.13,-0.53 l -0.06,-0.32 c 0,-0.06 0,-0.12 0,-0.18 0,-0.06 -0.06,-0.33 -0.08,-0.48 -0.02,-0.15 0,-0.24 0,-0.34 v -0.29 c 0,-0.07 0,-0.14 0,-0.21 a 2.82,2.82 0 0 1 0.13,-1.18 0.8,0.8 0 0 1 0.48,-0.5 h 0.16 a 0.79,0.79 0 0 1 0.22,0 v 0 h 0.1 v 0 a 0.71,0.71 0 0 1 0.2,0 7.08,7.08 0 0 1 2.16,1.28 39.94,39.94 0 0 1 3.45,4.27 z"
       style="fill:#ffc727"
       id="path2585" />
    <path
       d="m 200.94,189.21 v 0 a 15.15,15.15 0 0 1 -4.41,1.68 c -0.21,-0.63 -0.4,-1.26 -0.6,-1.89 l -0.21,-0.73 c -0.07,-0.22 -0.12,-0.43 -0.18,-0.63 -0.06,-0.2 -0.11,-0.4 -0.15,-0.59 -0.04,-0.19 -0.09,-0.36 -0.13,-0.53 l -0.06,-0.32 v 0 -0.18 c 0,-0.17 -0.06,-0.33 -0.08,-0.48 -0.02,-0.15 0,-0.23 0,-0.34 a 3.66,3.66 0 0 1 0.09,-1.68 0.8,0.8 0 0 1 0.48,-0.5 0.93,0.93 0 0 1 0.38,0 v 0 h 0.1 v 0 l 0.16,0.2 0.1,0.13 4.42,5.66 z"
       style="opacity:0.1"
       id="path2587" />
    <path
       d="m 200.92,189.22 a 15.15,15.15 0 0 1 -4.41,1.68 v 0 a 15.17,15.17 0 0 1 -7.59,-0.36 l -0.19,-0.06 a 14.91,14.91 0 0 1 -3,-1.34 24.49,24.49 0 0 1 2.34,-4.26 7.49,7.49 0 0 1 1.52,-1.51 l 0.21,-0.16 0.19,-0.12 v 0 l 0.27,-0.17 v 0 h 0.07 c 0.16,-0.1 0.34,-0.19 0.51,-0.28 a 5.12,5.12 0 0 1 2.77,-0.52 4.65,4.65 0 0 1 2.39,0.88 v 0 l 0.29,0.22 0.09,0.08 v 0 a 28.44,28.44 0 0 1 4.42,5.71 z"
       style="fill:#ffc727"
       id="path2589" />
    <path
       d="m 190.13,187.21 c -0.45,1 -0.92,2.15 -1.4,3.27 a 14.91,14.91 0 0 1 -3,-1.34 14.51,14.51 0 0 1 -1.58,-1.06 c 0.89,-1 1.78,-1.94 2.64,-2.75 a 10.34,10.34 0 0 1 2.8,-2 2.79,2.79 0 0 1 0.5,-0.15 0.94,0.94 0 0 1 0.41,0 0.53,0.53 0 0 1 0.36,0.24 v 0 a 0.73,0.73 0 0 1 0.13,0.36 7.3,7.3 0 0 1 -0.86,3.43 z"
       style="fill:#eb9481"
       id="path2591" />
    <path
       d="m 191.19,184 a 8.47,8.47 0 0 1 -0.68,2.61 c -0.36,0.91 -0.92,2.3 -1.59,3.9 l -0.19,-0.06 a 14.91,14.91 0 0 1 -3,-1.34 14.51,14.51 0 0 1 -1.58,-1.06 l -0.43,-0.35 a 33.19,33.19 0 0 1 4.6,-3.84 7.35,7.35 0 0 1 1.31,-0.69 2.07,2.07 0 0 1 0.36,-0.11 v 0 a 1.11,1.11 0 0 1 0.7,0 0.38,0.38 0 0 1 0.15,0.09 c 0,0 0,0 0,0 a 1.07,1.07 0 0 1 0.35,0.85 z"
       style="fill:#ffc727"
       id="path2593" />
    <path
       d="m 190.92,183.62 c 0.16,0.47 2.56,3.2 4.68,2.49 1.49,-0.5 0.59,-3.52 0.59,-3.52 l 0.5,-4.45 -5.83,-2.87 c 0,0 -0.01,8.15 0.06,8.35 z"
       style="fill:#eb9481"
       id="path2595" />
    <path
       d="m 190.86,178.13 a 8.53,8.53 0 0 0 5.36,4.21 l 0.48,-4.2 -5.84,-2.87 z"
       style="fill:#263238"
       id="path2597" />
    <path
       d="m 194.29,178.6 c 1.89,2.87 6.42,3.26 9.24,1.69 A 15.23,15.23 0 0 1 201.35,175.72 20.84,20.84 0 0 1 201,171 c 0,-0.71 0,-1.42 -0.1,-2.13 a 7,7 0 0 0 -0.31,-2.08 c -0.7,-1.85 -3.6,-1.76 -4,-1.34 -2.47,2.87 -4.45,9.88 -2.3,13.15 z"
       style="fill:#263238"
       id="path2599" />
    <path
       d="m 195,176.58 a 6,6 0 0 0 2.88,4 6.63,6.63 0 0 0 5.34,0.39 c 0,0 0.06,0 0,0 a 6.31,6.31 0 0 1 -5.37,-0.15 5.68,5.68 0 0 1 -3,-4.21 c -0.01,-0.08 0.15,-0.1 0.15,-0.03 z"
       style="fill:#263238"
       id="path2601" />
    <path
       d="m 193.83,176 a 6.66,6.66 0 0 0 2.52,4.1 7.65,7.65 0 0 0 5.23,1.68 c 0,0 0.06,0.07 0,0.07 a 7.41,7.41 0 0 1 -5.45,-1.63 5.82,5.82 0 0 1 -2.43,-4.22 0.07,0.07 0 0 1 0.13,0 z"
       style="fill:#263238"
       id="path2603" />
    <path
       d="m 200.52,168.26 a 25.08,25.08 0 0 0 0.77,5.91 20.19,20.19 0 0 0 2.52,5.58 c 0,0 0,0.07 -0.05,0 a 18.21,18.21 0 0 1 -2.67,-5.41 15.72,15.72 0 0 1 -0.7,-6.13 0.07,0.07 0 0 1 0.13,0.05 z"
       style="fill:#263238"
       id="path2605" />
    <path
       d="m 201.76,171.49 c 1.16,7.25 -3,8.75 -4.62,9 -1.42,0.23 -6.29,0.81 -8.19,-6.28 -1.9,-7.09 1.11,-9.91 4.33,-10.59 3.22,-0.68 7.33,0.63 8.48,7.87 z"
       style="fill:#eb9481"
       id="path2607" />
    <path
       d="m 200.09,170.75 a 4.29,4.29 0 0 1 -0.5,-0.07 0.8,0.8 0 0 1 -0.5,-0.17 0.26,0.26 0 0 1 0,-0.32 0.67,0.67 0 0 1 0.63,-0.2 1,1 0 0 1 0.62,0.3 0.28,0.28 0 0 1 -0.25,0.46 z"
       style="fill:#263238"
       id="path2609" />
    <path
       d="m 194.91,171.21 a 4.5,4.5 0 0 0 0.49,-0.14 0.82,0.82 0 0 0 0.47,-0.24 0.27,0.27 0 0 0 0,-0.32 0.66,0.66 0 0 0 -0.65,-0.1 0.92,0.92 0 0 0 -0.58,0.38 0.28,0.28 0 0 0 0.27,0.42 z"
       style="fill:#263238"
       id="path2611" />
    <path
       d="m 196.11,172.75 c 0,0 0,0 0,0.05 0.07,0.49 0.06,1.08 -0.38,1.28 0,0 0,0 0,0 0.51,-0.08 0.52,-0.87 0.38,-1.33 z"
       style="fill:#263238"
       id="path2613" />
    <path
       d="m 195.61,172.27 c -0.81,0 -0.72,1.63 0,1.62 0.72,-0.01 0.68,-1.63 0,-1.62 z"
       style="fill:#263238"
       id="path2615" />
    <path
       d="m 195.3,172.37 c -0.14,0.1 -0.27,0.27 -0.44,0.3 -0.17,0.03 -0.35,-0.13 -0.49,-0.29 0,0 0,0 0,0 0,0.31 0.15,0.62 0.49,0.65 0.34,0.03 0.51,-0.26 0.57,-0.58 -0.02,-0.03 -0.08,-0.12 -0.13,-0.08 z"
       style="fill:#263238"
       id="path2617" />
    <path
       d="m 199.12,172.55 c 0,0 0,0 0,0 0,0.5 0.11,1.07 0.57,1.21 0,0 0,0 0,0 -0.52,0.03 -0.64,-0.76 -0.57,-1.21 z"
       style="fill:#263238"
       id="path2619" />
    <path
       d="m 199.55,172 c 0.8,-0.1 0.94,1.51 0.2,1.6 -0.74,0.09 -0.88,-1.51 -0.2,-1.6 z"
       style="fill:#263238"
       id="path2621" />
    <path
       d="m 199.89,172.08 c 0.14,0.08 0.28,0.22 0.43,0.22 0.15,0 0.29,-0.19 0.39,-0.37 0,0 0,0 0,0 0,0.31 0,0.64 -0.33,0.72 -0.33,0.08 -0.49,-0.17 -0.59,-0.47 0.01,-0.03 0.05,-0.13 0.1,-0.1 z"
       style="fill:#263238"
       id="path2623" />
    <path
       d="m 196.38,176.83 c 0.12,0.12 0.23,0.29 0.41,0.32 a 1.26,1.26 0 0 0 0.54,-0.09 c 0,0 0,0 0,0 a 0.69,0.69 0 0 1 -0.65,0.23 0.57,0.57 0 0 1 -0.37,-0.47 c 0,0 0.06,-0.01 0.07,0.01 z"
       style="fill:#263238"
       id="path2625" />
    <path
       d="m 198.49,175 c 0,0 0.1,0.75 0.1,1.1 0,0 -0.08,0.05 -0.2,0.06 v 0 a 1.7,1.7 0 0 1 -1.63,-0.64 0.025,0 90 0 0 0,-0.05 2.51,2.51 0 0 0 1.54,0.45 c 0,-0.1 -0.22,-1.28 -0.16,-1.28 a 3.24,3.24 0 0 1 0.8,0.18 c -0.16,-1.56 -0.57,-3.09 -0.71,-4.66 0,-0.05 0.08,-0.07 0.09,0 a 25.18,25.18 0 0 1 1,5 c 0.04,0.2 -0.69,-0.07 -0.83,-0.16 z"
       style="fill:#263238"
       id="path2627" />
    <path
       d="m 198.05,176 a 1.58,1.58 0 0 1 -0.65,0.55 0.69,0.69 0 0 1 -0.45,0 c -0.34,-0.07 -0.36,-0.37 -0.31,-0.64 a 1.89,1.89 0 0 1 0.13,-0.4 2.14,2.14 0 0 0 1.28,0.49 z"
       style="fill:#263238"
       id="path2629" />
    <path
       d="m 197.4,176.58 a 0.69,0.69 0 0 1 -0.45,0 c -0.34,-0.07 -0.36,-0.37 -0.31,-0.64 a 0.78,0.78 0 0 1 0.76,0.64 z"
       style="fill:#ff98b9"
       id="path2631" />
    <path
       d="m 185.34,171.55 a 10,10 0 0 1 -0.49,4 8.25,8.25 0 0 0 -0.76,3.3 c 0.15,2.07 2.21,3.31 4.07,4.06 a 9.37,9.37 0 0 0 5.87,-0.38 c 0.1,0 -8.3,-8.29 -2.32,-18.38 a 5.34,5.34 0 0 0 -3.88,1.39 6.56,6.56 0 0 0 -2.49,6.01 z"
       style="fill:#263238"
       id="path2633" />
    <path
       d="m 185,170.91 a 7,7 0 0 1 1.57,-4.1 c 0,0 0,0 0,0 a 7.61,7.61 0 0 0 -1.46,4.28 11.54,11.54 0 0 1 -0.46,3.89 7.09,7.09 0 0 0 -0.72,2.12 4.32,4.32 0 0 0 0.39,2.15 6,6 0 0 0 3.48,3 c 0,0 0,0.09 0,0.08 -2.72,-0.85 -4.78,-3.67 -3.69,-6.38 a 9.22,9.22 0 0 0 0.8,-2.55 c 0.09,-0.83 0.09,-1.67 0.09,-2.49 z"
       style="fill:#263238"
       id="path2635" />
    <path
       d="m 186.53,167.22 c 0,0 0,0 0,0 a 7.13,7.13 0 0 0 -1.26,4.8 14.09,14.09 0 0 1 0.13,2.43 7,7 0 0 1 -0.59,2.1 c -0.67,1.55 -1.47,3.36 0.19,4.67 a 9.16,9.16 0 0 0 5.31,1.61 0.04,0 -90 0 0 0,0.08 9.12,9.12 0 0 1 -5.23,-1.5 2.85,2.85 0 0 1 -1,-3.48 29.45,29.45 0 0 0 1.06,-2.75 9.52,9.52 0 0 0 0,-3.06 6.86,6.86 0 0 1 1.39,-4.9 z"
       style="fill:#263238"
       id="path2637" />
    <path
       d="m 185,171.5 a 5.86,5.86 0 0 1 1.54,-4.41 c -1.48,1.43 -1.44,3.57 -1.46,5.47 a 10.23,10.23 0 0 1 -0.31,2.81 18.51,18.51 0 0 0 -1,2.65 c -0.28,2 1.28,3.66 3.05,4.35 1.94,0.76 3.92,0.47 5.93,0.41 0,0 0.07,0.08 0,0.09 -2.8,0.4 -6.63,0.38 -8.43,-2.22 a 3.68,3.68 0 0 1 -0.42,-3.58 10.88,10.88 0 0 0 0.95,-2.78 26.48,26.48 0 0 0 0.15,-2.79 z"
       style="fill:#263238"
       id="path2639" />
    <path
       d="m 189.66,174.42 c 1.51,-0.18 1.21,-3.66 1.21,-3.66 0,0 2.51,-0.75 3.38,-2.6 a 5.81,5.81 0 0 1 -1.48,2.31 c -0.16,0.12 5,-1 5,-5 0,0 1.19,3.86 3.65,4.41 0.12,0 -0.73,-3.55 -1.59,-4.31 a 8.47,8.47 0 0 0 -7.24,-1.95 c -3.14,0.81 -4.87,4.4 -5,5.8 -0.11,2.75 1.35,5.09 2.07,5 z"
       style="fill:#263238"
       id="path2641" />
    <path
       d="m 192.94,170.54 a 5.3,5.3 0 0 0 4.82,-5.41 c 0,-0.08 0.11,-0.09 0.12,0 0.7,2.9 -2.24,5.4 -5,5.48 -0.02,-0.02 0,-0.06 0.06,-0.07 z"
       style="fill:#263238"
       id="path2643" />
    <path
       d="m 189.65,174.26 c 1.45,-0.95 1.53,-2.52 1.48,-4.11 0,0 0.07,-0.05 0.08,0 0.19,1.54 0.11,3.46 -1.49,4.25 a 0.07826238,0.07826238 0 0 1 -0.07,-0.14 z"
       style="fill:#263238"
       id="path2645" />
    <path
       d="m 197.78,164.86 c 0.52,1.59 0.89,4.32 3,4.51 a 0.045,0 -90 0 0 0,0.09 c -2.01,0 -3.04,-2.89 -3,-4.6 z"
       style="fill:#263238"
       id="path2647" />
    <path
       d="m 190.77,174 c 0,0 -1.65,-2.26 -2.68,-1.67 -1.03,0.59 0.24,3.89 1.47,4.32 a 1.24,1.24 0 0 0 1.65,-0.7 z"
       style="fill:#eb9481"
       id="path2649" />
    <path
       d="m 188.48,173.31 c 0,0 0,0 0,0 a 3.1,3.1 0 0 1 1.66,1.93 0.69,0.69 0 0 0 -1,-0.17 c 0,0 0,0.05 0,0.05 a 0.75,0.75 0 0 1 0.84,0.25 3.79,3.79 0 0 1 0.42,0.67 c 0,0.08 0.18,0 0.15,0 v 0 c -0.02,-1.13 -0.9,-2.64 -2.07,-2.73 z"
       style="fill:#263238"
       id="path2651" />
    <rect
       x="217.36"
       y="164.11"
       width="37.310001"
       height="1.1900001"
       style="fill:#c7c7c7"
       id="rect2653" />
    <rect
       x="217.36"
       y="173.97"
       width="64.510002"
       height="1.1900001"
       style="fill:#ebebeb"
       id="rect2655" />
    <rect
       x="217.36"
       y="178.21001"
       width="53.040001"
       height="1.1900001"
       style="fill:#ebebeb"
       id="rect2657" />
  </g>
  <g
     id="freepik--Character--inject-113"
     transform="translate(-50.686375,-39.13)">
    <path
       d="m 472.31,348.36 c -7.35,24.53 -44.39,21.1 -48.82,15.17 -17.93,-24 -39.94,-69.9 -53.49,-116.45 -11.57,-39.73 1.84,-35.43 16.65,-23.82 9.67,7.58 89.61,111.92 85.66,125.1 z"
       style="fill:#ffc727"
       id="path2660" />
    <path
       d="m 401,239.58 a 4.57,4.57 0 0 0 -4,2.75 4.63,4.63 0 0 0 -0.23,2.46 c 0.15,0.72 0.23,1.44 0.46,2.2 0.22,-0.76 0.3,-1.48 0.45,-2.2 a 4,4 0 0 1 0.61,-1.82 3.47,3.47 0 0 1 3,-1.59 3.82,3.82 0 0 0 1.06,-0.15 z m 28.92,78.26 a 16.55,16.55 0 0 0 -0.46,-2.19 c -0.19,0.68 -0.26,1.4 -0.45,2.19 a 4.38,4.38 0 0 1 -0.53,1.82 3.34,3.34 0 0 1 -2.88,1.67 4.63,4.63 0 0 0 -4.21,2.76 4.56,4.56 0 0 0 -0.22,2.47 c 0.15,0.72 0.22,1.43 0.45,2.19 0.23,-0.76 0.3,-1.47 0.46,-2.19 a 3.78,3.78 0 0 1 0.6,-1.82 3.43,3.43 0 0 1 3,-1.59 4.38,4.38 0 0 0 4.06,-2.92 3.78,3.78 0 0 0 0.17,-2.39 z m 30.14,30.42 a 3.78,3.78 0 0 1 -1.7,0.87 3.55,3.55 0 0 1 -3.26,-0.94 4.35,4.35 0 0 0 -4.92,-0.91 4.73,4.73 0 0 0 -1.82,1.63 19.17,19.17 0 0 0 -1.29,1.85 11.89,11.89 0 0 0 1.89,-1.25 3.67,3.67 0 0 1 1.71,-0.87 3.4,3.4 0 0 1 3.18,0.83 4.59,4.59 0 0 0 4.93,1 4.42,4.42 0 0 0 1.89,-1.56 19.29,19.29 0 0 0 1.25,-1.89 c -0.65,0.41 -1.26,0.86 -1.87,1.24 z m -45.93,-65.4 a 3.41,3.41 0 0 1 -1.78,-0.64 3.25,3.25 0 0 1 -1.55,-3 4.76,4.76 0 0 0 -2.92,-4.13 4.5,4.5 0 0 0 -2.42,-0.11 16.15,16.15 0 0 0 -2.24,0.45 c 0.76,0.16 1.48,0.27 2.24,0.38 a 4.4,4.4 0 0 1 1.81,0.61 3.4,3.4 0 0 1 1.67,2.84 4.5,4.5 0 0 0 2.77,4.17 4.23,4.23 0 0 0 2.42,0.3 c 0.76,-0.19 1.48,-0.3 2.2,-0.45 a 13.42,13.42 0 0 0 -2.21,-0.42 z"
       style="fill:#ffffff"
       id="path2662" />
    <path
       d="m 426,357.07 c -5.94,-15.52 5.26,-40.7 31,-101.36 3.56,-8.4 70.09,7.35 66.74,16.51 -4.22,11.53 -27.63,55.46 -32.41,61.58 C 468,363.79 430.05,367.6 426,357.07 Z"
       style="fill:#eb9481"
       id="path2664" />
    <path
       d="m 533.48,248.55 c -2.29,13.07 -17.43,38 -23.39,42.58 -5.96,4.58 -49.16,-19.72 -50.28,-27.37 -1.12,-7.65 10,-51.07 20.15,-60 10.15,-8.93 55.89,31.24 53.52,44.79 z"
       style="fill:#eb9481"
       id="path2666" />
    <path
       d="m 467.1,220.65 c 5.42,4.48 8.81,-0.2 8.81,-0.2 0,0 -6.68,11.9 -1.44,17.64 5.07,5.52 12.35,-2.91 12.88,-3.5 -0.35,0.63 -6.2,11.72 -0.34,16.95 6.09,5.43 11.95,-4.29 12.33,-4.91 -0.14,0.7 -1.85,10 3.5,12.94 9.21,5.09 14.22,-18.55 21.55,-22.88 0,0 8.76,11.58 9.09,11.86 0,0 5.23,-22.39 -1.16,-31.94 a 7.35,7.35 0 0 0 -8.74,-2.89 c 0,0 2.49,-7 -2,-11.29 -2.31,-2.18 -7.85,-0.43 -7.85,-0.43 0,0 1.75,-5.72 -2.47,-9.26 -3.36,-2.84 -8.4,-0.64 -8.4,-0.64 0,0 14.62,-26.74 8.05,-31.39 -11.32,-8 -39.38,51 -45.41,52 -2.98,0.51 -0.76,5.99 1.6,7.94 z"
       style="fill:#eb9481"
       id="path2668" />
    <path
       d="m 502,192.33 c 0.1,-0.08 0,-0.24 -0.11,-0.17 -11,6.43 -21.18,16.87 -26.38,28.62 -0.17,0.39 0.17,2.32 0.38,1.9 5.47,-10.49 15.65,-21.77 26.11,-30.35 z"
       style="fill:#263238"
       id="path2670" />
    <path
       d="m 513.82,201.81 c 0.11,-0.09 0,-0.28 -0.17,-0.2 -11.34,6.69 -22.45,18.76 -26.84,33 -0.15,0.49 0.2,1.08 0.42,0.53 3.64,-9.24 17.12,-25.65 26.59,-33.33 z"
       style="fill:#263238"
       id="path2672" />
    <path
       d="m 499.37,247.72 c 4.74,-13.49 13.33,-24.11 23.73,-33.75 0.13,-0.13 -0.06,-0.31 -0.2,-0.23 -6.37,3.33 -12.35,10.16 -16.56,15.87 a 37.78,37.78 0 0 0 -7.44,17.95 c -0.03,0.26 0.37,0.44 0.47,0.16 z"
       style="fill:#263238"
       id="path2674" />
    <path
       d="m 475.68,220.5 c -0.21,0.46 1.3,0.07 1.12,0.55 -2,5.11 -5.19,14.43 -1.4,17 3,2.06 7.92,-0.59 9.4,-2.34 l 3.71,-4.41 -1.95,5.43 a 23.61,23.61 0 0 0 -1.46,7.5 c 0,2.5 0.59,5 2.28,6.51 a 4.8,4.8 0 0 0 6,0.74 14.52,14.52 0 0 0 4.92,-5.4 l 3.39,-5.93 -1.26,6.68 a 22.24,22.24 0 0 0 -0.33,5.65 9.19,9.19 0 0 0 1.66,5 4.33,4.33 0 0 0 4.29,1.6 9.55,9.55 0 0 0 4.35,-3.16 75.11,75.11 0 0 0 6.63,-9.8 c 1.05,-1.71 2.1,-3.42 3.24,-5.08 a 14.27,14.27 0 0 1 4.1,-4.37 15.2,15.2 0 0 0 -3.63,4.67 c -1,1.72 -1.91,3.5 -2.82,5.27 a 65.06,65.06 0 0 1 -6.24,10.39 11.29,11.29 0 0 1 -5.09,3.95 6.15,6.15 0 0 1 -6.42,-2.12 11.12,11.12 0 0 1 -2.23,-6.15 23.71,23.71 0 0 1 0.28,-6.29 l 2.13,0.75 a 16.66,16.66 0 0 1 -5.75,6.44 7,7 0 0 1 -4.62,1 7.92,7.92 0 0 1 -4.17,-2.11 c -2.35,-2.2 -3,-5.46 -2.89,-8.24 a 25.62,25.62 0 0 1 1.72,-8.23 l 1.76,1 c -1.95,2.17 -7.08,5.73 -12.2,3.12 -6.2,-4.39 0.15,-17.33 1.48,-19.62 z"
       style="fill:#263238"
       id="path2676" />
    <path
       d="m 459.81,263.76 c 0,0 -13.19,-34.25 -8.8,-45.86 4.39,-11.61 31.4,-17.07 41.56,-17.49 14,-0.59 13,9.53 7,14.19 -6.94,5.4 -19.58,9.71 -20.46,10 0,0 15.88,14.52 13,29.92 -2.88,15.4 -32.3,9.24 -32.3,9.24 z"
       style="fill:#eb9481"
       id="path2678" />
    <path
       d="m 473,203.92 c 2.63,-0.89 5.31,-1.62 8,-2.27 a 73.38,73.38 0 0 1 8.21,-1.57 c 1.39,-0.19 2.79,-0.33 4.2,-0.39 a 17.93,17.93 0 0 1 4.31,0.25 10.71,10.71 0 0 1 4.14,1.69 6.79,6.79 0 0 1 2.73,3.79 7.45,7.45 0 0 1 -0.36,4.65 12.59,12.59 0 0 1 -2.46,3.74 20.57,20.57 0 0 1 -3.3,2.84 c -1.15,0.82 -2.32,1.6 -3.53,2.33 a 56.84,56.84 0 0 1 -15.56,6.51 l 0.34,-1.58 a 33.93,33.93 0 0 1 5.53,5.85 37.32,37.32 0 0 1 4.13,6.82 38,38 0 0 1 1.47,3.7 37.43,37.43 0 0 1 1,3.84 32,32 0 0 1 0.6,7.86 37.38,37.38 0 0 0 -1.24,-7.7 37,37 0 0 0 -2.9,-7.17 39.45,39.45 0 0 0 -4.28,-6.4 36.07,36.07 0 0 0 -5.39,-5.38 l -1.42,-1.12 1.76,-0.46 a 54.18,54.18 0 0 0 7.66,-2.72 60.09,60.09 0 0 0 7.26,-3.76 c 1.16,-0.71 2.31,-1.44 3.43,-2.22 a 19.1,19.1 0 0 0 3,-2.56 11,11 0 0 0 2.12,-3.14 5.62,5.62 0 0 0 0.37,-3.48 5,5 0 0 0 -2,-2.85 9.27,9.27 0 0 0 -3.46,-1.53 28.4,28.4 0 0 0 -8.05,-0.2 125.31,125.31 0 0 0 -16.31,2.63 z"
       style="fill:#263238"
       id="path2680" />
    <path
       d="m 515.68,308.65 -70.75,-29.13 c 0,0 -31.24,66.76 -23.39,81.23 3.52,6.47 12.1,13.26 25.39,13.28 27.36,0.02 68.75,-65.38 68.75,-65.38 z"
       style="fill:#ffc727"
       id="path2682" />
    <path
       d="m 460.05,348.26 a 3.78,3.78 0 0 1 -1.7,0.87 3.55,3.55 0 0 1 -3.26,-0.94 4.35,4.35 0 0 0 -4.92,-0.91 4.73,4.73 0 0 0 -1.82,1.63 19.17,19.17 0 0 0 -1.29,1.85 11.89,11.89 0 0 0 1.89,-1.25 3.67,3.67 0 0 1 1.71,-0.87 3.4,3.4 0 0 1 3.18,0.83 4.59,4.59 0 0 0 4.93,1 4.42,4.42 0 0 0 1.89,-1.56 19.29,19.29 0 0 0 1.25,-1.89 c -0.64,0.41 -1.25,0.86 -1.86,1.24 z M 464,294.89 a 3.86,3.86 0 0 1 -1.71,0.87 3.51,3.51 0 0 1 -3.25,-0.95 4.38,4.38 0 0 0 -4.93,-0.9 4.78,4.78 0 0 0 -1.82,1.62 20.51,20.51 0 0 0 -1.28,1.86 13.15,13.15 0 0 0 1.89,-1.25 3.69,3.69 0 0 1 1.7,-0.87 3.41,3.41 0 0 1 3.19,0.83 4.57,4.57 0 0 0 4.92,1 4.45,4.45 0 0 0 1.9,-1.56 c 0.41,-0.64 0.9,-1.21 1.25,-1.89 -0.67,0.41 -1.27,0.86 -1.86,1.24 z m -34.07,22.95 c -0.09,-0.5 -0.16,-1 -0.26,-1.41 v 0 a 6.69,6.69 0 0 0 -0.2,-0.77 c -0.19,0.68 -0.26,1.4 -0.45,2.19 a 6.07,6.07 0 0 1 -0.11,0.7 v 0 a 3.62,3.62 0 0 1 -0.32,0.91 v 0 c -0.38,1.08 -0.76,2.16 -1.12,3.24 a 4.3,4.3 0 0 0 2.29,-2.52 3.78,3.78 0 0 0 0.15,-2.34 z m 69.24,-6.55 a 17.8,17.8 0 0 0 -0.46,-2.2 c -0.19,0.72 -0.26,1.4 -0.45,2.2 a 4.38,4.38 0 0 1 -0.53,1.82 3.38,3.38 0 0 1 -2.88,1.66 4.64,4.64 0 0 0 -4.21,2.77 4.51,4.51 0 0 0 -0.22,2.42 14.81,14.81 0 0 0 0.45,2.24 c 0.23,-0.76 0.3,-1.48 0.46,-2.24 a 3.77,3.77 0 0 1 0.6,-1.78 3.39,3.39 0 0 1 3,-1.59 4.56,4.56 0 0 0 4.13,-2.88 5,5 0 0 0 0.09,-2.42 z"
       style="fill:#ffffff"
       id="path2684" />
    <path
       d="m 440.48,297.35 c 7.82,3.64 15.8,6.86 23.8,10.06 8,3.2 16,6.41 24.08,9.41 4.56,1.69 9.12,3.41 13.74,4.94 0.12,0 0.21,-0.15 0.09,-0.21 -7.8,-3.63 -15.78,-6.89 -23.75,-10.13 -7.97,-3.24 -16,-6.42 -24,-9.52 -4.55,-1.74 -9.12,-3.41 -13.74,-4.94 -0.27,-0.08 -0.45,0.28 -0.22,0.39 z"
       style="fill:#263238"
       id="path2686" />
    <path
       d="m 446.89,279.54 c -1.41,-0.53 -2.7,-1.22 -2.78,-1.05 -2.07,4.33 -3.89,9.21 -5.58,13.7 -1.69,4.49 -3.24,8.91 -4.74,13.4 -0.81,2.42 -1.57,4.85 -2.25,7.3 a 27.06,27.06 0 0 0 -4.27,9.24 c 0,0.16 0.25,0.24 0.3,0.08 a 33.58,33.58 0 0 1 3.7,-8.33 62.32,62.32 0 0 0 -2.46,18.4 c 0,0 0.06,0 0.06,0 -0.09,-9.29 3.7,-18.35 6.62,-27 1.46,-4.34 3,-8.64 4.59,-12.94 1.59,-4.3 3.33,-8.51 4.85,-12.81 0,0 1,0.46 1.71,0.71 0.15,0.04 0.36,-0.64 0.25,-0.7 z"
       style="fill:#263238"
       id="path2688" />
    <path
       d="M 480.46,353.59 C 469.25,365 457.12,374 446.93,374 c -12.93,0 -21.4,-6.44 -25.09,-12.74 -17.61,-24.53 -38.7,-69.07 -51.85,-114.21 -7.45,-25.59 -4.54,-32.92 2.44,-31.78 l 64.48,82.54 34.09,43.63 z"
       style="opacity:0.1"
       id="path2690" />
    <path
       d="M 425.56,391.59 414,320.06 c 0,0 11.72,-15.53 3.57,-37.27 C 411.78,267.33 387.7,228.58 374,217 c -20.24,-17 -41.71,-1.25 -49.65,9.52 -15.91,21.56 -45.77,87.13 -52.73,165.05 z"
       style="fill:#ffc727"
       id="path2692" />
    <path
       d="m 363.55,313 a 151,151 0 0 1 22.84,2.54 c 3.75,0.76 7.43,1.69 11.11,2.71 1.84,0.51 3.68,0.95 5.53,1.38 a 23.48,23.48 0 0 0 5.89,0.8 0.14,0.14 0 0 1 0,0.28 40.51,40.51 0 0 1 -5.62,0.21 39.71,39.71 0 0 1 -5.41,-0.73 c -3.8,-0.74 -7.56,-1.65 -11.36,-2.42 -7.65,-1.57 -15.3,-3.13 -23.05,-4.12 -0.34,-0.1 -0.29,-0.72 0.07,-0.65 z"
       style="fill:#263238"
       id="path2694" />
    <path
       d="m 345.12,320.94 a 163.3,163.3 0 0 1 18.84,-2 c 3.17,-0.14 6.31,-0.09 9.47,0 q 2.26,0.11 4.53,0.27 c 1.66,0.12 3.3,0.47 5,0.57 0.17,0 0.19,0.29 0,0.28 -1.56,0 -3.14,0.18 -4.71,0.23 l -4.72,0.14 c -3.16,0.1 -6.31,0.23 -9.46,0.3 -6.31,0.14 -12.6,0.34 -18.9,0.7 -0.37,0.06 -0.37,-0.43 -0.05,-0.49 z"
       style="fill:#263238"
       id="path2696" />
    <path
       d="m 354.16,355.06 a 3.65,3.65 0 0 1 -1.74,0.83 3.37,3.37 0 0 1 -3.18,-1 4.43,4.43 0 0 0 -5,-0.83 4.76,4.76 0 0 0 -1.86,1.59 c -0.42,0.61 -0.83,1.18 -1.25,1.86 a 15.06,15.06 0 0 0 1.89,-1.25 5.28,5.28 0 0 1 1.71,-0.91 3.44,3.44 0 0 1 3.22,0.87 4.53,4.53 0 0 0 4.89,1 4.48,4.48 0 0 0 1.93,-1.59 c 0.38,-0.6 0.83,-1.17 1.21,-1.85 a 17.81,17.81 0 0 0 -1.82,1.28 z m -54.7,-67.31 a 3.71,3.71 0 0 1 -1.66,0.87 3.43,3.43 0 0 1 -3.12,-0.89 l -0.64,1.8 a 4.44,4.44 0 0 0 6.11,-1.13 22.52,22.52 0 0 0 1.21,-1.9 c -0.68,0.42 -1.25,0.87 -1.9,1.25 z M 361.55,230 a 3.91,3.91 0 0 1 -1.7,0.83 3.29,3.29 0 0 1 -3.19,-1 4.47,4.47 0 0 0 -5,-0.83 4.23,4.23 0 0 0 -1.85,1.59 19.29,19.29 0 0 0 -1.25,1.89 c 0.68,-0.42 1.25,-0.87 1.89,-1.25 a 3.78,3.78 0 0 1 1.7,-0.91 3.4,3.4 0 0 1 3.22,0.8 4.4,4.4 0 0 0 4.89,1.06 4.67,4.67 0 0 0 1.93,-1.59 c 0.38,-0.61 0.84,-1.22 1.21,-1.9 -0.64,0.45 -1.21,0.9 -1.85,1.31 z m 5,41.63 c -0.15,-0.72 -0.26,-1.44 -0.41,-2.2 a 16.94,16.94 0 0 0 -0.46,2.2 4.3,4.3 0 0 1 -0.6,1.9 3.37,3.37 0 0 1 -2.85,1.66 4.4,4.4 0 0 0 -4.23,2.81 3.6,3.6 0 0 0 -0.23,2.42 c 0.11,0.76 0.23,1.48 0.38,2.2 a 13.41,13.41 0 0 0 0.45,-2.2 4.45,4.45 0 0 1 0.65,-1.78 3.25,3.25 0 0 1 3,-1.59 4.57,4.57 0 0 0 4.13,-2.92 5,5 0 0 0 0.13,-2.49 z m -70,55.39 a 20.15,20.15 0 0 0 -0.46,-2.19 c -0.19,0.72 -0.26,1.4 -0.45,2.19 a 4.38,4.38 0 0 1 -0.53,1.82 3.41,3.41 0 0 1 -2.88,1.67 4.62,4.62 0 0 0 -4.21,2.76 4.45,4.45 0 0 0 -0.22,2.43 14.45,14.45 0 0 0 0.45,2.23 21.47,21.47 0 0 0 0.45,-2.23 3.89,3.89 0 0 1 0.61,-1.78 3.37,3.37 0 0 1 3,-1.59 4.55,4.55 0 0 0 4.12,-2.88 4.89,4.89 0 0 0 0.06,-2.45 z m 117.65,57.4 a 20.15,20.15 0 0 0 -0.46,-2.19 c -0.19,0.72 -0.26,1.4 -0.45,2.19 a 4.38,4.38 0 0 1 -0.53,1.82 3.41,3.41 0 0 1 -2.88,1.67 4.63,4.63 0 0 0 -4.21,2.76 4.34,4.34 0 0 0 -0.24,0.91 h 1.38 a 1.74,1.74 0 0 1 0.15,-0.26 3.37,3.37 0 0 1 3,-1.59 4.55,4.55 0 0 0 4.12,-2.88 4.89,4.89 0 0 0 0.06,-2.42 z m -24,-76 a 4.83,4.83 0 0 1 -1.7,0.94 3.49,3.49 0 0 1 -3.22,-0.83 4.61,4.61 0 0 0 -4.89,-1.06 4.55,4.55 0 0 0 -1.93,1.59 c -0.38,0.61 -0.83,1.21 -1.25,1.89 0.68,-0.41 1.25,-0.87 1.89,-1.28 a 4.7,4.7 0 0 1 1.71,-0.84 3.57,3.57 0 0 1 3.22,1 4.54,4.54 0 0 0 5,0.87 4.89,4.89 0 0 0 1.86,-1.63 c 0.41,-0.64 0.83,-1.21 1.21,-1.89 -0.77,0.37 -1.34,0.82 -1.99,1.21 z M 341.25,317 a 4.24,4.24 0 0 1 -1.78,-0.56 3.4,3.4 0 0 1 -1.59,-3 4.51,4.51 0 0 0 -2.92,-4.13 3.88,3.88 0 0 0 -2.43,-0.19 c -0.75,0.19 -1.47,0.27 -2.23,0.46 0.76,0.22 1.48,0.3 2.23,0.45 a 4.57,4.57 0 0 1 1.86,0.53 3.43,3.43 0 0 1 1.67,2.88 4.58,4.58 0 0 0 2.76,4.21 4.45,4.45 0 0 0 2.43,0.22 22.58,22.58 0 0 0 2.23,-0.45 c -0.76,-0.13 -1.48,-0.21 -2.23,-0.42 z m -36.37,60 a 5.38,5.38 0 0 1 -1.86,-0.64 3.45,3.45 0 0 1 -1.55,-3 4.45,4.45 0 0 0 -2.92,-4.13 4.94,4.94 0 0 0 -2.42,-0.19 c -0.76,0.19 -1.48,0.27 -2.2,0.46 a 19.47,19.47 0 0 0 2.2,0.45 4.2,4.2 0 0 1 1.86,0.57 3.48,3.48 0 0 1 1.7,2.88 4.37,4.37 0 0 0 2.73,4.17 3.9,3.9 0 0 0 2.46,0.22 15.36,15.36 0 0 0 2.2,-0.45 c -0.76,-0.2 -1.48,-0.27 -2.2,-0.34 z M 318.4,254.48 a 3.41,3.41 0 0 1 -1.78,-0.64 3.25,3.25 0 0 1 -1.55,-3 4.76,4.76 0 0 0 -2.85,-4.1 c -0.23,0.43 -0.45,0.86 -0.67,1.3 a 3.41,3.41 0 0 1 1.66,2.84 4.5,4.5 0 0 0 2.77,4.17 4.24,4.24 0 0 0 2.42,0.3 c 0.76,-0.19 1.48,-0.3 2.2,-0.45 a 14.56,14.56 0 0 0 -2.2,-0.42 z m 95.72,28.38 a 3.41,3.41 0 0 1 -1.78,-0.64 3.25,3.25 0 0 1 -1.55,-3 4.76,4.76 0 0 0 -2.92,-4.13 4.5,4.5 0 0 0 -2.42,-0.11 16.15,16.15 0 0 0 -2.24,0.45 c 0.76,0.16 1.48,0.27 2.24,0.38 a 4.4,4.4 0 0 1 1.81,0.61 3.4,3.4 0 0 1 1.67,2.84 4.5,4.5 0 0 0 2.77,4.17 4.23,4.23 0 0 0 2.42,0.3 c 0.76,-0.19 1.48,-0.3 2.2,-0.45 a 13.42,13.42 0 0 0 -2.2,-0.42 z m -17.21,-37.21 a 11.61,11.61 0 0 0 0.3,1.34 c 0.06,-0.22 0.11,-0.43 0.16,-0.64 -0.15,-0.24 -0.3,-0.47 -0.46,-0.7 z m -1.11,111.94 a 4.85,4.85 0 0 1 -1.86,-0.64 3.33,3.33 0 0 1 -1.55,-3 4.51,4.51 0 0 0 -2.92,-4.13 4.86,4.86 0 0 0 -2.43,-0.18 c -0.3,0.07 -0.53,0.11 -0.79,0.15 v 0 a 3.6,3.6 0 0 1 -0.26,0.57 c 0.34,0.07 0.72,0.11 1.09,0.18 a 3.87,3.87 0 0 1 1.82,0.57 3.4,3.4 0 0 1 1.71,2.88 4.49,4.49 0 0 0 2.73,4.17 4.12,4.12 0 0 0 2.5,0.23 A 17.9,17.9 0 0 0 398,358 c -0.8,-0.18 -1.48,-0.29 -2.2,-0.41 z"
       style="fill:#ffffff"
       id="path2698" />
    <path
       d="m 316.58,229.28 c -43.33,41.17 -99,128.91 -89.75,147.36 10.3,20.56 70.65,-37.16 70.54,-40.65 -0.09,-2.64 22.23,-56.31 39.1,-95.33 16.87,-39.02 -9.18,-21.56 -19.89,-11.38 z"
       style="fill:#eb9481"
       id="path2700" />
    <path
       d="m 297.76,336.07 c 2,-5.76 32.26,-76.5 41,-98.9 7.83,-20.11 4.87,-27.75 -13,-16.52 C 299.34,237.28 230,312 217.34,348.42 c -12.15,35.09 17.15,38.94 41.75,23.38 20.15,-12.74 38.67,-35.73 38.67,-35.73 z"
       style="fill:#ffc727"
       id="path2702" />
    <path
       d="m 265.77,361.93 a 3.78,3.78 0 0 1 -1.7,0.87 3.55,3.55 0 0 1 -3.26,-0.94 4.35,4.35 0 0 0 -4.92,-0.91 4.81,4.81 0 0 0 -1.82,1.63 19.17,19.17 0 0 0 -1.29,1.85 11.89,11.89 0 0 0 1.89,-1.25 3.67,3.67 0 0 1 1.71,-0.87 3.42,3.42 0 0 1 3.18,0.83 4.57,4.57 0 0 0 4.92,1 4.39,4.39 0 0 0 1.9,-1.56 19.29,19.29 0 0 0 1.25,-1.89 c -0.63,0.41 -1.25,0.86 -1.86,1.24 z m 33.69,-74.18 a 3.71,3.71 0 0 1 -1.66,0.87 3.46,3.46 0 0 1 -3.22,-1 4.55,4.55 0 0 0 -5,-0.87 4,4 0 0 0 -1.81,1.63 c -0.42,0.6 -0.91,1.21 -1.29,1.85 a 22.1,22.1 0 0 0 1.92,-1.23 3.67,3.67 0 0 1 1.71,-0.87 3.29,3.29 0 0 1 3.22,0.8 4.44,4.44 0 0 0 6.82,-0.53 22.52,22.52 0 0 0 1.21,-1.9 c -0.68,0.42 -1.25,0.87 -1.9,1.25 z m -69.74,48.85 a 16.41,16.41 0 0 0 -0.45,-2.2 c -0.19,0.68 -0.27,1.4 -0.46,2.2 a 4.1,4.1 0 0 1 -0.53,1.82 3.32,3.32 0 0 1 -2.87,1.66 4.39,4.39 0 0 0 -4.44,5.23 c 0.15,0.72 0.23,1.44 0.46,2.2 0.23,-0.76 0.3,-1.48 0.45,-2.2 a 3.89,3.89 0 0 1 0.61,-1.82 3.45,3.45 0 0 1 3,-1.59 4.38,4.38 0 0 0 4.05,-2.92 3.68,3.68 0 0 0 0.18,-2.38 z m 66.77,-9.6 a 20.15,20.15 0 0 0 -0.46,-2.19 c -0.19,0.72 -0.26,1.4 -0.45,2.19 a 4.38,4.38 0 0 1 -0.53,1.82 3.41,3.41 0 0 1 -2.88,1.67 4.62,4.62 0 0 0 -4.21,2.76 4.45,4.45 0 0 0 -0.22,2.43 14.45,14.45 0 0 0 0.45,2.23 21.47,21.47 0 0 0 0.45,-2.23 3.89,3.89 0 0 1 0.61,-1.78 3.37,3.37 0 0 1 3,-1.59 4.55,4.55 0 0 0 4.12,-2.88 4.89,4.89 0 0 0 0.12,-2.43 z m -35.7,-11.75 a 4.11,4.11 0 0 1 -1.82,-0.57 3.72,3.72 0 0 1 -1.59,-3 4.41,4.41 0 0 0 -2.84,-4.09 4.14,4.14 0 0 0 -2.5,-0.19 14.81,14.81 0 0 0 -2.16,0.45 20.25,20.25 0 0 0 2.16,0.46 4.07,4.07 0 0 1 1.89,0.53 3.48,3.48 0 0 1 1.67,2.84 4.63,4.63 0 0 0 2.72,4.24 4.77,4.77 0 0 0 2.47,0.23 c 0.72,-0.15 1.47,-0.23 2.19,-0.45 -0.72,-0.15 -1.47,-0.23 -2.19,-0.42 z m 57.61,-60.8 a 3.41,3.41 0 0 1 -1.78,-0.64 3.25,3.25 0 0 1 -1.55,-3 4.76,4.76 0 0 0 -2.92,-4.13 4.5,4.5 0 0 0 -2.42,-0.11 16.15,16.15 0 0 0 -2.24,0.45 c 0.76,0.16 1.48,0.27 2.24,0.38 a 4.4,4.4 0 0 1 1.82,0.61 3.41,3.41 0 0 1 1.66,2.84 4.5,4.5 0 0 0 2.77,4.17 4.24,4.24 0 0 0 2.42,0.3 c 0.76,-0.19 1.48,-0.3 2.2,-0.45 a 14.56,14.56 0 0 0 -2.2,-0.39 z"
       style="fill:#ffffff"
       id="path2704" />
    <path
       d="m 293.89,345.21 q 3.62,-10.17 7.6,-20.21 c 2.62,-6.7 5.35,-13.35 8.1,-20 2.75,-6.65 5.6,-13.25 8.52,-19.83 2.92,-6.58 5.9,-13.12 9,-19.61 q -3.61,10.19 -7.59,20.21 c -2.62,6.7 -5.36,13.35 -8.11,20 -2.75,6.65 -5.6,13.25 -8.52,19.82 -2.92,6.57 -5.89,13.13 -9,19.62 z"
       style="fill:#263238"
       id="path2706" />
    <path
       d="m 321,281.09 a 31.53,31.53 0 0 1 2.89,-4.9 42.61,42.61 0 0 1 3.57,-4.42 14,14 0 0 1 -1.22,2.6 c -0.47,0.83 -1,1.62 -1.53,2.4 a 26.72,26.72 0 0 1 -3.71,4.32 z"
       style="fill:#263238"
       id="path2708" />
    <path
       d="m 226.22,375.77 c 9.33,13.59 35,16.37 99.08,29.46 8.86,1.81 38.46,-57.3 29.1,-59.72 -11.8,-3.05 -58.23,-12.32 -61.71,-12.57 -29.37,-2.1 -72.81,33.61 -66.47,42.83 z"
       style="fill:#eb9481"
       id="path2710" />
    <path
       d="m 381.7,358.23 c -3.64,-2.32 -2.44,-4.24 5.18,-5 7.62,-0.76 38.46,2.75 38.77,-8.11 0.31,-10.86 -43.25,-15.12 -55.85,-12.94 -12.6,2.18 -32.22,10.24 -32.22,10.24 8.31,2.58 27.88,10.58 44.12,15.81 z"
       style="fill:#eb9481"
       id="path2712" />
    <path
       d="m 325.7,405.29 c 23.67,6.3 52.75,15.58 79.37,8.15 a 13.63,13.63 0 0 0 7.49,-4.91 c 12,-3.11 14.12,-9.71 14.12,-9.71 10.28,-6.32 11.53,-13.36 11.53,-13.36 0,0 14,-3.81 13.14,-12.68 -1,-9.95 -20.5,-2.65 -33.68,-5.2 -30.22,-5.85 -71.55,-22.61 -80.09,-25.16 z"
       style="fill:#eb9481"
       id="path2714" />
    <path
       d="m 381.69,383.71 c 8.93,1.54 17.66,3.29 26.75,3.62 10,0.36 19.63,-1 29.49,-2.08 a 0.24,0.24 0 0 1 0.09,0.47 c -17.54,4.83 -39.1,3.9 -56.41,-1.61 -0.42,-0.11 -0.37,-0.48 0.08,-0.4 z"
       style="fill:#263238"
       id="path2716" />
    <path
       d="m 375.51,401.44 c 8.77,1 24.2,2.71 51.11,-2.91 0.09,0 0.15,0.13 0.05,0.16 -17,6 -33.7,6.7 -51.21,3.16 -0.54,-0.11 -0.53,-0.48 0.05,-0.41 z"
       style="fill:#263238"
       id="path2718" />
    <path
       d="m 372.37,411 c 15,1.17 24.57,0 40.12,-2.54 0.09,0 0.14,0.14 0,0.16 -17.37,4.75 -24.21,4.51 -40.28,2.89 -0.51,-0.03 -0.43,-0.51 0.16,-0.51 z"
       style="fill:#263238"
       id="path2720" />
    <path
       d="m 344,336.17 -56,76.47 c 0,0 -62.28,-21.07 -70,-38.08 -4.59,-10.07 40.92,-43.41 73.52,-42.13 z"
       style="fill:#ffc727"
       id="path2722" />
    <path
       d="m 265.77,361.93 a 3.78,3.78 0 0 1 -1.7,0.87 3.55,3.55 0 0 1 -3.26,-0.94 4.35,4.35 0 0 0 -4.92,-0.91 4.81,4.81 0 0 0 -1.82,1.63 19.17,19.17 0 0 0 -1.29,1.85 11.89,11.89 0 0 0 1.89,-1.25 3.67,3.67 0 0 1 1.71,-0.87 3.42,3.42 0 0 1 3.18,0.83 4.57,4.57 0 0 0 4.92,1 4.39,4.39 0 0 0 1.9,-1.56 19.29,19.29 0 0 0 1.25,-1.89 c -0.63,0.41 -1.25,0.86 -1.86,1.24 z m 6.57,40.55 c -0.19,-0.75 -0.3,-1.47 -0.45,-2.19 a 13.53,13.53 0 0 0 -0.46,2.19 4.05,4.05 0 0 1 -0.6,1.86 3.48,3.48 0 0 1 -1.4,1.32 l 1.8,0.72 a 4.11,4.11 0 0 0 0.92,-1.47 5,5 0 0 0 0.19,-2.43 z m 16.09,-70.07 a 3.34,3.34 0 0 0 -0.47,0.87 4.45,4.45 0 0 0 -0.22,2.43 14.45,14.45 0 0 0 0.45,2.23 21.47,21.47 0 0 0 0.45,-2.23 3.89,3.89 0 0 1 0.61,-1.78 3.39,3.39 0 0 1 2.12,-1.51 c -0.97,-0.03 -1.95,-0.03 -2.94,-0.01 z m -49.56,58.47 a 4.39,4.39 0 0 1 -1.78,-0.57 3.42,3.42 0 0 1 -1.6,-3 4.5,4.5 0 0 0 -2.91,-4.13 4,4 0 0 0 -2.43,-0.19 c -0.75,0.19 -1.47,0.27 -2.23,0.46 a 22.58,22.58 0 0 0 2.23,0.45 4.57,4.57 0 0 1 1.86,0.53 3.45,3.45 0 0 1 1.67,2.88 4.61,4.61 0 0 0 0.2,1.33 c 1.69,1 3.47,2.05 5.3,3.05 v 0 a 16.66,16.66 0 0 0 1.91,-0.4 c -0.75,-0.15 -1.47,-0.22 -2.22,-0.41 z m 66,-13.93 a 5.38,5.38 0 0 1 -1.86,-0.64 3.45,3.45 0 0 1 -1.55,-3 4.45,4.45 0 0 0 -2.92,-4.13 4.94,4.94 0 0 0 -2.42,-0.19 c -0.76,0.19 -1.48,0.27 -2.2,0.46 a 19.47,19.47 0 0 0 2.2,0.45 4.2,4.2 0 0 1 1.86,0.57 3.48,3.48 0 0 1 1.7,2.88 4.37,4.37 0 0 0 2.73,4.17 3.9,3.9 0 0 0 2.46,0.22 15.36,15.36 0 0 0 2.2,-0.45 c -0.75,-0.15 -1.47,-0.22 -2.19,-0.29 z"
       style="fill:#ffffff"
       id="path2724" />
    <path
       d="m 278,395.17 c 5.06,-7.76 10.53,-15.24 16,-22.7 5.47,-7.46 11,-15 16.66,-22.28 3.21,-4.15 6.4,-8.31 9.75,-12.34 0.09,-0.11 0.29,0 0.21,0.13 -5.05,7.75 -10.5,15.26 -15.93,22.75 -5.43,7.49 -11,15 -16.57,22.36 q -4.74,6.27 -9.75,12.34 c -0.12,0.19 -0.49,-0.03 -0.37,-0.26 z"
       style="fill:#263238"
       id="path2726" />
    <path
       d="m 340.71,341.36 c -0.18,0.15 -0.59,0.14 -0.53,-0.05 0.06,-0.19 2.88,-4.67 3,-4.92 0,0 -34.12,-3 -52.41,-2.81 -15,0.82 -33.23,7.63 -38,11.2 -0.13,0.1 -0.26,-0.12 -0.14,-0.22 8.41,-6.75 23.63,-11.61 35.44,-12.28 16.12,-0.91 53.7,2.36 57.23,3.15 0.44,0.1 -4.16,5.57 -4.59,5.93 z"
       style="fill:#263238"
       id="path2728" />
    <path
       d="m 346.11,216.61 a 5.55,5.55 0 1 1 -5.55,-5.54 5.55,5.55 0 0 1 5.55,5.54 z"
       style="fill:#ffc727"
       id="path2730" />
    <circle
       cx="340.84"
       cy="227.14"
       r="5.54"
       style="fill:#ffc727"
       id="circle2732" />
    <path
       d="m 350.32,236.9 a 5.55,5.55 0 1 1 -5.54,-5.55 5.54,5.54 0 0 1 5.54,5.55 z"
       style="fill:#ffc727"
       id="path2734" />
    <path
       d="m 356.4,245.88 a 5.55,5.55 0 1 1 -5.55,-5.55 5.54,5.54 0 0 1 5.55,5.55 z"
       style="fill:#ffc727"
       id="path2736" />
    <path
       d="m 362.66,254.69 a 5.55,5.55 0 1 1 -5.54,-5.55 5.54,5.54 0 0 1 5.54,5.55 z"
       style="fill:#ffc727"
       id="path2738" />
    <path
       d="m 370.48,262.17 a 5.55,5.55 0 1 1 -5.55,-5.54 5.55,5.55 0 0 1 5.55,5.54 z"
       style="fill:#ffc727"
       id="path2740" />
    <circle
       cx="375.25"
       cy="265.57001"
       r="5.54"
       style="fill:#ffc727"
       id="circle2742" />
    <circle
       cx="382.39001"
       cy="258.48999"
       r="5.54"
       style="fill:#ffc727"
       id="circle2744" />
    <path
       d="m 387.67,247.78 a 5.55,5.55 0 1 1 -5.54,-5.55 5.54,5.54 0 0 1 5.54,5.55 z"
       style="fill:#ffc727"
       id="path2746" />
    <path
       d="m 387.09,236.9 a 5.54,5.54 0 1 1 -5.54,-5.55 5.54,5.54 0 0 1 5.54,5.55 z"
       style="fill:#ffc727"
       id="path2748" />
    <path
       d="m 384.55,226.24 a 5.55,5.55 0 1 1 -5.54,-5.55 5.54,5.54 0 0 1 5.54,5.55 z"
       style="fill:#ffc727"
       id="path2750" />
    <circle
       cx="373.09"
       cy="216.86"
       r="5.54"
       style="fill:#ffc727"
       id="circle2752" />
    <g
       style="opacity:0.3"
       id="g2778">
      <path
         d="m 346.11,216.61 a 5.55,5.55 0 1 1 -5.55,-5.54 5.55,5.55 0 0 1 5.55,5.54 z"
         style="fill:#ffffff"
         id="path2754" />
      <circle
         cx="340.84"
         cy="227.14"
         r="5.54"
         style="fill:#ffffff"
         id="circle2756" />
      <path
         d="m 350.32,236.9 a 5.55,5.55 0 1 1 -5.54,-5.55 5.54,5.54 0 0 1 5.54,5.55 z"
         style="fill:#ffffff"
         id="path2758" />
      <path
         d="m 356.4,245.88 a 5.55,5.55 0 1 1 -5.55,-5.55 5.54,5.54 0 0 1 5.55,5.55 z"
         style="fill:#ffffff"
         id="path2760" />
      <path
         d="m 362.66,254.69 a 5.55,5.55 0 1 1 -5.54,-5.55 5.54,5.54 0 0 1 5.54,5.55 z"
         style="fill:#ffffff"
         id="path2762" />
      <path
         d="m 370.48,262.17 a 5.55,5.55 0 1 1 -5.55,-5.54 5.55,5.55 0 0 1 5.55,5.54 z"
         style="fill:#ffffff"
         id="path2764" />
      <circle
         cx="375.25"
         cy="265.57001"
         r="5.54"
         style="fill:#ffffff"
         id="circle2766" />
      <circle
         cx="382.39001"
         cy="258.48999"
         r="5.54"
         style="fill:#ffffff"
         id="circle2768" />
      <path
         d="m 387.67,247.78 a 5.55,5.55 0 1 1 -5.54,-5.55 5.54,5.54 0 0 1 5.54,5.55 z"
         style="fill:#ffffff"
         id="path2770" />
      <path
         d="m 387.09,236.9 a 5.54,5.54 0 1 1 -5.54,-5.55 5.54,5.54 0 0 1 5.54,5.55 z"
         style="fill:#ffffff"
         id="path2772" />
      <path
         d="m 384.55,226.24 a 5.55,5.55 0 1 1 -5.54,-5.55 5.54,5.54 0 0 1 5.54,5.55 z"
         style="fill:#ffffff"
         id="path2774" />
      <circle
         cx="373.09"
         cy="216.86"
         r="5.54"
         style="fill:#ffffff"
         id="circle2776" />
    </g>
    <path
       d="m 354.89,210.12 c -10,0.2 -15.68,5.06 -14.05,12.62 3.2,14.81 21.22,42.08 35.17,42.08 11.3,0 4.72,-39.58 -2,-47.52 -6.72,-7.94 -14.01,-7.3 -19.12,-7.18 z"
       style="fill:#eb9481"
       id="path2780" />
    <path
       d="m 341.21,219 c 1,2.83 15.45,19.29 28.21,15 9,-3 3.56,-21.2 3.56,-21.2 L 376,186 340.84,168.7 c 0,0 -0.03,49.09 0.37,50.3 z"
       style="fill:#eb9481"
       id="path2782" />
    <path
       d="m 340.85,185.94 a 51.52,51.52 0 0 0 32.3,25.37 L 376,186 340.82,168.7 c 0,0 0.02,7.79 0.03,17.24 z"
       style="fill:#263238"
       id="path2784" />
    <path
       d="m 361.54,188.76 c 11.37,17.3 38.68,19.64 55.66,10.18 0.42,-0.23 -8.27,-9.83 -13.12,-27.51 -2.53,-9.23 -1.9,-19 -2.27,-28.58 -0.16,-4.29 -0.31,-8.58 -0.57,-12.87 -0.24,-4.08 -0.39,-8.6 -1.88,-12.52 -4.23,-11.12 -21.66,-10.6 -23.85,-8.07 -15.02,17.44 -26.93,59.66 -13.97,79.37 z"
       style="fill:#263238"
       id="path2786" />
    <path
       d="m 365.59,176.6 a 35.77,35.77 0 0 0 17.29,23.85 c 9.52,5.34 22,6 32.23,2.32 0.18,-0.07 0.31,0.2 0.13,0.27 -10.61,4.23 -22,4.5 -32.35,-0.91 -9.53,-5 -16.72,-14.61 -18,-25.39 a 0.37,0.37 0 0 1 0.7,-0.14 z"
       style="fill:#263238"
       id="path2788" />
    <path
       d="m 358.76,172.94 c 2.15,10 6.89,18.42 15.2,24.65 8.31,6.23 21,11.89 31.5,10.15 a 0.2236068,0.2236068 0 0 1 0.08,0.44 c -11.15,2.12 -24.05,-3.16 -32.82,-9.83 -7.78,-5.92 -14.47,-15.28 -14.75,-25.37 0.03,-0.46 0.7,-0.47 0.79,-0.04 z"
       style="fill:#263238"
       id="path2790" />
    <path
       d="m 399.06,126.44 c 0.55,12.14 1.28,23.87 4.62,35.64 a 122.57,122.57 0 0 0 15.19,33.58 c 0.13,0.2 -0.15,0.46 -0.3,0.25 a 109.17,109.17 0 0 1 -16.05,-32.56 c -3.45,-11.67 -5.69,-24.79 -4.22,-37 a 0.3826552,0.3826552 0 0 1 0.76,0.09 z"
       style="fill:#263238"
       id="path2792" />
    <path
       d="m 406.56,145.93 c 7,43.65 -18.43,52.74 -27.86,54.23 -8.56,1.35 -37.88,4.86 -49.33,-37.84 -11.45,-42.7 6.63,-59.72 26.08,-63.84 19.45,-4.12 44.13,3.81 51.11,47.45 z"
       style="fill:#eb9481"
       id="path2794" />
    <path
       d="m 396.48,141.45 a 28.1,28.1 0 0 1 -3,-0.41 5,5 0 0 1 -3,-1 1.58,1.58 0 0 1 -0.13,-1.92 c 0.89,-1.2 2.37,-1.34 3.79,-1.19 a 5.74,5.74 0 0 1 3.75,1.77 1.68,1.68 0 0 1 -1.41,2.75 z"
       style="fill:#263238"
       id="path2796" />
    <path
       d="m 365.26,144.23 a 27.58,27.58 0 0 0 2.95,-0.85 4.93,4.93 0 0 0 2.84,-1.43 1.58,1.58 0 0 0 -0.14,-1.93 c -1.06,-1.05 -2.55,-1 -3.92,-0.63 a 5.74,5.74 0 0 0 -3.46,2.29 1.68,1.68 0 0 0 1.73,2.55 z"
       style="fill:#263238"
       id="path2798" />
    <path
       d="m 372.48,153.51 c 0,-0.12 -0.22,0.16 -0.21,0.28 0.39,3 0.32,6.5 -2.31,7.76 -0.08,0 -0.06,0.19 0,0.17 3.33,-0.79 3.36,-5.43 2.52,-8.21 z"
       style="fill:#263238"
       id="path2800" />
    <path
       d="m 369.48,150.62 c -4.88,0.1 -4.32,9.84 0.2,9.75 4.52,-0.09 3.9,-9.83 -0.2,-9.75 z"
       style="fill:#263238"
       id="path2802" />
    <path
       d="m 367.6,151.24 c -0.82,0.6 -1.6,1.62 -2.63,1.78 -1.18,0.19 -2.13,-0.78 -3,-1.72 -0.08,-0.1 -0.16,0 -0.16,0.12 0.08,1.87 0.91,3.75 2.93,3.91 1.84,0.15 3.06,-1.58 3.42,-3.48 0.1,-0.35 -0.23,-0.85 -0.56,-0.61 z"
       style="fill:#263238"
       id="path2804" />
    <path
       d="m 390.65,152.33 c 0,-0.12 0.24,0.13 0.24,0.25 0.06,3 0.63,6.48 3.41,7.35 0.09,0 0.09,0.18 0,0.17 -3.38,-0.31 -4.09,-4.9 -3.65,-7.77 z"
       style="fill:#263238"
       id="path2806" />
    <path
       d="m 393.19,149 c 4.85,-0.6 5.71,9.11 1.22,9.68 -4.49,0.57 -5.28,-9.13 -1.22,-9.68 z"
       style="fill:#263238"
       id="path2808" />
    <path
       d="m 395.28,149.5 c 0.81,0.45 1.66,1.32 2.58,1.3 0.92,-0.02 1.77,-1.15 2.36,-2.21 0.06,-0.11 0.14,0 0.16,0.09 0.22,1.85 -0.23,3.84 -2,4.35 -1.77,0.51 -2.95,-1 -3.55,-2.83 -0.1,-0.33 0.17,-0.88 0.45,-0.7 z"
       style="fill:#263238"
       id="path2810" />
    <path
       d="m 374.13,178.09 c 0.68,0.75 1.34,1.77 2.43,1.93 a 8,8 0 0 0 3.3,-0.55 c 0.1,0 0.19,0.08 0.12,0.16 A 4.09,4.09 0 0 1 376,181 3.25,3.25 0 0 1 373.79,178.18 C 373.8,178 374,178 374.13,178.09 Z"
       style="fill:#263238"
       id="path2812" />
    <path
       d="m 386.85,167.24 c 0,0 0.6,4.52 0.59,6.65 0,0.2 -0.52,0.29 -1.24,0.33 0,0 -0.06,0 -0.09,0 a 10.14,10.14 0 0 1 -9.83,-3.84 c -0.14,-0.21 0.13,-0.42 0.32,-0.29 2.8,2.08 5.91,2.63 9.25,2.7 0.15,-0.59 -1.29,-7.7 -1,-7.72 1.16,-0.1 3.46,0.71 4.84,1.12 -1,-9.45 -3.47,-18.66 -4.3,-28.08 A 0.30991934,0.30991934 0 0 1 386,138 c 3.29,9.47 4.66,20.31 5.92,30 0.16,1.24 -4.22,-0.39 -5.07,-0.76 z"
       style="fill:#263238"
       id="path2814" />
    <path
       d="m 384.19,173.27 a 10.1,10.1 0 0 1 -3.9,3.33 4.6,4.6 0 0 1 -2.76,0.31 c -2,-0.43 -2.16,-2.27 -1.87,-3.85 a 10.58,10.58 0 0 1 0.78,-2.45 13.15,13.15 0 0 0 7.75,2.66 z"
       style="fill:#263238"
       id="path2816" />
    <path
       d="m 380.29,176.6 a 4.6,4.6 0 0 1 -2.76,0.31 c -2,-0.43 -2.16,-2.27 -1.87,-3.85 2.15,0.11 4.34,1.47 4.63,3.54 z"
       style="fill:#ff98b9"
       id="path2818" />
    <path
       d="m 307.57,146.25 a 60.74,60.74 0 0 1 -2.95,24.15 c -2.18,6.45 -5.07,12.89 -4.57,19.87 0.92,12.48 13.36,19.94 24.53,24.44 7.47,3 23.47,2.57 35.37,-2.27 0.58,-0.24 -50,-50 -13.94,-110.77 0.16,-0.28 -10.95,-1.42 -23.43,8.41 -11.99,9.45 -16.03,22.11 -15.01,36.17 z"
       style="fill:#263238"
       id="path2820" />
    <path
       d="m 305.75,142.42 a 42,42 0 0 1 9.42,-24.67 c 0.05,-0.07 0.17,0 0.12,0.09 a 45.85,45.85 0 0 0 -8.77,25.82 c -0.34,7.91 0.24,15.93 -2.8,23.4 -1.73,4.26 -4,8.13 -4.34,12.8 a 26.29,26.29 0 0 0 2.36,12.93 c 4,8.84 12,14.39 21,17.92 0.28,0.11 0.19,0.55 -0.12,0.45 -16.36,-5.08 -28.78,-22.13 -22.23,-38.45 2.07,-5.16 4.28,-9.72 4.84,-15.34 0.46,-4.96 0.23,-9.98 0.52,-14.95 z"
       style="fill:#263238"
       id="path2822" />
    <path
       d="m 314.78,120.2 c 0.06,-0.07 0.2,0 0.14,0.08 a 42.5,42.5 0 0 0 -7.61,28.87 c 0.43,4.88 1.2,9.75 0.75,14.64 a 40.75,40.75 0 0 1 -3.54,12.7 c -4,9.3 -8.85,20.25 1.15,28.1 8.74,6.85 21.11,9.4 32,9.7 a 0.24,0.24 0 0 1 0,0.48 c -10.73,0.1 -22.68,-2.7 -31.51,-9 -7.34,-5.26 -8.5,-13 -5.84,-21 1.89,-5.63 5.06,-10.76 6.38,-16.6 1.39,-6.17 0.58,-12.18 0,-18.4 -1,-10.77 1.49,-20.85 8.08,-29.57 z"
       style="fill:#263238"
       id="path2824" />
    <path
       d="m 305.76,146 c 0.23,-9.6 1.74,-19.79 9.27,-26.54 0.09,-0.09 0.24,0 0.14,0.14 -8.88,8.62 -8.64,21.52 -8.77,33 -0.06,5.67 -0.26,11.44 -1.89,16.9 -1.63,5.46 -5.3,10.27 -6.09,16 -1.64,12 7.71,22.06 18.39,26.21 11.69,4.56 23.62,2.82 35.76,2.47 0.29,0 0.38,0.47 0.07,0.51 -16.86,2.42 -39.93,2.32 -50.75,-13.34 a 22.31,22.31 0 0 1 -2.57,-21.61 c 2.33,-5.61 5,-10.6 5.76,-16.72 0.74,-5.67 0.54,-11.37 0.68,-17.02 z"
       style="fill:#263238"
       id="path2826" />
    <path
       d="m 333.61,163.78 c 9.13,-1.08 7.29,-22 7.29,-22 0,0 15.1,-4.58 20.4,-15.78 0,0 -3.3,9.54 -8.95,13.93 -1,0.74 30.08,-5.8 30.46,-30.14 0,0 7.16,23.22 22,26.54 0.71,0.15 -4.42,-21.38 -9.57,-25.95 a 45.62,45.62 0 0 0 -9.81,-6.76 45.19,45.19 0 0 0 -33.82,-5 c -19,4.87 -29.39,26.47 -30,34.93 -1.09,16.68 7.67,30.75 12,30.23 z"
       style="fill:#263238"
       id="path2828" />
    <path
       d="m 353.41,140.36 c 17,-2.58 29.46,-15 29,-32.59 a 0.39,0.39 0 0 1 0.76,-0.08 c 4.22,17.47 -13.55,32.52 -29.9,33 -0.38,0 -0.27,-0.27 0.14,-0.33 z"
       style="fill:#263238"
       id="path2830" />
    <path
       d="m 333.55,162.81 c 8.76,-5.75 9.22,-15.22 8.91,-24.75 0,-0.28 0.46,-0.34 0.5,-0.06 1.14,9.26 0.67,20.81 -9,25.55 a 0.43,0.43 0 0 1 -0.41,-0.74 z"
       style="fill:#263238"
       id="path2832" />
    <path
       d="m 382.57,106.18 a 0.09,0.09 0 0 1 0.18,0 c 3.14,9.57 5.34,26.05 18.15,27.18 a 0.27,0.27 0 0 1 0,0.53 c -12.41,-0.01 -18.56,-17.44 -18.33,-27.71 z"
       style="fill:#263238"
       id="path2834" />
    <path
       d="m 340.3,161.29 c 0,0 -9.92,-13.62 -16.12,-10.07 -6.2,3.55 1.43,23.42 8.84,26 a 7.48,7.48 0 0 0 10,-4.19 z"
       style="fill:#eb9481"
       id="path2836" />
    <path
       d="m 326.51,156.86 c -0.12,0 -0.14,0.16 0,0.2 5.2,2 8,6.72 10,11.64 -1.57,-1.88 -3.68,-2.88 -6.2,-1 -0.13,0.1 0,0.31 0.14,0.28 a 4.62,4.62 0 0 1 5.1,1.51 22.4,22.4 0 0 1 2.5,4.05 c 0.25,0.46 1.08,0.19 0.9,-0.33 l -0.05,-0.12 c -0.03,-6.59 -5.31,-15.69 -12.39,-16.23 z"
       style="fill:#263238"
       id="path2838" />
  </g>
  <g
     id="freepik--Books--inject-113"
     transform="translate(-50.686375,-39.13)">
    <rect
       x="557.63"
       y="430.92999"
       width="141.02"
       height="17.799999"
       style="fill:#37474f"
       id="rect2841" />
    <rect
       x="585.28998"
       y="430.92999"
       width="5.75"
       height="17.799999"
       style="fill:#455a64"
       id="rect2843" />
    <rect
       x="668.27002"
       y="430.92999"
       width="13.78"
       height="17.799999"
       style="fill:#455a64"
       id="rect2845" />
    <rect
       x="548.88"
       y="384.75"
       width="144.03"
       height="20.620001"
       style="fill:#455a64"
       id="rect2847" />
    <rect
       x="632.84003"
       y="390.92999"
       width="34.59"
       height="8.2600002"
       style="fill:#ffc727"
       id="rect2849" />
    <path
       d="m 680.22,395.06 a 4.13,4.13 0 1 1 -4.13,-4.13 4.13,4.13 0 0 1 4.13,4.13 z"
       style="fill:#ffc727"
       id="path2851" />
    <rect
       x="628.15002"
       y="363.98999"
       width="72.760002"
       height="20.76"
       transform="rotate(180,664.535,374.37)"
       style="fill:#263238"
       id="rect2853" />
    <rect
       x="560.89001"
       y="363.98999"
       width="67.260002"
       height="20.76"
       transform="rotate(180,594.52,374.37)"
       style="fill:#263238"
       id="rect2855" />
    <rect
       x="628.15002"
       y="366.14001"
       width="72.760002"
       height="16.459999"
       transform="rotate(180,664.535,374.37)"
       style="fill:#ffffff"
       id="rect2857" />
    <path
       d="m 698.62,379.21 q -12.12,0.18 -24.26,0.24 l -11,0.08 -24.26,-0.08 c -8.09,0 -2.89,-0.12 -11,-0.24 8.09,-0.11 2.89,-0.2 11,-0.24 l 24.26,-0.07 11,0.07 q 12.14,0.03 24.26,0.24 z"
       style="fill:#dbdbdb"
       id="path2859" />
    <path
       d="m 698.62,376 q -12.12,0.18 -24.26,0.24 l -11,0.08 -24.26,-0.07 c -8.09,-0.05 -2.89,-0.13 -11,-0.25 8.09,-0.11 2.89,-0.19 11,-0.24 l 24.26,-0.07 11,0.07 q 12.14,0.06 24.26,0.24 z"
       style="fill:#dbdbdb"
       id="path2861" />
    <path
       d="m 698.62,372.76 q -12.12,0.17 -24.26,0.24 l -11,0.07 -24.23,-0.07 c -8.09,-0.05 -2.89,-0.13 -11,-0.24 8.09,-0.12 2.89,-0.2 11,-0.24 l 24.26,-0.08 11,0.08 q 12.11,0.06 24.23,0.24 z"
       style="fill:#dbdbdb"
       id="path2863" />
    <path
       d="m 698.62,369.53 q -12.12,0.17 -24.26,0.24 l -11,0.07 -24.26,-0.07 c -8.09,0 -2.89,-0.13 -11,-0.24 8.09,-0.12 2.89,-0.2 11,-0.24 l 24.26,-0.07 11,0.07 q 12.14,0.06 24.26,0.24 z"
       style="fill:#dbdbdb"
       id="path2865" />
    <rect
       x="603.78003"
       y="363.98999"
       width="9.4700003"
       height="20.76"
       transform="rotate(180,608.515,374.37)"
       style="fill:#ffc727"
       id="rect2867" />
    <rect
       x="564.37"
       y="363.98999"
       width="6.3600001"
       height="20.76"
       transform="rotate(180,567.555,374.37)"
       style="fill:#ffc727"
       id="rect2869" />
    <rect
       x="564.47998"
       y="405.35999"
       width="81.949997"
       height="25.58"
       style="fill:#ffc727"
       id="rect2871" />
    <rect
       x="646.41998"
       y="405.35999"
       width="62.220001"
       height="25.58"
       style="fill:#ffc727"
       id="rect2873" />
    <rect
       x="564.47998"
       y="408.01001"
       width="81.949997"
       height="20.27"
       style="fill:#ffffff"
       id="rect2875" />
    <path
       d="m 569.78,412.18 q 9.59,-0.15 19.16,-0.21 l 19.16,-0.07 19.16,0.07 q 9.59,0 19.16,0.21 -9.57,0.17 -19.16,0.22 l -19.16,0.06 -19.16,-0.06 q -9.59,-0.06 -19.16,-0.22 z"
       style="fill:#dbdbdb"
       id="path2877" />
    <path
       d="m 569.78,416.16 q 9.59,-0.17 19.16,-0.22 l 19.16,-0.06 19.16,0.06 q 9.59,0.06 19.16,0.22 -9.57,0.15 -19.16,0.21 l -19.16,0.07 -19.16,-0.07 q -9.59,-0.06 -19.16,-0.21 z"
       style="fill:#dbdbdb"
       id="path2879" />
    <path
       d="m 569.78,420.13 q 9.59,-0.15 19.16,-0.21 l 19.16,-0.07 19.16,0.07 q 9.59,0.06 19.16,0.21 -9.57,0.17 -19.16,0.22 l -19.16,0.06 -19.16,-0.06 q -9.59,-0.06 -19.16,-0.22 z"
       style="fill:#dbdbdb"
       id="path2881" />
    <path
       d="m 569.78,424.11 q 9.59,-0.15 19.16,-0.22 l 19.16,-0.06 19.16,0.06 q 9.59,0.06 19.16,0.22 -9.57,0.15 -19.16,0.22 l -19.16,0.06 -19.16,-0.07 q -9.59,-0.04 -19.16,-0.21 z"
       style="fill:#dbdbdb"
       id="path2883" />
    <rect
       x="687.09003"
       y="405.35999"
       width="11.65"
       height="25.58"
       transform="rotate(180,692.915,418.145)"
       style="fill:#455a64"
       id="rect2885" />
  </g>
  <g
     id="freepik--speech-bubble--inject-113"
     transform="translate(-50.686375,-39.13)">
    <polygon
       points="308.74,110.82 308.74,123.82 295.74,110.82 224.39,110.82 224.39,57.22 316.26,57.22 316.26,110.82 "
       style="fill:#ffffff"
       id="polygon2888" />
    <path
       d="M 316.26,57.22 316.42,84 q 0.1,13.4 0.12,26.86 v 0.28 h -0.28 -7.52 l 0.29,-0.3 v 13 0.78 l -0.55,-0.55 -13,-13 0.26,0.1 -35.68,0.08 c -11.89,0 -23.78,0.09 -35.67,0 h -0.48 v -0.48 l 0.12,-53.6 v -0.36 h 0.36 l 46,0.12 z m 0,0 -46,0.25 -45.83,0.12 0.36,-0.37 0.12,53.6 -0.48,-0.48 c 11.89,0 23.78,0 35.67,0 l 35.68,0.08 h 0.15 l 0.1,0.1 13,13 -0.56,0.23 v -13 -0.3 h 0.3 7.52 l -0.28,0.28 q 0,-13.35 0.12,-26.73 z"
       style="fill:#263238"
       id="path2890" />
    <path
       d="M 253,84 A 4.36,4.36 0 1 1 248.65,79.65 4.35,4.35 0 0 1 253,84 Z"
       style="fill:#263238"
       id="path2892" />
    <path
       d="m 274.68,84 a 4.36,4.36 0 1 1 -4.35,-4.35 4.35,4.35 0 0 1 4.35,4.35 z"
       style="fill:#263238"
       id="path2894" />
    <path
       d="M 296.4,84 A 4.35,4.35 0 1 1 292.05,79.65 4.35,4.35 0 0 1 296.4,84 Z"
       style="fill:#263238"
       id="path2896" />
  </g>
  <g
     id="freepik--Lightbulb--inject-113"
     transform="translate(-50.686375,-39.13)">
    <path
       d="m 527.63,50.06 a 27.32,27.32 0 0 1 -0.6,-5.45 26.62,26.62 0 0 1 0.4,-5.48 26.7,26.7 0 0 1 0.6,5.46 26.58,26.58 0 0 1 -0.4,5.47 z"
       style="fill:#a6a6a6"
       id="path2899" />
    <path
       d="m 502.69,57 a 26.52,26.52 0 0 1 -3.24,-4.42 26.5,26.5 0 0 1 -2.39,-4.94 26.67,26.67 0 0 1 3.24,4.42 26.2,26.2 0 0 1 2.39,4.94 z"
       style="fill:#a6a6a6"
       id="path2901" />
    <path
       d="m 484.57,75.52 a 26.84,26.84 0 0 1 -5,-2.21 25.93,25.93 0 0 1 -4.57,-3.08 29.77,29.77 0 0 1 9.56,5.29 z"
       style="fill:#a6a6a6"
       id="path2903" />
    <path
       d="m 478.13,100.6 a 27.41,27.41 0 0 1 -5.46,0.6 26.58,26.58 0 0 1 -5.47,-0.4 30.13,30.13 0 0 1 10.93,-0.2 z"
       style="fill:#a6a6a6"
       id="path2905" />
    <path
       d="m 485.09,125.54 a 30.79,30.79 0 0 1 -9.36,5.64 30,30 0 0 1 9.36,-5.64 z"
       style="fill:#a6a6a6"
       id="path2907" />
    <path
       d="m 571.73,124.65 a 30,30 0 0 1 9.56,5.28 25.9,25.9 0 0 1 -5,-2.2 27.08,27.08 0 0 1 -4.56,-3.08 z"
       style="fill:#a6a6a6"
       id="path2909" />
    <path
       d="m 578.17,99.57 a 30.41,30.41 0 0 1 10.93,-0.21 26,26 0 0 1 -5.46,0.6 26.57,26.57 0 0 1 -5.47,-0.39 z"
       style="fill:#a6a6a6"
       id="path2911" />
    <path
       d="m 571.21,74.62 a 27.1,27.1 0 0 1 4.42,-3.24 26.5,26.5 0 0 1 4.94,-2.38 30.18,30.18 0 0 1 -9.36,5.63 z"
       style="fill:#a6a6a6"
       id="path2913" />
    <path
       d="m 552.71,56.5 a 26.84,26.84 0 0 1 2.21,-5 25.93,25.93 0 0 1 3.08,-4.56 26.52,26.52 0 0 1 -2.2,5 26.55,26.55 0 0 1 -3.09,4.56 z"
       style="fill:#a6a6a6"
       id="path2915" />
    <g
       style="opacity:0.5"
       id="g2919">
      <path
         d="m 570.6,102.63 c -2.11,26.36 -24.07,34.31 -24.07,34.31 -1.62,4 -3.72,14.2 -3.72,14.2 h -29.32 c 0,0 -2.11,-10.19 -3.72,-14.2 0,0 -22,-7.95 -24.07,-34.31 -1.46,-18.32 11.58,-45.4 42.29,-45.41 h 0.32 c 30.69,0.01 43.75,27.09 42.29,45.41 z"
         style="fill:#ffc727"
         id="path2917" />
    </g>
    <g
       style="opacity:0.7"
       id="g2923">
      <path
         d="m 567,102.76 c -1.93,24.11 -22,31.38 -22,31.38 -1.48,3.67 -3.4,17 -3.4,17 h -26.86 c 0,0 -1.92,-13.33 -3.4,-17 0,0 -20.09,-7.27 -22,-31.38 C 488,86 499.92,61.24 528,61.23 h 0.29 C 556.38,61.24 568.31,86 567,102.76 Z"
         style="fill:#ffc727"
         id="path2921" />
    </g>
    <rect
       x="515.21002"
       y="107.07"
       width="3"
       height="46.959999"
       transform="rotate(-10.58,516.48809,130.49827)"
       style="fill:#ffffff"
       id="rect2925" />
    <rect
       x="516.10999"
       y="129.05"
       width="46.959999"
       height="3"
       transform="rotate(-79.44,539.59589,130.54782)"
       style="fill:#ffffff"
       id="rect2927" />
    <path
       d="m 528.15,123 c -2.72,0 -5.07,-2.42 -6.74,-5.46 a 3.49,3.49 0 0 1 -2.47,1.28 c -4.46,0 -6.22,-9.06 -6.29,-9.44 l 1,-0.19 c 0.46,2.4 2.3,8.63 5.31,8.63 v 0 a 2.87,2.87 0 0 0 2,-1.23 20.34,20.34 0 0 1 -2.15,-8.16 c 0,-2.59 1,-4.08 2.73,-4.08 v 0 a 2.74,2.74 0 0 1 2.5,1.42 c 1.38,2.38 0.37,7.09 -1.36,10.07 a 8.5,8.5 0 0 1 -0.57,0.89 c 1.56,2.95 3.74,5.27 6.08,5.27 1.75,0 3.53,-1.4 5,-3.93 0.11,-0.19 0.22,-0.39 0.32,-0.59 a 12.14,12.14 0 0 1 -2.63,-7.78 c 0,-3.3 1.26,-5.36 3.29,-5.36 v 0 a 2.19,2.19 0 0 1 1.94,1.19 c 1.3,2.25 0.61,7.58 -1.4,11.79 a 4.06,4.06 0 0 0 2.76,1.1 v 0 c 2.58,0 4.89,-6.28 5.56,-8.7 l 1,0.26 c -0.27,1 -2.73,9.43 -6.52,9.44 a 5,5 0 0 1 -3.21,-1.21 l -0.21,0.36 c -1.76,2.85 -3.78,4.43 -5.94,4.43 z m 6,-17.66 c -1.69,0 -2.29,2.35 -2.29,4.36 a 12,12 0 0 0 2.09,6.82 c 1.71,-3.81 2.36,-8.61 1.28,-10.49 a 1.2,1.2 0 0 0 -1.11,-0.74 z m -12.62,0 v 0 c -1.43,0 -1.73,1.67 -1.73,3.08 a 18.75,18.75 0 0 0 1.79,7.27 c 0.08,-0.12 0.15,-0.23 0.22,-0.36 1.56,-2.7 2.5,-7.09 1.36,-9.07 a 1.76,1.76 0 0 0 -1.67,-0.96 z"
       style="fill:#ffffff"
       id="path2929" />
    <rect
       x="509.78"
       y="151.17999"
       width="36.73"
       height="20.219999"
       style="fill:#455a64"
       id="rect2931" />
    <path
       d="m 542.35,171.39 c -2.16,3.83 -6.3,7.26 -14.2,7.26 -7.9,0 -12,-3.43 -14.2,-7.26 z"
       style="fill:#455a64"
       id="path2933" />
    <path
       d="M 542.35,171.39 A 13.35,13.35 0 0 1 540,174.5 l -25.29,-1.94 a 13.29,13.29 0 0 1 -0.73,-1.17 z"
       style="fill:#37474f"
       id="path2935" />
    <polygon
       points="508.71,156.86 547.59,153.27 547.59,155.03 508.71,158.63 "
       style="fill:#37474f"
       id="polygon2937" />
    <polygon
       points="508.71,162.2 547.59,158.61 547.59,160.37 508.71,163.96 "
       style="fill:#37474f"
       id="polygon2939" />
    <polygon
       points="508.71,167.54 547.59,163.94 547.59,165.71 508.71,169.3 "
       style="fill:#37474f"
       id="polygon2941" />
    <g
       style="opacity:0.5"
       id="g2949">
      <path
         d="m 495,96.47 c 1.35,0.22 3.09,-6.73 10.57,-14.77 3.32,-3.57 15.91,-8 15,-12.17 -0.91,-4.17 -12.14,0.12 -17.79,6.67 -9.15,10.53 -9.07,20.06 -7.78,20.27 z"
         style="fill:#ffffff"
         id="path2943" />
      <path
         d="m 561.21,97.92 a 1.93,1.93 0 0 0 0,-3.85 c -2.47,0 -2.48,3.85 0,3.85 z"
         style="fill:#ffffff"
         id="path2945" />
      <path
         d="m 549.09,126.87 c 1.36,1 7.93,-5 10.9,-12.27 2.46,-6 2.88,-13.6 1.22,-14 -1.66,-0.4 -2.72,10 -4.71,13.81 -2.5,4.81 -8.85,11.35 -7.41,12.46 z"
         style="fill:#ffffff"
         id="path2947" />
    </g>
  </g>
</svg>
