<?xml version="1.0" encoding="UTF-8"?>
<!DOCTYPE svg PUBLIC "-//W3C//DTD SVG 1.1//EN" "http://www.w3.org/Graphics/SVG/1.1/DTD/svg11.dtd">
<!-- Creator: CorelDRAW -->
<svg xmlns="http://www.w3.org/2000/svg" xml:space="preserve" width="600px" height="600px" style="shape-rendering:geometricPrecision; text-rendering:geometricPrecision; image-rendering:optimizeQuality; fill-rule:evenodd; clip-rule:evenodd"
viewBox="0 0 600 480"
 xmlns:xlink="http://www.w3.org/1999/xlink">
 <defs>
  <style type="text/css">
   <![CDATA[
    .fil0 {fill:#1F1A17}
    .fil1 {fill:#7B0101}
    .fil3 {fill:#AD0101}
    .fil2 {fill:#FF0101}
   ]]>
  </style>
 </defs>
 <g id="Livello_x0020_1">
  <metadata id="CorelCorpID_0Corel-Layer"/>
  <g id="_76530928">
   <path id="_65264168" class="fil0" d="M525.401 91.0896l47.088 22.7124 -45.042 123.161 -421.258 182.872 -56.742 -99.7056 -21.936 -132.901 59.3088 -16.4916c14.9484,-16.0764 42.1248,-20.7528 62.8944,-18.5412l67.2264 -19.3512c10.2852,-10.2948 30.168,-17.3292 54.7296,-15.8232l59.7732 -16.9872c10.0092,-13.5552 31.0608,-14.3508 46.1724,-13.2168l48.4188 -13.8852c16.5396,-14.0388 36.924,-14.6988 57.5904,-10.512 16.5432,3.3528 36.3984,10.7712 41.7756,28.6704z"/>
   <polygon id="_78794336" class="fil1" points="58.6392,316.872 110.27,407.597 96.936,281.232 38.3868,194.168 "/>
   <path id="_78794056" class="fil1" d="M333.112 128.202c-0.6372,5.8752 2.142,11.5308 5.9028,15.0912 6.2628,5.9268 19.9476,11.9256 30.972,12.8436l3.7776 -22.1304 -1.2384 -0.7296c-9.8916,0 -35.2728,-10.4712 -35.6532,-21.378 -0.0396,-1.128 -3.2508,15.906 -2.7096,14.7804l-1.0512 1.5228z"/>
   <path id="_77287864" class="fil1" d="M428.406 102.162c1.7208,7.386 7.0884,10.9488 13.1064,14.1984 3.4512,1.8636 16.6704,6.756 21.1836,6.756 2.7384,-1.1052 5.2584,-17.3556 6.9852,-20.9544l-1.2696 -0.6348c-7.4688,-0.6216 -14.874,-4.1232 -20.8704,-6.4356 -2.8992,-1.1184 -5.862,-3.2484 -8.3532,-4.9812 -4.7808,-3.3252 -3.1524,-3.9636 -5.7024,-7.6332l-5.0796 19.6848zm0.6348 -5.0808l-0.6348 1.9056 0.6348 -1.9056zm1.9056 -7.62l-0.636 1.2708 0.636 -1.2708zm0.6348 -3.174l-0.6348 1.9044 0.6348 -1.9044z"/>
   <path id="_76284440" class="fil1" d="M90.5856 218.366c1.4484,6.2172 5.0604,9.3768 9.402,12.8232 5.2212,4.1448 9.216,4.2168 14.7288,6.8616l-1.9056 -24.7644c-4.152,-0.3456 -12.2868,-4.404 -15.0768,-6.5124 -6.9516,-5.2536 -5.3268,-6.2496 -9.6876,-11.268l2.5392 22.86z"/>
   <path id="_78793888" class="fil1" d="M222.031 170.106c3.1308,13.4388 11.3088,15.7176 22.2252,20.9556l1.2696 -23.4948c-5.7264,-2.748 -8.0772,-3.294 -13.464,-6.8556 -3.4776,-2.3004 -2.6532,-2.1852 -5.1168,-5.0436 -3.324,-3.8568 -1.56,-3.5172 -3.6444,-6.516l-1.2696 20.9544z"/>
   <path id="_78794504" class="fil2" d="M224.783 140.935l-1.482 8.2164c2.0844,2.9988 0.3204,2.6592 3.6444,6.516 2.4636,2.8584 1.6392,2.7432 5.1168,5.0436 5.3868,3.5616 7.7376,4.1076 13.464,6.8556 7.6272,1.7772 14.64,4.4448 24.1296,4.4448 7.5576,0 21.0756,-1.218 26.4912,-3.354 3.3264,-1.3128 7.4664,-3.1464 10.086,-5.154 4.0176,-3.078 5.6028,-6.804 7.2384,-8.0016 -1.3716,-16.4808 -7.6656,-19.1724 -20.7108,-24.3756 -6.6108,-2.6364 -12.7848,-3.8364 -19.6548,-4.3812 -19.014,-1.5096 -40.7736,1.5096 -48.3228,14.19zm89.3232 17.106c-0.0708,3.1992 -1.074,8.8704 -1.6512,12.3192 -1.2888,7.698 -0.1068,4.7844 -3.558,10.4124 -3.24,5.286 -10.0872,10.0992 -16.6284,11.946 -4.8204,1.3608 -18.6876,4.0872 -24.144,3.0636 -7.3308,-1.374 -18.9684,-1.6116 -23.868,-4.7208 -10.9164,-5.238 -19.0944,-7.5168 -22.2252,-20.9556 -1.89,-2.9784 0.3696,-25.7892 1.218,-29.0328l-68.7192 19.7268c12.8436,0.2856 32.286,12.8172 32.5764,25.8168l0.6348 24.1296c-1.9884,2.97 -1.2768,4.4112 -2.6136,7.5468 -0.7536,1.7676 -2.7816,4.0488 -4.1064,6.0528 -1.7328,2.622 -8.4816,7.5084 -11.6052,8.7156 -4.9656,1.9188 -8.3976,4.5432 -14.7492,5.5704 -2.9688,0.4812 -15.2676,2.9268 -17.7972,3.12l-22.1532 -3.7008c-5.5128,-2.6448 -9.5076,-2.7168 -14.7288,-6.8616 -4.3416,-3.4464 -7.9536,-6.606 -9.402,-12.8232l-1.2432 -0.6372 -1.932 -20.9532c0,-6.8736 -0.048,-10.68 2.5932,-16.9608l-51.6168 14.3532 58.5492 87.0636 463.55 -162.56 -45.6252 -22.0068c-0.8004,4.0092 -5.1636,16.146 -5.8104,19.4664l-1.2696 0c-3.8988,5.8224 -3.5508,3.4104 -8.8896,6.9852l-16.4544 2.3196 -10.2156 -0.414c-1.1592,0 -8.934,-1.53 -9.5256,-1.9056 -4.5132,0 -17.7324,-4.8924 -21.1836,-6.756 -6.018,-3.2496 -11.3856,-6.8124 -13.1064,-14.1984l0 -3.1752c1.0668,-5.4396 2.6076,-11.9052 3.8232,-17.8452l-48.2736 13.8432c7.5804,0.834 20.8824,5.6064 27.348,9.7356 10.5456,6.7368 13.0332,10.3236 10.1172,22.8408 -1.0464,12.5736 -5.7612,21.93 -15.4344,26.4768 -6.7968,3.1944 -28.11,5.8848 -36,2.0988 -11.0244,-0.918 -24.7092,-6.9168 -30.972,-12.8436 -3.7608,-3.5604 -6.54,-9.216 -5.9028,-15.0912 0.3792,-3.498 2.13,-15.7128 2.1744,-19.2804l-57.7572 16.4136c7.7964,0 22.4544,6.3144 27.4512,9.5772 2.6244,1.7136 6.1812,6.522 7.6572,9.3576 3.6444,6.9996 1.6188,7.0608 1.4688,13.7712zm23.4948 -49.53c-5.7648,12.0156 24.0096,24.7656 34.9248,24.7656 5.8668,1.3668 21.9,2.5128 28.3464,1.0416 11.22,-2.562 14.1288,-3.18 20.5488,-10.5672 0.21,-2.5224 0.6348,-1.5288 0.6348,-3.174 0,-11.7516 -21.822,-21.1644 -32.5104,-22.7352 -12.6204,-1.854 -29.2692,-3.3936 -41.4396,1.5192 -4.7004,1.8972 -8.742,4.8372 -10.5048,9.15z"/>
   <path id="_76363296" class="fil2" d="M88.0464 195.506c4.3608,5.0184 2.736,6.0144 9.6876,11.268 2.79,2.1084 10.9248,6.1668 15.0768,6.5124 14.0268,3.2676 31.7664,3.8868 46.0008,-0.3552 11.5704,-3.4476 26.5464,-12.2976 27.66,-25.68 -1.6092,-2.316 -1.026,-3.696 -1.8672,-6.3876 -0.45,-1.44 -2.3088,-3.768 -3.1992,-5.0556 -1.6548,-2.3904 -6.2232,-5.9856 -9.0972,-7.4136 -18.5448,-9.216 -42.672,-9.1296 -61.656,-1.7172 -5.0676,1.98 -10.0704,4.0224 -13.572,7.3836 -1.4616,1.4028 -2.484,2.4084 -3.2532,3.2376 -4.9488,5.334 -5.7804,11.2812 -5.7804,18.2076z"/>
   <path id="_75416736" class="fil2" d="M433.486 82.4772c2.55,3.6696 0.9216,4.308 5.7024,7.6332 2.4912,1.7328 5.454,3.8628 8.3532,4.9812 5.9964,2.3124 13.4016,5.814 20.8704,6.4356 14.7756,1.2288 37.6332,5.7252 45.72,-6.3504 1.446,-5.6184 -1.674,-9.3144 -5.6256,-12.3288 -9.5316,-7.2684 -21.45,-10.3536 -33.4824,-11.6148 -9.6552,-1.0116 -22.2696,-2.2944 -31.6368,0.9864 -4.7892,1.6776 -8.6244,4.7712 -9.9012,10.2576z"/>
   <polygon id="_46626248" class="fil3" points="96.936,281.232 96.3012,280.596 95.6664,279.961 96.3012,280.596 96.936,281.232 110.27,407.597 519.846,229.796 560.486,118.672 "/>
   <path id="_77970704" class="fil3" d="M186.472 187.252c-1.1136,13.3824 -16.0896,22.2324 -27.66,25.68 -14.2344,4.242 -31.974,3.6228 -46.0008,0.3552l1.9056 24.7644 22.1532 3.7008c2.5296,-0.1932 14.8284,-2.6388 17.7972,-3.12 6.3516,-1.0272 9.7836,-3.6516 14.7492,-5.5704 3.1236,-1.2072 9.8724,-6.0936 11.6052,-8.7156 1.3248,-2.004 3.3528,-4.2852 4.1064,-6.0528 1.3368,-3.1356 0.6252,-4.5768 2.6136,-7.5468l-0.6348 -24.1296 -0.6348 0.6348z"/>
   <path id="_78794168" class="fil3" d="M245.526 167.567l-1.2696 23.4948c4.8996,3.1092 16.5372,3.3468 23.868,4.7208 5.4564,1.0236 19.3236,-1.7028 24.144,-3.0636 6.5412,-1.8468 13.3884,-6.66 16.6284,-11.946 3.4512,-5.628 2.2692,-2.7144 3.558,-10.4124 0.5772,-3.4488 1.5804,-9.12 1.6512,-12.3192l-0.6348 -2.5392c-1.6356,1.1976 -3.2208,4.9236 -7.2384,8.0016 -2.6196,2.0076 -6.7596,3.8412 -10.086,5.154 -5.4156,2.136 -18.9336,3.354 -26.4912,3.354 -9.4896,0 -16.5024,-2.6676 -24.1296,-4.4448z"/>
   <path id="_76285520" class="fil3" d="M372.526 133.277l1.2384 0.7296 -3.7776 22.1304c7.89,3.786 29.2032,1.0956 36,-2.0988 9.6732,-4.5468 14.388,-13.9032 15.4344,-26.4768l0 -3.81c-6.42,7.3872 -9.3288,8.0052 -20.5488,10.5672 -6.4464,1.4712 -22.4796,0.3252 -28.3464,-1.0416z"/>
   <path id="_77291648" class="fil3" d="M468.412 101.527l1.2696 0.6348c-1.7268,3.5988 -4.2468,19.8492 -6.9852,20.9544 0.5916,0.3756 8.3664,1.9056 9.5256,1.9056l10.2156 0.414 16.4544 -2.3196c5.3388,-3.5748 4.9908,-1.1628 8.8896,-6.9852l6.3504 -20.9544c-8.0868,12.0756 -30.9444,7.5792 -45.72,6.3504zm46.3548 -3.81l-0.6348 0.6348 0.6348 -0.6348zm-0.6348 1.9044l-0.636 0.6348 0.636 -0.6348zm-2.5404 8.2548l-0.6348 0.6348 0.6348 -0.6348zm-0.6348 1.9056l-0.6348 0.6348 0.6348 -0.6348zm-0.6348 1.9044l-0.636 0.6348 0.636 -0.6348zm-1.2708 3.1752l0.6348 -1.2696 -0.6348 1.2696z"/>
  </g>
 </g>
</svg>
