<?xml version="1.0" encoding="UTF-8"?>
<!DOCTYPE svg PUBLIC "-//W3C//DTD SVG 1.1//EN" "http://www.w3.org/Graphics/SVG/1.1/DTD/svg11.dtd">
<!-- Creator: CorelDRAW -->
<svg xmlns="http://www.w3.org/2000/svg" xml:space="preserve" width="600px" height="300px" style="shape-rendering:geometricPrecision; text-rendering:geometricPrecision; image-rendering:optimizeQuality; fill-rule:evenodd; clip-rule:evenodd"
viewBox="0 0 600 450"
 xmlns:xlink="http://www.w3.org/1999/xlink">
 <defs>
  <style type="text/css">
   <![CDATA[
    .fil0 {fill:#1F1A17}
    .fil1 {fill:#7B0101}
    .fil3 {fill:#AD0101}
    .fil2 {fill:#FF0101}
   ]]>
  </style>
 </defs>
 <g id="Livello_x0020_1">
  <metadata id="CorelCorpID_0Corel-Layer"/>
  <g id="_77673008">
   <path id="_77734584" class="fil0" d="M520.923 58.182l65.517 38.559 -46.137 158.871 -425.484 184.349 -72.4725 -129.15 -25.752 -161.336 75.0285 -21.8625c18.561,-20.1585 51.399,-25.3125 77.5845,-22.398l85.869 -24.411c17.709,-18.348 42.8205,-21.108 67.338,-19.3395l72.9045 -21.0075c23.613,-32.7885 116.478,-15.1425 125.604,17.7255z"/>
   <polygon id="_75659472" class="fil1" points="53.859,306.804 119.985,424.645 103.385,267.325 30.1125,158.036 "/>
   <path id="_47303792" class="fil1" d="M259.685 127.784c2.538,10.89 8.7885,17.2875 17.712,21.975 6.4545,3.3915 21.54,8.9805 30.7065,8.9805l3.1875 0.0015 2.3685 -29.37c-12.576,0 -22.965,-4.362 -31.8675,-7.8195 -3.1815,-1.2345 -9.9165,-5.376 -12.3855,-7.458 -2.0535,-1.7295 -2.784,-3.4275 -4.785,-5.5335 -2.871,-3.024 -1.1325,-3.7815 -3.3495,-6.9705l-1.587 26.1945z"/>
   <path id="_77566768" class="fil1" d="M400.311 73.902c-0.5265,3.87 -0.597,7.6275 0.111,10.9905l-0.441 0.8415c0.7635,2.358 2.811,5.472 4.3455,6.945 6.9765,7.335 23.5005,15.78 36.333,16.848l5.556 -27.7815c-16.4145,-1.365 -42.8625,-12.804 -42.8625,-30.162l0.7935 -0.7935 -0.7935 0.7935 -3.042 22.3185z"/>
   <path id="_77500208" class="fil1" d="M112.84 207.158l-2.3805 -30.162c-10.794,-5.7105 -12.576,-7.521 -18.2565,-18.2565l0.141 6.225 -1.143 -0.876c0.7005,8.8935 1.944,18.483 2.493,20.9415 1.8855,8.433 11.163,20.268 19.146,22.128z"/>
   <path id="_77621680" class="fil2" d="M274.582 80.7675c-9.303,5.8845 -11.502,10.803 -13.311,20.8215 2.217,3.189 0.4785,3.9465 3.3495,6.9705 2.001,2.106 2.7315,3.804 4.785,5.5335 2.469,2.082 9.204,6.2235 12.3855,7.458 8.9025,3.4575 19.2915,7.8195 31.8675,7.8195 13.8195,0 23.2245,0.8145 36.348,-2.547 2.01,-0.5145 12.3855,-5.157 14.1555,-6.4815 4.5825,-3.4305 8.454,-9.813 9.822,-10.815 -0.762,-9.165 -1.8345,-15.549 -7.9125,-20.0175 -7.6335,-5.6115 -8.2875,-6.5865 -17.9745,-10.4505 -8.3865,-3.345 -16.2075,-4.8405 -24.9495,-5.508 -16.143,-1.233 -34.179,-1.8825 -48.5655,7.2165zm100.196 31.935c-0.4005,18.0255 -4.9815,34.0065 -18.57,39.372 -5.823,2.2995 -14.5515,6.4815 -21.8865,6.69 -6.4605,0.183 -21.3105,3.0885 -26.2185,-0.0255 -9.1665,0 -24.252,-5.589 -30.7065,-8.9805 -8.9235,-4.6875 -15.174,-11.085 -17.712,-21.975 -2.3625,-3.7245 0.582,-32.2965 1.6425,-36.351l-87.1245 24.837c16.0545,0.357 41.4645,15.9015 41.826,32.151l0.7935 30.162c-2.4855,3.7125 -1.596,5.514 -3.267,9.4335 -0.6645,1.5615 -3.567,5.598 -4.9725,7.7265 -2.175,3.2925 -11.1075,9.3015 -15.2535,10.941 -7.767,3.072 -9.216,5.3415 -19.29,6.903 -7.1415,1.107 -14.6175,3.096 -23.0985,3.096 -11.496,0 -32.145,-4.3485 -38.1,-9.525 -7.983,-1.86 -17.2605,-13.695 -19.146,-22.128 -0.5535,-2.484 -1.818,-12.243 -2.514,-21.2115 -0.8355,-10.779 -0.15,-15.339 4.041,-24.756l-65.109 18.9735 73.272 109.29 468.93 -164.973 -61.1715 -36.003 -2.22 8.253c-1.314,15.7755 -7.5915,29.286 -20.961,33.807 -9.357,3.1635 -38.6625,6.6 -47.3025,1.1175 -12.8325,-1.068 -29.3565,-9.513 -36.333,-16.848 -4.38,-4.605 -6.6495,-11.493 -5.658,-18.777 0.525,-3.858 2.25,-18.5805 2.781,-22.7235l-73.707 21.2385c9.7455,0 28.398,7.6245 34.6425,11.7015 3.282,2.142 9.1605,7.3755 11.0055,10.9215 4.5555,8.748 1.575,9.2745 1.3875,17.6625z"/>
   <path id="_78135248" class="fil2" d="M92.2035 158.739c5.6805,10.7355 7.4625,12.546 18.2565,18.2565 31.779,16.815 101.824,7.68 104.775,-27.7815 -2.088,-10.0365 -7.8435,-16.689 -15.081,-21.3285 -12.8445,-8.232 -29.3775,-11.7045 -45.6135,-11.3115 -15.4005,0.3735 -38.6355,4.8255 -50.6415,15.7605 -9.156,8.337 -11.31,14.7225 -11.6955,26.4045z"/>
   <path id="_76234600" class="fil2" d="M403.353 51.5835c0,17.358 26.448,28.797 42.8625,30.162 7.8495,1.8285 27.7005,2.9115 36.3735,1.449 12.621,-2.13 19.239,-5.193 26.334,-13.3545 1.836,-4.368 0.237,-8.799 -2.445,-12.4635 -14.3985,-19.671 -46.245,-21.486 -68.1915,-21.66 -10.0395,-0.081 -32.391,3.348 -34.9335,15.867z"/>
   <polygon id="_73105800" class="fil3" points="103.385,267.325 119.985,424.645 530.353,246.846 572.314,102.352 "/>
   <path id="_65247784" class="fil3" d="M215.235 149.214c-2.9505,35.4615 -72.996,44.5965 -104.775,27.7815l2.3805 30.162c5.955,5.1765 26.604,9.525 38.1,9.525 8.481,0 15.957,-1.989 23.0985,-3.096 10.074,-1.5615 11.523,-3.831 19.29,-6.903 4.146,-1.6395 13.0785,-7.6485 15.2535,-10.941 1.4055,-2.1285 4.308,-6.165 4.9725,-7.7265 1.671,-3.9195 0.7815,-5.721 3.267,-9.4335l-0.7935 -30.162 -0.7935 0.7935z"/>
   <path id="_77974408" class="fil3" d="M313.659 129.37l-2.3685 29.37 -3.1875 -0.0015c4.908,3.114 19.758,0.2085 26.2185,0.0255 7.335,-0.2085 16.0635,-4.3905 21.8865,-6.69 13.5885,-5.3655 18.1695,-21.3465 18.57,-39.372l-0.7935 -3.1755c-1.368,1.002 -5.2395,7.3845 -9.822,10.815 -1.77,1.3245 -12.1455,5.967 -14.1555,6.4815 -13.1235,3.3615 -22.5285,2.547 -36.348,2.547z"/>
   <path id="_78231184" class="fil3" d="M446.216 81.7455l-5.556 27.7815c8.64,5.4825 37.9455,2.046 47.3025,-1.1175 13.3695,-4.521 19.647,-18.0315 20.961,-33.807l0 -4.7625c-7.095,8.1615 -13.713,11.2245 -26.334,13.3545 -8.673,1.4625 -28.524,0.3795 -36.3735,-1.449z"/>
  </g>
 </g>
</svg>
