<?xml version="1.0" encoding="UTF-8"?>
<!DOCTYPE svg PUBLIC "-//W3C//DTD SVG 1.1//EN" "http://www.w3.org/Graphics/SVG/1.1/DTD/svg11.dtd">
<!-- Creator: CorelDRAW -->
<svg xmlns="http://www.w3.org/2000/svg" xml:space="preserve" width="300px" height="300px" style="shape-rendering:geometricPrecision; text-rendering:geometricPrecision; image-rendering:optimizeQuality; fill-rule:evenodd; clip-rule:evenodd"
viewBox="0 0 300 300"
 xmlns:xlink="http://www.w3.org/1999/xlink">
 <defs>
  <style type="text/css">
   <![CDATA[
    .fil0 {fill:#1F1A17}
    .fil1 {fill:#7B0101}
    .fil3 {fill:#AD0101}
    .fil2 {fill:#FF0101}
   ]]>
  </style>
 </defs>
 <g id="Livello_x0020_1">
  <metadata id="CorelCorpID_0Corel-Layer"/>
  <g id="_78390712">
   <path id="_76668584" class="fil0" d="M242.01 111.064l-6.468 104.558 -5.389 2.695 -111.521 47.876 -48.063 -85.326 -17.016 -108.535 48.308 -13.848c6.809,-7.101 17.53,-11.273 26.86,-13.467 8.412,-1.978 18.341,-2.995 27.019,-1.917l18.904 -5.477 67.97 66.339 -0.604 7.102z"/>
   <g>
    <polygon id="_76359088" class="fil1" points="78.244,178.227 122.009,256.037 109.838,149.674 62.742,79.295 "/>
    <path id="_77081064" class="fil1" d="M104.017 92.524l0 2.646c2.059,0.831 1.092,3.83 2.344,6.123 0.418,0.765 3.217,4.436 3.857,5.139 3.074,3.375 6.985,4.678 11.262,6.73l-1.059 -20.109c-3.848,-2.036 -5.506,-2.275 -9.423,-4.864 -3.772,-2.494 -4.611,-5.57 -6.981,-7.306l0.991 13.763 -0.991 -2.122z"/>
    <path id="_77352944" class="fil2" d="M168.575 47.545l-3.704 1.058 -3.704 1.059 -4.192 1.268c8.728,0.181 19.908,6.279 24.432,10.771 3.084,3.062 4.655,6.276 4.632,12.302 -0.017,4.156 1.341,12.926 -0.53,15.875 0,11.417 -6.024,16.336 -13.585,20.282 -4.565,2.383 -6.437,3.548 -11.912,5.022 -2.324,0.626 -11.808,2.213 -14.191,2.213l-6.35 0c-4.027,0 -15.73,-2.662 -17.991,-4.233 -4.277,-2.052 -8.188,-3.355 -11.262,-6.73 -0.64,-0.703 -3.439,-4.374 -3.857,-5.139 -1.252,-2.293 -0.285,-5.292 -2.344,-6.123l0 -2.646c0,-10.837 -3.909,-15.805 -0.04,-23.668 0.437,-0.888 1.067,-2.368 1.72,-3.343l-9.088 2.67 -11.112 3.175 -3.705 1.058 -3.704 1.058 -3.704 1.059 -3.704 1.058 -3.704 1.058 -3.175 1.059 -1.059 0.529 0 1.058 47.096 70.379c0.426,0.296 1.307,1.059 1.588,1.059l122.766 -42.863 0 -1.058 -61.383 -59.796 -4.234 0.529z"/>
    <path id="_77691472" class="fil2" d="M111.89 61.215c-7.092,5.287 -9.322,11.698 -7.873,19.668 2.37,1.736 3.209,4.812 6.981,7.306 3.917,2.589 5.575,2.828 9.423,4.864 4.528,1.055 8.986,3.175 14.817,3.175l10.054 0c8.894,0 19.907,-2.639 25.611,-6.138 5.584,-3.425 4.453,-2.504 9.175,-6.7 5.983,-5.317 3.284,-7.59 5.431,-10.974 -0.104,-4.679 -4.582,-10.784 -7.61,-13.027 -3.792,-2.809 -8.619,-4.868 -13.766,-6.343 -3.479,-0.997 -7.374,-1.326 -10.308,-1.648 -14.274,-1.564 -30.189,1.062 -41.935,9.817z"/>
    <path id="_76521800" class="fil3" d="M109.838 149.674l12.171 106.363 104.775 -44.979 1.058 -0.53 6.35 -102.658 -122.766 42.863c-0.281,0 -1.162,-0.763 -1.588,-1.059z"/>
    <path id="_76858000" class="fil3" d="M120.421 93.053l1.059 20.109c2.261,1.571 13.964,4.233 17.991,4.233l6.35 0c2.383,0 11.867,-1.587 14.191,-2.213 5.475,-1.474 7.347,-2.639 11.912,-5.022 7.561,-3.946 13.585,-8.865 13.585,-20.282l0 -17.462c-2.147,3.384 0.552,5.657 -5.431,10.974 -4.722,4.196 -3.591,3.275 -9.175,6.7 -5.704,3.499 -16.717,6.138 -25.611,6.138l-10.054 0c-5.831,0 -10.289,-2.12 -14.817,-3.175z"/>
   </g>
  </g>
 </g>
</svg>
