<?xml version="1.0" encoding="UTF-8" standalone="no"?>
<!-- Created with Inkscape (http://www.inkscape.org/) -->
<svg xmlns:dc="http://purl.org/dc/elements/1.1/" xmlns:cc="http://creativecommons.org/ns#" xmlns:rdf="http://www.w3.org/1999/02/22-rdf-syntax-ns#" xmlns:svg="http://www.w3.org/2000/svg" xmlns="http://www.w3.org/2000/svg" xmlns:sodipodi="http://sodipodi.sourceforge.net/DTD/sodipodi-0.dtd" xmlns:inkscape="http://www.inkscape.org/namespaces/inkscape" width="137.77242mm" height="193.94252mm" viewBox="0 0 137.77242 193.94252" version="1.1" id="svg902" inkscape:version="0.92.5 (2060ec1f9f, 2020-04-08)" sodipodi:docname="favicon.svg">
  <defs id="defs896"/>
  <sodipodi:namedview id="base" pagecolor="#ffffff" bordercolor="#666666" borderopacity="1.0" inkscape:pageopacity="0.0" inkscape:pageshadow="2" inkscape:zoom="0.593583" inkscape:cx="-221.14941" inkscape:cy="210.25313" inkscape:document-units="mm" inkscape:current-layer="layer1" showgrid="false" fit-margin-top="0" fit-margin-left="0" fit-margin-right="0" fit-margin-bottom="0" inkscape:window-width="2560" inkscape:window-height="1391" inkscape:window-x="0" inkscape:window-y="0" inkscape:window-maximized="1"/>
  <metadata id="metadata899">
    <rdf:RDF>
      <cc:Work rdf:about="">
        <dc:format>image/svg+xml</dc:format>
        <dc:type rdf:resource="http://purl.org/dc/dcmitype/StillImage"/>
        <dc:title/>
      </cc:Work>
    </rdf:RDF>
  </metadata>
  <g inkscape:label="Layer 1" inkscape:groupmode="layer" id="layer1" transform="translate(-50.726634,-14.857343)">
    <g style="display:inline;stroke:#008000;stroke-width:48.09975052;stroke-miterlimit:4;stroke-dasharray:none;stroke-opacity:1;paint-order:stroke markers fill" transform="matrix(0.32592764,0,0,-0.32592764,-49.462508,426.16449)" inkscape:label="ei" id="g2247">
      <path style="color:#000000;font-style:normal;font-variant:normal;font-weight:normal;font-stretch:normal;font-size:medium;line-height:normal;font-family:sans-serif;font-variant-ligatures:normal;font-variant-position:normal;font-variant-caps:normal;font-variant-numeric:normal;font-variant-alternates:normal;font-feature-settings:normal;text-indent:0;text-align:start;text-decoration:none;text-decoration-line:none;text-decoration-style:solid;text-decoration-color:#000000;letter-spacing:normal;word-spacing:normal;text-transform:none;writing-mode:lr-tb;direction:ltr;text-orientation:mixed;dominant-baseline:auto;baseline-shift:baseline;text-anchor:start;white-space:normal;shape-padding:0;clip-rule:nonzero;display:inline;overflow:visible;visibility:visible;opacity:1;isolation:auto;mix-blend-mode:normal;color-interpolation:sRGB;color-interpolation-filters:linearRGB;solid-color:#000000;solid-opacity:1;vector-effect:none;fill:none;fill-opacity:1;fill-rule:nonzero;stroke:none;stroke-width:47.68714523;stroke-linecap:butt;stroke-linejoin:miter;stroke-miterlimit:4;stroke-dasharray:none;stroke-dashoffset:0;stroke-opacity:1;paint-order:stroke markers fill;color-rendering:auto;image-rendering:auto;shape-rendering:auto;text-rendering:auto;enable-background:accumulate" d="m 520.10156,666.91602 c -51.06869,0.41325 -104.50722,10.56041 -146.20703,41.73242 -34.39098,26.9455 -51.74468,69.71003 -59.92212,111.47901 -14.52835,73.3976 -3.19798,149.15045 16.59668,220.43395 11.6812,41.4041 23.16083,83.495 43.8313,121.4991 22.94182,42.3333 59.52368,79.6618 106.46987,93.9803 29.29637,9.4224 61.63623,7.3797 89.88365,-4.6092 44.02939,-18.0523 77.12804,-55.9027 97.65039,-97.998 24.59956,-49.2132 36.80067,-103.3114 49.92037,-156.39173 C 732.21721,933.73288 736.8588,865.90221 715.24023,803.73242 697.79984,753.61481 660.3522,710.62326 612.27641,687.82453 583.69264,673.92452 551.8889,666.6858 520.10156,666.91602 Z m -5.49218,48.95312 c 77.99624,-0.26863 150.56628,64.25107 160.46093,141.4082 7.41355,50.89218 0.28388,102.51827 -9.13253,152.69146 -11.28485,53.4839 -28.52001,107.1261 -61.41725,151.4854 -19.74673,25.515 -47.27471,47.748 -80.40334,51.3153 -25.66083,2.3896 -51.42718,-8.6 -69.27009,-26.9108 -39.43513,-36.9966 -59.09965,-89.7431 -72.01069,-141.1889 -9.97171,-40.6507 -17.37957,-82.01612 -23.93832,-123.39482 -5.59008,-44.27504 -4.54507,-91.67423 17.27249,-131.82526 22.29249,-40.44071 66.10589,-66.05128 111.45553,-71.74423 8.90582,-1.26563 17.87773,-1.8483 26.98327,-1.83635 z" id="path2339" inkscape:connector-curvature="0" inkscape:label="rand"/>
      <path inkscape:connector-curvature="0" id="path212-6" style="display:inline;fill:none;fill-opacity:1;fill-rule:nonzero;stroke:none;stroke-width:48.09975052;stroke-miterlimit:4;stroke-dasharray:none;stroke-opacity:1;paint-order:stroke markers fill" d="m 687.6434,1055.08 c 14.16914,-50.5517 26.47973,-102.29387 26.0113,-154.79439 -0.25348,-29.38743 -4.77486,-58.94569 -14.73931,-86.64454 -19.78301,-54.96475 -65.69524,-98.40415 -121.8965,-114.20711 -33.41252,-9.39517 -68.99074,-9.78396 -103.17895,-3.82737 -26.27236,4.57615 -53.22246,12.56402 -75.94871,26.85983 -37.88882,23.85418 -54.838,66.28274 -63.25884,108.16028 -6.09193,30.28112 -7.41863,61.4368 -5.27977,92.2133 3.6459,52.41892 17.00389,103.6839 32.419,153.919 7.70755,25.1174 16.00259,50.2897 28.36697,73.566 25.89409,48.7825 74.71218,94.0266 133.0349,93.2414 3.52888,-0.045 7.03944,-0.2621 10.51453,-0.6499 40.69487,-4.4677 77.35596,-31.1825 101.59887,-64.6488 26.31744,-36.3271 40.25329,-79.9835 52.35651,-123.1877" sodipodi:nodetypes="ccccccccsccccc" inkscape:label="eivulling"/>
      <path inkscape:connector-curvature="0" id="path212" style="display:inline;fill:#000000;fill-opacity:1;fill-rule:nonzero;stroke:none;stroke-width:48.09975052;stroke-miterlimit:4;stroke-dasharray:none;stroke-opacity:1;paint-order:stroke markers fill" d="m 684.94006,834.9298 c 6.986,26.494 7.851,54.239 6.741,81.608 -2.219,55.057 -12.269,109.784 -29.738,162.04 -17.055,51.004 -43.22,102.009 -88.292,131.343 -16.613,10.812 -34.025,16.669 -51.296,17.694 -25.319,1.495 -50.309,-7.409 -71.99,-26.344 -29.258,-25.573 -49.623,-60.068 -63.575,-96.331 -13.952,-36.262 -21.887,-74.518 -29.597,-112.596 -8.753,-43.276 -17.346,-87.183 -14.667,-131.258 3.31,-54.653 25.78,-103.702 72.723,-132.782 45.242,-28.036 103.213,-35.069 153.663,-17.873 55.922,19.067 100.947,67.374 116.028,124.499 m 7.362,220.604 c 14.76,-52.66 27.584,-106.56 27.096,-161.25 -0.264,-30.613 -4.974,-61.404 -15.354,-90.258 -20.608,-57.257 -68.435,-102.508 -126.98,-118.97 -34.806,-9.787 -71.868,-10.192 -107.482,-3.987 -27.368,4.767 -55.442,13.088 -79.116,27.98 -39.469,24.849 -57.125,69.047 -65.897,112.671 -6.346,31.544 -7.728,63.999 -5.5,96.059 3.798,54.605 17.713,108.008 33.771,160.338 8.029,26.165 16.67,52.387 29.55,76.634 26.974,50.817 77.828,97.948 138.583,97.13 3.676,-0.047 7.333,-0.273 10.953,-0.677 42.392,-4.654 80.582,-32.483 105.836,-67.345 27.415,-37.842 41.932,-83.319 54.54,-128.325" inkscape:label="schaal"/>
    </g>
    <path style="display:inline;fill:#000000;stroke:none;stroke-width:0.20347999px;stroke-linecap:butt;stroke-linejoin:miter;stroke-opacity:1" d="m 86.798537,80.925132 c -0.259265,0.01754 -0.390736,0.09358 -0.332793,0.236678 0.309087,0.763209 4.594463,4.384206 2.707852,7.273975 -1.433592,-0.56097 -3.965258,-1.445887 -4.226613,-0.874882 -0.261382,0.571003 5.043673,6.64088 2.89904,7.498765 -10.632731,-3.965728 -20.488329,6.796172 -10.491867,9.486762 -0.500037,5.23263 5.133551,6.27042 5.133551,6.27042 -2.952115,4.82903 0.848599,10.21899 -1.384935,19.72541 6.364341,0.18414 5.462932,-7.10394 10.035567,-8.49561 0.560123,3.29415 2.733516,5.48911 3.132614,8.54884 1.566174,-1.74283 2.453666,-4.23921 4.088632,-5.68183 0.713952,1.06991 1.158346,2.06646 1.592686,3.07992 0.463209,-2.39651 1.362159,-4.14611 2.389509,-5.73454 0.58851,1.44677 1.70714,3.23792 2.8448,4.12275 1.12712,-2.81328 -0.003,-6.3014 1.24383,-7.81296 1.23158,-1.49399 5.31209,0.4288 9.58392,-2.97346 -4.24987,-2.5862 -10.16727,-5.03172 -10.08361,-11.4329 0.43756,0.23513 1.71735,1.1333 3.1352,1.81591 1.41783,0.68262 3.85821,1.16204 4.26228,0.83613 0.40405,-0.32592 -1.26442,-2.4102 1.16581,-2.08411 2.43022,0.32608 7.2463,0.40102 8.60155,-2.4629 -5.67058,0.0796 -0.61016,-1.35547 -1.71101,-2.340427 -3.07832,0.101027 -7.60857,-1.137068 -9.33018,-3.528983 3.66858,-9.054571 -2.62113,-7.307588 -3.36725,-7.834149 -1.1103,-0.783587 -0.54748,-1.999745 -2.13061,-3.47059 -1.12673,-1.046826 -2.47682,-0.209251 -2.64531,-0.377753 -1.26764,-1.268598 -3.62667,-3.690983 -5.88028,-2.471685 -1.622743,-0.779277 -4.443333,-0.219927 -5.701956,0.967901 -0.885799,-1.347136 -4.406927,-2.36267 -5.530427,-2.286682 z m 12.646793,2.667537 c 1.60147,0.0689 2.3499,2.017072 3.16206,2.739885 1.12996,1.005649 2.32444,-0.719704 3.39307,0.7152 1.06865,1.434904 0.31435,1.885823 1.00306,3.096969 0.68869,1.211149 3.90345,0.01741 4.32943,1.61489 0.42601,1.597472 -1.43288,3.918167 -1.64486,4.804873 0.175,0.467389 2.35405,3.042782 5.86941,4.189414 1.75768,0.57331 3.31592,0.58692 2.90939,0.92139 -1.03045,0.8478 0.67878,1.22644 -0.14521,1.3751 -1.41237,0.25482 -2.99833,-0.0554 -4.57903,-0.35811 -1.60338,-0.30705 -2.98903,-1.69999 -3.40652,-1.3808 -0.58843,0.44987 0.69668,3.03409 -0.78239,2.45618 -3.6534,-1.48214 -3.68758,-4.389857 -7.17423,-9.337928 -3.486657,-4.948068 -2.786517,-7.33725 -5.261191,-9.868648 0.942869,-0.734632 1.700318,-0.995376 2.327011,-0.968415 z m -7.988671,3.038057 c 0.03204,0.01373 1.079236,0.110778 1.48672,0.849561 -0.74377,1.952419 -1.647481,1.524617 -1.48672,-0.849561 z m -1.959583,4.029212 c 3.436937,0.466969 5.040577,-0.942109 4.861718,3.350184 l 0.03463,0.06873 C 92.556687,93.160481 89.29911,93.653156 89.497072,90.65994 Z m 7.559251,2.696994 c 4.082313,-0.149284 5.921483,5.848987 7.765413,9.260418 -4.934953,-0.64369 -2.70216,-2.813774 -4.862246,-4.973859 -0.467069,-0.467111 -1.693042,-0.21296 -2.315104,-0.523999 -0.689001,-0.479901 -1.243991,-2.831052 -0.588063,-3.76256 z m -14.13764,2.003493 c 0.948399,0.02666 1.898809,0.245991 2.787941,0.71572 -3.939751,1.688462 -6.298406,2.568059 -8.046535,6.731375 -4.928102,-2.1087 0.13716,-7.591038 5.258594,-7.447095 z m 7.120996,0.870749 c -1.356995,25.873956 -23.443248,5.480496 0,0 z" id="path1955" inkscape:connector-curvature="0"/>
    <path style="display:inline;fill:#000000;stroke:none;stroke-width:0.20347999px;stroke-linecap:butt;stroke-linejoin:miter;stroke-opacity:1" d="m 141.13424,87.280299 c -4.32128,-0.0367 -8.47965,2.854664 -9.27023,7.423835 1.17292,-0.373208 2.75153,-0.230555 3.73774,0.451652 -9.64213,-0.221948 -11.7072,11.581234 -13.15733,24.532354 -0.88379,-1.83973 -1.92781,-3.36114 -4.35581,-3.60547 -2.68777,3.62703 -9.74299,3.06704 -10.30428,3.52124 -0.56126,0.45419 -0.22201,10.35137 -2.44273,10.99158 -0.82048,-1.25244 -2.33575,-2.71962 -2.90423,-4.05144 -0.94565,1.10542 -1.48725,5.38209 -2.469594,6.21099 -0.795867,-2.19374 -1.942015,-4.13566 -1.942015,-4.13566 -0.925883,0.6613 -2.597653,4.95283 -4.459156,5.33921 -0.459845,-2.98435 -1.198298,-5.51164 -3.227705,-8.12457 -9.052242,8.04591 -3.297264,21.59841 12.22767,27.72389 1.51955,1.82526 1.51619,4.98833 1.51619,7.58868 2.89788,1.34384 5.26188,1.8007 7.77576,3.52072 1.64005,-1.22886 2.59366,-2.65102 4.10051,-3.40445 1.11639,1.295 2.01748,2.70443 2.90164,4.17804 3.77489,-0.2454 5.67425,-1.92605 7.50495,-4.41058 0.0578,-1.11156 -0.62679,-2.14449 -0.95755,-3.01274 2.1368,-2.24621 1.09739,-7.03199 2.13373,-7.37216 0.82796,-0.27599 1.5843,-0.39367 2.32543,-0.8754 1.30683,-0.65517 2.46459,-1.94362 3.6654,-2.54402 1.46505,-0.73253 2.60475,0.81525 5.9087,0.19171 4.00095,-0.75508 8.18634,-2.69368 11.02413,-5.19761 l -5.38882,-0.4377 c 3.40725,-1.38928 6.65231,-1.97882 9.02734,-4.92373 -2.37513,0.5004 -3.66709,0.11418 -4.92423,-0.32867 1.6007,-0.71533 2.62112,-1.56026 3.5016,-2.95434 -2.65086,-0.18916 -5.11315,-0.50645 -7.33134,-2.02416 1.21952,-0.37077 2.17511,-0.61655 3.20548,-1.20923 -2.22322,-1.79147 -3.22419,-4.78579 -3.69745,-7.6538 2.29656,3.44492 3.91253,8.12957 9.51262,8.12251 2.3604,3.46283 6.94338,5.68988 10.4903,6.44663 0,0 -1.91428,-1.65868 -1.2919,-2.34146 2.93507,1.39193 4.99028,1.10958 6.57479,0.59893 0,0 -6.55058,-2.97496 -8.65373,-6.48022 0.96742,-0.12982 6.4172,1.56014 11.05151,-0.32815 -5.81691,-1.8596 -11.32313,-4.24376 -14.88128,-8.97258 2.53262,0.55086 6.31032,0.40743 8.64394,-1.36787 -2.47356,-0.33527 -5.66888,-1.67069 -8.0424,-2.46187 2.82725,0.22074 6.22842,0.20429 8.20674,-1.14928 -2.68963,-0.86241 -5.36067,-2.19018 -7.38614,-4.10311 3.57812,0.37542 6.32066,-0.3024 8.64444,-2.6262 -2.594,0.0157 -6.2176,-1.02985 -8.42531,-2.13372 2.96362,-0.20857 5.89841,-2.46874 5.92934,-4.54494 -3.72219,1.40994 -10.52489,1.32055 -13.68031,-0.86041 4.45344,0.19363 10.02019,0.0693 11.99256,-4.410585 -6.94148,1.673934 -9.76604,1.102518 -15.14687,-5.297869 -2.01782,-2.400144 -4.66934,-3.475961 -7.2621,-3.497977 z m -40.2363,57.292111 c 3.54762,4.35789 7.49512,8.45603 11.01379,7.59127 -0.034,4.15843 2.4811,5.97637 3.51195,7.75508 -1.96901,-1.7335 -3.94732,-2.86944 -4.92427,-6.37377 -5.74834,-1.41499 -7.44172,-4.66892 -9.60147,-8.97258 z" id="path1981" inkscape:connector-curvature="0"/>
    <path style="display:inline;fill:none;stroke:none;stroke-width:0.20347999px;stroke-linecap:butt;stroke-linejoin:miter;stroke-opacity:1" d="m 150.4657,142.22009 c -2.53607,0.0972 -4.03906,-0.0661 -5.389,-0.43769" id="path1979" inkscape:connector-curvature="0" sodipodi:nodetypes="cc"/>
    <path style="display:inline;fill:#000000;stroke:none;stroke-width:0.20347999px;stroke-linecap:butt;stroke-linejoin:miter;stroke-opacity:1" d="m 104.75972,164.80787 c -0.20521,0.001 -0.39539,0.0182 -0.5612,0.0527 -1.32655,0.27602 -3.24983,5.8135 -6.847129,8.66562 -3.597302,2.8521 -9.015678,0.41999 -11.563112,1.90789 -1.68492,0.98411 -0.811689,4.02572 -1.081591,7.07089 -0.269266,3.03795 2.545768,-0.45623 3.931021,-0.58343 0.893101,-0.082 -0.458417,4.02484 1.529106,3.29541 1.987524,-0.72944 3.704881,-7.47492 8.975672,-5.2617 5.270793,2.21323 5.000363,6.27763 6.409953,4.75113 1.4096,-1.52649 0.23977,-6.34121 -1.6247,-8.66562 0.50297,-1.68404 7.30845,-4.73176 2.36006,-5.4932 1.0409,-1.92842 1.81099,-3.02302 1.96059,-4.06849 0.13091,-0.91477 -2.05216,-1.67927 -3.48867,-1.67121 z m 0.62064,1.39526 c 0.39983,0.016 0.65434,0.17727 0.92654,0.32091 0.14621,0.36549 -1.72712,3.53312 -2.88613,5.36298 -0.57949,0.91493 1.81295,0.1149 1.47744,0.62787 -0.3355,0.51298 -3.39903,2.33918 -3.71708,2.98431 -0.50895,1.0323 2.927,3.41303 2.19469,4.27158 -0.30678,0.8585 -1.22068,-0.95164 -4.090193,-2.02779 -2.869486,-1.07614 -6.573652,0.0205 -7.54888,1.93632 -0.410845,0.80707 -0.227939,-2.8842 -4.212669,0.0491 -1.202135,0.88493 -1.782789,-3.84272 1.857772,-3.14606 2.207789,0.42249 7.558378,0.19195 9.748758,-2.3213 0.952952,-1.09341 3.510782,-4.59273 4.616762,-6.41408 0.94875,-1.56236 1.17875,-1.60559 1.17875,-1.60559 0.17158,-0.033 0.32097,-0.0436 0.45424,-0.0382 z" id="path1987" inkscape:connector-curvature="0"/>
    <path style="display:inline;fill:#000000;stroke:none;stroke-width:0.20347999px;stroke-linecap:butt;stroke-linejoin:miter;stroke-opacity:1" d="m 125.54708,164.93137 c -1.07182,0.004 -3.98827,1.92452 -3.93155,2.32906 0.22511,1.60461 4.47829,6.02095 3.20136,7.12411 -1.27694,1.10317 -7.44141,4.64673 -4.6762,8.05377 1.03074,1.12471 5.01222,-2.78054 5.58623,-2.2164 5.47854,5.38432 1.82676,-0.19593 6.74791,-1.44332 3.37116,-0.85452 6.40564,-0.0381 7.16957,0.3669 0.76396,0.40497 0.18447,-3.00198 -1.97816,-4.18527 -2.16265,-1.18328 -3.90871,-0.54746 -4.90926,-0.88935 -1.70939,-0.58412 1.4093,-3.64712 0.53382,-5.39812 -0.67617,-0.74424 -3.08054,1.92439 -4.22145,1.14515 -1.14091,-0.77924 -2.70283,-4.09083 -3.18998,-4.76044 -0.0638,-0.0877 -0.17917,-0.12664 -0.33229,-0.12609 z m -0.20412,2.1885 c 0.0692,0.003 0.12708,0.019 0.16795,0.0486 0.32692,0.23647 2.54993,5.29894 4.547,4.34443 1.9971,-0.9545 -0.25611,1.34898 0.18862,3.24528 0.44474,1.89631 5.32535,0.88828 5.2586,1.56218 -4.06236,-0.50152 -7.10208,2.389 -7.39283,2.71198 -0.29075,0.32299 -0.83741,-0.73989 -1.65002,-1.47019 -0.81262,-0.7303 -3.93724,1.74046 -3.93724,1.74046 1.14723,-2.87956 5.91259,-3.39374 3.9238,-6.70709 -1.9888,-3.31334 -2.32659,-3.92105 -2.49495,-4.45657 -0.14732,-0.46858 0.90467,-1.04159 1.38907,-1.01906 z" id="path1995" inkscape:connector-curvature="0"/>
  </g>
</svg>