<svg xmlns="http://www.w3.org/2000/svg" viewBox="0 0 500 500"><g id="freepik--background-complete--inject-65"><rect x="417.41" y="60.85" width="26.48" height="11.19" transform="translate(861.29 132.88) rotate(-180)" style="fill:#ebebeb"></rect><rect x="432.18" y="46.74" width="26.48" height="11.19" transform="translate(890.84 104.66) rotate(180)" style="fill:#ebebeb"></rect><rect x="117.14" y="229.02" width="26.48" height="11.19" transform="translate(260.77 469.23) rotate(180)" style="fill:#ebebeb"></rect><rect x="131.92" y="214.91" width="26.48" height="11.19" transform="translate(290.31 441.01) rotate(180)" style="fill:#ebebeb"></rect><rect x="146.63" y="229.02" width="26.48" height="11.19" transform="translate(319.74 469.23) rotate(180)" style="fill:#ebebeb"></rect><rect x="41.34" y="46.74" width="26.48" height="11.19" transform="translate(109.16 104.66) rotate(180)" style="fill:#ebebeb"></rect><rect x="56.11" y="329.85" width="26.48" height="11.19" transform="translate(138.71 670.89) rotate(180)" style="fill:#ebebeb"></rect><rect x="41.34" y="315.74" width="26.48" height="11.19" transform="translate(109.16 642.67) rotate(180)" style="fill:#ebebeb"></rect><rect x="417.41" y="329.85" width="26.48" height="11.19" transform="translate(861.29 670.89) rotate(-180)" style="fill:#ebebeb"></rect><circle cx="114.34" cy="84.59" r="32.2" transform="translate(-26.33 105.63) rotate(-45)" style="fill:#ebebeb"></circle><circle cx="115.82" cy="85.31" r="30.72" transform="translate(-17.97 138.15) rotate(-57.92)" style="fill:#dbdbdb"></circle><circle cx="115.82" cy="85.31" r="28.78" transform="translate(-23.71 50.31) rotate(-22.29)" style="fill:#fff"></circle><path d="M144,79.2c-13.11,7.94-34.65,21-46.69,28.11A28.68,28.68,0,0,1,89.4,96.74l39.82-36.91A28.86,28.86,0,0,1,144,79.2Z" style="fill:#ebebeb;opacity:0.5"></path><path d="M144.58,86.32a28.52,28.52,0,0,1-1.9,9.35l-35.9,17a28.9,28.9,0,0,1-4.53-2C113.09,104.43,132.91,93,144.58,86.32Z" style="fill:#ebebeb;opacity:0.5"></path><rect x="115.54" y="58.62" width="0.56" height="4.36" style="fill:#c7c7c7"></rect><rect x="103.29" y="61.9" width="0.56" height="4.36" transform="translate(-18.17 60.36) rotate(-30)" style="fill:#c7c7c7"></rect><rect x="94.31" y="70.87" width="0.56" height="4.36" transform="translate(-15.98 118.44) rotate(-60)" style="fill:#c7c7c7"></rect><rect x="89.13" y="85.03" width="4.36" height="0.56" style="fill:#c7c7c7"></rect><rect x="92.41" y="97.29" width="4.36" height="0.56" transform="translate(-36.11 60.38) rotate(-30)" style="fill:#c7c7c7"></rect><rect x="101.38" y="106.26" width="4.36" height="0.56" transform="translate(-40.47 143.03) rotate(-60.03)" style="fill:#c7c7c7"></rect><rect x="115.54" y="107.64" width="0.56" height="4.36" style="fill:#c7c7c7"></rect><rect x="127.8" y="104.36" width="0.56" height="4.36" transform="translate(-36.11 78.31) rotate(-30)" style="fill:#c7c7c7"></rect><rect x="136.77" y="95.39" width="0.56" height="4.36" transform="translate(-15.98 167.46) rotate(-60)" style="fill:#c7c7c7"></rect><rect x="138.15" y="85.03" width="4.36" height="0.56" style="fill:#c7c7c7"></rect><rect x="134.87" y="72.78" width="4.36" height="0.56" transform="translate(-18.17 78.34) rotate(-30.01)" style="fill:#c7c7c7"></rect><rect x="125.89" y="63.81" width="4.36" height="0.56" transform="translate(8.57 143.01) rotate(-60.02)" style="fill:#c7c7c7"></rect><polygon points="116.24 60.59 117.18 87.25 114.45 87.22 115.5 60.59 116.24 60.59" style="fill:#c7c7c7"></polygon><polygon points="132.84 76.02 114.91 87.46 113.6 85.06 132.49 75.36 132.84 76.02" style="fill:#a6a6a6"></polygon><path d="M116.75,85.31a.93.93,0,1,1-.93-.93A.93.93,0,0,1,116.75,85.31Z" style="fill:#c7c7c7"></path><rect x="203.2" y="175.69" width="56.43" height="216.79" style="fill:#c7c7c7"></rect><rect x="259.63" y="175.69" width="103.86" height="216.79" style="fill:#ebebeb"></rect><rect x="267.42" y="364.88" width="89.58" height="20.69" style="fill:#dbdbdb"></rect><rect x="271.19" y="368.3" width="50.99" height="1.75" style="fill:#ebebeb"></rect><rect x="271.19" y="371.32" width="50.99" height="1.75" style="fill:#ebebeb"></rect><rect x="271.19" y="374.35" width="50.99" height="1.75" style="fill:#ebebeb"></rect><rect x="271.19" y="377.38" width="50.99" height="1.75" style="fill:#ebebeb"></rect><rect x="271.19" y="380.4" width="50.99" height="1.75" style="fill:#ebebeb"></rect><path d="M331.47,370a1.73,1.73,0,1,1-1.73-1.73A1.72,1.72,0,0,1,331.47,370Z" style="fill:#fff"></path><path d="M337.18,370a1.73,1.73,0,1,1-1.73-1.73A1.72,1.72,0,0,1,337.18,370Z" style="fill:#fff"></path><path d="M342.89,370a1.73,1.73,0,1,1-1.73-1.73A1.72,1.72,0,0,1,342.89,370Z" style="fill:#fff"></path><path d="M348.6,370a1.73,1.73,0,1,1-1.73-1.73A1.73,1.73,0,0,1,348.6,370Z" style="fill:#fff"></path><path d="M354.31,370a1.74,1.74,0,1,1-1.73-1.73A1.73,1.73,0,0,1,354.31,370Z" style="fill:#fff"></path><path d="M331.47,375.22a1.73,1.73,0,1,1-1.73-1.73A1.73,1.73,0,0,1,331.47,375.22Z" style="fill:#fff"></path><path d="M337.18,375.22a1.73,1.73,0,1,1-1.73-1.73A1.73,1.73,0,0,1,337.18,375.22Z" style="fill:#fff"></path><path d="M342.89,375.22a1.73,1.73,0,1,1-1.73-1.73A1.73,1.73,0,0,1,342.89,375.22Z" style="fill:#fff"></path><path d="M348.6,375.22a1.73,1.73,0,1,1-1.73-1.73A1.74,1.74,0,0,1,348.6,375.22Z" style="fill:#fff"></path><path d="M354.31,375.22a1.74,1.74,0,1,1-1.73-1.73A1.74,1.74,0,0,1,354.31,375.22Z" style="fill:#fff"></path><path d="M331.47,380.42a1.73,1.73,0,1,1-1.73-1.73A1.72,1.72,0,0,1,331.47,380.42Z" style="fill:#fff"></path><path d="M337.18,380.42a1.73,1.73,0,1,1-1.73-1.73A1.72,1.72,0,0,1,337.18,380.42Z" style="fill:#fff"></path><path d="M342.89,380.42a1.73,1.73,0,1,1-1.73-1.73A1.72,1.72,0,0,1,342.89,380.42Z" style="fill:#fff"></path><path d="M348.6,380.42a1.73,1.73,0,1,1-1.73-1.73A1.73,1.73,0,0,1,348.6,380.42Z" style="fill:#fff"></path><path d="M354.31,380.42a1.74,1.74,0,1,1-1.73-1.73A1.73,1.73,0,0,1,354.31,380.42Z" style="fill:#fff"></path><rect x="324.73" y="368.3" width="1" height="13.85" style="fill:#c7c7c7"></rect><rect x="267.42" y="339.95" width="89.58" height="20.69" style="fill:#dbdbdb"></rect><rect x="271.19" y="343.36" width="50.99" height="1.75" style="fill:#ebebeb"></rect><rect x="271.19" y="346.39" width="50.99" height="1.75" style="fill:#ebebeb"></rect><rect x="271.19" y="349.42" width="50.99" height="1.75" style="fill:#ebebeb"></rect><rect x="271.19" y="352.44" width="50.99" height="1.75" style="fill:#ebebeb"></rect><rect x="271.19" y="355.47" width="50.99" height="1.75" style="fill:#ebebeb"></rect><circle cx="329.74" cy="345.1" r="1.73" style="fill:#fff"></circle><path d="M337.18,345.1a1.73,1.73,0,1,1-1.73-1.74A1.73,1.73,0,0,1,337.18,345.1Z" style="fill:#fff"></path><path d="M342.89,345.1a1.73,1.73,0,1,1-1.73-1.74A1.73,1.73,0,0,1,342.89,345.1Z" style="fill:#fff"></path><path d="M348.6,345.1a1.73,1.73,0,1,1-1.73-1.74A1.74,1.74,0,0,1,348.6,345.1Z" style="fill:#fff"></path><circle cx="352.58" cy="345.1" r="1.73" style="fill:#fff"></circle><circle cx="329.74" cy="350.29" r="1.73" style="fill:#fff"></circle><path d="M337.18,350.29a1.73,1.73,0,1,1-1.73-1.73A1.72,1.72,0,0,1,337.18,350.29Z" style="fill:#fff"></path><path d="M342.89,350.29a1.73,1.73,0,1,1-1.73-1.73A1.72,1.72,0,0,1,342.89,350.29Z" style="fill:#fff"></path><path d="M348.6,350.29a1.73,1.73,0,1,1-1.73-1.73A1.73,1.73,0,0,1,348.6,350.29Z" style="fill:#fff"></path><circle cx="352.58" cy="350.29" r="1.73" style="fill:#fff"></circle><circle cx="329.74" cy="355.49" r="1.73" style="fill:#fff"></circle><path d="M337.18,355.49a1.73,1.73,0,1,1-1.73-1.74A1.73,1.73,0,0,1,337.18,355.49Z" style="fill:#fff"></path><path d="M342.89,355.49a1.73,1.73,0,1,1-1.73-1.74A1.73,1.73,0,0,1,342.89,355.49Z" style="fill:#fff"></path><path d="M348.6,355.49a1.73,1.73,0,1,1-1.73-1.74A1.74,1.74,0,0,1,348.6,355.49Z" style="fill:#fff"></path><circle cx="352.58" cy="355.49" r="1.73" style="fill:#fff"></circle><rect x="324.73" y="343.36" width="1" height="13.85" style="fill:#c7c7c7"></rect><rect x="267.42" y="315.01" width="89.58" height="20.69" style="fill:#dbdbdb"></rect><rect x="271.19" y="318.43" width="50.99" height="1.75" style="fill:#ebebeb"></rect><rect x="271.19" y="321.46" width="50.99" height="1.75" style="fill:#ebebeb"></rect><rect x="271.19" y="324.48" width="50.99" height="1.75" style="fill:#ebebeb"></rect><rect x="271.19" y="327.51" width="50.99" height="1.75" style="fill:#ebebeb"></rect><rect x="271.19" y="330.54" width="50.99" height="1.75" style="fill:#ebebeb"></rect><path d="M331.47,320.16a1.73,1.73,0,1,1-1.73-1.73A1.72,1.72,0,0,1,331.47,320.16Z" style="fill:#fff"></path><path d="M337.18,320.16a1.73,1.73,0,1,1-1.73-1.73A1.72,1.72,0,0,1,337.18,320.16Z" style="fill:#fff"></path><path d="M342.89,320.16a1.73,1.73,0,1,1-1.73-1.73A1.72,1.72,0,0,1,342.89,320.16Z" style="fill:#fff"></path><path d="M348.6,320.16a1.73,1.73,0,1,1-1.73-1.73A1.73,1.73,0,0,1,348.6,320.16Z" style="fill:#fff"></path><path d="M354.31,320.16a1.74,1.74,0,1,1-1.73-1.73A1.73,1.73,0,0,1,354.31,320.16Z" style="fill:#fff"></path><path d="M331.47,325.36a1.73,1.73,0,1,1-1.73-1.73A1.73,1.73,0,0,1,331.47,325.36Z" style="fill:#fff"></path><path d="M337.18,325.36a1.73,1.73,0,1,1-1.73-1.73A1.73,1.73,0,0,1,337.18,325.36Z" style="fill:#fff"></path><path d="M342.89,325.36a1.73,1.73,0,1,1-1.73-1.73A1.73,1.73,0,0,1,342.89,325.36Z" style="fill:#fff"></path><path d="M348.6,325.36a1.73,1.73,0,1,1-1.73-1.73A1.74,1.74,0,0,1,348.6,325.36Z" style="fill:#fff"></path><path d="M354.31,325.36a1.74,1.74,0,1,1-1.73-1.73A1.74,1.74,0,0,1,354.31,325.36Z" style="fill:#fff"></path><path d="M331.47,330.55a1.73,1.73,0,1,1-1.73-1.73A1.72,1.72,0,0,1,331.47,330.55Z" style="fill:#fff"></path><path d="M337.18,330.55a1.73,1.73,0,1,1-1.73-1.73A1.72,1.72,0,0,1,337.18,330.55Z" style="fill:#fff"></path><path d="M342.89,330.55a1.73,1.73,0,1,1-1.73-1.73A1.72,1.72,0,0,1,342.89,330.55Z" style="fill:#fff"></path><path d="M348.6,330.55a1.73,1.73,0,1,1-1.73-1.73A1.73,1.73,0,0,1,348.6,330.55Z" style="fill:#fff"></path><path d="M354.31,330.55a1.74,1.74,0,1,1-1.73-1.73A1.73,1.73,0,0,1,354.31,330.55Z" style="fill:#fff"></path><rect x="324.73" y="318.43" width="1" height="13.85" style="fill:#c7c7c7"></rect><rect x="267.42" y="290.08" width="89.58" height="20.69" style="fill:#dbdbdb"></rect><rect x="271.19" y="293.5" width="50.99" height="1.75" style="fill:#ebebeb"></rect><rect x="271.19" y="296.52" width="50.99" height="1.75" style="fill:#ebebeb"></rect><rect x="271.19" y="299.55" width="50.99" height="1.75" style="fill:#ebebeb"></rect><rect x="271.19" y="302.58" width="50.99" height="1.75" style="fill:#ebebeb"></rect><rect x="271.19" y="305.6" width="50.99" height="1.75" style="fill:#ebebeb"></rect><path d="M331.47,295.23a1.73,1.73,0,1,1-1.73-1.73A1.72,1.72,0,0,1,331.47,295.23Z" style="fill:#fff"></path><path d="M337.18,295.23a1.73,1.73,0,1,1-1.73-1.73A1.72,1.72,0,0,1,337.18,295.23Z" style="fill:#fff"></path><path d="M342.89,295.23a1.73,1.73,0,1,1-1.73-1.73A1.72,1.72,0,0,1,342.89,295.23Z" style="fill:#fff"></path><path d="M348.6,295.23a1.73,1.73,0,1,1-1.73-1.73A1.73,1.73,0,0,1,348.6,295.23Z" style="fill:#fff"></path><path d="M354.31,295.23a1.74,1.74,0,1,1-1.73-1.73A1.73,1.73,0,0,1,354.31,295.23Z" style="fill:#fff"></path><path d="M331.47,300.42a1.73,1.73,0,1,1-1.73-1.73A1.73,1.73,0,0,1,331.47,300.42Z" style="fill:#fff"></path><path d="M337.18,300.42a1.73,1.73,0,1,1-1.73-1.73A1.73,1.73,0,0,1,337.18,300.42Z" style="fill:#fff"></path><path d="M342.89,300.42a1.73,1.73,0,1,1-1.73-1.73A1.73,1.73,0,0,1,342.89,300.42Z" style="fill:#fff"></path><path d="M348.6,300.42a1.73,1.73,0,1,1-1.73-1.73A1.74,1.74,0,0,1,348.6,300.42Z" style="fill:#fff"></path><path d="M354.31,300.42a1.74,1.74,0,1,1-1.73-1.73A1.74,1.74,0,0,1,354.31,300.42Z" style="fill:#fff"></path><path d="M331.47,305.62a1.73,1.73,0,1,1-1.73-1.73A1.72,1.72,0,0,1,331.47,305.62Z" style="fill:#fff"></path><path d="M337.18,305.62a1.73,1.73,0,1,1-1.73-1.73A1.72,1.72,0,0,1,337.18,305.62Z" style="fill:#fff"></path><path d="M342.89,305.62a1.73,1.73,0,1,1-1.73-1.73A1.72,1.72,0,0,1,342.89,305.62Z" style="fill:#fff"></path><path d="M348.6,305.62a1.73,1.73,0,1,1-1.73-1.73A1.73,1.73,0,0,1,348.6,305.62Z" style="fill:#fff"></path><path d="M354.31,305.62a1.74,1.74,0,1,1-1.73-1.73A1.73,1.73,0,0,1,354.31,305.62Z" style="fill:#fff"></path><rect x="324.73" y="293.5" width="1" height="13.85" style="fill:#c7c7c7"></rect><rect x="267.42" y="265.15" width="89.58" height="20.69" style="fill:#dbdbdb"></rect><rect x="271.19" y="268.56" width="50.99" height="1.75" style="fill:#ebebeb"></rect><rect x="271.19" y="271.59" width="50.99" height="1.75" style="fill:#ebebeb"></rect><rect x="271.19" y="274.62" width="50.99" height="1.75" style="fill:#ebebeb"></rect><rect x="271.19" y="277.64" width="50.99" height="1.75" style="fill:#ebebeb"></rect><rect x="271.19" y="280.67" width="50.99" height="1.75" style="fill:#ebebeb"></rect><path d="M331.47,270.3a1.73,1.73,0,1,1-1.73-1.74A1.73,1.73,0,0,1,331.47,270.3Z" style="fill:#fff"></path><path d="M337.18,270.3a1.73,1.73,0,1,1-1.73-1.74A1.73,1.73,0,0,1,337.18,270.3Z" style="fill:#fff"></path><path d="M342.89,270.3a1.73,1.73,0,1,1-1.73-1.74A1.73,1.73,0,0,1,342.89,270.3Z" style="fill:#fff"></path><path d="M348.6,270.3a1.73,1.73,0,1,1-1.73-1.74A1.74,1.74,0,0,1,348.6,270.3Z" style="fill:#fff"></path><path d="M354.31,270.3a1.74,1.74,0,1,1-1.73-1.74A1.74,1.74,0,0,1,354.31,270.3Z" style="fill:#fff"></path><path d="M331.47,275.49a1.73,1.73,0,1,1-1.73-1.73A1.72,1.72,0,0,1,331.47,275.49Z" style="fill:#fff"></path><path d="M337.18,275.49a1.73,1.73,0,1,1-1.73-1.73A1.72,1.72,0,0,1,337.18,275.49Z" style="fill:#fff"></path><path d="M342.89,275.49a1.73,1.73,0,1,1-1.73-1.73A1.72,1.72,0,0,1,342.89,275.49Z" style="fill:#fff"></path><path d="M348.6,275.49a1.73,1.73,0,1,1-1.73-1.73A1.73,1.73,0,0,1,348.6,275.49Z" style="fill:#fff"></path><path d="M354.31,275.49a1.74,1.74,0,1,1-1.73-1.73A1.73,1.73,0,0,1,354.31,275.49Z" style="fill:#fff"></path><path d="M331.47,280.69a1.73,1.73,0,1,1-1.73-1.74A1.73,1.73,0,0,1,331.47,280.69Z" style="fill:#fff"></path><path d="M337.18,280.69a1.73,1.73,0,1,1-1.73-1.74A1.73,1.73,0,0,1,337.18,280.69Z" style="fill:#fff"></path><path d="M342.89,280.69a1.73,1.73,0,1,1-1.73-1.74A1.73,1.73,0,0,1,342.89,280.69Z" style="fill:#fff"></path><path d="M348.6,280.69a1.73,1.73,0,1,1-1.73-1.74A1.74,1.74,0,0,1,348.6,280.69Z" style="fill:#fff"></path><path d="M354.31,280.69a1.74,1.74,0,1,1-1.73-1.74A1.74,1.74,0,0,1,354.31,280.69Z" style="fill:#fff"></path><rect x="324.73" y="268.56" width="1" height="13.85" style="fill:#c7c7c7"></rect><rect x="267.42" y="240.21" width="89.58" height="20.69" style="fill:#dbdbdb"></rect><rect x="271.19" y="243.63" width="50.99" height="1.75" style="fill:#ebebeb"></rect><rect x="271.19" y="246.66" width="50.99" height="1.75" style="fill:#ebebeb"></rect><rect x="271.19" y="249.68" width="50.99" height="1.75" style="fill:#ebebeb"></rect><rect x="271.19" y="252.71" width="50.99" height="1.75" style="fill:#ebebeb"></rect><rect x="271.19" y="255.74" width="50.99" height="1.75" style="fill:#ebebeb"></rect><path d="M331.47,245.36a1.73,1.73,0,1,1-1.73-1.73A1.72,1.72,0,0,1,331.47,245.36Z" style="fill:#fff"></path><path d="M337.18,245.36a1.73,1.73,0,1,1-1.73-1.73A1.72,1.72,0,0,1,337.18,245.36Z" style="fill:#fff"></path><path d="M342.89,245.36a1.73,1.73,0,1,1-1.73-1.73A1.72,1.72,0,0,1,342.89,245.36Z" style="fill:#fff"></path><path d="M348.6,245.36a1.73,1.73,0,1,1-1.73-1.73A1.73,1.73,0,0,1,348.6,245.36Z" style="fill:#fff"></path><path d="M354.31,245.36a1.74,1.74,0,1,1-1.73-1.73A1.73,1.73,0,0,1,354.31,245.36Z" style="fill:#fff"></path><path d="M331.47,250.56a1.73,1.73,0,1,1-1.73-1.73A1.73,1.73,0,0,1,331.47,250.56Z" style="fill:#fff"></path><path d="M337.18,250.56a1.73,1.73,0,1,1-1.73-1.73A1.73,1.73,0,0,1,337.18,250.56Z" style="fill:#fff"></path><path d="M342.89,250.56a1.73,1.73,0,1,1-1.73-1.73A1.73,1.73,0,0,1,342.89,250.56Z" style="fill:#fff"></path><path d="M348.6,250.56a1.73,1.73,0,1,1-1.73-1.73A1.74,1.74,0,0,1,348.6,250.56Z" style="fill:#fff"></path><path d="M354.31,250.56a1.74,1.74,0,1,1-1.73-1.73A1.74,1.74,0,0,1,354.31,250.56Z" style="fill:#fff"></path><path d="M331.47,255.75a1.73,1.73,0,1,1-1.73-1.73A1.72,1.72,0,0,1,331.47,255.75Z" style="fill:#fff"></path><path d="M337.18,255.75a1.73,1.73,0,1,1-1.73-1.73A1.72,1.72,0,0,1,337.18,255.75Z" style="fill:#fff"></path><path d="M342.89,255.75a1.73,1.73,0,1,1-1.73-1.73A1.72,1.72,0,0,1,342.89,255.75Z" style="fill:#fff"></path><path d="M348.6,255.75a1.73,1.73,0,1,1-1.73-1.73A1.73,1.73,0,0,1,348.6,255.75Z" style="fill:#fff"></path><path d="M354.31,255.75a1.74,1.74,0,1,1-1.73-1.73A1.73,1.73,0,0,1,354.31,255.75Z" style="fill:#fff"></path><rect x="324.73" y="243.63" width="1" height="13.85" style="fill:#c7c7c7"></rect><rect x="267.42" y="215.28" width="89.58" height="20.69" style="fill:#dbdbdb"></rect><rect x="271.19" y="218.7" width="50.99" height="1.75" style="fill:#ebebeb"></rect><rect x="271.19" y="221.72" width="50.99" height="1.75" style="fill:#ebebeb"></rect><rect x="271.19" y="224.75" width="50.99" height="1.75" style="fill:#ebebeb"></rect><rect x="271.19" y="227.78" width="50.99" height="1.75" style="fill:#ebebeb"></rect><rect x="271.19" y="230.81" width="50.99" height="1.75" style="fill:#ebebeb"></rect><circle cx="329.74" cy="220.43" r="1.73" style="fill:#fff"></circle><path d="M337.18,220.43a1.73,1.73,0,1,1-1.73-1.73A1.72,1.72,0,0,1,337.18,220.43Z" style="fill:#fff"></path><path d="M342.89,220.43a1.73,1.73,0,1,1-1.73-1.73A1.72,1.72,0,0,1,342.89,220.43Z" style="fill:#fff"></path><path d="M348.6,220.43a1.73,1.73,0,1,1-1.73-1.73A1.73,1.73,0,0,1,348.6,220.43Z" style="fill:#fff"></path><circle cx="352.58" cy="220.43" r="1.73" style="fill:#fff"></circle><circle cx="329.74" cy="225.62" r="1.73" style="fill:#fff"></circle><path d="M337.18,225.62a1.73,1.73,0,1,1-1.73-1.73A1.73,1.73,0,0,1,337.18,225.62Z" style="fill:#fff"></path><path d="M342.89,225.62a1.73,1.73,0,1,1-1.73-1.73A1.73,1.73,0,0,1,342.89,225.62Z" style="fill:#fff"></path><path d="M348.6,225.62a1.73,1.73,0,1,1-1.73-1.73A1.74,1.74,0,0,1,348.6,225.62Z" style="fill:#fff"></path><circle cx="352.58" cy="225.62" r="1.73" style="fill:#fff"></circle><circle cx="329.74" cy="230.82" r="1.73" style="fill:#fff"></circle><path d="M337.18,230.82a1.73,1.73,0,1,1-1.73-1.73A1.72,1.72,0,0,1,337.18,230.82Z" style="fill:#fff"></path><path d="M342.89,230.82a1.73,1.73,0,1,1-1.73-1.73A1.72,1.72,0,0,1,342.89,230.82Z" style="fill:#fff"></path><path d="M348.6,230.82a1.73,1.73,0,1,1-1.73-1.73A1.73,1.73,0,0,1,348.6,230.82Z" style="fill:#fff"></path><circle cx="352.58" cy="230.82" r="1.73" style="fill:#fff"></circle><rect x="324.73" y="218.7" width="1" height="13.85" style="fill:#c7c7c7"></rect><rect x="267.42" y="190.35" width="89.58" height="20.69" style="fill:#dbdbdb"></rect><rect x="271.19" y="193.76" width="50.99" height="1.75" style="fill:#ebebeb"></rect><rect x="271.19" y="196.79" width="50.99" height="1.75" style="fill:#ebebeb"></rect><rect x="271.19" y="199.82" width="50.99" height="1.75" style="fill:#ebebeb"></rect><rect x="271.19" y="202.85" width="50.99" height="1.75" style="fill:#ebebeb"></rect><rect x="271.19" y="205.87" width="50.99" height="1.75" style="fill:#ebebeb"></rect><circle cx="329.74" cy="195.5" r="1.73" style="fill:#fff"></circle><path d="M337.18,195.5a1.73,1.73,0,1,1-1.73-1.74A1.73,1.73,0,0,1,337.18,195.5Z" style="fill:#fff"></path><path d="M342.89,195.5a1.73,1.73,0,1,1-1.73-1.74A1.73,1.73,0,0,1,342.89,195.5Z" style="fill:#fff"></path><path d="M348.6,195.5a1.73,1.73,0,1,1-1.73-1.74A1.74,1.74,0,0,1,348.6,195.5Z" style="fill:#fff"></path><circle cx="352.58" cy="195.5" r="1.73" style="fill:#fff"></circle><path d="M331.47,200.69a1.73,1.73,0,1,1-1.73-1.73A1.72,1.72,0,0,1,331.47,200.69Z" style="fill:#fff"></path><path d="M337.18,200.69a1.73,1.73,0,1,1-1.73-1.73A1.72,1.72,0,0,1,337.18,200.69Z" style="fill:#fff"></path><path d="M342.89,200.69a1.73,1.73,0,1,1-1.73-1.73A1.72,1.72,0,0,1,342.89,200.69Z" style="fill:#fff"></path><path d="M348.6,200.69a1.73,1.73,0,1,1-1.73-1.73A1.73,1.73,0,0,1,348.6,200.69Z" style="fill:#fff"></path><path d="M354.31,200.69a1.74,1.74,0,1,1-1.73-1.73A1.73,1.73,0,0,1,354.31,200.69Z" style="fill:#fff"></path><path d="M331.47,205.89a1.73,1.73,0,1,1-1.73-1.74A1.73,1.73,0,0,1,331.47,205.89Z" style="fill:#fff"></path><path d="M337.18,205.89a1.73,1.73,0,1,1-1.73-1.74A1.73,1.73,0,0,1,337.18,205.89Z" style="fill:#fff"></path><path d="M342.89,205.89a1.73,1.73,0,1,1-1.73-1.74A1.73,1.73,0,0,1,342.89,205.89Z" style="fill:#fff"></path><path d="M348.6,205.89a1.73,1.73,0,1,1-1.73-1.74A1.74,1.74,0,0,1,348.6,205.89Z" style="fill:#fff"></path><path d="M354.31,205.89a1.74,1.74,0,1,1-1.73-1.74A1.74,1.74,0,0,1,354.31,205.89Z" style="fill:#fff"></path><rect x="324.73" y="193.76" width="1" height="13.85" style="fill:#c7c7c7"></rect><rect x="224.3" y="169.13" width="118.08" height="6.56" style="fill:#dbdbdb"></rect><rect x="42.28" y="151.69" width="56.43" height="240.79" style="fill:#c7c7c7"></rect><rect x="98.71" y="151.69" width="103.86" height="240.79" style="fill:#ebebeb"></rect><rect x="106.5" y="364.88" width="89.58" height="20.69" style="fill:#dbdbdb"></rect><rect x="110.27" y="368.3" width="50.99" height="1.75" style="fill:#ebebeb"></rect><rect x="110.27" y="371.32" width="50.99" height="1.75" style="fill:#ebebeb"></rect><rect x="110.27" y="374.35" width="50.99" height="1.75" style="fill:#ebebeb"></rect><rect x="110.27" y="377.38" width="50.99" height="1.75" style="fill:#ebebeb"></rect><rect x="110.27" y="380.4" width="50.99" height="1.75" style="fill:#ebebeb"></rect><path d="M170.56,370a1.74,1.74,0,1,1-1.74-1.73A1.73,1.73,0,0,1,170.56,370Z" style="fill:#fff"></path><path d="M176.26,370a1.73,1.73,0,1,1-1.73-1.73A1.72,1.72,0,0,1,176.26,370Z" style="fill:#fff"></path><path d="M182,370a1.73,1.73,0,1,1-1.73-1.73A1.72,1.72,0,0,1,182,370Z" style="fill:#fff"></path><path d="M187.68,370A1.73,1.73,0,1,1,186,368.3,1.72,1.72,0,0,1,187.68,370Z" style="fill:#fff"></path><path d="M193.39,370a1.73,1.73,0,1,1-1.73-1.73A1.72,1.72,0,0,1,193.39,370Z" style="fill:#fff"></path><path d="M170.56,375.22a1.74,1.74,0,1,1-1.74-1.73A1.74,1.74,0,0,1,170.56,375.22Z" style="fill:#fff"></path><path d="M176.26,375.22a1.73,1.73,0,1,1-1.73-1.73A1.73,1.73,0,0,1,176.26,375.22Z" style="fill:#fff"></path><path d="M182,375.22a1.73,1.73,0,1,1-1.73-1.73A1.73,1.73,0,0,1,182,375.22Z" style="fill:#fff"></path><path d="M187.68,375.22a1.73,1.73,0,1,1-1.73-1.73A1.73,1.73,0,0,1,187.68,375.22Z" style="fill:#fff"></path><path d="M193.39,375.22a1.73,1.73,0,1,1-1.73-1.73A1.73,1.73,0,0,1,193.39,375.22Z" style="fill:#fff"></path><path d="M170.56,380.42a1.74,1.74,0,1,1-1.74-1.73A1.73,1.73,0,0,1,170.56,380.42Z" style="fill:#fff"></path><path d="M176.26,380.42a1.73,1.73,0,1,1-1.73-1.73A1.72,1.72,0,0,1,176.26,380.42Z" style="fill:#fff"></path><path d="M182,380.42a1.73,1.73,0,1,1-1.73-1.73A1.72,1.72,0,0,1,182,380.42Z" style="fill:#fff"></path><path d="M187.68,380.42a1.73,1.73,0,1,1-1.73-1.73A1.72,1.72,0,0,1,187.68,380.42Z" style="fill:#fff"></path><path d="M193.39,380.42a1.73,1.73,0,1,1-1.73-1.73A1.72,1.72,0,0,1,193.39,380.42Z" style="fill:#fff"></path><rect x="163.81" y="368.3" width="1" height="13.85" style="fill:#c7c7c7"></rect><rect x="106.5" y="339.95" width="89.58" height="20.69" style="fill:#dbdbdb"></rect><rect x="110.27" y="343.36" width="50.99" height="1.75" style="fill:#ebebeb"></rect><rect x="110.27" y="346.39" width="50.99" height="1.75" style="fill:#ebebeb"></rect><rect x="110.27" y="349.42" width="50.99" height="1.75" style="fill:#ebebeb"></rect><rect x="110.27" y="352.44" width="50.99" height="1.75" style="fill:#ebebeb"></rect><rect x="110.27" y="355.47" width="50.99" height="1.75" style="fill:#ebebeb"></rect><circle cx="168.82" cy="345.1" r="1.73" style="fill:#fff"></circle><circle cx="174.53" cy="345.1" r="1.73" style="fill:#fff"></circle><path d="M182,345.1a1.73,1.73,0,1,1-1.73-1.74A1.73,1.73,0,0,1,182,345.1Z" style="fill:#fff"></path><path d="M187.68,345.1a1.73,1.73,0,1,1-1.73-1.74A1.73,1.73,0,0,1,187.68,345.1Z" style="fill:#fff"></path><path d="M193.39,345.1a1.73,1.73,0,1,1-1.73-1.74A1.73,1.73,0,0,1,193.39,345.1Z" style="fill:#fff"></path><circle cx="168.82" cy="350.29" r="1.73" style="fill:#fff"></circle><circle cx="174.53" cy="350.29" r="1.73" style="fill:#fff"></circle><path d="M182,350.29a1.73,1.73,0,1,1-1.73-1.73A1.72,1.72,0,0,1,182,350.29Z" style="fill:#fff"></path><path d="M187.68,350.29a1.73,1.73,0,1,1-1.73-1.73A1.72,1.72,0,0,1,187.68,350.29Z" style="fill:#fff"></path><path d="M193.39,350.29a1.73,1.73,0,1,1-1.73-1.73A1.72,1.72,0,0,1,193.39,350.29Z" style="fill:#fff"></path><circle cx="168.82" cy="355.49" r="1.73" style="fill:#fff"></circle><circle cx="174.53" cy="355.49" r="1.73" style="fill:#fff"></circle><path d="M182,355.49a1.73,1.73,0,1,1-1.73-1.74A1.73,1.73,0,0,1,182,355.49Z" style="fill:#fff"></path><path d="M187.68,355.49a1.73,1.73,0,1,1-1.73-1.74A1.73,1.73,0,0,1,187.68,355.49Z" style="fill:#fff"></path><path d="M193.39,355.49a1.73,1.73,0,1,1-1.73-1.74A1.73,1.73,0,0,1,193.39,355.49Z" style="fill:#fff"></path><rect x="163.81" y="343.36" width="1" height="13.85" style="fill:#c7c7c7"></rect><rect x="106.5" y="315.01" width="89.58" height="20.69" style="fill:#dbdbdb"></rect><rect x="110.27" y="318.43" width="50.99" height="1.75" style="fill:#ebebeb"></rect><rect x="110.27" y="321.46" width="50.99" height="1.75" style="fill:#ebebeb"></rect><rect x="110.27" y="324.48" width="50.99" height="1.75" style="fill:#ebebeb"></rect><rect x="110.27" y="327.51" width="50.99" height="1.75" style="fill:#ebebeb"></rect><rect x="110.27" y="330.54" width="50.99" height="1.75" style="fill:#ebebeb"></rect><path d="M170.56,320.16a1.74,1.74,0,1,1-1.74-1.73A1.73,1.73,0,0,1,170.56,320.16Z" style="fill:#fff"></path><path d="M176.26,320.16a1.73,1.73,0,1,1-1.73-1.73A1.72,1.72,0,0,1,176.26,320.16Z" style="fill:#fff"></path><path d="M182,320.16a1.73,1.73,0,1,1-1.73-1.73A1.72,1.72,0,0,1,182,320.16Z" style="fill:#fff"></path><path d="M187.68,320.16a1.73,1.73,0,1,1-1.73-1.73A1.72,1.72,0,0,1,187.68,320.16Z" style="fill:#fff"></path><path d="M193.39,320.16a1.73,1.73,0,1,1-1.73-1.73A1.72,1.72,0,0,1,193.39,320.16Z" style="fill:#fff"></path><path d="M170.56,325.36a1.74,1.74,0,1,1-1.74-1.73A1.74,1.74,0,0,1,170.56,325.36Z" style="fill:#fff"></path><path d="M176.26,325.36a1.73,1.73,0,1,1-1.73-1.73A1.73,1.73,0,0,1,176.26,325.36Z" style="fill:#fff"></path><path d="M182,325.36a1.73,1.73,0,1,1-1.73-1.73A1.73,1.73,0,0,1,182,325.36Z" style="fill:#fff"></path><path d="M187.68,325.36a1.73,1.73,0,1,1-1.73-1.73A1.73,1.73,0,0,1,187.68,325.36Z" style="fill:#fff"></path><path d="M193.39,325.36a1.73,1.73,0,1,1-1.73-1.73A1.73,1.73,0,0,1,193.39,325.36Z" style="fill:#fff"></path><path d="M170.56,330.55a1.74,1.74,0,1,1-1.74-1.73A1.73,1.73,0,0,1,170.56,330.55Z" style="fill:#fff"></path><path d="M176.26,330.55a1.73,1.73,0,1,1-1.73-1.73A1.72,1.72,0,0,1,176.26,330.55Z" style="fill:#fff"></path><path d="M182,330.55a1.73,1.73,0,1,1-1.73-1.73A1.72,1.72,0,0,1,182,330.55Z" style="fill:#fff"></path><path d="M187.68,330.55a1.73,1.73,0,1,1-1.73-1.73A1.72,1.72,0,0,1,187.68,330.55Z" style="fill:#fff"></path><path d="M193.39,330.55a1.73,1.73,0,1,1-1.73-1.73A1.72,1.72,0,0,1,193.39,330.55Z" style="fill:#fff"></path><rect x="163.81" y="318.43" width="1" height="13.85" style="fill:#c7c7c7"></rect><rect x="106.5" y="290.08" width="89.58" height="20.69" style="fill:#dbdbdb"></rect><rect x="110.27" y="293.5" width="50.99" height="1.75" style="fill:#ebebeb"></rect><rect x="110.27" y="296.52" width="50.99" height="1.75" style="fill:#ebebeb"></rect><rect x="110.27" y="299.55" width="50.99" height="1.75" style="fill:#ebebeb"></rect><rect x="110.27" y="302.58" width="50.99" height="1.75" style="fill:#ebebeb"></rect><rect x="110.27" y="305.6" width="50.99" height="1.75" style="fill:#ebebeb"></rect><path d="M170.56,295.23a1.74,1.74,0,1,1-1.74-1.73A1.73,1.73,0,0,1,170.56,295.23Z" style="fill:#fff"></path><path d="M176.26,295.23a1.73,1.73,0,1,1-1.73-1.73A1.72,1.72,0,0,1,176.26,295.23Z" style="fill:#fff"></path><path d="M182,295.23a1.73,1.73,0,1,1-1.73-1.73A1.72,1.72,0,0,1,182,295.23Z" style="fill:#fff"></path><path d="M187.68,295.23A1.73,1.73,0,1,1,186,293.5,1.72,1.72,0,0,1,187.68,295.23Z" style="fill:#fff"></path><path d="M193.39,295.23a1.73,1.73,0,1,1-1.73-1.73A1.72,1.72,0,0,1,193.39,295.23Z" style="fill:#fff"></path><path d="M170.56,300.42a1.74,1.74,0,1,1-1.74-1.73A1.74,1.74,0,0,1,170.56,300.42Z" style="fill:#fff"></path><path d="M176.26,300.42a1.73,1.73,0,1,1-1.73-1.73A1.73,1.73,0,0,1,176.26,300.42Z" style="fill:#fff"></path><path d="M182,300.42a1.73,1.73,0,1,1-1.73-1.73A1.73,1.73,0,0,1,182,300.42Z" style="fill:#fff"></path><path d="M187.68,300.42a1.73,1.73,0,1,1-1.73-1.73A1.73,1.73,0,0,1,187.68,300.42Z" style="fill:#fff"></path><path d="M193.39,300.42a1.73,1.73,0,1,1-1.73-1.73A1.73,1.73,0,0,1,193.39,300.42Z" style="fill:#fff"></path><path d="M170.56,305.62a1.74,1.74,0,1,1-1.74-1.73A1.73,1.73,0,0,1,170.56,305.62Z" style="fill:#fff"></path><path d="M176.26,305.62a1.73,1.73,0,1,1-1.73-1.73A1.72,1.72,0,0,1,176.26,305.62Z" style="fill:#fff"></path><path d="M182,305.62a1.73,1.73,0,1,1-1.73-1.73A1.72,1.72,0,0,1,182,305.62Z" style="fill:#fff"></path><path d="M187.68,305.62a1.73,1.73,0,1,1-1.73-1.73A1.72,1.72,0,0,1,187.68,305.62Z" style="fill:#fff"></path><path d="M193.39,305.62a1.73,1.73,0,1,1-1.73-1.73A1.72,1.72,0,0,1,193.39,305.62Z" style="fill:#fff"></path><rect x="163.81" y="293.5" width="1" height="13.85" style="fill:#c7c7c7"></rect><rect x="106.5" y="265.15" width="89.58" height="20.69" style="fill:#dbdbdb"></rect><rect x="110.27" y="268.56" width="50.99" height="1.75" style="fill:#ebebeb"></rect><rect x="110.27" y="271.59" width="50.99" height="1.75" style="fill:#ebebeb"></rect><rect x="110.27" y="274.62" width="50.99" height="1.75" style="fill:#ebebeb"></rect><rect x="110.27" y="277.64" width="50.99" height="1.75" style="fill:#ebebeb"></rect><rect x="110.27" y="280.67" width="50.99" height="1.75" style="fill:#ebebeb"></rect><path d="M170.56,270.3a1.74,1.74,0,1,1-1.74-1.74A1.74,1.74,0,0,1,170.56,270.3Z" style="fill:#fff"></path><path d="M176.26,270.3a1.73,1.73,0,1,1-1.73-1.74A1.73,1.73,0,0,1,176.26,270.3Z" style="fill:#fff"></path><path d="M182,270.3a1.73,1.73,0,1,1-1.73-1.74A1.73,1.73,0,0,1,182,270.3Z" style="fill:#fff"></path><path d="M187.68,270.3a1.73,1.73,0,1,1-1.73-1.74A1.73,1.73,0,0,1,187.68,270.3Z" style="fill:#fff"></path><path d="M193.39,270.3a1.73,1.73,0,1,1-1.73-1.74A1.73,1.73,0,0,1,193.39,270.3Z" style="fill:#fff"></path><path d="M170.56,275.49a1.74,1.74,0,1,1-1.74-1.73A1.73,1.73,0,0,1,170.56,275.49Z" style="fill:#fff"></path><path d="M176.26,275.49a1.73,1.73,0,1,1-1.73-1.73A1.72,1.72,0,0,1,176.26,275.49Z" style="fill:#fff"></path><path d="M182,275.49a1.73,1.73,0,1,1-1.73-1.73A1.72,1.72,0,0,1,182,275.49Z" style="fill:#fff"></path><path d="M187.68,275.49a1.73,1.73,0,1,1-1.73-1.73A1.72,1.72,0,0,1,187.68,275.49Z" style="fill:#fff"></path><path d="M193.39,275.49a1.73,1.73,0,1,1-1.73-1.73A1.72,1.72,0,0,1,193.39,275.49Z" style="fill:#fff"></path><path d="M170.56,280.69a1.74,1.74,0,1,1-1.74-1.74A1.74,1.74,0,0,1,170.56,280.69Z" style="fill:#fff"></path><path d="M176.26,280.69a1.73,1.73,0,1,1-1.73-1.74A1.73,1.73,0,0,1,176.26,280.69Z" style="fill:#fff"></path><path d="M182,280.69a1.73,1.73,0,1,1-1.73-1.74A1.73,1.73,0,0,1,182,280.69Z" style="fill:#fff"></path><path d="M187.68,280.69A1.73,1.73,0,1,1,186,279,1.73,1.73,0,0,1,187.68,280.69Z" style="fill:#fff"></path><path d="M193.39,280.69a1.73,1.73,0,1,1-1.73-1.74A1.73,1.73,0,0,1,193.39,280.69Z" style="fill:#fff"></path><rect x="163.81" y="268.56" width="1" height="13.85" style="fill:#c7c7c7"></rect><rect x="106.5" y="240.21" width="89.58" height="20.69" style="fill:#dbdbdb"></rect><rect x="110.27" y="243.63" width="50.99" height="1.75" style="fill:#ebebeb"></rect><rect x="110.27" y="246.66" width="50.99" height="1.75" style="fill:#ebebeb"></rect><rect x="110.27" y="249.68" width="50.99" height="1.75" style="fill:#ebebeb"></rect><rect x="110.27" y="252.71" width="50.99" height="1.75" style="fill:#ebebeb"></rect><rect x="110.27" y="255.74" width="50.99" height="1.75" style="fill:#ebebeb"></rect><path d="M170.56,245.36a1.74,1.74,0,1,1-1.74-1.73A1.73,1.73,0,0,1,170.56,245.36Z" style="fill:#fff"></path><path d="M176.26,245.36a1.73,1.73,0,1,1-1.73-1.73A1.72,1.72,0,0,1,176.26,245.36Z" style="fill:#fff"></path><path d="M182,245.36a1.73,1.73,0,1,1-1.73-1.73A1.72,1.72,0,0,1,182,245.36Z" style="fill:#fff"></path><path d="M187.68,245.36a1.73,1.73,0,1,1-1.73-1.73A1.72,1.72,0,0,1,187.68,245.36Z" style="fill:#fff"></path><path d="M193.39,245.36a1.73,1.73,0,1,1-1.73-1.73A1.72,1.72,0,0,1,193.39,245.36Z" style="fill:#fff"></path><path d="M170.56,250.56a1.74,1.74,0,1,1-1.74-1.73A1.74,1.74,0,0,1,170.56,250.56Z" style="fill:#fff"></path><path d="M176.26,250.56a1.73,1.73,0,1,1-1.73-1.73A1.73,1.73,0,0,1,176.26,250.56Z" style="fill:#fff"></path><path d="M182,250.56a1.73,1.73,0,1,1-1.73-1.73A1.73,1.73,0,0,1,182,250.56Z" style="fill:#fff"></path><path d="M187.68,250.56a1.73,1.73,0,1,1-1.73-1.73A1.73,1.73,0,0,1,187.68,250.56Z" style="fill:#fff"></path><path d="M193.39,250.56a1.73,1.73,0,1,1-1.73-1.73A1.73,1.73,0,0,1,193.39,250.56Z" style="fill:#fff"></path><path d="M170.56,255.75a1.74,1.74,0,1,1-1.74-1.73A1.73,1.73,0,0,1,170.56,255.75Z" style="fill:#fff"></path><path d="M176.26,255.75a1.73,1.73,0,1,1-1.73-1.73A1.72,1.72,0,0,1,176.26,255.75Z" style="fill:#fff"></path><path d="M182,255.75a1.73,1.73,0,1,1-1.73-1.73A1.72,1.72,0,0,1,182,255.75Z" style="fill:#fff"></path><path d="M187.68,255.75A1.73,1.73,0,1,1,186,254,1.72,1.72,0,0,1,187.68,255.75Z" style="fill:#fff"></path><path d="M193.39,255.75a1.73,1.73,0,1,1-1.73-1.73A1.72,1.72,0,0,1,193.39,255.75Z" style="fill:#fff"></path><rect x="163.81" y="243.63" width="1" height="13.85" style="fill:#c7c7c7"></rect><rect x="106.5" y="215.28" width="89.58" height="20.69" style="fill:#dbdbdb"></rect><rect x="110.27" y="218.7" width="50.99" height="1.75" style="fill:#ebebeb"></rect><rect x="110.27" y="221.72" width="50.99" height="1.75" style="fill:#ebebeb"></rect><rect x="110.27" y="224.75" width="50.99" height="1.75" style="fill:#ebebeb"></rect><rect x="110.27" y="227.78" width="50.99" height="1.75" style="fill:#ebebeb"></rect><rect x="110.27" y="230.81" width="50.99" height="1.75" style="fill:#ebebeb"></rect><circle cx="168.82" cy="220.43" r="1.73" style="fill:#fff"></circle><circle cx="174.53" cy="220.43" r="1.73" style="fill:#fff"></circle><path d="M182,220.43a1.73,1.73,0,1,1-1.73-1.73A1.72,1.72,0,0,1,182,220.43Z" style="fill:#fff"></path><path d="M187.68,220.43A1.73,1.73,0,1,1,186,218.7,1.72,1.72,0,0,1,187.68,220.43Z" style="fill:#fff"></path><path d="M193.39,220.43a1.73,1.73,0,1,1-1.73-1.73A1.72,1.72,0,0,1,193.39,220.43Z" style="fill:#fff"></path><circle cx="168.82" cy="225.62" r="1.73" style="fill:#fff"></circle><circle cx="174.53" cy="225.62" r="1.73" style="fill:#fff"></circle><path d="M182,225.62a1.73,1.73,0,1,1-1.73-1.73A1.73,1.73,0,0,1,182,225.62Z" style="fill:#fff"></path><path d="M187.68,225.62a1.73,1.73,0,1,1-1.73-1.73A1.73,1.73,0,0,1,187.68,225.62Z" style="fill:#fff"></path><path d="M193.39,225.62a1.73,1.73,0,1,1-1.73-1.73A1.73,1.73,0,0,1,193.39,225.62Z" style="fill:#fff"></path><circle cx="168.82" cy="230.82" r="1.73" style="fill:#fff"></circle><circle cx="174.53" cy="230.82" r="1.73" style="fill:#fff"></circle><path d="M182,230.82a1.73,1.73,0,1,1-1.73-1.73A1.72,1.72,0,0,1,182,230.82Z" style="fill:#fff"></path><path d="M187.68,230.82a1.73,1.73,0,1,1-1.73-1.73A1.72,1.72,0,0,1,187.68,230.82Z" style="fill:#fff"></path><path d="M193.39,230.82a1.73,1.73,0,1,1-1.73-1.73A1.72,1.72,0,0,1,193.39,230.82Z" style="fill:#fff"></path><rect x="163.81" y="218.7" width="1" height="13.85" style="fill:#c7c7c7"></rect><rect x="106.5" y="190.35" width="89.58" height="20.69" style="fill:#dbdbdb"></rect><rect x="110.27" y="193.76" width="50.99" height="1.75" style="fill:#ebebeb"></rect><rect x="110.27" y="196.79" width="50.99" height="1.75" style="fill:#ebebeb"></rect><rect x="110.27" y="199.82" width="50.99" height="1.75" style="fill:#ebebeb"></rect><rect x="110.27" y="202.85" width="50.99" height="1.75" style="fill:#ebebeb"></rect><rect x="110.27" y="205.87" width="50.99" height="1.75" style="fill:#ebebeb"></rect><circle cx="168.82" cy="195.5" r="1.73" style="fill:#fff"></circle><circle cx="174.53" cy="195.5" r="1.73" style="fill:#fff"></circle><path d="M182,195.5a1.73,1.73,0,1,1-1.73-1.74A1.73,1.73,0,0,1,182,195.5Z" style="fill:#fff"></path><path d="M187.68,195.5a1.73,1.73,0,1,1-1.73-1.74A1.73,1.73,0,0,1,187.68,195.5Z" style="fill:#fff"></path><path d="M193.39,195.5a1.73,1.73,0,1,1-1.73-1.74A1.73,1.73,0,0,1,193.39,195.5Z" style="fill:#fff"></path><path d="M170.56,200.69a1.74,1.74,0,1,1-1.74-1.73A1.73,1.73,0,0,1,170.56,200.69Z" style="fill:#fff"></path><path d="M176.26,200.69a1.73,1.73,0,1,1-1.73-1.73A1.72,1.72,0,0,1,176.26,200.69Z" style="fill:#fff"></path><path d="M182,200.69a1.73,1.73,0,1,1-1.73-1.73A1.72,1.72,0,0,1,182,200.69Z" style="fill:#fff"></path><path d="M187.68,200.69A1.73,1.73,0,1,1,186,199,1.72,1.72,0,0,1,187.68,200.69Z" style="fill:#fff"></path><path d="M193.39,200.69a1.73,1.73,0,1,1-1.73-1.73A1.72,1.72,0,0,1,193.39,200.69Z" style="fill:#fff"></path><path d="M170.56,205.89a1.74,1.74,0,1,1-1.74-1.74A1.74,1.74,0,0,1,170.56,205.89Z" style="fill:#fff"></path><path d="M176.26,205.89a1.73,1.73,0,1,1-1.73-1.74A1.73,1.73,0,0,1,176.26,205.89Z" style="fill:#fff"></path><path d="M182,205.89a1.73,1.73,0,1,1-1.73-1.74A1.73,1.73,0,0,1,182,205.89Z" style="fill:#fff"></path><path d="M187.68,205.89a1.73,1.73,0,1,1-1.73-1.74A1.73,1.73,0,0,1,187.68,205.89Z" style="fill:#fff"></path><path d="M193.39,205.89a1.73,1.73,0,1,1-1.73-1.74A1.73,1.73,0,0,1,193.39,205.89Z" style="fill:#fff"></path><rect x="163.81" y="193.76" width="1" height="13.85" style="fill:#c7c7c7"></rect><rect x="106.5" y="165.41" width="89.58" height="20.69" style="fill:#dbdbdb"></rect><rect x="110.27" y="168.83" width="50.99" height="1.75" style="fill:#ebebeb"></rect><rect x="110.27" y="171.86" width="50.99" height="1.75" style="fill:#ebebeb"></rect><rect x="110.27" y="174.89" width="50.99" height="1.75" style="fill:#ebebeb"></rect><rect x="110.27" y="177.91" width="50.99" height="1.75" style="fill:#ebebeb"></rect><rect x="110.27" y="180.94" width="50.99" height="1.75" style="fill:#ebebeb"></rect><path d="M170.56,170.56a1.74,1.74,0,1,1-1.74-1.73A1.73,1.73,0,0,1,170.56,170.56Z" style="fill:#fff"></path><path d="M176.26,170.56a1.73,1.73,0,1,1-1.73-1.73A1.72,1.72,0,0,1,176.26,170.56Z" style="fill:#fff"></path><path d="M182,170.56a1.73,1.73,0,1,1-1.73-1.73A1.72,1.72,0,0,1,182,170.56Z" style="fill:#fff"></path><path d="M187.68,170.56a1.73,1.73,0,1,1-1.73-1.73A1.72,1.72,0,0,1,187.68,170.56Z" style="fill:#fff"></path><path d="M193.39,170.56a1.73,1.73,0,1,1-1.73-1.73A1.72,1.72,0,0,1,193.39,170.56Z" style="fill:#fff"></path><path d="M170.56,175.76a1.74,1.74,0,1,1-1.74-1.73A1.74,1.74,0,0,1,170.56,175.76Z" style="fill:#fff"></path><path d="M176.26,175.76a1.73,1.73,0,1,1-1.73-1.73A1.73,1.73,0,0,1,176.26,175.76Z" style="fill:#fff"></path><path d="M182,175.76a1.73,1.73,0,1,1-1.73-1.73A1.73,1.73,0,0,1,182,175.76Z" style="fill:#fff"></path><path d="M187.68,175.76A1.73,1.73,0,1,1,186,174,1.73,1.73,0,0,1,187.68,175.76Z" style="fill:#fff"></path><path d="M193.39,175.76a1.73,1.73,0,1,1-1.73-1.73A1.73,1.73,0,0,1,193.39,175.76Z" style="fill:#fff"></path><path d="M170.56,181a1.74,1.74,0,1,1-1.74-1.73A1.73,1.73,0,0,1,170.56,181Z" style="fill:#fff"></path><path d="M176.26,181a1.73,1.73,0,1,1-1.73-1.73A1.72,1.72,0,0,1,176.26,181Z" style="fill:#fff"></path><path d="M182,181a1.73,1.73,0,1,1-1.73-1.73A1.72,1.72,0,0,1,182,181Z" style="fill:#fff"></path><path d="M187.68,181a1.73,1.73,0,1,1-1.73-1.73A1.72,1.72,0,0,1,187.68,181Z" style="fill:#fff"></path><path d="M193.39,181a1.73,1.73,0,1,1-1.73-1.73A1.72,1.72,0,0,1,193.39,181Z" style="fill:#fff"></path><rect x="163.81" y="168.83" width="1" height="13.85" style="fill:#c7c7c7"></rect><rect x="63.38" y="145.13" width="118.08" height="6.56" style="fill:#dbdbdb"></rect><polygon points="418.59 392.43 417.59 392.43 417.59 266.93 390.86 230.44 390.86 161.94 391.86 161.94 391.86 230.12 418.59 266.6 418.59 392.43" style="fill:#ebebeb"></polygon><path d="M391.36,162.49a2.88,2.88,0,1,1,2.88-2.88A2.88,2.88,0,0,1,391.36,162.49Zm0-4.75a1.88,1.88,0,1,0,1.88,1.87A1.87,1.87,0,0,0,391.36,157.74Z" style="fill:#ebebeb"></path><polygon points="411.71 392.43 410.71 392.43 410.71 271.33 383.98 234.85 383.98 186.94 384.98 186.94 384.98 234.53 411.71 271.01 411.71 392.43" style="fill:#ebebeb"></polygon><path d="M384.48,187.48a2.88,2.88,0,1,1,2.87-2.87A2.88,2.88,0,0,1,384.48,187.48Zm0-4.75a1.88,1.88,0,1,0,1.87,1.88A1.88,1.88,0,0,0,384.48,182.73Z" style="fill:#ebebeb"></path><rect x="424.22" y="226.02" width="1" height="166.41" style="fill:#ebebeb"></rect><path d="M424.72,226.52a2.88,2.88,0,1,1,2.88-2.88A2.88,2.88,0,0,1,424.72,226.52Zm0-4.75a1.88,1.88,0,1,0,1.88,1.87A1.87,1.87,0,0,0,424.72,221.77Z" style="fill:#ebebeb"></path><polygon points="431.61 392.43 430.61 392.43 430.61 307.73 448.76 273.5 448.76 212.26 449.76 212.26 449.76 273.75 431.61 307.98 431.61 392.43" style="fill:#ebebeb"></polygon><path d="M449.26,212.76a2.88,2.88,0,1,1,2.87-2.88A2.88,2.88,0,0,1,449.26,212.76Zm0-4.75a1.88,1.88,0,1,0,1.87,1.87A1.88,1.88,0,0,0,449.26,208Z" style="fill:#ebebeb"></path><polygon points="437.96 392.43 436.96 392.43 436.96 311.38 458.35 273.54 458.35 233.25 459.35 233.25 459.35 273.8 437.96 311.64 437.96 392.43" style="fill:#ebebeb"></polygon><path d="M458.85,233.75a2.88,2.88,0,1,1,2.88-2.87A2.88,2.88,0,0,1,458.85,233.75Zm0-4.75a1.88,1.88,0,1,0,1.88,1.88A1.88,1.88,0,0,0,458.85,229Z" style="fill:#ebebeb"></path></g><g id="freepik--Shadow--inject-65"><ellipse cx="250" cy="431.23" rx="211.65" ry="23.07" style="fill:#ebebeb"></ellipse></g><g id="freepik--Server--inject-65"><rect x="129.54" y="179.69" width="56.43" height="212.79" style="fill:#263238"></rect><rect x="185.98" y="179.69" width="103.86" height="212.79" style="fill:#455a64"></rect><rect x="193.76" y="364.88" width="89.58" height="20.69" style="fill:#37474f"></rect><rect x="197.53" y="368.3" width="50.99" height="1.75" style="fill:#455a64"></rect><rect x="197.53" y="371.32" width="50.99" height="1.75" style="fill:#455a64"></rect><rect x="197.53" y="374.35" width="50.99" height="1.75" style="fill:#455a64"></rect><rect x="197.53" y="377.38" width="50.99" height="1.75" style="fill:#455a64"></rect><rect x="197.53" y="380.4" width="50.99" height="1.75" style="fill:#455a64"></rect><path d="M257.82,370a1.73,1.73,0,1,1-1.73-1.73A1.73,1.73,0,0,1,257.82,370Z" style="fill:#EC0F0F"></path><path d="M263.53,370a1.74,1.74,0,1,1-1.73-1.73A1.73,1.73,0,0,1,263.53,370Z" style="fill:#EC0F0F"></path><path d="M269.24,370a1.74,1.74,0,1,1-1.74-1.73A1.73,1.73,0,0,1,269.24,370Z" style="fill:#EC0F0F"></path><path d="M274.94,370a1.73,1.73,0,1,1-1.73-1.73A1.72,1.72,0,0,1,274.94,370Z" style="fill:#EC0F0F"></path><path d="M280.65,370a1.73,1.73,0,1,1-1.73-1.73A1.72,1.72,0,0,1,280.65,370Z" style="fill:#EC0F0F"></path><path d="M257.82,375.22a1.73,1.73,0,1,1-1.73-1.73A1.74,1.74,0,0,1,257.82,375.22Z" style="fill:#EC0F0F"></path><path d="M263.53,375.22a1.74,1.74,0,1,1-1.73-1.73A1.74,1.74,0,0,1,263.53,375.22Z" style="fill:#EC0F0F"></path><path d="M269.24,375.22a1.74,1.74,0,1,1-1.74-1.73A1.74,1.74,0,0,1,269.24,375.22Z" style="fill:#EC0F0F"></path><path d="M274.94,375.22a1.73,1.73,0,1,1-1.73-1.73A1.73,1.73,0,0,1,274.94,375.22Z" style="fill:#EC0F0F"></path><path d="M280.65,375.22a1.73,1.73,0,1,1-1.73-1.73A1.73,1.73,0,0,1,280.65,375.22Z" style="fill:#EC0F0F"></path><path d="M257.82,380.42a1.73,1.73,0,1,1-1.73-1.73A1.73,1.73,0,0,1,257.82,380.42Z" style="fill:#EC0F0F"></path><path d="M263.53,380.42a1.74,1.74,0,1,1-1.73-1.73A1.73,1.73,0,0,1,263.53,380.42Z" style="fill:#EC0F0F"></path><path d="M269.24,380.42a1.74,1.74,0,1,1-1.74-1.73A1.73,1.73,0,0,1,269.24,380.42Z" style="fill:#EC0F0F"></path><path d="M274.94,380.42a1.73,1.73,0,1,1-1.73-1.73A1.72,1.72,0,0,1,274.94,380.42Z" style="fill:#EC0F0F"></path><path d="M280.65,380.42a1.73,1.73,0,1,1-1.73-1.73A1.72,1.72,0,0,1,280.65,380.42Z" style="fill:#EC0F0F"></path><rect x="251.07" y="368.3" width="1" height="13.85" style="fill:#263238"></rect><rect x="193.76" y="339.95" width="89.58" height="20.69" style="fill:#37474f"></rect><rect x="197.53" y="343.36" width="50.99" height="1.75" style="fill:#455a64"></rect><rect x="197.53" y="346.39" width="50.99" height="1.75" style="fill:#455a64"></rect><rect x="197.53" y="349.42" width="50.99" height="1.75" style="fill:#455a64"></rect><rect x="197.53" y="352.44" width="50.99" height="1.75" style="fill:#455a64"></rect><rect x="197.53" y="355.47" width="50.99" height="1.75" style="fill:#455a64"></rect><path d="M257.82,345.1a1.73,1.73,0,1,1-1.73-1.74A1.74,1.74,0,0,1,257.82,345.1Z" style="fill:#EC0F0F"></path><circle cx="261.8" cy="345.1" r="1.73" style="fill:#EC0F0F"></circle><circle cx="267.5" cy="345.1" r="1.73" style="fill:#EC0F0F"></circle><path d="M274.94,345.1a1.73,1.73,0,1,1-1.73-1.74A1.73,1.73,0,0,1,274.94,345.1Z" style="fill:#EC0F0F"></path><path d="M280.65,345.1a1.73,1.73,0,1,1-1.73-1.74A1.73,1.73,0,0,1,280.65,345.1Z" style="fill:#EC0F0F"></path><path d="M257.82,350.29a1.73,1.73,0,1,1-1.73-1.73A1.73,1.73,0,0,1,257.82,350.29Z" style="fill:#EC0F0F"></path><circle cx="261.8" cy="350.29" r="1.73" style="fill:#EC0F0F"></circle><circle cx="267.5" cy="350.29" r="1.73" style="fill:#EC0F0F"></circle><path d="M274.94,350.29a1.73,1.73,0,1,1-1.73-1.73A1.72,1.72,0,0,1,274.94,350.29Z" style="fill:#EC0F0F"></path><path d="M280.65,350.29a1.73,1.73,0,1,1-1.73-1.73A1.72,1.72,0,0,1,280.65,350.29Z" style="fill:#EC0F0F"></path><path d="M257.82,355.49a1.73,1.73,0,1,1-1.73-1.74A1.74,1.74,0,0,1,257.82,355.49Z" style="fill:#EC0F0F"></path><circle cx="261.8" cy="355.49" r="1.73" style="fill:#EC0F0F"></circle><circle cx="267.5" cy="355.49" r="1.73" style="fill:#EC0F0F"></circle><path d="M274.94,355.49a1.73,1.73,0,1,1-1.73-1.74A1.73,1.73,0,0,1,274.94,355.49Z" style="fill:#EC0F0F"></path><path d="M280.65,355.49a1.73,1.73,0,1,1-1.73-1.74A1.73,1.73,0,0,1,280.65,355.49Z" style="fill:#EC0F0F"></path><rect x="251.07" y="343.36" width="1" height="13.85" style="fill:#263238"></rect><rect x="193.76" y="315.01" width="89.58" height="20.69" style="fill:#37474f"></rect><rect x="197.53" y="318.43" width="50.99" height="1.75" style="fill:#455a64"></rect><rect x="197.53" y="321.46" width="50.99" height="1.75" style="fill:#455a64"></rect><rect x="197.53" y="324.48" width="50.99" height="1.75" style="fill:#455a64"></rect><rect x="197.53" y="327.51" width="50.99" height="1.75" style="fill:#455a64"></rect><rect x="197.53" y="330.54" width="50.99" height="1.75" style="fill:#455a64"></rect><path d="M257.82,320.16a1.73,1.73,0,1,1-1.73-1.73A1.73,1.73,0,0,1,257.82,320.16Z" style="fill:#EC0F0F"></path><path d="M263.53,320.16a1.74,1.74,0,1,1-1.73-1.73A1.73,1.73,0,0,1,263.53,320.16Z" style="fill:#EC0F0F"></path><path d="M269.24,320.16a1.74,1.74,0,1,1-1.74-1.73A1.73,1.73,0,0,1,269.24,320.16Z" style="fill:#EC0F0F"></path><path d="M274.94,320.16a1.73,1.73,0,1,1-1.73-1.73A1.72,1.72,0,0,1,274.94,320.16Z" style="fill:#EC0F0F"></path><path d="M280.65,320.16a1.73,1.73,0,1,1-1.73-1.73A1.72,1.72,0,0,1,280.65,320.16Z" style="fill:#EC0F0F"></path><path d="M257.82,325.36a1.73,1.73,0,1,1-1.73-1.73A1.74,1.74,0,0,1,257.82,325.36Z" style="fill:#EC0F0F"></path><path d="M263.53,325.36a1.74,1.74,0,1,1-1.73-1.73A1.74,1.74,0,0,1,263.53,325.36Z" style="fill:#EC0F0F"></path><path d="M269.24,325.36a1.74,1.74,0,1,1-1.74-1.73A1.74,1.74,0,0,1,269.24,325.36Z" style="fill:#EC0F0F"></path><path d="M274.94,325.36a1.73,1.73,0,1,1-1.73-1.73A1.73,1.73,0,0,1,274.94,325.36Z" style="fill:#EC0F0F"></path><path d="M280.65,325.36a1.73,1.73,0,1,1-1.73-1.73A1.73,1.73,0,0,1,280.65,325.36Z" style="fill:#EC0F0F"></path><path d="M257.82,330.55a1.73,1.73,0,1,1-1.73-1.73A1.73,1.73,0,0,1,257.82,330.55Z" style="fill:#EC0F0F"></path><path d="M263.53,330.55a1.74,1.74,0,1,1-1.73-1.73A1.73,1.73,0,0,1,263.53,330.55Z" style="fill:#EC0F0F"></path><path d="M269.24,330.55a1.74,1.74,0,1,1-1.74-1.73A1.73,1.73,0,0,1,269.24,330.55Z" style="fill:#EC0F0F"></path><path d="M274.94,330.55a1.73,1.73,0,1,1-1.73-1.73A1.72,1.72,0,0,1,274.94,330.55Z" style="fill:#EC0F0F"></path><path d="M280.65,330.55a1.73,1.73,0,1,1-1.73-1.73A1.72,1.72,0,0,1,280.65,330.55Z" style="fill:#EC0F0F"></path><rect x="251.07" y="318.43" width="1" height="13.85" style="fill:#263238"></rect><rect x="193.76" y="290.08" width="89.58" height="20.69" style="fill:#37474f"></rect><rect x="197.53" y="293.5" width="50.99" height="1.75" style="fill:#455a64"></rect><rect x="197.53" y="296.52" width="50.99" height="1.75" style="fill:#455a64"></rect><rect x="197.53" y="299.55" width="50.99" height="1.75" style="fill:#455a64"></rect><rect x="197.53" y="302.58" width="50.99" height="1.75" style="fill:#455a64"></rect><rect x="197.53" y="305.6" width="50.99" height="1.75" style="fill:#455a64"></rect><path d="M257.82,295.23a1.73,1.73,0,1,1-1.73-1.73A1.73,1.73,0,0,1,257.82,295.23Z" style="fill:#EC0F0F"></path><path d="M263.53,295.23a1.74,1.74,0,1,1-1.73-1.73A1.73,1.73,0,0,1,263.53,295.23Z" style="fill:#EC0F0F"></path><path d="M269.24,295.23a1.74,1.74,0,1,1-1.74-1.73A1.73,1.73,0,0,1,269.24,295.23Z" style="fill:#EC0F0F"></path><path d="M274.94,295.23a1.73,1.73,0,1,1-1.73-1.73A1.72,1.72,0,0,1,274.94,295.23Z" style="fill:#EC0F0F"></path><path d="M280.65,295.23a1.73,1.73,0,1,1-1.73-1.73A1.72,1.72,0,0,1,280.65,295.23Z" style="fill:#EC0F0F"></path><path d="M257.82,300.42a1.73,1.73,0,1,1-1.73-1.73A1.74,1.74,0,0,1,257.82,300.42Z" style="fill:#EC0F0F"></path><path d="M263.53,300.42a1.74,1.74,0,1,1-1.73-1.73A1.74,1.74,0,0,1,263.53,300.42Z" style="fill:#EC0F0F"></path><path d="M269.24,300.42a1.74,1.74,0,1,1-1.74-1.73A1.74,1.74,0,0,1,269.24,300.42Z" style="fill:#EC0F0F"></path><path d="M274.94,300.42a1.73,1.73,0,1,1-1.73-1.73A1.73,1.73,0,0,1,274.94,300.42Z" style="fill:#EC0F0F"></path><path d="M280.65,300.42a1.73,1.73,0,1,1-1.73-1.73A1.73,1.73,0,0,1,280.65,300.42Z" style="fill:#EC0F0F"></path><path d="M257.82,305.62a1.73,1.73,0,1,1-1.73-1.73A1.73,1.73,0,0,1,257.82,305.62Z" style="fill:#EC0F0F"></path><path d="M263.53,305.62a1.74,1.74,0,1,1-1.73-1.73A1.73,1.73,0,0,1,263.53,305.62Z" style="fill:#EC0F0F"></path><path d="M269.24,305.62a1.74,1.74,0,1,1-1.74-1.73A1.73,1.73,0,0,1,269.24,305.62Z" style="fill:#EC0F0F"></path><path d="M274.94,305.62a1.73,1.73,0,1,1-1.73-1.73A1.72,1.72,0,0,1,274.94,305.62Z" style="fill:#EC0F0F"></path><path d="M280.65,305.62a1.73,1.73,0,1,1-1.73-1.73A1.72,1.72,0,0,1,280.65,305.62Z" style="fill:#EC0F0F"></path><rect x="251.07" y="293.5" width="1" height="13.85" style="fill:#263238"></rect><rect x="193.76" y="265.15" width="89.58" height="20.69" style="fill:#37474f"></rect><rect x="197.53" y="268.56" width="50.99" height="1.75" style="fill:#455a64"></rect><rect x="197.53" y="271.59" width="50.99" height="1.75" style="fill:#455a64"></rect><rect x="197.53" y="274.62" width="50.99" height="1.75" style="fill:#455a64"></rect><rect x="197.53" y="277.64" width="50.99" height="1.75" style="fill:#455a64"></rect><rect x="197.53" y="280.67" width="50.99" height="1.75" style="fill:#455a64"></rect><path d="M257.82,270.3a1.73,1.73,0,1,1-1.73-1.74A1.74,1.74,0,0,1,257.82,270.3Z" style="fill:#EC0F0F"></path><path d="M263.53,270.3a1.74,1.74,0,1,1-1.73-1.74A1.74,1.74,0,0,1,263.53,270.3Z" style="fill:#EC0F0F"></path><path d="M269.24,270.3a1.74,1.74,0,1,1-1.74-1.74A1.74,1.74,0,0,1,269.24,270.3Z" style="fill:#EC0F0F"></path><path d="M274.94,270.3a1.73,1.73,0,1,1-1.73-1.74A1.73,1.73,0,0,1,274.94,270.3Z" style="fill:#EC0F0F"></path><path d="M280.65,270.3a1.73,1.73,0,1,1-1.73-1.74A1.73,1.73,0,0,1,280.65,270.3Z" style="fill:#EC0F0F"></path><path d="M257.82,275.49a1.73,1.73,0,1,1-1.73-1.73A1.73,1.73,0,0,1,257.82,275.49Z" style="fill:#EC0F0F"></path><path d="M263.53,275.49a1.74,1.74,0,1,1-1.73-1.73A1.73,1.73,0,0,1,263.53,275.49Z" style="fill:#EC0F0F"></path><path d="M269.24,275.49a1.74,1.74,0,1,1-1.74-1.73A1.73,1.73,0,0,1,269.24,275.49Z" style="fill:#EC0F0F"></path><path d="M274.94,275.49a1.73,1.73,0,1,1-1.73-1.73A1.72,1.72,0,0,1,274.94,275.49Z" style="fill:#EC0F0F"></path><path d="M280.65,275.49a1.73,1.73,0,1,1-1.73-1.73A1.72,1.72,0,0,1,280.65,275.49Z" style="fill:#EC0F0F"></path><path d="M257.82,280.69a1.73,1.73,0,1,1-1.73-1.74A1.74,1.74,0,0,1,257.82,280.69Z" style="fill:#EC0F0F"></path><path d="M263.53,280.69A1.74,1.74,0,1,1,261.8,279,1.74,1.74,0,0,1,263.53,280.69Z" style="fill:#EC0F0F"></path><path d="M269.24,280.69A1.74,1.74,0,1,1,267.5,279,1.74,1.74,0,0,1,269.24,280.69Z" style="fill:#EC0F0F"></path><path d="M274.94,280.69a1.73,1.73,0,1,1-1.73-1.74A1.73,1.73,0,0,1,274.94,280.69Z" style="fill:#EC0F0F"></path><path d="M280.65,280.69a1.73,1.73,0,1,1-1.73-1.74A1.73,1.73,0,0,1,280.65,280.69Z" style="fill:#EC0F0F"></path><rect x="251.07" y="268.56" width="1" height="13.85" style="fill:#263238"></rect><rect x="193.76" y="240.21" width="89.58" height="20.69" style="fill:#37474f"></rect><rect x="197.53" y="243.63" width="50.99" height="1.75" style="fill:#455a64"></rect><rect x="197.53" y="246.66" width="50.99" height="1.75" style="fill:#455a64"></rect><rect x="197.53" y="249.68" width="50.99" height="1.75" style="fill:#455a64"></rect><rect x="197.53" y="252.71" width="50.99" height="1.75" style="fill:#455a64"></rect><rect x="197.53" y="255.74" width="50.99" height="1.75" style="fill:#455a64"></rect><path d="M257.82,245.36a1.73,1.73,0,1,1-1.73-1.73A1.73,1.73,0,0,1,257.82,245.36Z" style="fill:#EC0F0F"></path><path d="M263.53,245.36a1.74,1.74,0,1,1-1.73-1.73A1.73,1.73,0,0,1,263.53,245.36Z" style="fill:#EC0F0F"></path><path d="M269.24,245.36a1.74,1.74,0,1,1-1.74-1.73A1.73,1.73,0,0,1,269.24,245.36Z" style="fill:#EC0F0F"></path><path d="M274.94,245.36a1.73,1.73,0,1,1-1.73-1.73A1.72,1.72,0,0,1,274.94,245.36Z" style="fill:#EC0F0F"></path><path d="M280.65,245.36a1.73,1.73,0,1,1-1.73-1.73A1.72,1.72,0,0,1,280.65,245.36Z" style="fill:#EC0F0F"></path><path d="M257.82,250.56a1.73,1.73,0,1,1-1.73-1.73A1.74,1.74,0,0,1,257.82,250.56Z" style="fill:#EC0F0F"></path><path d="M263.53,250.56a1.74,1.74,0,1,1-1.73-1.73A1.74,1.74,0,0,1,263.53,250.56Z" style="fill:#EC0F0F"></path><path d="M269.24,250.56a1.74,1.74,0,1,1-1.74-1.73A1.74,1.74,0,0,1,269.24,250.56Z" style="fill:#EC0F0F"></path><path d="M274.94,250.56a1.73,1.73,0,1,1-1.73-1.73A1.73,1.73,0,0,1,274.94,250.56Z" style="fill:#EC0F0F"></path><path d="M280.65,250.56a1.73,1.73,0,1,1-1.73-1.73A1.73,1.73,0,0,1,280.65,250.56Z" style="fill:#EC0F0F"></path><path d="M257.82,255.75a1.73,1.73,0,1,1-1.73-1.73A1.73,1.73,0,0,1,257.82,255.75Z" style="fill:#EC0F0F"></path><path d="M263.53,255.75A1.74,1.74,0,1,1,261.8,254,1.73,1.73,0,0,1,263.53,255.75Z" style="fill:#EC0F0F"></path><path d="M269.24,255.75A1.74,1.74,0,1,1,267.5,254,1.73,1.73,0,0,1,269.24,255.75Z" style="fill:#EC0F0F"></path><path d="M274.94,255.75a1.73,1.73,0,1,1-1.73-1.73A1.72,1.72,0,0,1,274.94,255.75Z" style="fill:#EC0F0F"></path><path d="M280.65,255.75a1.73,1.73,0,1,1-1.73-1.73A1.72,1.72,0,0,1,280.65,255.75Z" style="fill:#EC0F0F"></path><rect x="251.07" y="243.63" width="1" height="13.85" style="fill:#263238"></rect><rect x="213.76" y="215.28" width="89.58" height="20.69" style="fill:#37474f"></rect><rect x="217.53" y="218.7" width="50.99" height="1.75" style="fill:#455a64"></rect><rect x="217.53" y="221.72" width="50.99" height="1.75" style="fill:#455a64"></rect><rect x="217.53" y="224.75" width="50.99" height="1.75" style="fill:#455a64"></rect><rect x="217.53" y="227.78" width="50.99" height="1.75" style="fill:#455a64"></rect><rect x="217.53" y="230.81" width="50.99" height="1.75" style="fill:#455a64"></rect><path d="M277.82,220.43a1.73,1.73,0,1,1-1.73-1.73A1.73,1.73,0,0,1,277.82,220.43Z" style="fill:#EC0F0F"></path><circle cx="281.8" cy="220.43" r="1.73" style="fill:#EC0F0F"></circle><circle cx="287.5" cy="220.43" r="1.73" style="fill:#EC0F0F"></circle><path d="M294.94,220.43a1.73,1.73,0,1,1-1.73-1.73A1.72,1.72,0,0,1,294.94,220.43Z" style="fill:#EC0F0F"></path><path d="M300.65,220.43a1.73,1.73,0,1,1-1.73-1.73A1.72,1.72,0,0,1,300.65,220.43Z" style="fill:#EC0F0F"></path><path d="M277.82,225.62a1.73,1.73,0,1,1-1.73-1.73A1.74,1.74,0,0,1,277.82,225.62Z" style="fill:#EC0F0F"></path><circle cx="281.8" cy="225.62" r="1.73" style="fill:#EC0F0F"></circle><circle cx="287.5" cy="225.62" r="1.73" style="fill:#EC0F0F"></circle><path d="M294.94,225.62a1.73,1.73,0,1,1-1.73-1.73A1.73,1.73,0,0,1,294.94,225.62Z" style="fill:#EC0F0F"></path><path d="M300.65,225.62a1.73,1.73,0,1,1-1.73-1.73A1.73,1.73,0,0,1,300.65,225.62Z" style="fill:#EC0F0F"></path><path d="M277.82,230.82a1.73,1.73,0,1,1-1.73-1.73A1.73,1.73,0,0,1,277.82,230.82Z" style="fill:#EC0F0F"></path><circle cx="281.8" cy="230.82" r="1.73" style="fill:#EC0F0F"></circle><circle cx="287.5" cy="230.82" r="1.73" style="fill:#EC0F0F"></circle><path d="M294.94,230.82a1.73,1.73,0,1,1-1.73-1.73A1.72,1.72,0,0,1,294.94,230.82Z" style="fill:#EC0F0F"></path><path d="M300.65,230.82a1.73,1.73,0,1,1-1.73-1.73A1.72,1.72,0,0,1,300.65,230.82Z" style="fill:#EC0F0F"></path><rect x="271.07" y="218.7" width="1" height="13.85" style="fill:#263238"></rect><rect x="193.76" y="215.28" width="20" height="20.69" style="fill:#263238"></rect><rect x="193.76" y="190.35" width="89.58" height="20.69" style="fill:#37474f"></rect><rect x="197.53" y="193.76" width="50.99" height="1.75" style="fill:#455a64"></rect><rect x="197.53" y="196.79" width="50.99" height="1.75" style="fill:#455a64"></rect><rect x="197.53" y="199.82" width="50.99" height="1.75" style="fill:#455a64"></rect><rect x="197.53" y="202.85" width="50.99" height="1.75" style="fill:#455a64"></rect><rect x="197.53" y="205.87" width="50.99" height="1.75" style="fill:#455a64"></rect><path d="M257.82,195.5a1.73,1.73,0,1,1-1.73-1.74A1.74,1.74,0,0,1,257.82,195.5Z" style="fill:#EC0F0F"></path><circle cx="261.8" cy="195.5" r="1.73" style="fill:#EC0F0F"></circle><circle cx="267.5" cy="195.5" r="1.73" style="fill:#EC0F0F"></circle><path d="M274.94,195.5a1.73,1.73,0,1,1-1.73-1.74A1.73,1.73,0,0,1,274.94,195.5Z" style="fill:#EC0F0F"></path><path d="M280.65,195.5a1.73,1.73,0,1,1-1.73-1.74A1.73,1.73,0,0,1,280.65,195.5Z" style="fill:#EC0F0F"></path><path d="M257.82,200.69a1.73,1.73,0,1,1-1.73-1.73A1.73,1.73,0,0,1,257.82,200.69Z" style="fill:#EC0F0F"></path><path d="M263.53,200.69A1.74,1.74,0,1,1,261.8,199,1.73,1.73,0,0,1,263.53,200.69Z" style="fill:#EC0F0F"></path><path d="M269.24,200.69A1.74,1.74,0,1,1,267.5,199,1.73,1.73,0,0,1,269.24,200.69Z" style="fill:#EC0F0F"></path><path d="M274.94,200.69a1.73,1.73,0,1,1-1.73-1.73A1.72,1.72,0,0,1,274.94,200.69Z" style="fill:#EC0F0F"></path><path d="M280.65,200.69a1.73,1.73,0,1,1-1.73-1.73A1.72,1.72,0,0,1,280.65,200.69Z" style="fill:#EC0F0F"></path><path d="M257.82,205.89a1.73,1.73,0,1,1-1.73-1.74A1.74,1.74,0,0,1,257.82,205.89Z" style="fill:#EC0F0F"></path><path d="M263.53,205.89a1.74,1.74,0,1,1-1.73-1.74A1.74,1.74,0,0,1,263.53,205.89Z" style="fill:#EC0F0F"></path><path d="M269.24,205.89a1.74,1.74,0,1,1-1.74-1.74A1.74,1.74,0,0,1,269.24,205.89Z" style="fill:#EC0F0F"></path><path d="M274.94,205.89a1.73,1.73,0,1,1-1.73-1.74A1.73,1.73,0,0,1,274.94,205.89Z" style="fill:#EC0F0F"></path><path d="M280.65,205.89a1.73,1.73,0,1,1-1.73-1.74A1.73,1.73,0,0,1,280.65,205.89Z" style="fill:#EC0F0F"></path><rect x="251.07" y="193.76" width="1" height="13.85" style="fill:#263238"></rect><rect x="150.65" y="173.13" width="118.08" height="6.56" style="fill:#37474f"></rect></g><g id="freepik--Floor--inject-65"><polygon points="29.71 392.48 84.78 392.24 139.85 392.15 250 391.98 360.15 392.15 415.22 392.23 470.29 392.48 415.22 392.72 360.15 392.81 250 392.98 139.85 392.81 84.78 392.72 29.71 392.48" style="fill:#263238"></polygon></g><g id="freepik--Character--inject-65"><path d="M309.92,438.31c2.17.72,64.32.54,66.69-1,.89-.57,1.39-9.63,1.69-20.58.07-2.37.15-40.51.15-40.51H338l.24,40.51s-23.76,10.72-26.17,12.65S307.75,437.59,309.92,438.31Z" style="fill:#eb9481"></path><path d="M378.15,421.57c-.31,8.69-.79,15.3-1.55,15.78-2.36,1.5-64.51,1.68-66.69,1s-.26-7,2.14-8.89c1.33-1.06,9.11-4.78,15.84-7.91-2.35,1.46-5.35,3.53-5.08,4.76C323.33,428.68,354.28,430.25,378.15,421.57Z" style="fill:#263238"></path><path d="M393.31,203.85S382.37,312,382.12,313.37c0,.18-.12,2.26-.22,5.66-.59,18.61-1.26,82.12-1.26,82.12H336s2.12-74.21,3.79-90.25c2.13-20.47,15.65-107,15.65-107Z" style="fill:#37474f"></path><path d="M376.8,317.18q2.06-35.15,6.2-70.13c1.57-13.14,3.45-26.24,5.33-39.33,0-.12.19-.11.18,0-3.45,23.31-5.9,46.81-8,70.28-.74,8.29-2.15,22.57-2.9,39.22-1.37,30.4-2,66.77-2.23,75.38a.25.25,0,0,1-.49,0C375.51,368.84,375.4,340.9,376.8,317.18Z" style="fill:#263238"></path><path d="M339.09,393.75c20.33-.64,37.93-.19,39.45-.07,1.26.1.56.23-.07.27-17.26,1-38.71.06-39.38,0A.09.09,0,0,1,339.09,393.75Z" style="fill:#263238"></path><path d="M393.31,203.85S382.37,312,382.12,313.37c0,.18-.12,2.26-.22,5.66l-21-115.18Z" style="fill:#263238"></path><path d="M380.41,443.7c2.26.39,64.9-9.26,67-11.1.81-.68-10.33-60-10.33-60l-40.88,6,7.52,40.59s-20.41,13.09-22.52,15.35S378.16,443.3,380.41,443.7Z" style="fill:#eb9481"></path><path d="M447.42,432.6c-2.12,1.84-64.76,11.49-67,11.1s-1.28-6.87.82-9.12c1.22-1.31,8.56-6.23,14.53-10.16-2.12,1.84-5.1,4.64-4.61,5.88.91,2.3,31.81-1.35,53.89-14C446.6,425.43,447.69,432.37,447.42,432.6Z" style="fill:#263238"></path><path d="M355.47,203.85s1.31,11,7.63,19c1.51,1.9,6.16,3.67,8.56,5.42,0,0,9,82.46,11.71,91.8,3,10.37,14.88,81.31,14.88,81.31l46-6.34s-13.37-66.55-16.69-83.8c-.75-3.85-10.73-76.42-10.5-78.1,2.68-20-7-29.24-7-29.24Z" style="fill:#37474f"></path><path d="M390.59,204.64a19.8,19.8,0,0,0,5.55,9.88,18.09,18.09,0,0,0,10.1,5.1c.6.06.52.47-.11.46-7.28,0-14.68-5.93-15.84-15.39A.15.15,0,1,1,390.59,204.64Z" style="fill:#263238"></path><path d="M362.24,222.47a40.05,40.05,0,0,1,7.51,4c2.5,1.54,4.81,3.35,7.22,5,.09.07,0,.22-.09.16-2.53-1.46-5.16-2.72-7.66-4.22a47.67,47.67,0,0,1-7.09-4.75A.12.12,0,0,1,362.24,222.47Z" style="fill:#263238"></path><path d="M361.21,207.31c.39,1.66.88,3.31,1.32,5s.73,3.14,1.22,4.67a8.06,8.06,0,0,0,2.37,3.85c.64.55,1.34,1,2,1.51.37.27.76.52,1.14.79l-.15-.67-.42-1.9c-.3-1.4-.59-2.81-.87-4.22-.56-2.77-1.08-5.57-1.78-8.3a.09.09,0,0,1,.17-.05c.82,2.7,1.71,5.37,2.44,8.11.36,1.34,1.72,8,1.79,8.44s.13,1,.17,1.46a5.81,5.81,0,0,1,.07,1.5c0,.12-.17.11-.22,0h0a6,6,0,0,1-.49-1.44,14.35,14.35,0,0,1-.38-1.43c0-.17-.08-.35-.11-.53-.67-.37-1.31-.87-1.95-1.28s-1.38-.89-2-1.39a7.55,7.55,0,0,1-2.57-3.64,28.59,28.59,0,0,1-1-4.76c-.29-1.89-.54-3.79-.89-5.67C361,207.25,361.19,207.19,361.21,207.31Z" style="fill:#263238"></path><path d="M400.39,392.26c20-3.47,37.53-5.47,39.05-5.56,1.26-.08.59.15,0,.27-17,3.43-38.32,5.46-39,5.47A.09.09,0,0,1,400.39,392.26Z" style="fill:#263238"></path><path d="M430.36,346.72c-2.63-11.53-5-23.1-7-34.77s-3.52-23.28-5-35-3-23.56-4.52-35.34A49.85,49.85,0,0,1,413,233c.13-2.83,1.1-5.55,1.37-8.36a37.8,37.8,0,0,0-2.31-16.1c-.46-1.3-1-2.58-1.53-3.85-.07-.16-.34-.09-.28.09,1.77,5.33,3.4,10.8,3.48,16.46a38.44,38.44,0,0,1-1.1,8.54,24.49,24.49,0,0,0-.15,8.28c1.46,11.73,3,23.46,4.49,35.18s3,23.36,4.88,35,4,23.11,6.65,34.56,5.33,23.06,8.22,34.54c.36,1.43.72,2.85,1.09,4.27,0,.17.29.09.25-.08C435.76,369.84,433,358.29,430.36,346.72Z" style="fill:#263238"></path><path d="M385.91,100.87c6.49,5,9.32,14.26,9.32,14.26s6.73,8.83,5.83,14.18a9.53,9.53,0,0,1-5.2,7.12l.19-2.93s-1.39,3.9-7.41,6.16-14.44,1.37-19-.26a16.44,16.44,0,0,1-7-4.73l2.12,4a12.41,12.41,0,0,1-10.42-5.41c-4.37-6,4.74-16.44,5.36-18.53S359.7,98,375.2,98.62C375.2,98.62,381.44,97.42,385.91,100.87Z" style="fill:#263238"></path><path d="M398,135.78a13.84,13.84,0,0,0,3.49-4.71,9,9,0,0,0,.25-5.81,20,20,0,0,0-3.66-6.05c-1.49-1.92-3.14-3.74-4.6-5.69-.08-.11.08-.22.18-.14a53.3,53.3,0,0,1,4.39,4.5,26,26,0,0,1,3.62,4.72,9.66,9.66,0,0,1,1.36,5.23,9.35,9.35,0,0,1-1.4,4.23,19.46,19.46,0,0,1-3.53,3.83A.07.07,0,1,1,398,135.78Z" style="fill:#263238"></path><path d="M352.31,126.79c1.15-5.54,5.51-9.51,7.84-14.51,1.26-2.7,2.13-5.63,3.91-8.07.05-.06.16,0,.12.08-1.44,2.18-2.12,4.66-3.05,7.06a39.73,39.73,0,0,1-3.74,6.83c-2.56,4-5.63,8.7-4.31,13.67.61,2.29,2.31,4.7,4.8,5.13.09,0,.05.17,0,.15a7.57,7.57,0,0,1-4.7-3.67A9.62,9.62,0,0,1,352.31,126.79Z" style="fill:#263238"></path><path d="M352.27,128.25a9.88,9.88,0,0,1,.6-5.93,13.93,13.93,0,0,1,3.84-4.59c1.74-1.5,3.6-3,4.55-5.11,0-.09.17,0,.14.08-1.51,3.54-4.95,5.53-7.07,8.62-2.42,3.53-1.84,8.16.55,11.55a16.29,16.29,0,0,0,5.76,4.89,0,0,0,0,1,0,.06C356.73,135.91,353.11,132.68,352.27,128.25Z" style="fill:#263238"></path><path d="M378.27,147c-7.4,19.58-16.62,35.61-22.8,38.72-5,2.51-43.86,4.16-45.2,4.1-3.3-.17-6.18-22.46-3.55-24.84.61-.54,37.42,1.62,38.75.61s14.32-13.76,24.66-23.51C377.37,135.22,382.38,136.12,378.27,147Z" style="fill:#eb9481"></path><path d="M317.11,188.37a80.93,80.93,0,0,1-10.18,2.46c-2.73.36-10.62,1.18-11.31-1.79-.48-2,4.11-3,7.33-3.85,1.7-.42,3.92-1.79,3.61-2.89-.55-1.92-4.93-.74-7.88.41-5.69,2.24-13.49,6.64-16.28,3.5-1-1.19.63-2.8,3-4.27-3.64,1.57-7.45,2.74-8.68,1.47a1.78,1.78,0,0,1,0-2.44,2.36,2.36,0,0,1-2.51-.79c-.91-1.3-.12-2.89,1.32-4.42a1.33,1.33,0,0,1-.88-.8c-1.76-3.84,11.24-12.11,15.35-12.44a89.15,89.15,0,0,1,24.34,1.92C318.29,168.8,317.12,188.36,317.11,188.37Z" style="fill:#eb9481"></path><path d="M301.62,174.87a19.21,19.21,0,0,0-8.24,1.8c-3,1.45-5.56,3.68-8.4,5.41-.07,0,0,.16.08.11,1.35-.91,2.8-1.69,4.19-2.55s2.69-1.72,4.09-2.46a19.1,19.1,0,0,1,8.28-2.26S301.65,174.87,301.62,174.87Z" style="fill:#263238"></path><path d="M300.2,169.59a46.78,46.78,0,0,0-9.53,1.75c-3.35,1.11-6.19,3.32-9,5.44q-2.5,1.92-4.92,3.94c-.07.05,0,.17.08.12q4.23-3.3,8.67-6.35a25.17,25.17,0,0,1,9-3.94c1.85-.4,3.74-.65,5.62-.91C300.24,169.64,300.24,169.58,300.2,169.59Z" style="fill:#263238"></path><path d="M297.59,164.76c-3.07.15-5.75.28-8.63,1.47a43.23,43.23,0,0,0-9.11,5.7c-1.52,1.2-3,2.44-4.45,3.71-.06.05,0,.16.09.11A98.63,98.63,0,0,1,286,168.14a19.93,19.93,0,0,1,5.58-2.53,36.5,36.5,0,0,1,6.06-.83S297.61,164.76,297.59,164.76Z" style="fill:#263238"></path><path d="M313.72,163.61l3,28.18s30.49-1.47,39.51-6.1,19.11-29.57,23-40.46-4.3-8.56-9.82-3.49-23.73,22.52-24.31,22.9S313.72,163.61,313.72,163.61Z" style="fill:#EC0F0F"></path><path d="M341.76,184.87a1.36,1.36,0,0,0-.89,1.26,1.07,1.07,0,0,1-.5.92,1.1,1.1,0,0,1-.56.19c-.23,0-.46.07-.68.13a2.45,2.45,0,0,0,1.43.06,1.4,1.4,0,0,0,.84-1.29,1.09,1.09,0,0,1,1.11-1.06c.22-.05.45-.08.68-.14A2.74,2.74,0,0,0,341.76,184.87ZM325.32,186a1.37,1.37,0,0,0-.89,1.26,1,1,0,0,1-.49.92,1.14,1.14,0,0,1-.57.19,5.28,5.28,0,0,0-.67.13,2.43,2.43,0,0,0,1.42.05,1.38,1.38,0,0,0,.85-1.28,1.08,1.08,0,0,1,.52-.9,1.17,1.17,0,0,1,.59-.17c.22,0,.44-.07.67-.13A2.73,2.73,0,0,0,325.32,186Zm16.92-15.55a1.36,1.36,0,0,0-.89,1.26,1.08,1.08,0,0,1-.5.92,1.1,1.1,0,0,1-.56.19,5.1,5.1,0,0,0-.68.13,2.46,2.46,0,0,0,1.43,0,1.39,1.39,0,0,0,.84-1.28,1.1,1.1,0,0,1,.52-.9,1.2,1.2,0,0,1,.59-.17c.22,0,.45-.07.68-.13A2.74,2.74,0,0,0,342.24,170.43Zm-26.75-6.74a1.24,1.24,0,0,0,0,.27,1.08,1.08,0,0,1-.5.92,1.1,1.1,0,0,1-.56.19,4.59,4.59,0,0,0-.51.1.51.51,0,0,0-.17,0l.17,0a2.06,2.06,0,0,0,1.26,0A1.41,1.41,0,0,0,316,164a.75.75,0,0,1,0-.26Zm55.59-1a1.35,1.35,0,0,0-.88,1.26,1.07,1.07,0,0,1-.5.92,1.14,1.14,0,0,1-.57.19c-.22,0-.45.07-.67.13a2.42,2.42,0,0,0,1.42.06,1.41,1.41,0,0,0,.85-1.29,1.11,1.11,0,0,1,.52-.9,1.08,1.08,0,0,1,.59-.16l.22,0c0-.06.05-.11.07-.16A1.87,1.87,0,0,0,371.08,162.7Zm-19.74-.64a1.39,1.39,0,0,0-.89,1.27,1,1,0,0,1-.49.92,1.13,1.13,0,0,1-.57.18c-.22,0-.45.07-.67.13a2.35,2.35,0,0,0,1.42.06,1.38,1.38,0,0,0,.85-1.28,1.1,1.1,0,0,1,.52-.9,1.17,1.17,0,0,1,.59-.17l.67-.13A2.62,2.62,0,0,0,351.34,162.06ZM373.6,149.8a1.37,1.37,0,0,0-1.5.31,1.08,1.08,0,0,1-1.53,0c-.19-.13-.38-.26-.58-.38a2.61,2.61,0,0,0,1,1.06,1.37,1.37,0,0,0,1.52-.26,1.12,1.12,0,0,1,1.53,0,4.52,4.52,0,0,0,.58.39C374.31,150.48,374.12,150,373.6,149.8ZM334,179a1.36,1.36,0,0,0-1.5.31,1.08,1.08,0,0,1-1,.26,1.19,1.19,0,0,1-.52-.29c-.2-.13-.38-.27-.58-.39a2.71,2.71,0,0,0,1,1.07,1.39,1.39,0,0,0,1.51-.27,1.11,1.11,0,0,1,1-.3,1,1,0,0,1,.53.27c.2.13.37.27.58.39C334.75,179.63,334.56,179.18,334,179Zm.37-14.49-1.7-.06h0a.65.65,0,0,0-.16.13,1.08,1.08,0,0,1-1,.26,1.19,1.19,0,0,1-.52-.29l-.26-.18h-.18a2,2,0,0,0,.82.87,1.35,1.35,0,0,0,1.51-.27,1.11,1.11,0,0,1,1-.3,1,1,0,0,1,.53.27c.2.13.37.27.58.39A4.53,4.53,0,0,0,334.41,164.47ZM317.79,179a1.38,1.38,0,0,0-1.51.31,1,1,0,0,1-.85.28l.05.47a1.4,1.4,0,0,0,1.17-.37,1.1,1.1,0,0,1,1-.3,1.08,1.08,0,0,1,.53.27c.2.13.37.27.57.39C318.5,179.63,318.31,179.18,317.79,179Zm34-.6a1.38,1.38,0,0,0-1.51.31,1.06,1.06,0,0,1-1,.26,1.27,1.27,0,0,1-.53-.29c-.19-.13-.37-.27-.57-.39a2.57,2.57,0,0,0,1,1.07,1.37,1.37,0,0,0,1.51-.26,1.09,1.09,0,0,1,1-.31,1.08,1.08,0,0,1,.53.27c.2.13.37.27.58.39C352.48,179,352.29,178.58,351.77,178.36Zm9.08-6.7a1.43,1.43,0,0,0-1.29-.84,1.08,1.08,0,0,1-.9-.52,1.28,1.28,0,0,1-.17-.58c0-.22-.07-.45-.13-.68a2.73,2.73,0,0,0-.07,1.43,1.36,1.36,0,0,0,1.26.88,1.12,1.12,0,0,1,.93.51,1.16,1.16,0,0,1,.18.56c0,.23.07.45.13.68A2.49,2.49,0,0,0,360.85,171.66Zm1.36-13a1.39,1.39,0,0,0-1.28-.84,1.1,1.1,0,0,1-.9-.52,1.17,1.17,0,0,1-.17-.58c0-.23-.07-.46-.13-.68a2.63,2.63,0,0,0-.07,1.43,1.34,1.34,0,0,0,1.25.88,1.11,1.11,0,0,1,.93.5,1.2,1.2,0,0,1,.19.57,4.16,4.16,0,0,0,.13.67A2.46,2.46,0,0,0,362.21,158.64ZM326,172.48a1.35,1.35,0,0,0-1.28-.84,1.06,1.06,0,0,1-.89-.53,1.24,1.24,0,0,1-.18-.58,5.28,5.28,0,0,0-.13-.67,2.69,2.69,0,0,0-.07,1.42,1.36,1.36,0,0,0,1.27.89,1.11,1.11,0,0,1,1.1,1.07c.05.22.07.44.13.67A2.38,2.38,0,0,0,326,172.48Z" style="fill:#fff"></path><path d="M324,190.33a62.77,62.77,0,0,0-.68-6.28q-.39-3.08-.83-6.15c-.58-4.13-1.07-8.3-1.92-12.39a.08.08,0,0,0-.15,0c.18,4.2.79,8.4,1.35,12.57q.42,3.14.93,6.25a52.64,52.64,0,0,0,1.14,6C323.84,190.46,324,190.41,324,190.33Z" style="fill:#263238"></path><path d="M379.22,145.23c-3.86,10.89-13.94,35.83-23,40.46-4.51,2.31-14.37,3.84-23.12,4.79l43.52-52.9C379.65,137,381.46,138.9,379.22,145.23Z" style="fill:#263238"></path><path d="M311.87,302.66c-9.78,0-12.76-30.71-14.15-53.8-.09-1.46-.16-2.63-.22-3.45-.88-11.78-1.77-14.09-10-14.09v-1c9.39,0,10.16,3.86,11,15,.06.82.13,2,.22,3.47.78,13.07,3.18,52.86,13.15,52.86,9.38,0,10.82-20.87,12.35-43,.51-7.42,1-15.09,1.89-22.07,2.82-23,7.08-33.27,13.83-33.27v1c-6.05,0-10.13,10.29-12.83,32.39-.86,7-1.38,14.61-1.9,22C323.66,281.33,322.18,302.66,311.87,302.66Z" style="fill:#EC0F0F"></path><rect x="286.87" y="230.09" width="4.61" height="1.75" style="fill:#dbdbdb"></rect><path d="M316.24,296.27c-10.95,0-12.05-33.81-12.58-50-.09-2.65-.16-4.75-.25-6-.89-11.78-1.78-14.09-10-14.09v-1c9.39,0,10.16,3.86,11,15,.09,1.28.16,3.38.25,6,.48,14.69,1.6,49.09,11.58,49.09,8.15,0,9.06-21.06,10-43.35.21-4.75.42-9.66.71-14.46,1.83-30.79,10.87-34.11,14.67-34.11v1c-3.52,0-11.89,3.23-13.67,33.17-.29,4.79-.5,9.7-.71,14.44C326.23,275.74,325.34,296.27,316.24,296.27Z" style="fill:#263238"></path><rect x="292.78" y="224.75" width="4.61" height="1.75" style="fill:#dbdbdb"></rect><path d="M359.62,179.08l-4.88,24.64s4.86.3,11.92.69l3.73-6,4.43,6.49c15.37.82,31.73.66,38.93.48,0,0-7.12-47.59-19.8-62.69-6.33-7.55-14.19-7.36-19.42-2.53-1.32,1.22-15.28,17.18-17.22,24.72C355.62,171.49,359.62,179.08,359.62,179.08Z" style="fill:#EC0F0F"></path><path d="M402.17,188a1.38,1.38,0,0,0-1.28-.84,1.06,1.06,0,0,1-.89-.52,1.28,1.28,0,0,1-.18-.58,5.79,5.79,0,0,0-.13-.68,2.73,2.73,0,0,0-.07,1.43,1.35,1.35,0,0,0,1.27.88,1.11,1.11,0,0,1,.92.51,1.06,1.06,0,0,1,.18.56c.05.23.07.45.13.68A2.41,2.41,0,0,0,402.17,188Zm-4.8-22.41a1.39,1.39,0,0,0-1.29-.85,1.05,1.05,0,0,1-.9-.53,1.2,1.2,0,0,1-.16-.57c0-.23-.07-.46-.13-.69a2.67,2.67,0,0,0-.07,1.44,1.36,1.36,0,0,0,1.25.89,1.07,1.07,0,0,1,.92.49,1,1,0,0,1,.19.57c0,.23.07.45.13.68A2.46,2.46,0,0,0,397.37,165.58Zm-11.86-22.69a1.39,1.39,0,0,0-1.28-.85,1.05,1.05,0,0,1-.9-.52,1.24,1.24,0,0,1-.17-.58,5.79,5.79,0,0,0-.13-.68,2.64,2.64,0,0,0-.07,1.43,1.36,1.36,0,0,0,1.26.89,1.09,1.09,0,0,1,.92.49,1.17,1.17,0,0,1,.19.57c0,.23.07.46.13.68A2.46,2.46,0,0,0,385.51,142.89Zm-1.18,15.17a1.38,1.38,0,0,0-1.28-.84,1.05,1.05,0,0,1-.9-.52,1.16,1.16,0,0,1-.16-.58c-.05-.22-.07-.45-.14-.68a2.74,2.74,0,0,0-.07,1.43,1.37,1.37,0,0,0,1.26.89,1.11,1.11,0,0,1,.93.49,1.13,1.13,0,0,1,.18.57c.05.23.07.46.13.68A2.41,2.41,0,0,0,384.33,158.06Zm-22.12.58a1.39,1.39,0,0,0-1.28-.84.41.41,0,0,1-.16,0h0c-.1.16-.2.32-.29.48a1.32,1.32,0,0,0,.44.08,1.11,1.11,0,0,1,.93.5,1.2,1.2,0,0,1,.19.57,4.16,4.16,0,0,0,.13.67A2.46,2.46,0,0,0,362.21,158.64Zm-1.36,13a1.43,1.43,0,0,0-1.29-.84,1.08,1.08,0,0,1-.9-.52,1.28,1.28,0,0,1-.17-.58c0-.22-.07-.45-.13-.68a2.73,2.73,0,0,0-.07,1.43,1.36,1.36,0,0,0,1.26.88,1.12,1.12,0,0,1,.93.51,1.16,1.16,0,0,1,.18.56c0,.23.07.45.13.68A2.49,2.49,0,0,0,360.85,171.66ZM381,188a1.41,1.41,0,0,0-1.28-.84,1.08,1.08,0,0,1-.9-.52,1.17,1.17,0,0,1-.17-.58c0-.22-.07-.45-.13-.68a2.63,2.63,0,0,0-.07,1.43,1.35,1.35,0,0,0,1.26.88,1.11,1.11,0,0,1,.92.51,1.16,1.16,0,0,1,.19.56c0,.23.07.45.13.68A2.49,2.49,0,0,0,381,188Zm11.71,6.9a1.36,1.36,0,0,0-1.5.31,1.11,1.11,0,0,1-1,.26,1.27,1.27,0,0,1-.53-.29c-.19-.14-.37-.27-.57-.39a2.55,2.55,0,0,0,1,1.06,1.33,1.33,0,0,0,1.51-.26,1.11,1.11,0,0,1,1-.3,1.14,1.14,0,0,1,.53.26c.2.14.37.28.58.4C393.42,195.56,393.23,195.11,392.71,194.89ZM371.3,178.36a1.36,1.36,0,0,0-1.5.31,1.06,1.06,0,0,1-1,.26,1.16,1.16,0,0,1-.53-.29c-.2-.13-.37-.27-.57-.39a2.55,2.55,0,0,0,.95,1.07,1.38,1.38,0,0,0,1.52-.26,1.11,1.11,0,0,1,1.54,0c.19.13.36.27.57.39C372,179,371.82,178.58,371.3,178.36Zm-.46,15.93a1.39,1.39,0,0,0-1.51.31,1.06,1.06,0,0,1-1,.26,1.08,1.08,0,0,1-.53-.29c-.19-.13-.37-.27-.57-.39a2.57,2.57,0,0,0,1,1.07,1.37,1.37,0,0,0,1.51-.26,1.11,1.11,0,0,1,1-.31,1.08,1.08,0,0,1,.53.27c.19.13.37.27.57.39C371.55,195,371.36,194.52,370.84,194.29Zm36.57-19.35a1.41,1.41,0,0,0-1.51.31,1.07,1.07,0,0,1-1,.26,1.09,1.09,0,0,1-.52-.29c-.19-.12-.37-.27-.58-.38a2.83,2.83,0,0,0,1,1.06,1.37,1.37,0,0,0,1.53-.27,1.06,1.06,0,0,1,1-.3.79.79,0,0,1,.26.08Zm.78,23.52a1.44,1.44,0,0,0-1.51.32,1.06,1.06,0,0,1-1,.26,1,1,0,0,1-.53-.29c-.19-.12-.37-.27-.57-.38a2.65,2.65,0,0,0,.95,1.06,1.38,1.38,0,0,0,1.53-.26,1,1,0,0,1,1-.3,1,1,0,0,1,.53.27c.19.12.36.27.57.38A2.51,2.51,0,0,0,408.19,198.46ZM373.6,149.8a1.37,1.37,0,0,0-1.5.31,1.08,1.08,0,0,1-1.53,0c-.19-.13-.38-.26-.58-.38a2.61,2.61,0,0,0,1,1.06,1.37,1.37,0,0,0,1.52-.26,1.12,1.12,0,0,1,1.53,0,4.52,4.52,0,0,0,.58.39C374.31,150.48,374.12,150,373.6,149.8Zm9.79,20.83a1.37,1.37,0,0,0-1.5.31,1.08,1.08,0,0,1-1,.26,1.05,1.05,0,0,1-.52-.29c-.19-.13-.37-.27-.58-.39a2.71,2.71,0,0,0,1,1.07,1.37,1.37,0,0,0,1.52-.27,1.09,1.09,0,0,1,1-.3,1,1,0,0,1,.52.27c.19.13.37.27.58.39C384.1,171.31,383.92,170.85,383.39,170.63Zm-12.31-7.93a1.35,1.35,0,0,0-.88,1.26,1.07,1.07,0,0,1-.5.92,1.14,1.14,0,0,1-.57.19c-.22,0-.45.07-.67.13a2.42,2.42,0,0,0,1.42.06,1.41,1.41,0,0,0,.85-1.29,1.11,1.11,0,0,1,.52-.9,1.08,1.08,0,0,1,.59-.16c.22,0,.44-.08.68-.14A2.77,2.77,0,0,0,371.08,162.7Zm-10.91,22.39a1.37,1.37,0,0,0-.88,1.26,1.08,1.08,0,0,1-.5.93,1.13,1.13,0,0,1-.57.18l-.27,0a2.83,2.83,0,0,0-.4.08l.37.08a1.65,1.65,0,0,0,1.05,0,1.39,1.39,0,0,0,.85-1.28,1.13,1.13,0,0,1,.52-.91,1.28,1.28,0,0,1,.59-.16l.67-.13A2.72,2.72,0,0,0,360.17,185.09ZM361.1,202a1.37,1.37,0,0,0-.88,1.26,1,1,0,0,1-.3.76l.59,0a1.28,1.28,0,0,0,.24-.77,1.1,1.1,0,0,1,.52-.9,1.17,1.17,0,0,1,.59-.17l.68-.13A2.77,2.77,0,0,0,361.1,202Zm19.9-1.17a1.34,1.34,0,0,0-.89,1.26,1.08,1.08,0,0,1-.5.92,1,1,0,0,1-.56.19c-.23,0-.46.07-.68.13a2.38,2.38,0,0,0,1.43,0,1.38,1.38,0,0,0,.84-1.28,1.1,1.1,0,0,1,.52-.9,1.13,1.13,0,0,1,.59-.16l.67-.13A2.51,2.51,0,0,0,381,200.84Zm10.64-22.59a1.37,1.37,0,0,0-.89,1.25,1.09,1.09,0,0,1-.48.93,1.28,1.28,0,0,1-.58.19c-.22,0-.44.07-.67.13a2.55,2.55,0,0,0,1.43.05,1.39,1.39,0,0,0,.84-1.29,1.07,1.07,0,0,1,.52-.89,1.2,1.2,0,0,1,.58-.17c.23,0,.45-.07.68-.13A2.63,2.63,0,0,0,391.64,178.25ZM396,148.5a1.39,1.39,0,0,0-.89,1.27,1.06,1.06,0,0,1-.49.92,1.13,1.13,0,0,1-.57.18c-.22,0-.45.07-.68.14a2.47,2.47,0,0,0,1.43.05,1.39,1.39,0,0,0,.85-1.29,1.07,1.07,0,0,1,.52-.89,1.17,1.17,0,0,1,.58-.17c.23,0,.46-.07.68-.13A2.63,2.63,0,0,0,396,148.5Z" style="fill:#fff"></path><path d="M356.53,195.31c.68-2.78,1.2-5,1.8-7.75s1.23-5.58,1.8-8.38l0-.18-.11-.19a21.54,21.54,0,0,1-2.5-7.25,15.83,15.83,0,0,1-.16-3.83,13.13,13.13,0,0,1,.78-3.72,45.45,45.45,0,0,1,3.46-7c1.34-2.26,2.44-4.16,3.92-6.36.24-.34.11-.43-.11-.16-1.46,1.78-3.08,4.26-4.35,6.19a39.12,39.12,0,0,0-3.85,7,13.32,13.32,0,0,0-.92,4,16.89,16.89,0,0,0,.13,4.08,21.19,21.19,0,0,0,2.74,7.63l-.07-.38c-.52,2.81-1,5.63-1.45,8.45-.43,2.53-.91,5.26-1.27,7.81C356.36,195.53,356.3,196.33,356.53,195.31Z" style="fill:#263238"></path><path d="M363,152.61a12.11,12.11,0,0,0-1.51,2.57,11.06,11.06,0,0,0-.53,1.39,6.17,6.17,0,0,0-.3,1.48c.48-.88.93-1.75,1.34-2.65A17.44,17.44,0,0,0,363,152.61Z" style="fill:#263238"></path><path d="M377.56,144.92c-.61,4.85-1.34,9.68-2.07,14.51s-1.57,9.64-2.34,14.47-1.67,9.62-2.57,14.42l-1.36,7.2c-.49,2.4-1,4.8-1.47,7.19.3-2.43.66-4.85,1-7.27l1.09-7.25c.73-4.82,1.56-9.64,2.33-14.46s1.67-9.63,2.57-14.43S376.54,149.7,377.56,144.92Z" style="fill:#263238"></path><path d="M371.49,159.09a.92.92,0,0,0,1.8.34.92.92,0,1,0-1.8-.34Z" style="fill:#263238"></path><path d="M370.1,168.43a.92.92,0,0,0,.73,1.07.93.93,0,0,0,1.07-.73.92.92,0,0,0-.73-1.07A.91.91,0,0,0,370.1,168.43Z" style="fill:#263238"></path><path d="M368.7,177.76a.92.92,0,0,0,1.8.34.91.91,0,0,0-.73-1.07A.92.92,0,0,0,368.7,177.76Z" style="fill:#263238"></path><path d="M367.31,187.09a.92.92,0,1,0,1.07-.73A.93.93,0,0,0,367.31,187.09Z" style="fill:#263238"></path><path d="M365.92,196.43a.92.92,0,1,0,1.8.34.92.92,0,1,0-1.8-.34Z" style="fill:#263238"></path><path d="M395.21,142.43c17.83,15.82,39.68,50.1,36.24,57.58-3.83,8.33-29.94-13.45-29.29-14.69.55-1-9.24-17.88-15.5-36C381.13,133.29,390.8,138.51,395.21,142.43Z" style="fill:#EC0F0F"></path><path d="M423.38,198.26a1.38,1.38,0,0,0-1.28-.84,1.09,1.09,0,0,1-.9-.53,1.11,1.11,0,0,1-.17-.58c0-.22-.07-.45-.13-.67a2.72,2.72,0,0,0-.08,1.43,1.37,1.37,0,0,0,1.27.88,1.12,1.12,0,0,1,.93.5,1.1,1.1,0,0,1,.17.57c.06.22.08.44.13.67A2.38,2.38,0,0,0,423.38,198.26Zm.12-20.34h0a1.06,1.06,0,0,1-.89-.52,1.28,1.28,0,0,1-.18-.58c0-.22-.07-.45-.13-.68a2.73,2.73,0,0,0-.07,1.43,1.35,1.35,0,0,0,1.27.88,1.06,1.06,0,0,1,.4.08Zm1.11,1.9c0,.12.05.25.08.38l0-.18Zm-8.5-11a1.38,1.38,0,0,0-1.28-.85,1.05,1.05,0,0,1-.9-.52,1.16,1.16,0,0,1-.16-.58c0-.22-.07-.45-.13-.68a2.63,2.63,0,0,0-.08,1.43,1.37,1.37,0,0,0,1.26.89,1.1,1.1,0,0,1,.93.5,1.06,1.06,0,0,1,.18.56c.05.23.07.46.13.68A2.38,2.38,0,0,0,416.11,168.86Zm-18.74-3.28a1.39,1.39,0,0,0-1.29-.85,1.05,1.05,0,0,1-.9-.53,1.2,1.2,0,0,1-.16-.57c0-.23-.07-.46-.13-.69a2.67,2.67,0,0,0-.07,1.44,1.36,1.36,0,0,0,1.25.89,1.07,1.07,0,0,1,.92.49,1,1,0,0,1,.19.57c0,.23.07.45.13.68A2.46,2.46,0,0,0,397.37,165.58Zm-11.86-22.69a1.32,1.32,0,0,0-.49-.61c0,.22,0,.46.05.71l.07.08a1.17,1.17,0,0,1,.19.57c0,.23.07.46.13.68A2.46,2.46,0,0,0,385.51,142.89Zm21.9,32.05a1.41,1.41,0,0,0-1.51.31,1.07,1.07,0,0,1-1,.26,1.09,1.09,0,0,1-.52-.29c-.19-.12-.37-.27-.58-.38a2.83,2.83,0,0,0,1,1.06,1.37,1.37,0,0,0,1.53-.27,1.06,1.06,0,0,1,1-.3,1.09,1.09,0,0,1,.54.28c.19.12.37.26.57.38C408.12,175.62,407.93,175.17,407.41,174.94Zm21.87,14h-.09a1.09,1.09,0,0,1-.52-.29c-.19-.13-.38-.27-.58-.38a2.82,2.82,0,0,0,1,1.06,1.36,1.36,0,0,0,.44.11Zm-12.95-2.75a1.38,1.38,0,0,0-.89,1.27,1.07,1.07,0,0,1-.49.92,1,1,0,0,1-.57.18c-.22.05-.45.07-.67.13a2.35,2.35,0,0,0,1.42.06,1.38,1.38,0,0,0,.85-1.28,1.08,1.08,0,0,1,.52-.9,1.17,1.17,0,0,1,.58-.17c.23,0,.45-.07.68-.13A2.63,2.63,0,0,0,416.33,186.23Zm-8.86-29.17a1.37,1.37,0,0,0-.89,1.26,1.08,1.08,0,0,1-.5.93,1.09,1.09,0,0,1-.56.18c-.23,0-.46.07-.68.13a2.38,2.38,0,0,0,1.43.05,1.38,1.38,0,0,0,.85-1.28,1.05,1.05,0,0,1,.52-.9,1.41,1.41,0,0,1,.58-.17c.22,0,.45-.07.67-.13A2.69,2.69,0,0,0,407.47,157.06ZM396,148.5a1.39,1.39,0,0,0-.89,1.27,1.06,1.06,0,0,1-.49.92,1.13,1.13,0,0,1-.57.18c-.22,0-.45.07-.68.14a2.47,2.47,0,0,0,1.43.05,1.39,1.39,0,0,0,.85-1.29,1.07,1.07,0,0,1,.52-.89,1.17,1.17,0,0,1,.58-.17c.23,0,.46-.07.68-.13A2.63,2.63,0,0,0,396,148.5Z" style="fill:#fff"></path><path d="M401.05,181.55c-.53-1.2-1.08-2.38-1.65-3.55-1.11-2.27-2.22-4.54-3.29-6.83s-2.09-4.6-3.16-6.89-2.25-4.68-3.36-7c0,0-.09,0-.07,0,.68,1.72,1.36,3.45,2.06,5.17-.55-.87-1.08-1.74-1.59-2.63,0,0-.11,0-.08.05a33.24,33.24,0,0,0,2,3.4l.51,1.25c1,2.28,2,4.53,3,6.78s2.07,4.62,3.12,6.93c.54,1.19,1.11,2.36,1.7,3.52a12.38,12.38,0,0,0,1.89,3.15.08.08,0,0,0,.13-.06A12.35,12.35,0,0,0,401.05,181.55Z" style="fill:#263238"></path><path d="M431.45,200c-3.4,5.63-21.18,9.46-47.59,11.61-3.6.3-9.74-21.82-6.07-23,4.63-1.49,24.82-3.94,26.2-4.12C415.64,183,433.76,196.19,431.45,200Z" style="fill:#eb9481"></path><path d="M386.66,186.5l11.53,26.15s30.34-5.35,33.26-12.64-18.85-15.76-24.23-15.85S386.66,186.5,386.66,186.5Z" style="fill:#EC0F0F"></path><path d="M404.79,209.51c-.6-2-1.49-3.95-2.28-5.89s-1.58-3.82-2.39-5.72c-1.63-3.84-3.19-7.75-5.07-11.47a.07.07,0,0,0-.14,0c1.26,4,2.94,7.92,4.56,11.79.81,1.95,1.66,3.88,2.52,5.81a52.55,52.55,0,0,0,2.66,5.5C404.7,209.67,404.82,209.59,404.79,209.51Z" style="fill:#263238"></path><path d="M418.53,187.65a44,44,0,0,0-5.71-2.52l-.86-.3a30.25,30.25,0,0,1,3.52.65c.09,0,.11-.1,0-.13a14.13,14.13,0,0,0-4.55-.83,13.86,13.86,0,0,0-4.08-.65c-2.14,0-4.29.29-6.41.48s-4.4.44-6.6.73c-2.42.32-4.82.67-7.21,1.2-.14,0-.1.26,0,.25,4.24-.32,8.46-.89,12.68-1.33q3.12-.33,6.24-.58a11.64,11.64,0,0,1,3.12,0,23.83,23.83,0,0,1,2.9.78c1.09.34,2.2.65,3.29,1s2.36.9,3.52,1.37C418.55,187.85,418.64,187.71,418.53,187.65Z" style="fill:#263238"></path><path d="M423.38,198.26a1.38,1.38,0,0,0-1.28-.84,1.09,1.09,0,0,1-.9-.53,1.11,1.11,0,0,1-.17-.58c0-.22-.07-.45-.13-.67a2.72,2.72,0,0,0-.08,1.43,1.37,1.37,0,0,0,1.27.88,1.12,1.12,0,0,1,.93.5,1.1,1.1,0,0,1,.17.57c.06.22.08.44.13.67A2.38,2.38,0,0,0,423.38,198.26ZM402.17,188a1.38,1.38,0,0,0-1.28-.84,1.06,1.06,0,0,1-.89-.52,1.28,1.28,0,0,1-.18-.58,5.79,5.79,0,0,0-.13-.68,2.73,2.73,0,0,0-.07,1.43,1.35,1.35,0,0,0,1.27.88,1.11,1.11,0,0,1,.92.51,1.06,1.06,0,0,1,.18.56c.05.23.07.45.13.68A2.41,2.41,0,0,0,402.17,188Zm-9.46,6.9a1.36,1.36,0,0,0-1.5.31,1.05,1.05,0,0,1-.59.28l.2.47h0a1.31,1.31,0,0,0,.74-.37,1.11,1.11,0,0,1,1-.3,1.14,1.14,0,0,1,.53.26c.2.14.37.28.58.4C393.42,195.56,393.23,195.11,392.71,194.89Zm35.38,7.82c.11.16.21.32.33.48a1.15,1.15,0,0,0,.19-.14Zm-19.9-4.25a1.44,1.44,0,0,0-1.51.32,1.06,1.06,0,0,1-1,.26,1,1,0,0,1-.53-.29c-.19-.12-.37-.27-.57-.38a2.65,2.65,0,0,0,.95,1.06,1.38,1.38,0,0,0,1.53-.26,1,1,0,0,1,1-.3,1,1,0,0,1,.53.27c.19.12.36.27.57.38A2.51,2.51,0,0,0,408.19,198.46Zm8.14,7a1.36,1.36,0,0,0-.89,1.26,1.07,1.07,0,0,1-.49.92,1.14,1.14,0,0,1-.57.19c-.22,0-.45.07-.67.13a2.51,2.51,0,0,0,1.42.06,1.41,1.41,0,0,0,.85-1.29,1.08,1.08,0,0,1,.52-.9,1.17,1.17,0,0,1,.58-.17c.23,0,.45-.07.68-.13A2.73,2.73,0,0,0,416.33,205.46Zm-.39-19a1.39,1.39,0,0,0-.5,1,1.07,1.07,0,0,1-.49.92,1,1,0,0,1-.57.18c-.22.05-.45.07-.67.13a2.35,2.35,0,0,0,1.42.06,1.38,1.38,0,0,0,.85-1.28,1.06,1.06,0,0,1,.46-.86Z" style="fill:#fff"></path><rect x="374.1" y="203.6" width="46.26" height="2.7" style="fill:#455a64"></rect><rect x="374.1" y="203.6" width="28.12" height="2.7" style="fill:#263238"></rect><polygon points="397.36 206.34 338.81 206.35 330.43 166.38 388.99 166.38 397.36 206.34" style="fill:#455a64"></polygon><path d="M367.46,186.36a3.15,3.15,0,0,1-3.19,3.58,4.06,4.06,0,0,1-3.94-3.58,3.15,3.15,0,0,1,3.19-3.58A4.06,4.06,0,0,1,367.46,186.36Z" style="fill:#263238"></path><path d="M387.57,208.72c-3.61,2-8,6.63-11,7.16a3.51,3.51,0,0,1-3.8-1.75s-1.35,3.1-4.16,3.12c-1.45,0-2.74-2.28-2.74-2.28a4.17,4.17,0,0,1-3.69,2.3c-2-.1-3-2.39-3-2.39s-2.23,1.81-4.23,1.05c-4-1.54-5-18.63,1.21-21.61,2.87-1.38,2.87,2.8,2.87,2.8s1.46-6,5-6.29,3.19,5.16,3.19,5.16,1.47-5.82,5.14-5.74c3.83.09,2.56,5.47,2.56,5.47s2.38-3.93,5.18-3.23c4.63,1.17-.62,10.1.47,13.81h6.12Z" style="fill:#eb9481"></path><path d="M382.37,212.06c3.58-1.55,5.29,1,9,.52,4.15-.54,2.8-5.42-4.5-6.28h-6.33Z" style="fill:#eb9481"></path><path d="M359,214.54c0,.06-.07.08-.09,0A29.63,29.63,0,0,1,359,196.9c.06-.19.39-.16.35,0A60.65,60.65,0,0,0,359,214.54Z" style="fill:#263238"></path><path d="M365.85,215.05c0,.07-.1.08-.12,0a27.8,27.8,0,0,1,1.33-19.27c.1-.21.4-.3.3-.05C365.7,200,365.09,209.57,365.85,215.05Z" style="fill:#263238"></path><path d="M375.29,195.35c-2.61,5.94-3.05,12.13-2.59,18.55,0,.08-.12.08-.14,0-1.08-3.08-.95-7.2-.57-10.4a17.14,17.14,0,0,1,3.09-8.25C375.15,195.16,375.34,195.22,375.29,195.35Z" style="fill:#263238"></path><path d="M384.64,140.3c-.3,1-5.4,7-9.87,6.52-1.46-.17-.9-8.16-.9-8.16l-.09-.6-1.3-8.38,10.13-5.59,1.45-.73s.21,2.32.43,5.21l0,.41c0,.17,0,.32.05.47,0,.43.08.87.1,1.31s.05.66.06,1,0,.7.06,1A54.24,54.24,0,0,1,384.64,140.3Z" style="fill:#eb9481"></path><path d="M384.49,128.57a17,17,0,0,1-10.71,9.49l-1.3-8.38,10.13-5.59,1.45-.73S384.27,125.68,384.49,128.57Z" style="fill:#263238"></path><path d="M361.15,119c.85,14.87,9.86,16,13.06,15.85,2.91-.17,12.8-1.12,13.49-16s-6.5-19.18-13.18-19.15S360.29,104.15,361.15,119Z" style="fill:#eb9481"></path><path d="M363.69,114.78c.35-.06.66-.18,1-.27a1.71,1.71,0,0,0,1-.47.54.54,0,0,0,0-.65,1.31,1.31,0,0,0-1.31-.23,1.92,1.92,0,0,0-1.17.75A.56.56,0,0,0,363.69,114.78Z" style="fill:#263238"></path><path d="M373.79,114.59c-.35,0-.67-.1-1-.16a1.6,1.6,0,0,1-1-.36.53.53,0,0,1,0-.64,1.29,1.29,0,0,1,1.27-.38,1.89,1.89,0,0,1,1.25.61A.57.57,0,0,1,373.79,114.59Z" style="fill:#263238"></path><path d="M371.5,118.41s.08,0,.08.09c0,1,.17,2.17,1.1,2.48a0,0,0,0,1,0,.06C371.55,120.92,371.33,119.37,371.5,118.41Z" style="fill:#263238"></path><path d="M372.37,117.32c1.62-.18,1.86,3.09.35,3.25S371,117.47,372.37,117.32Z" style="fill:#263238"></path><path d="M373,117.45c.3.16.6.47,1,.48s.67-.36.91-.7c0,0,.05,0,.06,0,.05.62-.14,1.28-.8,1.43s-1.09-.4-1.29-1C372.81,117.56,372.9,117.38,373,117.45Z" style="fill:#263238"></path><path d="M365.86,118.37s-.07.06-.07.1c.12,1,.08,2.18-.81,2.59,0,0,0,.06,0,0C366.09,120.87,366.13,119.31,365.86,118.37Z" style="fill:#263238"></path><path d="M364.88,117.39c-1.64,0-1.51,3.28,0,3.27S366.25,117.38,364.88,117.39Z" style="fill:#263238"></path><path d="M364.2,117.63c-.25.19-.49.51-.8.54s-.64-.3-.88-.63c0,0,0,0,0,0,0,.62.24,1.27.85,1.36s.93-.46,1.06-1.09C364.4,117.73,364.3,117.56,364.2,117.63Z" style="fill:#263238"></path><path d="M371.87,126.58c-.21.27-.41.62-.77.7a2.68,2.68,0,0,1-1.12-.13,0,0,0,0,0,0,.06,1.36,1.36,0,0,0,1.34.39,1.08,1.08,0,0,0,.69-1C372,126.56,371.9,126.55,371.87,126.58Z" style="fill:#263238"></path><path d="M367.42,123.18s-.12,1.53-.08,2.24c0,.07.18.09.43.09h0A3.4,3.4,0,0,0,371,124c.05-.07-.05-.14-.11-.09a5.13,5.13,0,0,1-3,1.07c-.07-.19.28-2.6.17-2.6a6.42,6.42,0,0,0-1.6.46c.15-3.18.82-6.32.92-9.49a.1.1,0,0,0-.19,0,51.78,51.78,0,0,0-1.42,10.18C365.7,123.94,367.14,123.32,367.42,123.18Z" style="fill:#263238"></path><path d="M368.22,125.3a3.81,3.81,0,0,0,1.6,1.06,1.76,1.76,0,0,0,1,0c.74-.25.7-.94.52-1.52a3.8,3.8,0,0,0-.4-.87A5,5,0,0,1,368.22,125.3Z" style="fill:#263238"></path><path d="M369.82,126.36a1.76,1.76,0,0,0,1,0c.74-.25.7-.94.52-1.52A1.77,1.77,0,0,0,369.82,126.36Z" style="fill:#ff9cbd"></path><path d="M386.82,119.22c-1.63,0-6.11-4.25-6.67-12.1,0,0,1,7,1.58,8s-2.51-2.39-3.05-8.71a25.71,25.71,0,0,1-6.31,3.72c-2.95,1-4.78,1.08-5,.87s4.1-1.83,5.22-3.27c0,0-7.76,4.14-11.41,4.62-.42.06-1.41-8.64,4.06-12.65s14.67-.51,17.21,1.69c0,0,2.86.24,6.17,4.27S388.58,119.22,386.82,119.22Z" style="fill:#263238"></path><path d="M385.4,120.15s2.55-5.07,4.81-4.23.8,7.87-1.52,9.14a2.51,2.51,0,0,1-3.53-.86Z" style="fill:#eb9481"></path><path d="M389.74,117.93a0,0,0,1,1,0,.06,6.38,6.38,0,0,0-2.68,4.42,1.39,1.39,0,0,1,2-.68.05.05,0,0,1,0,.1,1.55,1.55,0,0,0-1.61.78,7.33,7.33,0,0,0-.61,1.48c-.06.17-.35.12-.32-.06v0C386.16,121.8,387.42,118.49,389.74,117.93Z" style="fill:#263238"></path><path d="M373.86,138.57l3.08,6.59,7.91-9,2.53,2.61s-7.45,14-7.54,13.41l-3.1-5.67L373,150.78l-.24-10.17Z" style="fill:#EC0F0F"></path><path d="M372.55,145.76c0-1.68,0-3.38.08-5,0-.06.1-.1.11,0,.43,1.6.33,8,.42,9.57l0,0c.16-.19,3.52-3.77,3.56-3.72.65.89,2.93,5,3.09,5.39,1.18-2.22,6.21-11,7.63-13.14,0-.06.14,0,.11.05-1,2.34-7.52,13.94-7.62,13.92a66.33,66.33,0,0,1-3.24-6c-.57.77-3.94,4.79-4,4.54A53.59,53.59,0,0,1,372.55,145.76Z" style="fill:#263238"></path></g><g id="freepik--Cloud--inject-65"><path d="M198.35,112a13.31,13.31,0,0,0,12.32,13.27v0H286a15.64,15.64,0,0,0,1.46-31.21,26.34,26.34,0,0,0-51.05-8.24,15.64,15.64,0,0,0-22.6,13,12.85,12.85,0,0,0-2.16-.18A13.31,13.31,0,0,0,198.35,112Z" style="fill:#EC0F0F"></path><rect x="243.2" y="102.54" width="13.6" height="11.67" style="fill:#fff"></rect><polygon points="238.53 102.54 261.47 102.54 250 91.1 238.53 102.54" style="fill:#fff"></polygon><rect x="316.44" y="113.43" width="2" height="1" style="fill:#263238"></rect><path d="M332,114.43h-3.89v-1H332Zm-6.8,0h-3.88v-1h3.88Z" style="fill:#263238"></path><polygon points="337.45 115.93 336.45 115.93 336.45 114.43 334.95 114.43 334.95 113.43 337.45 113.43 337.45 115.93" style="fill:#263238"></polygon><path d="M337.45,155.62h-1v-3.78h1Zm0-6.61h-1v-3.78h1Zm0-6.62h-1v-3.78h1Zm0-6.61h-1V132h1Zm0-6.62h-1v-3.78h1Zm0-6.62h-1v-3.78h1Z" style="fill:#263238"></path><rect x="336.45" y="158.46" width="1" height="2" style="fill:#263238"></rect><path d="M316.54,115.81a1.88,1.88,0,1,1,1.88-1.88A1.88,1.88,0,0,1,316.54,115.81Z" style="fill:#263238"></path><path d="M335.07,160.36a1.88,1.88,0,1,0,1.88-1.88A1.88,1.88,0,0,0,335.07,160.36Z" style="fill:#263238"></path><rect x="181.56" y="113.43" width="2" height="1" style="fill:#263238"></rect><path d="M178.64,114.43h-3.88v-1h3.88Zm-6.79,0H168v-1h3.89Z" style="fill:#263238"></path><polygon points="163.55 115.93 162.55 115.93 162.55 113.43 165.05 113.43 165.05 114.43 163.55 114.43 163.55 115.93" style="fill:#263238"></polygon><path d="M163.55,155.62h-1v-3.78h1Zm0-6.61h-1v-3.78h1Zm0-6.62h-1v-3.78h1Zm0-6.61h-1V132h1Zm0-6.62h-1v-3.78h1Zm0-6.62h-1v-3.78h1Z" style="fill:#263238"></path><rect x="162.55" y="158.46" width="1" height="2" style="fill:#263238"></rect><circle cx="183.46" cy="113.93" r="1.88" style="fill:#263238"></circle><path d="M161.17,160.36a1.88,1.88,0,1,0,1.88-1.88A1.88,1.88,0,0,0,161.17,160.36Z" style="fill:#263238"></path></g><g id="freepik--Plant--inject-65"><path d="M69,337.93a76.74,76.74,0,0,1,1.77-12.43A27.54,27.54,0,0,1,75.22,315a13.32,13.32,0,0,1,8.7-5.43c3.41-.41,6.61,1.11,9.16,3.25,3.16,2.67,5.58,6.19,7.86,9.6a118,118,0,0,1,6.78,11.87c.07.14-.14.25-.21.12a73.7,73.7,0,0,0-6.06-9.94,62.86,62.86,0,0,0-7-8.45c-2.34-2.28-5.31-4.42-8.7-4.53a10.7,10.7,0,0,0-8.52,4.39C75,318.8,73.81,322.44,73,326a75.15,75.15,0,0,0-1.75,11.84c-.67,8.19-.85,16.42-1,24.63-.11,4.65-.17,9.3-.21,13.94l-.06,7.07a44.19,44.19,0,0,1-.27,6.81c-.08.45-.83.41-.9,0a39.84,39.84,0,0,1-.32-6.46q0-3.34-.08-6.69c0-4.34-.06-8.68,0-13C68.31,355.36,68.42,346.62,69,337.93Z" style="fill:#263238"></path><path d="M80.71,331.76c.43-2.32,1.22-5.33,2.54-7.13,2.37-3.22,4.93-1.82,2.56,1.75a21.4,21.4,0,0,0-3.33,8.8s4,5.69,8.8,8.5c-.21-2.19-.83-5.56-.4-8.81.92-7,5.18-6.63,4.13-1.05a48.16,48.16,0,0,0-1,11.3,23.75,23.75,0,0,0,5.14,2.52c-.27-.81-.57-1.79-.89-3-1.71-6.3,2.5-8.27,2.63-4.72a48.91,48.91,0,0,0,1.64,8.94c2.3.77,4.21,1.3,5.38,1.71a19.74,19.74,0,0,1,7.89,5.39,25,25,0,0,0,5.37-7c-1.47-1.26-3.79-3.14-7-5.42-6-4.27-4-9.66.85-6.31,3.46,2.42,6.14,6.9,7.36,9.2a37.62,37.62,0,0,0,2.74-12.58c-4.75-4.46-16.49-10.67-13-10.67,3.18,0,10.31,4.67,12.92,6.47a32.78,32.78,0,0,0-.4-3.66c-4.47-2.93-19-7.49-16.69-8.8,2.55-1.44,12.68,3.26,15.75,4.74a18.22,18.22,0,0,0-2.69-5.56c-6.17-8.27-17.32-11.12-22.18-9.55-3.44,1.12-2.43,9.85-3.17,9.55C81.91,310.88,75.63,314.81,80.71,331.76Zm33.87-1c1-1.18,5.52,2.3,4.2,4.21S113.32,332.32,114.58,330.8Zm-23.69-7.44c1.19.76-.57,5.17-2.41,3.83C86.91,326.05,89.69,322.59,90.89,323.36Z" style="fill:#EC0F0F"></path><path d="M92.7,324.71c.62-1.23,1.27-2.46,2-3.64A21.6,21.6,0,0,1,97,317.76c-.19-.25-.38-.49-.59-.73a.1.1,0,0,1,.15-.14c.23.27.45.54.68.8a.27.27,0,0,1,.09.12c.86,1,1.66,2.07,2.43,3.15a37.45,37.45,0,0,1,4,1.16c1.36.46,2.7.93,4,1.48.13.06.06.29-.07.23-1.31-.58-2.63-1.14-4-1.6s-2.58-.76-3.88-1.13c.42.6.83,1.2,1.23,1.81a47.59,47.59,0,0,1,7.1,2.89c2.4,1.14,4.7,2.47,7,3.79a.12.12,0,0,1-.12.2,77.75,77.75,0,0,0-7-3.6c-2.22-1-4.52-1.9-6.76-2.89,5.64,8.81,9,19,13.55,28.38.07.13-.15.25-.2.11-1.39-3.3-3-6.52-4.48-9.76-1.35-2.91-2.67-5.84-4-8.76-.4-.85-.8-1.7-1.22-2.55.25,4.7.15,9.49.92,14.14a.12.12,0,1,1-.23,0c-.33-5-1.21-10-1.18-15,0,0,0,0,0-.06-1-1.92-2-3.82-3.08-5.66-1.87,4.4-3.83,8.87-4.71,13.59,0,.15-.26.08-.22-.06,1.27-4.74,2.45-9.49,4.73-13.86a51.69,51.69,0,0,0-4-5.73c-.63,1.17-1.43,2.27-2.15,3.39s-1.38,2.19-2,3.32a47.54,47.54,0,0,0-3.53,7.46c0,.14-.28.07-.22-.07C90.37,329.66,91.46,327.14,92.7,324.71Z" style="fill:#263238"></path><path d="M48.22,335.42c3.62-3.63,7.83-8.4,13.42-8.39,5.4,0,9.38,4.36,11.66,8.84,2.39,4.69,3.25,10,3.92,15.17a182,182,0,0,1,1.43,18.66c.1,3.46.09,6.93,0,10.39a68.13,68.13,0,0,1-.79,10.49c-.1.56-1,.58-1,0-.16-2.91,0-5.84,0-8.76s0-5.75-.14-8.62c-.21-5.81-.63-11.62-1.31-17.39-.6-5-1.07-10.23-2.58-15.11-1.36-4.39-3.92-9.42-8.37-11.35-6.08-2.63-12,2.18-16,6.25C48.29,335.67,48.11,335.52,48.22,335.42Z" style="fill:#263238"></path><path d="M29.74,343.53h0c0,.74.08,1.48.13,2.19a13.15,13.15,0,0,1,5.93-2.46c5.14-.54,4.81,3.37,1.38,3.53a19.61,19.61,0,0,0-7,1.41c.83,6.79,2.7,12.24,3,12.32a100.93,100.93,0,0,0,13.58-1.72c-1.28-2.72-4.19-6.34-2.71-6.63s3.11,2.93,3.93,6.38a63.27,63.27,0,0,0,9.88-2.72c-2.26-1.95-5.76-4.39-4.42-5.42s4.11,2.39,5.77,4.88a20.6,20.6,0,0,0,4.27-2.38c-3-4.47-10.47-5.39-9.5-8.62s7.91,1.25,11,7.24c3.66-3.8,4.73-9.17,4.35-13.76-3.19-.37-9.33.3-8.89-2s4.88-1.86,8.51-.52a12.62,12.62,0,0,0-2.13-5c-3.36-4.31-13.62,1.17-13.62,1.17s1.1-10.31-2.81-12.09c-2.26-1-6.24-1-10.23,1.34,2.24.18,5,.89,6,2.44,1.4,2-.8,3.06-2.2,2.15-1-.65-2.81-2.69-6.12-3A22,22,0,0,0,33,328.08a14.1,14.1,0,0,1,12,.21c4.45,2.21,2,6.83-1.86,5s-7.47-3.56-11.53-2.55a28.77,28.77,0,0,0-1.95,11.5,20.23,20.23,0,0,1,6.59-3.16c4.42-1.16,5.75,1.48.9,2A19.51,19.51,0,0,0,29.74,343.53Zm5.38-7.1c-.3-1.43,2.83-1.84,3.36-.68C38.91,336.74,35.42,337.87,35.12,336.43ZM62,344.37c.3-.78,2.4.1,2.21,1.08C63.89,346.75,61.67,345.15,62,344.37Zm-14.81,5c1.53-.61,3.92,3.19,2.25,4.06S45.89,349.9,47.14,349.39Z" style="fill:#EC0F0F"></path><path d="M33.71,359.74c2.3-3.85,4.58-7.72,7-11.5,1.13-1.77,2.31-3.49,3.53-5.19-.18,0-.36-.09-.54-.13l-.92-.17c-.71-.13-1.42-.23-2.14-.3a19.38,19.38,0,0,0-2-.11,9.76,9.76,0,0,0-2.16.11c-.09,0-.1-.12,0-.11.72,0,1.46-.07,2.18-.08s1.4,0,2.1.05,1.31.1,2,.2l1.07.19a5,5,0,0,1,.65.14q1.88-2.58,3.88-5a46.39,46.39,0,0,0-12.61-4c-.08,0-.05-.13,0-.12a43,43,0,0,1,12.79,3.88l2.23-2.7c.83-1,1.72-2,2.48-3a.06.06,0,1,1,.09.07,42.63,42.63,0,0,0-2.93,3.58h0a44.47,44.47,0,0,1,4.69,3.77c1.53,1.36,3,2.76,4.48,4.2,0,.06,0,.14-.08.09-1.44-1.43-2.93-2.79-4.49-4.09s-3.19-2.48-4.76-3.76c0,0,0,0,0,0L49.15,337c-.19.23-.36.47-.55.71,0,0,0,0,0,.05l-1.79,2.34a19.4,19.4,0,0,1,1.78,3.22c.51,1.09,1,2.21,1.38,3.34a49.87,49.87,0,0,1,1.92,7.22c0,.07-.1.11-.11,0a43.61,43.61,0,0,0-2.1-7.08c-.45-1.17-1-2.32-1.49-3.47s-1-2-1.5-3.1c-.52.69-1,1.38-1.54,2.08-.15.2-.29.4-.43.61,0,0,0,.1,0,.1h0c-1.58,2.21-3.09,4.48-4.55,6.76a2.08,2.08,0,0,1,.2.51c.09.27.18.55.26.84a16.37,16.37,0,0,1,.41,1.71c.09.54.17,1.09.22,1.64a16.45,16.45,0,0,0,.14,1.87c0,.09-.13.09-.11,0a6,6,0,0,0-.13-1.74,17.26,17.26,0,0,0-.33-1.77c-.12-.53-.27-1.06-.42-1.58-.08-.26-.17-.52-.26-.78s-.11-.28-.16-.42c-.68,1.07-1.36,2.15-2,3.24-1.33,2.15-2.64,4.31-4,6.47C33.82,360,33.64,359.85,33.71,359.74Z" style="fill:#263238"></path><path d="M69.25,389.33c.06-2.18.41-4.38.64-6.55s.49-4.36.72-6.54a99,99,0,0,1,1.69-12.63,18.34,18.34,0,0,1,5.13-9.44,8.4,8.4,0,0,1,5-2.41,8.72,8.72,0,0,1,5.35,1.65,18.62,18.62,0,0,1,4.5,4.74,46.88,46.88,0,0,1,3.51,5.7c0,.07-.08.12-.12,0a29.42,29.42,0,0,0-7.59-8.51,9,9,0,0,0-4.79-2,6.46,6.46,0,0,0-4.63,1.85c-2.55,2.21-4,5.47-4.9,8.67a88.26,88.26,0,0,0-1.9,11.66c-.31,2.31-.6,4.62-.91,6.93s-.49,4.66-1,6.93A.38.38,0,0,1,69.25,389.33Z" style="fill:#263238"></path><path d="M80,372.38a12.63,12.63,0,0,0,2.38,2.42c-.36-2.13-.8-5.92.28-7.93,1.67-3.13,3.65-1.57,2.65,1.15a22.37,22.37,0,0,0-1.61,7.72A33.69,33.69,0,0,0,91,379.16a12,12,0,0,1-.24-3.74c.33-3.34,2.89-3.28,2.23.2a21,21,0,0,0-.35,4.09,75.7,75.7,0,0,0,11.3,2.55,33,33,0,0,0,4.68-8.33c-2.72-.68-8.24-.84-8.12-2.78.16-2.62,5.5-.61,8.62,1.29a20.92,20.92,0,0,0,1-7,35.14,35.14,0,0,0-7.51-1.25c-5.61-.48-5.34-3.66-1.27-3.59,3,.06,6.79,1.89,8.59,2.85-1.17-7.63-7-12.52-11.66-12.71-7.84-.32-5,9.45-5,9.45s-5.32-3.74-10.33-3.64S74.63,364.91,80,372.38Zm21-14.12c-.17-1.1,3.33-1.36,3.51.05C104.66,359.89,101.12,359.38,100.94,358.26Zm5.64,11.46c-.08-.72,1.44-.85,1.78.06C108.59,370.36,106.64,370.42,106.58,369.72Zm-18.84.66c1.18.17,1.85,4.4-.18,4.31C86,374.63,86.74,370.24,87.74,370.38Z" style="fill:#EC0F0F"></path><path d="M89.38,375.08c.19-.53.37-1.06.53-1.6-.15.54-.29,1.09-.39,1.64A.07.07,0,1,1,89.38,375.08Z" style="fill:#263238"></path><path d="M91.45,368.28c.37-1.08.78-2.15,1.2-3.21.22-.57.46-1.14.71-1.69a7.17,7.17,0,0,1,.69-1.42,11.19,11.19,0,0,1-.63-1.37,0,0,0,0,1,.07,0A16.81,16.81,0,0,1,95,362.92c.22.37.42.75.64,1.12a9.78,9.78,0,0,1,1.32.2c.47.09.94.18,1.4.29l1.4.32a13.41,13.41,0,0,0,1.39.34.08.08,0,1,1,0,.15,9.25,9.25,0,0,0-1.46-.39c-.45-.09-.91-.17-1.36-.24l-1.37-.17-1-.08c.19.33.38.65.56,1l.09.15a4.3,4.3,0,0,1,1.12.14c.41.07.81.15,1.21.24.82.18,1.64.37,2.45.6,1.69.47,3.37,1,5,1.56.1,0,0,.17-.05.14a49.63,49.63,0,0,0-5.08-1.41l-2.41-.53-1.2-.26a7.12,7.12,0,0,1-.94-.2c.86,1.59,1.68,3.21,2.42,4.86,1.63,3.6,3,7.31,4.39,11a.08.08,0,0,1-.14.06,99.59,99.59,0,0,0-4.67-10.76c-.31-.64-.64-1.27-1-1.91l-.09.39c-.08.44-.15.87-.23,1.31-.14.88-.29,1.75-.42,2.63a30.36,30.36,0,0,0-.64,5.45.08.08,0,1,1-.15,0c.14-.87.14-1.78.2-2.66s.12-1.83.23-2.75.21-1.76.36-2.63c.07-.44.15-.88.23-1.31a2.52,2.52,0,0,1,.25-.95l-1.38-2.77c-.44-.86-.88-1.72-1.33-2.57-.19-.37-.39-.73-.6-1.1a9.27,9.27,0,0,1-.52,1.32l-.6,1.48c-.45,1.1-.87,2.2-1.29,3.31-.59,1.57-1.25,3.18-1.73,4.81C90.5,371.5,90.91,369.87,91.45,368.28Z" style="fill:#263238"></path><path d="M89.91,373.48l.12-.38Z" style="fill:#263238"></path><polygon points="56.13 385.09 56.69 396.76 58.11 426.86 89.16 426.86 90.58 396.76 91.13 385.09 56.13 385.09" style="fill:#37474f"></polygon><polygon points="56.13 385.09 56.69 396.76 90.58 396.76 91.13 385.09 56.13 385.09" style="fill:#263238"></polygon><rect x="53.93" y="380.36" width="39.41" height="9.44" transform="translate(147.26 770.17) rotate(180)" style="fill:#37474f"></rect><rect x="81.19" y="426.86" width="5.45" height="4.94" style="fill:#37474f"></rect><rect x="81.19" y="426.86" width="5.45" height="2.47" style="fill:#263238"></rect><rect x="60.62" y="426.86" width="5.45" height="4.94" style="fill:#37474f"></rect><rect x="60.62" y="426.86" width="5.45" height="2.47" style="fill:#263238"></rect></g></svg>