<?xml version="1.0" encoding="UTF-8" standalone="no"?>
<svg
   width="48"
   height="48"
   viewBox="0 -960 960 960"
   version="1.1"
   id="svg422"
   sodipodi:docname="calendar_month-fill.svg"
   inkscape:version="1.2.2 (1:1.2.2+202305151915+b0a8486541)"
   xmlns:inkscape="http://www.inkscape.org/namespaces/inkscape"
   xmlns:sodipodi="http://sodipodi.sourceforge.net/DTD/sodipodi-0.dtd"
   xmlns="http://www.w3.org/2000/svg"
   xmlns:svg="http://www.w3.org/2000/svg">
  <defs
     id="defs426" />
  <sodipodi:namedview
     id="namedview424"
     pagecolor="#ffffff"
     bordercolor="#666666"
     borderopacity="1.0"
     inkscape:showpageshadow="2"
     inkscape:pageopacity="0.0"
     inkscape:pagecheckerboard="0"
     inkscape:deskcolor="#d1d1d1"
     showgrid="false"
     inkscape:zoom="21.395833"
     inkscape:cx="12.011685"
     inkscape:cy="23.976631"
     inkscape:window-width="3440"
     inkscape:window-height="1391"
     inkscape:window-x="0"
     inkscape:window-y="0"
     inkscape:window-maximized="1"
     inkscape:current-layer="svg422" />
  <path
     d="m 136.89576,-11.850729 q -29.89598,0 -50.854409,-20.957137 Q 65.084214,-53.766299 65.084214,-83.662278 V -781.83848 q 0,-29.89727 20.957137,-50.85571 20.958429,-20.95713 50.854409,-20.95713 h 107.22073 v -80.19026 q 0,-9.65457 6.35469,-16.59663 6.35599,-6.94206 16.09873,-6.94206 10.29251,0 17.1088,6.94206 6.81628,6.94206 6.81628,16.59663 v 80.19026 H 673.49468 V -935.557 q 0,-9.93464 6.05777,-15.87831 6.05907,-5.94496 15.10034,-5.94496 9.59363,0 15.91073,6.16928 6.31839,6.16798 6.31839,15.37522 v 82.18445 h 106.22233 q 29.89598,0 50.85441,20.95713 20.95714,20.95844 20.95714,50.85571 v 698.176202 q 0,29.895979 -20.95714,50.854412 -20.95843,20.957137 -50.85441,20.957137 z m 0,-39.895449 h 686.20848 q 11.96772,0 21.94256,-9.973538 9.97354,-9.974835 9.97354,-21.942562 V -556.4277 H 104.97966 v 472.765422 q 0,11.967727 9.97354,21.942562 9.97484,9.973538 21.94256,9.973538 z M 480,-366.92269 q -16.05854,0 -27.97699,-11.91975 -11.91846,-11.91846 -11.91846,-27.9757 0,-16.05854 11.91846,-27.977 11.91845,-11.91975 27.97699,-11.91975 16.05854,0 27.97699,11.91975 11.91846,11.91846 11.91846,27.977 0,16.05724 -11.91846,27.9757 -11.91845,11.91975 -27.97699,11.91975 z m -207.45789,0 q -16.05854,0 -27.977,-11.91975 -11.91845,-11.91846 -11.91845,-27.9757 0,-16.05854 11.91845,-27.977 11.91846,-11.91975 27.977,-11.91975 16.05853,0 27.97699,11.91975 11.91846,11.91846 11.91846,27.977 0,16.05724 -11.91846,27.9757 -11.91846,11.91975 -27.97699,11.91975 z m 414.91578,0 q -16.05853,0 -27.97699,-11.91975 -11.91846,-11.91846 -11.91846,-27.9757 0,-16.05854 11.91846,-27.977 11.91846,-11.91975 27.97699,-11.91975 16.05854,0 27.977,11.91975 11.91845,11.91846 11.91845,27.977 0,16.05724 -11.91845,27.9757 -11.91846,11.91975 -27.977,11.91975 z M 480,-167.44415 q -16.05854,0 -27.97699,-11.91845 -11.91846,-11.91976 -11.91846,-27.977 0,-16.05854 11.91846,-27.97699 11.91845,-11.91975 27.97699,-11.91975 16.05854,0 27.97699,11.91975 11.91846,11.91845 11.91846,27.97699 0,16.05724 -11.91846,27.977 -11.91845,11.91845 -27.97699,11.91845 z m -207.45789,0 q -16.05854,0 -27.977,-11.91845 -11.91845,-11.91976 -11.91845,-27.977 0,-16.05854 11.91845,-27.97699 11.91846,-11.91975 27.977,-11.91975 16.05853,0 27.97699,11.91975 11.91846,11.91845 11.91846,27.97699 0,16.05724 -11.91846,27.977 -11.91846,11.91845 -27.97699,11.91845 z m 414.91578,0 q -16.05853,0 -27.97699,-11.91845 -11.91846,-11.91976 -11.91846,-27.977 0,-16.05854 11.91846,-27.97699 11.91846,-11.91975 27.97699,-11.91975 16.05854,0 27.977,11.91975 11.91845,11.91845 11.91845,27.97699 0,16.05724 -11.91845,27.977 -11.91846,11.91845 -27.977,11.91845 z"
     id="path420"
     style="stroke-width:1.29661" />
</svg>
