<svg xmlns="http://www.w3.org/2000/svg" viewBox="0 0 750 500"><g id="freepik--Shadow--inject-219"><ellipse cx="253.69" cy="428.02" rx="175.33" ry="22.99" style="fill:#ebebeb"></ellipse></g><g id="freepik--Server--inject-219"><rect x="470.03" y="232.01" width="105.39" height="157.97" style="fill:#263238"></rect><rect x="452.64" y="370.84" width="122.78" height="25.51" transform="translate(1028.06 767.18) rotate(180)" style="fill:#37474f"></rect><rect x="495.57" y="375.05" width="75.2" height="2.15" transform="translate(1066.34 752.26) rotate(180)" style="fill:#455a64"></rect><rect x="495.57" y="378.78" width="75.2" height="2.15" transform="translate(1066.34 759.72) rotate(180)" style="fill:#455a64"></rect><rect x="495.57" y="382.52" width="75.2" height="2.15" transform="translate(1066.34 767.18) rotate(180)" style="fill:#455a64"></rect><rect x="495.57" y="386.25" width="75.2" height="2.15" transform="translate(1066.34 774.65) rotate(180)" style="fill:#455a64"></rect><rect x="495.57" y="389.98" width="75.2" height="2.15" transform="translate(1066.34 782.11) rotate(180)" style="fill:#455a64"></rect><path d="M484.11,377.19a2.14,2.14,0,1,0,2.13-2.14A2.13,2.13,0,0,0,484.11,377.19Z" style="fill:#fff"></path><circle cx="479.2" cy="377.19" r="2.14" style="fill:#263238"></circle><circle cx="472.17" cy="377.19" r="2.14" style="fill:#fff"></circle><path d="M463,377.19a2.14,2.14,0,1,0,2.14-2.14A2.13,2.13,0,0,0,463,377.19Z" style="fill:#fff"></path><path d="M456,377.19a2.14,2.14,0,1,0,2.14-2.14A2.13,2.13,0,0,0,456,377.19Z" style="fill:#263238"></path><path d="M484.11,383.59a2.14,2.14,0,1,0,2.13-2.13A2.13,2.13,0,0,0,484.11,383.59Z" style="fill:#263238"></path><path d="M477.07,383.59a2.14,2.14,0,1,0,2.13-2.13A2.13,2.13,0,0,0,477.07,383.59Z" style="fill:#fff"></path><path d="M470,383.59a2.14,2.14,0,1,0,2.14-2.13A2.14,2.14,0,0,0,470,383.59Z" style="fill:#263238"></path><path d="M463,383.59a2.14,2.14,0,1,0,2.14-2.13A2.14,2.14,0,0,0,463,383.59Z" style="fill:#fff"></path><path d="M456,383.59a2.14,2.14,0,1,0,2.14-2.13A2.14,2.14,0,0,0,456,383.59Z" style="fill:#263238"></path><path d="M484.11,390a2.14,2.14,0,1,0,2.13-2.14A2.13,2.13,0,0,0,484.11,390Z" style="fill:#263238"></path><path d="M477.07,390a2.14,2.14,0,1,0,2.13-2.14A2.13,2.13,0,0,0,477.07,390Z" style="fill:#fff"></path><path d="M470,390a2.14,2.14,0,1,0,2.14-2.14A2.13,2.13,0,0,0,470,390Z" style="fill:#fff"></path><path d="M463,390a2.14,2.14,0,1,0,2.14-2.14A2.13,2.13,0,0,0,463,390Z" style="fill:#fff"></path><path d="M456,390a2.14,2.14,0,1,0,2.14-2.14A2.13,2.13,0,0,0,456,390Z" style="fill:#fff"></path><rect x="491.2" y="375.05" width="1.23" height="17.08" transform="translate(983.63 767.18) rotate(180)" style="fill:#263238"></rect><rect x="575.42" y="370.84" width="22.32" height="25.51" style="fill:#263238"></rect><rect x="452.64" y="341.33" width="122.78" height="25.51" transform="translate(1028.06 708.17) rotate(180)" style="fill:#37474f"></rect><rect x="495.57" y="345.54" width="75.2" height="2.15" transform="translate(1066.34 693.24) rotate(180)" style="fill:#455a64"></rect><rect x="495.57" y="349.27" width="75.2" height="2.15" transform="translate(1066.34 700.7) rotate(180)" style="fill:#455a64"></rect><rect x="495.57" y="353.01" width="75.2" height="2.15" transform="translate(1066.34 708.17) rotate(180)" style="fill:#455a64"></rect><rect x="495.57" y="356.74" width="75.2" height="2.15" transform="translate(1066.34 715.63) rotate(180)" style="fill:#455a64"></rect><rect x="495.57" y="360.47" width="75.2" height="2.15" transform="translate(1066.34 723.09) rotate(180)" style="fill:#455a64"></rect><path d="M484.11,347.68a2.14,2.14,0,1,0,2.13-2.14A2.13,2.13,0,0,0,484.11,347.68Z" style="fill:#263238"></path><circle cx="479.2" cy="347.68" r="2.14" style="fill:#fff"></circle><circle cx="472.17" cy="347.68" r="2.14" style="fill:#fff"></circle><path d="M463,347.68a2.14,2.14,0,1,0,2.14-2.14A2.13,2.13,0,0,0,463,347.68Z" style="fill:#fff"></path><path d="M456,347.68a2.14,2.14,0,1,0,2.14-2.14A2.13,2.13,0,0,0,456,347.68Z" style="fill:#263238"></path><path d="M484.11,354.08a2.14,2.14,0,1,0,2.13-2.13A2.13,2.13,0,0,0,484.11,354.08Z" style="fill:#fff"></path><path d="M477.07,354.08A2.14,2.14,0,1,0,479.2,352,2.13,2.13,0,0,0,477.07,354.08Z" style="fill:#263238"></path><path d="M470,354.08a2.14,2.14,0,1,0,2.14-2.13A2.14,2.14,0,0,0,470,354.08Z" style="fill:#263238"></path><path d="M463,354.08a2.14,2.14,0,1,0,2.14-2.13A2.14,2.14,0,0,0,463,354.08Z" style="fill:#263238"></path><path d="M456,354.08a2.14,2.14,0,1,0,2.14-2.13A2.14,2.14,0,0,0,456,354.08Z" style="fill:#fff"></path><path d="M484.11,360.49a2.14,2.14,0,1,0,2.13-2.14A2.13,2.13,0,0,0,484.11,360.49Z" style="fill:#fff"></path><path d="M477.07,360.49a2.14,2.14,0,1,0,2.13-2.14A2.13,2.13,0,0,0,477.07,360.49Z" style="fill:#fff"></path><path d="M470,360.49a2.14,2.14,0,1,0,2.14-2.14A2.13,2.13,0,0,0,470,360.49Z" style="fill:#263238"></path><path d="M463,360.49a2.14,2.14,0,1,0,2.14-2.14A2.13,2.13,0,0,0,463,360.49Z" style="fill:#fff"></path><path d="M456,360.49a2.14,2.14,0,1,0,2.14-2.14A2.13,2.13,0,0,0,456,360.49Z" style="fill:#fff"></path><rect x="491.2" y="345.54" width="1.23" height="17.08" transform="translate(983.63 708.17) rotate(180)" style="fill:#263238"></rect><rect x="575.42" y="341.33" width="22.32" height="25.51" style="fill:#263238"></rect><rect x="452.64" y="310.59" width="122.78" height="25.51" transform="translate(1028.06 646.68) rotate(180)" style="fill:#37474f"></rect><rect x="495.57" y="314.8" width="75.2" height="2.15" transform="translate(1066.34 631.75) rotate(180)" style="fill:#455a64"></rect><rect x="495.57" y="318.53" width="75.2" height="2.15" transform="translate(1066.34 639.22) rotate(180)" style="fill:#455a64"></rect><rect x="495.57" y="322.26" width="75.2" height="2.15" transform="translate(1066.34 646.68) rotate(180)" style="fill:#455a64"></rect><rect x="495.57" y="326" width="75.2" height="2.15" transform="translate(1066.34 654.14) rotate(180)" style="fill:#455a64"></rect><rect x="495.57" y="329.73" width="75.2" height="2.15" transform="translate(1066.34 661.61) rotate(180)" style="fill:#455a64"></rect><path d="M484.11,316.93a2.14,2.14,0,1,0,2.13-2.13A2.13,2.13,0,0,0,484.11,316.93Z" style="fill:#263238"></path><path d="M477.07,316.93a2.14,2.14,0,1,0,2.13-2.13A2.13,2.13,0,0,0,477.07,316.93Z" style="fill:#fff"></path><path d="M470,316.93a2.14,2.14,0,1,0,2.14-2.13A2.14,2.14,0,0,0,470,316.93Z" style="fill:#fff"></path><path d="M463,316.93a2.14,2.14,0,1,0,2.14-2.13A2.14,2.14,0,0,0,463,316.93Z" style="fill:#fff"></path><path d="M456,316.93a2.14,2.14,0,1,0,2.14-2.13A2.14,2.14,0,0,0,456,316.93Z" style="fill:#263238"></path><path d="M484.11,323.34a2.14,2.14,0,1,0,2.13-2.14A2.13,2.13,0,0,0,484.11,323.34Z" style="fill:#fff"></path><path d="M477.07,323.34a2.14,2.14,0,1,0,2.13-2.14A2.13,2.13,0,0,0,477.07,323.34Z" style="fill:#fff"></path><path d="M470,323.34a2.14,2.14,0,1,0,2.14-2.14A2.13,2.13,0,0,0,470,323.34Z" style="fill:#263238"></path><path d="M463,323.34a2.14,2.14,0,1,0,2.14-2.14A2.13,2.13,0,0,0,463,323.34Z" style="fill:#263238"></path><path d="M456,323.34a2.14,2.14,0,1,0,2.14-2.14A2.13,2.13,0,0,0,456,323.34Z" style="fill:#fff"></path><path d="M484.11,329.75a2.14,2.14,0,1,0,2.13-2.14A2.13,2.13,0,0,0,484.11,329.75Z" style="fill:#263238"></path><path d="M477.07,329.75a2.14,2.14,0,1,0,2.13-2.14A2.13,2.13,0,0,0,477.07,329.75Z" style="fill:#fff"></path><path d="M470,329.75a2.14,2.14,0,1,0,2.14-2.14A2.14,2.14,0,0,0,470,329.75Z" style="fill:#fff"></path><path d="M463,329.75a2.14,2.14,0,1,0,2.14-2.14A2.14,2.14,0,0,0,463,329.75Z" style="fill:#fff"></path><path d="M456,329.75a2.14,2.14,0,1,0,2.14-2.14A2.14,2.14,0,0,0,456,329.75Z" style="fill:#263238"></path><rect x="491.2" y="314.8" width="1.23" height="17.08" transform="translate(983.63 646.68) rotate(180)" style="fill:#263238"></rect><rect x="575.42" y="310.59" width="22.32" height="25.51" style="fill:#263238"></rect><rect x="452.64" y="279.84" width="122.78" height="25.51" transform="translate(1028.06 585.19) rotate(180)" style="fill:#37474f"></rect><rect x="495.57" y="284.06" width="75.2" height="2.15" transform="translate(1066.34 570.27) rotate(180)" style="fill:#455a64"></rect><rect x="495.57" y="287.79" width="75.2" height="2.15" transform="translate(1066.34 577.73) rotate(180)" style="fill:#455a64"></rect><rect x="495.57" y="291.52" width="75.2" height="2.15" transform="translate(1066.34 585.19) rotate(180)" style="fill:#455a64"></rect><rect x="495.57" y="295.25" width="75.2" height="2.15" transform="translate(1066.34 592.66) rotate(180)" style="fill:#455a64"></rect><rect x="495.57" y="298.98" width="75.2" height="2.15" transform="translate(1066.34 600.12) rotate(180)" style="fill:#455a64"></rect><path d="M484.11,286.19a2.14,2.14,0,1,0,2.13-2.13A2.13,2.13,0,0,0,484.11,286.19Z" style="fill:#fff"></path><path d="M477.07,286.19a2.14,2.14,0,1,0,2.13-2.13A2.13,2.13,0,0,0,477.07,286.19Z" style="fill:#263238"></path><path d="M470,286.19a2.14,2.14,0,1,0,2.14-2.13A2.14,2.14,0,0,0,470,286.19Z" style="fill:#fff"></path><path d="M463,286.19a2.14,2.14,0,1,0,2.14-2.13A2.14,2.14,0,0,0,463,286.19Z" style="fill:#fff"></path><path d="M456,286.19a2.14,2.14,0,1,0,2.14-2.13A2.14,2.14,0,0,0,456,286.19Z" style="fill:#263238"></path><path d="M484.11,292.6a2.14,2.14,0,1,0,2.13-2.14A2.13,2.13,0,0,0,484.11,292.6Z" style="fill:#fff"></path><path d="M477.07,292.6a2.14,2.14,0,1,0,2.13-2.14A2.13,2.13,0,0,0,477.07,292.6Z" style="fill:#fff"></path><path d="M470,292.6a2.14,2.14,0,1,0,2.14-2.14A2.13,2.13,0,0,0,470,292.6Z" style="fill:#263238"></path><path d="M463,292.6a2.14,2.14,0,1,0,2.14-2.14A2.13,2.13,0,0,0,463,292.6Z" style="fill:#263238"></path><path d="M456,292.6a2.14,2.14,0,1,0,2.14-2.14A2.13,2.13,0,0,0,456,292.6Z" style="fill:#fff"></path><path d="M484.11,299a2.14,2.14,0,1,0,2.13-2.13A2.13,2.13,0,0,0,484.11,299Z" style="fill:#263238"></path><circle cx="479.2" cy="299" r="2.14" style="fill:#fff"></circle><circle cx="472.17" cy="299" r="2.14" style="fill:#fff"></circle><path d="M463,299a2.14,2.14,0,1,0,2.14-2.13A2.14,2.14,0,0,0,463,299Z" style="fill:#263238"></path><path d="M456,299a2.14,2.14,0,1,0,2.14-2.13A2.14,2.14,0,0,0,456,299Z" style="fill:#fff"></path><rect x="491.2" y="284.06" width="1.23" height="17.08" transform="translate(983.63 585.19) rotate(180)" style="fill:#263238"></rect><rect x="575.42" y="279.84" width="22.32" height="25.51" style="fill:#263238"></rect><rect x="452.64" y="249.1" width="122.78" height="25.51" transform="translate(1028.06 523.71) rotate(180)" style="fill:#37474f"></rect><rect x="495.57" y="253.31" width="75.2" height="2.15" transform="translate(1066.34 508.78) rotate(180)" style="fill:#455a64"></rect><rect x="495.57" y="257.05" width="75.2" height="2.15" transform="translate(1066.34 516.24) rotate(180)" style="fill:#455a64"></rect><rect x="495.57" y="260.78" width="75.2" height="2.15" transform="translate(1066.34 523.71) rotate(180)" style="fill:#455a64"></rect><rect x="495.57" y="264.51" width="75.2" height="2.15" transform="translate(1066.34 531.17) rotate(180)" style="fill:#455a64"></rect><rect x="495.57" y="268.24" width="75.2" height="2.15" transform="translate(1066.34 538.64) rotate(180)" style="fill:#455a64"></rect><path d="M484.11,255.45a2.14,2.14,0,1,0,2.13-2.14A2.13,2.13,0,0,0,484.11,255.45Z" style="fill:#fff"></path><path d="M477.07,255.45a2.14,2.14,0,1,0,2.13-2.14A2.13,2.13,0,0,0,477.07,255.45Z" style="fill:#fff"></path><path d="M470,255.45a2.14,2.14,0,1,0,2.14-2.14A2.13,2.13,0,0,0,470,255.45Z" style="fill:#fff"></path><path d="M463,255.45a2.14,2.14,0,1,0,2.14-2.14A2.13,2.13,0,0,0,463,255.45Z" style="fill:#263238"></path><path d="M456,255.45a2.14,2.14,0,1,0,2.14-2.14A2.13,2.13,0,0,0,456,255.45Z" style="fill:#fff"></path><path d="M484.11,261.85a2.14,2.14,0,1,0,2.13-2.13A2.13,2.13,0,0,0,484.11,261.85Z" style="fill:#263238"></path><path d="M477.07,261.85a2.14,2.14,0,1,0,2.13-2.13A2.13,2.13,0,0,0,477.07,261.85Z" style="fill:#fff"></path><path d="M470,261.85a2.14,2.14,0,1,0,2.14-2.13A2.14,2.14,0,0,0,470,261.85Z" style="fill:#263238"></path><path d="M463,261.85a2.14,2.14,0,1,0,2.14-2.13A2.14,2.14,0,0,0,463,261.85Z" style="fill:#fff"></path><path d="M456,261.85a2.14,2.14,0,1,0,2.14-2.13A2.14,2.14,0,0,0,456,261.85Z" style="fill:#fff"></path><path d="M484.11,268.26a2.14,2.14,0,1,0,2.13-2.14A2.13,2.13,0,0,0,484.11,268.26Z" style="fill:#fff"></path><path d="M477.07,268.26a2.14,2.14,0,1,0,2.13-2.14A2.13,2.13,0,0,0,477.07,268.26Z" style="fill:#263238"></path><path d="M470,268.26a2.14,2.14,0,1,0,2.14-2.14A2.13,2.13,0,0,0,470,268.26Z" style="fill:#fff"></path><path d="M463,268.26a2.14,2.14,0,1,0,2.14-2.14A2.13,2.13,0,0,0,463,268.26Z" style="fill:#fff"></path><path d="M456,268.26a2.14,2.14,0,1,0,2.14-2.14A2.13,2.13,0,0,0,456,268.26Z" style="fill:#263238"></path><rect x="491.2" y="253.31" width="1.23" height="17.08" transform="translate(983.63 523.71) rotate(180)" style="fill:#263238"></rect><rect x="575.42" y="249.1" width="22.32" height="25.51" style="fill:#263238"></rect><rect x="452.64" y="218.36" width="122.78" height="25.51" transform="translate(1028.06 462.22) rotate(180)" style="fill:#37474f"></rect><rect x="495.57" y="222.57" width="75.2" height="2.15" transform="translate(1066.34 447.29) rotate(180)" style="fill:#455a64"></rect><rect x="495.57" y="226.3" width="75.2" height="2.15" transform="translate(1066.34 454.76) rotate(180)" style="fill:#455a64"></rect><rect x="495.57" y="230.03" width="75.2" height="2.15" transform="translate(1066.34 462.22) rotate(180)" style="fill:#455a64"></rect><rect x="495.57" y="233.77" width="75.2" height="2.15" transform="translate(1066.34 469.69) rotate(180)" style="fill:#455a64"></rect><rect x="495.57" y="237.5" width="75.2" height="2.15" transform="translate(1066.34 477.15) rotate(180)" style="fill:#455a64"></rect><path d="M484.11,224.71a2.14,2.14,0,1,0,2.13-2.14A2.13,2.13,0,0,0,484.11,224.71Z" style="fill:#263238"></path><path d="M477.07,224.71a2.14,2.14,0,1,0,2.13-2.14A2.13,2.13,0,0,0,477.07,224.71Z" style="fill:#263238"></path><path d="M470,224.71a2.14,2.14,0,1,0,2.14-2.14A2.14,2.14,0,0,0,470,224.71Z" style="fill:#fff"></path><path d="M463,224.71a2.14,2.14,0,1,0,2.14-2.14A2.14,2.14,0,0,0,463,224.71Z" style="fill:#263238"></path><path d="M456,224.71a2.14,2.14,0,1,0,2.14-2.14A2.14,2.14,0,0,0,456,224.71Z" style="fill:#fff"></path><path d="M484.11,231.11a2.14,2.14,0,1,0,2.13-2.13A2.13,2.13,0,0,0,484.11,231.11Z" style="fill:#fff"></path><path d="M477.07,231.11A2.14,2.14,0,1,0,479.2,229,2.13,2.13,0,0,0,477.07,231.11Z" style="fill:#fff"></path><path d="M470,231.11a2.14,2.14,0,1,0,2.14-2.13A2.14,2.14,0,0,0,470,231.11Z" style="fill:#263238"></path><path d="M463,231.11a2.14,2.14,0,1,0,2.14-2.13A2.14,2.14,0,0,0,463,231.11Z" style="fill:#fff"></path><path d="M456,231.11a2.14,2.14,0,1,0,2.14-2.13A2.14,2.14,0,0,0,456,231.11Z" style="fill:#263238"></path><path d="M484.11,237.52a2.14,2.14,0,1,0,2.13-2.14A2.13,2.13,0,0,0,484.11,237.52Z" style="fill:#fff"></path><path d="M477.07,237.52a2.14,2.14,0,1,0,2.13-2.14A2.13,2.13,0,0,0,477.07,237.52Z" style="fill:#263238"></path><path d="M470,237.52a2.14,2.14,0,1,0,2.14-2.14A2.13,2.13,0,0,0,470,237.52Z" style="fill:#fff"></path><path d="M463,237.52a2.14,2.14,0,1,0,2.14-2.14A2.13,2.13,0,0,0,463,237.52Z" style="fill:#fff"></path><path d="M456,237.52a2.14,2.14,0,1,0,2.14-2.14A2.13,2.13,0,0,0,456,237.52Z" style="fill:#fff"></path><rect x="491.2" y="222.57" width="1.23" height="17.08" transform="translate(983.63 462.22) rotate(180)" style="fill:#263238"></rect><rect x="575.42" y="218.36" width="22.32" height="25.51" style="fill:#263238"></rect></g><g id="freepik--Window--inject-219"><rect x="169.31" y="106.67" width="149.82" height="94.52" style="fill:#37474f"></rect><rect x="169.31" y="106.67" width="149.82" height="8.33" style="fill:#FFC727"></rect><path d="M177.13,110.89a2.1,2.1,0,1,1-2.1-2.09A2.1,2.1,0,0,1,177.13,110.89Z" style="fill:#a6a6a6"></path><path d="M185.69,110.89a2.1,2.1,0,1,1-2.1-2.09A2.1,2.1,0,0,1,185.69,110.89Z" style="fill:#ebebeb"></path><path d="M194.24,110.89a2.1,2.1,0,1,1-2.09-2.09A2.1,2.1,0,0,1,194.24,110.89Z" style="fill:#fff"></path><rect x="178.25" y="131.56" width="4.45" height="1.63" style="fill:#ebebeb"></rect><rect x="185.94" y="131.56" width="71.89" height="1.63" style="fill:#ebebeb"></rect><rect x="260.57" y="131.56" width="8.45" height="1.63" style="fill:#FFC727"></rect><rect x="274.1" y="153.31" width="8.45" height="1.63" style="fill:#ebebeb"></rect><rect x="270.86" y="131.56" width="28.5" height="1.63" style="fill:#a6a6a6"></rect><rect x="182.7" y="135.91" width="4.45" height="1.63" style="fill:#ebebeb"></rect><rect x="190.28" y="135.91" width="33.51" height="1.63" style="fill:#a6a6a6"></rect><rect x="259.42" y="153.31" width="12.67" height="1.63" style="fill:#a6a6a6"></rect><rect x="185.94" y="148.96" width="32.01" height="1.63" style="fill:#a6a6a6"></rect><rect x="190.28" y="140.26" width="22.45" height="1.63" style="fill:#FFC727"></rect><rect x="266.22" y="144.61" width="22.45" height="1.63" style="fill:#a6a6a6"></rect><rect x="215.22" y="140.26" width="56.69" height="1.63" style="fill:#a6a6a6"></rect><rect x="185.94" y="153.31" width="70.58" height="1.63" style="fill:#FFC727"></rect><rect x="269.92" y="135.91" width="37.08" height="1.63" style="fill:#FFC727"></rect><rect x="225.89" y="135.91" width="42.19" height="1.63" style="fill:#ebebeb"></rect><rect x="287.49" y="140.26" width="14.41" height="1.63" style="fill:#ebebeb"></rect><rect x="182.7" y="140.26" width="4.45" height="1.63" style="fill:#ebebeb"></rect><rect x="178.25" y="144.61" width="4.45" height="1.63" style="fill:#a6a6a6"></rect><rect x="185.94" y="144.61" width="26.31" height="1.63" style="fill:#ebebeb"></rect><rect x="190.28" y="157.67" width="26.31" height="1.63" style="fill:#ebebeb"></rect><rect x="260.17" y="162.02" width="33.89" height="1.63" style="fill:#FFC727"></rect><rect x="218.72" y="157.67" width="47.21" height="1.63" style="fill:#FFC727"></rect><rect x="214.07" y="162.02" width="43.8" height="1.63" style="fill:#ebebeb"></rect><rect x="190.28" y="162.02" width="7.62" height="1.63" style="fill:#a6a6a6"></rect><rect x="219.76" y="148.96" width="49.27" height="1.63" style="fill:#ebebeb"></rect><rect x="270.86" y="148.96" width="31.98" height="1.63" style="fill:#FFC727"></rect><rect x="214.92" y="144.61" width="49.23" height="1.63" style="fill:#FFC727"></rect><rect x="178.25" y="148.96" width="4.45" height="1.63" style="fill:#ebebeb"></rect><rect x="178.25" y="153.31" width="4.45" height="1.63" style="fill:#ebebeb"></rect><rect x="182.7" y="157.67" width="4.45" height="1.63" style="fill:#a6a6a6"></rect><rect x="182.7" y="162.02" width="4.45" height="1.63" style="fill:#ebebeb"></rect><rect x="178.25" y="165.66" width="4.45" height="1.63" style="fill:#ebebeb"></rect><rect x="185.94" y="165.66" width="52.19" height="1.63" style="fill:#ebebeb"></rect><rect x="182.7" y="170.01" width="4.45" height="1.63" style="fill:#ebebeb"></rect><rect x="190.28" y="170.01" width="33.51" height="1.63" style="fill:#a6a6a6"></rect><rect x="185.94" y="183.07" width="32.01" height="1.63" style="fill:#a6a6a6"></rect><rect x="190.28" y="174.36" width="22.45" height="1.63" style="fill:#FFC727"></rect><rect x="215.22" y="174.36" width="56.69" height="1.63" style="fill:#a6a6a6"></rect><rect x="185.94" y="187.42" width="70.58" height="1.63" style="fill:#FFC727"></rect><rect x="269.92" y="170.01" width="37.08" height="1.63" style="fill:#FFC727"></rect><rect x="225.89" y="170.01" width="42.19" height="1.63" style="fill:#ebebeb"></rect><rect x="287.49" y="174.36" width="14.41" height="1.63" style="fill:#ebebeb"></rect><rect x="182.7" y="174.36" width="4.45" height="1.63" style="fill:#ebebeb"></rect><rect x="178.25" y="178.72" width="4.45" height="1.63" style="fill:#a6a6a6"></rect><rect x="185.94" y="178.72" width="26.31" height="1.63" style="fill:#ebebeb"></rect><rect x="219.76" y="183.07" width="49.27" height="1.63" style="fill:#ebebeb"></rect><rect x="214.92" y="178.72" width="49.23" height="1.63" style="fill:#FFC727"></rect><rect x="178.25" y="183.07" width="4.45" height="1.63" style="fill:#ebebeb"></rect><path d="M181,127.28a.39.39,0,0,1,0,.55.43.43,0,0,1-.27.11.39.39,0,0,1-.28-.11l-1.72-1.75a0,0,0,0,1,0,0h0s0,0,0-.05,0,0,0,0,0,0,0,0,0,0,0,0v0s0,0,0,0,0,0,0,0v-.06a.09.09,0,0,0,0,0,0,0,0,0,1,0,0,.33.33,0,0,1,0-.06h0l0,0,1.72-1.74a.39.39,0,0,1,.55.55l-1.45,1.46Z" style="fill:#FFC727"></path><path d="M182.55,127.47l1.5-3.56a.34.34,0,0,1,.62.26l-1.5,3.56a.35.35,0,0,1-.31.21.31.31,0,0,1-.13,0A.34.34,0,0,1,182.55,127.47Z" style="fill:#FFC727"></path><path d="M187.62,126h0l-.05,0-1.71,1.75a.43.43,0,0,1-.28.11.39.39,0,0,1-.27-.11.38.38,0,0,1,0-.55l1.44-1.46-1.44-1.46a.38.38,0,0,1,0-.55.39.39,0,0,1,.55,0l1.71,1.74.05,0h0s0,0,0,.06a0,0,0,0,1,0,0,.06.06,0,0,0,0,0v.06s0,0,0,0v.09a.06.06,0,0,0,0,0s0,0,0,0S187.63,126,187.62,126Z" style="fill:#FFC727"></path></g><g id="freepik--Files--inject-219"><polygon points="414.59 138.21 350.88 138.21 350.88 55 398.91 55 414.59 70.68 414.59 138.21" style="fill:#FFC727"></polygon><polygon points="414.59 138.21 350.88 138.21 350.88 55 398.91 55 414.59 70.68 414.59 138.21" style="fill:#fff;opacity:0.6000000000000001"></polygon><polygon points="414.59 70.68 398.91 70.68 398.91 55 414.59 70.68" style="fill:#FFC727"></polygon><path d="M365.61,84.33a4.75,4.75,0,1,0,4.74-4.77A4.75,4.75,0,0,0,365.61,84.33Z" style="fill:#FFC727"></path><polygon points="372.94 105.43 405.16 105.43 389.05 85.76 372.94 105.43" style="fill:#FFC727"></polygon><polygon points="360.31 105.43 386.91 105.43 373.61 92.62 360.31 105.43" style="fill:#FFC727"></polygon><polygon points="360.31 105.43 386.91 105.43 373.61 92.62 360.31 105.43" style="opacity:0.1"></polygon><path d="M406.16,106.43H359.31V73h46.85Zm-44.85-2h42.85V75H361.31Z" style="fill:#FFC727"></path><rect x="335.41" y="108.82" width="45.76" height="18.94" style="fill:#455a64"></rect><path d="M348.84,114v9.18h-1.77v-3.91h-4.16v3.91h-1.79V114h1.79v3.71h4.16V114Z" style="fill:#fff"></path><path d="M357.63,115.55h-2.94v7.61h-1.77v-7.61H350V114h7.65Z" style="fill:#fff"></path><path d="M366.25,123.16v-6.07l-2.36,4.52h-1l-2.37-4.52v6.07h-1.79V114h1.92l2.72,5.23,2.74-5.23H368v9.18Z" style="fill:#fff"></path><path d="M370,123.16V114h1.79v7.62h4.68v1.56Z" style="fill:#fff"></path><polygon points="414.59 246.78 350.88 246.78 350.88 163.57 398.91 163.57 414.59 179.25 414.59 246.78" style="fill:#FFC727"></polygon><polygon points="414.59 246.78 350.88 246.78 350.88 163.57 398.91 163.57 414.59 179.25 414.59 246.78" style="fill:#fff;opacity:0.6000000000000001"></polygon><polygon points="414.59 179.25 398.91 179.25 398.91 163.57 414.59 179.25" style="fill:#FFC727"></polygon><path d="M365.61,192.9a4.75,4.75,0,1,0,4.74-4.77A4.75,4.75,0,0,0,365.61,192.9Z" style="fill:#FFC727"></path><polygon points="372.94 214 405.16 214 389.05 194.33 372.94 214" style="fill:#FFC727"></polygon><polygon points="360.31 214 386.91 214 373.61 201.19 360.31 214" style="fill:#FFC727"></polygon><polygon points="360.31 214 386.91 214 373.61 201.19 360.31 214" style="opacity:0.1"></polygon><path d="M406.16,215H359.31V181.53h46.85Zm-44.85-2h42.85V183.53H361.31Z" style="fill:#FFC727"></path><rect x="335.41" y="217.39" width="45.76" height="18.94" style="fill:#455a64"></rect><path d="M346.22,227.08a4.77,4.77,0,0,1,.3-1.66,4.42,4.42,0,0,1,.89-1.47,4.57,4.57,0,0,1,1.42-1,4.37,4.37,0,0,1,1.92-.4,4.2,4.2,0,0,1,2.19.56,3.53,3.53,0,0,1,1.37,1.45l-1.37.94a2.07,2.07,0,0,0-.44-.65,2,2,0,0,0-.55-.42,2.45,2.45,0,0,0-.62-.23,2.85,2.85,0,0,0-.64-.07,2.43,2.43,0,0,0-1.17.27,2.54,2.54,0,0,0-.82.7,3.08,3.08,0,0,0-.5,1,3.75,3.75,0,0,0-.17,1.09,3.5,3.5,0,0,0,.19,1.17,3.17,3.17,0,0,0,.55,1,2.76,2.76,0,0,0,.86.69,2.33,2.33,0,0,0,1.09.25,3,3,0,0,0,.65-.07,2.65,2.65,0,0,0,.64-.25,2.26,2.26,0,0,0,.56-.43,2,2,0,0,0,.41-.64l1.46.84a2.68,2.68,0,0,1-.62.91,4.1,4.1,0,0,1-.92.67,4.62,4.62,0,0,1-1.09.41,4.56,4.56,0,0,1-1.14.14,3.85,3.85,0,0,1-1.8-.41,4.85,4.85,0,0,1-2.32-2.59A4.74,4.74,0,0,1,346.22,227.08Z" style="fill:#fff"></path><path d="M361.12,225a2.68,2.68,0,0,0-.33-.25,5.14,5.14,0,0,0-.58-.3,5.07,5.07,0,0,0-.75-.25,3.16,3.16,0,0,0-.81-.11,1.84,1.84,0,0,0-1.1.27.92.92,0,0,0-.36.77.79.79,0,0,0,.13.47,1.24,1.24,0,0,0,.4.33,3.81,3.81,0,0,0,.65.26c.26.08.57.16.91.24a11.75,11.75,0,0,1,1.22.39,3.18,3.18,0,0,1,.93.52,2,2,0,0,1,.59.74,2.46,2.46,0,0,1,.21,1.07,2.61,2.61,0,0,1-.28,1.26,2.28,2.28,0,0,1-.75.85,3.4,3.4,0,0,1-1.08.47,5.43,5.43,0,0,1-1.29.15,6.78,6.78,0,0,1-2-.31,6.4,6.4,0,0,1-1.82-.88l.79-1.54a2.32,2.32,0,0,0,.42.3,7.88,7.88,0,0,0,.72.38,6.58,6.58,0,0,0,.92.32,4.46,4.46,0,0,0,1,.12c1,0,1.48-.31,1.48-.94a.76.76,0,0,0-.17-.5,1.45,1.45,0,0,0-.48-.37,4.79,4.79,0,0,0-.75-.28l-1-.29a9,9,0,0,1-1.15-.39,3,3,0,0,1-.8-.5,1.91,1.91,0,0,1-.49-.68,2.25,2.25,0,0,1-.16-.91,2.89,2.89,0,0,1,.26-1.24,2.55,2.55,0,0,1,.72-.91,3.33,3.33,0,0,1,1.06-.55,4.61,4.61,0,0,1,1.31-.18,5.17,5.17,0,0,1,1.79.3,6.51,6.51,0,0,1,1.42.72Z" style="fill:#fff"></path><path d="M369.05,225a2.68,2.68,0,0,0-.33-.25,5,5,0,0,0-1.33-.55,3.22,3.22,0,0,0-.81-.11,1.84,1.84,0,0,0-1.1.27.93.93,0,0,0-.37.77.79.79,0,0,0,.14.47,1.31,1.31,0,0,0,.39.33,4.33,4.33,0,0,0,.66.26c.26.08.57.16.91.24a11.75,11.75,0,0,1,1.22.39,3.18,3.18,0,0,1,.93.52,2.1,2.1,0,0,1,.59.74,2.46,2.46,0,0,1,.21,1.07,2.61,2.61,0,0,1-.28,1.26,2.28,2.28,0,0,1-.75.85,3.36,3.36,0,0,1-1.09.47,5.34,5.34,0,0,1-1.28.15,6.89,6.89,0,0,1-2.05-.31,6.48,6.48,0,0,1-1.81-.88l.79-1.54a2.32,2.32,0,0,0,.42.3,5.9,5.9,0,0,0,.72.38,6.58,6.58,0,0,0,.92.32,4.46,4.46,0,0,0,1,.12c1,0,1.48-.31,1.48-.94a.76.76,0,0,0-.17-.5,1.45,1.45,0,0,0-.48-.37,5.7,5.7,0,0,0-.75-.28l-1-.29a9,9,0,0,1-1.15-.39,3.19,3.19,0,0,1-.81-.5,2,2,0,0,1-.48-.68,2.25,2.25,0,0,1-.16-.91,2.75,2.75,0,0,1,.26-1.24,2.64,2.64,0,0,1,.71-.91,3.5,3.5,0,0,1,1.07-.55,4.61,4.61,0,0,1,1.31-.18,5.12,5.12,0,0,1,1.78.3,6.37,6.37,0,0,1,1.43.72Z" style="fill:#fff"></path><polygon points="414.59 355.36 350.88 355.36 350.88 272.15 398.91 272.15 414.59 287.82 414.59 355.36" style="fill:#FFC727"></polygon><polygon points="414.59 355.36 350.88 355.36 350.88 272.15 398.91 272.15 414.59 287.82 414.59 355.36" style="fill:#fff;opacity:0.6000000000000001"></polygon><polygon points="414.59 287.82 398.91 287.82 398.91 272.15 414.59 287.82" style="fill:#FFC727"></polygon><path d="M365.61,301.47a4.75,4.75,0,1,0,4.74-4.77A4.75,4.75,0,0,0,365.61,301.47Z" style="fill:#FFC727"></path><polygon points="372.94 322.57 405.16 322.57 389.05 302.9 372.94 322.57" style="fill:#FFC727"></polygon><polygon points="360.31 322.57 386.91 322.57 373.61 309.76 360.31 322.57" style="fill:#FFC727"></polygon><polygon points="360.31 322.57 386.91 322.57 373.61 309.76 360.31 322.57" style="opacity:0.1"></polygon><path d="M406.16,323.57H359.31V290.1h46.85Zm-44.85-2h42.85V292.1H361.31Z" style="fill:#FFC727"></path><rect x="335.41" y="325.96" width="45.76" height="18.94" style="fill:#455a64"></rect><path d="M352.34,338.43a2.87,2.87,0,0,0,1.59.44,1.7,1.7,0,0,0,.87-.19,1.11,1.11,0,0,0,.49-.57,3.09,3.09,0,0,0,.22-1,13.4,13.4,0,0,0,.05-1.35v-4.67h1.79v4.67a15.75,15.75,0,0,1-.11,1.91,4,4,0,0,1-.47,1.47,2.41,2.41,0,0,1-1,.94,4,4,0,0,1-1.81.34,3.43,3.43,0,0,1-2-.57Z" style="fill:#fff"></path><path d="M361.43,340.44a5.25,5.25,0,0,1-1.66-.27,4.31,4.31,0,0,1-1.4-.78l.65-1.09a5.06,5.06,0,0,0,1.21.67,3.23,3.23,0,0,0,1.17.22,1.47,1.47,0,0,0,.81-.19.62.62,0,0,0,.3-.56.57.57,0,0,0-.35-.53,7,7,0,0,0-1.14-.38c-.44-.12-.81-.24-1.12-.35a2.9,2.9,0,0,1-.75-.39,1.3,1.3,0,0,1-.42-.49,1.62,1.62,0,0,1-.13-.66,2.12,2.12,0,0,1,.2-.93,2.06,2.06,0,0,1,.57-.71,2.59,2.59,0,0,1,.84-.44,3.32,3.32,0,0,1,1.06-.16,4.46,4.46,0,0,1,1.43.22,3.52,3.52,0,0,1,1.22.71l-.7,1.05a4,4,0,0,0-1-.57,2.81,2.81,0,0,0-1-.18,1.36,1.36,0,0,0-.73.18.62.62,0,0,0-.3.58.56.56,0,0,0,.07.3.59.59,0,0,0,.23.21,2.66,2.66,0,0,0,.4.17,6.46,6.46,0,0,0,.63.18q.7.18,1.2.36a3.39,3.39,0,0,1,.81.41,1.58,1.58,0,0,1,.47.54,1.61,1.61,0,0,1,.15.73,1.89,1.89,0,0,1-.74,1.57A3.2,3.2,0,0,1,361.43,340.44Z" style="fill:#fff"></path><path d="M328.43,226.86h-1v-4h1Zm0-7h-1v-4h1Zm0-7h-1v-4h1Zm0-7h-1v-4h1Zm0-7h-1v-4h1Zm0-7h-1v-4h1Zm0-7h-1v-4h1Zm0-7h-1v-4h1Zm0-7h-1v-4h1Zm0-7h-1v-4h1Zm0-7h-1v-4h1Zm0-7h-1v-4h1Zm0-7h-1v-4h1Zm0-7h-1v-4h1Zm0-7h-1v-4h1Zm0-7h-1v-4.07h.93v.5h.07Zm3.06-3.07h-.13v-1h.13Z" style="fill:#263238"></path><circle cx="331.41" cy="118.29" r="1.5" style="fill:#263238"></circle><path d="M246.52,245.36h-1v-4h1Zm0-7h-1v-4h1Zm0-7h-1v-4h1Zm83-4h-4v-1h4Zm-7,0h-4v-1h4Zm-7,0h-4v-1h4Zm-7,0h-4v-1h4Zm-7,0h-4v-1h4Zm-7,0h-4v-1h4Zm-7,0h-4v-1h4Zm-7,0h-4v-1h4Zm-7,0h-4v-1h4Zm-7,0h-4v-1h4Zm-7,0h-4v-1h4Zm-7,0h-4v-1h4Z" style="fill:#263238"></path><path d="M247.53,245.28a1.51,1.51,0,1,1-3,0,1.51,1.51,0,0,1,3,0Z" style="fill:#263238"></path><circle cx="331.41" cy="226.86" r="1.5" style="fill:#263238"></circle><path d="M331.49,335.93h-.13v-1h.13Zm-3.13,0h-.93v-4.07h1v3.57h-.07Zm.07-7.07h-1v-4h1Zm0-7h-1v-4h1Zm0-7h-1v-4h1Zm0-7h-1v-4h1Zm0-7h-1v-4h1Zm0-7h-1v-4h1Zm0-7h-1v-4h1Zm0-7h-1v-4h1Zm0-7h-1v-4h1Zm0-7h-1v-4h1Zm0-7h-1v-4h1Zm0-7h-1v-4h1Zm0-7h-1v-4h1Zm0-7h-1v-4h1Zm0-7h-1v-4h1Z" style="fill:#263238"></path><circle cx="331.41" cy="335.43" r="1.5" style="fill:#263238"></circle><path d="M422.64,226.86h-1v-4h1Zm0-7h-1v-4h1Zm0-7h-1v-4h1Zm0-7h-1v-4h1Zm0-7h-1v-4h1Zm0-7h-1v-4h1Zm0-7h-1v-4h1Zm0-7h-1v-4h1Zm0-7h-1v-4h1Zm0-7h-1v-4h1Zm0-7h-1v-4h1Zm0-7h-1v-4h1Zm0-7h-1v-4h1Zm0-7h-1v-4h1Zm0-7h-1v-4h1Zm0-7h-1v-3.57h.07v-.5h.93Zm-3.93-3.07h-.13v-1h.13Z" style="fill:#263238"></path><circle cx="418.66" cy="118.29" r="1.5" style="fill:#263238"></circle><path d="M447.1,227.36h-4v-1h4Zm-7,0h-4v-1h4Zm-7,0h-4v-1h4Zm-7,0h-4v-1h4Zm-7,0h-.52v-1h.52Z" style="fill:#263238"></path><path d="M447,225.36a1.5,1.5,0,1,1-1.51,1.5A1.5,1.5,0,0,1,447,225.36Z" style="fill:#263238"></path><circle cx="418.66" cy="226.86" r="1.5" style="fill:#263238"></circle><path d="M422.64,335.93h-.93v-.5h-.07v-3.57h1Zm-3.93,0h-.13v-1h.13Zm3.93-7.07h-1v-4h1Zm0-7h-1v-4h1Zm0-7h-1v-4h1Zm0-7h-1v-4h1Zm0-7h-1v-4h1Zm0-7h-1v-4h1Zm0-7h-1v-4h1Zm0-7h-1v-4h1Zm0-7h-1v-4h1Zm0-7h-1v-4h1Zm0-7h-1v-4h1Zm0-7h-1v-4h1Zm0-7h-1v-4h1Zm0-7h-1v-4h1Zm0-7h-1v-4h1Z" style="fill:#263238"></path><circle cx="418.66" cy="335.43" r="1.5" style="fill:#263238"></circle></g><g id="freepik--Floor--inject-219"><polygon points="60.33 396.48 138.99 396.24 217.66 396.15 375 395.98 532.34 396.15 611.01 396.23 689.67 396.48 611.01 396.72 532.34 396.81 375 396.98 217.66 396.81 138.99 396.72 60.33 396.48" style="fill:#263238"></polygon></g><g id="freepik--Character--inject-219"><path d="M94.24,429.28l166.59.71c40.49-31.79,44.67-78.9,15.79-107.45-17.48-17.27-39.68-13.79-60.82-16.54h-.06c-7.37-1-14.59-2.67-21.45-6.29-21.76-11.48-34-38.57-52.35-61.36-2.28-2.85-4.66-5.63-7.17-8.31-15.06-16.08-45-16.6-60.7,6C34.23,293.47,52.48,379,94.24,429.28Z" style="fill:#FFC727"></path><path d="M90.54,297.85c4.37,68.35,83.3,93.86,132.6,73.39C266,353.43,252,312.8,215.8,306h-.06c-7.37-1-14.59-2.67-21.45-6.29-21.76-11.48-34-38.57-52.35-61.36C114.66,224.17,87.34,247.81,90.54,297.85Z" style="opacity:0.1"></path><path d="M247.37,440c-2.57-.94-60.62-47.34-61.72-50.51-.42-1.2,5.84-10,13.72-20.53,1.7-2.26,3.47-4.59,5.28-6.94,11.73-15.29,24.53-31.23,24.53-31.23l38.93,30.92L242.5,392.14l-5.62,6.67s14.29,27.71,15.11,31.31S249.94,441,247.37,440Z" style="fill:#ad6359"></path><path d="M247.37,440c-2.56-1-60.62-47.34-61.72-50.51-.34-1,3.74-7,9.51-14.87,8.44,10.09,37.87,40.13,45.91,44.15,5.11,2.55,4.09-2.46,2.19-7.44,3.92,7.83,8.28,16.8,8.74,18.74C252.81,433.72,250,441,247.37,440Z" style="fill:#263238"></path><path d="M307.43,302.29c-2.67,20.22-52.51,78.6-58.27,85.3l-1.31,1.52-41.23-31.68.48-.61,36.3-47.54s-60,35-90.07,19.13c-13.48-7.14-23.49-19.83-23.49-19.83l39.21-20.9s10.84,3.51,17.78,2.5c23.9-3.5,77.45-23.83,90.15-23.32C293.37,267.53,309.87,283.73,307.43,302.29Z" style="fill:#37474f"></path><path d="M256.44,291.61a49.87,49.87,0,0,0-3.75,4.8c-1.28,1.69-2.58,3.35-3.86,5l0,.05c.23-.5.45-1,.68-1.48.81-1.68,1.46-3.41,2.42-5a.09.09,0,1,0-.15-.09c-1,1.59-2.13,3.1-3,4.77-.4.79-.77,1.59-1.12,2.4-.19.44-.39.89-.56,1.34a4.14,4.14,0,0,0-.23.65c-.58.78-1.15,1.56-1.7,2.36-1.22,1.77-2.3,3.64-3.54,5.4-.06.09.09.18.16.09,1.25-1.65,2.65-3.19,3.93-4.83s2.52-3.38,3.73-5.11,2.35-3.39,3.53-5.08a50.56,50.56,0,0,0,3.57-5.21C256.57,291.63,256.49,291.56,256.44,291.61Z" style="fill:#263238"></path><path d="M182.6,237.64a.53.53,0,0,1-.38.59l-2.12.33c-2.36-4.83-4.78-8.62-4.1-7.11a25.83,25.83,0,0,1,2,7.42c-.94.14-3.11.43-4.21.58-2.43-8.65-5.14-15-4.83-13,1.25,8.07,1,10.72.68,13.56-10.16,1.37-23.5,3-33.17,4-1.55-4.76-3-9.94-3.12-9.55-1.08,2.86-1.09,6.88-.85,10-3.08.29-5.55.47-7.06.5,0,0-1.08-4-1.3-5.36a28.25,28.25,0,0,1,.18-10.33,50.88,50.88,0,0,1,3.65-9.9l0-.07s0,0,0,0a28.17,28.17,0,0,0,2-6.57s0,0,0,0a28.89,28.89,0,0,0,.37-4.94c-.08-6,2.85-11.53,8.35-13.62,9.77-11,20.82-7.69,24.72-.28.38.73.75,1.56,1.13,2.47v0c1.39,3.37,2.77,7.79,4,11.19v0s0,0,0,0h0a33.54,33.54,0,0,0,1.62,3.91C173.49,217.47,180,220.49,182.6,237.64Z" style="fill:#263238"></path><path d="M136.45,195.94a11.38,11.38,0,0,0-5.74,9.71,29.36,29.36,0,0,1-.83,7.59,26.73,26.73,0,0,1-3.69,6.94c-2.33,3.47-3.87,6.86-3.9,11.19s.63,9.54,2.46,13.49c0,0,0,0,0,0a35.19,35.19,0,0,1-1.73-14.14c.39-4.82,2.82-8,5.26-11.91a19.9,19.9,0,0,0,3.19-10.06c.09-2.19-.14-4.44.55-6.56.83-2.52,2.77-4.26,4.71-5.81A.26.26,0,0,0,136.45,195.94Z" style="fill:#263238"></path><path d="M177,217.61c-2.91-3.17-5.88-5.83-7.79-9.92-1.73-3.72-2.88-7.72-4.64-11.44a0,0,0,1,0-.09,0c2.79,6.63,3.81,13.48,8.72,18.83,2.67,2.91,5.32,5.59,7.23,9.19A33.58,33.58,0,0,1,184,236.43a.11.11,0,1,0,.21,0A27.74,27.74,0,0,0,177,217.61Z" style="fill:#263238"></path><path d="M139.93,192.83c0,1.45-6.71,5.29-11.84,1.85s-3.46-10.9,3.33-10.53C135.7,184.39,139.94,189.75,139.93,192.83Z" style="fill:#263238"></path><path d="M125.25,188.27a8.56,8.56,0,0,1,3.53-4.38,5.13,5.13,0,0,1,5.13-.27,10.34,10.34,0,0,1,4,3.83,15.11,15.11,0,0,1,1.32,2.56,7.8,7.8,0,0,1,.7,2.82,7,7,0,0,0-.19-3,13.14,13.14,0,0,0-1.09-2.83,10,10,0,0,0-4.26-4.37,5.91,5.91,0,0,0-3.13-.61,6,6,0,0,0-2.94,1.15A7.53,7.53,0,0,0,125.25,188.27Z" style="fill:#263238"></path><path d="M148.75,246.33c7.34,10.54,32.41,39.5,49.81,43.46,9.59,2.19,55.92,8.67,62.27,2.89,7.43-6.77,4-32.27-1.93-32.5-18-.71-51.43,2.82-59.78,1-3.77-.84-23.77-13.74-45.13-24.06C145.92,233.2,144,239.53,148.75,246.33Z" style="fill:#ad6359"></path><path d="M166.67,271.59l7-25.79s-11.75-6.52-18.76-9.21c-9.27-3.56-12.77-1-7.08,9.82C151.64,253.62,166.67,271.59,166.67,271.59Z" style="fill:#ebebeb"></path><path d="M164.94,268.31c.76-3.82,1.57-7.63,2.56-11.4.49-1.88,1-3.76,1.55-5.62s1.29-3.68,1.81-5.55a.08.08,0,0,1,.16,0c-.62,1.84-1,3.78-1.51,5.65s-1,3.75-1.52,5.63c-1,3.76-2,7.52-2.89,11.29C165.07,268.47,164.92,268.42,164.94,268.31Z" style="fill:#263238"></path><path d="M172.58,249.86l-5.9,21.74s-15-18-18.85-25.19c-1.75-3.33-2.63-5.88-2.74-7.7Z" style="fill:#263238"></path><path d="M111,317.71c2.3.75,67.84-18.22,67.84-18.22l-7.74-22.75s3.82-7.32,2.05-14.36C170.8,253,153.4,237.52,152,236.61c-5.49-3.64-10.64-3.58-15.19-1.16C117.89,245.52,111,317.71,111,317.71Z" style="fill:#ebebeb"></path><path d="M161,244.8c1.69,2,3.5,3.84,5.25,5.76-.82-1.43-1.62-2.87-2.49-4.28,0,0,0-.06,0,0a32.41,32.41,0,0,1,3.33,5.29,43.74,43.74,0,0,1,3.61,4.62,20.44,20.44,0,0,1,3,6.34,17.3,17.3,0,0,1,.2,7,44.57,44.57,0,0,1-2.21,7.84c-.12.34-.6.12-.51-.21,1.23-4.44,2.63-9.13,1.64-13.77s-3.85-8.46-6.63-12.11a67.46,67.46,0,0,0-5.33-6.36C160.81,244.83,161,244.72,161,244.8Z" style="fill:#263238"></path><path d="M150.1,275.1a58.42,58.42,0,0,1,8.54-1c1.43,0,2.84,0,4.26.07.71,0,1.42,0,2.13,0a9.1,9.1,0,0,0,2.21-.2.05.05,0,0,1,0,.1,15.66,15.66,0,0,1-2,.53,15.16,15.16,0,0,1-2,.18c-1.44,0-2.89,0-4.33.06-2.92.06-5.83.12-8.74.4C150,275.35,150,275.12,150.1,275.1Z" style="fill:#263238"></path><path d="M144,279.44a63.18,63.18,0,0,1,6.73-2.24c1.14-.31,2.29-.54,3.46-.75.55-.1,1.11-.19,1.67-.27s1.24-.1,1.86-.2c.06,0,.09.09,0,.1-.57.11-1.13.32-1.7.46l-1.71.43c-1.15.29-2.29.6-3.43.88-2.3.56-4.58,1.14-6.85,1.78C143.92,279.66,143.88,279.48,144,279.44Z" style="fill:#263238"></path><path d="M140.94,236.73c.26,1.19,5.8,9,11.22,8.78,1.77-.06,1.87-9.7,1.87-9.7l.17-.71,2.37-9.95-13.29-8.71S140.83,236.22,140.94,236.73Z" style="fill:#ad6359"></path><path d="M156.57,225.14l-2.37,10a20.55,20.55,0,0,1-11.74-11.89c.41-3.43.76-6.28.8-6.7a.28.28,0,0,0,0-.06l1.69,1Z" style="fill:#263238"></path><path d="M169.47,206.82c4.42,17.4-5.49,22-9.25,23-3.4.86-15.11,3.37-21.31-13.47s.49-24.4,8.17-26.79S165,189.43,169.47,206.82Z" style="fill:#ad6359"></path><path d="M166.48,205.17c-.42,0-.81,0-1.23,0a2,2,0,0,1-1.26-.28.64.64,0,0,1-.14-.77,1.58,1.58,0,0,1,1.47-.64,2.33,2.33,0,0,1,1.58.55A.68.68,0,0,1,166.48,205.17Z" style="fill:#263238"></path><path d="M154.64,208.75a9.56,9.56,0,0,0,1.15-.47,2,2,0,0,0,1.08-.7.64.64,0,0,0-.14-.76,1.58,1.58,0,0,0-1.6-.09,2.32,2.32,0,0,0-1.29,1.07A.68.68,0,0,0,154.64,208.75Z" style="fill:#263238"></path><path d="M157.62,210.94s-.08.08-.07.13c.29,1.19.41,2.6-.59,3.22,0,0,0,.07,0,.06C158.27,213.89,158.08,212,157.62,210.94Z" style="fill:#263238"></path><path d="M156.3,209.91c-2,.25-1.32,4.14.5,3.91S157.94,209.7,156.3,209.91Z" style="fill:#263238"></path><path d="M155.57,210.24c-.31.28-.58.72-1,.83s-.89-.22-1.27-.56c0,0-.06,0-.06.05.12.75.53,1.47,1.35,1.45s1.16-.77,1.22-1.55C155.84,210.32,155.69,210.13,155.57,210.24Z" style="fill:#263238"></path><path d="M164.68,209.46c0-.05.11,0,.11.09.16,1.22.53,2.58,1.69,2.81,0,0,0,.07,0,.07C165.12,212.45,164.63,210.64,164.68,209.46Z" style="fill:#263238"></path><path d="M165.56,208c1.92-.45,2.69,3.42.91,3.84S164,208.41,165.56,208Z" style="fill:#263238"></path><path d="M166.42,208.13c.35.14.72.46,1.09.41s.66-.54.85-1c0-.05.06,0,.07,0,.17.73.08,1.55-.61,1.83s-1.22-.28-1.54-1C166.22,208.3,166.28,208.07,166.42,208.13Z" style="fill:#263238"></path><path d="M159,221.21c.32.26.65.62,1.09.62a3.09,3.09,0,0,0,1.28-.43s.08,0,.06.06a1.63,1.63,0,0,1-1.49.8,1.3,1.3,0,0,1-1-1C158.88,221.2,159,221.17,159,221.21Z" style="fill:#263238"></path><path d="M163.45,215.69s.52,1.77.65,2.62c0,.08-.19.15-.48.21,0,0,0,0,0,0a4.1,4.1,0,0,1-4.16-.93.09.09,0,0,1,.11-.14,6.14,6.14,0,0,0,3.86.51c0-.24-1-3-.86-3a7.88,7.88,0,0,1,2,.16c-1-3.72-2.53-7.25-3.44-11a.12.12,0,0,1,.22-.09,62.31,62.31,0,0,1,4.2,11.64C165.66,216.17,163.82,215.79,163.45,215.69Z" style="fill:#263238"></path><path d="M163.53,218.19a5,5,0,0,1-1.57,2,2.2,2.2,0,0,1-1.31.42c-1,0-1.26-.89-1.28-1.69a5.62,5.62,0,0,1,.14-1.26A6.54,6.54,0,0,0,163.53,218.19Z" style="fill:#263238"></path><path d="M162,220.18a2.2,2.2,0,0,1-1.31.42c-1,0-1.26-.89-1.28-1.69A2.34,2.34,0,0,1,162,220.18Z" style="fill:#ff9cbd"></path><path d="M140.16,217.61c1.87-.62,5.42-7.18,3.11-16.41,0,0,1.5,8.43,1.21,9.8s2-3.68.22-11.15a31.28,31.28,0,0,0,8.66,1.91c3.76,0,5.89-.56,6.07-.88s-5.4-.57-7.22-1.8c0,0,10.47,1.83,14.84,1,.51-.09-1.63-10.45-9.42-13s-17,4.93-19.14,8.42c0,0-3.19,1.36-5.48,7.23S138.14,218.28,140.16,217.61Z" style="fill:#263238"></path><path d="M160.46,210.34a5.95,5.95,0,1,0-5,8,5.59,5.59,0,0,0,1.44-.34,5.94,5.94,0,0,0,3.52-7.64Zm-3.79,6.9a5.15,5.15,0,0,1-3.57-9.67,5.07,5.07,0,0,1,1.24-.29,5.15,5.15,0,0,1,2.33,10Z" style="fill:#FFC727"></path><path d="M160.46,210.34a5.95,5.95,0,1,0-5,8,5.59,5.59,0,0,0,1.44-.34,5.94,5.94,0,0,0,3.52-7.64Zm-3.79,6.9a5.15,5.15,0,0,1-3.57-9.67,5.07,5.07,0,0,1,1.24-.29,5.15,5.15,0,0,1,2.33,10Z" style="fill:#FFC727"></path><path d="M172.21,208.41a7.17,7.17,0,0,0-2.14-3.78,3.71,3.71,0,0,0-6.19,1.39,7.12,7.12,0,0,0-.32,4.34c.69,3,3,5.13,5.25,4.89.13,0,.26,0,.38-.06C171.58,214.65,172.93,211.61,172.21,208.41Zm-3.19,6c-2,.44-4.05-1.46-4.68-4.23a6.27,6.27,0,0,1,.27-3.84,3.18,3.18,0,0,1,2.14-2l.3,0a3.28,3.28,0,0,1,2.49.91,6.39,6.39,0,0,1,1.89,3.36C172.05,211.36,171,214,169,214.41Z" style="fill:#FFC727"></path><path d="M172.21,208.41a7.17,7.17,0,0,0-2.14-3.78,3.71,3.71,0,0,0-6.19,1.39,7.12,7.12,0,0,0-.32,4.34c.69,3,3,5.13,5.25,4.89.13,0,.26,0,.38-.06C171.58,214.65,172.93,211.61,172.21,208.41Zm-3.19,6c-2,.44-4.05-1.46-4.68-4.23a6.27,6.27,0,0,1,.27-3.84,3.18,3.18,0,0,1,2.14-2l.3,0a3.28,3.28,0,0,1,2.49.91,6.39,6.39,0,0,1,1.89,3.36C172.05,211.36,171,214,169,214.41Z" style="fill:#FFC727"></path><path d="M164.07,209.38l-.45.66c-1.57-1.08-3.13.93-3.2,1l-.63-.49C160.5,209.64,162.31,208.18,164.07,209.38Z" style="fill:#FFC727"></path><path d="M164.07,209.38l-.45.66c-1.57-1.08-3.13.93-3.2,1l-.63-.49C160.5,209.64,162.31,208.18,164.07,209.38Z" style="fill:#FFC727"></path><path d="M149.49,212.72c-3,.38-11.23,1.51-12.43,2s-1.94,2.8-2.16,3.66l-.77-.2c.09-.36,1-3.52,2.63-4.19s12.18-2,12.63-2Z" style="fill:#FFC727"></path><path d="M149.49,212.72c-3,.38-11.23,1.51-12.43,2s-1.94,2.8-2.16,3.66l-.77-.2c.09-.36,1-3.52,2.63-4.19s12.18-2,12.63-2Z" style="fill:#FFC727"></path><path d="M142,216.94s-4.78-4.89-7.06-3.1,1.94,9.32,5.07,9.93a3,3,0,0,0,3.74-2.26Z" style="fill:#ad6359"></path><path d="M136.22,216s0,.07,0,.08c2.2.49,3.61,2.23,4.69,4.09a1.68,1.68,0,0,0-2.55,0s0,.12.08.1a1.85,1.85,0,0,1,2.13.31,8.39,8.39,0,0,1,1.24,1.48c.13.17.45,0,.34-.19l0,0C141.75,219.12,139.1,215.77,136.22,216Z" style="fill:#263238"></path><path d="M127.85,249.8c-9.45,28.84-7.58,51.73-2.94,55.19,12.47,9.33,47.11-1,56.7-2.68,3.88-.67-9-31.43-13-30.22-9.5,2.84-23,8.05-23.48,7.92-1-.24-1.08-8-3.1-30.72C140.4,230.89,131.71,238,127.85,249.8Z" style="fill:#ad6359"></path><path d="M167.53,272.42s15-6.08,23.23-8.34c4.59-1.26,12.66-2.72,16.45-2.1,5.68.92,28.85,8.42,27.15,14.07-1.53,5.12-20.62-3.84-20.62-3.84s20.06,7.34,17.08,13.17-23.2-7.18-23.2-7.18,20.44,8,16.42,13.53c-3,4.17-22-6.57-22-6.57s17.52,7,14.58,11.43c-3.26,4.89-21.39-3.92-21.39-3.92-9.38,10-17.93,10.91-24.09,10.84C169.63,303.49,167.53,272.42,167.53,272.42Z" style="fill:#ad6359"></path><path d="M207,269.22c2.39.78,4.81,1.55,7.12,2.54s4.59,2.05,6.79,3.25a42.44,42.44,0,0,1,8.15,5.48c-4.71-3.46-12.92-7.12-15.23-8.11s-4.57-2.08-6.87-3.07A0,0,0,0,1,207,269.22Z" style="fill:#263238"></path><path d="M203.25,277.5c3,1.12,6,2.13,9,3.39s7,3.14,9.86,4.59c.22.12.15.48-.08.38-2.9-1.34-7.14-3.08-10.06-4.38s-5.78-2.72-8.74-3.91C203.18,277.55,203.21,277.48,203.25,277.5Z" style="fill:#263238"></path><path d="M198.79,284a71.64,71.64,0,0,1,13.34,6.23c.22.12,0,.21-.19.1-4.4-2.16-7.83-3.88-13.2-6.17C198.65,284.16,198.69,284,198.79,284Z" style="fill:#263238"></path><path d="M168,272.1c5.66-1.83,22.56-8.73,28.36-10.08A27.6,27.6,0,0,1,211,262a69.57,69.57,0,0,1,21,9.88c1.28,1,3.19,2.59,2.47,4.36-.87,2.16-6.63,2.15-13.73-1.09-.25-.12-.16-.27.09-.17,9.73,3.82,12.59,2.12,13.06.79.3-.86-.59-1.9-1.35-2.67a18.45,18.45,0,0,0-3.9-2.78,80.61,80.61,0,0,0-15-6.55,31.53,31.53,0,0,0-17.53-.92c-5.95,1.37-22.2,8.17-28.16,9.45C167.91,272.35,167.87,272.14,168,272.1Z" style="fill:#263238"></path><path d="M231,282.59a13.28,13.28,0,0,0-3.66-3.5,30.31,30.31,0,0,0-5.09-3.29.07.07,0,1,0-.07.12,46.07,46.07,0,0,1,4.6,3.26,27.83,27.83,0,0,1,2.25,2.09,4.69,4.69,0,0,1,1.56,2.57c.18,2-2.17,2.67-3.71,2.61a15.86,15.86,0,0,1-3-.43,27.69,27.69,0,0,1-3.92-1.39c-.11-.05-.32.05-.21.11,2.69,1.31,7.89,4.16,10.61,1.65A3,3,0,0,0,231,282.59Z" style="fill:#263238"></path><path d="M119.14,274.81l25.34-8.49s-1.1-13.4-2.75-20.72c-2.19-9.69-6.31-11.15-12.11-.44C125.74,252.33,119.14,274.81,119.14,274.81Z" style="fill:#ebebeb"></path><path d="M120.9,271.55c3.61-1.49,7.22-2.93,10.91-4.21,1.84-.64,3.68-1.25,5.54-1.83s3.77-1,5.62-1.58c.1,0,.14.14,0,.16-1.87.51-3.69,1.28-5.53,1.89s-3.69,1.23-5.53,1.87c-3.67,1.26-7.36,2.51-11,3.86C120.85,271.74,120.81,271.59,120.9,271.55Z" style="fill:#263238"></path><path d="M122.17,273.8c-1,.42-2,.8-3,1.2l-.35.14.1-.38q1.24-4.83,2.8-9.56c1-3.16,2.16-6.29,3.49-9.34-.42,1.61-.88,3.21-1.36,4.8s-.94,3.18-1.44,4.76c-1,3.17-2,6.31-3.11,9.45l-.25-.24C120.11,274.34,121.13,274.05,122.17,273.8Z" style="fill:#263238"></path><path d="M123.48,258.94a20.8,20.8,0,0,1-.79,4.53,19.34,19.34,0,0,1,.27-2.29A22,22,0,0,1,123.48,258.94Z" style="fill:#263238"></path><path d="M141.4,267.36c.25-.14,2.83-1.1,3-1.11-.17-1.58-.36-3.15-.51-4.72-.08-.79-.14-1.58-.19-2.36s-.17-1.86-.21-2.63a.08.08,0,1,1,.16,0c.16,1,.25,1.74.39,2.6s.23,1.54.31,2.31c.19,1.64.46,3.37.56,5a28,28,0,0,1-3.52,1S141.35,267.38,141.4,267.36Z" style="fill:#263238"></path><path d="M144.69,257.8a8.52,8.52,0,0,1-.08,1.43,7.66,7.66,0,0,1-.32,1.4,7.54,7.54,0,0,1,.07-1.43A8.62,8.62,0,0,1,144.69,257.8Z" style="fill:#263238"></path><rect x="169.68" y="294.39" width="69.54" height="3.12" style="fill:#c7c7c7"></rect><polygon points="184.56 294.39 182.18 297.51 239.22 297.51 239.22 294.39 184.56 294.39" style="fill:#a6a6a6"></polygon><polygon points="187.53 297.5 255.3 297.5 260.94 251.48 193.17 251.48 187.53 297.5" style="fill:#c7c7c7"></polygon><path d="M220.11,274.49a4,4,0,0,0,4,4.13,4.22,4.22,0,0,0,4.2-4.13,4,4,0,0,0-4.05-4.12A4.21,4.21,0,0,0,220.11,274.49Z" style="fill:#fff"></path><path d="M260.39,255.93c2.56,3.94,8.86,8.55,9.73,11.93a4,4,0,0,1-1.65,4.49s3.65,1.26,3.94,4.46c.14,1.64-2.36,3.32-2.36,3.32s2.88,1.13,3,4c.05,2.28-2.46,3.62-2.46,3.62s2.26,2.38,1.57,4.72c-1.38,4.75-20.78,7.31-24.73.56-1.83-3.14,2.94-3.51,2.94-3.51s-7-1.13-7.62-5.12,5.6-4.09,5.6-4.09-6.77-1.15-7-5.35c-.24-4.37,6-3.4,6-3.4s-4.7-2.36-4.15-5.62c.92-5.37,12,.34,16.11-1.23Z" style="fill:#ad6359"></path><path d="M270.18,288a.05.05,0,0,1,0,.1,33.92,33.92,0,0,1-20.14,1.45c-.21-.06-.21-.42,0-.41A69.4,69.4,0,0,0,270.18,288Z" style="fill:#263238"></path><path d="M270.15,280.16c.07,0,.1.1,0,.13-6.37,2.44-14.87,3-22.07.22-.25-.1-.37-.43-.08-.34C253,281.68,264,281.52,270.15,280.16Z" style="fill:#263238"></path><path d="M246.85,271.17c7,2.44,14.09,2.39,21.36,1.29.1,0,.11.12,0,.16-3.41,1.5-8.12,1.72-11.79,1.58a19.52,19.52,0,0,1-9.69-2.78C246.64,271.35,246.7,271.12,246.85,271.17Z" style="fill:#263238"></path><path d="M397.88,387.45c-.95,2.57-47.54,60.48-50.71,61.56-1.2.42-10-5.87-20.48-13.78-2.26-1.71-4.58-3.48-6.93-5.3-15.25-11.78-31.15-24.64-31.15-24.64l31.05-38.82,30.3,25.7,6.65,5.64s27.76-14.19,31.36-15S398.83,384.89,397.88,387.45Z" style="fill:#ad6359"></path><path d="M397.88,387.46c-.95,2.56-47.53,60.47-50.7,61.56-1.05.37-7.94-4.4-16.64-10.89,8.88-6.47,42.62-36.86,47.15-45.09,2.39-4.33-1.09-4.3-5.35-3.1,7-3.43,13.94-6.75,15.63-7.14C391.57,382,398.82,384.89,397.88,387.46Z" style="fill:#263238"></path><path d="M348.34,386.31,316,429.91,207,354.25,196.48,347s-3,2-7.46,4.48c-6.23,3.44-15.35,7.8-23.42,9-13.54,2-36.14,1.79-47.55-13.47-9.61-12.84-4.39-29.6-4.39-29.6L128.53,311s35.17-29.3,57.95-30.18c9.68-.39,23.77,7,36.82,14.61S348.34,386.31,348.34,386.31Z" style="fill:#37474f"></path><path d="M196.48,347s-3,2-7.46,4.48c-7.93-9.48-24.7-26.71-25.21-27.32Z" style="fill:#263238"></path><path d="M141.41,301.15c-2.1,1.46-4.13,3-6.21,4.51s-4.14,2.86-6.08,4.47-3.84,3.39-5.7,5.15c-.9.85-1.79,1.71-2.65,2.59a24.49,24.49,0,0,0-2.54,2.75c-.06.09.07.2.16.15a30.78,30.78,0,0,0,2.82-2.3l2.93-2.5c1.89-1.61,3.82-3.17,5.71-4.78s3.61-3.35,5.46-5,4.08-3.36,6.15-5A0,0,0,0,0,141.41,301.15Z" style="fill:#263238"></path><path d="M340.75,384.75c-2.1,2.26-4,4.7-6,7.09s-3.92,4.81-5.85,7.22c-3.88,4.85-7.79,9.66-11.6,14.56-2.09,2.69-4.15,5.4-6.1,8.19-.09.13.11.27.21.16,4.17-4.59,8-9.48,11.85-14.31S331,398,334.81,393.05c2.08-2.68,4.22-5.35,6.13-8.16C341,384.78,340.84,384.65,340.75,384.75Z" style="fill:#263238"></path><path d="M251.27,385.2c-5.43-4.28-11.05-8.32-16.68-12.33s-11.19-8-16.87-11.86c-1.63-1.11-3.27-2.2-4.92-3.29s-3.34-2.1-5-3.23c-.09-.06-.18.09-.09.16,1.48,1.06,2.87,2.24,4.32,3.34s2.76,2.11,4.16,3.14c2.72,2,5.47,4,8.22,6q8.35,6,16.85,11.9c3.22,2.2,6.42,4.42,9.71,6.52C251.22,385.65,251.45,385.34,251.27,385.2Z" style="fill:#263238"></path><path d="M286.14,340.21c-5-4.15-10.39-7.89-15.64-11.73s-10.61-7.81-15.94-11.66l-15.88-11.48c-5.14-3.71-10.24-7.48-15.66-10.77-3-1.79-6-3.46-9.14-5a59.57,59.57,0,0,0-9.44-3.86.09.09,0,0,0-.06.17c2.67,1.49,5.48,2.74,8.18,4.18s5.3,2.92,7.89,4.49c5.38,3.27,10.46,7,15.57,10.64,10.6,7.62,21.17,15.28,31.85,22.8,6,4.2,11.82,8.64,18,12.51C286.09,340.66,286.31,340.36,286.14,340.21Z" style="fill:#263238"></path></g><g id="freepik--Plant--inject-219"><path d="M649.46,334.19a263.89,263.89,0,0,0-.38-27.7,352.79,352.79,0,0,0-8.68-56.44c-2.42-10.45-5.4-20.72-8.51-31-.09-.31-.59-.23-.5.1,9.6,36.16,17.48,73.47,16.94,111.06-.15,10.52-1.37,20.85-2.37,31.3,0,.28.43.39.5.11C648.44,352.7,649.08,343.33,649.46,334.19Z" style="fill:#FFC727"></path><path d="M631.39,219.18s-14.55,36.92-11.29,45.6,10,10.53,10,10.53-8.9,12.71-2.68,24.63,20,11.35,21,24.87C648.35,324.81,649.12,268.3,631.39,219.18Z" style="fill:#FFC727"></path><path d="M646.77,301.47a.32.32,0,0,0,0-.19A338.13,338.13,0,0,0,632.64,227c0-.07-.14-.05-.12,0,2.88,10.8,5.45,21.66,7.64,32.57a16.16,16.16,0,0,0-6.94-3.87c-.05,0-.08.06,0,.08a18.35,18.35,0,0,1,7.17,4.79c.42,2.14.84,4.28,1.24,6.42-3.26-3.63-7.76-5.43-12.28-7.15-.06,0-.09.08,0,.1,4.7,1.91,9.38,4.38,12.56,8.43q1.67,9.19,2.92,18.44a17.59,17.59,0,0,0-8.67-5c-.1,0-.16.13-.06.16a18.32,18.32,0,0,1,8.8,5.63l.06,0c.29,2.17.56,4.35.82,6.52a22.42,22.42,0,0,0-6.08-3.67c-.06,0-.09.07,0,.1a20.71,20.71,0,0,1,6.09,4l.08,0c.24,2.06.49,4.13.7,6.21a29.56,29.56,0,0,0-12.34-8.81.08.08,0,1,0-.06.14,32.21,32.21,0,0,1,12.16,9.36.28.28,0,0,0,.31.1c.31,3.17.6,6.36.83,9.55,0,0,.07,0,.07,0C647.26,308,647,304.73,646.77,301.47Z" style="fill:#263238"></path><path d="M635.08,252.06a18.21,18.21,0,0,0-8.74-2.72c-.07,0-.08.1,0,.11a34.56,34.56,0,0,1,8.64,2.82C635.1,252.33,635.19,252.14,635.08,252.06Z" style="fill:#263238"></path><path d="M636.84,291.16a18.33,18.33,0,0,0-6.56-2.25c-.08,0-.08.11,0,.13a24.42,24.42,0,0,1,6.49,2.27C636.85,291.36,636.93,291.21,636.84,291.16Z" style="fill:#263238"></path><path d="M687.7,265.38a99.24,99.24,0,0,0-16.84,14.72,60.65,60.65,0,0,0-11.81,20A149.61,149.61,0,0,0,650.26,348,116.14,116.14,0,0,0,652.85,375a.26.26,0,0,0,.5-.1,151.1,151.1,0,0,1,.27-47.08c2.5-15.28,6.42-31.89,16.13-44.31,5.29-6.76,11.88-12.08,18.4-17.57C688.49,265.61,688.05,265.13,687.7,265.38Z" style="fill:#FFC727"></path><path d="M652.4,337a90.44,90.44,0,0,1,12.27-15.69c7.28-7.27,13.41-12.44,14.35-17.25s-7.29-8.36-7.29-8.36,10.07,1.81,12.83-2.42,4.09-28.7,4.09-28.7S670.32,277.68,661.79,296,652.4,337,652.4,337Z" style="fill:#FFC727"></path><path d="M682.31,270.87c-7.71,7.57-15.47,15.64-20,25.59a98.58,98.58,0,0,0-4,10.55v0c-.24.72-.47,1.44-.69,2.17a.19.19,0,0,0,0,.12,208,208,0,0,0-5.21,22.61c0,.05.07.08.08,0,.79-3.82,1.66-7.68,2.63-11.52l.11,0a16.08,16.08,0,0,1,4.81-1.23c.11,0,.1-.2,0-.19a18,18,0,0,0-4.76.87c.89-3.47,1.86-6.93,2.94-10.34A51.74,51.74,0,0,1,669,308.11s0-.05,0-.05a40.69,40.69,0,0,0-10.68.9c.19-.58.38-1.16.58-1.75a55.11,55.11,0,0,1,7.23-1.22,0,0,0,0,0,0-.08,35.14,35.14,0,0,0-7.08.86c1-2.95,2.08-5.86,3.27-8.69a53.91,53.91,0,0,1,3.46-6.72,44.8,44.8,0,0,1,5.87-1s0-.1,0-.1a15.84,15.84,0,0,0-5.48.54c1-1.55,2-3.08,3.06-4.55h0c4.11-.91,8.27-1.76,12.48-1,.07,0,.09-.11,0-.13-4-1.05-8-.44-12,.35.43-.58.88-1.15,1.33-1.72a27.31,27.31,0,0,1,7.67-1.21c.06,0,.07-.08,0-.08a20.12,20.12,0,0,0-7.16.63c3.4-4.22,7.15-8.18,10.86-12.1C682.62,270.8,682.49,270.69,682.31,270.87Z" style="fill:#263238"></path><path d="M682.1,287.56a16.42,16.42,0,0,0-3.64-.13c-.15,0-.14.26,0,.26,1.21,0,2.41-.05,3.62,0C682.18,287.71,682.19,287.57,682.1,287.56Z" style="fill:#263238"></path><path d="M668.91,311.31a16.33,16.33,0,0,0-5.64,1.13s0,.09,0,.08c1.87-.45,3.76-.63,5.64-.94A.14.14,0,0,0,668.91,311.31Z" style="fill:#263238"></path><path d="M665,303.1a12,12,0,0,0-2.39.22c-.08,0-.08.14,0,.14a12.13,12.13,0,0,0,2.41-.11A.13.13,0,0,0,665,303.1Z" style="fill:#263238"></path><path d="M598.69,291.36a83.82,83.82,0,0,1,17,8,50.72,50.72,0,0,1,14.18,13.48,125.75,125.75,0,0,1,18.19,36.72,98.18,98.18,0,0,1,4.13,22.4.22.22,0,0,1-.43,0,127,127,0,0,0-11.1-38c-5.55-11.78-12.57-24.33-23.29-32.13-5.85-4.25-12.41-7-18.95-10C598.1,291.73,598.35,291.24,598.69,291.36Z" style="fill:#FFC727"></path><path d="M643.82,341.18a76,76,0,0,0-13.56-9.86c-7.57-4.21-13.73-7-15.61-10.65s4-8.45,4-8.45-7.73,3.79-10.94,1-9.94-22.29-9.94-22.29,17.85,6.35,29,19.22S643.82,341.18,643.82,341.18Z" style="fill:#FFC727"></path><path d="M642.89,337.16c-8.93-16.76-20.84-31.92-37.17-41.93,0,0,0,0,0,0a82.7,82.7,0,0,1,11.94,9.35,18.94,18.94,0,0,0-9.59,2c-.07,0,0,.12,0,.1a26.27,26.27,0,0,1,9.88-1.67.18.18,0,0,0,.11,0c.58.55,1.15,1.11,1.72,1.67a30.41,30.41,0,0,0-5.13.68c-.05,0,0,.08,0,.07a26.63,26.63,0,0,1,5.42-.45,114.18,114.18,0,0,1,8.42,9.56,8.7,8.7,0,0,0-3.59.26.07.07,0,0,0,0,.14,18.87,18.87,0,0,1,3.83-.05c.49.62,1,1.24,1.46,1.87a34.67,34.67,0,0,0-10.83,1.05,0,0,0,1,0,0,.08,43.74,43.74,0,0,1,11.13-.72c.45.6.89,1.23,1.33,1.84a23.08,23.08,0,0,0-6.45.74.06.06,0,1,0,0,.12,24.89,24.89,0,0,1,6.67-.52q2.88,4,5.53,8.09a6.17,6.17,0,0,0-2.83.17,0,0,0,0,0,0,.08,12.05,12.05,0,0,1,3.06.15q2.38,3.71,4.6,7.48C642.66,337.54,643,337.38,642.89,337.16Z" style="fill:#263238"></path><path d="M629,323.26a13.83,13.83,0,0,0-5.19.63s0,.09,0,.08a38.73,38.73,0,0,1,5.16-.53C629.1,323.43,629.12,323.27,629,323.26Z" style="fill:#263238"></path><path d="M613.43,302.83A9.13,9.13,0,0,0,611,303a.07.07,0,1,0,0,.14c.79-.08,1.57-.05,2.35-.07A.11.11,0,0,0,613.43,302.83Z" style="fill:#263238"></path><polygon points="666.84 396.59 626.55 396.59 632.29 354.51 633.76 343.72 659.63 343.72 661.1 354.51 666.84 396.59" style="fill:#455a64"></polygon><polygon points="661.1 354.51 632.29 354.51 633.76 343.72 659.63 343.72 661.1 354.51" style="fill:#263238"></polygon><rect x="630.06" y="339.97" width="33.26" height="9.14" style="fill:#455a64"></rect></g></svg>