<svg xmlns="http://www.w3.org/2000/svg" viewBox="0 0 750 500"><g id="freepik--background-complete--inject-113"><path d="M682.37,304.22l-13.12.28-6.66.11c-2.23.05-4.47,0-6.7.06h-.44v-.45L655.39,293v-.5h.5l13.24.06c4.42,0,8.83.11,13.24.16h.28V293c0,1.9-.08,3.79-.13,5.66Zm0,0-.14-5.65c-.05-1.86-.11-3.7-.13-5.54l.27.28c-4.41.05-8.82.16-13.24.16l-13.24.06.5-.5,0,11.19-.45-.44c2.18,0,4.36,0,6.55.05L669,304Z" style="fill:#ebebeb"></path><path d="M667.6,318.33l-13.12.28-6.67.11c-2.22,0-4.46,0-6.69.06h-.44v-.45l0-11.19v-.5h.5l13.24.07c4.41,0,8.83.11,13.24.16h.28v.27c0,1.9-.08,3.79-.13,5.66Zm0,0-.14-5.65c-.05-1.86-.11-3.7-.13-5.54l.27.28c-4.41.05-8.83.16-13.24.16l-13.24.06.5-.5,0,11.19-.45-.44c2.18,0,4.36,0,6.55.05l6.57.12Z" style="fill:#ebebeb"></path><path d="M697.14,318.33l-13.12.28-6.66.11c-2.23,0-4.47,0-6.7.06h-.44v-.45l-.06-11.19v-.5h.5l13.24.07c4.42,0,8.83.11,13.24.16h.28v.27c0,1.9-.09,3.79-.13,5.66Zm0,0-.14-5.65c0-1.86-.11-3.7-.13-5.54l.27.28c-4.41.05-8.82.16-13.24.16l-13.24.06.5-.5,0,11.19-.45-.44c2.19,0,4.36,0,6.55.05l6.58.12Z" style="fill:#ebebeb"></path><path d="M349.87,116.08l-13.12.28-6.66.11c-2.23,0-4.47,0-6.7.06H323v-.45l-.06-11.19v-.5h.5l13.24.07c4.42,0,8.83.11,13.24.16h.28v.27c0,1.9-.09,3.79-.13,5.66Zm0,0-.14-5.65c0-1.86-.11-3.71-.13-5.54l.27.28c-4.41,0-8.82.15-13.24.16l-13.24.06.5-.5-.05,11.19-.45-.44c2.18,0,4.36,0,6.55,0l6.58.11Z" style="fill:#ebebeb"></path><path d="M335.1,130.19l-13.12.28-6.66.11c-2.23,0-4.47,0-6.7.06h-.44v-.45L308.12,119v-.5h.5l13.24.07c4.42,0,8.83.11,13.24.16h.28V119c0,1.9-.08,3.79-.13,5.66Zm0,0-.14-5.65c0-1.86-.11-3.71-.13-5.54l.27.28c-4.41,0-8.82.15-13.24.16l-13.24.06.5-.5-.05,11.19-.45-.44c2.18,0,4.36,0,6.55.05l6.58.11Z" style="fill:#ebebeb"></path><path d="M364.65,130.19l-13.13.28-6.66.11c-2.23,0-4.46,0-6.7.06h-.44v-.45L337.67,119v-.5h.5l13.25.07c4.41,0,8.82.11,13.24.16h.27V119c0,1.9-.09,3.79-.13,5.66Zm0,0-.15-5.65c0-1.86-.11-3.71-.13-5.54l.28.28c-4.42,0-8.83.15-13.24.16l-13.25.06.5-.5-.05,11.19-.45-.44c2.19,0,4.36,0,6.55.05l6.58.11Z" style="fill:#ebebeb"></path><path d="M158,231.87l-13.13.28-6.66.11c-2.22.05-4.46,0-6.69.05h-.44v-.45l0-11.19v-.5h.5l13.24.06c4.41,0,8.83.11,13.24.17h.27v.27c0,1.9-.08,3.79-.13,5.65Zm0,0-.14-5.66c0-1.86-.11-3.7-.13-5.53l.27.27c-4.41.05-8.83.16-13.24.17l-13.24.06.5-.5L132,231.87l-.44-.45c2.18,0,4.36,0,6.54.06l6.58.11Z" style="fill:#ebebeb"></path><path d="M682.09,62.38,669,62.66l-6.66.11c-2.22,0-4.46,0-6.69.06h-.45v-.45l0-11.19v-.5h.5l13.24.06c4.41,0,8.82.12,13.24.17h.27v.27c0,1.9-.09,3.79-.13,5.65Zm0,0L682,56.73c-.05-1.87-.12-3.71-.14-5.54l.28.27c-4.42,0-8.83.16-13.24.17l-13.24.06.5-.5-.06,11.19-.44-.45c2.18,0,4.36,0,6.54.06l6.58.11Z" style="fill:#ebebeb"></path><path d="M696.86,76.49l-13.13.28-6.66.11c-2.22.05-4.46,0-6.69.05h-.44v-.45l0-11.19v-.5h.5l13.24.06c4.41,0,8.83.12,13.24.17h.28v.27c0,1.9-.08,3.79-.13,5.65Zm0,0-.14-5.65c-.05-1.87-.11-3.71-.13-5.54l.27.27c-4.41.05-8.83.16-13.24.17l-13.24.06.5-.5-.06,11.19-.44-.45c2.18,0,4.36,0,6.54.06l6.58.11Z" style="fill:#ebebeb"></path><path d="M79.34,356.64l-13.13.28-6.66.12c-2.22,0-4.46,0-6.69,0h-.45v-.45l0-11.18V345h.51L66.1,345c4.41,0,8.82.11,13.24.16h.27v.27c0,1.89-.09,3.78-.13,5.65Zm0,0L79.19,351c0-1.86-.11-3.7-.13-5.53l.28.27c-4.42,0-8.83.16-13.24.16L52.86,346l.5-.49-.06,11.18-.44-.44c2.18,0,4.35,0,6.54.05l6.58.12Z" style="fill:#ebebeb"></path><path d="M94.11,370.75,81,371l-6.66.12c-2.22,0-4.46,0-6.69.05h-.45v-.45l-.05-11.19v-.5h.5l13.24.06c4.41,0,8.83.11,13.24.16h.27v.26c0,1.9-.08,3.79-.13,5.66Zm0,0L94,365.1c0-1.86-.12-3.7-.13-5.54l.27.28c-4.41.05-8.83.16-13.24.16l-13.24.06.5-.5-.06,11.19-.44-.44c2.18,0,4.36,0,6.54.05l6.58.12Z" style="fill:#ebebeb"></path><path d="M79.34,62.39l-13.13.28-6.66.11c-2.22,0-4.46,0-6.69.06h-.45v-.45l0-11.19v-.5h.51l13.24.07c4.41,0,8.82.11,13.24.16h.27v.27c0,1.9-.09,3.79-.13,5.66Zm0,0-.15-5.65c0-1.87-.11-3.71-.13-5.54l.28.27c-4.42.06-8.83.16-13.24.17l-13.24.06.5-.5L53.3,62.39,52.86,62c2.18,0,4.35,0,6.54,0l6.58.11Z" style="fill:#ebebeb"></path><path d="M131.6,122.82A37.05,37.05,0,1,1,95,80.34v37.05Z" style="fill:#dbdbdb"></path><path d="M139.55,109.84a37.55,37.55,0,0,1-.4,5.44l-36.65-5.44v-37a37,37,0,0,1,37.05,37.05Z" style="fill:#ebebeb"></path><rect x="89.67" y="141.05" width="1" height="27.57" style="fill:#c7c7c7"></rect><path d="M90.17,174.65a3.26,3.26,0,1,1,3.26-3.26A3.27,3.27,0,0,1,90.17,174.65Zm0-5.52a2.26,2.26,0,1,0,2.26,2.26A2.27,2.27,0,0,0,90.17,169.13Z" style="fill:#c7c7c7"></path><rect x="90.17" y="179.42" width="30.61" height="1.38" style="fill:#c7c7c7"></rect><rect x="90.17" y="182.19" width="17.33" height="1.38" style="fill:#c7c7c7"></rect><rect x="608.22" y="231.25" width="8.03" height="57.14" style="fill:#ebebeb"></rect><rect x="622.02" y="245.08" width="8.03" height="43.31" style="fill:#ebebeb"></rect><rect x="635.82" y="266.74" width="8.03" height="21.65" style="fill:#ebebeb"></rect><rect x="649.62" y="254.37" width="8.03" height="34.02" style="fill:#ebebeb"></rect><rect x="663.42" y="241.38" width="8.03" height="47.01" style="fill:#ebebeb"></rect><rect x="677.22" y="233.74" width="8.03" height="54.65" style="fill:#ebebeb"></rect><path d="M603.56,224l.1,16.1,0,16.1.06,32.2-.2-.2q11.07,0,22.14,0l22.14.05,22.13,0,22.14.12-22.14.12-22.13,0-22.14.05q-11.07,0-22.14,0h-.2v-.2l.06-32.2.05-16.1Z" style="fill:#ebebeb"></path><path d="M601.79,227.22a6.33,6.33,0,0,1,1.77-.23,6,6,0,0,1,1.77.23,6,6,0,0,1-1.77.22A6.32,6.32,0,0,1,601.79,227.22Z" style="fill:#ebebeb"></path><path d="M601.79,232.11a6.93,6.93,0,0,1,3.54,0,6.93,6.93,0,0,1-3.54,0Z" style="fill:#ebebeb"></path><path d="M601.79,237a6.32,6.32,0,0,1,1.77-.22,6,6,0,0,1,1.77.22,6,6,0,0,1-1.77.23A6.33,6.33,0,0,1,601.79,237Z" style="fill:#ebebeb"></path><path d="M601.79,241.9a6.93,6.93,0,0,1,3.54,0,6.93,6.93,0,0,1-3.54,0Z" style="fill:#ebebeb"></path><path d="M601.79,246.79a7.23,7.23,0,0,1,3.54,0,6,6,0,0,1-1.77.23A6.33,6.33,0,0,1,601.79,246.79Z" style="fill:#ebebeb"></path><path d="M601.79,251.69a6.93,6.93,0,0,1,3.54,0,6.93,6.93,0,0,1-3.54,0Z" style="fill:#ebebeb"></path><path d="M601.79,256.58a7.23,7.23,0,0,1,3.54,0,6.93,6.93,0,0,1-3.54,0Z" style="fill:#ebebeb"></path><path d="M601.79,261.48a6.93,6.93,0,0,1,3.54,0,7.23,7.23,0,0,1-3.54,0Z" style="fill:#ebebeb"></path><path d="M601.79,266.37a6.93,6.93,0,0,1,3.54,0,6.93,6.93,0,0,1-3.54,0Z" style="fill:#ebebeb"></path><path d="M601.79,271.27a6.93,6.93,0,0,1,3.54,0,7.23,7.23,0,0,1-3.54,0Z" style="fill:#ebebeb"></path><path d="M601.79,276.16a6.93,6.93,0,0,1,3.54,0,6.93,6.93,0,0,1-3.54,0Z" style="fill:#ebebeb"></path><path d="M601.79,281.06a6.33,6.33,0,0,1,1.77-.23,6,6,0,0,1,1.77.23,6,6,0,0,1-1.77.22A6.32,6.32,0,0,1,601.79,281.06Z" style="fill:#ebebeb"></path><path d="M86.63,288.5a3.22,3.22,0,0,1,3.37,0l.87.5.9.45a3.22,3.22,0,0,1,1.88,2.79l.13,4.16,13.54-.42-.13-4.16a3.22,3.22,0,0,1,1.7-2.92,16.76,16.76,0,0,0,1.71-1.06,3.23,3.23,0,0,1,3.37-.21l3.65,2,6.4-11.94-3.65-2a3.22,3.22,0,0,1-1.68-2.92,19.48,19.48,0,0,0-.07-2,3.25,3.25,0,0,1,1.49-3l3.53-2.19L116.51,254l-3.55,2.2a3.24,3.24,0,0,1-3.37,0l-.86-.5-.89-.45a3.2,3.2,0,0,1-1.89-2.8l-.13-4.16-13.53.42.13,4.15a3.22,3.22,0,0,1-1.7,2.92A18.18,18.18,0,0,0,89,256.87a3.21,3.21,0,0,1-3.36.21l-3.66-2-6.4,11.94,3.65,2a3.2,3.2,0,0,1,1.68,2.92,19.58,19.58,0,0,0,.07,2,3.24,3.24,0,0,1-1.5,3L76,279.18l7.14,11.51ZM90,267.12a11.09,11.09,0,1,1,4.54,15A11.1,11.1,0,0,1,90,267.12Z" style="fill:#ebebeb"></path><path d="M644.78,108.16a1.91,1.91,0,0,1,1.78-.94l.59,0,.6,0a1.9,1.9,0,0,1,1.77.94l1.24,2.14,7-4-1.24-2.14a1.94,1.94,0,0,1,.07-2,10.77,10.77,0,0,0,.6-1,1.93,1.93,0,0,1,1.71-1.06h2.46V92h-2.46a1.91,1.91,0,0,1-1.71-1.06,10.77,10.77,0,0,0-.6-1,1.94,1.94,0,0,1-.07-2l1.24-2.14-7-4-1.25,2.16a1.91,1.91,0,0,1-1.77.93l-.59,0-.59,0a1.91,1.91,0,0,1-1.78-.94l-1.24-2.15-7,4,1.24,2.14a1.94,1.94,0,0,1-.07,2,9.69,9.69,0,0,0-.6,1A1.91,1.91,0,0,1,635.42,92H633V100h2.47a1.93,1.93,0,0,1,1.71,1.06,10.93,10.93,0,0,0,.6,1,1.92,1.92,0,0,1,.07,2l-1.24,2.14,7,4ZM640.54,96a6.61,6.61,0,1,1,6.61,6.6A6.61,6.61,0,0,1,640.54,96Z" style="fill:#ebebeb"></path><path d="M132.69,296.24a1.91,1.91,0,0,1,.94,1.78c0,.19,0,.39,0,.59s0,.4,0,.6a1.89,1.89,0,0,1-.93,1.77l-2.14,1.24,4,7,2.15-1.24a1.92,1.92,0,0,1,2,.07c.34.22.69.42,1,.61a1.88,1.88,0,0,1,1.06,1.7v2.47h8.06v-2.47a1.9,1.9,0,0,1,1.06-1.7,11.81,11.81,0,0,0,1-.61,1.94,1.94,0,0,1,2-.07l2.14,1.24,4-7L157,301a1.88,1.88,0,0,1-.93-1.77c0-.19,0-.39,0-.59s0-.4,0-.59a1.92,1.92,0,0,1,.93-1.78l2.15-1.24-4-7L153,289.26a1.92,1.92,0,0,1-2-.07,10.93,10.93,0,0,0-1.05-.6,1.93,1.93,0,0,1-1.06-1.71v-2.46h-8.06v2.46a1.91,1.91,0,0,1-1.06,1.71,9.69,9.69,0,0,0-1,.6,1.92,1.92,0,0,1-2,.07L134.58,288l-4,7ZM144.86,292a6.6,6.6,0,1,1-6.6,6.6A6.6,6.6,0,0,1,144.86,292Z" style="fill:#ebebeb"></path></g><g id="freepik--Table--inject-113"><polygon points="50.72 448.73 131.79 448.49 212.86 448.4 375 448.24 537.14 448.4 618.21 448.49 699.28 448.73 618.21 448.98 537.14 449.07 375 449.23 212.86 449.06 131.79 448.98 50.72 448.73" style="fill:#263238"></polygon></g><g id="freepik--Plant--inject-113"><path d="M71.61,333.19c19.08,18.67,22.28,47.57,18.26,72.88-.1.57-1,.41-1-.13,0-5.76.17-11.47.16-17.16-.11-.26-.19-.5-.3-.76-5-3.62-9.55-7.71-12.39-13.32-3.19-6.26-4.44-13.33-6.88-19.88-.22-.62.44-.44.88-.12C82,363.26,85.66,372.47,89,384.78a102.1,102.1,0,0,0-2-19.16c-2.51-11.68-7.47-23.26-15.86-31.93C70.8,333.36,71.28,332.86,71.61,333.19Z" style="fill:#263238"></path><path d="M68,335.37c-3.28.11-5.34,5.35-7.9,6.88-1.35.82-2.67.77-3.62-.57-2.53-3.53.94-7.9,4.21-10.34-2.34,1-4.28,2.65-6.8,3.13a2.37,2.37,0,0,1-3.07-1.84c-1.11-4.82,4.94-7,9.09-7.07-2-1.4-7.78-5.2-4.71-7.07s9.87,3.56,12.08,5.35c3.24,2.63,7.11,6.57,7.26,10.68C74.76,339.33,70.55,336.37,68,335.37Z" style="fill:#FFC727"></path><path d="M68,335.37c-3.28.11-5.34,5.35-7.9,6.88-1.35.82-2.67.77-3.62-.57-2.53-3.53.94-7.9,4.21-10.34-2.34,1-4.28,2.65-6.8,3.13a2.37,2.37,0,0,1-3.07-1.84c-1.11-4.82,4.94-7,9.09-7.07-2-1.4-7.78-5.2-4.71-7.07s9.87,3.56,12.08,5.35c3.24,2.63,7.11,6.57,7.26,10.68C74.76,339.33,70.55,336.37,68,335.37Z" style="opacity:0.1"></path><path d="M69,336.17c-4.2-1.9-12.26.84-12.94-.75-1.39-3.23,5.05-5.45,8.53-5.87-3.21-.87-9.34-2.25-9.15-5.34.23-3.77,9.41-.53,14,3,5.86,4.49,5.82,8.82,4.85,9.69C73,338.12,69.67,336.49,69,336.17Z" style="fill:#FFC727"></path><path d="M115.06,331.34C95.29,349.28,91,378,94,403.47c.08.58,1,.46,1-.08.22-5.76.26-11.47.49-17.16.12-.26.22-.5.33-.75,5.11-3.43,9.84-7.34,12.89-12.84,3.42-6.14,4.94-13.15,7.63-19.6.25-.62-.43-.46-.88-.15-11.92,8.11-16,17.17-19.76,29.34a102.1,102.1,0,0,1,2.75-19.07c2.94-11.58,8.34-23,17.06-31.3C115.87,331.54,115.4,331,115.06,331.34Z" style="fill:#263238"></path><path d="M118.56,333.65c3.27.24,5.13,5.56,7.63,7.18,1.32.87,2.64.87,3.64-.43,2.67-3.44-.64-7.93-3.82-10.49,2.3,1,4.18,2.81,6.68,3.38a2.37,2.37,0,0,0,3.14-1.72c1.29-4.77-4.67-7.15-8.82-7.41,2.07-1.32,8-4.9,5-6.88s-10,3.18-12.27,4.88c-3.34,2.51-7.36,6.29-7.66,10.4C111.69,337.36,116,334.56,118.56,333.65Z" style="fill:#FFC727"></path><path d="M118.56,333.65c3.27.24,5.13,5.56,7.63,7.18,1.32.87,2.64.87,3.64-.43,2.67-3.44-.64-7.93-3.82-10.49,2.3,1,4.18,2.81,6.68,3.38a2.37,2.37,0,0,0,3.14-1.72c1.29-4.77-4.67-7.15-8.82-7.41,2.07-1.32,8-4.9,5-6.88s-10,3.18-12.27,4.88c-3.34,2.51-7.36,6.29-7.66,10.4C111.69,337.36,116,334.56,118.56,333.65Z" style="opacity:0.1"></path><path d="M117.58,334.42c4.27-1.74,12.22,1.31,13-.25,1.51-3.18-4.84-5.64-8.3-6.2,3.24-.75,9.42-1.9,9.35-5-.09-3.78-9.39-.88-14.16,2.5-6,4.26-6.15,8.59-5.22,9.5C113.49,336.21,116.88,334.71,117.58,334.42Z" style="fill:#FFC727"></path><path d="M94.84,378.71a194.11,194.11,0,0,1-6.14,28.36.7.7,0,0,1-1.38-.27c1.3-8.74,3.66-17.32,5-26.06A131,131,0,0,0,93.8,354C93,339.26,89,323.59,79.36,312.07c-.21-.28.24-.66.45-.41C99.06,334.09,96,361.6,96,364.06c2.72-9.28,5.53-19.93,15.83-29.39.45-.4.79-.21.72.48-1.84,17.23-6.63,26.22-16.62,35.43C95.63,373.31,95.27,376,94.84,378.71Z" style="fill:#263238"></path><path d="M79.19,314.65c-3.47-1.54-8.24,2.87-11.66,3.17-1.82.16-3.16-.56-3.48-2.42-.84-4.94,5-7.72,9.58-8.61-2.91-.18-5.77.6-8.63-.17-1.72-.48-2.67-1.67-2.26-3.46,1.28-5.56,8.63-4.74,13-2.76-1.38-2.46-5.45-9.31-1.33-9.71s8.45,8.67,9.84,11.64c2,4.36,4.07,10.39,2.15,14.73C84.17,322.15,81.3,317,79.19,314.65Z" style="fill:#FFC727"></path><path d="M79.19,314.65c-3.47-1.54-8.24,2.87-11.66,3.17-1.82.16-3.16-.56-3.48-2.42-.84-4.94,5-7.72,9.58-8.61-2.91-.18-5.77.6-8.63-.17-1.72-.48-2.67-1.67-2.26-3.46,1.28-5.56,8.63-4.74,13-2.76-1.38-2.46-5.45-9.31-1.33-9.71s8.45,8.67,9.84,11.64c2,4.36,4.07,10.39,2.15,14.73C84.17,322.15,81.3,317,79.19,314.65Z" style="opacity:0.1"></path><path d="M79.76,316c-3.39-4.09-13.14-5.3-13.05-7.29.19-4.05,8-3.11,11.81-1.81-2.88-2.51-8.55-7-6.8-10.14,2.13-3.8,10,4.19,13,10.22,3.82,7.61,1.6,12.08.16,12.5C83,320,80.32,316.64,79.76,316Z" style="fill:#FFC727"></path><path d="M107.5,383.9,116,448.73H64.35C65.41,443,75,383.82,75,383.82Z" style="fill:#FFC727"></path></g><g id="freepik--Device--inject-113"><rect x="77.54" y="427.07" width="594.91" height="21.67" style="fill:#c7c7c7"></rect><rect x="317.01" y="427.07" width="115.98" height="8.82" style="fill:#a6a6a6"></rect><rect x="139.02" y="111.35" width="471.97" height="315.71" style="fill:#dbdbdb"></rect><rect x="142.44" y="115.2" width="465.11" height="308.01" style="fill:#37474f"></rect><rect x="163.04" y="135" width="423.92" height="268.41" style="fill:#fff"></rect><rect x="163.04" y="135" width="423.92" height="10.33" style="fill:#263238"></rect><path d="M172.76,140.17a2,2,0,1,1-1.95-2A1.95,1.95,0,0,1,172.76,140.17Z" style="fill:#c7c7c7"></path><path d="M180.74,140.17a2,2,0,1,1-2-2A1.95,1.95,0,0,1,180.74,140.17Z" style="fill:#fff"></path><path d="M188.72,140.17a2,2,0,1,1-1.95-2A1.95,1.95,0,0,1,188.72,140.17Z" style="fill:#FFC727"></path><rect x="163.04" y="391.57" width="423.92" height="11.85" style="fill:#263238"></rect><path d="M556.46,396.22H190a1.13,1.13,0,1,0,0,2.26h366.5a1.13,1.13,0,1,0,0-2.26Z" style="fill:#fff"></path><path d="M190,396.22a1.13,1.13,0,1,0,0,2.26H469.47v-2.26Z" style="fill:#FFC727"></path><path d="M467.2,397.35a2.27,2.27,0,1,1,2.27,2.26A2.27,2.27,0,0,1,467.2,397.35Z" style="fill:#FFC727"></path><polygon points="575.09 393.69 575.09 394.73 575.09 396.98 576.13 396.98 576.13 394.73 578.38 394.73 578.38 393.69 576.13 393.69 575.09 393.69" style="fill:#fff"></polygon><polygon points="581.87 393.69 579.61 393.69 579.61 394.73 581.87 394.73 581.87 396.98 582.91 396.98 582.91 394.73 582.91 393.69 581.87 393.69" style="fill:#fff"></polygon><polygon points="581.87 400.26 579.61 400.26 579.61 401.3 581.87 401.3 582.91 401.3 582.91 400.26 582.91 398.01 581.87 398.01 581.87 400.26" style="fill:#fff"></polygon><polygon points="576.13 398.01 575.09 398.01 575.09 400.26 575.09 401.3 576.13 401.3 578.38 401.3 578.38 400.26 576.13 400.26 576.13 398.01" style="fill:#fff"></polygon><polygon points="167.09 394.05 167.09 400.64 172.41 397.35 167.09 394.05" style="fill:#fff"></polygon><path d="M175.29,397.44a1.32,1.32,0,0,1,.21-.75.71.71,0,0,1,.59-.34.69.69,0,0,1,.57.34,1.32,1.32,0,0,1,.21.75,1.3,1.3,0,0,1-.21.75.7.7,0,0,1-.57.35.72.72,0,0,1-.59-.35A1.3,1.3,0,0,1,175.29,397.44Zm1.24,0a1.16,1.16,0,0,0-.15-.56.32.32,0,0,0-.59,0,1.06,1.06,0,0,0-.15.56,1,1,0,0,0,.15.56.32.32,0,0,0,.59,0A1.13,1.13,0,0,0,176.53,397.44Z" style="fill:#fff"></path><path d="M177.52,397.44a1.4,1.4,0,0,1,.21-.75.71.71,0,0,1,.59-.34.72.72,0,0,1,.58.34,1.4,1.4,0,0,1,.2.75,1.37,1.37,0,0,1-.2.75.73.73,0,0,1-.58.35.72.72,0,0,1-.59-.35A1.38,1.38,0,0,1,177.52,397.44Zm1.24,0a1.06,1.06,0,0,0-.15-.56.32.32,0,0,0-.59,0,1.06,1.06,0,0,0-.15.56,1,1,0,0,0,.15.56.32.32,0,0,0,.59,0A1,1,0,0,0,178.76,397.44Z" style="fill:#fff"></path><path d="M180.05,396.85a.23.23,0,1,1,0,.46.23.23,0,1,1,0-.46Zm0,1.24a.24.24,0,0,1,.24.24.23.23,0,0,1-.24.23.23.23,0,0,1-.23-.23A.23.23,0,0,1,180.05,398.09Z" style="fill:#fff"></path><path d="M180.51,397.44a1.32,1.32,0,0,1,.21-.75.69.69,0,0,1,.58-.34.7.7,0,0,1,.58.34,1.32,1.32,0,0,1,.21.75,1.3,1.3,0,0,1-.21.75.71.71,0,0,1-.58.35.7.7,0,0,1-.58-.35A1.3,1.3,0,0,1,180.51,397.44Zm1.23,0a1.06,1.06,0,0,0-.15-.56.37.37,0,0,0-.29-.19.4.4,0,0,0-.3.19,1.16,1.16,0,0,0-.15.56,1.13,1.13,0,0,0,.15.56.4.4,0,0,0,.3.19.37.37,0,0,0,.29-.19A1,1,0,0,0,181.74,397.44Z" style="fill:#fff"></path><path d="M182.74,397.44a1.32,1.32,0,0,1,.21-.75.69.69,0,0,1,.58-.34.7.7,0,0,1,.58.34,1.32,1.32,0,0,1,.21.75,1.3,1.3,0,0,1-.21.75.71.71,0,0,1-.58.35.7.7,0,0,1-.58-.35A1.3,1.3,0,0,1,182.74,397.44Zm1.23,0a1.06,1.06,0,0,0-.15-.56.37.37,0,0,0-.29-.19.4.4,0,0,0-.3.19,1.16,1.16,0,0,0-.15.56,1.13,1.13,0,0,0,.15.56.4.4,0,0,0,.3.19.37.37,0,0,0,.29-.19A1,1,0,0,0,184,397.44Z" style="fill:#fff"></path><path d="M562.44,397.44a1.4,1.4,0,0,1,.21-.75.67.67,0,0,1,1.17,0,1.4,1.4,0,0,1,.21.75,1.38,1.38,0,0,1-.21.75.66.66,0,0,1-1.17,0A1.38,1.38,0,0,1,562.44,397.44Zm1.24,0a1.06,1.06,0,0,0-.15-.56.32.32,0,0,0-.59,0,1.06,1.06,0,0,0-.15.56,1,1,0,0,0,.15.56.32.32,0,0,0,.59,0A1,1,0,0,0,563.68,397.44Z" style="fill:#fff"></path><path d="M565.83,397.21a.78.78,0,0,1-.55,1.33h0a.78.78,0,0,1-.54-.23.18.18,0,0,1,.25-.25.41.41,0,0,0,.6,0,.42.42,0,0,0-.6-.6.18.18,0,0,1-.25,0l0,0h0a0,0,0,0,0,0,0v0h0a.06.06,0,0,1,0-.06l.09-.81a.2.2,0,0,1,.08-.12h0a.12.12,0,0,1,.08,0h.93a.17.17,0,0,1,.18.17.18.18,0,0,1-.18.18h-.77l0,.31.21,0A.78.78,0,0,1,565.83,397.21Z" style="fill:#fff"></path><path d="M566.87,396.85a.23.23,0,1,1,0,.46.23.23,0,1,1,0-.46Zm0,1.24a.24.24,0,0,1,.24.24.23.23,0,0,1-.24.23.23.23,0,0,1-.23-.23A.23.23,0,0,1,566.87,398.09Z" style="fill:#fff"></path><path d="M568.51,397.21a.74.74,0,0,1,.23.55.77.77,0,0,1-.23.55.77.77,0,0,1-1.1,0,.18.18,0,0,1,.25-.25.44.44,0,0,0,.3.12.42.42,0,0,0,.3-.12.41.41,0,0,0,.13-.3.39.39,0,0,0-.13-.3.43.43,0,0,0-.29-.13.15.15,0,0,1-.13-.05h0a.17.17,0,0,1,0-.25l.32-.32h-.51a.18.18,0,0,1,0-.36h.92a.18.18,0,0,1,.18.18.19.19,0,0,1,0,.08l0,0-.4.4A.6.6,0,0,1,568.51,397.21Z" style="fill:#fff"></path><path d="M570.38,397.21a.74.74,0,0,1,.23.55.79.79,0,0,1-.77.78h0a.78.78,0,0,1-.55-.23.18.18,0,0,1,.25-.25.46.46,0,0,0,.31.13.45.45,0,0,0,.42-.43.39.39,0,0,0-.13-.3.42.42,0,0,0-.29-.12.47.47,0,0,0-.31.12.17.17,0,0,1-.25,0l0,0h0v0h0v-.06l.1-.81a.16.16,0,0,1,.08-.12h0a.11.11,0,0,1,.08,0h.92a.17.17,0,0,1,.18.17.18.18,0,0,1-.18.18h-.77l0,.31a.71.71,0,0,1,.21,0A.78.78,0,0,1,570.38,397.21Z" style="fill:#fff"></path><circle cx="193.41" cy="176.12" r="15.1" style="fill:#c7c7c7"></circle><path d="M202,188.52c-.34.24-.71.47-1.08.69h0a15.15,15.15,0,0,1-4.41,1.68h0c-.1-.32-.21-.63-.3-1l-.3-.94-.21-.73c-.07-.22-.12-.43-.18-.63s-.11-.4-.15-.59-.09-.36-.13-.53l-.06-.32c0-.06,0-.12,0-.18s-.06-.33-.08-.48,0-.24,0-.34l0-.29c0-.07,0-.14,0-.21a2.82,2.82,0,0,1,.13-1.18.8.8,0,0,1,.48-.5l.16,0a.79.79,0,0,1,.22,0h0l.1,0h0a.71.71,0,0,1,.2,0,7.08,7.08,0,0,1,2.16,1.28A39.94,39.94,0,0,1,202,188.52Z" style="fill:#FFC727"></path><path d="M200.94,189.21h0a15.15,15.15,0,0,1-4.41,1.68c-.21-.63-.4-1.26-.6-1.89l-.21-.73c-.07-.22-.12-.43-.18-.63s-.11-.4-.15-.59-.09-.36-.13-.53l-.06-.32h0l0-.18c0-.17-.06-.33-.08-.48s0-.23,0-.34a3.66,3.66,0,0,1,.09-1.68.8.8,0,0,1,.48-.5.93.93,0,0,1,.38,0h0l.1,0h0l.16.2.1.13,4.42,5.66Z" style="opacity:0.1"></path><path d="M200.92,189.22a15.15,15.15,0,0,1-4.41,1.68h0a15.17,15.17,0,0,1-7.59-.36l-.19-.06a14.91,14.91,0,0,1-3-1.34,24.49,24.49,0,0,1,2.34-4.26,7.49,7.49,0,0,1,1.52-1.51l.21-.16.19-.12h0l.27-.17h0l.07,0c.16-.1.34-.19.51-.28a5.12,5.12,0,0,1,2.77-.52A4.65,4.65,0,0,1,196,183h0l.29.22.09.08h0a28.44,28.44,0,0,1,4.42,5.71Z" style="fill:#FFC727"></path><path d="M190.13,187.21c-.45,1-.92,2.15-1.4,3.27a14.91,14.91,0,0,1-3-1.34,14.51,14.51,0,0,1-1.58-1.06c.89-1,1.78-1.94,2.64-2.75a10.34,10.34,0,0,1,2.8-2,2.79,2.79,0,0,1,.5-.15.94.94,0,0,1,.41,0,.53.53,0,0,1,.36.24h0a.73.73,0,0,1,.13.36A7.3,7.3,0,0,1,190.13,187.21Z" style="fill:#eb9481"></path><path d="M191.19,184a8.47,8.47,0,0,1-.68,2.61c-.36.91-.92,2.3-1.59,3.9l-.19-.06a14.91,14.91,0,0,1-3-1.34,14.51,14.51,0,0,1-1.58-1.06l-.43-.35a33.19,33.19,0,0,1,4.6-3.84,7.35,7.35,0,0,1,1.31-.69,2.07,2.07,0,0,1,.36-.11h0a1.11,1.11,0,0,1,.7,0,.38.38,0,0,1,.15.09s0,0,0,0A1.07,1.07,0,0,1,191.19,184Z" style="fill:#FFC727"></path><path d="M190.92,183.62c.16.47,2.56,3.2,4.68,2.49,1.49-.5.59-3.52.59-3.52l.5-4.45-5.83-2.87S190.85,183.42,190.92,183.62Z" style="fill:#eb9481"></path><path d="M190.86,178.13a8.53,8.53,0,0,0,5.36,4.21l.48-4.2-5.84-2.87Z" style="fill:#263238"></path><path d="M194.29,178.6c1.89,2.87,6.42,3.26,9.24,1.69a15.23,15.23,0,0,1-2.18-4.57A20.84,20.84,0,0,1,201,171c0-.71,0-1.42-.1-2.13a7,7,0,0,0-.31-2.08c-.7-1.85-3.6-1.76-4-1.34C194.12,168.32,192.14,175.33,194.29,178.6Z" style="fill:#263238"></path><path d="M195,176.58a6,6,0,0,0,2.88,4,6.63,6.63,0,0,0,5.34.39s.06,0,0,0a6.31,6.31,0,0,1-5.37-.15,5.68,5.68,0,0,1-3-4.21C194.84,176.53,195,176.51,195,176.58Z" style="fill:#263238"></path><path d="M193.83,176a6.66,6.66,0,0,0,2.52,4.1,7.65,7.65,0,0,0,5.23,1.68s.06.07,0,.07a7.41,7.41,0,0,1-5.45-1.63A5.82,5.82,0,0,1,193.7,176,.07.07,0,0,1,193.83,176Z" style="fill:#263238"></path><path d="M200.52,168.26a25.08,25.08,0,0,0,.77,5.91,20.19,20.19,0,0,0,2.52,5.58s0,.07-.05,0a18.21,18.21,0,0,1-2.67-5.41,15.72,15.72,0,0,1-.7-6.13A.07.07,0,0,1,200.52,168.26Z" style="fill:#263238"></path><path d="M201.76,171.49c1.16,7.25-3,8.75-4.62,9-1.42.23-6.29.81-8.19-6.28s1.11-9.91,4.33-10.59S200.61,164.25,201.76,171.49Z" style="fill:#eb9481"></path><path d="M200.09,170.75a4.29,4.29,0,0,1-.5-.07.8.8,0,0,1-.5-.17.26.26,0,0,1,0-.32.67.67,0,0,1,.63-.2,1,1,0,0,1,.62.3A.28.28,0,0,1,200.09,170.75Z" style="fill:#263238"></path><path d="M194.91,171.21a4.5,4.5,0,0,0,.49-.14.82.82,0,0,0,.47-.24.27.27,0,0,0,0-.32.66.66,0,0,0-.65-.1.92.92,0,0,0-.58.38A.28.28,0,0,0,194.91,171.21Z" style="fill:#263238"></path><path d="M196.11,172.75s0,0,0,.05c.07.49.06,1.08-.38,1.28,0,0,0,0,0,0C196.24,174,196.25,173.21,196.11,172.75Z" style="fill:#263238"></path><path d="M195.61,172.27c-.81,0-.72,1.63,0,1.62S196.29,172.26,195.61,172.27Z" style="fill:#263238"></path><path d="M195.3,172.37c-.14.1-.27.27-.44.3s-.35-.13-.49-.29c0,0,0,0,0,0,0,.31.15.62.49.65s.51-.26.57-.58C195.41,172.42,195.35,172.33,195.3,172.37Z" style="fill:#263238"></path><path d="M199.12,172.55s0,0,0,0c0,.5.11,1.07.57,1.21,0,0,0,0,0,0C199.17,173.79,199.05,173,199.12,172.55Z" style="fill:#263238"></path><path d="M199.55,172c.8-.1.94,1.51.2,1.6S198.87,172.09,199.55,172Z" style="fill:#263238"></path><path d="M199.89,172.08c.14.08.28.22.43.22s.29-.19.39-.37c0,0,0,0,0,0,0,.31,0,.64-.33.72s-.49-.17-.59-.47C199.8,172.15,199.84,172.05,199.89,172.08Z" style="fill:#263238"></path><path d="M196.38,176.83c.12.12.23.29.41.32a1.26,1.26,0,0,0,.54-.09s0,0,0,0a.69.69,0,0,1-.65.23.57.57,0,0,1-.37-.47S196.37,176.81,196.38,176.83Z" style="fill:#263238"></path><path d="M198.49,175s.1.75.1,1.1c0,0-.08.05-.2.06h0a1.7,1.7,0,0,1-1.63-.64,0,0,0,0,1,0-.05,2.51,2.51,0,0,0,1.54.45c0-.1-.22-1.28-.16-1.28a3.24,3.24,0,0,1,.8.18c-.16-1.56-.57-3.09-.71-4.66,0-.05.08-.07.09,0a25.18,25.18,0,0,1,1,5C199.36,175.36,198.63,175.09,198.49,175Z" style="fill:#263238"></path><path d="M198.05,176a1.58,1.58,0,0,1-.65.55.69.69,0,0,1-.45,0c-.34-.07-.36-.37-.31-.64a1.89,1.89,0,0,1,.13-.4A2.14,2.14,0,0,0,198.05,176Z" style="fill:#263238"></path><path d="M197.4,176.58a.69.69,0,0,1-.45,0c-.34-.07-.36-.37-.31-.64A.78.78,0,0,1,197.4,176.58Z" style="fill:#ff98b9"></path><path d="M185.34,171.55a10,10,0,0,1-.49,4,8.25,8.25,0,0,0-.76,3.3c.15,2.07,2.21,3.31,4.07,4.06a9.37,9.37,0,0,0,5.87-.38c.1,0-8.3-8.29-2.32-18.38a5.34,5.34,0,0,0-3.88,1.39A6.56,6.56,0,0,0,185.34,171.55Z" style="fill:#263238"></path><path d="M185,170.91a7,7,0,0,1,1.57-4.1s0,0,0,0a7.61,7.61,0,0,0-1.46,4.28,11.54,11.54,0,0,1-.46,3.89,7.09,7.09,0,0,0-.72,2.12,4.32,4.32,0,0,0,.39,2.15,6,6,0,0,0,3.48,3s0,.09,0,.08c-2.72-.85-4.78-3.67-3.69-6.38a9.22,9.22,0,0,0,.8-2.55C185,172.57,185,171.73,185,170.91Z" style="fill:#263238"></path><path d="M186.53,167.22s0,0,0,0a7.13,7.13,0,0,0-1.26,4.8,14.09,14.09,0,0,1,.13,2.43,7,7,0,0,1-.59,2.1c-.67,1.55-1.47,3.36.19,4.67a9.16,9.16,0,0,0,5.31,1.61,0,0,0,0,1,0,.08,9.12,9.12,0,0,1-5.23-1.5,2.85,2.85,0,0,1-1-3.48,29.45,29.45,0,0,0,1.06-2.75,9.52,9.52,0,0,0,0-3.06A6.86,6.86,0,0,1,186.53,167.22Z" style="fill:#263238"></path><path d="M185,171.5a5.86,5.86,0,0,1,1.54-4.41,0,0,0,0,1,0,0c-1.48,1.43-1.44,3.57-1.46,5.47a10.23,10.23,0,0,1-.31,2.81,18.51,18.51,0,0,0-1,2.65c-.28,2,1.28,3.66,3.05,4.35,1.94.76,3.92.47,5.93.41,0,0,.07.08,0,.09-2.8.4-6.63.38-8.43-2.22a3.68,3.68,0,0,1-.42-3.58,10.88,10.88,0,0,0,.95-2.78A26.48,26.48,0,0,0,185,171.5Z" style="fill:#263238"></path><path d="M189.66,174.42c1.51-.18,1.21-3.66,1.21-3.66s2.51-.75,3.38-2.6a5.81,5.81,0,0,1-1.48,2.31c-.16.12,5-1,5-5,0,0,1.19,3.86,3.65,4.41.12,0-.73-3.55-1.59-4.31a8.47,8.47,0,0,0-7.24-1.95c-3.14.81-4.87,4.4-5,5.8C187.48,172.17,188.94,174.51,189.66,174.42Z" style="fill:#263238"></path><path d="M192.94,170.54a5.3,5.3,0,0,0,4.82-5.41c0-.08.11-.09.12,0,.7,2.9-2.24,5.4-5,5.48C192.86,170.59,192.88,170.55,192.94,170.54Z" style="fill:#263238"></path><path d="M189.65,174.26c1.45-.95,1.53-2.52,1.48-4.11,0,0,.07-.05.08,0,.19,1.54.11,3.46-1.49,4.25A.07.07,0,0,1,189.65,174.26Z" style="fill:#263238"></path><path d="M197.78,164.86a0,0,0,1,1,0,0c.52,1.59.89,4.32,3,4.51a0,0,0,0,1,0,.09C198.77,169.46,197.74,166.57,197.78,164.86Z" style="fill:#263238"></path><path d="M190.77,174s-1.65-2.26-2.68-1.67.24,3.89,1.47,4.32a1.24,1.24,0,0,0,1.65-.7Z" style="fill:#eb9481"></path><path d="M188.48,173.31s0,0,0,0a3.1,3.1,0,0,1,1.66,1.93.69.69,0,0,0-1-.17s0,.05,0,.05a.75.75,0,0,1,.84.25,3.79,3.79,0,0,1,.42.67c0,.08.18,0,.15,0v0C190.53,174.91,189.65,173.4,188.48,173.31Z" style="fill:#263238"></path><rect x="217.36" y="164.11" width="37.31" height="1.19" style="fill:#c7c7c7"></rect><rect x="217.36" y="173.97" width="64.51" height="1.19" style="fill:#ebebeb"></rect><rect x="217.36" y="178.21" width="53.04" height="1.19" style="fill:#ebebeb"></rect></g><g id="freepik--Character--inject-113"><path d="M472.31,348.36c-7.35,24.53-44.39,21.1-48.82,15.17-17.93-24-39.94-69.9-53.49-116.45-11.57-39.73,1.84-35.43,16.65-23.82C396.32,230.84,476.26,335.18,472.31,348.36Z" style="fill:#FFC727"></path><path d="M401,239.58a4.57,4.57,0,0,0-4,2.75,4.63,4.63,0,0,0-.23,2.46c.15.72.23,1.44.46,2.2.22-.76.3-1.48.45-2.2a4,4,0,0,1,.61-1.82,3.47,3.47,0,0,1,3-1.59,3.82,3.82,0,0,0,1.06-.15Zm28.92,78.26a16.55,16.55,0,0,0-.46-2.19c-.19.68-.26,1.4-.45,2.19a4.38,4.38,0,0,1-.53,1.82,3.34,3.34,0,0,1-2.88,1.67,4.63,4.63,0,0,0-4.21,2.76,4.56,4.56,0,0,0-.22,2.47c.15.72.22,1.43.45,2.19.23-.76.3-1.47.46-2.19a3.78,3.78,0,0,1,.6-1.82,3.43,3.43,0,0,1,3-1.59,4.38,4.38,0,0,0,4.06-2.92A3.78,3.78,0,0,0,429.91,317.84Zm30.14,30.42a3.78,3.78,0,0,1-1.7.87,3.55,3.55,0,0,1-3.26-.94,4.35,4.35,0,0,0-4.92-.91,4.73,4.73,0,0,0-1.82,1.63,19.17,19.17,0,0,0-1.29,1.85,11.89,11.89,0,0,0,1.89-1.25,3.67,3.67,0,0,1,1.71-.87,3.4,3.4,0,0,1,3.18.83,4.59,4.59,0,0,0,4.93,1,4.42,4.42,0,0,0,1.89-1.56,19.29,19.29,0,0,0,1.25-1.89C461.27,347.43,460.66,347.88,460.05,348.26Zm-45.93-65.4a3.41,3.41,0,0,1-1.78-.64,3.25,3.25,0,0,1-1.55-3,4.76,4.76,0,0,0-2.92-4.13,4.5,4.5,0,0,0-2.42-.11,16.15,16.15,0,0,0-2.24.45c.76.16,1.48.27,2.24.38a4.4,4.4,0,0,1,1.81.61,3.4,3.4,0,0,1,1.67,2.84,4.5,4.5,0,0,0,2.77,4.17,4.23,4.23,0,0,0,2.42.3c.76-.19,1.48-.3,2.2-.45A13.42,13.42,0,0,0,414.12,282.86Z" style="fill:#fff"></path><path d="M426,357.07c-5.94-15.52,5.26-40.7,31-101.36,3.56-8.4,70.09,7.35,66.74,16.51-4.22,11.53-27.63,55.46-32.41,61.58C468,363.79,430.05,367.6,426,357.07Z" style="fill:#eb9481"></path><path d="M533.48,248.55c-2.29,13.07-17.43,38-23.39,42.58s-49.16-19.72-50.28-27.37,10-51.07,20.15-60S535.85,235,533.48,248.55Z" style="fill:#eb9481"></path><path d="M467.1,220.65c5.42,4.48,8.81-.2,8.81-.2s-6.68,11.9-1.44,17.64c5.07,5.52,12.35-2.91,12.88-3.5-.35.63-6.2,11.72-.34,16.95,6.09,5.43,11.95-4.29,12.33-4.91-.14.7-1.85,10,3.5,12.94,9.21,5.09,14.22-18.55,21.55-22.88,0,0,8.76,11.58,9.09,11.86,0,0,5.23-22.39-1.16-31.94a7.35,7.35,0,0,0-8.74-2.89s2.49-7-2-11.29c-2.31-2.18-7.85-.43-7.85-.43s1.75-5.72-2.47-9.26c-3.36-2.84-8.4-.64-8.4-.64s14.62-26.74,8.05-31.39c-11.32-8-39.38,51-45.41,52C462.52,213.22,464.74,218.7,467.1,220.65Z" style="fill:#eb9481"></path><path d="M502,192.33c.1-.08,0-.24-.11-.17-11,6.43-21.18,16.87-26.38,28.62-.17.39.17,2.32.38,1.9C481.36,212.19,491.54,200.91,502,192.33Z" style="fill:#263238"></path><path d="M513.82,201.81c.11-.09,0-.28-.17-.2-11.34,6.69-22.45,18.76-26.84,33-.15.49.2,1.08.42.53C490.87,225.9,504.35,209.49,513.82,201.81Z" style="fill:#263238"></path><path d="M499.37,247.72c4.74-13.49,13.33-24.11,23.73-33.75.13-.13-.06-.31-.2-.23-6.37,3.33-12.35,10.16-16.56,15.87a37.78,37.78,0,0,0-7.44,17.95C498.87,247.82,499.27,248,499.37,247.72Z" style="fill:#263238"></path><path d="M475.68,220.5c-.21.46,1.3.07,1.12.55-2,5.11-5.19,14.43-1.4,17,3,2.06,7.92-.59,9.4-2.34l3.71-4.41-1.95,5.43a23.61,23.61,0,0,0-1.46,7.5c0,2.5.59,5,2.28,6.51a4.8,4.8,0,0,0,6,.74,14.52,14.52,0,0,0,4.92-5.4l3.39-5.93-1.26,6.68a22.24,22.24,0,0,0-.33,5.65,9.19,9.19,0,0,0,1.66,5,4.33,4.33,0,0,0,4.29,1.6,9.55,9.55,0,0,0,4.35-3.16,75.11,75.11,0,0,0,6.63-9.8c1.05-1.71,2.1-3.42,3.24-5.08a14.27,14.27,0,0,1,4.1-4.37,15.2,15.2,0,0,0-3.63,4.67c-1,1.72-1.91,3.5-2.82,5.27A65.06,65.06,0,0,1,511.68,257a11.29,11.29,0,0,1-5.09,3.95,6.15,6.15,0,0,1-6.42-2.12,11.12,11.12,0,0,1-2.23-6.15,23.71,23.71,0,0,1,.28-6.29l2.13.75a16.66,16.66,0,0,1-5.75,6.44,7,7,0,0,1-4.62,1,7.92,7.92,0,0,1-4.17-2.11c-2.35-2.2-3-5.46-2.89-8.24a25.62,25.62,0,0,1,1.72-8.23l1.76,1c-1.95,2.17-7.08,5.73-12.2,3.12C468,235.73,474.35,222.79,475.68,220.5Z" style="fill:#263238"></path><path d="M459.81,263.76s-13.19-34.25-8.8-45.86,31.4-17.07,41.56-17.49c14-.59,13,9.53,7,14.19-6.94,5.4-19.58,9.71-20.46,10,0,0,15.88,14.52,13,29.92S459.81,263.76,459.81,263.76Z" style="fill:#eb9481"></path><path d="M473,203.92c2.63-.89,5.31-1.62,8-2.27a73.38,73.38,0,0,1,8.21-1.57c1.39-.19,2.79-.33,4.2-.39a17.93,17.93,0,0,1,4.31.25,10.71,10.71,0,0,1,4.14,1.69,6.79,6.79,0,0,1,2.73,3.79,7.45,7.45,0,0,1-.36,4.65,12.59,12.59,0,0,1-2.46,3.74,20.57,20.57,0,0,1-3.3,2.84c-1.15.82-2.32,1.6-3.53,2.33a56.84,56.84,0,0,1-15.56,6.51l.34-1.58a33.93,33.93,0,0,1,5.53,5.85,37.32,37.32,0,0,1,4.13,6.82,38,38,0,0,1,1.47,3.7,37.43,37.43,0,0,1,1,3.84,32,32,0,0,1,.6,7.86,37.38,37.38,0,0,0-1.24-7.7,37,37,0,0,0-2.9-7.17,39.45,39.45,0,0,0-4.28-6.4,36.07,36.07,0,0,0-5.39-5.38l-1.42-1.12,1.76-.46a54.18,54.18,0,0,0,7.66-2.72,60.09,60.09,0,0,0,7.26-3.76c1.16-.71,2.31-1.44,3.43-2.22a19.1,19.1,0,0,0,3-2.56,11,11,0,0,0,2.12-3.14,5.62,5.62,0,0,0,.37-3.48,5,5,0,0,0-2-2.85,9.27,9.27,0,0,0-3.46-1.53,28.4,28.4,0,0,0-8.05-.2A125.31,125.31,0,0,0,473,203.92Z" style="fill:#263238"></path><path d="M515.68,308.65l-70.75-29.13s-31.24,66.76-23.39,81.23c3.52,6.47,12.1,13.26,25.39,13.28C474.29,374.05,515.68,308.65,515.68,308.65Z" style="fill:#FFC727"></path><path d="M460.05,348.26a3.78,3.78,0,0,1-1.7.87,3.55,3.55,0,0,1-3.26-.94,4.35,4.35,0,0,0-4.92-.91,4.73,4.73,0,0,0-1.82,1.63,19.17,19.17,0,0,0-1.29,1.85,11.89,11.89,0,0,0,1.89-1.25,3.67,3.67,0,0,1,1.71-.87,3.4,3.4,0,0,1,3.18.83,4.59,4.59,0,0,0,4.93,1,4.42,4.42,0,0,0,1.89-1.56,19.29,19.29,0,0,0,1.25-1.89C461.27,347.43,460.66,347.88,460.05,348.26ZM464,294.89a3.86,3.86,0,0,1-1.71.87,3.51,3.51,0,0,1-3.25-.95,4.38,4.38,0,0,0-4.93-.9,4.78,4.78,0,0,0-1.82,1.62,20.51,20.51,0,0,0-1.28,1.86,13.15,13.15,0,0,0,1.89-1.25,3.69,3.69,0,0,1,1.7-.87,3.41,3.41,0,0,1,3.19.83,4.57,4.57,0,0,0,4.92,1,4.45,4.45,0,0,0,1.9-1.56c.41-.64.9-1.21,1.25-1.89C465.19,294.06,464.59,294.51,464,294.89Zm-34.07,22.95c-.09-.5-.16-1-.26-1.41h0a6.69,6.69,0,0,0-.2-.77c-.19.68-.26,1.4-.45,2.19a6.07,6.07,0,0,1-.11.7v0a3.62,3.62,0,0,1-.32.91v0c-.38,1.08-.76,2.16-1.12,3.24a4.3,4.3,0,0,0,2.29-2.52A3.78,3.78,0,0,0,429.91,317.84Zm69.24-6.55a17.8,17.8,0,0,0-.46-2.2c-.19.72-.26,1.4-.45,2.2a4.38,4.38,0,0,1-.53,1.82,3.38,3.38,0,0,1-2.88,1.66,4.64,4.64,0,0,0-4.21,2.77,4.51,4.51,0,0,0-.22,2.42,14.81,14.81,0,0,0,.45,2.24c.23-.76.3-1.48.46-2.24a3.77,3.77,0,0,1,.6-1.78,3.39,3.39,0,0,1,3-1.59,4.56,4.56,0,0,0,4.13-2.88A5,5,0,0,0,499.15,311.29Z" style="fill:#fff"></path><path d="M440.48,297.35c7.82,3.64,15.8,6.86,23.8,10.06s16,6.41,24.08,9.41c4.56,1.69,9.12,3.41,13.74,4.94.12,0,.21-.15.09-.21-7.8-3.63-15.78-6.89-23.75-10.13s-16-6.42-24-9.52c-4.55-1.74-9.12-3.41-13.74-4.94C440.43,296.88,440.25,297.24,440.48,297.35Z" style="fill:#263238"></path><path d="M446.89,279.54c-1.41-.53-2.7-1.22-2.78-1.05-2.07,4.33-3.89,9.21-5.58,13.7s-3.24,8.91-4.74,13.4c-.81,2.42-1.57,4.85-2.25,7.3a27.06,27.06,0,0,0-4.27,9.24c0,.16.25.24.3.08a33.58,33.58,0,0,1,3.7-8.33,62.32,62.32,0,0,0-2.46,18.4s.06,0,.06,0c-.09-9.29,3.7-18.35,6.62-27,1.46-4.34,3-8.64,4.59-12.94s3.33-8.51,4.85-12.81c0,0,1,.46,1.71.71C446.79,280.28,447,279.6,446.89,279.54Z" style="fill:#263238"></path><path d="M480.46,353.59C469.25,365,457.12,374,446.93,374c-12.93,0-21.4-6.44-25.09-12.74-17.61-24.53-38.7-69.07-51.85-114.21-7.45-25.59-4.54-32.92,2.44-31.78l64.48,82.54L471,341.44Z" style="opacity:0.1"></path><path d="M425.56,391.59,414,320.06s11.72-15.53,3.57-37.27C411.78,267.33,387.7,228.58,374,217c-20.24-17-41.71-1.25-49.65,9.52-15.91,21.56-45.77,87.13-52.73,165.05Z" style="fill:#FFC727"></path><path d="M363.55,313a151,151,0,0,1,22.84,2.54c3.75.76,7.43,1.69,11.11,2.71,1.84.51,3.68.95,5.53,1.38a23.48,23.48,0,0,0,5.89.8.14.14,0,0,1,0,.28,40.51,40.51,0,0,1-5.62.21,39.71,39.71,0,0,1-5.41-.73c-3.8-.74-7.56-1.65-11.36-2.42-7.65-1.57-15.3-3.13-23.05-4.12C363.14,313.55,363.19,312.93,363.55,313Z" style="fill:#263238"></path><path d="M345.12,320.94a163.3,163.3,0,0,1,18.84-2c3.17-.14,6.31-.09,9.47,0q2.26.11,4.53.27c1.66.12,3.3.47,5,.57.17,0,.19.29,0,.28-1.56,0-3.14.18-4.71.23l-4.72.14c-3.16.1-6.31.23-9.46.3-6.31.14-12.6.34-18.9.7C344.8,321.49,344.8,321,345.12,320.94Z" style="fill:#263238"></path><path d="M354.16,355.06a3.65,3.65,0,0,1-1.74.83,3.37,3.37,0,0,1-3.18-1,4.43,4.43,0,0,0-5-.83,4.76,4.76,0,0,0-1.86,1.59c-.42.61-.83,1.18-1.25,1.86a15.06,15.06,0,0,0,1.89-1.25,5.28,5.28,0,0,1,1.71-.91,3.44,3.44,0,0,1,3.22.87,4.53,4.53,0,0,0,4.89,1,4.48,4.48,0,0,0,1.93-1.59c.38-.6.83-1.17,1.21-1.85A17.81,17.81,0,0,0,354.16,355.06Zm-54.7-67.31a3.71,3.71,0,0,1-1.66.87,3.43,3.43,0,0,1-3.12-.89l-.64,1.8a4.44,4.44,0,0,0,6.11-1.13,22.52,22.52,0,0,0,1.21-1.9C300.68,286.92,300.11,287.37,299.46,287.75ZM361.55,230a3.91,3.91,0,0,1-1.7.83,3.29,3.29,0,0,1-3.19-1,4.47,4.47,0,0,0-5-.83,4.23,4.23,0,0,0-1.85,1.59,19.29,19.29,0,0,0-1.25,1.89c.68-.42,1.25-.87,1.89-1.25a3.78,3.78,0,0,1,1.7-.91,3.4,3.4,0,0,1,3.22.8,4.4,4.4,0,0,0,4.89,1.06,4.67,4.67,0,0,0,1.93-1.59c.38-.61.84-1.22,1.21-1.9C362.76,229.14,362.19,229.59,361.55,230Zm5,41.63c-.15-.72-.26-1.44-.41-2.2a16.94,16.94,0,0,0-.46,2.2,4.3,4.3,0,0,1-.6,1.9,3.37,3.37,0,0,1-2.85,1.66A4.4,4.4,0,0,0,358,278a3.6,3.6,0,0,0-.23,2.42c.11.76.23,1.48.38,2.2a13.41,13.41,0,0,0,.45-2.2,4.45,4.45,0,0,1,.65-1.78,3.25,3.25,0,0,1,3-1.59,4.57,4.57,0,0,0,4.13-2.92A5,5,0,0,0,366.51,271.64Zm-70,55.39a20.15,20.15,0,0,0-.46-2.19c-.19.72-.26,1.4-.45,2.19a4.38,4.38,0,0,1-.53,1.82,3.41,3.41,0,0,1-2.88,1.67,4.62,4.62,0,0,0-4.21,2.76,4.45,4.45,0,0,0-.22,2.43,14.45,14.45,0,0,0,.45,2.23,21.47,21.47,0,0,0,.45-2.23,3.89,3.89,0,0,1,.61-1.78,3.37,3.37,0,0,1,3-1.59,4.55,4.55,0,0,0,4.12-2.88A4.89,4.89,0,0,0,296.49,327Zm117.65,57.4a20.15,20.15,0,0,0-.46-2.19c-.19.72-.26,1.4-.45,2.19a4.38,4.38,0,0,1-.53,1.82,3.41,3.41,0,0,1-2.88,1.67,4.63,4.63,0,0,0-4.21,2.76,4.34,4.34,0,0,0-.24.91h1.38a1.74,1.74,0,0,1,.15-.26,3.37,3.37,0,0,1,3-1.59,4.55,4.55,0,0,0,4.12-2.88A4.89,4.89,0,0,0,414.14,384.43Zm-24-76a4.83,4.83,0,0,1-1.7.94,3.49,3.49,0,0,1-3.22-.83,4.61,4.61,0,0,0-4.89-1.06,4.55,4.55,0,0,0-1.93,1.59c-.38.61-.83,1.21-1.25,1.89.68-.41,1.25-.87,1.89-1.28a4.7,4.7,0,0,1,1.71-.84,3.57,3.57,0,0,1,3.22,1,4.54,4.54,0,0,0,5,.87,4.89,4.89,0,0,0,1.86-1.63c.41-.64.83-1.21,1.21-1.89C391.33,307.55,390.76,308,390.11,308.39ZM341.25,317a4.24,4.24,0,0,1-1.78-.56,3.4,3.4,0,0,1-1.59-3,4.51,4.51,0,0,0-2.92-4.13,3.88,3.88,0,0,0-2.43-.19c-.75.19-1.47.27-2.23.46.76.22,1.48.3,2.23.45a4.57,4.57,0,0,1,1.86.53,3.43,3.43,0,0,1,1.67,2.88,4.58,4.58,0,0,0,2.76,4.21,4.45,4.45,0,0,0,2.43.22,22.58,22.58,0,0,0,2.23-.45C342.72,317.29,342,317.21,341.25,317ZM304.88,377a5.38,5.38,0,0,1-1.86-.64,3.45,3.45,0,0,1-1.55-3,4.45,4.45,0,0,0-2.92-4.13,4.94,4.94,0,0,0-2.42-.19c-.76.19-1.48.27-2.2.46a19.47,19.47,0,0,0,2.2.45,4.2,4.2,0,0,1,1.86.57,3.48,3.48,0,0,1,1.7,2.88,4.37,4.37,0,0,0,2.73,4.17,3.9,3.9,0,0,0,2.46.22,15.36,15.36,0,0,0,2.2-.45C306.32,377.14,305.6,377.07,304.88,377ZM318.4,254.48a3.41,3.41,0,0,1-1.78-.64,3.25,3.25,0,0,1-1.55-3,4.76,4.76,0,0,0-2.85-4.1c-.23.43-.45.86-.67,1.3a3.41,3.41,0,0,1,1.66,2.84,4.5,4.5,0,0,0,2.77,4.17,4.24,4.24,0,0,0,2.42.3c.76-.19,1.48-.3,2.2-.45A14.56,14.56,0,0,0,318.4,254.48Zm95.72,28.38a3.41,3.41,0,0,1-1.78-.64,3.25,3.25,0,0,1-1.55-3,4.76,4.76,0,0,0-2.92-4.13,4.5,4.5,0,0,0-2.42-.11,16.15,16.15,0,0,0-2.24.45c.76.16,1.48.27,2.24.38a4.4,4.4,0,0,1,1.81.61,3.4,3.4,0,0,1,1.67,2.84,4.5,4.5,0,0,0,2.77,4.17,4.23,4.23,0,0,0,2.42.3c.76-.19,1.48-.3,2.2-.45A13.42,13.42,0,0,0,414.12,282.86Zm-17.21-37.21a11.61,11.61,0,0,0,.3,1.34c.06-.22.11-.43.16-.64C397.22,246.11,397.07,245.88,396.91,245.65ZM395.8,357.59a4.85,4.85,0,0,1-1.86-.64,3.33,3.33,0,0,1-1.55-3,4.51,4.51,0,0,0-2.92-4.13,4.86,4.86,0,0,0-2.43-.18c-.3.07-.53.11-.79.15h0a3.6,3.6,0,0,1-.26.57c.34.07.72.11,1.09.18a3.87,3.87,0,0,1,1.82.57,3.4,3.4,0,0,1,1.71,2.88,4.49,4.49,0,0,0,2.73,4.17,4.12,4.12,0,0,0,2.5.23A17.9,17.9,0,0,0,398,358C397.2,357.82,396.52,357.71,395.8,357.59Z" style="fill:#fff"></path><path d="M316.58,229.28c-43.33,41.17-99,128.91-89.75,147.36,10.3,20.56,70.65-37.16,70.54-40.65-.09-2.64,22.23-56.31,39.1-95.33S327.29,219.1,316.58,229.28Z" style="fill:#eb9481"></path><path d="M297.76,336.07c2-5.76,32.26-76.5,41-98.9,7.83-20.11,4.87-27.75-13-16.52C299.34,237.28,230,312,217.34,348.42c-12.15,35.09,17.15,38.94,41.75,23.38C279.24,359.06,297.76,336.07,297.76,336.07Z" style="fill:#FFC727"></path><path d="M265.77,361.93a3.78,3.78,0,0,1-1.7.87,3.55,3.55,0,0,1-3.26-.94,4.35,4.35,0,0,0-4.92-.91,4.81,4.81,0,0,0-1.82,1.63,19.17,19.17,0,0,0-1.29,1.85,11.89,11.89,0,0,0,1.89-1.25,3.67,3.67,0,0,1,1.71-.87,3.42,3.42,0,0,1,3.18.83,4.57,4.57,0,0,0,4.92,1,4.39,4.39,0,0,0,1.9-1.56,19.29,19.29,0,0,0,1.25-1.89C267,361.1,266.38,361.55,265.77,361.93Zm33.69-74.18a3.71,3.71,0,0,1-1.66.87,3.46,3.46,0,0,1-3.22-1,4.55,4.55,0,0,0-5-.87,4,4,0,0,0-1.81,1.63c-.42.6-.91,1.21-1.29,1.85A22.1,22.1,0,0,0,288.4,289a3.67,3.67,0,0,1,1.71-.87,3.29,3.29,0,0,1,3.22.8,4.44,4.44,0,0,0,6.82-.53,22.52,22.52,0,0,0,1.21-1.9C300.68,286.92,300.11,287.37,299.46,287.75ZM229.72,336.6a16.41,16.41,0,0,0-.45-2.2c-.19.68-.27,1.4-.46,2.2a4.1,4.1,0,0,1-.53,1.82,3.32,3.32,0,0,1-2.87,1.66,4.39,4.39,0,0,0-4.44,5.23c.15.72.23,1.44.46,2.2.23-.76.3-1.48.45-2.2a3.89,3.89,0,0,1,.61-1.82,3.45,3.45,0,0,1,3-1.59,4.38,4.38,0,0,0,4.05-2.92A3.68,3.68,0,0,0,229.72,336.6ZM296.49,327a20.15,20.15,0,0,0-.46-2.19c-.19.72-.26,1.4-.45,2.19a4.38,4.38,0,0,1-.53,1.82,3.41,3.41,0,0,1-2.88,1.67,4.62,4.62,0,0,0-4.21,2.76,4.45,4.45,0,0,0-.22,2.43,14.45,14.45,0,0,0,.45,2.23,21.47,21.47,0,0,0,.45-2.23,3.89,3.89,0,0,1,.61-1.78,3.37,3.37,0,0,1,3-1.59,4.55,4.55,0,0,0,4.12-2.88A4.89,4.89,0,0,0,296.49,327Zm-35.7-11.75a4.11,4.11,0,0,1-1.82-.57,3.72,3.72,0,0,1-1.59-3,4.41,4.41,0,0,0-2.84-4.09,4.14,4.14,0,0,0-2.5-.19,14.81,14.81,0,0,0-2.16.45,20.25,20.25,0,0,0,2.16.46,4.07,4.07,0,0,1,1.89.53,3.48,3.48,0,0,1,1.67,2.84,4.63,4.63,0,0,0,2.72,4.24,4.77,4.77,0,0,0,2.47.23c.72-.15,1.47-.23,2.19-.45C262.26,315.55,261.51,315.47,260.79,315.28Zm57.61-60.8a3.41,3.41,0,0,1-1.78-.64,3.25,3.25,0,0,1-1.55-3,4.76,4.76,0,0,0-2.92-4.13,4.5,4.5,0,0,0-2.42-.11,16.15,16.15,0,0,0-2.24.45c.76.16,1.48.27,2.24.38a4.4,4.4,0,0,1,1.82.61,3.41,3.41,0,0,1,1.66,2.84,4.5,4.5,0,0,0,2.77,4.17,4.24,4.24,0,0,0,2.42.3c.76-.19,1.48-.3,2.2-.45A14.56,14.56,0,0,0,318.4,254.48Z" style="fill:#fff"></path><path d="M293.89,345.21q3.62-10.17,7.6-20.21c2.62-6.7,5.35-13.35,8.1-20s5.6-13.25,8.52-19.83,5.9-13.12,9-19.61q-3.61,10.19-7.59,20.21c-2.62,6.7-5.36,13.35-8.11,20s-5.6,13.25-8.52,19.82S297,338.72,293.89,345.21Z" style="fill:#263238"></path><path d="M321,281.09a31.53,31.53,0,0,1,2.89-4.9,42.61,42.61,0,0,1,3.57-4.42,14,14,0,0,1-1.22,2.6c-.47.83-1,1.62-1.53,2.4A26.72,26.72,0,0,1,321,281.09Z" style="fill:#263238"></path><path d="M226.22,375.77c9.33,13.59,35,16.37,99.08,29.46,8.86,1.81,38.46-57.3,29.1-59.72-11.8-3.05-58.23-12.32-61.71-12.57C263.32,330.84,219.88,366.55,226.22,375.77Z" style="fill:#eb9481"></path><path d="M381.7,358.23c-3.64-2.32-2.44-4.24,5.18-5s38.46,2.75,38.77-8.11S382.4,330,369.8,332.18s-32.22,10.24-32.22,10.24C345.89,345,365.46,353,381.7,358.23Z" style="fill:#eb9481"></path><path d="M325.7,405.29c23.67,6.3,52.75,15.58,79.37,8.15a13.63,13.63,0,0,0,7.49-4.91c12-3.11,14.12-9.71,14.12-9.71,10.28-6.32,11.53-13.36,11.53-13.36s14-3.81,13.14-12.68c-1-9.95-20.5-2.65-33.68-5.2-30.22-5.85-71.55-22.61-80.09-25.16Z" style="fill:#eb9481"></path><path d="M381.69,383.71c8.93,1.54,17.66,3.29,26.75,3.62,10,.36,19.63-1,29.49-2.08a.24.24,0,0,1,.09.47c-17.54,4.83-39.1,3.9-56.41-1.61C381.19,384,381.24,383.63,381.69,383.71Z" style="fill:#263238"></path><path d="M375.51,401.44c8.77,1,24.2,2.71,51.11-2.91.09,0,.15.13.05.16-17,6-33.7,6.7-51.21,3.16C374.92,401.74,374.93,401.37,375.51,401.44Z" style="fill:#263238"></path><path d="M372.37,411c15,1.17,24.57,0,40.12-2.54.09,0,.14.14,0,.16-17.37,4.75-24.21,4.51-40.28,2.89C371.7,411.48,371.78,411,372.37,411Z" style="fill:#263238"></path><path d="M344,336.17l-56,76.47s-62.28-21.07-70-38.08c-4.59-10.07,40.92-43.41,73.52-42.13Z" style="fill:#FFC727"></path><path d="M265.77,361.93a3.78,3.78,0,0,1-1.7.87,3.55,3.55,0,0,1-3.26-.94,4.35,4.35,0,0,0-4.92-.91,4.81,4.81,0,0,0-1.82,1.63,19.17,19.17,0,0,0-1.29,1.85,11.89,11.89,0,0,0,1.89-1.25,3.67,3.67,0,0,1,1.71-.87,3.42,3.42,0,0,1,3.18.83,4.57,4.57,0,0,0,4.92,1,4.39,4.39,0,0,0,1.9-1.56,19.29,19.29,0,0,0,1.25-1.89C267,361.1,266.38,361.55,265.77,361.93Zm6.57,40.55c-.19-.75-.3-1.47-.45-2.19a13.53,13.53,0,0,0-.46,2.19,4.05,4.05,0,0,1-.6,1.86,3.48,3.48,0,0,1-1.4,1.32l1.8.72a4.11,4.11,0,0,0,.92-1.47A5,5,0,0,0,272.34,402.48Zm16.09-70.07a3.34,3.34,0,0,0-.47.87,4.45,4.45,0,0,0-.22,2.43,14.45,14.45,0,0,0,.45,2.23,21.47,21.47,0,0,0,.45-2.23,3.89,3.89,0,0,1,.61-1.78,3.39,3.39,0,0,1,2.12-1.51C290.4,332.39,289.42,332.39,288.43,332.41Zm-49.56,58.47a4.39,4.39,0,0,1-1.78-.57,3.42,3.42,0,0,1-1.6-3,4.5,4.5,0,0,0-2.91-4.13,4,4,0,0,0-2.43-.19c-.75.19-1.47.27-2.23.46a22.58,22.58,0,0,0,2.23.45,4.57,4.57,0,0,1,1.86.53,3.45,3.45,0,0,1,1.67,2.88,4.61,4.61,0,0,0,.2,1.33c1.69,1,3.47,2.05,5.3,3.05h0a16.66,16.66,0,0,0,1.91-.4C240.34,391.14,239.62,391.07,238.87,390.88Zm66-13.93a5.38,5.38,0,0,1-1.86-.64,3.45,3.45,0,0,1-1.55-3,4.45,4.45,0,0,0-2.92-4.13,4.94,4.94,0,0,0-2.42-.19c-.76.19-1.48.27-2.2.46a19.47,19.47,0,0,0,2.2.45,4.2,4.2,0,0,1,1.86.57,3.48,3.48,0,0,1,1.7,2.88,4.37,4.37,0,0,0,2.73,4.17,3.9,3.9,0,0,0,2.46.22,15.36,15.36,0,0,0,2.2-.45C306.32,377.14,305.6,377.07,304.88,377Z" style="fill:#fff"></path><path d="M278,395.17c5.06-7.76,10.53-15.24,16-22.7s11-15,16.66-22.28c3.21-4.15,6.4-8.31,9.75-12.34.09-.11.29,0,.21.13-5.05,7.75-10.5,15.26-15.93,22.75s-11,15-16.57,22.36q-4.74,6.27-9.75,12.34C278.25,395.62,277.88,395.4,278,395.17Z" style="fill:#263238"></path><path d="M340.71,341.36c-.18.15-.59.14-.53-.05s2.88-4.67,3-4.92c0,0-34.12-3-52.41-2.81-15,.82-33.23,7.63-38,11.2-.13.1-.26-.12-.14-.22,8.41-6.75,23.63-11.61,35.44-12.28,16.12-.91,53.7,2.36,57.23,3.15C345.74,335.53,341.14,341,340.71,341.36Z" style="fill:#263238"></path><path d="M346.11,216.61a5.55,5.55,0,1,1-5.55-5.54A5.55,5.55,0,0,1,346.11,216.61Z" style="fill:#FFC727"></path><circle cx="340.84" cy="227.14" r="5.54" style="fill:#FFC727"></circle><path d="M350.32,236.9a5.55,5.55,0,1,1-5.54-5.55A5.54,5.54,0,0,1,350.32,236.9Z" style="fill:#FFC727"></path><path d="M356.4,245.88a5.55,5.55,0,1,1-5.55-5.55A5.54,5.54,0,0,1,356.4,245.88Z" style="fill:#FFC727"></path><path d="M362.66,254.69a5.55,5.55,0,1,1-5.54-5.55A5.54,5.54,0,0,1,362.66,254.69Z" style="fill:#FFC727"></path><path d="M370.48,262.17a5.55,5.55,0,1,1-5.55-5.54A5.55,5.55,0,0,1,370.48,262.17Z" style="fill:#FFC727"></path><circle cx="375.25" cy="265.57" r="5.54" style="fill:#FFC727"></circle><circle cx="382.39" cy="258.49" r="5.54" style="fill:#FFC727"></circle><path d="M387.67,247.78a5.55,5.55,0,1,1-5.54-5.55A5.54,5.54,0,0,1,387.67,247.78Z" style="fill:#FFC727"></path><path d="M387.09,236.9a5.54,5.54,0,1,1-5.54-5.55A5.54,5.54,0,0,1,387.09,236.9Z" style="fill:#FFC727"></path><path d="M384.55,226.24a5.55,5.55,0,1,1-5.54-5.55A5.54,5.54,0,0,1,384.55,226.24Z" style="fill:#FFC727"></path><circle cx="373.09" cy="216.86" r="5.54" style="fill:#FFC727"></circle><g style="opacity:0.30000000000000004"><path d="M346.11,216.61a5.55,5.55,0,1,1-5.55-5.54A5.55,5.55,0,0,1,346.11,216.61Z" style="fill:#fff"></path><circle cx="340.84" cy="227.14" r="5.54" style="fill:#fff"></circle><path d="M350.32,236.9a5.55,5.55,0,1,1-5.54-5.55A5.54,5.54,0,0,1,350.32,236.9Z" style="fill:#fff"></path><path d="M356.4,245.88a5.55,5.55,0,1,1-5.55-5.55A5.54,5.54,0,0,1,356.4,245.88Z" style="fill:#fff"></path><path d="M362.66,254.69a5.55,5.55,0,1,1-5.54-5.55A5.54,5.54,0,0,1,362.66,254.69Z" style="fill:#fff"></path><path d="M370.48,262.17a5.55,5.55,0,1,1-5.55-5.54A5.55,5.55,0,0,1,370.48,262.17Z" style="fill:#fff"></path><circle cx="375.25" cy="265.57" r="5.54" style="fill:#fff"></circle><circle cx="382.39" cy="258.49" r="5.54" style="fill:#fff"></circle><path d="M387.67,247.78a5.55,5.55,0,1,1-5.54-5.55A5.54,5.54,0,0,1,387.67,247.78Z" style="fill:#fff"></path><path d="M387.09,236.9a5.54,5.54,0,1,1-5.54-5.55A5.54,5.54,0,0,1,387.09,236.9Z" style="fill:#fff"></path><path d="M384.55,226.24a5.55,5.55,0,1,1-5.54-5.55A5.54,5.54,0,0,1,384.55,226.24Z" style="fill:#fff"></path><circle cx="373.09" cy="216.86" r="5.54" style="fill:#fff"></circle></g><path d="M354.89,210.12c-10,.2-15.68,5.06-14.05,12.62,3.2,14.81,21.22,42.08,35.17,42.08,11.3,0,4.72-39.58-2-47.52S360,210,354.89,210.12Z" style="fill:#eb9481"></path><path d="M341.21,219c1,2.83,15.45,19.29,28.21,15,9-3,3.56-21.2,3.56-21.2L376,186,340.84,168.7S340.81,217.79,341.21,219Z" style="fill:#eb9481"></path><path d="M340.85,185.94a51.52,51.52,0,0,0,32.3,25.37L376,186l-35.18-17.3S340.84,176.49,340.85,185.94Z" style="fill:#263238"></path><path d="M361.54,188.76c11.37,17.3,38.68,19.64,55.66,10.18.42-.23-8.27-9.83-13.12-27.51-2.53-9.23-1.9-19-2.27-28.58-.16-4.29-.31-8.58-.57-12.87-.24-4.08-.39-8.6-1.88-12.52-4.23-11.12-21.66-10.6-23.85-8.07C360.49,126.83,348.58,169.05,361.54,188.76Z" style="fill:#263238"></path><path d="M365.59,176.6a35.77,35.77,0,0,0,17.29,23.85c9.52,5.34,22,6,32.23,2.32.18-.07.31.2.13.27-10.61,4.23-22,4.5-32.35-.91-9.53-5-16.72-14.61-18-25.39A.37.37,0,0,1,365.59,176.6Z" style="fill:#263238"></path><path d="M358.76,172.94c2.15,10,6.89,18.42,15.2,24.65s21,11.89,31.5,10.15a.22.22,0,0,1,.08.44c-11.15,2.12-24.05-3.16-32.82-9.83-7.78-5.92-14.47-15.28-14.75-25.37C358,172.52,358.67,172.51,358.76,172.94Z" style="fill:#263238"></path><path d="M399.06,126.44c.55,12.14,1.28,23.87,4.62,35.64a122.57,122.57,0,0,0,15.19,33.58c.13.2-.15.46-.3.25a109.17,109.17,0,0,1-16.05-32.56c-3.45-11.67-5.69-24.79-4.22-37A.38.38,0,0,1,399.06,126.44Z" style="fill:#263238"></path><path d="M406.56,145.93c7,43.65-18.43,52.74-27.86,54.23-8.56,1.35-37.88,4.86-49.33-37.84S336,102.6,355.45,98.48,399.58,102.29,406.56,145.93Z" style="fill:#eb9481"></path><path d="M396.48,141.45a28.1,28.1,0,0,1-3-.41,5,5,0,0,1-3-1,1.58,1.58,0,0,1-.13-1.92c.89-1.2,2.37-1.34,3.79-1.19a5.74,5.74,0,0,1,3.75,1.77A1.68,1.68,0,0,1,396.48,141.45Z" style="fill:#263238"></path><path d="M365.26,144.23a27.58,27.58,0,0,0,2.95-.85,4.93,4.93,0,0,0,2.84-1.43,1.58,1.58,0,0,0-.14-1.93c-1.06-1.05-2.55-1-3.92-.63a5.74,5.74,0,0,0-3.46,2.29A1.68,1.68,0,0,0,365.26,144.23Z" style="fill:#263238"></path><path d="M372.48,153.51c0-.12-.22.16-.21.28.39,3,.32,6.5-2.31,7.76-.08,0-.06.19,0,.17C373.29,160.93,373.32,156.29,372.48,153.51Z" style="fill:#263238"></path><path d="M369.48,150.62c-4.88.1-4.32,9.84.2,9.75S373.58,150.54,369.48,150.62Z" style="fill:#263238"></path><path d="M367.6,151.24c-.82.6-1.6,1.62-2.63,1.78-1.18.19-2.13-.78-3-1.72-.08-.1-.16,0-.16.12.08,1.87.91,3.75,2.93,3.91,1.84.15,3.06-1.58,3.42-3.48C368.26,151.5,367.93,151,367.6,151.24Z" style="fill:#263238"></path><path d="M390.65,152.33c0-.12.24.13.24.25.06,3,.63,6.48,3.41,7.35.09,0,.09.18,0,.17C390.92,159.79,390.21,155.2,390.65,152.33Z" style="fill:#263238"></path><path d="M393.19,149c4.85-.6,5.71,9.11,1.22,9.68S389.13,149.55,393.19,149Z" style="fill:#263238"></path><path d="M395.28,149.5c.81.45,1.66,1.32,2.58,1.3s1.77-1.15,2.36-2.21c.06-.11.14,0,.16.09.22,1.85-.23,3.84-2,4.35s-2.95-1-3.55-2.83C394.73,149.87,395,149.32,395.28,149.5Z" style="fill:#263238"></path><path d="M374.13,178.09c.68.75,1.34,1.77,2.43,1.93a8,8,0,0,0,3.3-.55c.1,0,.19.08.12.16A4.09,4.09,0,0,1,376,181a3.25,3.25,0,0,1-2.21-2.82C373.8,178,374,178,374.13,178.09Z" style="fill:#263238"></path><path d="M386.85,167.24s.6,4.52.59,6.65c0,.2-.52.29-1.24.33,0,0-.06,0-.09,0a10.14,10.14,0,0,1-9.83-3.84c-.14-.21.13-.42.32-.29,2.8,2.08,5.91,2.63,9.25,2.7.15-.59-1.29-7.7-1-7.72,1.16-.1,3.46.71,4.84,1.12-1-9.45-3.47-18.66-4.3-28.08A.29.29,0,0,1,386,138c3.29,9.47,4.66,20.31,5.92,30C392.08,169.24,387.7,167.61,386.85,167.24Z" style="fill:#263238"></path><path d="M384.19,173.27a10.1,10.1,0,0,1-3.9,3.33,4.6,4.6,0,0,1-2.76.31c-2-.43-2.16-2.27-1.87-3.85a10.58,10.58,0,0,1,.78-2.45A13.15,13.15,0,0,0,384.19,173.27Z" style="fill:#263238"></path><path d="M380.29,176.6a4.6,4.6,0,0,1-2.76.31c-2-.43-2.16-2.27-1.87-3.85C377.81,173.17,380,174.53,380.29,176.6Z" style="fill:#ff98b9"></path><path d="M307.57,146.25a60.74,60.74,0,0,1-2.95,24.15c-2.18,6.45-5.07,12.89-4.57,19.87.92,12.48,13.36,19.94,24.53,24.44,7.47,3,23.47,2.57,35.37-2.27.58-.24-50-50-13.94-110.77.16-.28-10.95-1.42-23.43,8.41C310.59,119.53,306.55,132.19,307.57,146.25Z" style="fill:#263238"></path><path d="M305.75,142.42a42,42,0,0,1,9.42-24.67c.05-.07.17,0,.12.09a45.85,45.85,0,0,0-8.77,25.82c-.34,7.91.24,15.93-2.8,23.4-1.73,4.26-4,8.13-4.34,12.8a26.29,26.29,0,0,0,2.36,12.93c4,8.84,12,14.39,21,17.92.28.11.19.55-.12.45-16.36-5.08-28.78-22.13-22.23-38.45,2.07-5.16,4.28-9.72,4.84-15.34C305.69,152.41,305.46,147.39,305.75,142.42Z" style="fill:#263238"></path><path d="M314.78,120.2c.06-.07.2,0,.14.08a42.5,42.5,0,0,0-7.61,28.87c.43,4.88,1.2,9.75.75,14.64a40.75,40.75,0,0,1-3.54,12.7c-4,9.3-8.85,20.25,1.15,28.1,8.74,6.85,21.11,9.4,32,9.7a.24.24,0,0,1,0,.48c-10.73.1-22.68-2.7-31.51-9-7.34-5.26-8.5-13-5.84-21,1.89-5.63,5.06-10.76,6.38-16.6,1.39-6.17.58-12.18,0-18.4C305.7,139,308.19,128.92,314.78,120.2Z" style="fill:#263238"></path><path d="M305.76,146c.23-9.6,1.74-19.79,9.27-26.54.09-.09.24,0,.14.14-8.88,8.62-8.64,21.52-8.77,33-.06,5.67-.26,11.44-1.89,16.9s-5.3,10.27-6.09,16c-1.64,12,7.71,22.06,18.39,26.21,11.69,4.56,23.62,2.82,35.76,2.47.29,0,.38.47.07.51-16.86,2.42-39.93,2.32-50.75-13.34a22.31,22.31,0,0,1-2.57-21.61c2.33-5.61,5-10.6,5.76-16.72C305.82,157.35,305.62,151.65,305.76,146Z" style="fill:#263238"></path><path d="M333.61,163.78c9.13-1.08,7.29-22,7.29-22S356,137.2,361.3,126c0,0-3.3,9.54-8.95,13.93-1,.74,30.08-5.8,30.46-30.14,0,0,7.16,23.22,22,26.54.71.15-4.42-21.38-9.57-25.95a45.62,45.62,0,0,0-9.81-6.76,45.19,45.19,0,0,0-33.82-5c-19,4.87-29.39,26.47-30,34.93C320.52,150.23,329.28,164.3,333.61,163.78Z" style="fill:#263238"></path><path d="M353.41,140.36c17-2.58,29.46-15,29-32.59a.39.39,0,0,1,.76-.08c4.22,17.47-13.55,32.52-29.9,33C352.89,140.69,353,140.42,353.41,140.36Z" style="fill:#263238"></path><path d="M333.55,162.81c8.76-5.75,9.22-15.22,8.91-24.75,0-.28.46-.34.5-.06,1.14,9.26.67,20.81-9,25.55A.43.43,0,0,1,333.55,162.81Z" style="fill:#263238"></path><path d="M382.57,106.18a.09.09,0,0,1,.18,0c3.14,9.57,5.34,26.05,18.15,27.18a.27.27,0,0,1,0,.53C388.49,133.88,382.34,116.45,382.57,106.18Z" style="fill:#263238"></path><path d="M340.3,161.29s-9.92-13.62-16.12-10.07,1.43,23.42,8.84,26a7.48,7.48,0,0,0,10-4.19Z" style="fill:#eb9481"></path><path d="M326.51,156.86c-.12,0-.14.16,0,.2,5.2,2,8,6.72,10,11.64-1.57-1.88-3.68-2.88-6.2-1-.13.1,0,.31.14.28a4.62,4.62,0,0,1,5.1,1.51,22.4,22.4,0,0,1,2.5,4.05c.25.46,1.08.19.9-.33l-.05-.12C338.87,166.5,333.59,157.4,326.51,156.86Z" style="fill:#263238"></path></g><g id="freepik--Books--inject-113"><rect x="557.63" y="430.93" width="141.02" height="17.8" style="fill:#37474f"></rect><rect x="585.29" y="430.93" width="5.75" height="17.8" style="fill:#455a64"></rect><rect x="668.27" y="430.93" width="13.78" height="17.8" style="fill:#455a64"></rect><rect x="548.88" y="384.75" width="144.03" height="20.62" style="fill:#455a64"></rect><rect x="632.84" y="390.93" width="34.59" height="8.26" style="fill:#FFC727"></rect><path d="M680.22,395.06a4.13,4.13,0,1,1-4.13-4.13A4.13,4.13,0,0,1,680.22,395.06Z" style="fill:#FFC727"></path><rect x="628.15" y="363.99" width="72.76" height="20.76" transform="translate(1329.07 748.74) rotate(180)" style="fill:#263238"></rect><rect x="560.89" y="363.99" width="67.26" height="20.76" transform="translate(1189.04 748.74) rotate(180)" style="fill:#263238"></rect><rect x="628.15" y="366.14" width="72.76" height="16.46" transform="translate(1329.07 748.74) rotate(180)" style="fill:#fff"></rect><path d="M698.62,379.21q-12.12.18-24.26.24l-11,.08-24.26-.08c-8.09,0-2.89-.12-11-.24,8.09-.11,2.89-.2,11-.24l24.26-.07,11,.07Q686.5,379,698.62,379.21Z" style="fill:#dbdbdb"></path><path d="M698.62,376q-12.12.18-24.26.24l-11,.08-24.26-.07c-8.09-.05-2.89-.13-11-.25,8.09-.11,2.89-.19,11-.24l24.26-.07,11,.07Q686.5,375.82,698.62,376Z" style="fill:#dbdbdb"></path><path d="M698.62,372.76q-12.12.17-24.26.24l-11,.07L639.13,373c-8.09-.05-2.89-.13-11-.24,8.09-.12,2.89-.2,11-.24l24.26-.08,11,.08Q686.5,372.58,698.62,372.76Z" style="fill:#dbdbdb"></path><path d="M698.62,369.53q-12.12.17-24.26.24l-11,.07-24.26-.07c-8.09,0-2.89-.13-11-.24,8.09-.12,2.89-.2,11-.24l24.26-.07,11,.07Q686.5,369.35,698.62,369.53Z" style="fill:#dbdbdb"></path><rect x="603.78" y="363.99" width="9.47" height="20.76" transform="translate(1217.03 748.74) rotate(180)" style="fill:#FFC727"></rect><rect x="564.37" y="363.99" width="6.36" height="20.76" transform="translate(1135.11 748.74) rotate(180)" style="fill:#FFC727"></rect><rect x="564.48" y="405.36" width="81.95" height="25.58" style="fill:#FFC727"></rect><rect x="646.42" y="405.36" width="62.22" height="25.58" style="fill:#FFC727"></rect><rect x="564.48" y="408.01" width="81.95" height="20.27" style="fill:#fff"></rect><path d="M569.78,412.18q9.59-.15,19.16-.21l19.16-.07,19.16.07q9.59,0,19.16.21-9.57.17-19.16.22l-19.16.06-19.16-.06Q579.35,412.34,569.78,412.18Z" style="fill:#dbdbdb"></path><path d="M569.78,416.16q9.59-.17,19.16-.22l19.16-.06,19.16.06q9.59.06,19.16.22-9.57.15-19.16.21l-19.16.07-19.16-.07Q579.35,416.31,569.78,416.16Z" style="fill:#dbdbdb"></path><path d="M569.78,420.13q9.59-.15,19.16-.21l19.16-.07,19.16.07q9.59.06,19.16.21-9.57.17-19.16.22l-19.16.06-19.16-.06Q579.35,420.29,569.78,420.13Z" style="fill:#dbdbdb"></path><path d="M569.78,424.11q9.59-.15,19.16-.22l19.16-.06,19.16.06q9.59.06,19.16.22-9.57.15-19.16.22l-19.16.06-19.16-.07Q579.35,424.28,569.78,424.11Z" style="fill:#dbdbdb"></path><rect x="687.09" y="405.36" width="11.65" height="25.58" transform="translate(1385.83 836.29) rotate(180)" style="fill:#455a64"></rect></g><g id="freepik--speech-bubble--inject-113"><polygon points="316.26 57.22 316.26 110.82 308.74 110.82 308.74 123.82 295.74 110.82 224.39 110.82 224.39 57.22 316.26 57.22" style="fill:#fff"></polygon><path d="M316.26,57.22,316.42,84q.1,13.4.12,26.86v.28h-.28l-7.52,0,.29-.3,0,13v.78l-.55-.55-13-13,.26.1-35.68.08c-11.89,0-23.78.09-35.67,0h-.48v-.48l.12-53.6v-.36h.36l46,.12Zm0,0-46,.25-45.83.12.36-.37.12,53.6-.48-.48c11.89,0,23.78,0,35.67,0l35.68.08h.15l.1.1,13,13-.56.23,0-13v-.3h.3l7.52,0-.28.28q0-13.35.12-26.73Z" style="fill:#263238"></path><path d="M253,84a4.36,4.36,0,1,1-4.35-4.35A4.35,4.35,0,0,1,253,84Z" style="fill:#263238"></path><path d="M274.68,84a4.36,4.36,0,1,1-4.35-4.35A4.35,4.35,0,0,1,274.68,84Z" style="fill:#263238"></path><path d="M296.4,84a4.35,4.35,0,1,1-4.35-4.35A4.35,4.35,0,0,1,296.4,84Z" style="fill:#263238"></path></g><g id="freepik--Lightbulb--inject-113"><path d="M527.63,50.06a27.32,27.32,0,0,1-.6-5.45,26.62,26.62,0,0,1,.4-5.48,26.7,26.7,0,0,1,.6,5.46A26.58,26.58,0,0,1,527.63,50.06Z" style="fill:#a6a6a6"></path><path d="M502.69,57a26.52,26.52,0,0,1-3.24-4.42,26.5,26.5,0,0,1-2.39-4.94,26.67,26.67,0,0,1,3.24,4.42A26.2,26.2,0,0,1,502.69,57Z" style="fill:#a6a6a6"></path><path d="M484.57,75.52a26.84,26.84,0,0,1-5-2.21A25.93,25.93,0,0,1,475,70.23a29.77,29.77,0,0,1,9.56,5.29Z" style="fill:#a6a6a6"></path><path d="M478.13,100.6a27.41,27.41,0,0,1-5.46.6,26.58,26.58,0,0,1-5.47-.4,30.13,30.13,0,0,1,10.93-.2Z" style="fill:#a6a6a6"></path><path d="M485.09,125.54a30.79,30.79,0,0,1-9.36,5.64,30,30,0,0,1,9.36-5.64Z" style="fill:#a6a6a6"></path><path d="M571.73,124.65a30,30,0,0,1,9.56,5.28,25.9,25.9,0,0,1-5-2.2A27.08,27.08,0,0,1,571.73,124.65Z" style="fill:#a6a6a6"></path><path d="M578.17,99.57a30.41,30.41,0,0,1,10.93-.21,26,26,0,0,1-5.46.6A26.57,26.57,0,0,1,578.17,99.57Z" style="fill:#a6a6a6"></path><path d="M571.21,74.62a27.1,27.1,0,0,1,4.42-3.24A26.5,26.5,0,0,1,580.57,69a30.18,30.18,0,0,1-9.36,5.63Z" style="fill:#a6a6a6"></path><path d="M552.71,56.5a26.84,26.84,0,0,1,2.21-5A25.93,25.93,0,0,1,558,46.94a26.52,26.52,0,0,1-2.2,5A26.55,26.55,0,0,1,552.71,56.5Z" style="fill:#a6a6a6"></path><g style="opacity:0.5"><path d="M570.6,102.63c-2.11,26.36-24.07,34.31-24.07,34.31-1.62,4-3.72,14.2-3.72,14.2H513.49s-2.11-10.19-3.72-14.2c0,0-22-7.95-24.07-34.31-1.46-18.32,11.58-45.4,42.29-45.41h.32C559,57.23,572.06,84.31,570.6,102.63Z" style="fill:#FFC727"></path></g><g style="opacity:0.7000000000000001"><path d="M567,102.76c-1.93,24.11-22,31.38-22,31.38-1.48,3.67-3.4,17-3.4,17H514.74s-1.92-13.33-3.4-17c0,0-20.09-7.27-22-31.38C488,86,499.92,61.24,528,61.23h.29C556.38,61.24,568.31,86,567,102.76Z" style="fill:#FFC727"></path></g><rect x="515.21" y="107.07" width="3" height="46.96" transform="translate(-15.18 97.05) rotate(-10.58)" style="fill:#fff"></rect><rect x="516.11" y="129.05" width="46.96" height="3" transform="translate(312.37 637.08) rotate(-79.44)" style="fill:#fff"></rect><path d="M528.15,123c-2.72,0-5.07-2.42-6.74-5.46a3.49,3.49,0,0,1-2.47,1.28c-4.46,0-6.22-9.06-6.29-9.44l1-.19c.46,2.4,2.3,8.63,5.31,8.63h0a2.87,2.87,0,0,0,2-1.23,20.34,20.34,0,0,1-2.15-8.16c0-2.59,1-4.08,2.73-4.08h0a2.74,2.74,0,0,1,2.5,1.42c1.38,2.38.37,7.09-1.36,10.07a8.5,8.5,0,0,1-.57.89c1.56,2.95,3.74,5.27,6.08,5.27,1.75,0,3.53-1.4,5-3.93.11-.19.22-.39.32-.59a12.14,12.14,0,0,1-2.63-7.78c0-3.3,1.26-5.36,3.29-5.36h0a2.19,2.19,0,0,1,1.94,1.19c1.3,2.25.61,7.58-1.4,11.79a4.06,4.06,0,0,0,2.76,1.1h0c2.58,0,4.89-6.28,5.56-8.7l1,.26c-.27,1-2.73,9.43-6.52,9.44a5,5,0,0,1-3.21-1.21l-.21.36C532.33,121.42,530.31,123,528.15,123Zm6-17.66c-1.69,0-2.29,2.35-2.29,4.36a12,12,0,0,0,2.09,6.82c1.71-3.81,2.36-8.61,1.28-10.49A1.2,1.2,0,0,0,534.12,105.29Zm-12.62,0h0c-1.43,0-1.73,1.67-1.73,3.08a18.75,18.75,0,0,0,1.79,7.27c.08-.12.15-.23.22-.36,1.56-2.7,2.5-7.09,1.36-9.07A1.76,1.76,0,0,0,521.5,105.3Z" style="fill:#fff"></path><rect x="509.78" y="151.18" width="36.73" height="20.22" style="fill:#455a64"></rect><path d="M542.35,171.39c-2.16,3.83-6.3,7.26-14.2,7.26s-12-3.43-14.2-7.26Z" style="fill:#455a64"></path><path d="M542.35,171.39A13.35,13.35,0,0,1,540,174.5l-25.29-1.94a13.29,13.29,0,0,1-.73-1.17Z" style="fill:#37474f"></path><polygon points="547.59 155.03 508.71 158.63 508.71 156.86 547.59 153.27 547.59 155.03" style="fill:#37474f"></polygon><polygon points="547.59 160.37 508.71 163.96 508.71 162.2 547.59 158.61 547.59 160.37" style="fill:#37474f"></polygon><polygon points="547.59 165.71 508.71 169.3 508.71 167.54 547.59 163.94 547.59 165.71" style="fill:#37474f"></polygon><g style="opacity:0.5"><path d="M495,96.47c1.35.22,3.09-6.73,10.57-14.77,3.32-3.57,15.91-8,15-12.17s-12.14.12-17.79,6.67C493.63,86.73,493.71,96.26,495,96.47Z" style="fill:#fff"></path><path d="M561.21,97.92a1.93,1.93,0,0,0,0-3.85C558.74,94.07,558.73,97.92,561.21,97.92Z" style="fill:#fff"></path><path d="M549.09,126.87c1.36,1,7.93-5,10.9-12.27,2.46-6,2.88-13.6,1.22-14s-2.72,10-4.71,13.81C554,119.22,547.65,125.76,549.09,126.87Z" style="fill:#fff"></path></g></g></svg>
