<svg xmlns="http://www.w3.org/2000/svg" viewBox="0 0 750 500"><g id="freepik--Shadow--inject-176"><ellipse cx="375" cy="402.54" rx="328.77" ry="41.32" style="fill:#ebebeb"></ellipse></g><g id="freepik--Floor--inject-176"><polygon points="50.72 348.19 131.79 347.95 212.86 347.86 375 347.69 537.14 347.86 618.21 347.95 699.28 348.19 618.21 348.44 537.14 348.52 375 348.69 212.86 348.52 131.79 348.43 50.72 348.19" style="fill:#263238"></polygon></g><g id="freepik--Computer--inject-176"><rect x="180.53" y="102.44" width="388.19" height="259.67" style="fill:#dbdbdb"></rect><rect x="183.35" y="105.61" width="382.55" height="253.33" style="fill:#263238"></rect><rect x="129.97" y="381.58" width="489.31" height="17.82" style="fill:#c7c7c7"></rect><polygon points="129.97 381.58 180.53 362.11 568.72 362.11 619.28 381.58 129.97 381.58" style="fill:#dbdbdb"></polygon><polygon points="185.05 374.68 217.68 362.11 531.58 362.11 564.21 374.68 185.05 374.68" style="fill:#263238"></polygon><rect x="204.97" y="124.86" width="339.31" height="214.84" style="fill:#fff"></rect><rect x="204.69" y="124.86" width="339.6" height="8.27" style="fill:#455a64"></rect><path d="M211.26,129a2.05,2.05,0,1,1-2-2.05A2.05,2.05,0,0,1,211.26,129Z" style="fill:#c7c7c7"></path><path d="M219.63,129a2.05,2.05,0,1,1-2-2.05A2.05,2.05,0,0,1,219.63,129Z" style="fill:#fff"></path><path d="M228,129a2.05,2.05,0,1,1-2.05-2.05A2.05,2.05,0,0,1,228,129Z" style="fill:#FFC727"></path><rect x="221.27" y="150.51" width="131.95" height="92.41" transform="translate(574.49 393.42) rotate(180)" style="fill:#ebebeb"></rect><path d="M236.69,176.77a10.93,10.93,0,1,0,10.93-10.93A10.93,10.93,0,0,0,236.69,176.77Z" style="fill:#dbdbdb"></path><polygon points="279.84 223 353.23 223 316.53 173.27 279.84 223" style="fill:#c7c7c7"></polygon><polygon points="251.1 223.05 311.68 223.05 281.39 190.66 251.1 223.05" style="fill:#dbdbdb"></polygon><rect x="221.27" y="223" width="131.95" height="19.91" style="fill:#dbdbdb"></rect><rect x="372" y="255.28" width="73.73" height="66.71" transform="translate(817.72 577.28) rotate(180)" style="fill:#ebebeb"></rect><path d="M381.52,269.87a7.9,7.9,0,1,0,6.2-6.2A7.9,7.9,0,0,0,381.52,269.87Z" style="fill:#dbdbdb"></path><polygon points="392.75 307.62 445.73 307.62 419.24 271.72 392.75 307.62" style="fill:#c7c7c7"></polygon><polygon points="372 307.65 415.74 307.65 393.87 284.27 372 307.65" style="fill:#dbdbdb"></polygon><rect x="372" y="307.62" width="73.73" height="14.37" style="fill:#dbdbdb"></rect><rect x="372" y="150.51" width="118.27" height="5.97" style="fill:#a6a6a6"></rect><rect x="372" y="162.86" width="143.99" height="5.97" style="fill:#dbdbdb"></rect><rect x="372" y="175.21" width="143.99" height="5.97" style="fill:#dbdbdb"></rect><rect x="372" y="187.57" width="143.99" height="5.97" style="fill:#dbdbdb"></rect><rect x="372" y="199.92" width="143.99" height="5.97" style="fill:#dbdbdb"></rect><rect x="372" y="212.27" width="95.59" height="5.97" style="fill:#dbdbdb"></rect><rect x="452.3" y="255.28" width="52.31" height="5.88" style="fill:#a6a6a6"></rect><rect x="452.3" y="267.45" width="63.68" height="5.88" style="fill:#dbdbdb"></rect><rect x="452.3" y="279.62" width="63.68" height="5.88" style="fill:#dbdbdb"></rect><rect x="452.3" y="291.78" width="63.68" height="5.88" style="fill:#dbdbdb"></rect><rect x="452.3" y="303.95" width="63.68" height="5.88" style="fill:#dbdbdb"></rect><rect x="452.3" y="316.12" width="43.22" height="5.88" style="fill:#dbdbdb"></rect><rect x="372" y="225.37" width="143.99" height="17.54" style="fill:#FFC727"></rect><rect x="221.27" y="255.28" width="131.95" height="17.54" style="fill:#a6a6a6"></rect><rect x="221.27" y="279.21" width="131.95" height="5.93" style="fill:#dbdbdb"></rect><rect x="221.27" y="291.49" width="131.95" height="5.93" style="fill:#dbdbdb"></rect><rect x="221.27" y="303.78" width="131.95" height="5.93" style="fill:#dbdbdb"></rect><rect x="221.27" y="316.06" width="90.41" height="5.93" style="fill:#dbdbdb"></rect><rect x="535.21" y="133.12" width="9.07" height="206.57" style="fill:#dbdbdb"></rect><path d="M539.74,241.23h0a2.34,2.34,0,0,1-2.34-2.34V137.51a2.34,2.34,0,0,1,2.34-2.34h0a2.34,2.34,0,0,1,2.34,2.34V238.89A2.34,2.34,0,0,1,539.74,241.23Z" style="fill:#a6a6a6"></path></g><g id="freepik--Tablet--inject-176"><path d="M335.06,241V387.58a11.93,11.93,0,0,1-12,11.82H92.66a11.93,11.93,0,0,1-12-11.82V241a11.92,11.92,0,0,1,12-11.81H323A11.92,11.92,0,0,1,335.06,241Z" style="fill:#455a64"></path><rect x="98.6" y="236.34" width="218.99" height="155.68" style="fill:#fff"></rect><rect x="111.63" y="247.2" width="97.15" height="68.03" transform="translate(320.41 562.42) rotate(180)" style="fill:#ebebeb"></rect><path d="M123,266.54a8,8,0,1,0,8-8.05A8,8,0,0,0,123,266.54Z" style="fill:#dbdbdb"></path><polygon points="154.75 300.57 208.78 300.57 181.76 263.96 154.75 300.57" style="fill:#c7c7c7"></polygon><polygon points="133.59 300.6 178.19 300.6 155.89 276.76 133.59 300.6" style="fill:#dbdbdb"></polygon><rect x="111.63" y="300.57" width="97.15" height="14.66" style="fill:#dbdbdb"></rect><rect x="239.6" y="334.38" width="64.96" height="45.49" transform="translate(544.16 714.24) rotate(180)" style="fill:#ebebeb"></rect><path d="M247.19,347.31a5.39,5.39,0,1,0,5.39-5.38A5.38,5.38,0,0,0,247.19,347.31Z" style="fill:#dbdbdb"></path><polygon points="268.44 370.06 304.56 370.06 286.5 345.58 268.44 370.06" style="fill:#c7c7c7"></polygon><polygon points="254.29 370.09 284.11 370.09 269.2 354.14 254.29 370.09" style="fill:#dbdbdb"></polygon><rect x="239.6" y="370.07" width="64.96" height="9.8" style="fill:#dbdbdb"></rect><rect x="217.16" y="247.2" width="87.41" height="16.62" style="fill:#FFC727"></rect><rect x="217.16" y="270.13" width="87.41" height="2.33" style="fill:#dbdbdb"></rect><rect x="217.16" y="275.6" width="87.41" height="2.33" style="fill:#dbdbdb"></rect><rect x="217.16" y="281.07" width="87.41" height="2.33" style="fill:#dbdbdb"></rect><rect x="217.16" y="286.54" width="87.41" height="2.33" style="fill:#dbdbdb"></rect><rect x="217.16" y="292.01" width="87.41" height="2.33" style="fill:#dbdbdb"></rect><rect x="217.16" y="297.48" width="87.41" height="2.33" style="fill:#dbdbdb"></rect><rect x="217.16" y="302.95" width="50.25" height="2.33" style="fill:#dbdbdb"></rect><rect x="142.95" y="367.2" width="87.41" height="2.33" style="fill:#dbdbdb"></rect><rect x="142.95" y="334.38" width="87.41" height="2.33" style="fill:#dbdbdb"></rect><rect x="142.95" y="339.85" width="87.41" height="2.33" style="fill:#dbdbdb"></rect><rect x="142.95" y="345.32" width="87.41" height="2.33" style="fill:#dbdbdb"></rect><rect x="142.95" y="350.79" width="59.61" height="2.33" style="fill:#dbdbdb"></rect><rect x="142.95" y="361.73" width="87.41" height="2.33" style="fill:#dbdbdb"></rect><rect x="142.95" y="372.67" width="59.61" height="2.33" style="fill:#dbdbdb"></rect><rect x="111.63" y="322.82" width="192.94" height="5.5" style="fill:#455a64"></rect><rect x="111.63" y="334.38" width="24.98" height="45.49" style="fill:#FFC727"></rect><rect x="89.8" y="295.76" width="2.65" height="37.05" rx="1.25" style="fill:#37474f"></rect><path d="M332,314.28a4.8,4.8,0,1,1-4.79-4.79A4.8,4.8,0,0,1,332,314.28Z" style="fill:#37474f"></path></g><g id="freepik--Mobile--inject-176"><path d="M654.11,197.8H565a9.1,9.1,0,0,0-9,9.18v183.4a9.11,9.11,0,0,0,9,9.18h89.09a9.11,9.11,0,0,0,9-9.18V207A9.1,9.1,0,0,0,654.11,197.8Zm3.39,186.91c0,4.83-3.62,8.73-8.08,8.73h-79.7c-4.47,0-8.08-3.9-8.08-8.73V213.93c0-9.83,3.61-10.31,8.08-10.31h16c.93,0,1.69,1,1.69,2.36v.56c0,3.07,1.68,3.08,3.74,3.08H628c2.07,0,3.73,0,3.73-3.08V206c0-1.31.75-2.36,1.7-2.36h16c4.46,0,8.08,1.31,8.08,10.31Z" style="fill:#455a64"></path><path d="M614.6,205.79H604.53a.62.62,0,0,1-.62-.62h0a.62.62,0,0,1,.62-.62H614.6a.63.63,0,0,1,.63.62h0A.63.63,0,0,1,614.6,205.79Z" style="fill:#fff"></path><path d="M657.5,213.93V384.71c0,4.83-3.62,8.73-8.08,8.73h-79.7c-4.47,0-8.08-3.9-8.08-8.73V213.93c0-9.83,3.61-10.31,8.08-10.31h16c.93,0,1.69,1,1.69,2.36v.56c0,3.07,1.68,3.08,3.74,3.08H628c2.07,0,3.73,0,3.73-3.08V206c0-1.31.75-2.36,1.7-2.36h16C653.88,203.62,657.5,204.93,657.5,213.93Z" style="fill:#fff"></path><path d="M657.5,213.93v12.74H561.63V213.93c0-9.83,3.62-10.31,8.09-10.31h16c.92,0,1.68,1,1.68,2.36v.56c0,3.07,1.68,3.08,3.73,3.08H628c2.07,0,3.74,0,3.74-3.08V206c0-1.31.75-2.36,1.69-2.36h16C653.88,203.62,657.5,204.93,657.5,213.93Z" style="fill:#FFC727"></path><polygon points="570.72 220.45 567.89 217.8 570.72 215.15 571.16 215.61 568.83 217.8 571.16 219.99 570.72 220.45" style="fill:#fff"></polygon><path d="M648.85,220.69h-2V220a.1.1,0,0,0-.06-.09l-.22-.13a.14.14,0,0,0-.11,0l-.61.36-1-1.73.61-.35a.09.09,0,0,0,0-.11v-.24a.09.09,0,0,0,0-.11l-.61-.35,1-1.73.61.35a.11.11,0,0,0,.11,0l.22-.13a.1.1,0,0,0,.06-.09v-.71h2v.71a.1.1,0,0,0,.06.09l.22.13a.11.11,0,0,0,.11,0l.61-.35,1,1.73-.61.35a.09.09,0,0,0,0,.11v.24a.09.09,0,0,0,0,.11l.61.35-1,1.73-.61-.35a.11.11,0,0,0-.11,0l-.22.13a.1.1,0,0,0-.06.09Zm-1.5-.5h1V220a.62.62,0,0,1,.33-.54,1,1,0,0,0,.17-.1.64.64,0,0,1,.64,0l.18.11.5-.87-.18-.11a.59.59,0,0,1-.3-.55v-.2a.61.61,0,0,1,.3-.56l.18-.1-.5-.87-.18.11a.62.62,0,0,1-.63,0l-.18-.1a.62.62,0,0,1-.33-.54v-.21h-1v.21a.62.62,0,0,1-.33.54,1,1,0,0,0-.17.1.64.64,0,0,1-.64,0l-.18-.11-.5.87.18.1a.61.61,0,0,1,.3.56v.2a.61.61,0,0,1-.3.56l-.18.1.5.87.18-.11a.64.64,0,0,1,.64,0,1,1,0,0,0,.17.1.62.62,0,0,1,.33.54Zm.5-.91a1.48,1.48,0,1,1,1.48-1.48A1.49,1.49,0,0,1,647.85,219.28Zm0-2.46a1,1,0,1,0,1,1A1,1,0,0,0,647.85,216.82Z" style="fill:#fff"></path><g id="freepik--u5Zjqx--inject-176"><path d="M582.93,207.45l-.15.16-.09.09a2.1,2.1,0,0,0-3,0l-.08-.09-.15-.15h0a1.54,1.54,0,0,1,.19-.17,2.16,2.16,0,0,1,.45-.29,2.49,2.49,0,0,1,.6-.2l.3,0h.46a2.59,2.59,0,0,1,.55.13,2.53,2.53,0,0,1,.37.18,2.25,2.25,0,0,1,.36.24l.16.15Z" style="fill:#fff"></path><path d="M580.2,208.18l-.24-.24a1.75,1.75,0,0,1,2.48,0l-.24.25a1.42,1.42,0,0,0-2,0Z" style="fill:#fff"></path><path d="M582,208.42l-.24.25a.7.7,0,0,0-1,0l-.24-.25A1.06,1.06,0,0,1,582,208.42Z" style="fill:#fff"></path><path d="M581.42,208.89a.22.22,0,1,1-.22-.22A.21.21,0,0,1,581.42,208.89Z" style="fill:#fff"></path></g><path d="M567.89,207.92a.63.63,0,0,1,.63-.63.64.64,0,0,1,.64.63.64.64,0,0,1-.64.64A.64.64,0,0,1,567.89,207.92Z" style="fill:#fff"></path><path d="M569.89,207.92a.63.63,0,0,1,.63-.63.64.64,0,0,1,.64.63.64.64,0,0,1-.64.64A.64.64,0,0,1,569.89,207.92Z" style="fill:#fff"></path><path d="M571.89,207.92a.64.64,0,0,1,1.27,0,.64.64,0,1,1-1.27,0Z" style="fill:#fff"></path><path d="M573.89,207.92a.64.64,0,1,1,.64.64A.64.64,0,0,1,573.89,207.92Z" style="fill:#fff"></path><path d="M575.89,207.92a.64.64,0,0,1,.64-.63.63.63,0,0,1,.63.63.64.64,0,0,1-.63.64A.64.64,0,0,1,575.89,207.92Z" style="fill:#fff"></path><path d="M650.3,209.3h-5.16v-2.38h5.16Zm-4.91-.25h4.66v-1.88h-4.66Z" style="fill:#fff"></path><rect x="645.56" y="207.32" width="3.33" height="1.58" style="fill:#fff"></rect><rect x="650.31" y="207.47" width="0.46" height="1.28" style="fill:#fff"></rect><polygon points="576.2 383 575.47 383 575.47 386.35 574.11 386.35 574.11 384.64 571.7 384.64 571.7 386.35 570.34 386.35 570.34 383 569.61 383 572.91 379.6 576.2 383" style="fill:#ebebeb"></polygon><rect x="641.59" y="379.6" width="7.95" height="1.14" style="fill:#ebebeb"></rect><rect x="641.59" y="382.4" width="7.95" height="1.14" style="fill:#ebebeb"></rect><rect x="641.59" y="385.21" width="7.95" height="1.14" style="fill:#ebebeb"></rect><path d="M576.05,243.44a5.32,5.32,0,0,1-5.63,0,5.35,5.35,0,1,1,5.63,0Z" style="fill:#dbdbdb"></path><path d="M574.86,238.28a1.63,1.63,0,1,1-1.62-1.63A1.63,1.63,0,0,1,574.86,238.28Z" style="fill:#fff"></path><path d="M576.05,242.77v.67a5.32,5.32,0,0,1-5.63,0v-.67a2.82,2.82,0,0,1,5.63,0Z" style="fill:#fff"></path><rect x="585.29" y="233.85" width="34" height="2.8" style="fill:#ebebeb"></rect><rect x="585.29" y="238.52" width="29.68" height="1.86" style="fill:#ebebeb"></rect><rect x="585.29" y="242.1" width="49.07" height="1.86" style="fill:#ebebeb"></rect><rect x="561.64" y="248.67" width="95.86" height="67.12" transform="translate(1219.14 564.46) rotate(180)" style="fill:#ebebeb"></rect><path d="M572.84,267.75a7.94,7.94,0,1,0,7.94-7.94A7.94,7.94,0,0,0,572.84,267.75Z" style="fill:#dbdbdb"></path><polygon points="604.2 301.33 657.5 301.33 630.85 265.2 604.2 301.33" style="fill:#c7c7c7"></polygon><polygon points="583.3 301.36 627.31 301.36 605.3 277.84 583.3 301.36" style="fill:#dbdbdb"></polygon><rect x="561.64" y="301.33" width="95.86" height="14.46" style="fill:#dbdbdb"></rect><path d="M576.05,351.18a5.32,5.32,0,0,1-5.63,0,5.35,5.35,0,1,1,5.63,0Z" style="fill:#dbdbdb"></path><circle cx="573.24" cy="346.02" r="1.63" style="fill:#fff"></circle><path d="M576.05,350.51v.67a5.32,5.32,0,0,1-5.63,0v-.67a2.82,2.82,0,0,1,5.63,0Z" style="fill:#fff"></path><rect x="585.29" y="341.59" width="43.72" height="2.8" style="fill:#ebebeb"></rect><rect x="585.29" y="346.26" width="55.82" height="1.86" style="fill:#ebebeb"></rect><rect x="585.29" y="349.84" width="19.01" height="1.86" style="fill:#ebebeb"></rect><rect x="561.64" y="356.41" width="95.84" height="16.39" style="fill:#ebebeb"></rect><path d="M588.25,372.81H573.31a7.93,7.93,0,0,1,14.94,0Z" style="fill:#dbdbdb"></path><path d="M568.08,323.65a3.17,3.17,0,1,1,3.83,2.33A3.16,3.16,0,0,1,568.08,323.65Z" style="fill:#ebebeb"></path><g id="freepik--xsrjP0--inject-176"><path d="M570.73,324.16c-.09-.05-.16-.13-.27-.12s0,0,0-.05v-1.27a.06.06,0,0,1,0-.07c.32-.16.46-.48.66-.76a1.27,1.27,0,0,0,.23-1c0-.09,0-.13.12-.15a.2.2,0,0,1,.24.07,1.6,1.6,0,0,1,.18.56,1.88,1.88,0,0,1,0,.47c0,.12-.05.23-.07.35s.06,0,.09,0h1.07c.15,0,.23,0,.25.14a.29.29,0,0,1-.16.31s-.07,0-.07.05,0,0,.07.05.1.27,0,.38-.1,0-.1.06.06,0,.09.08a.24.24,0,0,1-.1.37l-.07,0s0,0,0,.05a.21.21,0,0,1,0,.38l0,0a.31.31,0,0,1-.19,0h-1.68A.18.18,0,0,1,570.73,324.16Z" style="fill:#fff;fill-rule:evenodd"></path><path d="M569.13,323.42c0-.27,0-.54,0-.81,0-.05,0-.08.08-.08.32,0,.65,0,1,0,.06,0,.07,0,.07.08v1.62c0,.07,0,.09-.09.09h-.95c-.08,0-.09,0-.09-.1C569.14,324,569.13,323.69,569.13,323.42Z" style="fill:#fff;fill-rule:evenodd"></path></g><path d="M574.74,323.65a3.17,3.17,0,1,1,3.84,2.33A3.16,3.16,0,0,1,574.74,323.65Z" style="fill:#FFC727"></path><path d="M579.44,323.3a1.62,1.62,0,0,1-3.24,0,1.28,1.28,0,0,1,.49-1.87c.9-.27,1.13,1.3,1.13,1.3s.23-1.57,1.14-1.3C579.59,321.62,579.84,322.49,579.44,323.3Z" style="fill:#fff"></path><rect x="585.82" y="322.49" width="45.03" height="1.83" style="fill:#ebebeb"></rect><polygon points="561.64 333.42 573.62 333.24 585.6 333.14 609.56 333.05 633.52 333.14 645.5 333.24 657.48 333.42 645.5 333.61 633.52 333.71 609.56 333.8 585.6 333.71 573.62 333.61 561.64 333.42" style="fill:#ebebeb"></polygon></g><g id="freepik--Character--inject-176"><path d="M417.67,420.05c-.75-2.12-39.46-51.12-42.06-52-.29-.12-16.88,12.22-16.88,12.22-.68.94-32.84-5.16-32.84-5.16l.49,38.63,58.29-2.46s8,4.47,15.26,8.09h0a84.37,84.37,0,0,0,9.58,4.4C412.46,424.44,418.43,422.15,417.67,420.05Z" style="fill:#eb9481"></path><path d="M409.53,423.75a83.7,83.7,0,0,1-9.57-4.4h0c-7.28-3.62-15.26-8.09-15.26-8.09l-13,.55-21-32.37c4.48.7,7.81,1.1,8,.8,0,0,16.58-12.33,16.88-12.21,2.6.9,41.31,49.9,42.06,52S412.46,424.45,409.53,423.75Z" style="fill:#fff"></path><path d="M418,420.1c-.79-2.16-39.67-51.13-42.34-52.06-1-.36-9.14,4.9-16.95,12.21l25.1,31.53s22.8,11.48,25.83,12.19S418.8,422.27,418,420.1Z" style="fill:#FFC727"></path><path d="M415.5,421c-6.72-8-33.06-41.15-39.09-49.61-.05-.07,0-.11,0,0,6.83,7.83,32.91,41.14,39.17,49.54C415.77,421,415.64,421.13,415.5,421Z" style="fill:#263238"></path><path d="M405.4,422.22a8.42,8.42,0,0,1-1.9-6.51,8.13,8.13,0,0,1,2.93-5.31c.05,0,.12.05.07.1a9.71,9.71,0,0,0-1,11.63C405.55,422.2,405.45,422.28,405.4,422.22Z" style="fill:#263238"></path><path d="M386.7,413.71c-2.66-3.25-4.52-8-3.45-12.16,0-.16.27-.1.29,0a58.09,58.09,0,0,0,3.61,11.85A.27.27,0,0,1,386.7,413.71Z" style="fill:#263238"></path><path d="M389.7,415.46c-2.65-3.25-4.52-8-3.45-12.16,0-.16.27-.1.3,0a57.44,57.44,0,0,0,3.6,11.85A.27.27,0,0,1,389.7,415.46Z" style="fill:#263238"></path><path d="M392.7,417.21c-2.65-3.25-4.51-8-3.45-12.16,0-.16.27-.1.3,0a58.31,58.31,0,0,0,3.6,11.85A.27.27,0,0,1,392.7,417.21Z" style="fill:#263238"></path><path d="M395.71,419c-2.66-3.25-4.52-8-3.46-12.16,0-.16.27-.1.3,0a57.71,57.71,0,0,0,3.61,11.85A.27.27,0,0,1,395.71,419Z" style="fill:#263238"></path><path d="M370.27,379.63c-2.92-3.7,2.82-8.23,5.74-4.53S373.19,383.33,370.27,379.63Z" style="fill:#263238"></path><path d="M385.36,420.13c.88-3.59.17-7.43-.07-11.06a.51.51,0,0,0-.73-.38.12.12,0,0,0-.18,0,22,22,0,0,0-6,9.65c-.61,2.16-.3,5.33,2.4,5.9S384.85,422.23,385.36,420.13Zm-2.6,2.31c-3.84,2.52-3.65-2.89-3.13-4.46a22.11,22.11,0,0,1,1.26-3,65.74,65.74,0,0,1,3.4-5.72c0,1.79.17,3.56.24,5.34C384.62,416.77,384.87,421.06,382.76,422.44Z" style="fill:#263238"></path><path d="M373,398.66c-1.94,2-.46,4.78,1.25,6.24a21.92,21.92,0,0,0,10.35,4.74c.09,0,.13-.05.13-.12a.51.51,0,0,0,.41-.72c-1.8-3.16-3.33-6.75-6-9.26C377.54,398.07,374.86,396.81,373,398.66Zm8.43,5.91c.93,1.53,1.77,3.1,2.74,4.6-2-.93-4.06-1.77-6-2.9a24.07,24.07,0,0,1-2.69-1.78c-1.3-1-4.43-5.44.16-5.45C378.2,399,380.36,402.75,381.45,404.57Z" style="fill:#263238"></path><path d="M324,365.9l-26.29-2.07s-38-11-59.92-5.25c-25.16,6.61-28.71,36-3.13,47.78C260,418,371.37,413.72,371.37,413.72l-23.88-35.37s-36.68-8.61-68.79-6.86l45.46,5.23Z" style="fill:#37474f"></path><path d="M323.73,373.38c-3.91-.64-7.87-1-11.81-1.33s-8-.66-12-.91a238.34,238.34,0,0,0-23.91-.36c-.75,0-1.49.07-2.24.12a4.31,4.31,0,0,0-.49-.11c-.38-.09-.77-.18-1.15-.24-.73-.12-1.45-.21-2.18-.31-1.51-.2-3-.33-4.53-.58-.09,0-.13.13,0,.14,1.52.31,3,.71,4.53,1l1.31.25c-2.92.21-5.83.5-8.74.83-.09,0-.09.15,0,.14,4-.32,8-.43,11.94-.44s7.89,0,11.84.13c8,.29,16,.84,23.92,1.51,4.46.37,8.94.83,13.42.92C324.08,374.16,324.17,373.45,323.73,373.38Z" style="fill:#263238"></path><path d="M360,412.91c-1.47-2.25-2.74-4.66-4.09-7l-4.08-7c-2.72-4.65-12.46-20.27-13.41-21.36-.06-.07-.18,0-.15.1.47,1.21,6.56,11.56,8,13.87,2.8,4.61,5.74,9.13,8.63,13.68.83,1.3,1.68,2.59,2.52,3.88s1.73,2.56,2.5,3.89C359.89,413.07,360,413,360,412.91Z" style="fill:#263238"></path><path d="M229.17,427.17c.65-2.15,37-52.92,39.55-53.95.29-.13,17.45,11.4,17.45,11.4.72.91,32.55-6.7,32.55-6.7l1.34,38.61-58.34.3s-7.75,4.84-14.86,8.81h0a85.59,85.59,0,0,1-9.36,4.85C234.58,431.32,228.51,429.31,229.17,427.17Z" style="fill:#eb9481"></path><path d="M237.48,430.49a83.93,83.93,0,0,0,9.35-4.85h0c7.1-4,14.86-8.81,14.86-8.81l13-.06,19.45-33.33c-4.44.91-7.75,1.47-8,1.18,0,0-17.16-11.54-17.45-11.4-2.55,1-38.9,51.8-39.55,53.95S234.58,431.32,237.48,430.49Z" style="fill:#fff"></path><path d="M228.83,427.25c.68-2.2,37.21-53,39.82-54,1-.41,9.37,4.46,17.52,11.38l-23.59,32.7s-22.22,12.54-25.22,13.39S228.15,429.45,228.83,427.25Z" style="fill:#FFC727"></path><path d="M231.39,428c6.33-8.36,31.07-42.66,36.7-51.41,0-.07,0-.1-.06,0-6.45,8.14-30.92,42.65-36.78,51.34C231.12,428.06,231.25,428.16,231.39,428Z" style="fill:#263238"></path><path d="M241.54,428.76a8.44,8.44,0,0,0,1.58-6.59A8.12,8.12,0,0,0,240,417s-.12.06-.08.11a9.72,9.72,0,0,1,1.56,11.57A.07.07,0,0,0,241.54,428.76Z" style="fill:#263238"></path><path d="M259.81,419.37c2.5-3.37,4.14-8.18,2.87-12.3,0-.16-.27-.09-.29.05a58,58,0,0,1-3,12A.26.26,0,0,0,259.81,419.37Z" style="fill:#263238"></path><path d="M256.89,421.26c2.5-3.37,4.14-8.18,2.88-12.3,0-.16-.28-.09-.3.05a58,58,0,0,1-3,12A.26.26,0,0,0,256.89,421.26Z" style="fill:#263238"></path><path d="M254,423.15c2.49-3.37,4.13-8.18,2.87-12.3-.05-.16-.27-.09-.29,0a58.6,58.6,0,0,1-3,12A.26.26,0,0,0,254,423.15Z" style="fill:#263238"></path><path d="M251.06,425.05c2.5-3.38,4.14-8.19,2.87-12.31,0-.16-.27-.09-.29.05a58,58,0,0,1-3,12A.26.26,0,0,0,251.06,425.05Z" style="fill:#263238"></path><path d="M274.61,384.56c2.74-3.83-3.21-8.09-5.95-4.26S271.86,388.39,274.61,384.56Z" style="fill:#263238"></path><path d="M266.25,429.59c2.67-.69,2.83-3.87,2.11-6a21.94,21.94,0,0,0-6.48-9.36c-.07-.06-.13,0-.17,0a.52.52,0,0,0-.72.42c-.06,3.63-.59,7.5.46,11.05C262.06,427.8,263.72,430.25,266.25,429.59ZM262,420.2c0-1.78.06-3.56,0-5.34a64,64,0,0,1,3.66,5.55,24.11,24.11,0,0,1,1.41,2.89c.59,1.55,1,6.94-2.92,4.62C262,426.63,262,422.33,262,420.2Z" style="fill:#263238"></path><path d="M266.71,404.86c-2.59,2.64-3.95,6.3-5.59,9.54a.51.51,0,0,0,.44.7.11.11,0,0,0,.13.12A22.06,22.06,0,0,0,271.81,410c1.63-1.54,3-4.42.95-6.29S268.22,403.32,266.71,404.86Zm3.42-.66c4.58-.2,1.66,4.35.41,5.44a24,24,0,0,1-2.6,1.9,66,66,0,0,1-5.84,3.18c.9-1.54,1.67-3.15,2.52-4.72C265.63,408.13,267.6,404.31,270.13,404.2Z" style="fill:#263238"></path><path d="M320.17,366l26.17-.69s27-13.89,49.22-9.17c25.44,5.4,29.52,37.07,10.92,48.8-23.56,14.86-130.17,14.93-130.17,14.93l22-39.64s35.23-8.4,67.39-8.17l-45.17,7.38Z" style="fill:#37474f"></path><path d="M296.83,382.82a.73.73,0,0,0,.05-.2l0-.17.09-.38c.07-.26.16-.51.25-.77s.2-.5.3-.75a5.4,5.4,0,0,1,.42-.7s0,0,.06-.05l0,0,.05,0,.06,0c3.88-.83,30.25-5.32,34.18-5.87s7.92-1,11.9-1.47a237.83,237.83,0,0,1,23.86-1.5c.75,0,1.5,0,2.25,0a3.76,3.76,0,0,1,.48-.13c.38-.1.76-.21,1.14-.29.72-.16,1.44-.29,2.16-.42,1.5-.27,3-.47,4.5-.79.09,0,.13.12,0,.14-1.5.38-3,.85-4.47,1.22l-1.3.31c2.93.08,5.85.23,8.78.42a.07.07,0,0,1,0,.14c-4-.13-8-.05-11.95.12s-7.88.36-11.82.7c-8,.66-15.9,1.59-23.82,2.63-4.44.59-31.33,5.24-35.8,5.55h-.06a1.92,1.92,0,0,1-.11.31l-.36.73c-.12.23-.24.46-.38.69l-.21.33-.11.16c0,.05-.1.12-.11.17S296.78,382.91,296.83,382.82Z" style="fill:#263238"></path><path d="M284.55,417.31c1.37-2.32,2.52-4.78,3.76-7.17l3.74-7.18c2.5-4.77,11.49-20.84,12.39-22,.05-.07.18,0,.15.09-.41,1.24-6,11.86-7.29,14.23-2.58,4.74-5.3,9.4-8,14.08-.76,1.34-1.56,2.66-2.33,4s-1.6,2.64-2.31,4A.07.07,0,1,1,284.55,417.31Z" style="fill:#263238"></path><path d="M372.61,259.88l-5.51,29.83c-.26.88.22,1.56,1.07,1.5l15.15-1a2.47,2.47,0,0,0,2-1.7l5.51-29.83c.26-.88-.22-1.55-1.07-1.5l-15.14,1A2.48,2.48,0,0,0,372.61,259.88Z" style="fill:#37474f"></path><path d="M374.41,259.75l-5.51,29.83c-.26.88.22,1.56,1.06,1.5l15.15-1a2.46,2.46,0,0,0,2-1.7l5.52-29.83c.26-.88-.22-1.56-1.07-1.5l-15.15,1A2.48,2.48,0,0,0,374.41,259.75Z" style="fill:#455a64"></path><path d="M378.65,260.82a1.29,1.29,0,1,1-1.34-1.23A1.29,1.29,0,0,1,378.65,260.82Z" style="fill:#263238"></path><path d="M326.63,307.47c9.59,17.79,30.16,40.45,38.14,40.11,3.79-.16,10.61.37,15.34-4.26,10.33-10.1,18.4-28.79,19.68-39.3.45-3.73-18-10.76-20.49-7.6-5.84,7.41-12.31,21.66-13.42,21.64-4.1-.09-20.78-12.49-32.43-21.22C319.31,286.23,322.81,300.38,326.63,307.47Z" style="fill:#eb9481"></path><path d="M399.17,284.87c-2.32-7.41-4.05-9-2.69-16.25.89-4.79-1.78-7.41-4.92-3.44-5.13,6.5-4.14,16.69-2.78,20.13Z" style="fill:#eb9481"></path><path d="M399.09,307.3s2.77-10.66,1.08-18.8c-1.17-5.63-5.08-17.6-21.33-23.13-3.86-1.31-10.28-.44-4.76,4,3.92,3.15,7.35,4,9.3,6.21,0,0-8,2.06-9.2,6A74.16,74.16,0,0,0,371.87,292a15.23,15.23,0,0,0,1.91.6s-1,3.7,2,8.7Z" style="fill:#eb9481"></path><path d="M398.19,283.3c-2.4-1.82-7.56-5.59-12.85-7.21-5.88-1.79-17.68-3.67-19,.68-.94,3.2,3.5,4.31,3.5,4.31s-5,.25-5.26,3.32c-.2,2.8,3.29,3.45,3.29,3.45s-3,.68-2.7,3.41c.39,3.28,6.68,1.32,10,4.3C375.9,296.23,398.19,283.3,398.19,283.3Z" style="fill:#eb9481"></path><path d="M384.48,282.62A24.52,24.52,0,0,0,370,281c-.12,0-.16.14-.05.13a60.31,60.31,0,0,1,14.54,1.56A0,0,0,0,0,384.48,282.62Z" style="fill:#263238"></path><path d="M382.49,288.5c-2.31-.93-9.13-2.24-14.57-.76-.13,0-.16.14,0,.13a64.55,64.55,0,0,1,14.6.69A0,0,0,0,0,382.49,288.5Z" style="fill:#263238"></path><path d="M400.38,311.64s-13.17,29.95-21.56,33.79-13.57,3.38-16.78,3.07a8.68,8.68,0,0,1-3.47-1.44c-9-5.7-25.66-26.69-32.62-38.62-5.22-9-5.15-17.35,2.14-15.05a23.82,23.82,0,0,1,6.83,3.86c13.74,10.29,29.57,19.94,30.28,19.52s7.6-12.8,7.6-12.8Z" style="fill:#FFC727"></path><path d="M366.4,323a7.18,7.18,0,0,0,0,2A6.93,6.93,0,0,0,367,327a6.82,6.82,0,0,0,0-2A6.93,6.93,0,0,0,366.4,323Z" style="fill:#fff"></path><path d="M383.59,330.45a7.18,7.18,0,0,0,0,2,7.48,7.48,0,0,0,.54,1.94,6.77,6.77,0,0,0,0-2A6.84,6.84,0,0,0,383.59,330.45Z" style="fill:#fff"></path><path d="M353.29,337.68a7.18,7.18,0,0,0,0,2,6.77,6.77,0,0,0,.54,1.94,7.19,7.19,0,0,0,0-2A7.59,7.59,0,0,0,353.29,337.68Z" style="fill:#fff"></path><path d="M345,308.26a7.77,7.77,0,0,0,.56,4,7.18,7.18,0,0,0,0-2A7.48,7.48,0,0,0,345,308.26Z" style="fill:#fff"></path><path d="M342.28,320.31a7.18,7.18,0,0,0,2,0,6.77,6.77,0,0,0,1.94-.54,7.19,7.19,0,0,0-2,0A7.59,7.59,0,0,0,342.28,320.31Z" style="fill:#fff"></path><path d="M377.36,323.8a7.18,7.18,0,0,0,2,0,7.48,7.48,0,0,0,1.94-.54,6.76,6.76,0,0,0-2,0A6.84,6.84,0,0,0,377.36,323.8Z" style="fill:#fff"></path><path d="M359.54,334.32a7.18,7.18,0,0,0,2,0,6.77,6.77,0,0,0,1.94-.54,7.88,7.88,0,0,0-4,.57Z" style="fill:#fff"></path><path d="M393.43,313.47a7.18,7.18,0,0,0,2,0,6.77,6.77,0,0,0,1.94-.54,7.88,7.88,0,0,0-4,.57Z" style="fill:#fff"></path><path d="M376.07,344.13a7.18,7.18,0,0,0,2,0,6.77,6.77,0,0,0,1.94-.54,6.76,6.76,0,0,0-2,0A6.84,6.84,0,0,0,376.07,344.13Z" style="fill:#fff"></path><path d="M324.51,294.38a6.7,6.7,0,0,1-1.73.5,2.65,2.65,0,0,1,.32-.54A5.58,5.58,0,0,1,324.51,294.38Z" style="fill:#fff"></path><path d="M357.85,315.69a7.39,7.39,0,0,0-1.41,1.44,7.2,7.2,0,0,0-1,1.76,7.71,7.71,0,0,0,2.4-3.2Z" style="fill:#fff"></path><path d="M374.34,332.43a7.17,7.17,0,0,0-1.41,1.45,7.33,7.33,0,0,0-1,1.75,7.12,7.12,0,0,0,1.41-1.44A7.2,7.2,0,0,0,374.34,332.43Z" style="fill:#fff"></path><path d="M383.71,310.24a7.12,7.12,0,0,0-1.41,1.44,7.2,7.2,0,0,0-1,1.76,7.17,7.17,0,0,0,1.41-1.45A7.33,7.33,0,0,0,383.71,310.24Z" style="fill:#fff"></path><path d="M347.44,330.34a7.44,7.44,0,0,0-1.41,1.45,7.33,7.33,0,0,0-1,1.75,7.12,7.12,0,0,0,1.41-1.44A6.89,6.89,0,0,0,347.44,330.34Z" style="fill:#fff"></path><path d="M335,302.18a7.12,7.12,0,0,0-1.41,1.44,6.89,6.89,0,0,0-1,1.76,7.71,7.71,0,0,0,2.4-3.2Z" style="fill:#fff"></path><path d="M334.23,316a7.16,7.16,0,0,0-1.45-1.41,7,7,0,0,0-1.75-1,6.63,6.63,0,0,0,1.44,1.41A6.92,6.92,0,0,0,334.23,316Z" style="fill:#fff"></path><path d="M392.5,322.54a7.39,7.39,0,0,0-1.44-1.41,7.2,7.2,0,0,0-1.76-1,7.39,7.39,0,0,0,1.44,1.41A7.2,7.2,0,0,0,392.5,322.54Z" style="fill:#fff"></path><path d="M374.57,317.15a7.39,7.39,0,0,0-1.44-1.41,6.89,6.89,0,0,0-1.76-1,7.71,7.71,0,0,0,3.2,2.4Z" style="fill:#fff"></path><path d="M354.82,328.21a6.86,6.86,0,0,0-1.44-1.41,6.6,6.6,0,0,0-1.76-1,7.44,7.44,0,0,0,1.45,1.41A7.33,7.33,0,0,0,354.82,328.21Z" style="fill:#fff"></path><path d="M366.7,344.7a7.12,7.12,0,0,0-1.44-1.41,7.2,7.2,0,0,0-1.76-1,7.17,7.17,0,0,0,1.45,1.41A7.33,7.33,0,0,0,366.7,344.7Z" style="fill:#fff"></path><path d="M358.57,347.06c-9-5.7-25.66-26.69-32.62-38.62-5.22-9-5.15-17.35,2.14-15.05C332.14,300.44,349.82,331.28,358.57,347.06Z" style="fill:#263238"></path><path d="M397,317.15c-1-.49-10.46-3.59-12.53-4.22s-10.49-3.27-12.68-3.74a.07.07,0,1,0-.05.14c2.06.87,10.55,3.57,12.65,4.25s11.51,3.54,12.58,3.71C397.08,317.3,397.09,317.18,397,317.15Z" style="fill:#263238"></path><path d="M349.05,366.83c-.95,1-62.12,3-62.43,2.62-.85-1,6.68-39.94,12.94-54.84,8-19.1,12.6-20.86,15.34-22,3.49-1.48,9.88-1.2,11.43-.57,1.76.7,9.44,9.15,11.78,16C342.81,321.82,349.88,365.92,349.05,366.83Z" style="fill:#FFC727"></path><path d="M322.11,303.54a7.88,7.88,0,0,0,.57,4,7.11,7.11,0,0,0,0-2A6.84,6.84,0,0,0,322.11,303.54Z" style="fill:#fff"></path><path d="M322.63,332.74a7.77,7.77,0,0,0,.56,4,7.18,7.18,0,0,0,0-2A7.48,7.48,0,0,0,322.63,332.74Z" style="fill:#fff"></path><path d="M287.85,363.28a7.94,7.94,0,0,0,.57,4,7.18,7.18,0,0,0,0-2A6.93,6.93,0,0,0,287.85,363.28Z" style="fill:#fff"></path><path d="M312.91,364.49a7.11,7.11,0,0,0,0,2,7.2,7.2,0,0,0,.55,1.95,7.18,7.18,0,0,0,0-2A6.77,6.77,0,0,0,312.91,364.49Z" style="fill:#fff"></path><path d="M333.54,351a7.18,7.18,0,0,0,0,2,6.77,6.77,0,0,0,.54,1.94,7.11,7.11,0,0,0,0-2A7.2,7.2,0,0,0,333.54,351Z" style="fill:#fff"></path><path d="M304.12,321a7.18,7.18,0,0,0,0,2,6.77,6.77,0,0,0,.54,1.94,6.76,6.76,0,0,0,0-2A6.84,6.84,0,0,0,304.12,321Z" style="fill:#fff"></path><path d="M301.16,346.72a7.18,7.18,0,0,0,0,2,7.48,7.48,0,0,0,.54,1.94,7.73,7.73,0,0,0-.56-4Z" style="fill:#fff"></path><path d="M337.91,326.34a7.18,7.18,0,0,0,0,2,7.48,7.48,0,0,0,.54,1.94,6.76,6.76,0,0,0,0-2A6.84,6.84,0,0,0,337.91,326.34Z" style="fill:#fff"></path><path d="M316.19,315.89a7.11,7.11,0,0,0,2,0,6.84,6.84,0,0,0,1.95-.54,7.6,7.6,0,0,0-4,.57Z" style="fill:#fff"></path><path d="M301.44,335.15a7.88,7.88,0,0,0,4-.57,7.11,7.11,0,0,0-2,0A6.84,6.84,0,0,0,301.44,335.15Z" style="fill:#fff"></path><path d="M324.79,346.07a7.18,7.18,0,0,0,2,0,7.11,7.11,0,0,0,1.94-.54,7.19,7.19,0,0,0-2,0A7.48,7.48,0,0,0,324.79,346.07Z" style="fill:#fff"></path><path d="M307.46,358.45a7.18,7.18,0,0,0,2,0,7.48,7.48,0,0,0,1.94-.54,7.19,7.19,0,0,0-2,0A7.59,7.59,0,0,0,307.46,358.45Z" style="fill:#fff"></path><path d="M341.63,358.11a7.18,7.18,0,0,0,2,0,6.77,6.77,0,0,0,1.94-.54,6.76,6.76,0,0,0-2,0A6.84,6.84,0,0,0,341.63,358.11Z" style="fill:#fff"></path><path d="M320.55,294.94a7.12,7.12,0,0,0,2,0,7.55,7.55,0,0,0,1.95-.54,7.18,7.18,0,0,0-2,0A7.11,7.11,0,0,0,320.55,294.94Z" style="fill:#fff"></path><path d="M314.4,300.09a7,7,0,0,0-1.42,1.45,7.14,7.14,0,0,0-1,1.75,6.86,6.86,0,0,0,1.41-1.44A7.23,7.23,0,0,0,314.4,300.09Z" style="fill:#fff"></path><path d="M328.66,321.92a7.85,7.85,0,0,0-2.41,3.2,6.67,6.67,0,0,0,1.41-1.45A7,7,0,0,0,328.66,321.92Z" style="fill:#fff"></path><path d="M342.83,343.84a7.44,7.44,0,0,0-1.41,1.45,7.2,7.2,0,0,0-1,1.76,7.16,7.16,0,0,0,1.41-1.45A6.89,6.89,0,0,0,342.83,343.84Z" style="fill:#fff"></path><path d="M327.07,360.51a7.11,7.11,0,0,0-1.41,1.44,6.92,6.92,0,0,0-1,1.76,6.63,6.63,0,0,0,1.41-1.44A6.92,6.92,0,0,0,327.07,360.51Z" style="fill:#fff"></path><path d="M294.44,355.31a6.9,6.9,0,0,0-1.41,1.45,7,7,0,0,0-1,1.75,6.63,6.63,0,0,0,1.41-1.44A6.92,6.92,0,0,0,294.44,355.31Z" style="fill:#fff"></path><path d="M313.19,339.84a7.39,7.39,0,0,0-1.41,1.44,7.2,7.2,0,0,0-1,1.76,7.39,7.39,0,0,0,1.41-1.44A7.06,7.06,0,0,0,313.19,339.84Z" style="fill:#fff"></path><path d="M335,302.18a7.12,7.12,0,0,0-1.41,1.44,6.89,6.89,0,0,0-1,1.76,7.71,7.71,0,0,0,2.4-3.2Z" style="fill:#fff"></path><path d="M334.23,316a7.16,7.16,0,0,0-1.45-1.41,7,7,0,0,0-1.75-1,6.63,6.63,0,0,0,1.44,1.41A6.92,6.92,0,0,0,334.23,316Z" style="fill:#fff"></path><path d="M294.06,339.66a6.87,6.87,0,0,1-1.68-.94l.12-.55.11.08A7.17,7.17,0,0,1,294.06,339.66Z" style="fill:#fff"></path><path d="M336.28,339.19a7.12,7.12,0,0,0-1.44-1.41,7.2,7.2,0,0,0-1.76-1,7.17,7.17,0,0,0,1.45,1.41A7.33,7.33,0,0,0,336.28,339.19Z" style="fill:#fff"></path><path d="M338.62,367.67a7.44,7.44,0,0,0-1.45-1.41,6.89,6.89,0,0,0-1.76-1,7.44,7.44,0,0,0,1.45,1.41A7.2,7.2,0,0,0,338.62,367.67Z" style="fill:#fff"></path><path d="M307.46,311.44A7.11,7.11,0,0,0,306,310a6.92,6.92,0,0,0-1.76-1,6.86,6.86,0,0,0,1.44,1.41A7.1,7.1,0,0,0,307.46,311.44Z" style="fill:#fff"></path><path d="M319.77,353a7.17,7.17,0,0,0-1.45-1.41,7.33,7.33,0,0,0-1.75-1A7.12,7.12,0,0,0,318,352,7.2,7.2,0,0,0,319.77,353Z" style="fill:#fff"></path><path d="M301.9,366.47a7.11,7.11,0,0,0-1.44-1.41,6.92,6.92,0,0,0-1.76-1,6.86,6.86,0,0,0,1.44,1.41A7.1,7.1,0,0,0,301.9,366.47Z" style="fill:#fff"></path><path d="M316.11,327.43a7.39,7.39,0,0,0-1.44-1.41,6.89,6.89,0,0,0-1.76-1,7.39,7.39,0,0,0,1.44,1.41A7.2,7.2,0,0,0,316.11,327.43Z" style="fill:#fff"></path><path d="M304.81,297.84c-26.19,20.08-48.74,47.81-46.47,56.5,2.4,9.18,20.74,19.32,36.86,21.27,3.3.4,13.28-23.88,9.89-25-2.64-.84-14.64-4.13-16.09-5.76-1-1.13,17.32-27.44,23.23-41.14C318.42,289.42,311.82,292.47,304.81,297.84Z" style="fill:#eb9481"></path><path d="M298.28,350s10.08.91,16.64,1.82c3.66.51,9.86,1.94,12.38,3.54,3.76,2.4,18,14.84,15.05,18.35-2.66,3.18-6.77-1.78-6.77-1.78s5,5,1.39,7.34-8.37-4.61-8.37-4.61,5.68,4.93,1.59,7.07c-3.56,1.85-9.87-5.59-9.87-5.59s6.53,4.52,3.07,6.78c-3.81,2.49-14.68-7.48-14.68-7.48-8.61,1-13.92.51-20-1.14C287.59,374,298.28,350,298.28,350Z" style="fill:#eb9481"></path><path d="M330.13,376.31c-.39-.53-.8-1.05-1.2-1.58a29.31,29.31,0,0,0-2.44-3c-.86-.92-1.76-1.79-2.7-2.63s-2.06-1.69-3-2.61a.07.07,0,1,0-.1.11,33.3,33.3,0,0,1,2.72,2.85c.87.95,1.72,1.91,2.58,2.87s1.73,1.81,2.59,2.73c.43.45.84.93,1.25,1.4a10.76,10.76,0,0,0,1.19,1.33c.05,0,.1,0,.08-.07A8.22,8.22,0,0,0,330.13,376.31Z" style="fill:#263238"></path><path d="M336.6,373a51.72,51.72,0,0,0-4.4-5.66,36.35,36.35,0,0,0-5.36-4.79.07.07,0,0,0-.1.11c1.62,1.77,3.27,3.52,4.91,5.28.8.85,4.33,4.86,4.76,5.23C336.51,373.23,336.65,373.08,336.6,373Z" style="fill:#263238"></path><path d="M324.13,379.6a51.18,51.18,0,0,0-4.23-5.25,47.59,47.59,0,0,0-5.45-4.24c-.07,0-.16.06-.1.11,1.7,1.55,3.43,3.06,5,4.68.8.8,3.77,4.14,4.59,4.83A.1.1,0,0,0,324.13,379.6Z" style="fill:#263238"></path><path d="M306.19,349.64l-14.1,26.95s-31.77-8.39-34.51-22.78,33.66-47.47,44.89-55.29,18.08-8.87,9.22,8.94-22.57,36.13-21.45,37.05C291.19,345.28,306.19,349.64,306.19,349.64Z" style="fill:#FFC727"></path><path d="M283.83,330a7.18,7.18,0,0,0,0,2,6.93,6.93,0,0,0,.54,1.95,7.18,7.18,0,0,0,0-2A7.66,7.66,0,0,0,283.83,330Z" style="fill:#fff"></path><path d="M287.85,363.28a7.94,7.94,0,0,0,.57,4,7.18,7.18,0,0,0,0-2A6.93,6.93,0,0,0,287.85,363.28Z" style="fill:#fff"></path><path d="M271.45,347.06a7.18,7.18,0,0,0,0,2A6.84,6.84,0,0,0,272,351a6.82,6.82,0,0,0,0-2A6.93,6.93,0,0,0,271.45,347.06Z" style="fill:#fff"></path><path d="M304.16,321.11l-.06.1a1.36,1.36,0,0,1,0-.2A.42.42,0,0,1,304.16,321.11Z" style="fill:#fff"></path><path d="M296.54,303.4a7.88,7.88,0,0,0,.57,4,7.18,7.18,0,0,0,0-2A6.77,6.77,0,0,0,296.54,303.4Z" style="fill:#fff"></path><path d="M301.72,350.68a7.48,7.48,0,0,1-.54-1.94q0-.3-.06-.6l.51.15c0,.12.05.25.07.37A7.19,7.19,0,0,1,301.72,350.68Z" style="fill:#fff"></path><path d="M303.7,297.76a7.11,7.11,0,0,0,2,0,7.55,7.55,0,0,0,2-.54,7.73,7.73,0,0,0-4,.56Z" style="fill:#fff"></path><path d="M270.63,331.88a7.19,7.19,0,0,0,2,0,6.77,6.77,0,0,0,1.94-.54,7.18,7.18,0,0,0-2,0A7.48,7.48,0,0,0,270.63,331.88Z" style="fill:#fff"></path><path d="M284.61,349a7.11,7.11,0,0,0,2,0,6.84,6.84,0,0,0,1.95-.54,7.18,7.18,0,0,0-2,0A7.48,7.48,0,0,0,284.61,349Z" style="fill:#fff"></path><path d="M276.31,368.68a7.11,7.11,0,0,0,2,0,6.84,6.84,0,0,0,1.95-.54,7.88,7.88,0,0,0-4,.57Z" style="fill:#fff"></path><path d="M261.14,355a7.18,7.18,0,0,0,2,0,6.77,6.77,0,0,0,1.94-.54,7.88,7.88,0,0,0-4,.57Z" style="fill:#fff"></path><path d="M290.48,314.57a7.11,7.11,0,0,0,2,0,6.84,6.84,0,0,0,1.95-.54,7.88,7.88,0,0,0-4,.57Z" style="fill:#fff"></path><path d="M314.4,300.09a7,7,0,0,0-1.42,1.45,7.14,7.14,0,0,0-1,1.75,6.86,6.86,0,0,0,1.41-1.44A7.23,7.23,0,0,0,314.4,300.09Z" style="fill:#fff"></path><path d="M294.44,323.37a6.9,6.9,0,0,0-1.41,1.45,7,7,0,0,0-1,1.75,6.63,6.63,0,0,0,1.41-1.44A6.92,6.92,0,0,0,294.44,323.37Z" style="fill:#fff"></path><path d="M294.44,355.31a6.9,6.9,0,0,0-1.41,1.45,7,7,0,0,0-1,1.75,6.63,6.63,0,0,0,1.41-1.44A6.92,6.92,0,0,0,294.44,355.31Z" style="fill:#fff"></path><path d="M273.63,359.62a7.85,7.85,0,0,0-2.41,3.2,6.67,6.67,0,0,0,1.41-1.45A7,7,0,0,0,273.63,359.62Z" style="fill:#fff"></path><path d="M278.71,339.19a7.39,7.39,0,0,0-1.41,1.44,7.06,7.06,0,0,0-1,1.76,7.12,7.12,0,0,0,1.41-1.44A7.2,7.2,0,0,0,278.71,339.19Z" style="fill:#fff"></path><path d="M293.23,372.12a7.88,7.88,0,0,0-2.4,3.2,7.71,7.71,0,0,0,2.4-3.2Z" style="fill:#fff"></path><path d="M293.17,338.71h0l-.23.38c-.22-.13-.43-.28-.64-.43a7.12,7.12,0,0,1-1.44-1.41,7.33,7.33,0,0,1,1.75,1C292.8,338.4,293,338.55,293.17,338.71Z" style="fill:#fff"></path><path d="M265.68,343.59a7.39,7.39,0,0,0-1.44-1.41,7.2,7.2,0,0,0-1.76-1,7.12,7.12,0,0,0,1.44,1.41A7.2,7.2,0,0,0,265.68,343.59Z" style="fill:#fff"></path><path d="M283,358.68a7.12,7.12,0,0,0-1.44-1.41,7.2,7.2,0,0,0-1.76-1,7.17,7.17,0,0,0,1.45,1.41A7.33,7.33,0,0,0,283,358.68Z" style="fill:#fff"></path><path d="M307.46,311.44A7.11,7.11,0,0,0,306,310a6.92,6.92,0,0,0-1.76-1,6.86,6.86,0,0,0,1.44,1.41A7.1,7.1,0,0,0,307.46,311.44Z" style="fill:#fff"></path><path d="M283.73,322.54a7.88,7.88,0,0,0-3.2-2.4,7.12,7.12,0,0,0,1.44,1.41A7.2,7.2,0,0,0,283.73,322.54Z" style="fill:#fff"></path><path d="M287.59,372.85c.67-.89,5.54-9.56,6.56-11.47s5.26-9.66,6.14-11.71a.08.08,0,0,0-.13-.08c-1.25,1.85-5.55,9.66-6.63,11.58s-5.7,10.6-6.08,11.62C287.42,372.88,287.54,372.91,287.59,372.85Z" style="fill:#263238"></path><path d="M306.36,349.55l-.66,1.1s-.09.12,0,0,.45-.94.45-.94c-4.3-1-8.58-2.07-12.81-3.38-.53-.17-1.06-.34-1.59-.54a7.58,7.58,0,0,1-1.62-.77,1,1,0,0,1-.12-.11.92.92,0,0,1-.15-.25,1,1,0,0,1,0-.47c.05-.14.11-.3.17-.43s.24-.52.36-.77c.25-.5.52-1,.78-1.48,1.06-2,2.16-3.88,3.29-5.79,2.29-3.8,4.57-7.6,6.94-11.33,2.24-3.54,4.57-7.54,6.92-11,.14-.21.5-.4.07.36-2.16,3.87-4.11,7.21-6.34,11l-6.74,11.44c-1.12,1.91-2.26,3.8-3.33,5.73-.27.48-.54,1-.79,1.45-.13.24-.24.48-.36.72l-.1.27-.07-.05h0a.14.14,0,0,1,0,.07s0,.09,0,.06l0-.07a9.36,9.36,0,0,0,1.3.61l1.54.57c2.07.75,4.18,1.42,6.3,2.07Z" style="fill:#263238"></path><path d="M290.73,344.37l0,.07s0-.05,0-.06a.14.14,0,0,0,0-.07h0Z" style="fill:#263238"></path><path d="M307.73,318.4c.3-.23.27,0,.13.13-.77,1-1.95,2.05-2.81,2.93a33.22,33.22,0,0,1-3.22,2.93,34.55,34.55,0,0,1,2.87-3.28A29,29,0,0,1,307.73,318.4Z" style="fill:#263238"></path><path d="M325,302.64c-3.44,1-9.64-4-12.19-8.23-.18-.29.13-3.42.32-7.24.11-2.31.18-4.9.07-7.26,0-.48,15,2.91,15,2.91a37.52,37.52,0,0,0-1,9.14,5.69,5.69,0,0,0,.14,1s0,.1,0,.16C327.74,294.91,328.32,301.69,325,302.64Z" style="fill:#eb9481"></path><path d="M314.12,279.93c.87,4,3.81,13.49,11.72,13.3a8.67,8.67,0,0,0,1.51-.15.65.65,0,0,0,0-.16,7.13,7.13,0,0,1-.15-1,37.84,37.84,0,0,1,1-9.14S317.36,280.37,314.12,279.93Z" style="fill:#263238"></path><path d="M331.67,256.29s4.82,2,5.71,6.88-.22,10-.64,10.27S331.67,256.29,331.67,256.29Z" style="fill:#263238"></path><path d="M311.4,262.47c-1.4,5.31,2,20.38,5.81,23.62,5.61,4.7,14.49,4.83,18.41-1.84,3.8-6.46-.91-26-5.2-28.94C324.1,251,313.47,254.62,311.4,262.47Z" style="fill:#eb9481"></path><path d="M316.83,286h0" style="fill:none;stroke:#f5a79e;stroke-linecap:round;stroke-linejoin:round;stroke-width:0px"></path><path d="M326.83,272.39s-.07.07-.06.11c.26,1,.38,2.21-.47,2.74,0,0,0,.07,0,.06C327.41,274.9,327.23,273.31,326.83,272.39Z" style="fill:#263238"></path><path d="M325.69,271.53c-1.66.23-1.07,3.54.47,3.32S327.09,271.34,325.69,271.53Z" style="fill:#263238"></path><path d="M332.57,271.41s.09,0,.09.08c.15,1,.5,2.18,1.48,2.36,0,0,0,.06,0,.06C333,274,332.54,272.41,332.57,271.41Z" style="fill:#263238"></path><path d="M333.29,270.18c1.63-.42,2.34,2.86.84,3.25S331.93,270.53,333.29,270.18Z" style="fill:#263238"></path><path d="M323.71,269.18a11.74,11.74,0,0,0,1.3-.45,2.21,2.21,0,0,0,1.24-.72.73.73,0,0,0-.11-.86,1.75,1.75,0,0,0-1.78-.18,2.57,2.57,0,0,0-1.49,1.11A.76.76,0,0,0,323.71,269.18Z" style="fill:#263238"></path><path d="M334.38,267.5a12.64,12.64,0,0,1-1.37-.11,2.22,2.22,0,0,1-1.38-.38.71.71,0,0,1-.11-.86,1.76,1.76,0,0,1,1.67-.63,2.65,2.65,0,0,1,1.73.7A.76.76,0,0,1,334.38,267.5Z" style="fill:#263238"></path><path d="M326.8,282.21a1.59,1.59,0,0,0,1,.45,3,3,0,0,0,1.06-.45s.07,0,.05,0a1.4,1.4,0,0,1-1.2.79,1.11,1.11,0,0,1-1-.77S326.76,282.18,326.8,282.21Z" style="fill:#263238"></path><path d="M327.34,279a3.51,3.51,0,0,0,2.6,1.14,4.49,4.49,0,0,0,1.26-.16l.24-.07.22-.07a.27.27,0,0,0,.16-.27h0a.54.54,0,0,0,0-.1h0l0-.09c-.11-.79-.4-2-.4-2,.31.1,1.9.5,1.8.09A53.31,53.31,0,0,0,330,267.11a.1.1,0,0,0-.18.06c.65,3.27,1.86,6.41,2.57,9.69a6.12,6.12,0,0,0-1.74-.21c-.1.05.6,2.28.62,2.64,0,0,0,0,0,0a4.88,4.88,0,0,1-3.8-.49C327.33,278.8,327.26,278.88,327.34,279Z" style="fill:#263238"></path><path d="M330.67,279.61a4.18,4.18,0,0,1-1.43,1.58,1.93,1.93,0,0,1-1.12.27c-.85-.07-1-.82-1-1.49a4.75,4.75,0,0,1,.19-1.05A5.43,5.43,0,0,0,330.67,279.61Z" style="fill:#263238"></path><path d="M329.24,281.19a1.93,1.93,0,0,1-1.12.27c-.85-.07-1-.82-1-1.49A2,2,0,0,1,329.24,281.19Z" style="fill:#ff98b9"></path><path d="M313.38,276.76c1.78.24,2.88-5.17,3.1-7.21.2-1.8-.15-7.36-.13-7.74s8.17,3.6,12.22,1.65,6.26-6.25,6-8-6.28-5.44-10.9-4.91-9.83,7.37-9.83,7.37a22.34,22.34,0,0,0,1.58-3c-.11-.2-2.87,1.48-3.06,3.67,0,0,.14-2.74-.09-2.75s-2.15,2.64-1.35,4.26c0,0-2.27,2.75-2.09,5.31S311.3,276.48,313.38,276.76Z" style="fill:#263238"></path><path d="M331.44,262.06a13.92,13.92,0,0,1-3.78,2.11,9.51,9.51,0,0,1-4.71,0,14.34,14.34,0,0,1-4.42-1.71c-1.22-.7-2.34-1.6-3.6-2.19-.32-.15-.58.32-.36.55a15.51,15.51,0,0,0,8.67,4.4,8.91,8.91,0,0,0,8.23-3.15S331.46,262.05,331.44,262.06Z" style="fill:#263238"></path><path d="M315.11,274.71s-3.71-4.7-5.86-3.35.84,8.31,3.5,9.13a2.67,2.67,0,0,0,3.48-1.64Z" style="fill:#eb9481"></path><path d="M310.15,273.33s0,.06,0,.07c1.88.64,2.94,2.28,3.72,4a1.47,1.47,0,0,0-2.22-.27s0,.11.06.09a1.64,1.64,0,0,1,1.83.47,7.79,7.79,0,0,1,.94,1.4c.1.16.39.06.32-.13l0,0C314.68,276.58,312.67,273.42,310.15,273.33Z" style="fill:#263238"></path><path d="M311,295.52a69,69,0,0,0,5.24,5.7,11.33,11.33,0,0,0,6.34,3.32c2.35.21,4.7-.27,5.56-3.14a17.32,17.32,0,0,0,.17-7.54.09.09,0,1,1,.17,0c.54,3.75,1.1,9.57-2.31,10.87-3.82,1.46-7.57-.51-10.26-3.15a35.38,35.38,0,0,1-5-6C310.94,295.53,311,295.48,311,295.52Z" style="fill:#263238"></path></g></svg>