<?xml version="1.0" encoding="UTF-8" standalone="no"?>
<svg
   viewBox="58 56 426.29999 347.67999"
   version="1.1"
   id="svg556"
   sodipodi:docname="error.svg"
   inkscape:version="1.2.2 (1:1.2.2+202305151915+b0a8486541)"
   width="426.29999"
   height="347.67999"
   xmlns:inkscape="http://www.inkscape.org/namespaces/inkscape"
   xmlns:sodipodi="http://sodipodi.sourceforge.net/DTD/sodipodi-0.dtd"
   xmlns="http://www.w3.org/2000/svg"
   xmlns:svg="http://www.w3.org/2000/svg">
  <defs
     id="defs560" />
  <sodipodi:namedview
     id="namedview558"
     pagecolor="#ffffff"
     bordercolor="#666666"
     borderopacity="1.0"
     inkscape:showpageshadow="2"
     inkscape:pageopacity="0.0"
     inkscape:pagecheckerboard="0"
     inkscape:deskcolor="#d1d1d1"
     showgrid="false"
     inkscape:zoom="2.054"
     inkscape:cx="167.23466"
     inkscape:cy="192.79455"
     inkscape:window-width="3440"
     inkscape:window-height="1391"
     inkscape:window-x="0"
     inkscape:window-y="0"
     inkscape:window-maximized="1"
     inkscape:current-layer="svg556" />
  <g
     id="freepik--Shadow--inject-59"
     transform="translate(21.15,-56.72)">
    <ellipse
       cx="183.78999"
       cy="443.41"
       rx="106.41"
       ry="16.99"
       style="fill:#ebebeb"
       id="ellipse2" />
  </g>
  <g
     id="freepik--Server--inject-59"
     transform="translate(21.15,-56.72)">
    <rect
       x="267.37"
       y="176.42"
       width="65.019997"
       height="245.17"
       style="fill:#37474f"
       id="rect5" />
    <rect
       x="332.39001"
       y="176.42"
       width="119.66"
       height="245.17"
       style="fill:#455a64"
       id="rect7" />
    <rect
       x="341.37"
       y="389.79001"
       width="103.21"
       height="23.84"
       style="fill:#37474f"
       id="rect9" />
    <rect
       x="345.70999"
       y="393.73001"
       width="58.75"
       height="2.01"
       style="fill:#455a64"
       id="rect11" />
    <rect
       x="345.70999"
       y="397.22"
       width="58.75"
       height="2.01"
       style="fill:#455a64"
       id="rect13" />
    <rect
       x="345.70999"
       y="400.70999"
       width="58.75"
       height="2.01"
       style="fill:#455a64"
       id="rect15" />
    <rect
       x="345.70999"
       y="404.19"
       width="58.75"
       height="2.01"
       style="fill:#455a64"
       id="rect17" />
    <rect
       x="345.70999"
       y="407.67999"
       width="58.75"
       height="2.01"
       style="fill:#455a64"
       id="rect19" />
    <path
       d="m 415.17,395.73 a 2,2 0 1 1 -2,-2 2,2 0 0 1 2,2 z"
       style="fill:#ffc727"
       id="path21" />
    <path
       d="m 421.75,395.73 a 2,2 0 1 1 -2,-2 2,2 0 0 1 2,2 z"
       style="fill:#ffc727"
       id="path23" />
    <path
       d="m 428.33,395.73 a 2,2 0 1 1 -2,-2 2,2 0 0 1 2,2 z"
       style="fill:#ffc727"
       id="path25" />
    <path
       d="m 434.9,395.73 a 2,2 0 1 1 -2,-2 2,2 0 0 1 2,2 z"
       style="fill:#ffc727"
       id="path27" />
    <path
       d="m 441.48,395.73 a 2,2 0 1 1 -2,-2 2,2 0 0 1 2,2 z"
       style="fill:#ffc727"
       id="path29" />
    <path
       d="m 415.17,401.71 a 2,2 0 1 1 -2,-2 2,2 0 0 1 2,2 z"
       style="fill:#ffc727"
       id="path31" />
    <path
       d="m 421.75,401.71 a 2,2 0 1 1 -2,-2 2,2 0 0 1 2,2 z"
       style="fill:#ffc727"
       id="path33" />
    <path
       d="m 428.33,401.71 a 2,2 0 1 1 -2,-2 2,2 0 0 1 2,2 z"
       style="fill:#ffc727"
       id="path35" />
    <path
       d="m 434.9,401.71 a 2,2 0 1 1 -2,-2 2,2 0 0 1 2,2 z"
       style="fill:#ffc727"
       id="path37" />
    <path
       d="m 441.48,401.71 a 2,2 0 1 1 -2,-2 2,2 0 0 1 2,2 z"
       style="fill:#ffc727"
       id="path39" />
    <circle
       cx="413.17999"
       cy="407.70001"
       r="2"
       style="fill:#ffc727"
       id="circle41" />
    <path
       d="m 421.75,407.7 a 2,2 0 1 1 -2,-2 2,2 0 0 1 2,2 z"
       style="fill:#ffc727"
       id="path43" />
    <circle
       cx="426.32999"
       cy="407.70001"
       r="2"
       style="fill:#ffc727"
       id="circle45" />
    <path
       d="m 434.9,407.7 a 2,2 0 1 1 -2,-2 2,2 0 0 1 2,2 z"
       style="fill:#ffc727"
       id="path47" />
    <path
       d="m 441.48,407.7 a 2,2 0 1 1 -2,-2 2,2 0 0 1 2,2 z"
       style="fill:#ffc727"
       id="path49" />
    <rect
       x="407.39999"
       y="393.73001"
       width="1.15"
       height="15.96"
       style="fill:#263238"
       id="rect51" />
    <rect
       x="341.37"
       y="361.07001"
       width="103.21"
       height="23.84"
       style="fill:#37474f"
       id="rect53" />
    <rect
       x="345.70999"
       y="365"
       width="58.75"
       height="2.01"
       style="fill:#455a64"
       id="rect55" />
    <rect
       x="345.70999"
       y="368.48999"
       width="58.75"
       height="2.01"
       style="fill:#455a64"
       id="rect57" />
    <rect
       x="345.70999"
       y="371.98001"
       width="58.75"
       height="2.01"
       style="fill:#455a64"
       id="rect59" />
    <rect
       x="345.70999"
       y="375.47"
       width="58.75"
       height="2.01"
       style="fill:#455a64"
       id="rect61" />
    <rect
       x="345.70999"
       y="378.95001"
       width="58.75"
       height="2.01"
       style="fill:#455a64"
       id="rect63" />
    <path
       d="m 415.17,367 a 2,2 0 1 1 -2,-2 2,2 0 0 1 2,2 z"
       style="fill:#ffc727"
       id="path65" />
    <path
       d="m 421.75,367 a 2,2 0 1 1 -2,-2 2,2 0 0 1 2,2 z"
       style="fill:#ffc727"
       id="path67" />
    <path
       d="m 428.33,367 a 2,2 0 1 1 -2,-2 2,2 0 0 1 2,2 z"
       style="fill:#ffc727"
       id="path69" />
    <path
       d="m 434.9,367 a 2,2 0 1 1 -2,-2 2,2 0 0 1 2,2 z"
       style="fill:#ffc727"
       id="path71" />
    <path
       d="m 441.48,367 a 2,2 0 1 1 -2,-2 2,2 0 0 1 2,2 z"
       style="fill:#ffc727"
       id="path73" />
    <path
       d="m 415.17,373 a 2,2 0 1 1 -2,-2 2,2 0 0 1 2,2 z"
       style="fill:#ffc727"
       id="path75" />
    <path
       d="m 421.75,373 a 2,2 0 1 1 -2,-2 2,2 0 0 1 2,2 z"
       style="fill:#ffc727"
       id="path77" />
    <path
       d="m 428.33,373 a 2,2 0 1 1 -2,-2 2,2 0 0 1 2,2 z"
       style="fill:#ffc727"
       id="path79" />
    <path
       d="m 434.9,373 a 2,2 0 1 1 -2,-2 2,2 0 0 1 2,2 z"
       style="fill:#ffc727"
       id="path81" />
    <path
       d="m 441.48,373 a 2,2 0 1 1 -2,-2 2,2 0 0 1 2,2 z"
       style="fill:#ffc727"
       id="path83" />
    <path
       d="m 415.17,379 a 2,2 0 1 1 -2,-2 2,2 0 0 1 2,2 z"
       style="fill:#ffc727"
       id="path85" />
    <path
       d="m 421.75,379 a 2,2 0 1 1 -2,-2 2,2 0 0 1 2,2 z"
       style="fill:#ffc727"
       id="path87" />
    <path
       d="m 428.33,379 a 2,2 0 1 1 -2,-2 2,2 0 0 1 2,2 z"
       style="fill:#ffc727"
       id="path89" />
    <path
       d="m 434.9,379 a 2,2 0 1 1 -2,-2 2,2 0 0 1 2,2 z"
       style="fill:#ffc727"
       id="path91" />
    <path
       d="m 441.48,379 a 2,2 0 1 1 -2,-2 2,2 0 0 1 2,2 z"
       style="fill:#ffc727"
       id="path93" />
    <rect
       x="407.39999"
       y="365"
       width="1.15"
       height="15.96"
       style="fill:#263238"
       id="rect95" />
    <rect
       x="341.37"
       y="332.34"
       width="103.21"
       height="23.84"
       style="fill:#37474f"
       id="rect97" />
    <rect
       x="345.70999"
       y="336.28"
       width="58.75"
       height="2.01"
       style="fill:#455a64"
       id="rect99" />
    <rect
       x="345.70999"
       y="339.76001"
       width="58.75"
       height="2.01"
       style="fill:#455a64"
       id="rect101" />
    <rect
       x="345.70999"
       y="343.25"
       width="58.75"
       height="2.01"
       style="fill:#455a64"
       id="rect103" />
    <rect
       x="345.70999"
       y="346.73999"
       width="58.75"
       height="2.01"
       style="fill:#455a64"
       id="rect105" />
    <rect
       x="345.70999"
       y="350.23001"
       width="58.75"
       height="2.01"
       style="fill:#455a64"
       id="rect107" />
    <circle
       cx="413.17999"
       cy="338.26999"
       r="2"
       style="fill:#ffc727"
       id="circle109" />
    <path
       d="m 421.75,338.27 a 2,2 0 1 1 -2,-2 2,2 0 0 1 2,2 z"
       style="fill:#ffc727"
       id="path111" />
    <circle
       cx="426.32999"
       cy="338.26999"
       r="2"
       style="fill:#ffc727"
       id="circle113" />
    <path
       d="m 434.9,338.27 a 2,2 0 1 1 -2,-2 2,2 0 0 1 2,2 z"
       style="fill:#ffc727"
       id="path115" />
    <path
       d="m 441.48,338.27 a 2,2 0 1 1 -2,-2 2,2 0 0 1 2,2 z"
       style="fill:#ffc727"
       id="path117" />
    <path
       d="m 415.17,344.26 a 2,2 0 1 1 -2,-2 2,2 0 0 1 2,2 z"
       style="fill:#ffc727"
       id="path119" />
    <path
       d="m 421.75,344.26 a 2,2 0 1 1 -2,-2 2,2 0 0 1 2,2 z"
       style="fill:#ffc727"
       id="path121" />
    <path
       d="m 428.33,344.26 a 2,2 0 1 1 -2,-2 2,2 0 0 1 2,2 z"
       style="fill:#ffc727"
       id="path123" />
    <path
       d="m 434.9,344.26 a 2,2 0 1 1 -2,-2 2,2 0 0 1 2,2 z"
       style="fill:#ffc727"
       id="path125" />
    <path
       d="m 441.48,344.26 a 2,2 0 1 1 -2,-2 2,2 0 0 1 2,2 z"
       style="fill:#ffc727"
       id="path127" />
    <path
       d="m 415.17,350.24 a 2,2 0 1 1 -2,-2 2,2 0 0 1 2,2 z"
       style="fill:#ffc727"
       id="path129" />
    <path
       d="m 421.75,350.24 a 2,2 0 1 1 -2,-2 2,2 0 0 1 2,2 z"
       style="fill:#ffc727"
       id="path131" />
    <path
       d="m 428.33,350.24 a 2,2 0 1 1 -2,-2 2,2 0 0 1 2,2 z"
       style="fill:#ffc727"
       id="path133" />
    <path
       d="m 434.9,350.24 a 2,2 0 1 1 -2,-2 2,2 0 0 1 2,2 z"
       style="fill:#ffc727"
       id="path135" />
    <path
       d="m 441.48,350.24 a 2,2 0 1 1 -2,-2 2,2 0 0 1 2,2 z"
       style="fill:#ffc727"
       id="path137" />
    <rect
       x="407.39999"
       y="336.28"
       width="1.15"
       height="15.96"
       style="fill:#263238"
       id="rect139" />
    <rect
       x="341.37"
       y="303.60999"
       width="103.21"
       height="23.84"
       style="fill:#37474f"
       id="rect141" />
    <rect
       x="345.70999"
       y="307.54999"
       width="58.75"
       height="2.01"
       style="fill:#455a64"
       id="rect143" />
    <rect
       x="345.70999"
       y="311.03"
       width="58.75"
       height="2.01"
       style="fill:#455a64"
       id="rect145" />
    <rect
       x="345.70999"
       y="314.51999"
       width="58.75"
       height="2.01"
       style="fill:#455a64"
       id="rect147" />
    <rect
       x="345.70999"
       y="318.01001"
       width="58.75"
       height="2.01"
       style="fill:#455a64"
       id="rect149" />
    <rect
       x="345.70999"
       y="321.5"
       width="58.75"
       height="2.01"
       style="fill:#455a64"
       id="rect151" />
    <path
       d="m 415.17,309.54 a 2,2 0 1 1 -2,-2 2,2 0 0 1 2,2 z"
       style="fill:#ffc727"
       id="path153" />
    <path
       d="m 421.75,309.54 a 2,2 0 1 1 -2,-2 2,2 0 0 1 2,2 z"
       style="fill:#ffc727"
       id="path155" />
    <path
       d="m 428.33,309.54 a 2,2 0 1 1 -2,-2 2,2 0 0 1 2,2 z"
       style="fill:#ffc727"
       id="path157" />
    <path
       d="m 434.9,309.54 a 2,2 0 1 1 -2,-2 2,2 0 0 1 2,2 z"
       style="fill:#ffc727"
       id="path159" />
    <path
       d="m 441.48,309.54 a 2,2 0 1 1 -2,-2 2,2 0 0 1 2,2 z"
       style="fill:#ffc727"
       id="path161" />
    <circle
       cx="413.17999"
       cy="315.53"
       r="2"
       style="fill:#ffc727"
       id="circle163" />
    <path
       d="m 421.75,315.53 a 2,2 0 1 1 -2,-2 2,2 0 0 1 2,2 z"
       style="fill:#ffc727"
       id="path165" />
    <circle
       cx="426.32999"
       cy="315.53"
       r="2"
       style="fill:#ffc727"
       id="circle167" />
    <path
       d="m 434.9,315.53 a 2,2 0 1 1 -2,-2 2,2 0 0 1 2,2 z"
       style="fill:#ffc727"
       id="path169" />
    <path
       d="m 441.48,315.53 a 2,2 0 1 1 -2,-2 2,2 0 0 1 2,2 z"
       style="fill:#ffc727"
       id="path171" />
    <circle
       cx="413.17999"
       cy="321.51001"
       r="2"
       style="fill:#ffc727"
       id="circle173" />
    <path
       d="m 421.75,321.51 a 2,2 0 1 1 -2,-2 2,2 0 0 1 2,2 z"
       style="fill:#ffc727"
       id="path175" />
    <circle
       cx="426.32999"
       cy="321.51001"
       r="2"
       style="fill:#ffc727"
       id="circle177" />
    <path
       d="m 434.9,321.51 a 2,2 0 1 1 -2,-2 2,2 0 0 1 2,2 z"
       style="fill:#ffc727"
       id="path179" />
    <path
       d="m 441.48,321.51 a 2,2 0 1 1 -2,-2 2,2 0 0 1 2,2 z"
       style="fill:#ffc727"
       id="path181" />
    <rect
       x="407.39999"
       y="307.54999"
       width="1.15"
       height="15.96"
       style="fill:#263238"
       id="rect183" />
    <rect
       x="341.37"
       y="274.88"
       width="103.21"
       height="23.84"
       style="fill:#37474f"
       id="rect185" />
    <rect
       x="345.70999"
       y="278.82001"
       width="58.75"
       height="2.01"
       style="fill:#455a64"
       id="rect187" />
    <rect
       x="345.70999"
       y="282.31"
       width="58.75"
       height="2.01"
       style="fill:#455a64"
       id="rect189" />
    <rect
       x="345.70999"
       y="285.79001"
       width="58.75"
       height="2.01"
       style="fill:#455a64"
       id="rect191" />
    <rect
       x="345.70999"
       y="289.28"
       width="58.75"
       height="2.01"
       style="fill:#455a64"
       id="rect193" />
    <rect
       x="345.70999"
       y="292.76999"
       width="58.75"
       height="2.01"
       style="fill:#455a64"
       id="rect195" />
    <circle
       cx="413.17999"
       cy="280.82001"
       r="2"
       style="fill:#ffc727"
       id="circle197" />
    <path
       d="m 421.75,280.82 a 2,2 0 1 1 -2,-2 2,2 0 0 1 2,2 z"
       style="fill:#ffc727"
       id="path199" />
    <circle
       cx="426.32999"
       cy="280.82001"
       r="2"
       style="fill:#ffc727"
       id="circle201" />
    <path
       d="m 434.9,280.82 a 2,2 0 1 1 -2,-2 2,2 0 0 1 2,2 z"
       style="fill:#ffc727"
       id="path203" />
    <path
       d="m 441.48,280.82 a 2,2 0 1 1 -2,-2 2,2 0 0 1 2,2 z"
       style="fill:#ffc727"
       id="path205" />
    <circle
       cx="413.17999"
       cy="286.79999"
       r="2"
       style="fill:#ffc727"
       id="circle207" />
    <path
       d="m 421.75,286.8 a 2,2 0 1 1 -2,-2 2,2 0 0 1 2,2 z"
       style="fill:#ffc727"
       id="path209" />
    <circle
       cx="426.32999"
       cy="286.79999"
       r="2"
       style="fill:#ffc727"
       id="circle211" />
    <path
       d="m 434.9,286.8 a 2,2 0 1 1 -2,-2 2,2 0 0 1 2,2 z"
       style="fill:#ffc727"
       id="path213" />
    <path
       d="m 441.48,286.8 a 2,2 0 1 1 -2,-2 2,2 0 0 1 2,2 z"
       style="fill:#ffc727"
       id="path215" />
    <path
       d="m 415.17,292.79 a 2,2 0 1 1 -2,-2 2,2 0 0 1 2,2 z"
       style="fill:#ffc727"
       id="path217" />
    <path
       d="m 421.75,292.79 a 2,2 0 1 1 -2,-2 2,2 0 0 1 2,2 z"
       style="fill:#ffc727"
       id="path219" />
    <path
       d="m 428.33,292.79 a 2,2 0 1 1 -2,-2 2,2 0 0 1 2,2 z"
       style="fill:#ffc727"
       id="path221" />
    <path
       d="m 434.9,292.79 a 2,2 0 1 1 -2,-2 2,2 0 0 1 2,2 z"
       style="fill:#ffc727"
       id="path223" />
    <path
       d="m 441.48,292.79 a 2,2 0 1 1 -2,-2 2,2 0 0 1 2,2 z"
       style="fill:#ffc727"
       id="path225" />
    <rect
       x="407.39999"
       y="278.82001"
       width="1.15"
       height="15.96"
       style="fill:#263238"
       id="rect227" />
    <rect
       x="341.37"
       y="246.14999"
       width="103.21"
       height="23.84"
       style="fill:#37474f"
       id="rect229" />
    <rect
       x="345.70999"
       y="250.09"
       width="58.75"
       height="2.01"
       style="fill:#455a64"
       id="rect231" />
    <rect
       x="345.70999"
       y="253.58"
       width="58.75"
       height="2.01"
       style="fill:#455a64"
       id="rect233" />
    <rect
       x="345.70999"
       y="257.07001"
       width="58.75"
       height="2.01"
       style="fill:#455a64"
       id="rect235" />
    <rect
       x="345.70999"
       y="260.54999"
       width="58.75"
       height="2.01"
       style="fill:#455a64"
       id="rect237" />
    <rect
       x="345.70999"
       y="264.04001"
       width="58.75"
       height="2.01"
       style="fill:#455a64"
       id="rect239" />
    <path
       d="m 415.17,252.09 a 2,2 0 1 1 -2,-2 2,2 0 0 1 2,2 z"
       style="fill:#ffc727"
       id="path241" />
    <path
       d="m 421.75,252.09 a 2,2 0 1 1 -2,-2 2,2 0 0 1 2,2 z"
       style="fill:#ffc727"
       id="path243" />
    <path
       d="m 428.33,252.09 a 2,2 0 1 1 -2,-2 2,2 0 0 1 2,2 z"
       style="fill:#ffc727"
       id="path245" />
    <path
       d="m 434.9,252.09 a 2,2 0 1 1 -2,-2 2,2 0 0 1 2,2 z"
       style="fill:#ffc727"
       id="path247" />
    <path
       d="m 441.48,252.09 a 2,2 0 1 1 -2,-2 2,2 0 0 1 2,2 z"
       style="fill:#ffc727"
       id="path249" />
    <path
       d="m 415.17,258.07 a 2,2 0 1 1 -2,-2 2,2 0 0 1 2,2 z"
       style="fill:#ffc727"
       id="path251" />
    <path
       d="m 421.75,258.07 a 2,2 0 1 1 -2,-2 2,2 0 0 1 2,2 z"
       style="fill:#ffc727"
       id="path253" />
    <path
       d="m 428.33,258.07 a 2,2 0 1 1 -2,-2 2,2 0 0 1 2,2 z"
       style="fill:#ffc727"
       id="path255" />
    <path
       d="m 434.9,258.07 a 2,2 0 1 1 -2,-2 2,2 0 0 1 2,2 z"
       style="fill:#ffc727"
       id="path257" />
    <path
       d="m 441.48,258.07 a 2,2 0 1 1 -2,-2 2,2 0 0 1 2,2 z"
       style="fill:#ffc727"
       id="path259" />
    <path
       d="m 415.17,264.06 a 2,2 0 1 1 -2,-2 2,2 0 0 1 2,2 z"
       style="fill:#ffc727"
       id="path261" />
    <path
       d="m 421.75,264.06 a 2,2 0 1 1 -2,-2 2,2 0 0 1 2,2 z"
       style="fill:#ffc727"
       id="path263" />
    <path
       d="m 428.33,264.06 a 2,2 0 1 1 -2,-2 2,2 0 0 1 2,2 z"
       style="fill:#ffc727"
       id="path265" />
    <path
       d="m 434.9,264.06 a 2,2 0 1 1 -2,-2 2,2 0 0 1 2,2 z"
       style="fill:#ffc727"
       id="path267" />
    <path
       d="m 441.48,264.06 a 2,2 0 1 1 -2,-2 2,2 0 0 1 2,2 z"
       style="fill:#ffc727"
       id="path269" />
    <rect
       x="407.39999"
       y="250.09"
       width="1.15"
       height="15.96"
       style="fill:#263238"
       id="rect271" />
    <rect
       x="341.37"
       y="217.42999"
       width="103.21"
       height="23.84"
       style="fill:#37474f"
       id="rect273" />
    <rect
       x="345.70999"
       y="221.36"
       width="58.75"
       height="2.01"
       style="fill:#455a64"
       id="rect275" />
    <rect
       x="345.70999"
       y="224.85001"
       width="58.75"
       height="2.01"
       style="fill:#455a64"
       id="rect277" />
    <rect
       x="345.70999"
       y="228.34"
       width="58.75"
       height="2.01"
       style="fill:#455a64"
       id="rect279" />
    <rect
       x="345.70999"
       y="231.83"
       width="58.75"
       height="2.01"
       style="fill:#455a64"
       id="rect281" />
    <rect
       x="345.70999"
       y="235.31"
       width="58.75"
       height="2.01"
       style="fill:#455a64"
       id="rect283" />
    <path
       d="m 415.17,223.36 a 2,2 0 1 1 -2,-2 2,2 0 0 1 2,2 z"
       style="fill:#ffc727"
       id="path285" />
    <path
       d="m 421.75,223.36 a 2,2 0 1 1 -2,-2 2,2 0 0 1 2,2 z"
       style="fill:#ffc727"
       id="path287" />
    <path
       d="m 428.33,223.36 a 2,2 0 1 1 -2,-2 2,2 0 0 1 2,2 z"
       style="fill:#ffc727"
       id="path289" />
    <path
       d="m 434.9,223.36 a 2,2 0 1 1 -2,-2 2,2 0 0 1 2,2 z"
       style="fill:#ffc727"
       id="path291" />
    <path
       d="m 441.48,223.36 a 2,2 0 1 1 -2,-2 2,2 0 0 1 2,2 z"
       style="fill:#ffc727"
       id="path293" />
    <path
       d="m 415.17,229.35 a 2,2 0 1 1 -2,-2 2,2 0 0 1 2,2 z"
       style="fill:#ffc727"
       id="path295" />
    <path
       d="m 421.75,229.35 a 2,2 0 1 1 -2,-2 2,2 0 0 1 2,2 z"
       style="fill:#ffc727"
       id="path297" />
    <path
       d="m 428.33,229.35 a 2,2 0 1 1 -2,-2 2,2 0 0 1 2,2 z"
       style="fill:#ffc727"
       id="path299" />
    <path
       d="m 434.9,229.35 a 2,2 0 1 1 -2,-2 2,2 0 0 1 2,2 z"
       style="fill:#ffc727"
       id="path301" />
    <path
       d="m 441.48,229.35 a 2,2 0 1 1 -2,-2 2,2 0 0 1 2,2 z"
       style="fill:#ffc727"
       id="path303" />
    <path
       d="m 415.17,235.33 a 2,2 0 1 1 -2,-2 2,2 0 0 1 2,2 z"
       style="fill:#ffc727"
       id="path305" />
    <path
       d="m 421.75,235.33 a 2,2 0 1 1 -2,-2 2,2 0 0 1 2,2 z"
       style="fill:#ffc727"
       id="path307" />
    <path
       d="m 428.33,235.33 a 2,2 0 1 1 -2,-2 2,2 0 0 1 2,2 z"
       style="fill:#ffc727"
       id="path309" />
    <path
       d="m 434.9,235.33 a 2,2 0 1 1 -2,-2 2,2 0 0 1 2,2 z"
       style="fill:#ffc727"
       id="path311" />
    <path
       d="m 441.48,235.33 a 2,2 0 1 1 -2,-2 2,2 0 0 1 2,2 z"
       style="fill:#ffc727"
       id="path313" />
    <rect
       x="407.39999"
       y="221.36"
       width="1.15"
       height="15.96"
       style="fill:#263238"
       id="rect315" />
    <rect
       x="341.37"
       y="188.7"
       width="103.21"
       height="23.84"
       style="fill:#37474f"
       id="rect317" />
    <rect
       x="345.70999"
       y="192.64"
       width="58.75"
       height="2.01"
       style="fill:#455a64"
       id="rect319" />
    <rect
       x="345.70999"
       y="196.12"
       width="58.75"
       height="2.01"
       style="fill:#455a64"
       id="rect321" />
    <rect
       x="345.70999"
       y="199.61"
       width="58.75"
       height="2.01"
       style="fill:#455a64"
       id="rect323" />
    <rect
       x="345.70999"
       y="203.10001"
       width="58.75"
       height="2.01"
       style="fill:#455a64"
       id="rect325" />
    <rect
       x="345.70999"
       y="206.59"
       width="58.75"
       height="2.01"
       style="fill:#455a64"
       id="rect327" />
    <path
       d="m 415.17,194.63 a 2,2 0 1 1 -2,-2 2,2 0 0 1 2,2 z"
       style="fill:#ffc727"
       id="path329" />
    <path
       d="m 421.75,194.63 a 2,2 0 1 1 -2,-2 2,2 0 0 1 2,2 z"
       style="fill:#ffc727"
       id="path331" />
    <path
       d="m 428.33,194.63 a 2,2 0 1 1 -2,-2 2,2 0 0 1 2,2 z"
       style="fill:#ffc727"
       id="path333" />
    <path
       d="m 434.9,194.63 a 2,2 0 1 1 -2,-2 2,2 0 0 1 2,2 z"
       style="fill:#ffc727"
       id="path335" />
    <path
       d="m 441.48,194.63 a 2,2 0 1 1 -2,-2 2,2 0 0 1 2,2 z"
       style="fill:#ffc727"
       id="path337" />
    <circle
       cx="413.17999"
       cy="200.62"
       r="2"
       style="fill:#ffc727"
       id="circle339" />
    <path
       d="m 421.75,200.62 a 2,2 0 1 1 -2,-2 2,2 0 0 1 2,2 z"
       style="fill:#ffc727"
       id="path341" />
    <circle
       cx="426.32999"
       cy="200.62"
       r="2"
       style="fill:#ffc727"
       id="circle343" />
    <path
       d="m 434.9,200.62 a 2,2 0 1 1 -2,-2 2,2 0 0 1 2,2 z"
       style="fill:#ffc727"
       id="path345" />
    <path
       d="m 441.48,200.62 a 2,2 0 1 1 -2,-2 2,2 0 0 1 2,2 z"
       style="fill:#ffc727"
       id="path347" />
    <path
       d="m 415.17,206.6 a 2,2 0 1 1 -2,-2 2,2 0 0 1 2,2 z"
       style="fill:#ffc727"
       id="path349" />
    <path
       d="m 421.75,206.6 a 2,2 0 1 1 -2,-2 2,2 0 0 1 2,2 z"
       style="fill:#ffc727"
       id="path351" />
    <path
       d="m 428.33,206.6 a 2,2 0 1 1 -2,-2 2,2 0 0 1 2,2 z"
       style="fill:#ffc727"
       id="path353" />
    <path
       d="m 434.9,206.6 a 2,2 0 1 1 -2,-2 2,2 0 0 1 2,2 z"
       style="fill:#ffc727"
       id="path355" />
    <path
       d="m 441.48,206.6 a 2,2 0 1 1 -2,-2 2,2 0 0 1 2,2 z"
       style="fill:#ffc727"
       id="path357" />
    <rect
       x="407.39999"
       y="192.64"
       width="1.15"
       height="15.96"
       style="fill:#263238"
       id="rect359" />
    <rect
       x="291.69"
       y="168.86"
       width="136.05"
       height="7.5599999"
       style="fill:#37474f"
       id="rect361" />
    <rect
       x="277.85999"
       y="384.07001"
       width="15.19"
       height="15.19"
       style="fill:#263238"
       id="rect363" />
  </g>
  <g
     id="freepik--wall-plug--inject-59"
     transform="translate(21.15,-56.72)">
    <rect
       x="43.459999"
       y="353.73999"
       width="26.559999"
       height="26.559999"
       style="fill:#37474f"
       id="rect411" />
    <circle
       cx="56.740002"
       cy="367.01001"
       r="8.8699999"
       style="fill:#455a64"
       id="circle413" />
    <rect
       x="53.119999"
       y="363.42999"
       width="2"
       height="7.3200002"
       style="fill:#263238"
       id="rect415" />
    <rect
       x="58.68"
       y="363.42999"
       width="2"
       height="7.3200002"
       style="fill:#263238"
       id="rect417" />
  </g>
  <g
     id="freepik--Floor--inject-59"
     transform="translate(21.15,-56.72)">
    <polygon
       points="409.86,421.35 463.15,421.59 409.86,421.84 356.57,421.93 250,422.09 143.43,421.92 90.14,421.83 36.85,421.59 90.14,421.35 143.43,421.26 250,421.09 356.57,421.26 "
       style="fill:#263238"
       id="polygon420" />
  </g>
  <g
     id="freepik--Dog--inject-59"
     transform="translate(21.15,-56.72)">
    <path
       d="m 128.08,396.52 c 1,2.12 -2.84,17.31 -4,20.43 -1.16,3.12 -5.39,20.53 -7.43,21.28 -2.04,0.75 -11.93,0.54 -13.33,0 -1.4,-0.54 0,-3.51 1.61,-4.55 1.61,-1.04 3.54,-2.63 3.54,-2.63 0,0 -2.89,-26.89 -2.35,-29.9 0.54,-3.01 19.36,-10.32 21.96,-4.63 z"
       style="fill:#ffc727"
       id="path423" />
    <path
       d="m 128.08,396.52 c 1,2.12 -2.84,17.31 -4,20.43 -1.16,3.12 -5.39,20.53 -7.43,21.28 -2.04,0.75 -11.93,0.54 -13.33,0 -1.4,-0.54 0,-3.51 1.61,-4.55 1.61,-1.04 3.54,-2.63 3.54,-2.63 0,0 -2.89,-26.89 -2.35,-29.9 0.54,-3.01 19.36,-10.32 21.96,-4.63 z"
       style="opacity:0.1"
       id="path425" />
    <path
       d="m 107.4,437.06 a 3.9,3.9 0 0 1 0.65,-1.49 5.6,5.6 0 0 1 1.13,-1.15 3.68,3.68 0 0 1 1.42,-0.69 0.07,0.07 0 0 1 0.07,0.12 c -0.18,0.16 -0.38,0.3 -0.55,0.47 -0.17,0.17 -0.36,0.35 -0.52,0.53 a 6.07,6.07 0 0 0 -0.85,1.16 c -0.25,0.41 -0.48,0.83 -0.7,1.27 -0.22,0.44 -0.33,0.91 -0.5,1.37 a 0.1,0.1 0 0 1 -0.2,0 3.67,3.67 0 0 1 0.05,-1.59 z"
       style="opacity:0.1"
       id="path427" />
    <path
       d="m 104.51,435.48 a 5,5 0 0 1 2.41,-2.11 c 0.07,0 0.14,0.05 0.08,0.1 a 8.13,8.13 0 0 0 -1.92,2.17 3.66,3.66 0 0 0 -0.38,2.85 c 0,0 0,0.06 -0.07,0 a 2.92,2.92 0 0 1 -0.12,-3.01 z"
       style="opacity:0.1"
       id="path429" />
    <path
       d="m 106.94,416 13.59,12.86 c 1.5,-4.93 2.9,-10.29 3.51,-11.88 1.2,-3.12 5,-18.31 4,-20.43 -2.61,-5.69 -21.48,1.62 -22,4.63 -0.21,1.39 0.29,8.09 0.9,14.82 z"
       style="opacity:0.1"
       id="path431" />
    <path
       d="m 179.41,411.72 c 0.55,0.52 5.9,-4.54 6.72,-6.91 0.82,-2.37 -2.6,-9.06 -2,-10.2 0.6,-1.14 3.55,-2.05 5.06,-0.3 1.51,1.75 5.38,11.34 4.58,15.44 -0.8,4.1 -9.03,13.25 -9.9,13.25 -0.87,0 -4.46,-11.28 -4.46,-11.28 z"
       style="fill:#ffc727"
       id="path433" />
    <path
       d="m 179.41,411.72 c 0,0 3.61,11.2 4.46,11.25 0.63,0 5.21,-4.86 7.95,-9.09 l -7.49,-6.31 c -1.89,2.23 -4.54,4.51 -4.92,4.15 z"
       style="opacity:0.1"
       id="path435" />
    <path
       d="m 149.19,365.46 h -44.4 c 0,0 -3.3,29.24 -2.94,33.11 0.36,3.87 19.87,32.54 25.92,36.24 6.05,3.7 40.83,3.88 49.29,2 6.58,-1.45 12.07,-9.85 9.34,-22.78 -1.19,-5.66 -16.61,-19.14 -18.76,-21.72 -2.15,-2.58 -18.45,-26.85 -18.45,-26.85 z"
       style="fill:#c7c7c7"
       id="path437" />
    <path
       d="m 101.85,398.57 c 0.36,3.87 19.87,32.54 25.93,36.24 6.06,3.7 40.82,3.88 49.29,2 6.57,-1.45 12.07,-9.85 9.33,-22.79 -1.19,-5.65 -16.6,-19.13 -18.75,-21.71 -1.32,-1.58 -7.94,-11.3 -12.88,-18.6 -3.13,-4.62 -5.58,-8.27 -5.58,-8.27 h -44.4 c 0,0 -0.83,7.34 -1.61,15.15 -0.78,7.81 -1.51,16.05 -1.33,17.98 z"
       style="fill:#ffc727"
       id="path439" />
    <path
       d="m 103.18,380.61 c 23.86,7.36 45.08,-3.11 51.59,-6.88 -3.13,-4.62 -5.58,-8.27 -5.58,-8.27 h -44.4 c 0,0 -0.79,7.34 -1.61,15.15 z"
       style="opacity:0.1"
       id="path441" />
    <path
       d="m 177.91,412.64 c 0,0 -12.22,-7.67 -20.79,-6.29 -8.57,1.38 -11.6,19 -7.49,28.89 0,0 -7.82,2.32 -7.82,6.1 0,2.15 4.47,2.84 10.91,2.68 6.44,-0.16 19.26,-0.28 19.54,-1.9 a 7.68,7.68 0 0 0 -0.84,-3.85 c 0,0 11.57,-1.3 13.84,-9 2.27,-7.7 -5.42,-15.34 -7.35,-16.63 z"
       style="fill:#ffc727"
       id="path443" />
    <path
       d="m 161.22,436.11 a 31.06,31.06 0 0 0 10.29,2.28 c 0.07,0 0.09,0.12 0,0.13 a 16.82,16.82 0 0 1 -10.33,-2.33 c -0.04,-0.02 -0.01,-0.11 0.04,-0.08 z"
       style="opacity:0.1"
       id="path445" />
    <path
       d="m 146.84,444.07 a 6,6 0 0 1 2.66,-3.44 9.23,9.23 0 0 1 2.26,-1.14 c 0.92,-0.31 1.86,-0.48 2.79,-0.77 0.07,0 0.13,0.09 0,0.12 a 15,15 0 0 0 -2.3,1.06 22.45,22.45 0 0 0 -2.17,1.28 13.51,13.51 0 0 0 -3,3 c -0.03,0.13 -0.28,0.06 -0.24,-0.11 z"
       style="opacity:0.1"
       id="path447" />
    <path
       d="m 148.42,438 a 0.06,0.06 0 0 1 0,0.12 9.84,9.84 0 0 0 -5.26,5.22 c 0,0.1 -0.22,0.1 -0.2,0 a 6.27,6.27 0 0 1 5.46,-5.34 z"
       style="opacity:0.1"
       id="path449" />
    <path
       d="m 144.61,437.45 c 0,0 0,0.06 0,0.05 a 25.61,25.61 0 0 1 4.81,-2.21 c 0.2,0.35 0.41,0.7 0.64,1 0,0.07 0.15,0 0.11,-0.06 a 22.3,22.3 0 0 1 -2.14,-9.88 48.93,48.93 0 0 1 0.32,-5.41 26.51,26.51 0 0 1 2.9,-9 10.84,10.84 0 0 1 3.77,-4.34 10.46,10.46 0 0 1 5.65,-1 26,26 0 0 1 5.9,1.09 45.74,45.74 0 0 1 5.72,2 31.69,31.69 0 0 0 -11.56,-3.87 10.58,10.58 0 0 0 -6.16,1 11.77,11.77 0 0 0 -4.2,4.64 27.93,27.93 0 0 0 -3.07,11.88 c 0,0.47 0,0.95 0,1.42 v 0 c 0,0.63 0,1.25 0,1.88 a 18.69,18.69 0 0 0 2.11,8.53 9.08,9.08 0 0 0 -4.8,2.28 z"
       style="opacity:0.1"
       id="path451" />
    <path
       d="m 142.43,400.29 c 1,2.11 -2.84,17.3 -4,20.42 -1.16,3.12 -5.43,20.53 -7.43,21.29 -2,0.76 -11.93,0.54 -13.33,0 -1.4,-0.54 0,-3.51 1.61,-4.55 1.61,-1.04 3.53,-2.63 3.53,-2.63 0,0 -2.88,-26.89 -2.35,-29.9 0.53,-3.01 19.37,-10.33 21.97,-4.63 z"
       style="fill:#ffc727"
       id="path453" />
    <path
       d="m 135.77,429.15 c 0.91,-2.74 2.1,-5.4 3,-8.13 0,-0.11 0.21,-0.06 0.17,0.05 -0.7,2.2 -1.23,4.46 -1.89,6.68 0.1,-0.15 0.19,-0.31 0.28,-0.46 a 10.87,10.87 0 0 0 1.57,-2.77 0.09340771,0.09340771 0 0 1 0.18,0.05 6.42,6.42 0 0 1 -0.59,1.34 c -0.26,0.49 -0.53,1 -0.8,1.47 -0.27,0.47 -0.71,1.26 -1.1,1.87 0,0.05 0,0.09 0,0.13 a 78.59,78.59 0 0 1 -3,8.13 0.13,0.13 0 0 1 -0.24,-0.07 85.77,85.77 0 0 1 2.42,-8.29 z"
       style="opacity:0.1"
       id="path455" />
    <path
       d="m 120.05,409.2 c 0,-0.05 0.11,-0.07 0.12,0 0.29,2 0.41,4.1 0.62,6.15 0.21,2.05 0.47,4.25 0.7,6.38 0.47,4.23 1.18,8.45 1.52,12.69 0,0.18 -0.31,0.2 -0.36,0 A 77.9,77.9 0 0 1 120.6,422 c -0.22,-2.08 -0.35,-4.16 -0.45,-6.24 a 59.07,59.07 0 0 1 -0.1,-6.56 z"
       style="opacity:0.1"
       id="path457" />
    <path
       d="m 121.27,440.61 a 3.73,3.73 0 0 1 0.64,-1.49 5.4,5.4 0 0 1 1.14,-1.15 3.55,3.55 0 0 1 1.42,-0.69 0.07,0.07 0 0 1 0.06,0.12 c -0.18,0.17 -0.38,0.3 -0.55,0.47 l -0.52,0.53 a 6.91,6.91 0 0 0 -0.85,1.16 c -0.24,0.41 -0.48,0.83 -0.69,1.27 -0.21,0.44 -0.34,0.91 -0.51,1.37 a 0.1,0.1 0 0 1 -0.19,0 3.52,3.52 0 0 1 0.05,-1.59 z"
       style="opacity:0.1"
       id="path459" />
    <path
       d="m 118.37,439 a 5,5 0 0 1 2.42,-2.11 c 0.06,0 0.13,0.05 0.07,0.1 a 7.92,7.92 0 0 0 -1.91,2.17 3.57,3.57 0 0 0 -0.38,2.85 c 0,0 0,0.06 -0.07,0 A 2.92,2.92 0 0 1 118.37,439 Z"
       style="opacity:0.1"
       id="path461" />
    <path
       d="m 121.78,324.81 c 0.48,-1.76 -3.9,-8 -5.57,-10.05 -1.67,-2.05 -10.86,-5.22 -13.8,-3.61 -1.15,0.63 -3.29,5.05 -6.18,8.88 -4.48,5.94 -9.7,12.17 -7.8,13.84 4.6,4.07 15.11,-2.35 18.52,-4.5 3.41,-2.15 6.52,-4.78 7.35,-4.69 1.1,0.12 3.4,1.86 4.33,2 a 3.23,3.23 0 0 0 3.15,-1.87 z"
       style="fill:#ffc727"
       id="path463" />
    <path
       d="m 121.78,324.81 c 0.48,-1.76 -3.9,-8 -5.57,-10.05 -1.67,-2.05 -10.86,-5.22 -13.8,-3.61 -1.15,0.63 -3.29,5.05 -6.18,8.88 -4.48,5.94 -9.7,12.17 -7.8,13.84 4.6,4.07 15.11,-2.35 18.52,-4.5 3.41,-2.15 6.52,-4.78 7.35,-4.69 1.1,0.12 3.4,1.86 4.33,2 a 3.23,3.23 0 0 0 3.15,-1.87 z"
       style="opacity:0.1"
       id="path465" />
    <path
       d="m 143,318.59 c 10.73,6.42 15.49,23.48 15.78,26.21 0.24,2.22 5.35,10.1 4.44,18.57 -0.59,5.44 -10.37,12.67 -18.33,12.6 -1.46,0 -13.85,4.48 -24.32,3.76 -10.47,-0.72 -18.39,-8.15 -18.7,-8.78 -0.31,-0.63 -8.87,-1.85 -9.37,-10.6 -0.85,-14 13.4,-37.76 17.47,-41 6.75,-5.35 25.69,-5.12 33.03,-0.76 z"
       style="fill:#ffc727"
       id="path467" />
    <path
       d="m 137.9,326 c -0.2,-1.9 5.37,-7.61 7.45,-9.5 2.08,-1.89 12.14,-3.61 14.92,-1.45 1.09,0.85 2.58,5.78 4.94,10.24 3.65,6.91 8,14.24 5.8,15.66 -5.46,3.46 -15.3,-4.94 -18.48,-7.75 -3.18,-2.81 -6,-6 -6.85,-6.08 -1.16,-0.06 -3.84,1.36 -4.81,1.31 A 3.41,3.41 0 0 1 137.9,326 Z"
       style="fill:#ffc727"
       id="path469" />
    <path
       d="m 137.9,326 c -0.2,-1.9 5.37,-7.61 7.45,-9.5 2.08,-1.89 12.14,-3.61 14.92,-1.45 1.09,0.85 2.58,5.78 4.94,10.24 3.65,6.91 8,14.24 5.8,15.66 -5.46,3.46 -15.3,-4.94 -18.48,-7.75 -3.18,-2.81 -6,-6 -6.85,-6.08 -1.16,-0.06 -3.84,1.36 -4.81,1.31 A 3.41,3.41 0 0 1 137.9,326 Z"
       style="opacity:0.1"
       id="path471" />
    <path
       d="m 118.3,349.93 c 6.58,0.06 9.58,7.11 10.37,8.94 0.79,1.83 4.86,6 5,10.43 0.14,4.43 -8.23,9.3 -17,7.75 -8.77,-1.55 -13.4,-6.49 -13.35,-10.95 0,-3.59 3.42,-6.7 3.8,-7.64 0.38,-0.94 5.19,-8.59 11.18,-8.53 z"
       style="opacity:0.1"
       id="path473" />
    <path
       d="m 134.48,362.31 a 15.06,15.06 0 0 1 2.21,3.31 14,14 0 0 1 1.29,3.82 6.9,6.9 0 0 1 -0.43,4.1 4.83,4.83 0 0 1 -1.28,1.65 5.75,5.75 0 0 1 -1.79,0.92 5.67,5.67 0 0 0 2.35,-2.87 7.45,7.45 0 0 0 0.16,-3.64 20.22,20.22 0 0 0 -1,-3.67 c -0.47,-1.21 -0.99,-2.42 -1.51,-3.62 z"
       style="opacity:0.1"
       id="path475" />
    <path
       d="m 104.33,359.68 c -0.57,0.71 -1.11,1.4 -1.61,2.1 a 13,13 0 0 0 -1.27,2.18 7,7 0 0 0 -0.58,2.36 7.36,7.36 0 0 0 0.47,2.51 4.41,4.41 0 0 1 -1.25,-2.46 5.51,5.51 0 0 1 0.45,-2.81 8.3,8.3 0 0 1 3.79,-3.88 z"
       style="opacity:0.1"
       id="path477" />
    <path
       d="m 207.14,453.86 c -10.77,0 -22.66,-0.19 -34.61,-0.41 -6.16,-0.11 -11,-0.2 -14.06,-0.2 -15.53,0 -20,-20 -24.32,-39.26 -0.6,-2.69 -1.2,-5.38 -1.83,-8 -1.24,-5.17 -2.25,-10.38 -3.24,-15.43 -3,-15.61 -5.67,-29.08 -12.55,-29.82 -9.09,-1 -17.18,12.62 -20.13,33.83 l -2,-0.27 c 3.11,-22.36 12.08,-36.66 22.32,-35.55 8.35,0.89 11.11,15 14.3,31.43 1,5 2,10.22 3.22,15.34 0.64,2.65 1.24,5.36 1.85,8.06 4.34,19.38 8.44,37.69 22.36,37.69 3.05,0 7.93,0.09 14.1,0.2 13.52,0.26 32,0.6 47.7,0.29 25.42,-0.5 28.43,-2.5 28.74,-3.11 0,-4.16 -26.84,-9.16 -36.94,-11.05 -10.1,-1.89 -10.6,-2 -10.49,-3.23 0.11,-1.23 1.35,-1.13 3.25,-1.13 h 41.94 c 13.15,0 17.39,-18.92 19.93,-30.23 a 42.34,42.34 0 0 1 1.93,-7.13 c 2.94,-6.12 10.38,-5.23 10.69,-5.19 l -0.26,2 c -0.26,0 -6.32,-0.74 -8.63,4.07 a 44,44 0 0 0 -1.78,6.7 c -2.67,11.89 -7.12,31.79 -21.88,31.79 h -36.4 l 2.09,0.39 c 24.42,4.56 38.56,8.17 38.56,13.1 a 1.94,1.94 0 0 1 -0.65,1.42 c -2.97,2.89 -20.64,3.7 -43.21,3.7 z"
       style="fill:#263238"
       id="path479" />
    <rect
       x="89.269997"
       y="392.73001"
       width="12.28"
       height="7.3699999"
       transform="rotate(3.43,95.436599,396.27976)"
       style="fill:#455a64"
       id="rect481" />
    <rect
       x="91.870003"
       y="390.39999"
       width="7.6599998"
       height="2.3399999"
       transform="rotate(3.43,95.620586,391.25996)"
       style="fill:#37474f"
       id="rect483" />
    <rect
       x="91.510002"
       y="399.92001"
       width="1.45"
       height="5.6199999"
       transform="rotate(3.43,92.114742,402.56351)"
       style="fill:#ffc727"
       id="rect485" />
    <rect
       x="97.059998"
       y="400.25"
       width="1.4400001"
       height="5.6199999"
       transform="rotate(3.43,97.807511,402.89449)"
       style="fill:#ffc727"
       id="rect487" />
    <rect
       x="279.59"
       y="388.98001"
       width="12.28"
       height="5.3699999"
       transform="rotate(-90,285.735,391.665)"
       style="fill:#455a64"
       id="rect489" />
    <rect
       x="277.04999"
       y="389.5"
       width="7.6599998"
       height="4.3400002"
       transform="rotate(-90,280.885,391.665)"
       style="fill:#37474f"
       id="rect491" />
    <path
       d="m 110,360.6 c 0,0 2.61,3 3.62,2.38 1.01,-0.62 3.54,-6.58 3.54,-6.58 0,0 0.61,7.56 2.56,7.77 1.95,0.21 5.29,-2.78 5.29,-2.78 l -7.89,-5.47 z"
       style="fill:#ffc727"
       id="path493" />
    <path
       d="m 110,360.6 c 0,0 2.61,3 3.62,2.38 1.01,-0.62 3.54,-6.58 3.54,-6.58 0,0 0.61,7.56 2.56,7.77 1.95,0.21 5.29,-2.78 5.29,-2.78 l -7.89,-5.47 z"
       style="opacity:0.1"
       id="path495" />
    <path
       d="m 148.65,351.21 a 18.76,18.76 0 0 0 0.8,-7.54 13.36,13.36 0 0 0 -0.91,-3.83 9.38,9.38 0 0 0 -1,-1.79 8.76,8.76 0 0 0 -1.34,-1.58 7.2,7.2 0 0 0 -0.81,-0.65 c -0.29,-0.2 -0.59,-0.36 -0.88,-0.54 l -0.45,-0.25 -0.47,-0.19 a 8.56,8.56 0 0 0 -1,-0.36 10.59,10.59 0 0 0 -4,-0.38 13.75,13.75 0 0 0 -7.08,2.79 20,20 0 0 1 7.13,-1.31 10.52,10.52 0 0 1 3.37,0.6 c 0.27,0.08 0.52,0.23 0.78,0.33 l 0.38,0.17 0.36,0.23 c 0.23,0.15 0.48,0.28 0.71,0.44 a 6,6 0 0 1 0.63,0.52 8.14,8.14 0 0 1 1.94,2.69 14.77,14.77 0 0 1 1.09,3.33 35.93,35.93 0 0 1 0.75,7.32 z"
       style="opacity:0.1"
       id="path497" />
    <path
       d="m 99.87,346.1 a 28.54,28.54 0 0 1 1,-6.15 9.2,9.2 0 0 1 3,-4.76 6.73,6.73 0 0 1 1.18,-0.69 4.66,4.66 0 0 1 1.27,-0.35 10.83,10.83 0 0 1 2.89,0.06 40.09,40.09 0 0 1 6.06,1.57 15.32,15.32 0 0 0 -2.69,-1.82 c -0.48,-0.25 -1,-0.48 -1.48,-0.7 a 16.12,16.12 0 0 0 -1.57,-0.54 9.22,9.22 0 0 0 -3.42,-0.38 5.58,5.58 0 0 0 -1.8,0.44 7.54,7.54 0 0 0 -1.56,0.9 7.93,7.93 0 0 0 -2.26,2.71 10.63,10.63 0 0 0 -1,3.23 14.87,14.87 0 0 0 0.38,6.48 z"
       style="opacity:0.1"
       id="path499" />
    <path
       d="m 132.36,348.07 c 0,-0.11 0.26,0.15 0.25,0.28 -0.24,3 0,6.5 3,7.63 0.09,0 0.07,0.19 0,0.17 -3.67,-0.63 -4,-5.26 -3.25,-8.08 z"
       style="fill:#263238"
       id="path501" />
    <path
       d="m 135.46,345.05 c 5.34,-0.14 5.33,9.61 0.38,9.74 -4.95,0.13 -4.84,-9.63 -0.38,-9.74 z"
       style="fill:#263238"
       id="path503" />
    <path
       d="m 111.73,345.7 c 0,-0.11 -0.27,0.12 -0.28,0.25 -0.18,3 -1,6.43 -4,7.14 -0.09,0 -0.1,0.17 0,0.17 3.67,-0.12 4.64,-4.66 4.28,-7.56 z"
       style="fill:#263238"
       id="path505" />
    <path
       d="m 109.09,342.28 c -5.26,-0.88 -6.62,8.78 -1.74,9.59 4.88,0.81 6.16,-8.87 1.74,-9.59 z"
       style="fill:#263238"
       id="path507" />
    <path
       d="m 116.91,356.12 c 1,0.31 7.54,-1.77 7,-3.77 -0.55,-2.16 -9.81,-2.67 -11,-1.27 -1.19,1.4 3.01,4.72 4,5.04 z"
       style="fill:#263238"
       id="path509" />
    <path
       d="m 125.13,361.29 a 22.13,22.13 0 0 1 -3.35,2.09 4.46,4.46 0 0 1 -1.82,0.52 c -0.38,0.07 -0.7,-0.44 -0.92,-0.93 a 14.25,14.25 0 0 1 -0.83,-3.19 c -0.2,-1.09 -0.31,-2.21 -0.43,-3.3 l -0.31,-3 -0.91,2.95 c -0.28,0.91 -0.61,1.82 -0.94,2.73 a 20.82,20.82 0 0 1 -1.18,2.64 3.85,3.85 0 0 1 -0.39,0.6 1.77,1.77 0 0 1 -0.46,0.48 0.83,0.83 0 0 1 -0.55,0.06 3.15,3.15 0 0 1 -0.72,-0.3 10.27,10.27 0 0 1 -2.37,-2.13 7.52,7.52 0 0 0 2,2.46 2.86,2.86 0 0 0 0.87,0.46 2.71,2.71 0 0 0 0.59,0.08 1.4,1.4 0 0 0 0.64,-0.15 2.72,2.72 0 0 0 0.74,-0.6 5.94,5.94 0 0 0 0.5,-0.65 16.62,16.62 0 0 0 1.43,-2.69 c 0.4,-0.91 0.74,-1.83 1,-2.76 l -1.23,-0.09 a 29.65,29.65 0 0 0 0.46,3.37 16.5,16.5 0 0 0 0.42,1.68 8.7,8.7 0 0 0 0.67,1.67 3.5,3.5 0 0 0 0.59,0.82 1.71,1.71 0 0 0 0.53,0.37 1.31,1.31 0 0 0 0.41,0.12 1.51,1.51 0 0 0 0.37,0 4.89,4.89 0 0 0 2.16,-0.77 13.91,13.91 0 0 0 3.03,-2.54 z"
       style="fill:#263238"
       id="path511" />
  </g>
  <g
     id="freepik--Lines--inject-59"
     transform="translate(21.15,-56.72)">
    <path
       d="M 74.9,395.89 A 47.15,47.15 0 0 1 86.76,396.7 47.23,47.23 0 0 1 74.9,395.89 Z"
       style="fill:#263238"
       id="path514" />
    <path
       d="m 103.69,402.22 a 42.64,42.64 0 0 1 5.47,2.34 41.43,41.43 0 0 1 5.13,3 47.1,47.1 0 0 1 -10.6,-5.35 z"
       style="fill:#263238"
       id="path516" />
    <path
       d="m 81.25,416 a 46.89,46.89 0 0 1 7.14,-9.5 41.37,41.37 0 0 1 -3.27,5 41.53,41.53 0 0 1 -3.87,4.5 z"
       style="fill:#263238"
       id="path518" />
    <path
       d="m 70,384.07 c 1.55,0.49 3.06,1.05 4.56,1.63 1.5,0.58 3,1.2 4.48,1.83 1.48,0.63 3,1.28 4.41,2 1.41,0.72 2.92,1.39 4.34,2.17 -1.55,-0.5 -3.06,-1.06 -4.56,-1.64 -1.5,-0.58 -3,-1.2 -4.48,-1.83 -1.48,-0.63 -3,-1.28 -4.41,-2 -1.41,-0.72 -2.91,-1.39 -4.34,-2.16 z"
       style="fill:#263238"
       id="path520" />
    <path
       d="m 105.13,392.93 a 26.48,26.48 0 0 1 4.34,-1.72 25.63,25.63 0 0 1 4.55,-1 28.44,28.44 0 0 1 -8.89,2.73 z"
       style="fill:#263238"
       id="path522" />
    <path
       d="m 90.75,387.87 c -0.82,-1.3 -1.56,-2.63 -2.29,-4 -0.73,-1.37 -1.43,-2.7 -2.12,-4.07 -0.69,-1.37 -1.35,-2.74 -2,-4.14 -0.65,-1.4 -1.25,-2.79 -1.79,-4.23 0.82,1.3 1.57,2.64 2.3,4 0.73,1.36 1.43,2.7 2.12,4.06 0.69,1.36 1.34,2.74 2,4.14 0.66,1.4 1.24,2.8 1.78,4.24 z"
       style="fill:#263238"
       id="path524" />
    <path
       d="m 111,419.5 c -0.89,-1 -1.72,-2.09 -2.53,-3.16 -0.81,-1.07 -1.59,-2.18 -2.37,-3.28 -0.78,-1.1 -1.51,-2.23 -2.22,-3.38 -0.71,-1.15 -1.42,-2.3 -2.06,-3.49 0.89,1 1.72,2.09 2.53,3.16 0.81,1.07 1.6,2.18 2.37,3.28 0.77,1.1 1.51,2.23 2.22,3.38 0.71,1.15 1.42,2.29 2.06,3.49 z"
       style="fill:#263238"
       id="path526" />
  </g>
  <g
     id="freepik--Device--inject-59"
     transform="translate(21.15,-56.72)">
    <polygon
       points="297.28,168.86 290.88,112.72 373.54,112.72 379.94,168.86 "
       style="fill:#a6a6a6"
       id="polygon529" />
    <polygon
       points="300.93,165.1 295.39,116.49 369.9,116.49 375.44,165.1 "
       style="fill:#ffffff"
       id="polygon531" />
    <polygon
       points="328.23,143.48 316.51,133.36 317.7,131.94 329.42,142.06 "
       style="fill:#ffc727"
       id="polygon533" />
    <polygon
       points="328.04,133.36 319.53,143.48 317.89,142.06 326.4,131.94 "
       style="fill:#ffc727"
       id="polygon535" />
    <polygon
       points="353.29,143.48 341.57,133.36 342.76,131.94 354.48,142.06 "
       style="fill:#ffc727"
       id="polygon537" />
    <polygon
       points="353.1,133.36 344.59,143.48 342.95,142.06 351.46,131.94 "
       style="fill:#ffc727"
       id="polygon539" />
    <polygon
       points="314.69,149.79 360.12,149.79 360.44,151.79 315.01,151.79 "
       style="fill:#ffc727"
       id="polygon541" />
    <rect
       x="297.85999"
       y="165.10001"
       width="106.34"
       height="3.77"
       style="fill:#a6a6a6"
       id="rect543" />
    <rect
       x="320.95999"
       y="165.10001"
       width="92.220001"
       height="3.77"
       style="fill:#c7c7c7"
       id="rect545" />
    <polygon
       points="369.9,116.49 295.39,116.49 295.66,118.85 370.17,118.85 "
       style="fill:#263238"
       id="polygon547" />
    <path
       d="m 301.66,117.67 a 0.63,0.63 0 0 0 0.59,0.58 0.48,0.48 0 0 0 0.46,-0.58 0.63,0.63 0 0 0 -0.59,-0.59 0.49,0.49 0 0 0 -0.46,0.59 z"
       style="fill:#c7c7c7"
       id="path549" />
    <path
       d="m 299.5,117.67 a 0.64,0.64 0 0 0 0.6,0.58 0.49,0.49 0 0 0 0.46,-0.58 0.64,0.64 0 0 0 -0.59,-0.59 0.5,0.5 0 0 0 -0.47,0.59 z"
       style="fill:#ffffff"
       id="path551" />
    <path
       d="m 297.35,117.67 a 0.63,0.63 0 0 0 0.59,0.58 0.48,0.48 0 0 0 0.46,-0.58 0.63,0.63 0 0 0 -0.59,-0.59 0.49,0.49 0 0 0 -0.46,0.59 z"
       style="fill:#ffc727"
       id="path553" />
  </g>
</svg>
