<svg xmlns="http://www.w3.org/2000/svg" viewBox="0 0 750 500"><g id="freepik--background-complete--inject-31"><path d="M692.37,304.22l-13.12.28-6.66.11c-2.23.05-4.47,0-6.7.06h-.44v-.45L665.39,293v-.5h.5l13.24.06c4.42,0,8.83.11,13.24.16h.28V293c0,1.9-.08,3.79-.13,5.66Zm0,0-.14-5.65c-.05-1.86-.11-3.7-.13-5.54l.27.28c-4.41.05-8.82.16-13.24.16l-13.24.06.5-.5,0,11.19-.45-.44c2.18,0,4.36,0,6.55.05L679,304Z" style="fill:#ebebeb"></path><path d="M677.6,318.33l-13.12.28-6.67.11c-2.22,0-4.46,0-6.69.06h-.44v-.45l0-11.19v-.5h.5l13.24.07c4.41,0,8.83.11,13.24.16h.28v.27c0,1.9-.08,3.79-.13,5.66Zm0,0-.14-5.65c-.05-1.86-.11-3.7-.13-5.54l.27.28c-4.41.05-8.83.16-13.24.16l-13.24.06.5-.5,0,11.19-.45-.44c2.18,0,4.36,0,6.55.05l6.57.12Z" style="fill:#ebebeb"></path><path d="M707.14,318.33l-13.12.28-6.66.11c-2.23,0-4.47,0-6.7.06h-.44v-.45l-.06-11.19v-.5h.5l13.24.07c4.42,0,8.83.11,13.24.16h.28v.27c0,1.9-.09,3.79-.13,5.66Zm0,0-.14-5.65c0-1.86-.11-3.7-.13-5.54l.27.28c-4.41.05-8.82.16-13.24.16l-13.24.06.5-.5,0,11.19-.45-.44c2.19,0,4.36,0,6.55.05l6.58.12Z" style="fill:#ebebeb"></path><path d="M314.79,171.07l-13.12.28-6.66.11c-2.23,0-4.47,0-6.7,0h-.44v-.45l-.06-11.19v-.5h.5l13.24.06c4.42,0,8.83.11,13.24.16h.28v.27c0,1.9-.09,3.78-.14,5.65Zm0,0-.14-5.66c0-1.86-.11-3.7-.13-5.53l.27.27c-4.41,0-8.82.16-13.24.16l-13.24.07.5-.5-.05,11.19-.45-.45c2.18,0,4.36,0,6.55.06l6.58.11Z" style="fill:#ebebeb"></path><path d="M300,185.18l-13.12.28-6.67.11c-2.22,0-4.46,0-6.69.05h-.44v-.45L273,174v-.5h.5l13.24.06c4.41,0,8.83.11,13.24.16h.28V174c0,1.9-.08,3.78-.13,5.65Zm0,0-.14-5.66c-.05-1.86-.11-3.7-.13-5.53l.27.27c-4.41.05-8.83.16-13.24.16l-13.24.07.5-.5L274,185.18l-.45-.45c2.18,0,4.36,0,6.55.06l6.57.11Z" style="fill:#ebebeb"></path><path d="M329.56,185.18l-13.12.28-6.66.11c-2.23,0-4.46,0-6.7.05h-.44v-.45L302.58,174v-.5h.5l13.24.06c4.42,0,8.83.11,13.24.16h.28V174c0,1.9-.09,3.78-.13,5.65Zm0,0-.14-5.66c0-1.86-.11-3.7-.13-5.53l.27.27c-4.41.05-8.82.16-13.24.16l-13.24.07.5-.5-.05,11.19-.45-.45c2.19,0,4.36,0,6.55.06l6.58.11Z" style="fill:#ebebeb"></path><path d="M98.88,245.11l-13.12.28-6.67.11c-2.22,0-4.46,0-6.69.05H72v-.45l0-11.19v-.5h.5l13.24.06c4.41,0,8.83.11,13.24.16h.28v.27c0,1.9-.08,3.78-.13,5.65Zm0,0-.14-5.66c0-1.86-.11-3.7-.13-5.53l.27.27c-4.41.05-8.83.16-13.24.16l-13.24.07.5-.5-.05,11.19-.45-.45c2.18,0,4.36,0,6.55.06l6.57.11Z" style="fill:#ebebeb"></path><path d="M537.86,171.06l-13.12.28-6.66.11c-2.23.05-4.47,0-6.7.05h-.44v-.45l-.06-11.19v-.5h.5l13.24.06c4.42,0,8.83.12,13.24.17h.28v.27c0,1.9-.08,3.79-.13,5.65Zm0,0-.14-5.65c-.05-1.87-.11-3.71-.13-5.54l.27.27c-4.41.05-8.82.16-13.24.17l-13.24.06.5-.5-.05,11.19-.45-.45c2.18,0,4.36,0,6.55.06l6.58.11Z" style="fill:#ebebeb"></path><path d="M690.84,62.38l-13.12.28-6.67.11c-2.22,0-4.46,0-6.69.06h-.44v-.45l0-11.19v-.5h.5l13.24.06c4.41,0,8.83.12,13.24.17h.28v.27c0,1.9-.08,3.79-.13,5.65Zm0,0-.14-5.65c-.05-1.87-.11-3.71-.13-5.54l.27.27c-4.41,0-8.83.16-13.24.17l-13.24.06.5-.5-.05,11.19-.45-.45c2.18,0,4.36,0,6.55.06l6.57.11Z" style="fill:#ebebeb"></path><path d="M705.61,76.49l-13.12.28-6.66.11c-2.23.05-4.47,0-6.7.06h-.44v-.45l-.06-11.19v-.5h.5l13.24.06c4.42,0,8.83.12,13.24.17h.28v.27c0,1.9-.09,3.79-.14,5.65Zm0,0-.14-5.65c0-1.87-.11-3.71-.13-5.54l.27.27c-4.41.05-8.82.16-13.24.17l-13.24.06.5-.5,0,11.19-.45-.45c2.18,0,4.36,0,6.55.06l6.58.11Z" style="fill:#ebebeb"></path><path d="M69.34,62.39l-13.13.28-6.66.11c-2.22,0-4.46,0-6.69.06h-.45v-.45l0-11.19v-.5h.51l13.24.07c4.41,0,8.82.11,13.24.16h.27v.27c0,1.9-.09,3.79-.13,5.66Zm0,0-.15-5.65c0-1.86-.11-3.71-.13-5.54l.28.27c-4.42.06-8.83.16-13.24.17l-13.24.06.5-.5L43.3,62.39,42.86,62c2.18,0,4.35,0,6.54,0l6.58.11Z" style="fill:#ebebeb"></path><path d="M691.62,179.82l5.89-9.49-2.91-1.8a2.66,2.66,0,0,1-1.23-2.5,15.53,15.53,0,0,0,0-1.67,2.65,2.65,0,0,1,1.39-2.41l3-1.62-5.28-9.84-3,1.61a2.64,2.64,0,0,1-2.78-.18c-.45-.31-.93-.61-1.42-.88a2.65,2.65,0,0,1-1.4-2.4l.11-3.42-11.16-.35-.1,3.43a2.66,2.66,0,0,1-1.56,2.31l-.73.37c-.25.13-.49.27-.72.41a2.63,2.63,0,0,1-2.77,0l-2.93-1.81-5.89,9.49,2.92,1.8a2.68,2.68,0,0,1,1.23,2.5,15.54,15.54,0,0,0-.06,1.67,2.64,2.64,0,0,1-1.38,2.4l-3,1.62,5.28,9.85,3-1.62a2.66,2.66,0,0,1,2.77.18,15.7,15.7,0,0,0,1.41.87,2.62,2.62,0,0,1,1.4,2.41l-.1,3.42,11.16.35.11-3.43a2.64,2.64,0,0,1,1.55-2.3l.74-.37.72-.41a2.65,2.65,0,0,1,2.78,0Zm-9.45-7a9.15,9.15,0,1,1,3.74-12.39A9.14,9.14,0,0,1,682.17,172.77Z" style="fill:#ebebeb"></path><path d="M157.21,377.9l-3.91-6.78-2.08,1.2a1.85,1.85,0,0,1-1.95-.07,11,11,0,0,0-1-.58,1.86,1.86,0,0,1-1-1.66v-2.39H139.4V370a1.86,1.86,0,0,1-1,1.66c-.35.18-.69.37-1,.58a1.85,1.85,0,0,1-2,.07l-2.07-1.2-3.91,6.78,2.08,1.2a1.85,1.85,0,0,1,.91,1.72c0,.19,0,.39,0,.58s0,.38,0,.58a1.84,1.84,0,0,1-.9,1.71l-2.09,1.21,3.91,6.78,2.08-1.2a1.85,1.85,0,0,1,2,.07,11,11,0,0,0,1,.58,1.86,1.86,0,0,1,1,1.65v2.4h7.83v-2.4a1.85,1.85,0,0,1,1-1.65c.34-.18.68-.37,1-.58a1.85,1.85,0,0,1,1.95-.07l2.08,1.2,3.91-6.78-2.08-1.2a1.85,1.85,0,0,1-.91-1.72c0-.19,0-.39,0-.58s0-.39,0-.58a1.85,1.85,0,0,1,.91-1.72Zm-7.48,3.5a6.41,6.41,0,1,1-6.41-6.41A6.41,6.41,0,0,1,149.73,381.4Z" style="fill:#ebebeb"></path><path d="M89.9,301.23a30.48,30.48,0,1,0,30.47,30.48A30.47,30.47,0,0,0,89.9,301.23Zm0,44.7a14.23,14.23,0,1,1,14.23-14.22A14.23,14.23,0,0,1,89.9,345.93Z" style="fill:#ebebeb"></path><polygon points="95.76 302.5 84.04 302.5 84.69 294.2 95.11 294.2 95.76 302.5" style="fill:#ebebeb"></polygon><polygon points="73.45 306.44 65.17 314.73 59.76 308.41 67.13 301.04 73.45 306.44" style="fill:#ebebeb"></polygon><polygon points="60.47 325.01 60.47 336.73 52.18 336.08 52.18 325.66 60.47 325.01" style="fill:#ebebeb"></polygon><polygon points="64.42 347.31 72.71 355.6 66.39 361 59.02 353.63 64.42 347.31" style="fill:#ebebeb"></polygon><polygon points="82.98 360.29 94.7 360.29 94.06 368.59 83.63 368.59 82.98 360.29" style="fill:#ebebeb"></polygon><polygon points="105.29 356.34 113.58 348.06 118.98 354.38 111.61 361.75 105.29 356.34" style="fill:#ebebeb"></polygon><polygon points="118.27 337.78 118.27 326.06 126.56 326.71 126.56 337.13 118.27 337.78" style="fill:#ebebeb"></polygon><polygon points="114.32 315.48 106.03 307.19 112.36 301.78 119.73 309.15 114.32 315.48" style="fill:#ebebeb"></polygon><path d="M93.87,118c0-1.25.17-4.58.17-6,0-6.08-2.17-8.83-7.83-9-2.67-.16-4.25-1.74-4.25-4s1.58-3.83,4.25-4C91.87,94.78,94,92.12,94,86c0-1.41-.17-4.74-.17-6,0-8.08,3.41-13.24,16.32-16.07,2.58-.59,4.58,1,4.58,3.41a3.49,3.49,0,0,1-2.33,3.41c-8.08,2.5-9.25,5.08-9.25,10.75,0,1.66.17,4.41.17,6.16,0,6.49-3.16,9.66-8.66,11.41,5.58,1.83,8.66,4.91,8.66,11.41,0,1.74-.17,4.49-.17,6.16,0,5.66,1.17,8.24,9.25,10.74a3.49,3.49,0,0,1,2.33,3.41c0,2.42-2,4-4.58,3.42C97.28,131.34,93.87,126.17,93.87,118Z" style="fill:#ebebeb"></path><path d="M142.67,80c0,1.25-.17,4.58-.17,6,0,6.17,2.25,8.83,7.91,9.08,2.58.17,4.16,1.75,4.16,4s-1.58,3.83-4.16,4c-5.66.17-7.91,2.92-7.91,9,0,1.41.17,4.74.17,6,0,8.16-3.42,13.33-16.33,16.16-2.58.58-4.57-1-4.57-3.42a3.45,3.45,0,0,1,2.41-3.41c8-2.5,9.16-5.08,9.16-10.74,0-1.67-.17-4.42-.17-6.16,0-6.5,3.17-9.66,8.66-11.41-5.58-1.83-8.66-4.92-8.66-11.41,0-1.75.17-4.5.17-6.16,0-5.67-1.17-8.25-9.16-10.75a3.45,3.45,0,0,1-2.41-3.41c0-2.41,2-4,4.57-3.41C139.25,66.72,142.67,71.88,142.67,80Z" style="fill:#ebebeb"></path></g><g id="freepik--Floor--inject-31"><polygon points="50.72 447.25 131.79 447.01 212.86 446.92 375 446.75 537.14 446.92 618.21 447.01 699.28 447.25 618.21 447.5 537.14 447.59 375 447.75 212.86 447.58 131.79 447.5 50.72 447.25" style="fill:#263238"></polygon></g><g id="freepik--Device--inject-31"><rect x="100.11" y="427.23" width="549.78" height="20.02" style="fill:#c7c7c7"></rect><rect x="156.92" y="135.47" width="436.16" height="291.76" style="fill:#dbdbdb"></rect><rect x="160.09" y="139.03" width="429.83" height="284.64" style="fill:#263238"></rect><rect x="179.12" y="157.32" width="391.76" height="248.05" style="fill:#455a64"></rect><rect x="179.12" y="166.87" width="84" height="238.51" style="fill:#37474f"></rect><rect x="179.12" y="166.87" width="8.99" height="238.51" style="fill:#455a64"></rect><rect x="188.11" y="248.44" width="75.02" height="3.55" style="fill:#FFC727"></rect><rect x="196.47" y="178.71" width="29.17" height="1.59" style="fill:#fff"></rect><polygon points="192.74 179 194.62 179 193.68 180 192.74 179" style="fill:#fff"></polygon><rect x="198.81" y="184.6" width="3.87" height="1.59" style="fill:#fff"></rect><polygon points="196.47 186.33 196.47 184.45 197.47 185.39 196.47 186.33" style="fill:#fff"></polygon><rect x="198.81" y="190.49" width="3.87" height="1.59" style="fill:#fff"></rect><polygon points="196.03 190.78 197.91 190.78 196.97 191.78 196.03 190.78" style="fill:#fff"></polygon><rect x="198.81" y="196.38" width="3.87" height="1.59" style="fill:#fff"></rect><polygon points="196.03 196.67 197.91 196.67 196.97 197.68 196.03 196.67" style="fill:#fff"></polygon><rect x="201.16" y="202.27" width="3.87" height="1.59" style="fill:#fff"></rect><polygon points="198.81 204 198.81 202.12 199.82 203.06 198.81 204" style="fill:#fff"></polygon><rect x="203.51" y="208.17" width="3.87" height="1.59" style="fill:#fff"></rect><polygon points="201.16 209.9 201.16 208.02 202.17 208.96 201.16 209.9" style="fill:#fff"></polygon><rect x="203.51" y="267.07" width="3.87" height="1.59" style="fill:#fff"></rect><polygon points="201.16 268.8 201.16 266.92 202.17 267.86 201.16 268.8" style="fill:#fff"></polygon><rect x="205.86" y="214.05" width="3.87" height="1.59" style="fill:#fff"></rect><polygon points="203.51 215.78 203.51 213.9 204.52 214.84 203.51 215.78" style="fill:#fff"></polygon><rect x="205.86" y="261.18" width="3.87" height="1.59" style="fill:#fff"></rect><polygon points="203.51 262.91 203.51 261.03 204.52 261.97 203.51 262.91" style="fill:#fff"></polygon><rect x="208.21" y="219.94" width="3.87" height="1.59" style="fill:#fff"></rect><polygon points="205.86 221.67 205.86 219.79 206.87 220.73 205.86 221.67" style="fill:#fff"></polygon><rect x="208.21" y="255.28" width="3.87" height="1.59" style="fill:#fff"></rect><polygon points="205.86 257.02 205.86 255.14 206.87 256.08 205.86 257.02" style="fill:#fff"></polygon><rect x="210.56" y="225.84" width="3.87" height="1.59" style="fill:#fff"></rect><polygon points="208.21 227.57 208.21 225.69 209.22 226.63 208.21 227.57" style="fill:#fff"></polygon><rect x="211" y="231.72" width="3.87" height="1.59" style="fill:#fff"></rect><polygon points="208.21 232.01 210.09 232.01 209.15 233.02 208.21 232.01" style="fill:#fff"></polygon><rect x="211" y="237.61" width="3.87" height="1.59" style="fill:#fff"></rect><polygon points="208.21 237.9 210.09 237.9 209.15 238.91 208.21 237.9" style="fill:#fff"></polygon><rect x="211" y="243.5" width="3.87" height="1.59" style="fill:#fff"></rect><polygon points="208.21 243.79 210.09 243.79 209.15 244.8 208.21 243.79" style="fill:#fff"></polygon><rect x="211" y="249.39" width="3.87" height="1.59" style="fill:#fff"></rect><polygon points="208.21 249.68 210.09 249.68 209.15 250.69 208.21 249.68" style="fill:#fff"></polygon><rect x="198.81" y="272.96" width="3.87" height="1.59" style="fill:#fff"></rect><polygon points="196.47 274.69 196.47 272.81 197.47 273.75 196.47 274.69" style="fill:#fff"></polygon><rect x="198.81" y="278.85" width="3.87" height="1.59" style="fill:#fff"></rect><polygon points="196.03 279.14 197.91 279.14 196.97 280.15 196.03 279.14" style="fill:#fff"></polygon><rect x="198.81" y="284.74" width="3.87" height="1.59" style="fill:#fff"></rect><polygon points="196.03 285.03 197.91 285.03 196.97 286.04 196.03 285.03" style="fill:#fff"></polygon><rect x="201.16" y="290.63" width="3.87" height="1.59" style="fill:#fff"></rect><polygon points="198.81 292.37 198.81 290.49 199.82 291.43 198.81 292.37" style="fill:#fff"></polygon><rect x="203.51" y="296.53" width="3.87" height="1.59" style="fill:#fff"></rect><polygon points="201.16 298.26 201.16 296.38 202.17 297.32 201.16 298.26" style="fill:#fff"></polygon><rect x="203.51" y="302.42" width="3.87" height="1.59" style="fill:#fff"></rect><polygon points="201.16 304.16 201.16 302.28 202.17 303.22 201.16 304.16" style="fill:#fff"></polygon><rect x="203.95" y="308.31" width="3.87" height="1.59" style="fill:#fff"></rect><polygon points="201.16 308.6 203.04 308.6 202.1 309.61 201.16 308.6" style="fill:#fff"></polygon><rect x="203.95" y="314.2" width="3.87" height="1.59" style="fill:#fff"></rect><polygon points="201.16 314.49 203.04 314.49 202.1 315.5 201.16 314.49" style="fill:#fff"></polygon><rect x="203.95" y="320.09" width="3.87" height="1.59" style="fill:#fff"></rect><polygon points="201.16 320.38 203.04 320.38 202.1 321.39 201.16 320.38" style="fill:#fff"></polygon><rect x="203.95" y="325.98" width="3.87" height="1.59" style="fill:#fff"></rect><polygon points="201.16 326.27 203.04 326.27 202.1 327.28 201.16 326.27" style="fill:#fff"></polygon><rect x="179.12" y="157.32" width="391.76" height="9.54" style="fill:#FFC727"></rect><path d="M188.11,162.1a1.81,1.81,0,1,1-1.81-1.81A1.81,1.81,0,0,1,188.11,162.1Z" style="fill:#c7c7c7"></path><path d="M195.48,162.1a1.81,1.81,0,1,1-1.81-1.81A1.81,1.81,0,0,1,195.48,162.1Z" style="fill:#fff"></path><path d="M202.86,162.1a1.81,1.81,0,1,1-1.81-1.81A1.81,1.81,0,0,1,202.86,162.1Z" style="fill:#455a64"></path><rect x="282.86" y="209.28" width="7.07" height="1.73" style="fill:#ebebeb"></rect><rect x="298.26" y="209.28" width="156.67" height="1.73" style="fill:#ebebeb"></rect><rect x="459.28" y="209.28" width="13.42" height="1.73" style="fill:#FFC727"></rect><rect x="480.76" y="250.26" width="45.31" height="1.73" style="fill:#ebebeb"></rect><rect x="475.62" y="209.28" width="66.52" height="1.73" style="fill:#a6a6a6"></rect><rect x="282.86" y="217.47" width="7.07" height="1.73" style="fill:#ebebeb"></rect><rect x="305.15" y="217.47" width="53.21" height="1.73" style="fill:#a6a6a6"></rect><rect x="457.45" y="250.26" width="20.13" height="1.73" style="fill:#a6a6a6"></rect><rect x="298.26" y="242.06" width="50.82" height="1.73" style="fill:#a6a6a6"></rect><rect x="305.15" y="225.67" width="35.65" height="1.73" style="fill:#FFC727"></rect><rect x="468.26" y="233.86" width="67.54" height="1.73" style="fill:#a6a6a6"></rect><rect x="387.4" y="274.09" width="67.54" height="1.73" style="fill:#a6a6a6"></rect><rect x="344.76" y="225.67" width="132.53" height="1.73" style="fill:#a6a6a6"></rect><rect x="298.26" y="250.26" width="154.58" height="1.73" style="fill:#FFC727"></rect><rect x="361.7" y="217.47" width="109.51" height="1.73" style="fill:#ebebeb"></rect><rect x="482.96" y="225.67" width="22.92" height="1.73" style="fill:#ebebeb"></rect><rect x="282.86" y="225.67" width="7.07" height="1.73" style="fill:#ebebeb"></rect><rect x="282.86" y="233.86" width="7.07" height="1.73" style="fill:#a6a6a6"></rect><rect x="298.26" y="233.86" width="41.77" height="1.73" style="fill:#ebebeb"></rect><rect x="305.15" y="258.45" width="41.77" height="1.73" style="fill:#ebebeb"></rect><rect x="458.64" y="266.65" width="58.32" height="1.73" style="fill:#FFC727"></rect><rect x="342.93" y="266.65" width="112.06" height="1.73" style="fill:#ebebeb"></rect><rect x="305.15" y="266.65" width="31.4" height="1.73" style="fill:#a6a6a6"></rect><rect x="351.96" y="242.06" width="120.74" height="1.73" style="fill:#ebebeb"></rect><rect x="475.62" y="242.06" width="72.04" height="1.73" style="fill:#FFC727"></rect><rect x="344.28" y="233.86" width="120.69" height="1.73" style="fill:#FFC727"></rect><rect x="282.86" y="242.06" width="7.07" height="1.73" style="fill:#ebebeb"></rect><rect x="282.86" y="250.26" width="7.07" height="1.73" style="fill:#ebebeb"></rect><rect x="282.86" y="258.45" width="7.07" height="1.73" style="fill:#a6a6a6"></rect><rect x="282.86" y="266.65" width="7.07" height="1.73" style="fill:#ebebeb"></rect><rect x="282.86" y="274.09" width="7.07" height="1.73" style="fill:#ebebeb"></rect><rect x="298.26" y="274.09" width="82.87" height="1.73" style="fill:#ebebeb"></rect><rect x="282.86" y="282.29" width="7.07" height="1.73" style="fill:#ebebeb"></rect><rect x="305.15" y="282.29" width="53.21" height="1.73" style="fill:#a6a6a6"></rect><rect x="298.26" y="306.87" width="50.82" height="1.73" style="fill:#a6a6a6"></rect><rect x="305.15" y="290.48" width="35.65" height="1.73" style="fill:#FFC727"></rect><rect x="386.8" y="323.27" width="35.65" height="1.73" style="fill:#FFC727"></rect><rect x="305.15" y="339.66" width="35.65" height="1.73" style="fill:#FFC727"></rect><rect x="344.76" y="290.48" width="132.53" height="1.73" style="fill:#a6a6a6"></rect><rect x="298.26" y="315.07" width="154.58" height="1.73" style="fill:#FFC727"></rect><rect x="361.7" y="282.29" width="109.51" height="1.73" style="fill:#ebebeb"></rect><rect x="471.51" y="298.68" width="22.88" height="1.73" style="fill:#ebebeb"></rect><rect x="282.86" y="290.48" width="7.07" height="1.73" style="fill:#ebebeb"></rect><rect x="282.86" y="298.68" width="7.07" height="1.73" style="fill:#a6a6a6"></rect><rect x="298.26" y="298.68" width="41.77" height="1.73" style="fill:#ebebeb"></rect><rect x="351.96" y="306.87" width="120.74" height="1.73" style="fill:#ebebeb"></rect><rect x="344.28" y="298.68" width="120.69" height="1.73" style="fill:#FFC727"></rect><rect x="282.86" y="306.87" width="7.07" height="1.73" style="fill:#ebebeb"></rect><rect x="282.86" y="323.27" width="7.07" height="1.73" style="fill:#ebebeb"></rect><rect x="298.26" y="323.27" width="82.87" height="1.73" style="fill:#ebebeb"></rect><rect x="282.86" y="331.46" width="7.07" height="1.73" style="fill:#ebebeb"></rect><rect x="305.15" y="331.46" width="53.21" height="1.73" style="fill:#a6a6a6"></rect><rect x="298.26" y="356.05" width="50.82" height="1.73" style="fill:#a6a6a6"></rect><rect x="344.76" y="339.66" width="132.53" height="1.73" style="fill:#a6a6a6"></rect><rect x="471.51" y="347.85" width="22.88" height="1.73" style="fill:#ebebeb"></rect><rect x="282.86" y="339.66" width="7.07" height="1.73" style="fill:#ebebeb"></rect><rect x="282.86" y="347.85" width="7.07" height="1.73" style="fill:#a6a6a6"></rect><rect x="298.26" y="347.85" width="41.77" height="1.73" style="fill:#ebebeb"></rect><rect x="351.96" y="356.05" width="120.74" height="1.73" style="fill:#ebebeb"></rect><rect x="344.28" y="347.85" width="120.69" height="1.73" style="fill:#FFC727"></rect><rect x="282.86" y="356.05" width="7.07" height="1.73" style="fill:#ebebeb"></rect><path d="M287.22,193.44a.6.6,0,0,1,0,.87.59.59,0,0,1-.42.18.64.64,0,0,1-.45-.18l-2.73-2.76s0,0,0-.06l0,0a.26.26,0,0,1,0-.08l0,0s0-.05,0-.06,0,0,0-.05v-.07s0,0,0-.06,0,0,0-.05V191s0,0,0,0,0-.05,0-.08v0a.73.73,0,0,1,.05-.09,0,0,0,0,1,0,0s0,0,.05-.06l2.73-2.77a.63.63,0,0,1,.87,0,.6.6,0,0,1,0,.87l-2.3,2.32Z" style="fill:#FFC727"></path><path d="M289.69,193.75l2.38-5.65a.54.54,0,0,1,.71-.29.52.52,0,0,1,.27.69l-2.38,5.67a.53.53,0,0,1-.49.32.48.48,0,0,1-.2,0A.53.53,0,0,1,289.69,193.75Z" style="fill:#FFC727"></path><path d="M297.74,191.47h0s0,.05-.06.07l-2.73,2.76a.62.62,0,0,1-.44.18.62.62,0,0,1-.43-1.05l2.3-2.32-2.3-2.32a.6.6,0,0,1,0-.87.63.63,0,0,1,.87,0l2.73,2.77s0,0,.06.06,0,0,0,0a.9.9,0,0,1,.05.09v0a.47.47,0,0,0,0,.09s0,0,0,0v.06s0,0,0,.05v.13s0,0,0,0a.92.92,0,0,0,0,.09s0,0,0,0Z" style="fill:#FFC727"></path></g><g id="freepik--Icons--inject-31"><polygon points="169.25 210.71 118.26 210.71 118.26 144.11 156.7 144.11 169.25 156.66 169.25 210.71" style="fill:#FFC727"></polygon><polygon points="169.25 210.71 118.26 210.71 118.26 144.11 156.7 144.11 169.25 156.66 169.25 210.71" style="fill:#fff;opacity:0.6000000000000001"></polygon><polygon points="169.25 156.66 156.7 156.66 156.7 144.11 169.25 156.66" style="fill:#FFC727"></polygon><path d="M130.05,167.58a3.8,3.8,0,1,0,3.79-3.81A3.79,3.79,0,0,0,130.05,167.58Z" style="fill:#FFC727"></path><polygon points="135.91 184.47 161.7 184.47 148.81 168.73 135.91 184.47" style="fill:#FFC727"></polygon><polygon points="125.8 184.47 147.09 184.47 136.45 174.22 125.8 184.47" style="fill:#FFC727"></polygon><polygon points="125.8 184.47 147.09 184.47 136.45 174.22 125.8 184.47" style="opacity:0.1"></polygon><rect x="125.8" y="159.28" width="35.89" height="25.19" style="fill:none;stroke:#FFC727;stroke-miterlimit:10;stroke-width:2px"></rect><rect x="105.87" y="187.19" width="36.63" height="15.16" style="fill:#455a64"></rect><path d="M116.63,191.32v7.35h-1.42v-3.14h-3.34v3.14h-1.43v-7.35h1.43v3h3.34v-3Z" style="fill:#fff"></path><path d="M123.65,192.57H121.3v6.1h-1.41v-6.1h-2.35v-1.25h6.11Z" style="fill:#fff"></path><path d="M130.56,198.67V193.8l-1.9,3.63h-.77L126,193.8v4.87h-1.42v-7.35h1.53l2.17,4.18,2.2-4.18H132v7.35Z" style="fill:#fff"></path><path d="M133.52,198.67v-7.35H135v6.1h3.75v1.25Z" style="fill:#fff"></path><polygon points="169.25 291.61 118.2 291.61 118.2 224.94 156.69 224.94 169.25 237.5 169.25 291.61" style="fill:#FFC727"></polygon><polygon points="169.25 291.61 118.2 291.61 118.2 224.94 156.69 224.94 169.25 237.5 169.25 291.61" style="fill:#fff;opacity:0.6000000000000001"></polygon><polygon points="169.25 237.5 156.69 237.5 156.69 224.94 169.25 237.5" style="fill:#FFC727"></polygon><path d="M130,248.43a3.81,3.81,0,1,0,3.8-3.82A3.82,3.82,0,0,0,130,248.43Z" style="fill:#FFC727"></path><polygon points="135.88 265.34 161.69 265.34 148.78 249.58 135.88 265.34" style="fill:#FFC727"></polygon><polygon points="125.76 265.34 147.07 265.34 136.41 255.08 125.76 265.34" style="fill:#FFC727"></polygon><polygon points="125.76 265.34 147.07 265.34 136.41 255.08 125.76 265.34" style="opacity:0.1"></polygon><rect x="125.76" y="240.13" width="35.93" height="25.21" style="fill:none;stroke:#FFC727;stroke-miterlimit:10;stroke-width:2px"></rect><rect x="105.81" y="268.06" width="36.66" height="15.17" style="fill:#455a64"></rect><path d="M114.47,275.82a3.85,3.85,0,0,1,.24-1.33,3.65,3.65,0,0,1,.71-1.18,3.75,3.75,0,0,1,1.14-.84,3.58,3.58,0,0,1,1.53-.32,3.31,3.31,0,0,1,1.76.45,2.85,2.85,0,0,1,1.1,1.16l-1.1.76a1.73,1.73,0,0,0-.79-.86,1.91,1.91,0,0,0-.5-.19,2.94,2.94,0,0,0-.51-.05,2,2,0,0,0-.94.21,2.27,2.27,0,0,0-.66.57,2.36,2.36,0,0,0-.4.79,3,3,0,0,0,0,1.81,2.52,2.52,0,0,0,.44.79,2.18,2.18,0,0,0,.69.55,1.81,1.81,0,0,0,.87.21,2.37,2.37,0,0,0,.52-.06,1.87,1.87,0,0,0,.51-.2,1.52,1.52,0,0,0,.45-.35,1.69,1.69,0,0,0,.34-.51l1.17.67a2.19,2.19,0,0,1-.51.73,3,3,0,0,1-.73.54,4.21,4.21,0,0,1-.88.33,3.59,3.59,0,0,1-.91.11,3.17,3.17,0,0,1-1.44-.33,3.81,3.81,0,0,1-1.12-.86,4,4,0,0,1-.74-1.22A3.67,3.67,0,0,1,114.47,275.82Z" style="fill:#fff"></path><path d="M126.4,274.12a1.48,1.48,0,0,0-.26-.2,4,4,0,0,0-1.06-.44,2.44,2.44,0,0,0-.66-.08,1.52,1.52,0,0,0-.88.21.74.74,0,0,0-.29.62.62.62,0,0,0,.11.37,1.09,1.09,0,0,0,.32.27,3,3,0,0,0,.52.2c.21.07.46.13.73.2s.69.2,1,.31a2.57,2.57,0,0,1,.75.42,1.68,1.68,0,0,1,.47.59,2,2,0,0,1,.17.86,2.12,2.12,0,0,1-.23,1,2,2,0,0,1-.6.68,2.64,2.64,0,0,1-.87.38,4.93,4.93,0,0,1-1,.11,5.76,5.76,0,0,1-1.64-.24,5,5,0,0,1-1.45-.71l.63-1.23a2.92,2.92,0,0,0,.34.24,5.29,5.29,0,0,0,1.31.56,3.31,3.31,0,0,0,.83.1c.79,0,1.18-.25,1.18-.76a.6.6,0,0,0-.13-.4,1.1,1.1,0,0,0-.39-.29,3.61,3.61,0,0,0-.6-.23l-.79-.23a6.41,6.41,0,0,1-.91-.31,2.41,2.41,0,0,1-.65-.41,1.5,1.5,0,0,1-.39-.54,2,2,0,0,1-.13-.73,2.25,2.25,0,0,1,.21-1,2.16,2.16,0,0,1,.57-.73,2.69,2.69,0,0,1,.86-.44,3.51,3.51,0,0,1,1-.15,4,4,0,0,1,1.43.25A5.51,5.51,0,0,1,127,273Z" style="fill:#fff"></path><path d="M132.76,274.12a2.34,2.34,0,0,0-.27-.2,3.62,3.62,0,0,0-1.06-.44,2.36,2.36,0,0,0-.65-.08,1.48,1.48,0,0,0-.88.21.72.72,0,0,0-.29.62.62.62,0,0,0,.1.37,1.09,1.09,0,0,0,.32.27,3,3,0,0,0,.52.2c.21.07.46.13.73.2s.69.2,1,.31a2.45,2.45,0,0,1,.75.42,1.68,1.68,0,0,1,.47.59,2,2,0,0,1,.17.86,2.12,2.12,0,0,1-.23,1,1.78,1.78,0,0,1-.6.68,2.64,2.64,0,0,1-.87.38,4.85,4.85,0,0,1-1,.11,5.76,5.76,0,0,1-1.64-.24,5.15,5.15,0,0,1-1.45-.71l.64-1.23a2,2,0,0,0,.33.24,6.18,6.18,0,0,0,.58.3,4.45,4.45,0,0,0,.73.26,3.31,3.31,0,0,0,.83.1c.79,0,1.18-.25,1.18-.76a.6.6,0,0,0-.13-.4,1.16,1.16,0,0,0-.38-.29,4.15,4.15,0,0,0-.61-.23l-.78-.23a6.15,6.15,0,0,1-.92-.31,2.41,2.41,0,0,1-.65-.41,1.5,1.5,0,0,1-.39-.54,2,2,0,0,1-.13-.73,2.25,2.25,0,0,1,.21-1,2.07,2.07,0,0,1,.58-.73,2.64,2.64,0,0,1,.85-.44,3.6,3.6,0,0,1,1-.15,3.91,3.91,0,0,1,1.43.25,5.51,5.51,0,0,1,1.14.57Z" style="fill:#fff"></path><line x1="113.39" y1="257.59" x2="112.39" y2="257.59" style="fill:none;stroke:#263238;stroke-miterlimit:10;stroke-width:0.75px"></line><line x1="110.56" y1="257.59" x2="104.16" y2="257.59" style="fill:none;stroke:#263238;stroke-miterlimit:10;stroke-width:0.75px;stroke-dasharray:1.829450011253357,1.829450011253357"></line><polyline points="103.25 257.59 102.25 257.59 102.25 256.59" style="fill:none;stroke:#263238;stroke-miterlimit:10;stroke-width:0.75px"></polyline><line x1="102.25" y1="254.61" x2="102.25" y2="168.46" style="fill:none;stroke:#263238;stroke-miterlimit:10;stroke-width:0.75px;stroke-dasharray:1.9804699420928955,1.9804699420928955"></line><polyline points="102.25 167.47 102.25 166.47 103.25 166.47" style="fill:none;stroke:#263238;stroke-miterlimit:10;stroke-width:0.75px"></polyline><line x1="104.86" y1="166.47" x2="110.53" y2="166.47" style="fill:none;stroke:#263238;stroke-miterlimit:10;stroke-width:0.75px;stroke-dasharray:1.6175099611282349,1.6175099611282349"></line><line x1="111.33" y1="166.47" x2="112.33" y2="166.47" style="fill:none;stroke:#263238;stroke-miterlimit:10;stroke-width:0.75px"></line><path d="M113.34,256.46a1.13,1.13,0,1,1-1.13,1.13A1.14,1.14,0,0,1,113.34,256.46Z" style="fill:#263238"></path><circle cx="112.28" cy="166.47" r="1.13" style="fill:#263238"></circle><polyline points="102.25 211.97 90.01 211.97 90.01 107.64 220.83 107.64" style="fill:none;stroke:#263238;stroke-miterlimit:10;stroke-width:0.75px;stroke-dasharray:2,2"></polyline><polygon points="220.39 109.13 222.98 107.64 220.39 106.14 220.39 109.13" style="fill:#263238"></polygon></g><g id="freepik--Window--inject-31"><rect x="309.02" y="78.77" width="378.73" height="239.8" style="fill:#fff"></rect><path d="M687.87,318.69h-379v-240h379Zm-378.73-.25H687.62V78.89H309.14Z" style="fill:#263238"></path><rect x="309.02" y="78.77" width="378.73" height="9.23" style="fill:#FFC727"></rect><path d="M317.7,83.38A1.75,1.75,0,1,1,316,81.64,1.74,1.74,0,0,1,317.7,83.38Z" style="fill:#c7c7c7"></path><path d="M324.83,83.38a1.75,1.75,0,1,1-1.74-1.74A1.74,1.74,0,0,1,324.83,83.38Z" style="fill:#fff"></path><path d="M332,83.38a1.75,1.75,0,1,1-1.74-1.74A1.74,1.74,0,0,1,332,83.38Z" style="fill:#455a64"></path><rect x="319.79" y="87.99" width="28" height="124.39" style="fill:#ebebeb"></rect><rect x="332.51" y="103.33" width="331.75" height="30.13" style="fill:#FFC727"></rect><rect x="347.79" y="114.99" width="7.64" height="1.24" style="fill:#fff"></rect><rect x="347.79" y="120.56" width="7.64" height="1.24" style="fill:#fff"></rect><rect x="347.79" y="117.81" width="7.64" height="1.24" style="fill:#fff"></rect><rect x="372.52" y="113.87" width="73.54" height="9.06" style="fill:#fff"></rect><path d="M446.15,123H372.43v-9.25h73.72Z" style="fill:#fff"></path><rect x="436.9" y="113.77" width="9.25" height="9.25" style="fill:#455a64"></rect><path d="M444.4,120.94l-.84.63-1.55-2-.56-.75a1.5,1.5,0,0,0,.32-.19,1.34,1.34,0,0,0,.43-.55l.6.79Z" style="fill:#fff"></path><path d="M442.75,116.12a2.28,2.28,0,1,0-.74,3.41,2.2,2.2,0,0,0,.32-.21,2.18,2.18,0,0,0,.47-.49A2.27,2.27,0,0,0,442.75,116.12Zm-1,2.47a1.5,1.5,0,0,1-.32.19,1.37,1.37,0,0,1-1.34-2.36A1.37,1.37,0,0,1,442.2,118,1.34,1.34,0,0,1,441.77,118.59Z" style="fill:#fff"></path><rect x="374.42" y="115.65" width="0.49" height="5.5" style="fill:#c7c7c7"></rect><rect x="617.15" y="117.02" width="31.78" height="2.76" style="fill:#fff"></rect><rect x="568.38" y="117.02" width="31.78" height="2.76" style="fill:#fff"></rect><rect x="519.61" y="117.02" width="31.78" height="2.76" style="opacity:0.1"></rect><rect x="470.84" y="117.02" width="31.78" height="2.76" style="fill:#fff"></rect><rect x="309.02" y="227.34" width="378.73" height="30.13" style="fill:#FFC727"></rect><rect x="332.51" y="271.7" width="73.3" height="3.39" style="fill:#455a64"></rect><polygon points="332.51 283.32 344.27 283.14 356.03 283.03 379.55 282.94 403.07 283.03 414.83 283.13 426.59 283.32 414.83 283.5 403.07 283.61 379.55 283.69 356.03 283.61 344.27 283.5 332.51 283.32" style="fill:#a6a6a6"></polygon><polygon points="332.51 287.94 344.27 287.76 356.03 287.66 379.55 287.57 403.07 287.65 414.83 287.76 426.59 287.94 414.83 288.13 403.07 288.23 379.55 288.32 356.03 288.23 344.27 288.13 332.51 287.94" style="fill:#a6a6a6"></polygon><polygon points="332.51 292.57 344.27 292.39 356.03 292.28 379.55 292.19 403.07 292.28 414.83 292.39 426.59 292.57 414.83 292.75 403.07 292.86 379.55 292.94 356.03 292.86 344.27 292.75 332.51 292.57" style="fill:#a6a6a6"></polygon><polygon points="332.51 297.19 344.27 297.01 356.03 296.91 379.55 296.82 403.07 296.91 414.83 297.01 426.59 297.19 414.83 297.38 403.07 297.48 379.55 297.57 356.03 297.48 344.27 297.38 332.51 297.19" style="fill:#a6a6a6"></polygon><path d="M332.51,301.82c3.92-.15,7.84-.23,11.76-.29l11.76-.08,11.76.08c3.92.06,7.84.13,11.76.29-3.92.16-7.84.23-11.76.29L356,302.2l-11.76-.09C340.35,302.05,336.43,302,332.51,301.82Z" style="fill:#a6a6a6"></path><rect x="451.34" y="271.7" width="73.3" height="3.39" style="fill:#455a64"></rect><polygon points="451.34 283.32 463.1 283.14 474.86 283.03 498.38 282.94 521.9 283.03 533.66 283.13 545.42 283.32 533.66 283.5 521.9 283.61 498.38 283.69 474.86 283.61 463.1 283.5 451.34 283.32" style="fill:#a6a6a6"></polygon><polygon points="451.34 287.94 463.1 287.76 474.86 287.66 498.38 287.57 521.9 287.65 533.66 287.76 545.42 287.94 533.66 288.13 521.9 288.23 498.38 288.32 474.86 288.23 463.1 288.13 451.34 287.94" style="fill:#a6a6a6"></polygon><polygon points="451.34 292.57 463.1 292.39 474.86 292.28 498.38 292.19 521.9 292.28 533.66 292.39 545.42 292.57 533.66 292.75 521.9 292.86 498.38 292.94 474.86 292.86 463.1 292.75 451.34 292.57" style="fill:#a6a6a6"></polygon><polygon points="451.34 297.19 463.1 297.01 474.86 296.91 498.38 296.82 521.9 296.91 533.66 297.01 545.42 297.19 533.66 297.38 521.9 297.48 498.38 297.57 474.86 297.48 463.1 297.38 451.34 297.19" style="fill:#a6a6a6"></polygon><path d="M451.34,301.82c3.92-.15,7.84-.23,11.76-.29l11.76-.08,11.76.08c3.92.06,7.84.13,11.76.29-3.92.16-7.84.23-11.76.29l-11.76.09-11.76-.09C459.18,302.05,455.26,302,451.34,301.82Z" style="fill:#a6a6a6"></path><rect x="570.17" y="271.7" width="73.3" height="3.39" style="fill:#455a64"></rect><polygon points="570.17 283.32 581.93 283.14 593.69 283.03 617.21 282.94 640.74 283.03 652.5 283.13 664.26 283.32 652.5 283.5 640.74 283.61 617.21 283.69 593.69 283.61 581.93 283.5 570.17 283.32" style="fill:#a6a6a6"></polygon><polygon points="570.17 287.94 581.93 287.76 593.69 287.66 617.21 287.57 640.74 287.65 652.5 287.76 664.26 287.94 652.5 288.13 640.74 288.23 617.21 288.32 593.69 288.23 581.93 288.13 570.17 287.94" style="fill:#a6a6a6"></polygon><polygon points="570.17 292.57 581.93 292.39 593.69 292.28 617.21 292.19 640.74 292.28 652.5 292.39 664.26 292.57 652.5 292.75 640.74 292.86 617.21 292.94 593.69 292.86 581.93 292.75 570.17 292.57" style="fill:#a6a6a6"></polygon><polygon points="570.17 297.19 581.93 297.01 593.69 296.91 617.21 296.82 640.74 296.91 652.5 297.01 664.26 297.19 652.5 297.38 640.74 297.48 617.21 297.57 593.69 297.48 581.93 297.38 570.17 297.19" style="fill:#a6a6a6"></polygon><path d="M570.17,301.82c3.92-.15,7.84-.23,11.76-.29l11.76-.08,11.76.08c3.92.06,7.84.13,11.76.29-3.92.16-7.84.23-11.76.29l-11.76.09-11.76-.09C578,302.05,574.09,302,570.17,301.82Z" style="fill:#a6a6a6"></path><rect x="374.22" y="152.05" width="64.1" height="64.1" transform="translate(812.54 368.2) rotate(180)" style="fill:#ebebeb"></rect><rect x="377.99" y="155.82" width="56.56" height="56.56" transform="translate(812.54 368.2) rotate(180)" style="fill:#455a64"></rect><path d="M387.1,169.31a5.34,5.34,0,1,0,4.19-4.19A5.34,5.34,0,0,0,387.1,169.31Z" style="fill:#37474f"></path><polygon points="393.67 197.7 434.55 197.7 414.11 174.78 393.67 197.7" style="fill:#37474f"></polygon><polygon points="377.99 197.7 411.74 197.7 394.86 182.77 377.99 197.7" style="fill:#263238"></polygon><rect x="377.99" y="197.7" width="56.56" height="14.68" style="fill:#263238"></rect><rect x="558.44" y="152.05" width="64.1" height="64.1" transform="translate(1180.99 368.2) rotate(180)" style="fill:#ebebeb"></rect><rect x="562.21" y="155.82" width="56.56" height="56.56" transform="translate(1180.99 368.2) rotate(180)" style="fill:#455a64"></rect><path d="M571.33,169.31a5.33,5.33,0,1,0,4.19-4.19A5.33,5.33,0,0,0,571.33,169.31Z" style="fill:#37474f"></path><polygon points="577.9 197.7 618.78 197.7 598.34 174.78 577.9 197.7" style="fill:#37474f"></polygon><polygon points="562.21 197.7 595.96 197.7 579.09 182.77 562.21 197.7" style="fill:#263238"></polygon><rect x="562.21" y="197.7" width="56.56" height="14.68" style="fill:#263238"></rect><rect x="466.33" y="152.05" width="64.11" height="64.1" transform="translate(996.76 368.2) rotate(180)" style="fill:#ebebeb"></rect><rect x="470.1" y="155.82" width="56.56" height="56.56" transform="translate(996.76 368.2) rotate(180)" style="fill:#FFC727"></rect><path d="M479.21,169.31a5.34,5.34,0,1,0,4.19-4.19A5.34,5.34,0,0,0,479.21,169.31Z" style="opacity:0.1"></path><polygon points="485.78 197.7 526.66 197.7 506.22 174.78 485.78 197.7" style="opacity:0.1"></polygon><polygon points="470.1 197.7 503.85 197.7 486.98 182.77 470.1 197.7" style="fill:#FFC727"></polygon><g style="opacity:0.2"><polygon points="470.1 197.7 503.85 197.7 486.98 182.77 470.1 197.7"></polygon></g><rect x="470.1" y="197.7" width="56.56" height="14.68" style="fill:#FFC727"></rect><rect x="470.1" y="197.7" width="56.56" height="14.68" style="opacity:0.2"></rect><polygon points="377.99 235.47 393.64 235.29 409.29 235.18 440.6 235.09 471.9 235.18 487.55 235.28 503.21 235.47 487.55 235.65 471.9 235.76 440.6 235.84 409.29 235.76 393.64 235.65 377.99 235.47" style="fill:#fff"></polygon><polygon points="377.99 240.09 393.64 239.91 409.29 239.81 440.6 239.72 471.9 239.81 487.55 239.91 503.21 240.09 487.55 240.28 471.9 240.38 440.6 240.47 409.29 240.38 393.64 240.28 377.99 240.09" style="fill:#fff"></polygon><polygon points="377.99 244.72 393.64 244.54 409.29 244.43 440.6 244.35 471.9 244.43 487.55 244.54 503.21 244.72 487.55 244.9 471.9 245.01 440.6 245.09 409.29 245.01 393.64 244.9 377.99 244.72" style="fill:#fff"></polygon><path d="M378,249.35c5.21-.16,10.43-.23,15.65-.29l15.65-.09,15.65.09c5.22.06,10.44.13,15.66.29-5.22.15-10.44.22-15.66.28l-15.65.09-15.65-.09C388.42,249.57,383.2,249.5,378,249.35Z" style="fill:#fff"></path><polygon points="337.08 247 337.08 237.82 332.62 242.08 337.08 247" style="fill:#fff"></polygon><polygon points="659.92 237.82 659.92 247 664.38 242.74 659.92 237.82" style="fill:#fff"></polygon></g><g id="freepik--Gears--inject-31"><path d="M251.67,101.18a19.45,19.45,0,1,0,19.44-19.45A19.47,19.47,0,0,0,251.67,101.18Zm4.14,0a15.31,15.31,0,1,1,15.3,15.3A15.3,15.3,0,0,1,255.81,101.18Zm-4.14,0a19.45,19.45,0,1,0,19.44-19.45A19.47,19.47,0,0,0,251.67,101.18Zm4.14,0a15.31,15.31,0,1,1,15.3,15.3A15.3,15.3,0,0,1,255.81,101.18Zm-17.47,0a32.78,32.78,0,1,0,32.77-32.79A32.77,32.77,0,0,0,238.34,101.18Zm11.47,0a21.31,21.31,0,1,1,21.3,21.31A21.34,21.34,0,0,1,249.81,101.18Zm1.86,0a19.45,19.45,0,1,0,19.44-19.45A19.47,19.47,0,0,0,251.67,101.18Zm4.14,0a15.31,15.31,0,1,1,15.3,15.3A15.3,15.3,0,0,1,255.81,101.18Z" style="fill:#FFC727"></path><polygon points="267.27 68.99 274.77 68.99 274.02 61.5 268.01 61.5 267.27 68.99" style="fill:#FFC727"></polygon><polygon points="283.88 71.38 290.38 75.13 293.47 68.27 288.27 65.26 283.88 71.38" style="fill:#FFC727"></polygon><polygon points="297.07 81.75 300.82 88.25 306.93 83.85 303.93 78.65 297.07 81.75" style="fill:#FFC727"></polygon><polygon points="303.3 97.32 303.3 104.83 310.79 104.08 310.79 98.07 303.3 97.32" style="fill:#FFC727"></polygon><polygon points="300.92 113.93 297.16 120.43 304.02 123.53 307.03 118.33 300.92 113.93" style="fill:#FFC727"></polygon><polygon points="290.54 127.12 284.04 130.88 288.44 136.99 293.64 133.98 290.54 127.12" style="fill:#FFC727"></polygon><polygon points="274.97 133.36 267.46 133.36 268.21 140.85 274.22 140.85 274.97 133.36" style="fill:#FFC727"></polygon><polygon points="258.36 130.97 251.86 127.22 248.76 134.08 253.97 137.09 258.36 130.97" style="fill:#FFC727"></polygon><polygon points="245.17 120.6 241.41 114.1 235.3 118.49 238.31 123.7 245.17 120.6" style="fill:#FFC727"></polygon><polygon points="238.93 105.02 238.93 97.52 231.44 98.27 231.44 104.28 238.93 105.02" style="fill:#FFC727"></polygon><polygon points="241.32 88.42 245.07 81.92 238.21 78.82 235.2 84.02 241.32 88.42" style="fill:#FFC727"></polygon><polygon points="251.69 75.22 258.19 71.47 253.8 65.36 248.59 68.36 251.69 75.22" style="fill:#FFC727"></polygon><path d="M189.31,71.4a19.08,19.08,0,1,0,19.57-18.57A19.07,19.07,0,0,0,189.31,71.4Zm10.16.27a8.91,8.91,0,1,1,8.67,9.14A8.91,8.91,0,0,1,199.47,71.67Z" style="fill:#ebebeb"></path><polygon points="205.2 53.52 212.53 53.72 212.26 48.52 205.74 48.34 205.2 53.52" style="fill:#ebebeb"></polygon><polygon points="219.09 56.36 224.14 61.69 227.63 57.82 223.14 53.09 219.09 56.36" style="fill:#ebebeb"></polygon><polygon points="226.91 68.2 226.71 75.53 231.91 75.26 232.09 68.74 226.91 68.2" style="fill:#ebebeb"></polygon><polygon points="224.07 82.09 218.74 87.14 222.61 90.63 227.35 86.14 224.07 82.09" style="fill:#ebebeb"></polygon><polygon points="212.23 89.91 204.9 89.71 205.17 94.92 211.69 95.09 212.23 89.91" style="fill:#ebebeb"></polygon><polygon points="198.34 87.07 193.29 81.74 189.8 85.61 194.29 90.35 198.34 87.07" style="fill:#ebebeb"></polygon><polygon points="190.52 75.23 190.72 67.9 185.52 68.17 185.34 74.69 190.52 75.23" style="fill:#ebebeb"></polygon><polygon points="193.36 61.34 198.69 56.29 194.82 52.8 190.08 57.3 193.36 61.34" style="fill:#ebebeb"></polygon><path d="M213.45,67.23l-6.26-1.86-4.73,4.49L204,76.2l6.25,1.86L215,73.57Zm-4.79,6.55a2.07,2.07,0,1,1,2.12-2A2.07,2.07,0,0,1,208.66,73.78Z" style="fill:#ebebeb"></path><polyline points="271.02 56.22 271.02 50.99 389.13 50.99 389.13 70.94" style="fill:none;stroke:#263238;stroke-miterlimit:10;stroke-width:0.75px;stroke-dasharray:2,2"></polyline><polygon points="387.63 70.51 389.13 73.1 390.62 70.51 387.63 70.51" style="fill:#263238"></polygon></g><g id="freepik--Plant--inject-31"><path d="M655.12,373.36a60.6,60.6,0,0,1,1.93,10.9c-.1.18-.08.86,0,.67,0,.6.93.49.93-.1,0-.38,0-.77,0-1.14,2.13-2.65,5.23-4.32,7.72-6.62a14.39,14.39,0,0,0,4.23-6.73c2.08-7.14.13-14.71,2.63-21.84,2.15-6.14,6-11.48,9.26-17.05,3.44-5.88,6-12.07,6.24-19,.2-5.28-.43-12.31-4.45-16.27-4.26-4.19-9.54-1.05-12.81,2.69-9.46,10.86-13.84,24.58-15.61,38.61-1,7.77-2,15.58-1.75,23.42A63.35,63.35,0,0,0,655.12,373.36Z" style="fill:#FFC727"></path><path d="M657,387.11a133.55,133.55,0,0,1,.26-22s0,0,0-.08c-.12-5.94-.59-11.87-.36-17.82a106.24,106.24,0,0,1,2.62-19.12c0-.07.13,0,.12,0a123.56,123.56,0,0,0-2.07,18.7c-.12,3.36-.1,6.72.08,10.07.06,1.1.16,2.2.23,3.3h0a117.79,117.79,0,0,1,17.69-46.82c.13-.19.47,0,.35.21a122.06,122.06,0,0,0-14.4,34.72c4.55-8.43,11.42-15.37,16.52-23.47,0,0,.1,0,.08.05-4.58,9-12.15,16.13-17,25-.84,3.63-1.53,7.28-2,11A123,123,0,0,0,658,376c2.77-5.18,5.64-10.13,7.91-15.61.06-.14.27-.05.22.1-1.93,5.69-4.52,11.82-8.15,16.67,0,3.61.09,7.21.3,10.81.57,9.6,2.21,19.08,3,28.65a.22.22,0,0,1-.44,0A218.21,218.21,0,0,1,657,387.11Z" style="fill:#263238"></path><path d="M667.21,313c0-.07.13,0,.1,0-1.75,4.85-2.74,9.77-4,14.74a.18.18,0,0,1-.36-.06C663.45,322.72,665.26,317.69,667.21,313Z" style="fill:#263238"></path><path d="M622.66,333.37a74.58,74.58,0,0,0,4,8.29c3.16,5.74,6.46,11,7,17.67a41.9,41.9,0,0,0,1.27,8.86,27.14,27.14,0,0,0,3.53,6.93c3.43,5,7.71,9.28,10.88,14.46A60.89,60.89,0,0,1,656.65,407c.07.34.6.25.52-.09,0,0,0-.05,0-.07a.16.16,0,0,0,0-.07c.5-14.33-.64-28.76-5-42.48a147.18,147.18,0,0,0-6.94-17.67,41.76,41.76,0,0,0-9.37-13.48c-2.67-2.4-8.45-6.95-12.24-4.54C621.81,329.76,621.94,331.59,622.66,333.37Z" style="fill:#FFC727"></path><path d="M637.05,365.84a117.36,117.36,0,0,0,8.33,12c1.38,1.81,2.79,3.6,4.18,5.42.65.85,1.38,1.71,2,2.63-.38-1.51-.74-3-1.13-4.52-1.85-7.24-3.62-14.54-6.38-21.5a144.07,144.07,0,0,0-9.94-19.49c-.1-.17.17-.29.27-.13,3,5,6.1,9.95,8.64,15.2a79.85,79.85,0,0,1,3.67,9,139.66,139.66,0,0,0-4.88-19.26c0-.06.06-.1.08,0a65.88,65.88,0,0,1,5.07,20v0q.93,2.79,1.72,5.63c2.26,8,4.24,16.11,6.08,24.23a86.83,86.83,0,0,0-1.38-15.92c0-.13.15-.15.18,0a50.54,50.54,0,0,1,1.39,16.79c.69,3.09,1.37,6.19,2,9.28,1.4,6.6,3.13,13.32,4,20a.14.14,0,0,1-.27,0c-1-3.61-1.57-7.36-2.38-11s-1.63-7.33-2.49-11q-1.86-8-3.87-16c-.89-1.95-2.6-3.68-3.89-5.31-1.41-1.79-2.82-3.58-4.19-5.4a79.89,79.89,0,0,1-6.89-10.67C636.89,365.82,637,365.77,637.05,365.84Z" style="fill:#263238"></path><path d="M636.44,359.72a74.33,74.33,0,0,1,8.15,12.94c0,.06-.06.12-.1.06-2.74-4.29-5.44-8.62-8.17-12.92C636.27,359.73,636.39,359.65,636.44,359.72Z" style="fill:#263238"></path><path d="M697.41,347c-1.85,3.2-4,7-3.17,10.88.5,2.43,2.28,4.4,2.6,6.88.72,5.47-4.73,9.08-8.68,11.67-9.83,6.45-23.32,12.2-25.11,25.38-.07.47-.87.35-.81-.11,0,0,0,0,0-.08s0,0,0-.08a50.35,50.35,0,0,1,.18-20.13c1.47-6.79,4.43-12.89,7.93-18.86,5.92-10.1,12.19-20.44,21.14-28.17,2.48-2.14,7.55-6,9.52-1.16S699.69,343.06,697.41,347Z" style="fill:#FFC727"></path><path d="M688.41,368.36c-6.52,7.06-16.88,11-22.5,18.92a79.15,79.15,0,0,1,17.3-32.48c.21-.24-.13-.59-.36-.36a64.11,64.11,0,0,0-14.14,20.47,92.28,92.28,0,0,1,6.09-15.56c.09-.19-.18-.36-.29-.17A59.35,59.35,0,0,0,668,376.67c-7.39,17.9-8.08,38.9-6.53,57.77a.22.22,0,0,0,.43,0c-.43-14.87-.19-30,3.38-44.52.07-.31.15-.61.23-.91,6.11-8.51,16.43-12.45,23.07-20.54C688.59,368.4,688.48,368.28,688.41,368.36Z" style="fill:#263238"></path><path d="M689.92,362.3c-3.42,3.14-6.79,6.35-10.22,9.49,0,0,0,.09,0,.06a49.67,49.67,0,0,0,10.38-9.35A.15.15,0,0,0,689.92,362.3Z" style="fill:#263238"></path><path d="M690.47,348.69a107.13,107.13,0,0,1-10.25,14.09.06.06,0,1,0,.09.08,49.48,49.48,0,0,0,10.34-14.06C690.71,348.68,690.54,348.57,690.47,348.69Z" style="fill:#263238"></path><polygon points="675.05 447.75 645.07 447.75 649.11 407.41 670.44 407.41 675.05 447.75" style="fill:#455a64"></polygon><polygon points="671.19 413.97 648.45 413.97 649.11 407.41 670.44 407.41 671.19 413.97" style="fill:#263238"></polygon><rect x="646.01" y="402.94" width="28.1" height="6.44" style="fill:#455a64"></rect></g></svg>