<?xml version="1.0" encoding="UTF-8" standalone="no"?>
<svg
   viewBox="0 0 665.01001 399.41"
   version="1.1"
   id="svg595"
   sodipodi:docname="static-website.svg"
   width="665.01001"
   height="399.41"
   inkscape:version="1.2.2 (1:1.2.2+202305151915+b0a8486541)"
   xmlns:inkscape="http://www.inkscape.org/namespaces/inkscape"
   xmlns:sodipodi="http://sodipodi.sourceforge.net/DTD/sodipodi-0.dtd"
   xmlns="http://www.w3.org/2000/svg"
   xmlns:svg="http://www.w3.org/2000/svg">
  <defs
     id="defs599" />
  <sodipodi:namedview
     id="namedview597"
     pagecolor="#ffffff"
     bordercolor="#666666"
     borderopacity="1.0"
     inkscape:showpageshadow="2"
     inkscape:pageopacity="0.0"
     inkscape:pagecheckerboard="0"
     inkscape:deskcolor="#d1d1d1"
     showgrid="false"
     inkscape:zoom="1.596"
     inkscape:cx="199.5614"
     inkscape:cy="201.75439"
     inkscape:window-width="3440"
     inkscape:window-height="1391"
     inkscape:window-x="0"
     inkscape:window-y="0"
     inkscape:window-maximized="1"
     inkscape:current-layer="svg595" />
  <g
     id="freepik--background-complete--inject-31"
     transform="translate(-42.41,-48.34)">
    <path
       d="m 692.37,304.22 -13.12,0.28 -6.66,0.11 c -2.23,0.05 -4.47,0 -6.7,0.06 h -0.44 v -0.45 L 665.39,293 v -0.5 h 0.5 l 13.24,0.06 c 4.42,0 8.83,0.11 13.24,0.16 h 0.28 V 293 c 0,1.9 -0.08,3.79 -0.13,5.66 z m 0,0 -0.14,-5.65 c -0.05,-1.86 -0.11,-3.7 -0.13,-5.54 l 0.27,0.28 c -4.41,0.05 -8.82,0.16 -13.24,0.16 l -13.24,0.06 0.5,-0.5 v 11.19 l -0.45,-0.44 c 2.18,0 4.36,0 6.55,0.05 L 679,304 Z"
       style="fill:#ebebeb"
       id="path2" />
    <path
       d="m 677.6,318.33 -13.12,0.28 -6.67,0.11 c -2.22,0 -4.46,0 -6.69,0.06 h -0.44 v -0.45 -11.19 -0.5 h 0.5 l 13.24,0.07 c 4.41,0 8.83,0.11 13.24,0.16 h 0.28 v 0.27 c 0,1.9 -0.08,3.79 -0.13,5.66 z m 0,0 -0.14,-5.65 c -0.05,-1.86 -0.11,-3.7 -0.13,-5.54 l 0.27,0.28 c -4.41,0.05 -8.83,0.16 -13.24,0.16 l -13.24,0.06 0.5,-0.5 v 11.19 l -0.45,-0.44 c 2.18,0 4.36,0 6.55,0.05 l 6.57,0.12 z"
       style="fill:#ebebeb"
       id="path4" />
    <path
       d="m 707.14,318.33 -13.12,0.28 -6.66,0.11 c -2.23,0 -4.47,0 -6.7,0.06 h -0.44 v -0.45 l -0.06,-11.19 v -0.5 h 0.5 l 13.24,0.07 c 4.42,0 8.83,0.11 13.24,0.16 h 0.28 v 0.27 c 0,1.9 -0.09,3.79 -0.13,5.66 z m 0,0 -0.14,-5.65 c 0,-1.86 -0.11,-3.7 -0.13,-5.54 l 0.27,0.28 c -4.41,0.05 -8.82,0.16 -13.24,0.16 l -13.24,0.06 0.5,-0.5 v 11.19 l -0.45,-0.44 c 2.19,0 4.36,0 6.55,0.05 l 6.58,0.12 z"
       style="fill:#ebebeb"
       id="path6" />
    <path
       d="m 314.79,171.07 -13.12,0.28 -6.66,0.11 c -2.23,0 -4.47,0 -6.7,0 h -0.44 v -0.45 l -0.06,-11.19 v -0.5 h 0.5 l 13.24,0.06 c 4.42,0 8.83,0.11 13.24,0.16 h 0.28 v 0.27 c 0,1.9 -0.09,3.78 -0.14,5.65 z m 0,0 -0.14,-5.66 c 0,-1.86 -0.11,-3.7 -0.13,-5.53 l 0.27,0.27 c -4.41,0 -8.82,0.16 -13.24,0.16 l -13.24,0.07 0.5,-0.5 -0.05,11.19 -0.45,-0.45 c 2.18,0 4.36,0 6.55,0.06 l 6.58,0.11 z"
       style="fill:#ebebeb"
       id="path8" />
    <path
       d="m 300,185.18 -13.12,0.28 -6.67,0.11 c -2.22,0 -4.46,0 -6.69,0.05 h -0.44 v -0.45 L 273,174 v -0.5 h 0.5 l 13.24,0.06 c 4.41,0 8.83,0.11 13.24,0.16 h 0.28 V 174 c 0,1.9 -0.08,3.78 -0.13,5.65 z m 0,0 -0.14,-5.66 c -0.05,-1.86 -0.11,-3.7 -0.13,-5.53 l 0.27,0.27 c -4.41,0.05 -8.83,0.16 -13.24,0.16 l -13.24,0.07 0.5,-0.5 -0.02,11.19 -0.45,-0.45 c 2.18,0 4.36,0 6.55,0.06 l 6.57,0.11 z"
       style="fill:#ebebeb"
       id="path10" />
    <path
       d="m 329.56,185.18 -13.12,0.28 -6.66,0.11 c -2.23,0 -4.46,0 -6.7,0.05 h -0.44 v -0.45 L 302.58,174 v -0.5 h 0.5 l 13.24,0.06 c 4.42,0 8.83,0.11 13.24,0.16 h 0.28 V 174 c 0,1.9 -0.09,3.78 -0.13,5.65 z m 0,0 -0.14,-5.66 c 0,-1.86 -0.11,-3.7 -0.13,-5.53 l 0.27,0.27 c -4.41,0.05 -8.82,0.16 -13.24,0.16 l -13.24,0.07 0.5,-0.5 -0.05,11.19 -0.45,-0.45 c 2.19,0 4.36,0 6.55,0.06 l 6.58,0.11 z"
       style="fill:#ebebeb"
       id="path12" />
    <path
       d="m 98.88,245.11 -13.12,0.28 -6.67,0.11 c -2.22,0 -4.46,0 -6.69,0.05 H 72 v -0.45 -11.19 -0.5 h 0.5 l 13.24,0.06 c 4.41,0 8.83,0.11 13.24,0.16 h 0.28 v 0.27 c 0,1.9 -0.08,3.78 -0.13,5.65 z m 0,0 -0.14,-5.66 c 0,-1.86 -0.11,-3.7 -0.13,-5.53 l 0.27,0.27 c -4.41,0.05 -8.83,0.16 -13.24,0.16 l -13.24,0.07 0.5,-0.5 -0.05,11.19 -0.45,-0.45 c 2.18,0 4.36,0 6.55,0.06 l 6.57,0.11 z"
       style="fill:#ebebeb"
       id="path14" />
    <path
       d="m 537.86,171.06 -13.12,0.28 -6.66,0.11 c -2.23,0.05 -4.47,0 -6.7,0.05 h -0.44 v -0.45 l -0.06,-11.19 v -0.5 h 0.5 l 13.24,0.06 c 4.42,0 8.83,0.12 13.24,0.17 h 0.28 v 0.27 c 0,1.9 -0.08,3.79 -0.13,5.65 z m 0,0 -0.14,-5.65 c -0.05,-1.87 -0.11,-3.71 -0.13,-5.54 l 0.27,0.27 c -4.41,0.05 -8.82,0.16 -13.24,0.17 l -13.24,0.06 0.5,-0.5 -0.05,11.19 -0.45,-0.45 c 2.18,0 4.36,0 6.55,0.06 l 6.58,0.11 z"
       style="fill:#ebebeb"
       id="path16" />
    <path
       d="m 690.84,62.38 -13.12,0.28 -6.67,0.11 c -2.22,0 -4.46,0 -6.69,0.06 h -0.44 v -0.45 -11.19 -0.5 h 0.5 l 13.24,0.06 c 4.41,0 8.83,0.12 13.24,0.17 h 0.28 v 0.27 c 0,1.9 -0.08,3.79 -0.13,5.65 z m 0,0 -0.14,-5.65 c -0.05,-1.87 -0.11,-3.71 -0.13,-5.54 l 0.27,0.27 c -4.41,0 -8.83,0.16 -13.24,0.17 l -13.24,0.06 0.5,-0.5 -0.05,11.19 -0.45,-0.45 c 2.18,0 4.36,0 6.55,0.06 l 6.57,0.11 z"
       style="fill:#ebebeb"
       id="path18" />
    <path
       d="m 705.61,76.49 -13.12,0.28 -6.66,0.11 c -2.23,0.05 -4.47,0 -6.7,0.06 h -0.44 V 76.49 L 678.63,65.3 v -0.5 h 0.5 l 13.24,0.06 c 4.42,0 8.83,0.12 13.24,0.17 h 0.28 v 0.27 c 0,1.9 -0.09,3.79 -0.14,5.65 z m 0,0 -0.14,-5.65 c 0,-1.87 -0.11,-3.71 -0.13,-5.54 l 0.27,0.27 c -4.41,0.05 -8.82,0.16 -13.24,0.17 l -13.24,0.06 0.5,-0.5 v 11.19 l -0.45,-0.45 c 2.18,0 4.36,0 6.55,0.06 l 6.58,0.11 z"
       style="fill:#ebebeb"
       id="path20" />
    <path
       d="m 69.34,62.39 -13.13,0.28 -6.66,0.11 c -2.22,0 -4.46,0 -6.69,0.06 H 42.41 V 62.39 51.2 50.7 h 0.51 l 13.24,0.07 c 4.41,0 8.82,0.11 13.24,0.16 h 0.27 v 0.27 c 0,1.9 -0.09,3.79 -0.13,5.66 z m 0,0 -0.15,-5.65 c 0,-1.86 -0.11,-3.71 -0.13,-5.54 l 0.28,0.27 c -4.42,0.06 -8.83,0.16 -13.24,0.17 L 42.86,51.7 43.36,51.2 43.3,62.39 42.86,62 c 2.18,0 4.35,0 6.54,0 l 6.58,0.11 z"
       style="fill:#ebebeb"
       id="path22" />
    <path
       d="m 691.62,179.82 5.89,-9.49 -2.91,-1.8 a 2.66,2.66 0 0 1 -1.23,-2.5 15.53,15.53 0 0 0 0,-1.67 2.65,2.65 0 0 1 1.39,-2.41 l 3,-1.62 -5.28,-9.84 -3,1.61 a 2.64,2.64 0 0 1 -2.78,-0.18 c -0.45,-0.31 -0.93,-0.61 -1.42,-0.88 a 2.65,2.65 0 0 1 -1.4,-2.4 l 0.11,-3.42 -11.16,-0.35 -0.1,3.43 a 2.66,2.66 0 0 1 -1.56,2.31 l -0.73,0.37 c -0.25,0.13 -0.49,0.27 -0.72,0.41 a 2.63,2.63 0 0 1 -2.77,0 l -2.93,-1.81 -5.89,9.49 2.92,1.8 a 2.68,2.68 0 0 1 1.23,2.5 15.54,15.54 0 0 0 -0.06,1.67 2.64,2.64 0 0 1 -1.38,2.4 l -3,1.62 5.28,9.85 3,-1.62 a 2.66,2.66 0 0 1 2.77,0.18 15.7,15.7 0 0 0 1.41,0.87 2.62,2.62 0 0 1 1.4,2.41 l -0.1,3.42 11.16,0.35 0.11,-3.43 a 2.64,2.64 0 0 1 1.55,-2.3 l 0.74,-0.37 0.72,-0.41 a 2.65,2.65 0 0 1 2.78,0 z m -9.45,-7 a 9.15,9.15 0 1 1 3.74,-12.39 9.14,9.14 0 0 1 -3.74,12.34 z"
       style="fill:#ebebeb"
       id="path24" />
    <path
       d="m 157.21,377.9 -3.91,-6.78 -2.08,1.2 a 1.85,1.85 0 0 1 -1.95,-0.07 11,11 0 0 0 -1,-0.58 1.86,1.86 0 0 1 -1,-1.66 v -2.39 H 139.4 V 370 a 1.86,1.86 0 0 1 -1,1.66 c -0.35,0.18 -0.69,0.37 -1,0.58 a 1.85,1.85 0 0 1 -2,0.07 l -2.07,-1.2 -3.91,6.78 2.08,1.2 a 1.85,1.85 0 0 1 0.91,1.72 c 0,0.19 0,0.39 0,0.58 0,0.19 0,0.38 0,0.58 a 1.84,1.84 0 0 1 -0.9,1.71 l -2.09,1.21 3.91,6.78 2.08,-1.2 a 1.85,1.85 0 0 1 2,0.07 11,11 0 0 0 1,0.58 1.86,1.86 0 0 1 1,1.65 v 2.4 h 7.83 v -2.4 a 1.85,1.85 0 0 1 1,-1.65 c 0.34,-0.18 0.68,-0.37 1,-0.58 a 1.85,1.85 0 0 1 1.95,-0.07 l 2.08,1.2 3.91,-6.78 -2.08,-1.2 a 1.85,1.85 0 0 1 -0.91,-1.72 c 0,-0.19 0,-0.39 0,-0.58 0,-0.19 0,-0.39 0,-0.58 a 1.85,1.85 0 0 1 0.91,-1.72 z m -7.48,3.5 a 6.41,6.41 0 1 1 -6.41,-6.41 6.41,6.41 0 0 1 6.41,6.41 z"
       style="fill:#ebebeb"
       id="path26" />
    <path
       d="m 89.9,301.23 a 30.48,30.48 0 1 0 30.47,30.48 30.47,30.47 0 0 0 -30.47,-30.48 z m 0,44.7 a 14.23,14.23 0 1 1 14.23,-14.22 14.23,14.23 0 0 1 -14.23,14.22 z"
       style="fill:#ebebeb"
       id="path28" />
    <polygon
       points="84.69,294.2 95.11,294.2 95.76,302.5 84.04,302.5 "
       style="fill:#ebebeb"
       id="polygon30" />
    <polygon
       points="59.76,308.41 67.13,301.04 73.45,306.44 65.17,314.73 "
       style="fill:#ebebeb"
       id="polygon32" />
    <polygon
       points="52.18,336.08 52.18,325.66 60.47,325.01 60.47,336.73 "
       style="fill:#ebebeb"
       id="polygon34" />
    <polygon
       points="66.39,361 59.02,353.63 64.42,347.31 72.71,355.6 "
       style="fill:#ebebeb"
       id="polygon36" />
    <polygon
       points="94.06,368.59 83.63,368.59 82.98,360.29 94.7,360.29 "
       style="fill:#ebebeb"
       id="polygon38" />
    <polygon
       points="118.98,354.38 111.61,361.75 105.29,356.34 113.58,348.06 "
       style="fill:#ebebeb"
       id="polygon40" />
    <polygon
       points="126.56,326.71 126.56,337.13 118.27,337.78 118.27,326.06 "
       style="fill:#ebebeb"
       id="polygon42" />
    <polygon
       points="112.36,301.78 119.73,309.15 114.32,315.48 106.03,307.19 "
       style="fill:#ebebeb"
       id="polygon44" />
    <path
       d="m 93.87,118 c 0,-1.25 0.17,-4.58 0.17,-6 0,-6.08 -2.17,-8.83 -7.83,-9 -2.67,-0.16 -4.25,-1.74 -4.25,-4 0,-2.26 1.58,-3.83 4.25,-4 5.66,-0.22 7.79,-2.88 7.79,-9 0,-1.41 -0.17,-4.74 -0.17,-6 0,-8.08 3.41,-13.24 16.32,-16.07 2.58,-0.59 4.58,1 4.58,3.41 a 3.49,3.49 0 0 1 -2.33,3.41 c -8.08,2.5 -9.25,5.08 -9.25,10.75 0,1.66 0.17,4.41 0.17,6.16 0,6.49 -3.16,9.66 -8.66,11.41 5.58,1.83 8.66,4.91 8.66,11.41 0,1.74 -0.17,4.49 -0.17,6.16 0,5.66 1.17,8.24 9.25,10.74 a 3.49,3.49 0 0 1 2.33,3.41 c 0,2.42 -2,4 -4.58,3.42 C 97.28,131.34 93.87,126.17 93.87,118 Z"
       style="fill:#ebebeb"
       id="path46" />
    <path
       d="m 142.67,80 c 0,1.25 -0.17,4.58 -0.17,6 0,6.17 2.25,8.83 7.91,9.08 2.58,0.17 4.16,1.75 4.16,4 0,2.25 -1.58,3.83 -4.16,4 -5.66,0.17 -7.91,2.92 -7.91,9 0,1.41 0.17,4.74 0.17,6 0,8.16 -3.42,13.33 -16.33,16.16 -2.58,0.58 -4.57,-1 -4.57,-3.42 a 3.45,3.45 0 0 1 2.41,-3.41 c 8,-2.5 9.16,-5.08 9.16,-10.74 0,-1.67 -0.17,-4.42 -0.17,-6.16 0,-6.5 3.17,-9.66 8.66,-11.41 -5.58,-1.83 -8.66,-4.92 -8.66,-11.41 0,-1.75 0.17,-4.5 0.17,-6.16 0,-5.67 -1.17,-8.25 -9.16,-10.75 a 3.45,3.45 0 0 1 -2.41,-3.41 c 0,-2.41 2,-4 4.57,-3.41 12.91,2.76 16.33,7.92 16.33,16.04 z"
       style="fill:#ebebeb"
       id="path48" />
  </g>
  <g
     id="freepik--Floor--inject-31"
     transform="translate(-42.41,-48.34)">
    <polygon
       points="212.86,446.92 375,446.75 537.14,446.92 618.21,447.01 699.28,447.25 618.21,447.5 537.14,447.59 375,447.75 212.86,447.58 131.79,447.5 50.72,447.25 131.79,447.01 "
       style="fill:#263238"
       id="polygon51" />
  </g>
  <g
     id="freepik--Device--inject-31"
     transform="translate(-42.41,-48.34)">
    <rect
       x="100.11"
       y="427.23001"
       width="549.78003"
       height="20.02"
       style="fill:#c7c7c7"
       id="rect54" />
    <rect
       x="156.92"
       y="135.47"
       width="436.16"
       height="291.76001"
       style="fill:#dbdbdb"
       id="rect56" />
    <rect
       x="160.09"
       y="139.03"
       width="429.82999"
       height="284.64001"
       style="fill:#263238"
       id="rect58" />
    <rect
       x="179.12"
       y="157.32001"
       width="391.76001"
       height="248.05"
       style="fill:#455a64"
       id="rect60" />
    <rect
       x="179.12"
       y="166.87"
       width="84"
       height="238.50999"
       style="fill:#37474f"
       id="rect62" />
    <rect
       x="179.12"
       y="166.87"
       width="8.9899998"
       height="238.50999"
       style="fill:#455a64"
       id="rect64" />
    <rect
       x="188.11"
       y="248.44"
       width="75.019997"
       height="3.55"
       style="fill:#ffc727"
       id="rect66" />
    <rect
       x="196.47"
       y="178.71001"
       width="29.17"
       height="1.59"
       style="fill:#ffffff"
       id="rect68" />
    <polygon
       points="193.68,180 192.74,179 194.62,179 "
       style="fill:#ffffff"
       id="polygon70" />
    <rect
       x="198.81"
       y="184.60001"
       width="3.8699999"
       height="1.59"
       style="fill:#ffffff"
       id="rect72" />
    <polygon
       points="197.47,185.39 196.47,186.33 196.47,184.45 "
       style="fill:#ffffff"
       id="polygon74" />
    <rect
       x="198.81"
       y="190.49001"
       width="3.8699999"
       height="1.59"
       style="fill:#ffffff"
       id="rect76" />
    <polygon
       points="196.97,191.78 196.03,190.78 197.91,190.78 "
       style="fill:#ffffff"
       id="polygon78" />
    <rect
       x="198.81"
       y="196.38"
       width="3.8699999"
       height="1.59"
       style="fill:#ffffff"
       id="rect80" />
    <polygon
       points="196.97,197.68 196.03,196.67 197.91,196.67 "
       style="fill:#ffffff"
       id="polygon82" />
    <rect
       x="201.16"
       y="202.27"
       width="3.8699999"
       height="1.59"
       style="fill:#ffffff"
       id="rect84" />
    <polygon
       points="199.82,203.06 198.81,204 198.81,202.12 "
       style="fill:#ffffff"
       id="polygon86" />
    <rect
       x="203.50999"
       y="208.17"
       width="3.8699999"
       height="1.59"
       style="fill:#ffffff"
       id="rect88" />
    <polygon
       points="202.17,208.96 201.16,209.9 201.16,208.02 "
       style="fill:#ffffff"
       id="polygon90" />
    <rect
       x="203.50999"
       y="267.07001"
       width="3.8699999"
       height="1.59"
       style="fill:#ffffff"
       id="rect92" />
    <polygon
       points="202.17,267.86 201.16,268.8 201.16,266.92 "
       style="fill:#ffffff"
       id="polygon94" />
    <rect
       x="205.86"
       y="214.05"
       width="3.8699999"
       height="1.59"
       style="fill:#ffffff"
       id="rect96" />
    <polygon
       points="204.52,214.84 203.51,215.78 203.51,213.9 "
       style="fill:#ffffff"
       id="polygon98" />
    <rect
       x="205.86"
       y="261.17999"
       width="3.8699999"
       height="1.59"
       style="fill:#ffffff"
       id="rect100" />
    <polygon
       points="204.52,261.97 203.51,262.91 203.51,261.03 "
       style="fill:#ffffff"
       id="polygon102" />
    <rect
       x="208.21001"
       y="219.94"
       width="3.8699999"
       height="1.59"
       style="fill:#ffffff"
       id="rect104" />
    <polygon
       points="206.87,220.73 205.86,221.67 205.86,219.79 "
       style="fill:#ffffff"
       id="polygon106" />
    <rect
       x="208.21001"
       y="255.28"
       width="3.8699999"
       height="1.59"
       style="fill:#ffffff"
       id="rect108" />
    <polygon
       points="206.87,256.08 205.86,257.02 205.86,255.14 "
       style="fill:#ffffff"
       id="polygon110" />
    <rect
       x="210.56"
       y="225.84"
       width="3.8699999"
       height="1.59"
       style="fill:#ffffff"
       id="rect112" />
    <polygon
       points="209.22,226.63 208.21,227.57 208.21,225.69 "
       style="fill:#ffffff"
       id="polygon114" />
    <rect
       x="211"
       y="231.72"
       width="3.8699999"
       height="1.59"
       style="fill:#ffffff"
       id="rect116" />
    <polygon
       points="209.15,233.02 208.21,232.01 210.09,232.01 "
       style="fill:#ffffff"
       id="polygon118" />
    <rect
       x="211"
       y="237.61"
       width="3.8699999"
       height="1.59"
       style="fill:#ffffff"
       id="rect120" />
    <polygon
       points="209.15,238.91 208.21,237.9 210.09,237.9 "
       style="fill:#ffffff"
       id="polygon122" />
    <rect
       x="211"
       y="243.5"
       width="3.8699999"
       height="1.59"
       style="fill:#ffffff"
       id="rect124" />
    <polygon
       points="209.15,244.8 208.21,243.79 210.09,243.79 "
       style="fill:#ffffff"
       id="polygon126" />
    <rect
       x="211"
       y="249.39"
       width="3.8699999"
       height="1.59"
       style="fill:#ffffff"
       id="rect128" />
    <polygon
       points="209.15,250.69 208.21,249.68 210.09,249.68 "
       style="fill:#ffffff"
       id="polygon130" />
    <rect
       x="198.81"
       y="272.95999"
       width="3.8699999"
       height="1.59"
       style="fill:#ffffff"
       id="rect132" />
    <polygon
       points="197.47,273.75 196.47,274.69 196.47,272.81 "
       style="fill:#ffffff"
       id="polygon134" />
    <rect
       x="198.81"
       y="278.85001"
       width="3.8699999"
       height="1.59"
       style="fill:#ffffff"
       id="rect136" />
    <polygon
       points="196.97,280.15 196.03,279.14 197.91,279.14 "
       style="fill:#ffffff"
       id="polygon138" />
    <rect
       x="198.81"
       y="284.73999"
       width="3.8699999"
       height="1.59"
       style="fill:#ffffff"
       id="rect140" />
    <polygon
       points="196.97,286.04 196.03,285.03 197.91,285.03 "
       style="fill:#ffffff"
       id="polygon142" />
    <rect
       x="201.16"
       y="290.63"
       width="3.8699999"
       height="1.59"
       style="fill:#ffffff"
       id="rect144" />
    <polygon
       points="199.82,291.43 198.81,292.37 198.81,290.49 "
       style="fill:#ffffff"
       id="polygon146" />
    <rect
       x="203.50999"
       y="296.53"
       width="3.8699999"
       height="1.59"
       style="fill:#ffffff"
       id="rect148" />
    <polygon
       points="202.17,297.32 201.16,298.26 201.16,296.38 "
       style="fill:#ffffff"
       id="polygon150" />
    <rect
       x="203.50999"
       y="302.42001"
       width="3.8699999"
       height="1.59"
       style="fill:#ffffff"
       id="rect152" />
    <polygon
       points="202.17,303.22 201.16,304.16 201.16,302.28 "
       style="fill:#ffffff"
       id="polygon154" />
    <rect
       x="203.95"
       y="308.31"
       width="3.8699999"
       height="1.59"
       style="fill:#ffffff"
       id="rect156" />
    <polygon
       points="202.1,309.61 201.16,308.6 203.04,308.6 "
       style="fill:#ffffff"
       id="polygon158" />
    <rect
       x="203.95"
       y="314.20001"
       width="3.8699999"
       height="1.59"
       style="fill:#ffffff"
       id="rect160" />
    <polygon
       points="202.1,315.5 201.16,314.49 203.04,314.49 "
       style="fill:#ffffff"
       id="polygon162" />
    <rect
       x="203.95"
       y="320.09"
       width="3.8699999"
       height="1.59"
       style="fill:#ffffff"
       id="rect164" />
    <polygon
       points="202.1,321.39 201.16,320.38 203.04,320.38 "
       style="fill:#ffffff"
       id="polygon166" />
    <rect
       x="203.95"
       y="325.98001"
       width="3.8699999"
       height="1.59"
       style="fill:#ffffff"
       id="rect168" />
    <polygon
       points="202.1,327.28 201.16,326.27 203.04,326.27 "
       style="fill:#ffffff"
       id="polygon170" />
    <rect
       x="179.12"
       y="157.32001"
       width="391.76001"
       height="9.54"
       style="fill:#ffc727"
       id="rect172" />
    <path
       d="m 188.11,162.1 a 1.81,1.81 0 1 1 -1.81,-1.81 1.81,1.81 0 0 1 1.81,1.81 z"
       style="fill:#c7c7c7"
       id="path174" />
    <path
       d="m 195.48,162.1 a 1.81,1.81 0 1 1 -1.81,-1.81 1.81,1.81 0 0 1 1.81,1.81 z"
       style="fill:#ffffff"
       id="path176" />
    <path
       d="m 202.86,162.1 a 1.81,1.81 0 1 1 -1.81,-1.81 1.81,1.81 0 0 1 1.81,1.81 z"
       style="fill:#455a64"
       id="path178" />
    <rect
       x="282.85999"
       y="209.28"
       width="7.0700002"
       height="1.73"
       style="fill:#ebebeb"
       id="rect180" />
    <rect
       x="298.26001"
       y="209.28"
       width="156.67"
       height="1.73"
       style="fill:#ebebeb"
       id="rect182" />
    <rect
       x="459.28"
       y="209.28"
       width="13.42"
       height="1.73"
       style="fill:#ffc727"
       id="rect184" />
    <rect
       x="480.76001"
       y="250.25999"
       width="45.310001"
       height="1.73"
       style="fill:#ebebeb"
       id="rect186" />
    <rect
       x="475.62"
       y="209.28"
       width="66.519997"
       height="1.73"
       style="fill:#a6a6a6"
       id="rect188" />
    <rect
       x="282.85999"
       y="217.47"
       width="7.0700002"
       height="1.73"
       style="fill:#ebebeb"
       id="rect190" />
    <rect
       x="305.14999"
       y="217.47"
       width="53.209999"
       height="1.73"
       style="fill:#a6a6a6"
       id="rect192" />
    <rect
       x="457.45001"
       y="250.25999"
       width="20.129999"
       height="1.73"
       style="fill:#a6a6a6"
       id="rect194" />
    <rect
       x="298.26001"
       y="242.06"
       width="50.82"
       height="1.73"
       style="fill:#a6a6a6"
       id="rect196" />
    <rect
       x="305.14999"
       y="225.67"
       width="35.650002"
       height="1.73"
       style="fill:#ffc727"
       id="rect198" />
    <rect
       x="468.26001"
       y="233.86"
       width="67.540001"
       height="1.73"
       style="fill:#a6a6a6"
       id="rect200" />
    <rect
       x="387.39999"
       y="274.09"
       width="67.540001"
       height="1.73"
       style="fill:#a6a6a6"
       id="rect202" />
    <rect
       x="344.76001"
       y="225.67"
       width="132.53"
       height="1.73"
       style="fill:#a6a6a6"
       id="rect204" />
    <rect
       x="298.26001"
       y="250.25999"
       width="154.58"
       height="1.73"
       style="fill:#ffc727"
       id="rect206" />
    <rect
       x="361.70001"
       y="217.47"
       width="109.51"
       height="1.73"
       style="fill:#ebebeb"
       id="rect208" />
    <rect
       x="482.95999"
       y="225.67"
       width="22.92"
       height="1.73"
       style="fill:#ebebeb"
       id="rect210" />
    <rect
       x="282.85999"
       y="225.67"
       width="7.0700002"
       height="1.73"
       style="fill:#ebebeb"
       id="rect212" />
    <rect
       x="282.85999"
       y="233.86"
       width="7.0700002"
       height="1.73"
       style="fill:#a6a6a6"
       id="rect214" />
    <rect
       x="298.26001"
       y="233.86"
       width="41.77"
       height="1.73"
       style="fill:#ebebeb"
       id="rect216" />
    <rect
       x="305.14999"
       y="258.45001"
       width="41.77"
       height="1.73"
       style="fill:#ebebeb"
       id="rect218" />
    <rect
       x="458.64001"
       y="266.64999"
       width="58.32"
       height="1.73"
       style="fill:#ffc727"
       id="rect220" />
    <rect
       x="342.92999"
       y="266.64999"
       width="112.06"
       height="1.73"
       style="fill:#ebebeb"
       id="rect222" />
    <rect
       x="305.14999"
       y="266.64999"
       width="31.4"
       height="1.73"
       style="fill:#a6a6a6"
       id="rect224" />
    <rect
       x="351.95999"
       y="242.06"
       width="120.74"
       height="1.73"
       style="fill:#ebebeb"
       id="rect226" />
    <rect
       x="475.62"
       y="242.06"
       width="72.040001"
       height="1.73"
       style="fill:#ffc727"
       id="rect228" />
    <rect
       x="344.28"
       y="233.86"
       width="120.69"
       height="1.73"
       style="fill:#ffc727"
       id="rect230" />
    <rect
       x="282.85999"
       y="242.06"
       width="7.0700002"
       height="1.73"
       style="fill:#ebebeb"
       id="rect232" />
    <rect
       x="282.85999"
       y="250.25999"
       width="7.0700002"
       height="1.73"
       style="fill:#ebebeb"
       id="rect234" />
    <rect
       x="282.85999"
       y="258.45001"
       width="7.0700002"
       height="1.73"
       style="fill:#a6a6a6"
       id="rect236" />
    <rect
       x="282.85999"
       y="266.64999"
       width="7.0700002"
       height="1.73"
       style="fill:#ebebeb"
       id="rect238" />
    <rect
       x="282.85999"
       y="274.09"
       width="7.0700002"
       height="1.73"
       style="fill:#ebebeb"
       id="rect240" />
    <rect
       x="298.26001"
       y="274.09"
       width="82.870003"
       height="1.73"
       style="fill:#ebebeb"
       id="rect242" />
    <rect
       x="282.85999"
       y="282.29001"
       width="7.0700002"
       height="1.73"
       style="fill:#ebebeb"
       id="rect244" />
    <rect
       x="305.14999"
       y="282.29001"
       width="53.209999"
       height="1.73"
       style="fill:#a6a6a6"
       id="rect246" />
    <rect
       x="298.26001"
       y="306.87"
       width="50.82"
       height="1.73"
       style="fill:#a6a6a6"
       id="rect248" />
    <rect
       x="305.14999"
       y="290.48001"
       width="35.650002"
       height="1.73"
       style="fill:#ffc727"
       id="rect250" />
    <rect
       x="386.79999"
       y="323.26999"
       width="35.650002"
       height="1.73"
       style="fill:#ffc727"
       id="rect252" />
    <rect
       x="305.14999"
       y="339.66"
       width="35.650002"
       height="1.73"
       style="fill:#ffc727"
       id="rect254" />
    <rect
       x="344.76001"
       y="290.48001"
       width="132.53"
       height="1.73"
       style="fill:#a6a6a6"
       id="rect256" />
    <rect
       x="298.26001"
       y="315.07001"
       width="154.58"
       height="1.73"
       style="fill:#ffc727"
       id="rect258" />
    <rect
       x="361.70001"
       y="282.29001"
       width="109.51"
       height="1.73"
       style="fill:#ebebeb"
       id="rect260" />
    <rect
       x="471.51001"
       y="298.67999"
       width="22.879999"
       height="1.73"
       style="fill:#ebebeb"
       id="rect262" />
    <rect
       x="282.85999"
       y="290.48001"
       width="7.0700002"
       height="1.73"
       style="fill:#ebebeb"
       id="rect264" />
    <rect
       x="282.85999"
       y="298.67999"
       width="7.0700002"
       height="1.73"
       style="fill:#a6a6a6"
       id="rect266" />
    <rect
       x="298.26001"
       y="298.67999"
       width="41.77"
       height="1.73"
       style="fill:#ebebeb"
       id="rect268" />
    <rect
       x="351.95999"
       y="306.87"
       width="120.74"
       height="1.73"
       style="fill:#ebebeb"
       id="rect270" />
    <rect
       x="344.28"
       y="298.67999"
       width="120.69"
       height="1.73"
       style="fill:#ffc727"
       id="rect272" />
    <rect
       x="282.85999"
       y="306.87"
       width="7.0700002"
       height="1.73"
       style="fill:#ebebeb"
       id="rect274" />
    <rect
       x="282.85999"
       y="323.26999"
       width="7.0700002"
       height="1.73"
       style="fill:#ebebeb"
       id="rect276" />
    <rect
       x="298.26001"
       y="323.26999"
       width="82.870003"
       height="1.73"
       style="fill:#ebebeb"
       id="rect278" />
    <rect
       x="282.85999"
       y="331.45999"
       width="7.0700002"
       height="1.73"
       style="fill:#ebebeb"
       id="rect280" />
    <rect
       x="305.14999"
       y="331.45999"
       width="53.209999"
       height="1.73"
       style="fill:#a6a6a6"
       id="rect282" />
    <rect
       x="298.26001"
       y="356.04999"
       width="50.82"
       height="1.73"
       style="fill:#a6a6a6"
       id="rect284" />
    <rect
       x="344.76001"
       y="339.66"
       width="132.53"
       height="1.73"
       style="fill:#a6a6a6"
       id="rect286" />
    <rect
       x="471.51001"
       y="347.85001"
       width="22.879999"
       height="1.73"
       style="fill:#ebebeb"
       id="rect288" />
    <rect
       x="282.85999"
       y="339.66"
       width="7.0700002"
       height="1.73"
       style="fill:#ebebeb"
       id="rect290" />
    <rect
       x="282.85999"
       y="347.85001"
       width="7.0700002"
       height="1.73"
       style="fill:#a6a6a6"
       id="rect292" />
    <rect
       x="298.26001"
       y="347.85001"
       width="41.77"
       height="1.73"
       style="fill:#ebebeb"
       id="rect294" />
    <rect
       x="351.95999"
       y="356.04999"
       width="120.74"
       height="1.73"
       style="fill:#ebebeb"
       id="rect296" />
    <rect
       x="344.28"
       y="347.85001"
       width="120.69"
       height="1.73"
       style="fill:#ffc727"
       id="rect298" />
    <rect
       x="282.85999"
       y="356.04999"
       width="7.0700002"
       height="1.73"
       style="fill:#ebebeb"
       id="rect300" />
    <path
       d="m 287.22,193.44 a 0.6,0.6 0 0 1 0,0.87 0.59,0.59 0 0 1 -0.42,0.18 0.64,0.64 0 0 1 -0.45,-0.18 l -2.73,-2.76 c 0,0 0,0 0,-0.06 v 0 a 0.26,0.26 0 0 1 0,-0.08 v 0 c 0,0 0,-0.05 0,-0.06 0,-0.01 0,0 0,-0.05 v -0.07 c 0,0 0,0 0,-0.06 0,-0.06 0,0 0,-0.05 V 191 c 0,0 0,0 0,0 0,0 0,-0.05 0,-0.08 v 0 a 0.73,0.73 0 0 1 0.05,-0.09 c 0,0 0,0 0.05,-0.06 l 2.73,-2.77 a 0.63,0.63 0 0 1 0.87,0 0.6,0.6 0 0 1 0,0.87 l -2.3,2.32 z"
       style="fill:#ffc727"
       id="path302" />
    <path
       d="m 289.69,193.75 2.38,-5.65 a 0.54,0.54 0 0 1 0.71,-0.29 0.52,0.52 0 0 1 0.27,0.69 l -2.38,5.67 a 0.53,0.53 0 0 1 -0.49,0.32 0.48,0.48 0 0 1 -0.2,0 0.53,0.53 0 0 1 -0.29,-0.74 z"
       style="fill:#ffc727"
       id="path304" />
    <path
       d="m 297.74,191.47 v 0 c 0,0 0,0.05 -0.06,0.07 l -2.73,2.76 a 0.62,0.62 0 0 1 -0.44,0.18 0.62,0.62 0 0 1 -0.43,-1.05 l 2.3,-2.32 -2.3,-2.32 a 0.6,0.6 0 0 1 0,-0.87 0.63,0.63 0 0 1 0.87,0 l 2.73,2.77 c 0,0 0,0 0.06,0.06 0.06,0.06 0,0 0,0 a 0.9,0.9 0 0 1 0.05,0.09 v 0 a 0.47,0.47 0 0 0 0,0.09 c 0,0 0,0 0,0 v 0.06 c 0,0 0,0 0,0.05 v 0.13 c 0,0 0,0 0,0 a 0.92,0.92 0 0 0 0,0.09 c 0,0 0,0 0,0 z"
       style="fill:#ffc727"
       id="path306" />
  </g>
  <g
     id="freepik--Icons--inject-31"
     transform="translate(-42.41,-48.34)">
    <polygon
       points="118.26,144.11 156.7,144.11 169.25,156.66 169.25,210.71 118.26,210.71 "
       style="fill:#ffc727"
       id="polygon309" />
    <polygon
       points="118.26,144.11 156.7,144.11 169.25,156.66 169.25,210.71 118.26,210.71 "
       style="opacity:0.6;fill:#ffffff"
       id="polygon311" />
    <polygon
       points="156.7,144.11 169.25,156.66 156.7,156.66 "
       style="fill:#ffc727"
       id="polygon313" />
    <path
       d="m 130.05,167.58 a 3.8,3.8 0 1 0 3.79,-3.81 3.79,3.79 0 0 0 -3.79,3.81 z"
       style="fill:#ffc727"
       id="path315" />
    <polygon
       points="148.81,168.73 135.91,184.47 161.7,184.47 "
       style="fill:#ffc727"
       id="polygon317" />
    <polygon
       points="136.45,174.22 125.8,184.47 147.09,184.47 "
       style="fill:#ffc727"
       id="polygon319" />
    <polygon
       points="136.45,174.22 125.8,184.47 147.09,184.47 "
       style="opacity:0.1"
       id="polygon321" />
    <rect
       x="125.8"
       y="159.28"
       width="35.889999"
       height="25.190001"
       style="fill:none;stroke:#ffc727;stroke-width:2px;stroke-miterlimit:10"
       id="rect323" />
    <rect
       x="105.87"
       y="187.19"
       width="36.630001"
       height="15.16"
       style="fill:#455a64"
       id="rect325" />
    <path
       d="m 116.63,191.32 v 7.35 h -1.42 v -3.14 h -3.34 v 3.14 h -1.43 v -7.35 h 1.43 v 3 h 3.34 v -3 z"
       style="fill:#ffffff"
       id="path327" />
    <path
       d="m 123.65,192.57 h -2.35 v 6.1 h -1.41 v -6.1 h -2.35 v -1.25 h 6.11 z"
       style="fill:#ffffff"
       id="path329" />
    <path
       d="m 130.56,198.67 v -4.87 l -1.9,3.63 h -0.77 L 126,193.8 v 4.87 h -1.42 v -7.35 h 1.53 l 2.17,4.18 2.2,-4.18 H 132 v 7.35 z"
       style="fill:#ffffff"
       id="path331" />
    <path
       d="m 133.52,198.67 v -7.35 H 135 v 6.1 h 3.75 v 1.25 z"
       style="fill:#ffffff"
       id="path333" />
    <polygon
       points="118.2,224.94 156.69,224.94 169.25,237.5 169.25,291.61 118.2,291.61 "
       style="fill:#ffc727"
       id="polygon335" />
    <polygon
       points="118.2,224.94 156.69,224.94 169.25,237.5 169.25,291.61 118.2,291.61 "
       style="opacity:0.6;fill:#ffffff"
       id="polygon337" />
    <polygon
       points="156.69,224.94 169.25,237.5 156.69,237.5 "
       style="fill:#ffc727"
       id="polygon339" />
    <path
       d="m 130,248.43 a 3.81,3.81 0 1 0 3.8,-3.82 3.82,3.82 0 0 0 -3.8,3.82 z"
       style="fill:#ffc727"
       id="path341" />
    <polygon
       points="148.78,249.58 135.88,265.34 161.69,265.34 "
       style="fill:#ffc727"
       id="polygon343" />
    <polygon
       points="136.41,255.08 125.76,265.34 147.07,265.34 "
       style="fill:#ffc727"
       id="polygon345" />
    <polygon
       points="136.41,255.08 125.76,265.34 147.07,265.34 "
       style="opacity:0.1"
       id="polygon347" />
    <rect
       x="125.76"
       y="240.13"
       width="35.93"
       height="25.209999"
       style="fill:none;stroke:#ffc727;stroke-width:2px;stroke-miterlimit:10"
       id="rect349" />
    <rect
       x="105.81"
       y="268.06"
       width="36.66"
       height="15.17"
       style="fill:#455a64"
       id="rect351" />
    <path
       d="m 114.47,275.82 a 3.85,3.85 0 0 1 0.24,-1.33 3.65,3.65 0 0 1 0.71,-1.18 3.75,3.75 0 0 1 1.14,-0.84 3.58,3.58 0 0 1 1.53,-0.32 3.31,3.31 0 0 1 1.76,0.45 2.85,2.85 0 0 1 1.1,1.16 l -1.1,0.76 a 1.73,1.73 0 0 0 -0.79,-0.86 1.91,1.91 0 0 0 -0.5,-0.19 2.94,2.94 0 0 0 -0.51,-0.05 2,2 0 0 0 -0.94,0.21 2.27,2.27 0 0 0 -0.66,0.57 2.36,2.36 0 0 0 -0.4,0.79 3,3 0 0 0 0,1.81 2.52,2.52 0 0 0 0.44,0.79 2.18,2.18 0 0 0 0.69,0.55 1.81,1.81 0 0 0 0.87,0.21 2.37,2.37 0 0 0 0.52,-0.06 1.87,1.87 0 0 0 0.51,-0.2 1.52,1.52 0 0 0 0.45,-0.35 1.69,1.69 0 0 0 0.34,-0.51 l 1.17,0.67 a 2.19,2.19 0 0 1 -0.51,0.73 3,3 0 0 1 -0.73,0.54 4.21,4.21 0 0 1 -0.88,0.33 3.59,3.59 0 0 1 -0.91,0.11 3.17,3.17 0 0 1 -1.44,-0.33 3.81,3.81 0 0 1 -1.12,-0.86 4,4 0 0 1 -0.74,-1.22 3.67,3.67 0 0 1 -0.24,-1.38 z"
       style="fill:#ffffff"
       id="path353" />
    <path
       d="m 126.4,274.12 a 1.48,1.48 0 0 0 -0.26,-0.2 4,4 0 0 0 -1.06,-0.44 2.44,2.44 0 0 0 -0.66,-0.08 1.52,1.52 0 0 0 -0.88,0.21 0.74,0.74 0 0 0 -0.29,0.62 0.62,0.62 0 0 0 0.11,0.37 1.09,1.09 0 0 0 0.32,0.27 3,3 0 0 0 0.52,0.2 c 0.21,0.07 0.46,0.13 0.73,0.2 0.27,0.07 0.69,0.2 1,0.31 a 2.57,2.57 0 0 1 0.75,0.42 1.68,1.68 0 0 1 0.47,0.59 2,2 0 0 1 0.17,0.86 2.12,2.12 0 0 1 -0.23,1 2,2 0 0 1 -0.6,0.68 2.64,2.64 0 0 1 -0.87,0.38 4.93,4.93 0 0 1 -1,0.11 5.76,5.76 0 0 1 -1.64,-0.24 5,5 0 0 1 -1.45,-0.71 l 0.63,-1.23 a 2.92,2.92 0 0 0 0.34,0.24 5.29,5.29 0 0 0 1.31,0.56 3.31,3.31 0 0 0 0.83,0.1 c 0.79,0 1.18,-0.25 1.18,-0.76 a 0.6,0.6 0 0 0 -0.13,-0.4 1.1,1.1 0 0 0 -0.39,-0.29 3.61,3.61 0 0 0 -0.6,-0.23 l -0.79,-0.23 a 6.41,6.41 0 0 1 -0.91,-0.31 2.41,2.41 0 0 1 -0.65,-0.41 1.5,1.5 0 0 1 -0.39,-0.54 2,2 0 0 1 -0.13,-0.73 2.25,2.25 0 0 1 0.21,-1 2.16,2.16 0 0 1 0.57,-0.73 2.69,2.69 0 0 1 0.86,-0.44 3.51,3.51 0 0 1 1,-0.15 4,4 0 0 1 1.43,0.25 5.51,5.51 0 0 1 1.1,0.63 z"
       style="fill:#ffffff"
       id="path355" />
    <path
       d="m 132.76,274.12 a 2.34,2.34 0 0 0 -0.27,-0.2 3.62,3.62 0 0 0 -1.06,-0.44 2.36,2.36 0 0 0 -0.65,-0.08 1.48,1.48 0 0 0 -0.88,0.21 0.72,0.72 0 0 0 -0.29,0.62 0.62,0.62 0 0 0 0.1,0.37 1.09,1.09 0 0 0 0.32,0.27 3,3 0 0 0 0.52,0.2 c 0.21,0.07 0.46,0.13 0.73,0.2 0.27,0.07 0.69,0.2 1,0.31 a 2.45,2.45 0 0 1 0.75,0.42 1.68,1.68 0 0 1 0.47,0.59 2,2 0 0 1 0.17,0.86 2.12,2.12 0 0 1 -0.23,1 1.78,1.78 0 0 1 -0.6,0.68 2.64,2.64 0 0 1 -0.87,0.38 4.85,4.85 0 0 1 -1,0.11 5.76,5.76 0 0 1 -1.64,-0.24 5.15,5.15 0 0 1 -1.45,-0.71 l 0.64,-1.23 a 2,2 0 0 0 0.33,0.24 6.18,6.18 0 0 0 0.58,0.3 4.45,4.45 0 0 0 0.73,0.26 3.31,3.31 0 0 0 0.83,0.1 c 0.79,0 1.18,-0.25 1.18,-0.76 a 0.6,0.6 0 0 0 -0.13,-0.4 1.16,1.16 0 0 0 -0.38,-0.29 4.15,4.15 0 0 0 -0.61,-0.23 l -0.78,-0.23 a 6.15,6.15 0 0 1 -0.92,-0.31 2.41,2.41 0 0 1 -0.65,-0.41 1.5,1.5 0 0 1 -0.39,-0.54 2,2 0 0 1 -0.13,-0.73 2.25,2.25 0 0 1 0.21,-1 2.07,2.07 0 0 1 0.58,-0.73 2.64,2.64 0 0 1 0.85,-0.44 3.6,3.6 0 0 1 1,-0.15 3.91,3.91 0 0 1 1.43,0.25 5.51,5.51 0 0 1 1.14,0.57 z"
       style="fill:#ffffff"
       id="path357" />
    <line
       x1="113.39"
       y1="257.59"
       x2="112.39"
       y2="257.59"
       style="fill:none;stroke:#263238;stroke-width:0.75px;stroke-miterlimit:10"
       id="line359" />
    <line
       x1="110.56"
       y1="257.59"
       x2="104.16"
       y2="257.59"
       style="fill:none;stroke:#263238;stroke-width:0.75px;stroke-miterlimit:10;stroke-dasharray:1.82945, 1.82945"
       id="line361" />
    <polyline
       points="103.25 257.59 102.25 257.59 102.25 256.59"
       style="fill:none;stroke:#263238;stroke-width:0.75px;stroke-miterlimit:10"
       id="polyline363" />
    <line
       x1="102.25"
       y1="254.61"
       x2="102.25"
       y2="168.46001"
       style="fill:none;stroke:#263238;stroke-width:0.75px;stroke-miterlimit:10;stroke-dasharray:1.98047, 1.98047"
       id="line365" />
    <polyline
       points="102.25 167.47 102.25 166.47 103.25 166.47"
       style="fill:none;stroke:#263238;stroke-width:0.75px;stroke-miterlimit:10"
       id="polyline367" />
    <line
       x1="104.86"
       y1="166.47"
       x2="110.53"
       y2="166.47"
       style="fill:none;stroke:#263238;stroke-width:0.75px;stroke-miterlimit:10;stroke-dasharray:1.61751, 1.61751"
       id="line369" />
    <line
       x1="111.33"
       y1="166.47"
       x2="112.33"
       y2="166.47"
       style="fill:none;stroke:#263238;stroke-width:0.75px;stroke-miterlimit:10"
       id="line371" />
    <path
       d="m 113.34,256.46 a 1.13,1.13 0 1 1 -1.13,1.13 1.14,1.14 0 0 1 1.13,-1.13 z"
       style="fill:#263238"
       id="path373" />
    <circle
       cx="112.28"
       cy="166.47"
       r="1.13"
       style="fill:#263238"
       id="circle375" />
    <polyline
       points="102.25 211.97 90.01 211.97 90.01 107.64 220.83 107.64"
       style="fill:none;stroke:#263238;stroke-width:0.75px;stroke-miterlimit:10;stroke-dasharray:2, 2"
       id="polyline377" />
    <polygon
       points="220.39,106.14 220.39,109.13 222.98,107.64 "
       style="fill:#263238"
       id="polygon379" />
  </g>
  <g
     id="freepik--Window--inject-31"
     transform="translate(-42.41,-48.34)">
    <rect
       x="309.01999"
       y="78.769997"
       width="378.73001"
       height="239.8"
       style="fill:#ffffff"
       id="rect382" />
    <path
       d="m 687.87,318.69 h -379 v -240 h 379 z M 309.14,318.44 H 687.62 V 78.89 H 309.14 Z"
       style="fill:#263238"
       id="path384" />
    <rect
       x="309.01999"
       y="78.769997"
       width="378.73001"
       height="9.2299995"
       style="fill:#ffc727"
       id="rect386" />
    <path
       d="m 317.7,83.38 a 1.75,1.75 0 1 1 -1.7,-1.74 1.74,1.74 0 0 1 1.7,1.74 z"
       style="fill:#c7c7c7"
       id="path388" />
    <path
       d="m 324.83,83.38 a 1.75,1.75 0 1 1 -1.74,-1.74 1.74,1.74 0 0 1 1.74,1.74 z"
       style="fill:#ffffff"
       id="path390" />
    <path
       d="m 332,83.38 a 1.75,1.75 0 1 1 -1.74,-1.74 1.74,1.74 0 0 1 1.74,1.74 z"
       style="fill:#455a64"
       id="path392" />
    <rect
       x="319.79001"
       y="87.989998"
       width="28"
       height="124.39"
       style="fill:#ebebeb"
       id="rect394" />
    <rect
       x="332.51001"
       y="103.33"
       width="331.75"
       height="30.129999"
       style="fill:#ffc727"
       id="rect396" />
    <rect
       x="347.79001"
       y="114.99"
       width="7.6399999"
       height="1.24"
       style="fill:#ffffff"
       id="rect398" />
    <rect
       x="347.79001"
       y="120.56"
       width="7.6399999"
       height="1.24"
       style="fill:#ffffff"
       id="rect400" />
    <rect
       x="347.79001"
       y="117.81"
       width="7.6399999"
       height="1.24"
       style="fill:#ffffff"
       id="rect402" />
    <rect
       x="372.51999"
       y="113.87"
       width="73.540001"
       height="9.0600004"
       style="fill:#ffffff"
       id="rect404" />
    <path
       d="m 446.15,123 h -73.72 v -9.25 h 73.72 z"
       style="fill:#ffffff"
       id="path406" />
    <rect
       x="436.89999"
       y="113.77"
       width="9.25"
       height="9.25"
       style="fill:#455a64"
       id="rect408" />
    <path
       d="m 444.4,120.94 -0.84,0.63 -1.55,-2 -0.56,-0.75 a 1.5,1.5 0 0 0 0.32,-0.19 1.34,1.34 0 0 0 0.43,-0.55 l 0.6,0.79 z"
       style="fill:#ffffff"
       id="path410" />
    <path
       d="m 442.75,116.12 a 2.28,2.28 0 1 0 -0.74,3.41 2.2,2.2 0 0 0 0.32,-0.21 2.18,2.18 0 0 0 0.47,-0.49 2.27,2.27 0 0 0 -0.05,-2.71 z m -1,2.47 a 1.5,1.5 0 0 1 -0.32,0.19 1.37,1.37 0 0 1 -1.34,-2.36 1.37,1.37 0 0 1 2.11,1.58 1.34,1.34 0 0 1 -0.43,0.59 z"
       style="fill:#ffffff"
       id="path412" />
    <rect
       x="374.42001"
       y="115.65"
       width="0.49000001"
       height="5.5"
       style="fill:#c7c7c7"
       id="rect414" />
    <rect
       x="617.15002"
       y="117.02"
       width="31.780001"
       height="2.76"
       style="fill:#ffffff"
       id="rect416" />
    <rect
       x="568.38"
       y="117.02"
       width="31.780001"
       height="2.76"
       style="fill:#ffffff"
       id="rect418" />
    <rect
       x="519.60999"
       y="117.02"
       width="31.780001"
       height="2.76"
       style="opacity:0.1"
       id="rect420" />
    <rect
       x="470.84"
       y="117.02"
       width="31.780001"
       height="2.76"
       style="fill:#ffffff"
       id="rect422" />
    <rect
       x="309.01999"
       y="227.34"
       width="378.73001"
       height="30.129999"
       style="fill:#ffc727"
       id="rect424" />
    <rect
       x="332.51001"
       y="271.70001"
       width="73.300003"
       height="3.3900001"
       style="fill:#455a64"
       id="rect426" />
    <polygon
       points="356.03,283.03 379.55,282.94 403.07,283.03 414.83,283.13 426.59,283.32 414.83,283.5 403.07,283.61 379.55,283.69 356.03,283.61 344.27,283.5 332.51,283.32 344.27,283.14 "
       style="fill:#a6a6a6"
       id="polygon428" />
    <polygon
       points="356.03,287.66 379.55,287.57 403.07,287.65 414.83,287.76 426.59,287.94 414.83,288.13 403.07,288.23 379.55,288.32 356.03,288.23 344.27,288.13 332.51,287.94 344.27,287.76 "
       style="fill:#a6a6a6"
       id="polygon430" />
    <polygon
       points="356.03,292.28 379.55,292.19 403.07,292.28 414.83,292.39 426.59,292.57 414.83,292.75 403.07,292.86 379.55,292.94 356.03,292.86 344.27,292.75 332.51,292.57 344.27,292.39 "
       style="fill:#a6a6a6"
       id="polygon432" />
    <polygon
       points="356.03,296.91 379.55,296.82 403.07,296.91 414.83,297.01 426.59,297.19 414.83,297.38 403.07,297.48 379.55,297.57 356.03,297.48 344.27,297.38 332.51,297.19 344.27,297.01 "
       style="fill:#a6a6a6"
       id="polygon434" />
    <path
       d="m 332.51,301.82 c 3.92,-0.15 7.84,-0.23 11.76,-0.29 l 11.76,-0.08 11.76,0.08 c 3.92,0.06 7.84,0.13 11.76,0.29 -3.92,0.16 -7.84,0.23 -11.76,0.29 L 356,302.2 344.24,302.11 c -3.89,-0.06 -7.81,-0.11 -11.73,-0.29 z"
       style="fill:#a6a6a6"
       id="path436" />
    <rect
       x="451.34"
       y="271.70001"
       width="73.300003"
       height="3.3900001"
       style="fill:#455a64"
       id="rect438" />
    <polygon
       points="474.86,283.03 498.38,282.94 521.9,283.03 533.66,283.13 545.42,283.32 533.66,283.5 521.9,283.61 498.38,283.69 474.86,283.61 463.1,283.5 451.34,283.32 463.1,283.14 "
       style="fill:#a6a6a6"
       id="polygon440" />
    <polygon
       points="474.86,287.66 498.38,287.57 521.9,287.65 533.66,287.76 545.42,287.94 533.66,288.13 521.9,288.23 498.38,288.32 474.86,288.23 463.1,288.13 451.34,287.94 463.1,287.76 "
       style="fill:#a6a6a6"
       id="polygon442" />
    <polygon
       points="474.86,292.28 498.38,292.19 521.9,292.28 533.66,292.39 545.42,292.57 533.66,292.75 521.9,292.86 498.38,292.94 474.86,292.86 463.1,292.75 451.34,292.57 463.1,292.39 "
       style="fill:#a6a6a6"
       id="polygon444" />
    <polygon
       points="474.86,296.91 498.38,296.82 521.9,296.91 533.66,297.01 545.42,297.19 533.66,297.38 521.9,297.48 498.38,297.57 474.86,297.48 463.1,297.38 451.34,297.19 463.1,297.01 "
       style="fill:#a6a6a6"
       id="polygon446" />
    <path
       d="m 451.34,301.82 c 3.92,-0.15 7.84,-0.23 11.76,-0.29 l 11.76,-0.08 11.76,0.08 c 3.92,0.06 7.84,0.13 11.76,0.29 -3.92,0.16 -7.84,0.23 -11.76,0.29 l -11.76,0.09 -11.76,-0.09 c -3.92,-0.06 -7.84,-0.11 -11.76,-0.29 z"
       style="fill:#a6a6a6"
       id="path448" />
    <rect
       x="570.16998"
       y="271.70001"
       width="73.300003"
       height="3.3900001"
       style="fill:#455a64"
       id="rect450" />
    <polygon
       points="593.69,283.03 617.21,282.94 640.74,283.03 652.5,283.13 664.26,283.32 652.5,283.5 640.74,283.61 617.21,283.69 593.69,283.61 581.93,283.5 570.17,283.32 581.93,283.14 "
       style="fill:#a6a6a6"
       id="polygon452" />
    <polygon
       points="593.69,287.66 617.21,287.57 640.74,287.65 652.5,287.76 664.26,287.94 652.5,288.13 640.74,288.23 617.21,288.32 593.69,288.23 581.93,288.13 570.17,287.94 581.93,287.76 "
       style="fill:#a6a6a6"
       id="polygon454" />
    <polygon
       points="593.69,292.28 617.21,292.19 640.74,292.28 652.5,292.39 664.26,292.57 652.5,292.75 640.74,292.86 617.21,292.94 593.69,292.86 581.93,292.75 570.17,292.57 581.93,292.39 "
       style="fill:#a6a6a6"
       id="polygon456" />
    <polygon
       points="593.69,296.91 617.21,296.82 640.74,296.91 652.5,297.01 664.26,297.19 652.5,297.38 640.74,297.48 617.21,297.57 593.69,297.48 581.93,297.38 570.17,297.19 581.93,297.01 "
       style="fill:#a6a6a6"
       id="polygon458" />
    <path
       d="m 570.17,301.82 c 3.92,-0.15 7.84,-0.23 11.76,-0.29 l 11.76,-0.08 11.76,0.08 c 3.92,0.06 7.84,0.13 11.76,0.29 -3.92,0.16 -7.84,0.23 -11.76,0.29 l -11.76,0.09 -11.76,-0.09 C 578,302.05 574.09,302 570.17,301.82 Z"
       style="fill:#a6a6a6"
       id="path460" />
    <rect
       x="374.22"
       y="152.05"
       width="64.099998"
       height="64.099998"
       transform="rotate(180,406.27,184.1)"
       style="fill:#ebebeb"
       id="rect462" />
    <rect
       x="377.98999"
       y="155.82001"
       width="56.560001"
       height="56.560001"
       transform="rotate(180,406.27,184.1)"
       style="fill:#455a64"
       id="rect464" />
    <path
       d="m 387.1,169.31 a 5.34,5.34 0 1 0 4.19,-4.19 5.34,5.34 0 0 0 -4.19,4.19 z"
       style="fill:#37474f"
       id="path466" />
    <polygon
       points="414.11,174.78 393.67,197.7 434.55,197.7 "
       style="fill:#37474f"
       id="polygon468" />
    <polygon
       points="394.86,182.77 377.99,197.7 411.74,197.7 "
       style="fill:#263238"
       id="polygon470" />
    <rect
       x="377.98999"
       y="197.7"
       width="56.560001"
       height="14.68"
       style="fill:#263238"
       id="rect472" />
    <rect
       x="558.44"
       y="152.05"
       width="64.099998"
       height="64.099998"
       transform="rotate(180,590.495,184.1)"
       style="fill:#ebebeb"
       id="rect474" />
    <rect
       x="562.21002"
       y="155.82001"
       width="56.560001"
       height="56.560001"
       transform="rotate(180,590.495,184.1)"
       style="fill:#455a64"
       id="rect476" />
    <path
       d="m 571.33,169.31 a 5.33,5.33 0 1 0 4.19,-4.19 5.33,5.33 0 0 0 -4.19,4.19 z"
       style="fill:#37474f"
       id="path478" />
    <polygon
       points="598.34,174.78 577.9,197.7 618.78,197.7 "
       style="fill:#37474f"
       id="polygon480" />
    <polygon
       points="579.09,182.77 562.21,197.7 595.96,197.7 "
       style="fill:#263238"
       id="polygon482" />
    <rect
       x="562.21002"
       y="197.7"
       width="56.560001"
       height="14.68"
       style="fill:#263238"
       id="rect484" />
    <rect
       x="466.32999"
       y="152.05"
       width="64.110001"
       height="64.099998"
       transform="rotate(180,498.38,184.1)"
       style="fill:#ebebeb"
       id="rect486" />
    <rect
       x="470.10001"
       y="155.82001"
       width="56.560001"
       height="56.560001"
       transform="rotate(180,498.38,184.1)"
       style="fill:#ffc727"
       id="rect488" />
    <path
       d="m 479.21,169.31 a 5.34,5.34 0 1 0 4.19,-4.19 5.34,5.34 0 0 0 -4.19,4.19 z"
       style="opacity:0.1"
       id="path490" />
    <polygon
       points="506.22,174.78 485.78,197.7 526.66,197.7 "
       style="opacity:0.1"
       id="polygon492" />
    <polygon
       points="486.98,182.77 470.1,197.7 503.85,197.7 "
       style="fill:#ffc727"
       id="polygon494" />
    <g
       style="opacity:0.2"
       id="g498">
      <polygon
         points="486.98,182.77 470.1,197.7 503.85,197.7 "
         id="polygon496" />
    </g>
    <rect
       x="470.10001"
       y="197.7"
       width="56.560001"
       height="14.68"
       style="fill:#ffc727"
       id="rect500" />
    <rect
       x="470.10001"
       y="197.7"
       width="56.560001"
       height="14.68"
       style="opacity:0.2"
       id="rect502" />
    <polygon
       points="409.29,235.18 440.6,235.09 471.9,235.18 487.55,235.28 503.21,235.47 487.55,235.65 471.9,235.76 440.6,235.84 409.29,235.76 393.64,235.65 377.99,235.47 393.64,235.29 "
       style="fill:#ffffff"
       id="polygon504" />
    <polygon
       points="409.29,239.81 440.6,239.72 471.9,239.81 487.55,239.91 503.21,240.09 487.55,240.28 471.9,240.38 440.6,240.47 409.29,240.38 393.64,240.28 377.99,240.09 393.64,239.91 "
       style="fill:#ffffff"
       id="polygon506" />
    <polygon
       points="409.29,244.43 440.6,244.35 471.9,244.43 487.55,244.54 503.21,244.72 487.55,244.9 471.9,245.01 440.6,245.09 409.29,245.01 393.64,244.9 377.99,244.72 393.64,244.54 "
       style="fill:#ffffff"
       id="polygon508" />
    <path
       d="m 378,249.35 c 5.21,-0.16 10.43,-0.23 15.65,-0.29 l 15.65,-0.09 15.65,0.09 c 5.22,0.06 10.44,0.13 15.66,0.29 -5.22,0.15 -10.44,0.22 -15.66,0.28 l -15.65,0.09 -15.65,-0.09 C 388.42,249.57 383.2,249.5 378,249.35 Z"
       style="fill:#ffffff"
       id="path510" />
    <polygon
       points="332.62,242.08 337.08,247 337.08,237.82 "
       style="fill:#ffffff"
       id="polygon512" />
    <polygon
       points="664.38,242.74 659.92,237.82 659.92,247 "
       style="fill:#ffffff"
       id="polygon514" />
  </g>
  <g
     id="freepik--Gears--inject-31"
     transform="translate(-42.41,-48.34)">
    <path
       d="m 251.67,101.18 a 19.45,19.45 0 1 0 19.44,-19.45 19.47,19.47 0 0 0 -19.44,19.45 z m 4.14,0 a 15.31,15.31 0 1 1 15.3,15.3 15.3,15.3 0 0 1 -15.3,-15.3 z m -4.14,0 a 19.45,19.45 0 1 0 19.44,-19.45 19.47,19.47 0 0 0 -19.44,19.45 z m 4.14,0 a 15.31,15.31 0 1 1 15.3,15.3 15.3,15.3 0 0 1 -15.3,-15.3 z m -17.47,0 a 32.78,32.78 0 1 0 32.77,-32.79 32.77,32.77 0 0 0 -32.77,32.79 z m 11.47,0 a 21.31,21.31 0 1 1 21.3,21.31 21.34,21.34 0 0 1 -21.3,-21.31 z m 1.86,0 a 19.45,19.45 0 1 0 19.44,-19.45 19.47,19.47 0 0 0 -19.44,19.45 z m 4.14,0 a 15.31,15.31 0 1 1 15.3,15.3 15.3,15.3 0 0 1 -15.3,-15.3 z"
       style="fill:#ffc727"
       id="path517" />
    <polygon
       points="274.02,61.5 268.01,61.5 267.27,68.99 274.77,68.99 "
       style="fill:#ffc727"
       id="polygon519" />
    <polygon
       points="293.47,68.27 288.27,65.26 283.88,71.38 290.38,75.13 "
       style="fill:#ffc727"
       id="polygon521" />
    <polygon
       points="306.93,83.85 303.93,78.65 297.07,81.75 300.82,88.25 "
       style="fill:#ffc727"
       id="polygon523" />
    <polygon
       points="310.79,104.08 310.79,98.07 303.3,97.32 303.3,104.83 "
       style="fill:#ffc727"
       id="polygon525" />
    <polygon
       points="304.02,123.53 307.03,118.33 300.92,113.93 297.16,120.43 "
       style="fill:#ffc727"
       id="polygon527" />
    <polygon
       points="288.44,136.99 293.64,133.98 290.54,127.12 284.04,130.88 "
       style="fill:#ffc727"
       id="polygon529" />
    <polygon
       points="268.21,140.85 274.22,140.85 274.97,133.36 267.46,133.36 "
       style="fill:#ffc727"
       id="polygon531" />
    <polygon
       points="248.76,134.08 253.97,137.09 258.36,130.97 251.86,127.22 "
       style="fill:#ffc727"
       id="polygon533" />
    <polygon
       points="235.3,118.49 238.31,123.7 245.17,120.6 241.41,114.1 "
       style="fill:#ffc727"
       id="polygon535" />
    <polygon
       points="231.44,98.27 231.44,104.28 238.93,105.02 238.93,97.52 "
       style="fill:#ffc727"
       id="polygon537" />
    <polygon
       points="238.21,78.82 235.2,84.02 241.32,88.42 245.07,81.92 "
       style="fill:#ffc727"
       id="polygon539" />
    <polygon
       points="253.8,65.36 248.59,68.36 251.69,75.22 258.19,71.47 "
       style="fill:#ffc727"
       id="polygon541" />
    <path
       d="M 189.31,71.4 A 19.08,19.08 0 1 0 208.88,52.83 19.07,19.07 0 0 0 189.31,71.4 Z m 10.16,0.27 a 8.91,8.91 0 1 1 8.67,9.14 8.91,8.91 0 0 1 -8.67,-9.14 z"
       style="fill:#ebebeb"
       id="path543" />
    <polygon
       points="212.26,48.52 205.74,48.34 205.2,53.52 212.53,53.72 "
       style="fill:#ebebeb"
       id="polygon545" />
    <polygon
       points="227.63,57.82 223.14,53.09 219.09,56.36 224.14,61.69 "
       style="fill:#ebebeb"
       id="polygon547" />
    <polygon
       points="231.91,75.26 232.09,68.74 226.91,68.2 226.71,75.53 "
       style="fill:#ebebeb"
       id="polygon549" />
    <polygon
       points="222.61,90.63 227.35,86.14 224.07,82.09 218.74,87.14 "
       style="fill:#ebebeb"
       id="polygon551" />
    <polygon
       points="205.17,94.92 211.69,95.09 212.23,89.91 204.9,89.71 "
       style="fill:#ebebeb"
       id="polygon553" />
    <polygon
       points="189.8,85.61 194.29,90.35 198.34,87.07 193.29,81.74 "
       style="fill:#ebebeb"
       id="polygon555" />
    <polygon
       points="185.52,68.17 185.34,74.69 190.52,75.23 190.72,67.9 "
       style="fill:#ebebeb"
       id="polygon557" />
    <polygon
       points="194.82,52.8 190.08,57.3 193.36,61.34 198.69,56.29 "
       style="fill:#ebebeb"
       id="polygon559" />
    <path
       d="m 213.45,67.23 -6.26,-1.86 -4.73,4.49 1.54,6.34 6.25,1.86 4.75,-4.49 z m -4.79,6.55 a 2.07,2.07 0 1 1 2.12,-2 2.07,2.07 0 0 1 -2.12,2 z"
       style="fill:#ebebeb"
       id="path561" />
    <polyline
       points="271.02 56.22 271.02 50.99 389.13 50.99 389.13 70.94"
       style="fill:none;stroke:#263238;stroke-width:0.75px;stroke-miterlimit:10;stroke-dasharray:2, 2"
       id="polyline563" />
    <polygon
       points="390.62,70.51 387.63,70.51 389.13,73.1 "
       style="fill:#263238"
       id="polygon565" />
  </g>
  <g
     id="freepik--Plant--inject-31"
     transform="translate(-42.41,-48.34)">
    <path
       d="m 655.12,373.36 a 60.6,60.6 0 0 1 1.93,10.9 c -0.1,0.18 -0.08,0.86 0,0.67 0,0.6 0.93,0.49 0.93,-0.1 0,-0.38 0,-0.77 0,-1.14 2.13,-2.65 5.23,-4.32 7.72,-6.62 a 14.39,14.39 0 0 0 4.23,-6.73 c 2.08,-7.14 0.13,-14.71 2.63,-21.84 2.15,-6.14 6,-11.48 9.26,-17.05 3.44,-5.88 6,-12.07 6.24,-19 0.2,-5.28 -0.43,-12.31 -4.45,-16.27 -4.26,-4.19 -9.54,-1.05 -12.81,2.69 -9.46,10.86 -13.84,24.58 -15.61,38.61 -1,7.77 -2,15.58 -1.75,23.42 a 63.35,63.35 0 0 0 1.68,12.46 z"
       style="fill:#ffc727"
       id="path568" />
    <path
       d="m 657,387.11 a 133.55,133.55 0 0 1 0.26,-22 c 0,0 0,0 0,-0.08 -0.12,-5.94 -0.59,-11.87 -0.36,-17.82 a 106.24,106.24 0 0 1 2.62,-19.12 c 0,-0.07 0.13,0 0.12,0 a 123.56,123.56 0 0 0 -2.07,18.7 c -0.12,3.36 -0.1,6.72 0.08,10.07 0.06,1.1 0.16,2.2 0.23,3.3 v 0 a 117.79,117.79 0 0 1 17.69,-46.82 c 0.13,-0.19 0.47,0 0.35,0.21 a 122.06,122.06 0 0 0 -14.4,34.72 c 4.55,-8.43 11.42,-15.37 16.52,-23.47 0,0 0.1,0 0.08,0.05 -4.58,9 -12.15,16.13 -17,25 -0.84,3.63 -1.53,7.28 -2,11 A 123,123 0 0 0 658,376 c 2.77,-5.18 5.64,-10.13 7.91,-15.61 0.06,-0.14 0.27,-0.05 0.22,0.1 -1.93,5.69 -4.52,11.82 -8.15,16.67 0,3.61 0.09,7.21 0.3,10.81 0.57,9.6 2.21,19.08 3,28.65 a 0.22,0.22 0 0 1 -0.44,0 218.21,218.21 0 0 1 -3.84,-29.51 z"
       style="fill:#263238"
       id="path570" />
    <path
       d="m 667.21,313 c 0,-0.07 0.13,0 0.1,0 -1.75,4.85 -2.74,9.77 -4,14.74 a 0.18248288,0.18248288 0 0 1 -0.36,-0.06 c 0.5,-4.96 2.31,-9.99 4.26,-14.68 z"
       style="fill:#263238"
       id="path572" />
    <path
       d="m 622.66,333.37 a 74.58,74.58 0 0 0 4,8.29 c 3.16,5.74 6.46,11 7,17.67 a 41.9,41.9 0 0 0 1.27,8.86 27.14,27.14 0 0 0 3.53,6.93 c 3.43,5 7.71,9.28 10.88,14.46 a 60.89,60.89 0 0 1 7.31,17.42 c 0.07,0.34 0.6,0.25 0.52,-0.09 0,0 0,-0.05 0,-0.07 a 0.16,0.16 0 0 0 0,-0.07 c 0.5,-14.33 -0.64,-28.76 -5,-42.48 a 147.18,147.18 0 0 0 -6.94,-17.67 41.76,41.76 0 0 0 -9.37,-13.48 c -2.67,-2.4 -8.45,-6.95 -12.24,-4.54 -1.81,1.16 -1.68,2.99 -0.96,4.77 z"
       style="fill:#ffc727"
       id="path574" />
    <path
       d="m 637.05,365.84 a 117.36,117.36 0 0 0 8.33,12 c 1.38,1.81 2.79,3.6 4.18,5.42 0.65,0.85 1.38,1.71 2,2.63 -0.38,-1.51 -0.74,-3 -1.13,-4.52 -1.85,-7.24 -3.62,-14.54 -6.38,-21.5 a 144.07,144.07 0 0 0 -9.94,-19.49 c -0.1,-0.17 0.17,-0.29 0.27,-0.13 3,5 6.1,9.95 8.64,15.2 a 79.85,79.85 0 0 1 3.67,9 139.66,139.66 0 0 0 -4.88,-19.26 c 0,-0.06 0.06,-0.1 0.08,0 a 65.88,65.88 0 0 1 5.07,20 v 0 q 0.93,2.79 1.72,5.63 c 2.26,8 4.24,16.11 6.08,24.23 a 86.83,86.83 0 0 0 -1.38,-15.92 c 0,-0.13 0.15,-0.15 0.18,0 a 50.54,50.54 0 0 1 1.39,16.79 c 0.69,3.09 1.37,6.19 2,9.28 1.4,6.6 3.13,13.32 4,20 a 0.14,0.14 0 0 1 -0.27,0 c -1,-3.61 -1.57,-7.36 -2.38,-11 -0.81,-3.64 -1.63,-7.33 -2.49,-11 q -1.86,-8 -3.87,-16 c -0.89,-1.95 -2.6,-3.68 -3.89,-5.31 -1.41,-1.79 -2.82,-3.58 -4.19,-5.4 a 79.89,79.89 0 0 1 -6.89,-10.67 c -0.08,0 0.03,-0.05 0.08,0.02 z"
       style="fill:#263238"
       id="path576" />
    <path
       d="m 636.44,359.72 a 74.33,74.33 0 0 1 8.15,12.94 c 0,0.06 -0.06,0.12 -0.1,0.06 -2.74,-4.29 -5.44,-8.62 -8.17,-12.92 -0.05,-0.07 0.07,-0.15 0.12,-0.08 z"
       style="fill:#263238"
       id="path578" />
    <path
       d="m 697.41,347 c -1.85,3.2 -4,7 -3.17,10.88 0.5,2.43 2.28,4.4 2.6,6.88 0.72,5.47 -4.73,9.08 -8.68,11.67 -9.83,6.45 -23.32,12.2 -25.11,25.38 -0.07,0.47 -0.87,0.35 -0.81,-0.11 0,0 0,0 0,-0.08 0,-0.08 0,0 0,-0.08 a 50.35,50.35 0 0 1 0.18,-20.13 c 1.47,-6.79 4.43,-12.89 7.93,-18.86 5.92,-10.1 12.19,-20.44 21.14,-28.17 2.48,-2.14 7.55,-6 9.52,-1.16 1.97,4.84 -1.32,9.84 -3.6,13.78 z"
       style="fill:#ffc727"
       id="path580" />
    <path
       d="m 688.41,368.36 c -6.52,7.06 -16.88,11 -22.5,18.92 a 79.15,79.15 0 0 1 17.3,-32.48 c 0.21,-0.24 -0.13,-0.59 -0.36,-0.36 a 64.11,64.11 0 0 0 -14.14,20.47 92.28,92.28 0 0 1 6.09,-15.56 c 0.09,-0.19 -0.18,-0.36 -0.29,-0.17 A 59.35,59.35 0 0 0 668,376.67 c -7.39,17.9 -8.08,38.9 -6.53,57.77 a 0.22,0.22 0 0 0 0.43,0 c -0.43,-14.87 -0.19,-30 3.38,-44.52 0.07,-0.31 0.15,-0.61 0.23,-0.91 6.11,-8.51 16.43,-12.45 23.07,-20.54 0.01,-0.07 -0.1,-0.19 -0.17,-0.11 z"
       style="fill:#263238"
       id="path582" />
    <path
       d="m 689.92,362.3 c -3.42,3.14 -6.79,6.35 -10.22,9.49 0,0 0,0.09 0,0.06 a 49.67,49.67 0 0 0 10.38,-9.35 0.15,0.15 0 0 0 -0.16,-0.2 z"
       style="fill:#263238"
       id="path584" />
    <path
       d="m 690.47,348.69 a 107.13,107.13 0 0 1 -10.25,14.09 0.06020797,0.06020797 0 1 0 0.09,0.08 49.48,49.48 0 0 0 10.34,-14.06 c 0.06,-0.12 -0.11,-0.23 -0.18,-0.11 z"
       style="fill:#263238"
       id="path586" />
    <polygon
       points="649.11,407.41 670.44,407.41 675.05,447.75 645.07,447.75 "
       style="fill:#455a64"
       id="polygon588" />
    <polygon
       points="649.11,407.41 670.44,407.41 671.19,413.97 648.45,413.97 "
       style="fill:#263238"
       id="polygon590" />
    <rect
       x="646.01001"
       y="402.94"
       width="28.1"
       height="6.4400001"
       style="fill:#455a64"
       id="rect592" />
  </g>
</svg>
