<?xml version="1.0" encoding="UTF-8" standalone="no"?>
<svg
   viewBox="0 0 392.20999 333.67908"
   version="1.1"
   id="svg1519"
   sodipodi:docname="writing.svg"
   width="392.20999"
   height="333.67908"
   inkscape:version="1.2.2 (1:1.2.2+202305151915+b0a8486541)"
   xmlns:inkscape="http://www.inkscape.org/namespaces/inkscape"
   xmlns:sodipodi="http://sodipodi.sourceforge.net/DTD/sodipodi-0.dtd"
   xmlns="http://www.w3.org/2000/svg"
   xmlns:svg="http://www.w3.org/2000/svg">
  <defs
     id="defs1523" />
  <sodipodi:namedview
     id="namedview1521"
     pagecolor="#ffffff"
     bordercolor="#666666"
     borderopacity="1.0"
     inkscape:showpageshadow="2"
     inkscape:pageopacity="0.0"
     inkscape:pagecheckerboard="0"
     inkscape:deskcolor="#d1d1d1"
     showgrid="false"
     inkscape:zoom="2.054"
     inkscape:cx="92.745862"
     inkscape:cy="118.7926"
     inkscape:window-width="3440"
     inkscape:window-height="1391"
     inkscape:window-x="0"
     inkscape:window-y="0"
     inkscape:window-maximized="1"
     inkscape:current-layer="svg1519" />
  <g
     id="freepik--Floor--inject-166"
     transform="translate(-53.619999,-131.05)">
    <path
       d="m 54.17,462.2 c 125.46,-0.62 266.2,-0.62 391.66,0 -125.46,0.61 -266.2,0.61 -391.66,0 z"
       style="fill:#263238"
       id="path1147" />
  </g>
  <g
     id="freepik--Lamp--inject-166"
     transform="translate(-53.619999,-131.05)">
    <rect
       x="118.1"
       y="178.03999"
       width="3.79"
       height="89.550003"
       style="fill:#263238"
       id="rect1150" />
    <polygon
       points="94.56,201.17 157.93,138.72 160.61,141.4 97.24,203.85 "
       style="fill:#263238"
       id="polygon1152" />
    <rect
       x="118.1"
       y="248.94"
       width="3.79"
       height="41.07"
       transform="rotate(-90,119.99,269.48)"
       style="fill:#263238"
       id="rect1154" />
    <polygon
       points="161.73,131.05 152.22,139.99 160.99,152.68 173.68,140.76 "
       style="fill:#ffc727"
       id="polygon1156" />
    <polygon
       points="157.5,147.63 168.38,136.46 173.68,140.76 160.99,152.68 "
       style="opacity:0.1"
       id="polygon1158" />
    <polygon
       points="177.57,131.59 151.9,155.72 159.67,172.6 193.94,140.4 "
       style="fill:#ffc727"
       id="polygon1160" />
  </g>
  <g
     id="freepik--Books--inject-166"
     transform="translate(-53.619999,-131.05)">
    <rect
       x="137.64"
       y="258.94"
       width="74.970001"
       height="12.43"
       style="fill:#ffc727"
       id="rect1163" />
    <rect
       x="142.31"
       y="258.94"
       width="7.3299999"
       height="12.43"
       style="fill:#37474f"
       id="rect1165" />
    <rect
       x="152.35001"
       y="258.94"
       width="3.0599999"
       height="12.43"
       style="fill:#37474f"
       id="rect1167" />
    <rect
       x="196.47"
       y="258.94"
       width="7.3299999"
       height="12.43"
       style="fill:#37474f"
       id="rect1169" />
    <rect
       x="133.28999"
       y="249.66"
       width="52.009998"
       height="9.2799997"
       style="fill:#455a64"
       id="rect1171" />
    <rect
       x="185.28999"
       y="249.66"
       width="22.440001"
       height="9.2799997"
       style="fill:#455a64"
       id="rect1173" />
    <rect
       x="133.28999"
       y="250.63"
       width="52.009998"
       height="7.3499999"
       style="fill:#ffffff"
       id="rect1175" />
    <path
       d="m 136.65,252.14 c 15.69,-0.33 32.95,-0.33 48.64,0 -15.69,0.33 -32.95,0.32 -48.64,0 z"
       style="fill:#dbdbdb"
       id="path1177" />
    <path
       d="m 136.65,253.58 c 15.69,-0.33 32.95,-0.33 48.64,0 -15.69,0.33 -32.95,0.33 -48.64,0 z"
       style="fill:#dbdbdb"
       id="path1179" />
    <path
       d="m 136.65,255 c 15.69,-0.32 32.95,-0.33 48.64,0 -15.69,0.33 -32.95,0.33 -48.64,0 z"
       style="fill:#dbdbdb"
       id="path1181" />
    <path
       d="m 136.65,256.46 c 15.69,-0.32 32.95,-0.33 48.64,0 -15.69,0.33 -32.95,0.33 -48.64,0 z"
       style="fill:#dbdbdb"
       id="path1183" />
    <rect
       x="144.95"
       y="239.5"
       width="52.049999"
       height="10.17"
       style="fill:#37474f"
       id="rect1185" />
    <rect
       x="186.63"
       y="239.5"
       width="4.8499999"
       height="10.17"
       style="fill:#ffc727"
       id="rect1187" />
    <rect
       x="181.56"
       y="239.5"
       width="1.88"
       height="10.17"
       style="fill:#ffc727"
       id="rect1189" />
    <path
       d="m 162.94,219.87 c 0,0 -11.53,-5.31 -11.53,-12.43 0,-7.12 15,-11.71 15,-17.28 0,-5.57 -6.52,-8.84 -6.52,-8.84 0,0 10.3,3.52 10.3,10.56 0,7.04 -9.86,11.81 -10.81,16.29 -1.38,6.23 3.56,11.7 3.56,11.7 z"
       style="opacity:0.6;fill:#dbdbdb"
       id="path1191" />
    <path
       d="m 162.37,219.87 c 0,0 11.54,-4.17 11.54,-9.77 0,-5.6 -15,-9.21 -15,-13.59 0,-4.38 6.52,-6.95 6.52,-6.95 0,0 -10.3,2.77 -10.3,8.31 0,5.54 11.32,9.34 12.13,13.83 0.81,4.49 -4.89,8.17 -4.89,8.17 z"
       style="opacity:0.6;fill:#dbdbdb"
       id="path1193" />
    <rect
       x="157.34"
       y="237.78"
       width="10.97"
       height="1.71"
       style="fill:#ffc727"
       id="rect1195" />
    <rect
       x="157.34"
       y="237.78"
       width="10.97"
       height="1.13"
       style="opacity:0.1"
       id="rect1197" />
    <path
       d="m 181.33,233.18 a 6.05,6.05 0 0 1 -7.33,2.32 7.45,7.45 0 0 1 -1.55,-0.81 l 1.39,-2.07 a 5.08,5.08 0 0 0 0.83,0.47 3.65,3.65 0 0 0 4.59,-1.35 c 1.5,-2.11 2,-6.94 0.52,-8.8 -0.1,-0.13 -0.54,-0.35 -2.31,0 -0.33,0.07 -0.7,0.15 -1.12,0.27 a 4.46,4.46 0 0 1 -1,0.21 v -1.24 l -0.12,-1.24 0.52,-0.13 a 15.22,15.22 0 0 1 2.49,-0.52 3.78,3.78 0 0 1 3.5,1.05 c 2.48,3.06 1.47,9.19 -0.41,11.84 z"
       style="fill:#ffc727"
       id="path1199" />
    <path
       d="m 173.88,232.62 a 5.08,5.08 0 0 0 0.83,0.47 L 174,235.5 a 7.45,7.45 0 0 1 -1.55,-0.81 z"
       style="opacity:0.1"
       id="path1201" />
    <path
       d="m 178.24,220.32 -0.73,2.65 c -0.33,0.07 -0.7,0.15 -1.12,0.27 a 4.46,4.46 0 0 1 -1,0.21 v -1.24 l -0.12,-1.24 0.52,-0.13 a 15.22,15.22 0 0 1 2.45,-0.52 z"
       style="opacity:0.1"
       id="path1203" />
    <path
       d="m 148.22,217.09 c 0,0 0.1,0.81 0.29,2.1 q 0,0.3 0.09,0.63 c 0.13,0.88 0.3,1.93 0.5,3.06 a 1.08,1.08 0 0 1 0,0.19 c 0.3,1.62 0.65,3.38 1.06,5 l 0.06,0.22 c 0.11,0.45 0.23,0.88 0.35,1.3 0.12,0.42 0.25,0.84 0.38,1.23 a 20.47,20.47 0 0 0 0.83,2.12 c 2.28,4.71 5.46,5.23 7.42,5.23 h 7.18 c 2,0 5.15,-0.52 7.41,-5.23 0.07,-0.14 0.14,-0.3 0.21,-0.46 a 3.65,3.65 0 0 0 0.14,-0.35 2.39,2.39 0 0 0 0.15,-0.37 l 0.1,-0.27 a 35.7,35.7 0 0 0 1.18,-4.08 1,1 0 0 0 0,-0.17 0.64,0.64 0 0 0 0,-0.07 c 0.14,-0.58 0.27,-1.17 0.39,-1.76 0.2,-1 0.38,-1.9 0.54,-2.81 0.07,-0.41 0.13,-0.81 0.2,-1.2 l 0.06,-0.32 0.12,-0.75 c 0,-0.24 0.06,-0.47 0.1,-0.7 0.04,-0.23 0.06,-0.43 0.09,-0.63 0.17,-1.2 0.26,-1.94 0.26,-1.94 z"
       style="fill:#ffc727"
       id="path1205" />
    <path
       d="m 149.13,223.07 c 0.3,1.62 0.65,3.38 1.06,5 a 5.17,5.17 0 0 1 0.54,0.11 7.52,7.52 0 0 1 2.47,1.06 14.79,14.79 0 0 1 2.06,1.72 14.52,14.52 0 0 0 2,1.7 4.59,4.59 0 0 0 2.4,0.78 3,3 0 0 0 2.19,-1 14.09,14.09 0 0 0 1.64,-2 26.88,26.88 0 0 1 1.62,-2.15 6.41,6.41 0 0 1 1,-0.93 4.78,4.78 0 0 1 0.64,-0.32 2.21,2.21 0 0 1 0.71,-0.12 2.71,2.71 0 0 1 1.37,0.34 5.25,5.25 0 0 1 1.1,0.82 25.9,25.9 0 0 1 1.83,2 4.61,4.61 0 0 0 2,1.51 1.4,1.4 0 0 0 0.61,0 35.7,35.7 0 0 0 1.18,-4.08 l -0.7,-0.19 a 7.68,7.68 0 0 1 -2.36,-1.3 16.23,16.23 0 0 1 -1.89,-1.91 14.83,14.83 0 0 0 -1.82,-1.89 4.67,4.67 0 0 0 -2.32,-1 3,3 0 0 0 -2.28,0.83 14.66,14.66 0 0 0 -1.82,1.87 c -0.58,0.67 -1.16,1.35 -1.82,2 a 6.47,6.47 0 0 1 -1.1,0.83 5.32,5.32 0 0 1 -0.66,0.26 2.57,2.57 0 0 1 -0.73,0.05 2.77,2.77 0 0 1 -1.32,-0.48 5,5 0 0 1 -1,-0.92 c -0.61,-0.67 -1.1,-1.41 -1.64,-2.12 a 4.64,4.64 0 0 0 -1.87,-1.71 2.57,2.57 0 0 0 -2.33,0.7 c -0.24,0.1 -0.5,0.32 -0.76,0.54 z"
       style="opacity:0.1"
       id="path1207" />
    <path
       d="m 149.1,222.88 a 1.08,1.08 0 0 1 0,0.19 c 0.26,-0.22 0.52,-0.44 0.79,-0.64 a 2.57,2.57 0 0 1 2.33,-0.7 4.64,4.64 0 0 1 1.87,1.71 c 0.54,0.71 1,1.45 1.64,2.12 a 5,5 0 0 0 1,0.92 2.77,2.77 0 0 0 1.32,0.48 2.57,2.57 0 0 0 0.73,-0.05 5.32,5.32 0 0 0 0.66,-0.26 6.47,6.47 0 0 0 1.1,-0.83 c 0.66,-0.63 1.24,-1.31 1.82,-2 a 14.66,14.66 0 0 1 1.82,-1.87 3,3 0 0 1 2.28,-0.83 4.67,4.67 0 0 1 2.32,1 14.83,14.83 0 0 1 1.82,1.89 16.23,16.23 0 0 0 1.89,1.91 7.68,7.68 0 0 0 2.36,1.3 l 0.7,0.19 a 1,1 0 0 0 0,-0.17 l -0.68,-0.22 a 9.17,9.17 0 0 1 -4.05,-3.22 14.82,14.82 0 0 0 -1.84,-2 5.21,5.21 0 0 0 -2.5,-1.11 3.48,3.48 0 0 0 -2.59,0.9 14.28,14.28 0 0 0 -1.9,1.91 c -0.58,0.67 -1.14,1.36 -1.76,2 a 3,3 0 0 1 -2.19,1 3.23,3.23 0 0 1 -2.1,-1.26 c -0.58,-0.64 -1.09,-1.37 -1.64,-2.07 a 4.78,4.78 0 0 0 -2.06,-1.76 2,2 0 0 0 -1.38,0.07 4.34,4.34 0 0 0 -1.16,0.72 7.92,7.92 0 0 0 -0.6,0.68 z"
       style="fill:#ffffff"
       id="path1209" />
    <path
       d="m 150.19,228.1 0.06,0.22 0.43,0.09 a 9.21,9.21 0 0 1 4.35,2.81 13.76,13.76 0 0 0 2,1.78 5.13,5.13 0 0 0 2.6,0.86 3.41,3.41 0 0 0 2.49,-1.14 14.58,14.58 0 0 0 1.7,-2.08 22.44,22.44 0 0 1 1.58,-2.12 3,3 0 0 1 2.06,-1.27 3.25,3.25 0 0 1 2.21,1.05 c 0.65,0.59 1.22,1.26 1.84,1.91 a 4.82,4.82 0 0 0 2.22,1.55 1.56,1.56 0 0 0 0.57,0 l 0.1,-0.27 a 1.4,1.4 0 0 1 -0.61,0 4.61,4.61 0 0 1 -2,-1.51 25.9,25.9 0 0 0 -1.83,-2 5.25,5.25 0 0 0 -1.1,-0.82 2.71,2.71 0 0 0 -1.37,-0.34 2.21,2.21 0 0 0 -0.71,0.12 4.78,4.78 0 0 0 -0.64,0.32 6.41,6.41 0 0 0 -1,0.93 26.88,26.88 0 0 0 -1.62,2.15 14.09,14.09 0 0 1 -1.64,2 3,3 0 0 1 -2.19,1 4.59,4.59 0 0 1 -2.4,-0.78 14.52,14.52 0 0 1 -2,-1.7 14.79,14.79 0 0 0 -2.06,-1.72 7.52,7.52 0 0 0 -2.47,-1.06 5.17,5.17 0 0 0 -0.57,0.02 z"
       style="fill:#ffffff"
       id="path1211" />
  </g>
  <g
     id="freepik--Device--inject-166"
     transform="translate(-53.619999,-131.05)">
    <polygon
       points="198.23,224.97 266.55,224.97 271.84,271.37 203.51,271.37 "
       style="fill:#a6a6a6"
       id="polygon1214" />
    <polygon
       points="200.68,224.97 269.01,224.97 274.3,271.37 205.97,271.37 "
       style="fill:#c7c7c7"
       id="polygon1216" />
    <polygon
       points="204.4,228.08 265.99,228.08 270.57,268.26 208.98,268.26 "
       style="fill:#ffffff"
       id="polygon1218" />
    <path
       d="m 210.47,234.23 q 25,-0.22 49.93,0 -25,0.24 -49.93,0 z"
       style="fill:#263238"
       id="path1220" />
    <path
       d="m 210.71,236.37 q 25,-0.23 49.93,0 -25,0.24 -49.93,0 z"
       style="fill:#263238"
       id="path1222" />
    <path
       d="m 211,238.52 q 25,-0.24 49.93,0 -25,0.22 -49.93,0 z"
       style="fill:#263238"
       id="path1224" />
    <path
       d="m 211.19,240.66 q 15.28,-0.24 30.58,0 -15.3,0.22 -30.58,0 z"
       style="fill:#263238"
       id="path1226" />
    <path
       d="m 211.67,244.94 q 25,-0.23 49.94,0 -25,0.24 -49.94,0 z"
       style="fill:#263238"
       id="path1228" />
    <path
       d="m 211.91,247.08 q 25,-0.22 49.94,0 -25,0.24 -49.94,0 z"
       style="fill:#263238"
       id="path1230" />
    <path
       d="m 212.15,249.23 q 25,-0.24 49.94,0 -25,0.22 -49.94,0 z"
       style="fill:#263238"
       id="path1232" />
    <path
       d="m 212.39,251.37 q 25,-0.24 49.94,0 -25,0.23 -49.94,0 z"
       style="fill:#263238"
       id="path1234" />
    <path
       d="m 212.63,253.51 q 25,-0.24 49.94,0 -25,0.24 -49.94,0 z"
       style="fill:#263238"
       id="path1236" />
    <path
       d="m 212.87,255.65 q 17.53,-0.22 35.08,0 -17.53,0.24 -35.08,0 z"
       style="fill:#263238"
       id="path1238" />
    <path
       d="m 213.35,259.93 q 25,-0.23 49.94,0 -25,0.24 -49.94,0 z"
       style="fill:#263238"
       id="path1240" />
    <path
       d="m 213.59,262.08 q 25,-0.24 49.94,0 -25,0.23 -49.94,0 z"
       style="fill:#263238"
       id="path1242" />
    <path
       d="m 213.83,264.22 q 16,-0.24 31.93,0 -16,0.22 -31.93,0 z"
       style="fill:#263238"
       id="path1244" />
    <rect
       x="203.86"
       y="268.26001"
       width="90.489998"
       height="3.1099999"
       style="fill:#a6a6a6"
       id="rect1246" />
    <rect
       x="225.53999"
       y="268.26001"
       width="76.230003"
       height="3.1099999"
       style="fill:#c7c7c7"
       id="rect1248" />
    <polygon
       points="204.4,228.08 204.63,230.03 266.21,230.03 265.99,228.08 "
       style="fill:#263238"
       id="polygon1250" />
    <path
       d="m 209.59,229.06 a 0.53,0.53 0 0 0 0.49,0.48 0.4,0.4 0 0 0 0.38,-0.48 0.53,0.53 0 0 0 -0.49,-0.49 0.41,0.41 0 0 0 -0.38,0.49 z"
       style="fill:#c7c7c7"
       id="path1252" />
    <path
       d="m 207.81,229.06 a 0.52,0.52 0 0 0 0.49,0.48 0.4,0.4 0 0 0 0.38,-0.48 0.53,0.53 0 0 0 -0.49,-0.49 0.41,0.41 0 0 0 -0.38,0.49 z"
       style="fill:#ffffff"
       id="path1254" />
    <path
       d="m 206,229.06 a 0.53,0.53 0 0 0 0.49,0.48 0.41,0.41 0 0 0 0.39,-0.48 0.53,0.53 0 0 0 -0.49,-0.49 0.42,0.42 0 0 0 -0.39,0.49 z"
       style="fill:#ffc727"
       id="path1256" />
  </g>
  <g
     id="freepik--Plant--inject-166"
     transform="translate(-53.619999,-131.05)">
    <path
       d="m 427.11,216.12 c -10,9.82 -11.71,25 -9.59,38.32 0.05,0.3 0.52,0.21 0.52,-0.07 0,-3 -0.09,-6 -0.08,-9 l 0.15,-0.4 a 20.33,20.33 0 0 0 6.52,-7 c 1.67,-3.3 2.33,-7 3.61,-10.45 0.12,-0.33 -0.23,-0.23 -0.46,-0.07 -6.1,4.5 -8,9.35 -9.8,15.81 A 54.75,54.75 0 0 1 419,233.17 c 1.32,-6.14 3.93,-12.22 8.34,-16.78 a 0.19,0.19 0 0 0 -0.23,-0.27 z"
       style="fill:#263238"
       id="path1259" />
    <path
       d="m 429,217.27 c 1.72,0.06 2.81,2.81 4.15,3.62 a 1.29,1.29 0 0 0 1.9,-0.3 c 1.34,-1.86 -0.49,-4.15 -2.21,-5.44 1.23,0.51 2.25,1.4 3.57,1.65 a 1.25,1.25 0 0 0 1.62,-1 c 0.58,-2.53 -2.6,-3.66 -4.78,-3.71 1.06,-0.74 4.09,-2.74 2.48,-3.72 -1.61,-0.98 -5.19,1.87 -6.35,2.81 -1.71,1.38 -3.74,3.45 -3.82,5.62 -0.1,2.55 2.11,1 3.44,0.47 z"
       style="fill:#ffc727"
       id="path1261" />
    <path
       d="m 429,217.27 c 1.72,0.06 2.81,2.81 4.15,3.62 a 1.29,1.29 0 0 0 1.9,-0.3 c 1.34,-1.86 -0.49,-4.15 -2.21,-5.44 1.23,0.51 2.25,1.4 3.57,1.65 a 1.25,1.25 0 0 0 1.62,-1 c 0.58,-2.53 -2.6,-3.66 -4.78,-3.71 1.06,-0.74 4.09,-2.74 2.48,-3.72 -1.61,-0.98 -5.19,1.87 -6.35,2.81 -1.71,1.38 -3.74,3.45 -3.82,5.62 -0.1,2.55 2.11,1 3.44,0.47 z"
       style="opacity:0.1"
       id="path1263" />
    <path
       d="m 428.5,217.69 c 2.21,-1 6.44,0.44 6.8,-0.39 0.73,-1.7 -2.65,-2.87 -4.48,-3.09 1.68,-0.46 4.91,-1.18 4.81,-2.81 -0.12,-2 -4.95,-0.27 -7.39,1.6 -3.08,2.36 -3.06,4.63 -2.55,5.09 0.7,0.63 2.45,-0.23 2.81,-0.4 z"
       style="fill:#ffc727"
       id="path1265" />
    <path
       d="m 404.28,215.15 c 10.39,9.43 12.65,24.55 11,37.92 0,0.3 -0.51,0.24 -0.52,0 -0.11,-3 -0.14,-6 -0.26,-9 l -0.17,-0.4 a 20.17,20.17 0 0 1 -6.78,-6.75 c -1.8,-3.22 -2.6,-6.91 -4,-10.3 -0.13,-0.32 0.23,-0.24 0.46,-0.08 6.27,4.26 8.4,9 10.39,15.43 a 53.78,53.78 0 0 0 -1.44,-10 c -1.55,-6.09 -4.39,-12.07 -9,-16.45 -0.11,-0.26 0.14,-0.52 0.32,-0.37 z"
       style="fill:#263238"
       id="path1267" />
    <path
       d="m 402.44,216.37 c -1.73,0.12 -2.7,2.92 -4,3.77 a 1.3,1.3 0 0 1 -1.92,-0.22 c -1.4,-1.81 0.34,-4.17 2,-5.52 -1.21,0.55 -2.2,1.48 -3.51,1.78 a 1.25,1.25 0 0 1 -1.65,-0.9 c -0.68,-2.52 2.45,-3.76 4.63,-3.9 -1.08,-0.69 -4.19,-2.58 -2.62,-3.62 1.57,-1.04 5.26,1.67 6.46,2.57 1.75,1.32 3.86,3.31 4,5.47 0.22,2.52 -2.05,1.05 -3.39,0.57 z"
       style="fill:#ffc727"
       id="path1269" />
    <path
       d="m 402.44,216.37 c -1.73,0.12 -2.7,2.92 -4,3.77 a 1.3,1.3 0 0 1 -1.92,-0.22 c -1.4,-1.81 0.34,-4.17 2,-5.52 -1.21,0.55 -2.2,1.48 -3.51,1.78 a 1.25,1.25 0 0 1 -1.65,-0.9 c -0.68,-2.52 2.45,-3.76 4.63,-3.9 -1.08,-0.69 -4.19,-2.58 -2.62,-3.62 1.57,-1.04 5.26,1.67 6.46,2.57 1.75,1.32 3.86,3.31 4,5.47 0.22,2.52 -2.05,1.05 -3.39,0.57 z"
       style="opacity:0.1"
       id="path1271" />
    <path
       d="m 403,216.77 c -2.24,-0.91 -6.42,0.69 -6.81,-0.13 -0.8,-1.67 2.54,-3 4.36,-3.26 -1.7,-0.39 -4.95,-1 -4.91,-2.62 0,-2 4.93,-0.47 7.44,1.31 3.17,2.24 3.23,4.52 2.74,5 -0.72,0.64 -2.5,-0.14 -2.82,-0.3 z"
       style="fill:#ffc727"
       id="path1273" />
    <path
       d="m 414.91,240.06 a 101.28,101.28 0 0 0 3.22,14.94 0.37262582,0.37262582 0 0 0 0.73,-0.15 c -0.68,-4.6 -1.93,-9.11 -2.61,-13.7 a 69,69 0 0 1 -0.8,-14.06 c 0.44,-7.75 2.54,-16 7.59,-22 0.11,-0.14 -0.12,-0.35 -0.24,-0.21 -10.11,11.79 -8.5,26.25 -8.49,27.55 -1.43,-4.89 -2.91,-10.48 -8.33,-15.46 -0.23,-0.21 -0.41,-0.11 -0.37,0.26 1,9.05 3.48,13.78 8.73,18.62 0.15,1.37 0.34,2.8 0.57,4.21 z"
       style="fill:#263238"
       id="path1275" />
    <path
       d="m 423.13,206.38 c 1.82,-0.81 4.33,1.51 6.13,1.66 a 1.49,1.49 0 0 0 1.83,-1.27 c 0.45,-2.6 -2.61,-4.06 -5,-4.52 1.53,-0.1 3,0.31 4.54,-0.09 a 1.44,1.44 0 0 0 1.19,-1.82 c -0.67,-2.92 -4.54,-2.49 -6.83,-1.45 0.73,-1.3 2.87,-4.9 0.7,-5.1 -2.17,-0.2 -4.44,4.55 -5.17,6.11 -1.07,2.29 -2.14,5.46 -1.13,7.75 1.12,2.67 2.61,-0.06 3.74,-1.27 z"
       style="fill:#ffc727"
       id="path1277" />
    <path
       d="m 423.13,206.38 c 1.82,-0.81 4.33,1.51 6.13,1.66 a 1.49,1.49 0 0 0 1.83,-1.27 c 0.45,-2.6 -2.61,-4.06 -5,-4.52 1.53,-0.1 3,0.31 4.54,-0.09 a 1.44,1.44 0 0 0 1.19,-1.82 c -0.67,-2.92 -4.54,-2.49 -6.83,-1.45 0.73,-1.3 2.87,-4.9 0.7,-5.1 -2.17,-0.2 -4.44,4.55 -5.17,6.11 -1.07,2.29 -2.14,5.46 -1.13,7.75 1.12,2.67 2.61,-0.06 3.74,-1.27 z"
       style="opacity:0.1"
       id="path1279" />
    <path
       d="m 422.83,207.07 c 1.78,-2.15 6.91,-2.79 6.86,-3.84 -0.1,-2.13 -4.2,-1.63 -6.21,-0.94 1.52,-1.33 4.5,-3.7 3.58,-5.34 -1.12,-2 -5.27,2.2 -6.86,5.38 -2,4 -0.84,6.35 -0.08,6.56 1.04,0.3 2.42,-1.47 2.71,-1.82 z"
       style="fill:#ffc727"
       id="path1281" />
    <path
       d="m 426.47,271.34 4.47,-26.82 h -27.15 c 0.56,2.38 5.61,26.85 5.61,26.85 z"
       style="fill:#ffc727"
       id="path1283" />
  </g>
  <g
     id="freepik--Table--inject-166"
     transform="translate(-53.619999,-131.05)">
    <rect
       x="102.97"
       y="284.38"
       width="86.349998"
       height="177.81"
       style="fill:#455a64"
       id="rect1286" />
    <rect
       x="102.97"
       y="284.38"
       width="86.349998"
       height="10.29"
       style="fill:#263238"
       id="rect1288" />
    <path
       d="M 180,341.23 H 112.28 V 304.3 H 180 Z m -67.23,-0.5 H 179.5 V 304.8 h -66.72 z"
       style="fill:#263238"
       id="path1290" />
    <rect
       x="139.53"
       y="313.41"
       width="17.799999"
       height="6.0599999"
       transform="rotate(180,148.43,316.435)"
       style="fill:#263238"
       id="rect1292" />
    <path
       d="m 154.46,319.26 h -18.29 v -5.65 h 18.29 z m -17.79,-0.5 H 154 v -4.65 h -17.33 z"
       style="fill:#263238"
       id="path1294" />
    <path
       d="M 180,389.45 H 112.28 V 352.52 H 180 Z m -67.23,-0.5 H 179.5 V 353 h -66.72 z"
       style="fill:#263238"
       id="path1296" />
    <rect
       x="139.53"
       y="361.63"
       width="17.799999"
       height="6.0599999"
       transform="rotate(180,148.43,364.655)"
       style="fill:#263238"
       id="rect1298" />
    <path
       d="m 154.46,367.48 h -18.29 v -5.65 h 18.29 z m -17.79,-0.5 H 154 v -4.65 h -17.33 z"
       style="fill:#263238"
       id="path1300" />
    <path
       d="M 180,437.66 H 112.28 V 400.74 H 180 Z m -67.23,-0.5 h 66.73 v -35.92 h -66.72 z"
       style="fill:#263238"
       id="path1302" />
    <rect
       x="139.53"
       y="409.84"
       width="17.799999"
       height="6.0599999"
       transform="rotate(180,148.43,412.875)"
       style="fill:#263238"
       id="rect1304" />
    <path
       d="m 154.46,415.7 h -18.29 v -5.65 h 18.29 z m -17.79,-0.5 H 154 v -4.65 h -17.33 z"
       style="fill:#263238"
       id="path1306" />
    <rect
       x="63.310001"
       y="271.35999"
       width="373.37"
       height="13.03"
       transform="rotate(180,250,277.875)"
       style="fill:#455a64"
       id="rect1308" />
    <polygon
       points="419.58,462.19 426.14,462.19 426.14,284.38 415.68,284.38 415.95,294.67 "
       style="fill:#455a64"
       id="polygon1310" />
    <polygon
       points="415.95,294.67 426.14,294.67 426.14,284.38 415.68,284.38 "
       style="fill:#263238"
       id="polygon1312" />
    <polygon
       points="375.82,462.19 382.38,462.19 382.38,284.38 371.93,284.38 372.2,294.67 "
       style="fill:#455a64"
       id="polygon1314" />
    <polygon
       points="372.2,294.67 382.38,294.67 382.38,284.38 371.93,284.38 "
       style="fill:#263238"
       id="polygon1316" />
    <rect
       x="73.860001"
       y="284.38"
       width="29.110001"
       height="177.81"
       style="fill:#37474f"
       id="rect1318" />
    <rect
       x="73.860001"
       y="284.38"
       width="29.110001"
       height="10.29"
       style="fill:#263238"
       id="rect1320" />
    <polygon
       points="418.82,339.63 380.81,319.34 380.81,324 418.82,344.28 "
       style="fill:#455a64"
       id="polygon1322" />
    <polygon
       points="380.81,339.63 418.82,319.34 418.82,324 380.81,344.28 "
       style="fill:#455a64"
       id="polygon1324" />
  </g>
  <g
     id="freepik--Character--inject-166"
     transform="translate(-53.619999,-131.05)">
    <path
       d="m 345.14,220 c -1.13,17.21 -3.36,51.46 -13,57.08 -5.65,3.28 -40.46,-3.9 -42,-3.72 -3.85,0.41 -5.2,-27.52 -1.22,-28.71 0.93,-0.28 29.7,5.42 31.05,4 1.35,-1.42 6.28,-18.11 13.66,-34.77 4.66,-10.65 12.37,-7.45 11.51,6.12 z"
       style="fill:#d3766a"
       id="path1327" />
    <path
       d="m 294.13,272.23 a 89.19,89.19 0 0 1 -11.53,2.65 c -3.09,0.37 -12,1.18 -12.76,-2.18 -0.51,-2.29 4.69,-3.39 8.34,-4.25 1.92,-0.45 4.46,-2 4.12,-3.22 -0.6,-2.17 -5.57,-0.91 -8.91,0.36 -6.46,2.45 -15.34,7.32 -18.44,3.73 -1.18,-1.36 0.74,-3.16 3.39,-4.79 -4.14,1.73 -8.46,3 -9.83,1.54 a 2,2 0 0 1 0,-2.75 2.68,2.68 0 0 1 -2.82,-0.93 c -1,-1.48 -0.1,-3.27 1.55,-5 a 1.5,1.5 0 0 1 -1,-0.91 c -1.93,-4.37 12.87,-13.53 17.52,-13.85 13.67,-1 27.48,2.51 27.48,2.51 4.5,5 2.9,27.08 2.89,27.09 z"
       style="fill:#d3766a"
       id="path1329" />
    <path
       d="m 276.59,256.78 a 21.72,21.72 0 0 0 -9.33,1.93 c -3.42,1.6 -6.34,4.07 -9.57,6 -0.09,0.05 0,0.19 0.09,0.13 1.53,-1 3.18,-1.87 4.76,-2.82 1.58,-0.95 3.07,-1.91 4.67,-2.73 a 21.48,21.48 0 0 1 9.38,-2.44 z"
       style="fill:#263238"
       id="path1331" />
    <path
       d="m 275.06,250.79 a 54.74,54.74 0 0 0 -10.79,1.85 c -3.81,1.21 -7,3.67 -10.21,6 q -2.85,2.13 -5.61,4.38 c -0.07,0.06 0,0.2 0.09,0.13 3.22,-2.44 6.52,-4.8 9.88,-7 a 28.65,28.65 0 0 1 10.28,-4.33 c 2.11,-0.42 4.24,-0.69 6.37,-0.95 z"
       style="fill:#263238"
       id="path1333" />
    <path
       d="m 272.18,245.3 c -3.48,0.14 -6.5,0.24 -9.78,1.55 a 48.31,48.31 0 0 0 -10.4,6.32 c -1.74,1.33 -3.42,2.71 -5.09,4.12 -0.07,0.06 0,0.18 0.1,0.12 A 113.19,113.19 0 0 1 259,249 a 22.42,22.42 0 0 1 6.34,-2.78 40.58,40.58 0 0 1 6.86,-0.85 c 0,0 -0.01,-0.07 -0.02,-0.07 z"
       style="fill:#263238"
       id="path1335" />
    <path
       d="m 245.7,262.38 a 2.64,2.64 0 0 0 2.82,0.93 2,2 0 0 0 0,2.76 c 1.36,1.45 5.69,0.19 9.83,-1.55 -2.64,1.64 -4.57,3.44 -3.39,4.8 3.1,3.59 12,-1.28 18.44,-3.73 3.34,-1.27 8.32,-2.54 8.9,-0.35 0.35,1.24 -2.19,2.75 -4.11,3.21 -3.66,0.86 -8.85,2 -8.34,4.25 0.74,3.36 9.67,2.54 12.76,2.18 a 66.14,66.14 0 0 0 7.49,-1.54 v 0 c 1.65,-0.15 36.37,7 42,3.72 5.39,-3.13 8.47,-15.12 10.34,-28.11 l -49.27,0.5 -6.31,0.07 -36.69,0.38 c -2.82,2.39 -4.67,4.87 -3.91,6.6 a 1.5,1.5 0 0 0 1,0.91 c -1.66,1.71 -2.57,3.49 -1.56,4.97 z"
       style="opacity:0.1"
       id="path1337" />
    <path
       d="M 345.24,241.93 322,233.41 c 0,0 6.29,-16.11 12.69,-24.35 6.4,-8.24 10.47,-3.44 11.13,6.7 0.66,10.14 -0.58,26.17 -0.58,26.17 z"
       style="fill:#ffc727"
       id="path1339" />
    <path
       d="m 324.71,229.66 a 156.42,156.42 0 0 1 19.7,7.41 c 0,0 0,0.18 -0.06,0.16 -5.49,-1.7 -16.15,-5.91 -19.72,-7.34 -0.06,-0.02 0.01,-0.25 0.08,-0.23 z"
       style="fill:#263238"
       id="path1341" />
    <path
       d="m 323.9,234.12 21.34,7.81 c 0,0 1.23,-16 0.57,-26.17 -0.43,-6.55 -2.27,-10.87 -5.25,-10.89 z"
       style="opacity:0.1"
       id="path1343" />
    <path
       d="m 332,215.1 c 3.56,-0.35 5.62,-6.74 5.93,-11.09 0,-0.34 -1.38,-3.13 -3,-6.62 -0.95,-2.12 -2,-4.5 -2.72,-6.74 l -12.88,8.22 a 37.78,37.78 0 0 1 4.29,8.13 5,5 0 0 1 0.22,0.95 c 0,0 0,0.1 0,0.16 0.42,1.89 4.76,7.32 8.16,6.99 z"
       style="fill:#d3766a"
       id="path1345" />
    <path
       d="m 323.91,208 v 0.15 a 8.9,8.9 0 0 0 1.46,-0.42 c 7.57,-2.77 6.78,-12.8 6.17,-16.6 l -12.18,7.78 a 37.3,37.3 0 0 1 4.29,8.13 5.54,5.54 0 0 1 0.26,0.96 z"
       style="fill:#263238"
       id="path1347" />
    <path
       d="m 333.8,170.65 c 2.92,5.87 3,21.76 -0.77,26.47 -5.41,6.84 -15.75,9.13 -21.93,2.29 -6,-6.63 -5.79,-26.73 -1.49,-31.17 6.39,-6.53 19.88,-6.24 24.19,2.41 z"
       style="fill:#d3766a"
       id="path1349" />
    <path
       d="m 307.39,177.89 c 0,0 0.37,3.78 3,4.47 0.21,0.06 8.23,17.17 24.22,12.7 0,0 7.71,-13 3.26,-22.69 -2.88,-6.25 -7.73,-7.26 -7.73,-7.26 0,0 -10.8,-6.53 -20.74,-0.43 -9.94,6.1 -6.1,13.49 -2.01,13.21 z"
       style="fill:#263238"
       id="path1351" />
    <path
       d="m 310.22,186.17 c 0,0 1.79,-5.64 4.25,-5.14 2.46,0.5 2.12,8 -0.06,9.64 a 2.63,2.63 0 0 1 -3.78,-0.29 z"
       style="fill:#d3766a"
       id="path1353" />
    <path
       d="m 314.32,183.17 c 0,0 0.06,0 0,0.06 -1.51,1.24 -1.92,3.12 -2,5 a 1.44,1.44 0 0 1 1.95,-1 0.05,0.05 0 0 1 0,0.1 1.62,1.62 0 0 0 -1.53,1.07 8.22,8.22 0 0 0 -0.38,1.63 c 0,0.18 -0.34,0.18 -0.34,0 v 0 c -0.75,-2.29 -0.02,-5.9 2.3,-6.86 z"
       style="fill:#263238"
       id="path1355" />
    <path
       d="m 301.66,364.12 c 0,0 22.63,42.27 22.64,42.3 4,7.93 7.28,14.95 8.67,18.74 a 0.14,0.14 0 0 1 0,0.06 6.13,6.13 0 0 1 0.63,2.74 0.08,0.08 0 0 1 0,0.07 c -1.56,2.78 -64,36.24 -66.55,36.67 -2.55,0.43 -4,-6.85 -2.62,-10.08 1.38,-3.23 19.57,-26.74 19.57,-26.74 l -22.22,-42.44 z"
       style="fill:#d3766a"
       id="path1357" />
    <path
       d="m 280.13,429.85 c 3.86,-2.81 9.36,-4.63 14,-3.15 0.18,0.05 0.1,0.31 -0.06,0.33 a 66.31,66.31 0 0 0 -13.71,3.35 0.3,0.3 0 0 1 -0.23,-0.53 z"
       style="fill:#263238"
       id="path1359" />
    <path
       d="m 278,433.16 c 3.86,-2.82 9.36,-4.64 14,-3.16 0.18,0.06 0.1,0.31 -0.06,0.33 a 67,67 0 0 0 -13.71,3.35 0.3,0.3 0 0 1 -0.23,-0.52 z"
       style="fill:#263238"
       id="path1361" />
    <path
       d="m 275.77,436.46 c 3.86,-2.81 9.36,-4.63 14,-3.16 0.18,0.06 0.09,0.32 -0.06,0.34 A 65.37,65.37 0 0 0 276,437 a 0.3,0.3 0 0 1 -0.23,-0.54 z"
       style="fill:#263238"
       id="path1363" />
    <path
       d="m 267.05,464.71 c 2.57,-0.44 65,-33.9 66.56,-36.68 0.61,-1 -3.74,-10.43 -9.31,-21.61 l -0.18,-0.35 -40.51,21.14 0.38,0.67 c 0,0 -18.16,23.5 -19.56,26.74 -1.4,3.24 0.05,10.53 2.62,10.09 z"
       style="fill:#37474f"
       id="path1365" />
    <path
       d="m 324.12,406.06 0.18,0.37 c 5.57,11.18 9.92,20.55 9.31,21.6 -0.71,1.26 -14.05,8.89 -28.6,16.88 -17.41,9.54 -36.56,19.56 -38,19.8 -2.57,0.44 -4,-6.87 -2.62,-10.09 1.38,-3.22 19.61,-26.74 19.61,-26.74 l -0.38,-0.66 13.51,-7.06 z"
       style="fill:#ffc727"
       id="path1367" />
    <path
       d="m 266.46,461.91 c 10.38,-5.9 52.82,-28.71 63.53,-33.75 0.09,0 0.12,0 0,0.06 -10.16,6.07 -52.78,28.54 -63.47,33.86 -0.19,0.11 -0.28,-0.08 -0.06,-0.17 z"
       style="fill:#263238"
       id="path1369" />
    <path
       d="m 321.84,399.86 -44.79,23.51 c 0,0 -34.2,-66.51 -40.18,-102.37 -1.11,-6.66 10.65,-26.23 18.7,-30.45 16.37,-8.58 60.47,-7.49 69.26,-11.16 2.82,-1.18 2.53,-15 2.53,-15 l 48.49,0.76 c 0,0 15.69,28 1.86,48.09 -14.78,21.42 -87.8,14.42 -87.8,14.42 z"
       style="fill:#263238"
       id="path1371" />
    <path
       d="m 316.19,391.27 a 37.76,37.76 0 0 0 -3.75,1.65 c -1.38,0.62 -2.76,1.24 -4.13,1.91 -2.62,1.27 -5.21,2.61 -7.78,4 -5.19,2.77 -10.34,5.6 -15.43,8.56 -2.9,1.68 -5.78,3.38 -8.63,5.14 a 0.11,0.11 0 0 0 0.11,0.18 c 5.23,-2.58 10.41,-5.27 15.6,-7.94 5.19,-2.67 10.37,-5.34 15.44,-8.21 1.46,-0.82 2.92,-1.63 4.35,-2.5 1.43,-0.87 3,-1.61 4.29,-2.6 0.08,-0.07 0.04,-0.23 -0.07,-0.19 z"
       style="fill:#37474f"
       id="path1373" />
    <path
       d="m 236.87,321 c 3.14,18.85 14.07,46.14 23.73,67.82 l 30.74,-57.91 1.58,-3 25,-47 c -15.63,2.08 -48.64,2.51 -62.31,9.67 -8.1,4.15 -19.84,23.73 -18.74,30.42 z"
       style="fill:#37474f"
       id="path1375" />
    <path
       d="m 254.5,391.26 c 0,0 -6.41,46.31 -6.41,46.34 -0.21,8.86 -0.54,16.62 -1.09,20.62 a 0.13,0.13 0 0 1 0,0.06 6.16,6.16 0 0 1 -0.72,2.72 l -0.05,0.06 c -2.68,1.72 -73.5,2.15 -76,1.34 -2.5,-0.81 -0.34,-7.94 2.4,-10.15 2.74,-2.21 29.78,-14.5 29.78,-14.5 l 6.85,-46.27 z"
       style="fill:#d3766a"
       id="path1377" />
    <path
       d="m 198.08,437.69 c 4.73,-0.68 10.45,0.27 13.89,3.77 0.14,0.13 -0.06,0.32 -0.21,0.27 a 65.63,65.63 0 0 0 -13.68,-3.45 0.3,0.3 0 0 1 0,-0.59 z"
       style="fill:#263238"
       id="path1379" />
    <path
       d="m 194.61,439.59 c 4.73,-0.68 10.44,0.28 13.89,3.77 0.14,0.13 -0.06,0.32 -0.21,0.27 a 65.61,65.61 0 0 0 -13.68,-3.44 0.3,0.3 0 0 1 0,-0.6 z"
       style="fill:#263238"
       id="path1381" />
    <path
       d="m 191.14,441.5 c 4.73,-0.69 10.44,0.27 13.89,3.76 0.13,0.14 -0.06,0.32 -0.21,0.27 a 65.77,65.77 0 0 0 -13.68,-3.44 0.3,0.3 0 0 1 0,-0.59 z"
       style="fill:#263238"
       id="path1383" />
    <path
       d="m 170.24,462.4 c 2.48,0.82 73.3,0.39 76,-1.35 1,-0.64 1.57,-11 1.86,-23.45 0,-0.13 0,-0.26 0,-0.39 L 202.4,437 v 0.77 c 0,0 -27,12.29 -29.78,14.51 -2.78,2.22 -4.86,9.31 -2.38,10.12 z"
       style="fill:#ffc727"
       id="path1385" />
    <path
       d="m 171,459.65 c 11.93,-0.37 60.11,-0.72 71.93,-0.17 0.1,0 0.1,0.07 0,0.07 -11.82,0.62 -60,0.58 -71.93,0.29 -0.22,0 -0.23,-0.18 0,-0.19 z"
       style="fill:#263238"
       id="path1387" />
    <path
       d="m 272.53,338 c -3.16,9.89 -22.64,94.24 -22.64,94.24 l -52.14,-0.72 c 0,0 22.39,-107.74 35,-123.46 20.47,-25.47 86.84,-26.64 87.81,-29.34 1.42,-4 0.53,-14.87 0.53,-14.87 l 53.76,1.24 c 0,0 16.86,32.16 -3.07,50.29 -17.68,16.12 -97.25,16.38 -99.25,22.62 z"
       style="fill:#263238"
       id="path1389" />
    <path
       d="m 247.27,422.39 c -5.94,-0.3 -12.09,-0.6 -18,-0.57 -5.91,0.03 -11.8,0 -17.69,0.26 -3.34,0.14 -6.67,0.19 -10,0.47 -0.11,0 -0.11,0.17 0,0.18 5.93,0.48 11.89,0.52 17.83,0.58 5.94,0.06 11.8,0.12 17.69,-0.05 3.34,-0.09 6.68,-0.2 10,-0.37 0.32,-0.02 0.52,-0.48 0.17,-0.5 z"
       style="fill:#37474f"
       id="path1391" />
    <path
       d="m 319.35,245.68 1.75,18.32 54.75,1.16 c 0,0 -14.6,-45.4 -30.66,-59.32 -8,-7 -16.37,-5.44 -21.11,0.6 -1.2,1.53 -10.87,19.47 -11.65,27.82 -0.68,7.34 6.92,11.42 6.92,11.42 z"
       style="fill:#ffc727"
       id="path1393" />
    <path
       d="m 336,218.72 c -4.92,23.91 -11.86,50.47 -17.27,53.74 -10.23,6.19 -31.37,2.12 -36.52,1.54 -4.15,-0.47 -8,-31.78 -3.59,-32.11 4.61,-0.35 21.35,2.62 23.23,1.81 1.42,-0.62 11.12,-15.35 20.54,-29.49 12.5,-18.82 16.88,-11.45 13.61,4.51 z"
       style="fill:#d3766a"
       id="path1395" />
    <path
       d="m 281.7,242 c 0,0 -26.71,-3.06 -37.52,1.07 C 239,245.06 219,258 222,262.92 c 2.69,4.46 18.5,-8.63 18.5,-8.63 0,0 -17.12,11.79 -12.9,16.56 4.22,4.77 20.13,-12.39 20.13,-12.39 0,0 -17.31,12.54 -12.18,16.73 3.88,3.2 19.16,-11.53 19.16,-11.53 0,0 -14.81,10.85 -11,14.31 4.25,3.82 19.2,-8.89 19.2,-8.89 11.27,7.14 19.37,5.24 25.16,3.67 C 289.51,272.38 281.7,242 281.7,242 Z"
       style="fill:#d3766a"
       id="path1397" />
    <path
       d="m 246.17,249.83 c -2.06,1.31 -4.15,2.63 -6.09,4.12 -1.94,1.49 -3.83,3.05 -5.62,4.72 a 41.54,41.54 0 0 0 -6.35,7.14 c 3.6,-4.41 10.46,-9.85 12.4,-11.34 1.94,-1.49 3.79,-3.08 5.72,-4.57 0.05,-0.04 -0.01,-0.1 -0.06,-0.07 z"
       style="fill:#263238"
       id="path1399" />
    <path
       d="m 251.69,256.73 c -2.56,1.79 -5.17,3.47 -7.65,5.38 -2.48,1.91 -5.84,4.66 -8.18,6.72 -0.18,0.16 0,0.49 0.16,0.33 2.42,-2 6,-4.63 8.42,-6.57 2.42,-1.94 4.8,-4 7.29,-5.8 0.04,-0.03 0,-0.09 -0.04,-0.06 z"
       style="fill:#263238"
       id="path1401" />
    <path
       d="m 257.48,261.8 a 70,70 0 0 0 -11.06,9.12 c -0.18,0.16 0,0.2 0.2,0 3.62,-3.1 6.44,-5.56 10.95,-9 0.07,-0.03 0,-0.17 -0.09,-0.12 z"
       style="fill:#263238"
       id="path1403" />
    <path
       d="m 310.58,228.15 22.58,7.23 c 0,0 4.71,-15.88 4.72,-25.87 0.01,-9.99 -5.88,-8.75 -12.35,-1.51 -6.47,7.24 -14.95,20.15 -14.95,20.15 z"
       style="fill:#ffc727"
       id="path1405" />
    <path
       d="m 333.31,230.94 a 150,150 0 0 0 -19.24,-6 c 0,0 -0.09,0.14 -0.05,0.15 5.14,1.94 15.68,5 19.21,6 0.07,0.09 0.14,-0.09 0.08,-0.15 z"
       style="fill:#263238"
       id="path1407" />
    <path
       d="m 337.31,222.34 c 0,0 0,-0.05 -0.05,0 -0.38,0.79 -0.71,1.58 -1,2.39 0.33,-1.76 0.61,-3.52 0.86,-5.28 0,-0.07 -0.09,-0.08 -0.1,0 -1.31,5.19 -2.75,10.37 -3.95,15.59 -0.57,0 -1.14,0 -1.71,-0.08 a 0.08,0.08 0 1 0 0,0.15 c 0.62,0.12 1.23,0.3 1.84,0.48 a 0.3,0.3 0 0 0 0.38,-0.14 76.4,76.4 0 0 0 2.39,-9.09 c 0.22,-0.47 0.43,-0.95 0.61,-1.43 a 17.79,17.79 0 0 0 0.73,-2.59 z"
       style="fill:#263238"
       id="path1409" />
    <path
       d="m 324.52,164 c 1.06,-0.26 5.25,-2.42 9.68,0.46 4.2,2.73 9.51,13.85 11,16.13 1.49,2.28 5,1.41 6.83,4 1.61,2.24 0.14,3.85 0.64,5.75 0.39,1.48 2.63,3.07 2.13,5.66 -0.46,2.36 -2.69,2.74 -3.72,3.81 -1.03,1.07 -0.71,4.27 -2.73,5.93 -2.02,1.66 -4.88,0.31 -6.1,0.79 -1.22,0.48 -1.26,4.8 -5.4,6 -4.14,1.2 -6.58,-1.78 -8.5,-1.82 -1.92,-0.04 -5.63,2.68 -8.32,1.33 -2.69,-1.35 -4.05,-4 -5.29,-4.69 -1.24,-0.69 -3,0.14 -4.92,-1.82 -1.92,-1.96 -0.33,-4.27 -0.79,-6.43 -0.32,-1.51 -2.08,-2.34 -2,-4.85 0.09,-3.45 4,-4.2 4.23,-7.79 0.18,-2.83 -1.51,-14.15 3.85,-19.12 3.73,-3.34 9.41,-3.34 9.41,-3.34 z"
       style="fill:#263238"
       id="path1411" />
    <path
       d="m 344.89,180.06 a 3.92,3.92 0 0 0 1.58,0.94 l 1.74,0.64 a 11.27,11.27 0 0 1 3.23,1.57 3.7,3.7 0 0 1 1.54,2.9 5.47,5.47 0 0 1 -0.31,1.71 6.39,6.39 0 0 0 -0.42,1.9 3.13,3.13 0 0 0 0.88,1.83 c 0.39,0.49 0.8,0.94 1.16,1.41 a 4.41,4.41 0 0 1 1.08,3.19 2.46,2.46 0 0 1 -0.69,1.49 4.51,4.51 0 0 1 -1.47,1 c -0.55,0.25 -1.13,0.45 -1.71,0.68 a 3.06,3.06 0 0 0 -1.53,1 3.3,3.3 0 0 1 1.6,-0.84 c 0.58,-0.17 1.18,-0.32 1.77,-0.53 a 4.92,4.92 0 0 0 1.65,-1 3,3 0 0 0 0.92,-1.74 4.73,4.73 0 0 0 -1.11,-3.64 c -0.37,-0.51 -0.78,-1 -1.15,-1.45 a 2.59,2.59 0 0 1 -0.7,-1.43 c 0,-1 0.73,-2.26 0.67,-3.6 a 4.11,4.11 0 0 0 -1.86,-3.32 11.63,11.63 0 0 0 -3.45,-1.47 l -1.77,-0.48 a 4.17,4.17 0 0 1 -1.65,-0.76 z"
       style="fill:#263238"
       id="path1413" />
    <path
       d="m 311.52,175.5 a 54,54 0 0 0 -0.53,6.59 c -0.08,1.09 -0.13,2.19 -0.29,3.25 a 7.28,7.28 0 0 1 -0.36,1.53 1.12,1.12 0 0 1 -0.15,0.31 1.32,1.32 0 0 1 -0.21,0.29 c -0.17,0.2 -0.37,0.38 -0.56,0.57 a 30.92,30.92 0 0 0 -2.33,2.38 5.63,5.63 0 0 0 -1.41,3.12 3.56,3.56 0 0 0 0.29,1.73 4.58,4.58 0 0 0 1,1.36 7.15,7.15 0 0 1 2.05,2.52 6.69,6.69 0 0 0 -1.8,-2.76 4.13,4.13 0 0 1 -0.89,-1.3 3,3 0 0 1 -0.16,-1.5 5.45,5.45 0 0 1 1.36,-2.76 c 0.69,-0.81 1.53,-1.51 2.33,-2.29 0.2,-0.19 0.4,-0.4 0.59,-0.62 a 2.4,2.4 0 0 0 0.46,-0.81 7.82,7.82 0 0 0 0.38,-1.68 28.55,28.55 0 0 0 0.19,-3.32 v -3.31 a 28,28 0 0 1 0.04,-3.3 z"
       style="fill:#263238"
       id="path1415" />
    <path
       d="m 313.53,207.07 a 5.64,5.64 0 0 1 1.45,1.82 c 0.43,0.66 0.85,1.32 1.32,2 a 10.93,10.93 0 0 0 1.57,1.83 5.17,5.17 0 0 0 2.13,1.28 6.54,6.54 0 0 0 4.71,-1.17 c 0.68,-0.41 1.34,-0.86 2,-1.24 a 4.82,4.82 0 0 1 2.16,-0.81 4.52,4.52 0 0 0 -2.32,0.5 c -0.72,0.34 -1.41,0.73 -2.11,1.08 a 6.64,6.64 0 0 1 -4.28,1 4.59,4.59 0 0 1 -1.88,-1.08 14.07,14.07 0 0 1 -1.6,-1.67 c -0.5,-0.59 -1,-1.22 -1.46,-1.84 -0.25,-0.31 -0.51,-0.61 -0.78,-0.91 a 2.29,2.29 0 0 0 -0.91,-0.79 z"
       style="fill:#263238"
       id="path1417" />
    <polygon
       points="280.57,462.19 277.69,462.19 290.65,349.95 292.57,334.18 301.02,334.18 298.39,349.95 "
       style="fill:#c7c7c7"
       id="polygon1419" />
    <polygon
       points="298.39,349.95 290.65,349.95 292.57,334.18 301.02,334.18 "
       style="fill:#a6a6a6"
       id="polygon1421" />
    <polygon
       points="336.29,349.95 333.66,334.18 342.11,334.18 344.02,349.95 356.98,462.19 354.11,462.19 "
       style="fill:#c7c7c7"
       id="polygon1423" />
    <polygon
       points="336.29,349.95 333.66,334.18 342.11,334.18 344.02,349.95 "
       style="fill:#a6a6a6"
       id="polygon1425" />
    <polygon
       points="389.75,349.95 387.11,334.18 395.56,334.18 397.48,349.95 410.44,462.19 407.57,462.19 "
       style="fill:#c7c7c7"
       id="polygon1427" />
    <polygon
       points="387.11,334.18 395.56,334.18 397.48,349.95 389.75,349.95 "
       style="fill:#a6a6a6"
       id="polygon1429" />
    <polygon
       points="275.29,327.83 324.18,327.83 340.61,211.89 400.9,211.89 405.88,341.59 275.29,341.59 "
       style="fill:#c7c7c7"
       id="polygon1431" />
    <polygon
       points="324.18,327.83 340.61,211.89 346.03,211.89 329.59,327.83 "
       style="fill:#dbdbdb"
       id="polygon1433" />
    <polygon
       points="275.29,341.59 327.77,341.59 329.63,327.83 275.29,327.83 "
       style="fill:#dbdbdb"
       id="polygon1435" />
  </g>
  <g
     id="freepik--trash-can--inject-166"
     transform="translate(-53.619999,-131.05)">
    <path
       d="m 78.06,435.49 c 1.82,-0.26 4.15,-0.26 4.28,0.78 0.13,1.04 -0.69,1.6 -0.43,2.12 a 22.07,22.07 0 0 0 2.43,2.17 5.05,5.05 0 0 1 1.21,2.16 c 0,0.26 0.43,0.69 0,1.21 -0.43,0.52 -0.68,1.3 -1,1.69 -0.32,0.39 -0.51,0.82 0,1.52 0.51,0.7 0.07,2.68 -0.7,3.37 -0.77,0.69 -3,-0.95 -3.73,-0.78 -0.73,0.17 -0.78,0.52 -1.38,0.95 a 6.75,6.75 0 0 1 -3.64,1.48 c -1.56,0 -2.34,-1.39 -3.29,-2 a 12.58,12.58 0 0 0 -2.68,-1 4.93,4.93 0 0 1 -2,-1.47 c -0.18,-0.35 -0.78,-0.44 -0.52,-1.39 0.26,-0.95 0.69,-1.21 0.69,-2 0,-0.79 0,-0.92 0,-1.8 0,-0.88 -0.7,-2.44 -0.1,-3.13 0.6,-0.69 1,-1.74 2,-1.74 1,0 4,0.52 4,0.52 A 8,8 0 0 0 74,437 a 2.5,2.5 0 0 1 2.1,-1.21 6.49,6.49 0 0 0 1.96,-0.3 z"
       style="fill:#ffffff"
       id="path1438" />
    <path
       d="m 67.28,444.28 c 1.24,0.57 2.5,1.08 3.76,1.58 1.26,0.5 2.52,1 3.79,1.5 a 34.2,34.2 0 0 0 3.8,1.23 2.6,2.6 0 0 0 0.8,0.09 l 0.76,-0.38 a 13.16,13.16 0 0 0 1.66,-1 4.67,4.67 0 0 0 1.26,-1.3 2.53,2.53 0 0 0 0.18,-0.37 l 0.06,-0.19 v -0.08 0 a 1.48,1.48 0 0 0 -0.33,-0.58 18.29,18.29 0 0 0 -3,-2.58 c -1.08,-0.81 -2.2,-1.56 -3.35,-2.28 -0.57,-0.37 -1.15,-0.73 -1.73,-1.06 q -0.45,-0.25 -0.9,-0.48 l -0.46,-0.21 c -0.15,0 -0.35,-0.16 -0.46,0 0.1,-0.16 0.33,-0.06 0.48,-0.05 l 0.5,0.13 c 0.33,0.11 0.65,0.24 1,0.37 0.63,0.26 1.26,0.55 1.87,0.85 1.22,0.62 2.41,1.3 3.58,2 a 16.24,16.24 0 0 1 3.3,2.62 2.22,2.22 0 0 1 0.6,1.21 1.17,1.17 0 0 1 0,0.26 v 0.16 l -0.09,0.3 a 3.36,3.36 0 0 1 -0.26,0.54 5.68,5.68 0 0 1 -1.54,1.65 13.79,13.79 0 0 1 -1.83,1.09 l -0.47,0.23 -0.23,0.11 -0.13,0.06 -0.25,0.08 a 3.43,3.43 0 0 1 -1.23,-0.13 24.81,24.81 0 0 1 -3.89,-1.48 51.66,51.66 0 0 1 -7.25,-3.89 z"
       style="fill:#c7c7c7"
       id="path1440" />
    <path
       d="m 72.45,446.63 a 22.72,22.72 0 0 1 2.24,-3 c 0.41,-0.47 0.85,-0.92 1.3,-1.36 0.22,-0.22 0.47,-0.43 0.71,-0.64 a 3.85,3.85 0 0 1 0.92,-0.6 l 0.17,-0.07 a 1.43,1.43 0 0 1 0.36,0 0.89,0.89 0 0 1 0.48,0.26 3,3 0 0 1 0.35,0.43 9.59,9.59 0 0 1 0.53,0.83 c 0.3,0.56 0.59,1.11 0.84,1.69 a 15.5,15.5 0 0 1 1.18,3.56 l -2,-3.15 c -0.33,-0.51 -0.64,-1 -1,-1.54 a 8.22,8.22 0 0 0 -0.49,-0.72 1.81,1.81 0 0 0 -0.24,-0.28 c 0,0 0,0 0.09,0 a 0.19,0.19 0 0 0 0.13,0 v 0 a 3.26,3.26 0 0 0 -0.63,0.41 l -0.69,0.57 -1.39,1.19 c -0.92,0.86 -1.85,1.67 -2.86,2.42 z"
       style="fill:#c7c7c7"
       id="path1442" />
    <path
       d="m 100.05,436.32 c -0.51,-1.54 -0.42,-3.32 -2.15,-3.13 -1.73,0.19 -2.77,-2 -3.55,-2.5 -0.78,-0.5 -3.55,0 -4.16,0.52 -0.61,0.52 -0.86,1.53 -1.47,2 -0.61,0.47 -1.47,1.14 -2.25,1.83 -0.78,0.69 -1.9,1.65 -1.56,3.38 a 7.94,7.94 0 0 0 1.65,3.2 c 0.52,0.87 -0.35,2.43 0.34,4.42 0.69,1.99 4.07,2.77 4.94,2.42 0.87,-0.35 3.18,-1.82 4.44,-1.82 1.26,0 1.62,1 2.74,0.44 1.12,-0.56 2.77,-1.91 2.86,-2.43 0.09,-0.52 -0.95,-1 -0.61,-1.78 0.34,-0.78 1.74,-2.34 1.56,-3.35 -0.18,-1.01 -2.39,-2.02 -2.78,-3.2 z"
       style="fill:#ffffff"
       id="path1444" />
    <path
       d="m 96.84,433 a 47.86,47.86 0 0 0 -6.25,2.49 3.51,3.51 0 0 0 -0.62,0.41 c -0.08,0 -0.13,0.39 -0.18,0.63 -0.09,0.54 -0.16,1.1 -0.22,1.66 -0.11,1.11 -0.2,2.23 -0.2,3.33 a 10.52,10.52 0 0 0 0.08,1.61 1.19,1.19 0 0 0 0.12,0.43 2,2 0 0 0 0.61,0.18 16,16 0 0 0 3.26,0.16 14.18,14.18 0 0 0 1.62,-0.12 c 0.47,-0.08 1.11,-0.24 1.63,-0.33 1.11,-0.22 2.21,-0.44 3.27,-0.71 0.26,-0.07 0.53,-0.14 0.75,-0.22 h 0.13 v 0 a 0.15,0.15 0 0 0 -0.08,0.11 0.54,0.54 0 0 0 0,0.41 0.38,0.38 0 0 0 0.11,0.19 c 0,0 0.08,0.06 0.07,0.06 v 0 l -0.15,-0.06 c -0.48,-0.16 -1,-0.29 -1.58,-0.41 L 95.88,442 c -1.1,-0.24 -2.21,-0.48 -3.31,-0.76 -0.55,-0.15 -1.1,-0.29 -1.66,-0.48 a 2.63,2.63 0 0 1 -0.93,-0.49 0.55,0.55 0 0 1 -0.1,-0.11 0.69,0.69 0 0 1 -0.08,-0.21 1.48,1.48 0 0 1 0,-0.21 1.22,1.22 0 0 1 0.06,-0.32 4,4 0 0 1 0.2,-0.46 14.29,14.29 0 0 1 2.15,-2.75 c 0.2,-0.21 0.4,-0.41 0.62,-0.6 a 3.37,3.37 0 0 1 0.35,-0.29 l 0.19,-0.14 a 0.69,0.69 0 0 1 0.28,-0.14 0.81,0.81 0 0 1 0.64,0.15 4,4 0 0 1 0.37,0.3 7.13,7.13 0 0 1 0.6,0.64 43.32,43.32 0 0 1 3.68,5.71 53.93,53.93 0 0 0 -4.1,-5.34 7.6,7.6 0 0 0 -0.58,-0.56 1.18,1.18 0 0 0 -0.44,-0.28 l -0.08,0.06 -0.15,0.11 -0.29,0.27 c -0.2,0.19 -0.38,0.4 -0.56,0.6 a 13.43,13.43 0 0 0 -1.89,2.65 1.44,1.44 0 0 0 -0.12,0.32 c 0,0 0,0.11 0,0.1 v 0 a 0.76,0.76 0 0 0 0,-0.11 v 0 a 2.84,2.84 0 0 0 0.59,0.23 c 0.51,0.16 1.05,0.3 1.59,0.43 1.09,0.26 2.19,0.48 3.29,0.71 l 4.23,0.81 c 0.56,0.12 0.19,0.11 0.79,0.3 l 0.24,0.09 0.17,0.09 a 0.64,0.64 0 0 1 0.15,0.12 0.56,0.56 0 0 1 0.14,0.23 0.65,0.65 0 0 1 0,0.47 1.42,1.42 0 0 1 -0.24,0.25 l -0.16,0.1 a 1.28,1.28 0 0 1 -0.25,0.11 7.12,7.12 0 0 1 -0.87,0.27 c -1.13,0.28 -2.24,0.47 -3.35,0.68 -0.59,0.09 -1.05,0.21 -1.69,0.31 a 17.49,17.49 0 0 1 -1.75,0.11 17.91,17.91 0 0 1 -3.48,-0.23 2.53,2.53 0 0 1 -1,-0.36 1.08,1.08 0 0 1 -0.4,-0.59 2.6,2.6 0 0 1 -0.1,-0.5 11.68,11.68 0 0 1 0,-1.77 c 0.06,-1.14 0.2,-2.27 0.37,-3.4 0.09,-0.56 0.18,-1.12 0.3,-1.68 0.11,-0.29 0,-0.55 0.38,-0.93 a 3.52,3.52 0 0 1 0.8,-0.49 28,28 0 0 1 3.22,-1.13 c 0.95,-0.35 2.03,-0.65 3.14,-0.89 z"
       style="fill:#c7c7c7"
       id="path1446" />
    <path
       d="m 81.6,455.94 c 1.54,0.5 2.92,1.63 3.8,0.13 0.88,-1.5 3.23,-1.06 4.11,-1.38 0.88,-0.32 2.11,-2.86 2,-3.65 -0.11,-0.79 -0.72,-1.61 -0.72,-2.36 0,-0.75 0,-1.86 -0.14,-2.9 -0.14,-1.04 -0.2,-2.51 -1.8,-3.26 a 7.81,7.81 0 0 0 -3.55,-0.57 c -1,-0.1 -1.75,-1.72 -3.76,-2.34 -2.01,-0.62 -4.65,1.63 -4.88,2.53 -0.23,0.9 -0.42,3.64 -1.17,4.66 -0.75,1.02 -1.8,0.68 -2,1.95 -0.2,1.27 -0.11,3.36 0.26,3.74 0.37,0.38 1.35,-0.19 1.8,0.57 0.45,0.76 0.85,2.78 1.77,3.24 0.92,0.46 3.1,-0.75 4.28,-0.36 z"
       style="fill:#ebebeb"
       id="path1448" />
    <polygon
       points="57.05,395.63 57.05,395.62 58.3,394.38 59.08,394.38 57.11,396.35 "
       style="fill:#ffc727"
       id="polygon1450" />
    <polygon
       points="57.68,403.23 57.65,402.78 57.65,402.77 57.63,402.52 59.44,400.69 65.79,394.38 66.51,394.38 59.84,401.09 "
       style="fill:#ffc727"
       id="polygon1452" />
    <polygon
       points="58.28,410.09 58.27,409.99 58.22,409.41 63.17,404.42 73.28,394.38 73.96,394.38 63.57,404.83 "
       style="fill:#ffc727"
       id="polygon1454" />
    <polygon
       points="58.86,416.96 58.8,416.31 66.9,408.17 80.77,394.38 81.41,394.38 67.31,408.56 "
       style="fill:#ffc727"
       id="polygon1456" />
    <path
       d="m 88.82,394.38 -3,3.09 L 71,412.31 59.4,423.84 v -0.62 l 11.25,-11.33 14.83,-14.73 c 0.93,-0.94 1.88,-1.86 2.82,-2.78 z"
       style="fill:#ffc727"
       id="path1458" />
    <path
       d="m 96.23,394.38 q -3.35,3.42 -6.72,6.82 L 74.78,416 60,430.69 v -0.57 l 14.39,-14.48 14.84,-14.75 q 3.3,-3.27 6.61,-6.51 z"
       style="fill:#ffc727"
       id="path1460" />
    <path
       d="m 103.6,394.38 q -5.14,5.3 -10.36,10.56 l -14.73,14.82 -14.84,14.75 c -1,1 -2,2 -3.07,3 v -0.48 c 0.92,-1 1.87,-1.9 2.8,-2.85 l 14.75,-14.84 14.83,-14.73 q 5.19,-5.14 10.44,-10.25 z"
       style="fill:#ffc727"
       id="path1462" />
    <path
       d="m 110.86,394.46 v 0 Q 104,401.63 97,408.67 l -14.76,14.83 -14.83,14.74 -6.22,6.12 v -0.37 c 2,-2 4,-4 5.95,-6.06 l 14.74,-14.84 14.84,-14.73 q 7.01,-6.97 14.14,-13.9 z"
       style="fill:#ffc727"
       id="path1464" />
    <path
       d="m 110.19,402.5 v 0 0.25 0 q -4.73,4.83 -9.46,9.63 L 86,427.23 71.14,442 q -4.67,4.62 -9.38,9.21 v 0 -0.23 q 4.53,-4.65 9.1,-9.27 l 14.74,-14.83 14.84,-14.74 q 4.85,-4.86 9.75,-9.64 z"
       style="fill:#ffc727"
       id="path1466" />
    <path
       d="m 109.51,410.55 -0.05,0.5 c -1.66,1.7 -3.33,3.39 -5,5.09 L 89.71,431 74.88,445.71 q -6.06,6 -12.17,11.93 h -0.13 q 6,-6.17 12,-12.24 l 14.75,-14.84 14.82,-14.73 z"
       style="fill:#ffc727"
       id="path1468" />
    <path
       d="m 108.82,418.62 v 0.65 l -0.59,0.6 -14.78,14.83 -14.84,14.74 c -2.77,2.75 -5.55,5.47 -8.34,8.2 h -0.33 q 4.19,-4.26 8.36,-8.51 L 93,434.3 107.84,419.56 Z"
       style="fill:#ffc727"
       id="path1470" />
    <path
       d="m 108.13,426.75 -0.06,0.72 -10.89,11 -14.84,14.71 q -2.25,2.24 -4.53,4.46 h -0.48 l 4.7,-4.77 L 96.78,438 Z"
       style="fill:#ffc727"
       id="path1472" />
    <path
       d="m 107.44,434.87 -0.07,0.79 -6.46,6.51 -14.83,14.74 -0.74,0.73 h -0.59 l 1,-1 14.74,-14.84 z"
       style="fill:#ffc727"
       id="path1474" />
    <polygon
       points="104.65,445.9 92.83,457.64 92.18,457.64 104.24,445.5 106.75,443.01 106.68,443.86 "
       style="fill:#ffc727"
       id="polygon1476" />
    <polygon
       points="105.99,452.02 100.34,457.64 99.63,457.64 106.06,451.16 106.06,451.19 "
       style="fill:#ffc727"
       id="polygon1478" />
    <polygon
       points="108.74,394.38 109.52,394.38 110.77,395.62 110.7,396.36 "
       style="fill:#ffc727"
       id="polygon1480" />
    <polygon
       points="107.98,401.09 101.3,394.38 102.03,394.38 108.38,400.69 110.19,402.52 110.12,403.23 "
       style="fill:#ffc727"
       id="polygon1482" />
    <polygon
       points="109.54,410.1 104.24,404.83 93.85,394.38 94.53,394.38 104.65,404.42 109.6,409.41 109.55,409.99 "
       style="fill:#ffc727"
       id="polygon1484" />
    <polygon
       points="100.51,408.56 86.41,394.38 87.04,394.38 100.91,408.17 109.02,416.32 108.96,416.97 "
       style="fill:#ffc727"
       id="polygon1486" />
    <path
       d="m 108.43,423.23 -0.05,0.61 L 96.78,412.31 82,397.47 c -1,-1 -2,-2.06 -3,-3.09 h 0.51 c 0.95,0.92 1.9,1.84 2.83,2.78 l 14.84,14.73 z"
       style="fill:#ffc727"
       id="path1488" />
    <path
       d="m 107.84,430.12 v 0.57 L 93,416 78.3,401.2 q -3.36,-3.4 -6.71,-6.82 H 72 q 3.3,3.24 6.61,6.51 l 14.84,14.75 z"
       style="fill:#ffc727"
       id="path1490" />
    <path
       d="m 107.26,437.05 -0.05,0.49 -3.08,-3 -14.82,-14.78 -14.75,-14.82 c -3.45,-3.51 -6.91,-7 -10.34,-10.56 h 0.22 q 5.24,5.1 10.44,10.25 l 14.83,14.73 14.74,14.84 z"
       style="fill:#ffc727"
       id="path1492" />
    <path
       d="m 106.67,444 v 0.37 c -2.08,-2 -4.16,-4.07 -6.23,-6.12 L 85.57,423.5 70.83,408.67 q -7,-7.05 -13.88,-14.17 v 0 q 7.14,6.93 14.19,13.9 l 14.86,14.69 14.73,14.84 q 2.98,3.07 5.94,6.07 z"
       style="fill:#ffc727"
       id="path1494" />
    <path
       d="m 106.09,450.93 v 0.26 q -4.73,-4.57 -9.38,-9.21 L 81.84,427.23 67.1,412.41 q -4.74,-4.8 -9.45,-9.63 v 0 -0.27 q 4.9,4.77 9.78,9.59 L 82.26,426.84 97,441.66 q 4.56,4.62 9.09,9.27 z"
       style="fill:#ffc727"
       id="path1496" />
    <path
       d="M 105.24,457.64 H 105.1 Q 99,451.7 92.94,445.71 L 78.11,431 63.36,416.14 c -1.67,-1.7 -3.34,-3.39 -5,-5.09 v -0.5 c 1.79,1.76 3.58,3.51 5.36,5.28 l 14.84,14.73 14.68,14.84 q 6.03,6.09 12,12.24 z"
       style="fill:#ffc727"
       id="path1498" />
    <path
       d="m 97.87,457.64 h -0.33 c -2.79,-2.73 -5.56,-5.45 -8.33,-8.2 L 74.37,434.7 59.63,419.87 l -0.58,-0.6 v -0.64 l 0.94,0.93 14.79,14.74 14.73,14.83 q 4.2,4.25 8.36,8.51 z"
       style="fill:#ffc727"
       id="path1500" />
    <path
       d="M 90.47,457.64 H 90 c -1.51,-1.48 -3,-3 -4.53,-4.46 L 70.64,438.43 59.75,427.48 59.69,426.75 71,438 85.74,452.84 c 1.61,1.62 3.18,3.16 4.73,4.8 z"
       style="fill:#ffc727"
       id="path1502" />
    <path
       d="m 83.07,457.64 h -0.59 l -0.74,-0.73 -14.84,-14.74 -6.46,-6.5 -0.06,-0.8 6.93,6.89 L 82,456.6 c 0.39,0.34 0.73,0.7 1.07,1.04 z"
       style="fill:#ffc727"
       id="path1504" />
    <polygon
       points="63.17,445.9 61.14,443.86 61.14,443.85 61.06,443.02 63.57,445.5 75.64,457.64 74.98,457.64 "
       style="fill:#ffc727"
       id="polygon1506" />
    <polygon
       points="61.82,452.02 61.76,451.16 68.19,457.64 67.48,457.64 "
       style="fill:#ffc727"
       id="polygon1508" />
    <rect
       x="59.259998"
       y="394.37"
       width="1.14"
       height="63.400002"
       transform="rotate(-5.21,59.895781,426.26355)"
       style="fill:#ffc727"
       id="rect1510" />
    <rect
       x="76.43"
       y="425.5"
       width="63.400002"
       height="1.14"
       transform="rotate(-84.73,108.14746,426.08529)"
       style="fill:#ffc727"
       id="rect1512" />
    <rect
       x="53.619999"
       y="387.47"
       width="60.490002"
       height="10.24"
       style="fill:#ffc727"
       id="rect1514" />
    <rect
       x="59.860001"
       y="452.16"
       width="48.02"
       height="10.24"
       style="fill:#ffc727"
       id="rect1516" />
  </g>
</svg>
