<svg xmlns="http://www.w3.org/2000/svg" viewBox="0 0 500 500"><g id="freepik--Floor--inject-166"><path d="M54.17,462.2c125.46-.62,266.2-.62,391.66,0-125.46.61-266.2.61-391.66,0Z" style="fill:#263238"></path></g><g id="freepik--Lamp--inject-166"><rect x="118.1" y="178.04" width="3.79" height="89.55" style="fill:#263238"></rect><polygon points="160.61 141.4 97.24 203.85 94.56 201.17 157.93 138.72 160.61 141.4" style="fill:#263238"></polygon><rect x="118.1" y="248.94" width="3.79" height="41.07" transform="translate(-149.49 389.47) rotate(-90)" style="fill:#263238"></rect><polygon points="160.99 152.68 173.68 140.76 161.73 131.05 152.22 139.99 160.99 152.68" style="fill:#FFC727"></polygon><polygon points="173.68 140.76 160.99 152.68 157.5 147.63 168.38 136.46 173.68 140.76" style="opacity:0.1"></polygon><polygon points="159.67 172.6 193.94 140.4 177.57 131.59 151.9 155.72 159.67 172.6" style="fill:#FFC727"></polygon></g><g id="freepik--Books--inject-166"><rect x="137.64" y="258.94" width="74.97" height="12.43" style="fill:#FFC727"></rect><rect x="142.31" y="258.94" width="7.33" height="12.43" style="fill:#37474f"></rect><rect x="152.35" y="258.94" width="3.06" height="12.43" style="fill:#37474f"></rect><rect x="196.47" y="258.94" width="7.33" height="12.43" style="fill:#37474f"></rect><rect x="133.29" y="249.66" width="52.01" height="9.28" style="fill:#455a64"></rect><rect x="185.29" y="249.66" width="22.44" height="9.28" style="fill:#455a64"></rect><rect x="133.29" y="250.63" width="52.01" height="7.35" style="fill:#fff"></rect><path d="M136.65,252.14c15.69-.33,32.95-.33,48.64,0-15.69.33-32.95.32-48.64,0Z" style="fill:#dbdbdb"></path><path d="M136.65,253.58c15.69-.33,32.95-.33,48.64,0-15.69.33-32.95.33-48.64,0Z" style="fill:#dbdbdb"></path><path d="M136.65,255c15.69-.32,32.95-.33,48.64,0-15.69.33-32.95.33-48.64,0Z" style="fill:#dbdbdb"></path><path d="M136.65,256.46c15.69-.32,32.95-.33,48.64,0-15.69.33-32.95.33-48.64,0Z" style="fill:#dbdbdb"></path><rect x="144.95" y="239.5" width="52.05" height="10.17" style="fill:#37474f"></rect><rect x="186.63" y="239.5" width="4.85" height="10.17" style="fill:#FFC727"></rect><rect x="181.56" y="239.5" width="1.88" height="10.17" style="fill:#FFC727"></rect><path d="M162.94,219.87s-11.53-5.31-11.53-12.43,15-11.71,15-17.28-6.52-8.84-6.52-8.84,10.3,3.52,10.3,10.56-9.86,11.81-10.81,16.29C158,214.4,162.94,219.87,162.94,219.87Z" style="fill:#dbdbdb;opacity:0.6000000000000001"></path><path d="M162.37,219.87s11.54-4.17,11.54-9.77-15-9.21-15-13.59,6.52-6.95,6.52-6.95-10.3,2.77-10.3,8.31,11.32,9.34,12.13,13.83S162.37,219.87,162.37,219.87Z" style="fill:#dbdbdb;opacity:0.6000000000000001"></path><rect x="157.34" y="237.78" width="10.97" height="1.71" style="fill:#FFC727"></rect><rect x="157.34" y="237.78" width="10.97" height="1.13" style="opacity:0.1"></rect><path d="M181.33,233.18A6.05,6.05,0,0,1,174,235.5a7.45,7.45,0,0,1-1.55-.81l1.39-2.07a5.08,5.08,0,0,0,.83.47,3.65,3.65,0,0,0,4.59-1.35c1.5-2.11,2-6.94.52-8.8-.1-.13-.54-.35-2.31,0-.33.07-.7.15-1.12.27a4.46,4.46,0,0,1-1,.21l0-1.24-.12-1.24.52-.13a15.22,15.22,0,0,1,2.49-.52,3.78,3.78,0,0,1,3.5,1.05C184.22,224.4,183.21,230.53,181.33,233.18Z" style="fill:#FFC727"></path><path d="M173.88,232.62a5.08,5.08,0,0,0,.83.47L174,235.5a7.45,7.45,0,0,1-1.55-.81Z" style="opacity:0.1"></path><path d="M178.24,220.32l-.73,2.65c-.33.07-.7.15-1.12.27a4.46,4.46,0,0,1-1,.21l0-1.24-.12-1.24.52-.13A15.22,15.22,0,0,1,178.24,220.32Z" style="opacity:0.1"></path><path d="M148.22,217.09s.1.81.29,2.1q0,.3.09.63c.13.88.3,1.93.5,3.06a1.08,1.08,0,0,1,0,.19c.3,1.62.65,3.38,1.06,5l.06.22c.11.45.23.88.35,1.3s.25.84.38,1.23a20.47,20.47,0,0,0,.83,2.12c2.28,4.71,5.46,5.23,7.42,5.23h7.18c2,0,5.15-.52,7.41-5.23.07-.14.14-.3.21-.46a3.65,3.65,0,0,0,.14-.35,2.39,2.39,0,0,0,.15-.37l.1-.27a35.7,35.7,0,0,0,1.18-4.08,1,1,0,0,0,0-.17.64.64,0,0,0,0-.07c.14-.58.27-1.17.39-1.76.2-1,.38-1.9.54-2.81.07-.41.13-.81.2-1.2l.06-.32.12-.75c0-.24.06-.47.1-.7s.06-.43.09-.63c.17-1.2.26-1.94.26-1.94Z" style="fill:#FFC727"></path><path d="M149.13,223.07c.3,1.62.65,3.38,1.06,5a5.17,5.17,0,0,1,.54.11,7.52,7.52,0,0,1,2.47,1.06,14.79,14.79,0,0,1,2.06,1.72,14.52,14.52,0,0,0,2,1.7,4.59,4.59,0,0,0,2.4.78,3,3,0,0,0,2.19-1,14.09,14.09,0,0,0,1.64-2,26.88,26.88,0,0,1,1.62-2.15,6.41,6.41,0,0,1,1-.93,4.78,4.78,0,0,1,.64-.32,2.21,2.21,0,0,1,.71-.12,2.71,2.71,0,0,1,1.37.34,5.25,5.25,0,0,1,1.1.82,25.9,25.9,0,0,1,1.83,2,4.61,4.61,0,0,0,2,1.51,1.4,1.4,0,0,0,.61,0,35.7,35.7,0,0,0,1.18-4.08l-.7-.19a7.68,7.68,0,0,1-2.36-1.3,16.23,16.23,0,0,1-1.89-1.91,14.83,14.83,0,0,0-1.82-1.89,4.67,4.67,0,0,0-2.32-1,3,3,0,0,0-2.28.83,14.66,14.66,0,0,0-1.82,1.87c-.58.67-1.16,1.35-1.82,2a6.47,6.47,0,0,1-1.1.83,5.32,5.32,0,0,1-.66.26,2.57,2.57,0,0,1-.73.05,2.77,2.77,0,0,1-1.32-.48,5,5,0,0,1-1-.92c-.61-.67-1.1-1.41-1.64-2.12a4.64,4.64,0,0,0-1.87-1.71,2.57,2.57,0,0,0-2.33.7C149.65,222.63,149.39,222.85,149.13,223.07Z" style="opacity:0.1"></path><path d="M149.1,222.88a1.08,1.08,0,0,1,0,.19c.26-.22.52-.44.79-.64a2.57,2.57,0,0,1,2.33-.7,4.64,4.64,0,0,1,1.87,1.71c.54.71,1,1.45,1.64,2.12a5,5,0,0,0,1,.92,2.77,2.77,0,0,0,1.32.48,2.57,2.57,0,0,0,.73-.05,5.32,5.32,0,0,0,.66-.26,6.47,6.47,0,0,0,1.1-.83c.66-.63,1.24-1.31,1.82-2a14.66,14.66,0,0,1,1.82-1.87,3,3,0,0,1,2.28-.83,4.67,4.67,0,0,1,2.32,1,14.83,14.83,0,0,1,1.82,1.89,16.23,16.23,0,0,0,1.89,1.91,7.68,7.68,0,0,0,2.36,1.3l.7.19a1,1,0,0,0,0-.17l-.68-.22a9.17,9.17,0,0,1-4.05-3.22,14.82,14.82,0,0,0-1.84-2,5.21,5.21,0,0,0-2.5-1.11,3.48,3.48,0,0,0-2.59.9,14.28,14.28,0,0,0-1.9,1.91c-.58.67-1.14,1.36-1.76,2a3,3,0,0,1-2.19,1,3.23,3.23,0,0,1-2.1-1.26c-.58-.64-1.09-1.37-1.64-2.07a4.78,4.78,0,0,0-2.06-1.76,2,2,0,0,0-1.38.07,4.34,4.34,0,0,0-1.16.72A7.92,7.92,0,0,0,149.1,222.88Z" style="fill:#fff"></path><path d="M150.19,228.1l.06.22.43.09a9.21,9.21,0,0,1,4.35,2.81,13.76,13.76,0,0,0,2,1.78,5.13,5.13,0,0,0,2.6.86,3.41,3.41,0,0,0,2.49-1.14,14.58,14.58,0,0,0,1.7-2.08,22.44,22.44,0,0,1,1.58-2.12,3,3,0,0,1,2.06-1.27,3.25,3.25,0,0,1,2.21,1.05c.65.59,1.22,1.26,1.84,1.91a4.82,4.82,0,0,0,2.22,1.55,1.56,1.56,0,0,0,.57,0l.1-.27a1.4,1.4,0,0,1-.61,0,4.61,4.61,0,0,1-2-1.51,25.9,25.9,0,0,0-1.83-2,5.25,5.25,0,0,0-1.1-.82,2.71,2.71,0,0,0-1.37-.34,2.21,2.21,0,0,0-.71.12,4.78,4.78,0,0,0-.64.32,6.41,6.41,0,0,0-1,.93,26.88,26.88,0,0,0-1.62,2.15,14.09,14.09,0,0,1-1.64,2,3,3,0,0,1-2.19,1,4.59,4.59,0,0,1-2.4-.78,14.52,14.52,0,0,1-2-1.7,14.79,14.79,0,0,0-2.06-1.72,7.52,7.52,0,0,0-2.47-1.06A5.17,5.17,0,0,0,150.19,228.1Z" style="fill:#fff"></path></g><g id="freepik--Device--inject-166"><polygon points="271.84 271.37 203.51 271.37 198.23 224.97 266.55 224.97 271.84 271.37" style="fill:#a6a6a6"></polygon><polygon points="274.3 271.37 205.97 271.37 200.68 224.97 269.01 224.97 274.3 271.37" style="fill:#c7c7c7"></polygon><polygon points="270.57 268.26 208.98 268.26 204.4 228.08 265.99 228.08 270.57 268.26" style="fill:#fff"></polygon><path d="M210.47,234.23q25-.22,49.93,0-25,.24-49.93,0Z" style="fill:#263238"></path><path d="M210.71,236.37q25-.23,49.93,0-25,.24-49.93,0Z" style="fill:#263238"></path><path d="M211,238.52q25-.24,49.93,0-25,.22-49.93,0Z" style="fill:#263238"></path><path d="M211.19,240.66q15.28-.24,30.58,0-15.3.22-30.58,0Z" style="fill:#263238"></path><path d="M211.67,244.94q25-.23,49.94,0-25,.24-49.94,0Z" style="fill:#263238"></path><path d="M211.91,247.08q25-.22,49.94,0-25,.24-49.94,0Z" style="fill:#263238"></path><path d="M212.15,249.23q25-.24,49.94,0-25,.22-49.94,0Z" style="fill:#263238"></path><path d="M212.39,251.37q25-.24,49.94,0-25,.23-49.94,0Z" style="fill:#263238"></path><path d="M212.63,253.51q25-.24,49.94,0-25,.24-49.94,0Z" style="fill:#263238"></path><path d="M212.87,255.65q17.53-.22,35.08,0-17.53.24-35.08,0Z" style="fill:#263238"></path><path d="M213.35,259.93q25-.23,49.94,0-25,.24-49.94,0Z" style="fill:#263238"></path><path d="M213.59,262.08q25-.24,49.94,0-25,.23-49.94,0Z" style="fill:#263238"></path><path d="M213.83,264.22q16-.24,31.93,0-16,.22-31.93,0Z" style="fill:#263238"></path><rect x="203.86" y="268.26" width="90.49" height="3.11" style="fill:#a6a6a6"></rect><rect x="225.54" y="268.26" width="76.23" height="3.11" style="fill:#c7c7c7"></rect><polygon points="266.21 230.03 265.99 228.08 204.4 228.08 204.63 230.03 266.21 230.03" style="fill:#263238"></polygon><path d="M209.59,229.06a.53.53,0,0,0,.49.48.4.4,0,0,0,.38-.48.53.53,0,0,0-.49-.49A.41.41,0,0,0,209.59,229.06Z" style="fill:#c7c7c7"></path><path d="M207.81,229.06a.52.52,0,0,0,.49.48.4.4,0,0,0,.38-.48.53.53,0,0,0-.49-.49A.41.41,0,0,0,207.81,229.06Z" style="fill:#fff"></path><path d="M206,229.06a.53.53,0,0,0,.49.48.41.41,0,0,0,.39-.48.53.53,0,0,0-.49-.49A.42.42,0,0,0,206,229.06Z" style="fill:#FFC727"></path></g><g id="freepik--Plant--inject-166"><path d="M427.11,216.12c-10,9.82-11.71,25-9.59,38.32.05.3.52.21.52-.07,0-3-.09-6-.08-9l.15-.4a20.33,20.33,0,0,0,6.52-7c1.67-3.3,2.33-7,3.61-10.45.12-.33-.23-.23-.46-.07-6.1,4.5-8,9.35-9.8,15.81A54.75,54.75,0,0,1,419,233.17c1.32-6.14,3.93-12.22,8.34-16.78A.19.19,0,0,0,427.11,216.12Z" style="fill:#263238"></path><path d="M429,217.27c1.72.06,2.81,2.81,4.15,3.62a1.29,1.29,0,0,0,1.9-.3c1.34-1.86-.49-4.15-2.21-5.44,1.23.51,2.25,1.4,3.57,1.65a1.25,1.25,0,0,0,1.62-1c.58-2.53-2.6-3.66-4.78-3.71,1.06-.74,4.09-2.74,2.48-3.72s-5.19,1.87-6.35,2.81c-1.71,1.38-3.74,3.45-3.82,5.62C425.46,219.35,427.67,217.8,429,217.27Z" style="fill:#FFC727"></path><path d="M429,217.27c1.72.06,2.81,2.81,4.15,3.62a1.29,1.29,0,0,0,1.9-.3c1.34-1.86-.49-4.15-2.21-5.44,1.23.51,2.25,1.4,3.57,1.65a1.25,1.25,0,0,0,1.62-1c.58-2.53-2.6-3.66-4.78-3.71,1.06-.74,4.09-2.74,2.48-3.72s-5.19,1.87-6.35,2.81c-1.71,1.38-3.74,3.45-3.82,5.62C425.46,219.35,427.67,217.8,429,217.27Z" style="opacity:0.1"></path><path d="M428.5,217.69c2.21-1,6.44.44,6.8-.39.73-1.7-2.65-2.87-4.48-3.09,1.68-.46,4.91-1.18,4.81-2.81-.12-2-4.95-.27-7.39,1.6-3.08,2.36-3.06,4.63-2.55,5.09C426.39,218.72,428.14,217.86,428.5,217.69Z" style="fill:#FFC727"></path><path d="M404.28,215.15c10.39,9.43,12.65,24.55,11,37.92,0,.3-.51.24-.52,0-.11-3-.14-6-.26-9l-.17-.4a20.17,20.17,0,0,1-6.78-6.75c-1.8-3.22-2.6-6.91-4-10.3-.13-.32.23-.24.46-.08,6.27,4.26,8.4,9,10.39,15.43a53.78,53.78,0,0,0-1.44-10c-1.55-6.09-4.39-12.07-9-16.45C403.85,215.26,404.1,215,404.28,215.15Z" style="fill:#263238"></path><path d="M402.44,216.37c-1.73.12-2.7,2.92-4,3.77a1.3,1.3,0,0,1-1.92-.22c-1.4-1.81.34-4.17,2-5.52-1.21.55-2.2,1.48-3.51,1.78a1.25,1.25,0,0,1-1.65-.9c-.68-2.52,2.45-3.76,4.63-3.9-1.08-.69-4.19-2.58-2.62-3.62s5.26,1.67,6.46,2.57c1.75,1.32,3.86,3.31,4,5.47C406.05,218.32,403.78,216.85,402.44,216.37Z" style="fill:#FFC727"></path><path d="M402.44,216.37c-1.73.12-2.7,2.92-4,3.77a1.3,1.3,0,0,1-1.92-.22c-1.4-1.81.34-4.17,2-5.52-1.21.55-2.2,1.48-3.51,1.78a1.25,1.25,0,0,1-1.65-.9c-.68-2.52,2.45-3.76,4.63-3.9-1.08-.69-4.19-2.58-2.62-3.62s5.26,1.67,6.46,2.57c1.75,1.32,3.86,3.31,4,5.47C406.05,218.32,403.78,216.85,402.44,216.37Z" style="opacity:0.1"></path><path d="M403,216.77c-2.24-.91-6.42.69-6.81-.13-.8-1.67,2.54-3,4.36-3.26-1.7-.39-4.95-1-4.91-2.62,0-2,4.93-.47,7.44,1.31,3.17,2.24,3.23,4.52,2.74,5C405.1,217.71,403.32,216.93,403,216.77Z" style="fill:#FFC727"></path><path d="M414.91,240.06A101.28,101.28,0,0,0,418.13,255a.37.37,0,0,0,.73-.15c-.68-4.6-1.93-9.11-2.61-13.7a69,69,0,0,1-.8-14.06c.44-7.75,2.54-16,7.59-22,.11-.14-.12-.35-.24-.21-10.11,11.79-8.5,26.25-8.49,27.55-1.43-4.89-2.91-10.48-8.33-15.46-.23-.21-.41-.11-.37.26,1,9.05,3.48,13.78,8.73,18.62C414.49,237.22,414.68,238.65,414.91,240.06Z" style="fill:#263238"></path><path d="M423.13,206.38c1.82-.81,4.33,1.51,6.13,1.66a1.49,1.49,0,0,0,1.83-1.27c.45-2.6-2.61-4.06-5-4.52,1.53-.1,3,.31,4.54-.09a1.44,1.44,0,0,0,1.19-1.82c-.67-2.92-4.54-2.49-6.83-1.45.73-1.3,2.87-4.9.7-5.1s-4.44,4.55-5.17,6.11c-1.07,2.29-2.14,5.46-1.13,7.75C420.51,210.32,422,207.59,423.13,206.38Z" style="fill:#FFC727"></path><path d="M423.13,206.38c1.82-.81,4.33,1.51,6.13,1.66a1.49,1.49,0,0,0,1.83-1.27c.45-2.6-2.61-4.06-5-4.52,1.53-.1,3,.31,4.54-.09a1.44,1.44,0,0,0,1.19-1.82c-.67-2.92-4.54-2.49-6.83-1.45.73-1.3,2.87-4.9.7-5.1s-4.44,4.55-5.17,6.11c-1.07,2.29-2.14,5.46-1.13,7.75C420.51,210.32,422,207.59,423.13,206.38Z" style="opacity:0.1"></path><path d="M422.83,207.07c1.78-2.15,6.91-2.79,6.86-3.84-.1-2.13-4.2-1.63-6.21-.94,1.52-1.33,4.5-3.7,3.58-5.34-1.12-2-5.27,2.2-6.86,5.38-2,4-.84,6.35-.08,6.56C421.16,209.19,422.54,207.42,422.83,207.07Z" style="fill:#FFC727"></path><path d="M426.47,271.34l4.47-26.82H403.79c.56,2.38,5.61,26.85,5.61,26.85Z" style="fill:#FFC727"></path></g><g id="freepik--Table--inject-166"><rect x="102.97" y="284.38" width="86.35" height="177.81" style="fill:#455a64"></rect><rect x="102.97" y="284.38" width="86.35" height="10.29" style="fill:#263238"></rect><path d="M180,341.23H112.28V304.3H180Zm-67.23-.5h66.73V304.8H112.78Z" style="fill:#263238"></path><rect x="139.53" y="313.41" width="17.8" height="6.06" transform="translate(296.86 632.87) rotate(180)" style="fill:#263238"></rect><path d="M154.46,319.26H136.17v-5.65h18.29Zm-17.79-.5H154v-4.65H136.67Z" style="fill:#263238"></path><path d="M180,389.45H112.28V352.52H180Zm-67.23-.5h66.73V353H112.78Z" style="fill:#263238"></path><rect x="139.53" y="361.63" width="17.8" height="6.06" transform="translate(296.86 729.31) rotate(180)" style="fill:#263238"></rect><path d="M154.46,367.48H136.17v-5.65h18.29Zm-17.79-.5H154v-4.65H136.67Z" style="fill:#263238"></path><path d="M180,437.66H112.28V400.74H180Zm-67.23-.5h66.73V401.24H112.78Z" style="fill:#263238"></path><rect x="139.53" y="409.84" width="17.8" height="6.06" transform="translate(296.86 825.75) rotate(180)" style="fill:#263238"></rect><path d="M154.46,415.7H136.17v-5.65h18.29Zm-17.79-.5H154v-4.65H136.67Z" style="fill:#263238"></path><rect x="63.31" y="271.36" width="373.37" height="13.03" transform="translate(500 555.75) rotate(180)" style="fill:#455a64"></rect><polygon points="415.68 284.38 415.95 294.67 419.58 462.19 426.14 462.19 426.14 284.38 415.68 284.38" style="fill:#455a64"></polygon><polygon points="426.14 284.38 415.68 284.38 415.95 294.67 426.14 294.67 426.14 284.38" style="fill:#263238"></polygon><polygon points="371.93 284.38 372.2 294.67 375.82 462.19 382.38 462.19 382.38 284.38 371.93 284.38" style="fill:#455a64"></polygon><polygon points="382.38 284.38 371.93 284.38 372.2 294.67 382.38 294.67 382.38 284.38" style="fill:#263238"></polygon><rect x="73.86" y="284.38" width="29.11" height="177.81" style="fill:#37474f"></rect><rect x="73.86" y="284.38" width="29.11" height="10.29" style="fill:#263238"></rect><polygon points="380.81 324 418.82 344.28 418.82 339.63 380.81 319.34 380.81 324" style="fill:#455a64"></polygon><polygon points="418.82 324 380.81 344.28 380.81 339.63 418.82 319.34 418.82 324" style="fill:#455a64"></polygon></g><g id="freepik--Character--inject-166"><path d="M345.14,220c-1.13,17.21-3.36,51.46-13,57.08-5.65,3.28-40.46-3.9-42-3.72-3.85.41-5.2-27.52-1.22-28.71.93-.28,29.7,5.42,31.05,4s6.28-18.11,13.66-34.77C338.29,203.23,346,206.43,345.14,220Z" style="fill:#d3766a"></path><path d="M294.13,272.23a89.19,89.19,0,0,1-11.53,2.65c-3.09.37-12,1.18-12.76-2.18-.51-2.29,4.69-3.39,8.34-4.25,1.92-.45,4.46-2,4.12-3.22-.6-2.17-5.57-.91-8.91.36-6.46,2.45-15.34,7.32-18.44,3.73-1.18-1.36.74-3.16,3.39-4.79-4.14,1.73-8.46,3-9.83,1.54a2,2,0,0,1,0-2.75,2.68,2.68,0,0,1-2.82-.93c-1-1.48-.1-3.27,1.55-5a1.5,1.5,0,0,1-1-.91c-1.93-4.37,12.87-13.53,17.52-13.85,13.67-1,27.48,2.51,27.48,2.51C295.74,250.14,294.14,272.22,294.13,272.23Z" style="fill:#d3766a"></path><path d="M276.59,256.78a21.72,21.72,0,0,0-9.33,1.93c-3.42,1.6-6.34,4.07-9.57,6-.09.05,0,.19.09.13,1.53-1,3.18-1.87,4.76-2.82s3.07-1.91,4.67-2.73a21.48,21.48,0,0,1,9.38-2.44A0,0,0,0,0,276.59,256.78Z" style="fill:#263238"></path><path d="M275.06,250.79a54.74,54.74,0,0,0-10.79,1.85c-3.81,1.21-7,3.67-10.21,6q-2.85,2.13-5.61,4.38c-.07.06,0,.2.09.13,3.22-2.44,6.52-4.8,9.88-7a28.65,28.65,0,0,1,10.28-4.33c2.11-.42,4.24-.69,6.37-.95A0,0,0,0,0,275.06,250.79Z" style="fill:#263238"></path><path d="M272.18,245.3c-3.48.14-6.5.24-9.78,1.55A48.31,48.31,0,0,0,252,253.17c-1.74,1.33-3.42,2.71-5.09,4.12-.07.06,0,.18.1.12A113.19,113.19,0,0,1,259,249a22.42,22.42,0,0,1,6.34-2.78,40.58,40.58,0,0,1,6.86-.85S272.19,245.3,272.18,245.3Z" style="fill:#263238"></path><path d="M245.7,262.38a2.64,2.64,0,0,0,2.82.93,2,2,0,0,0,0,2.76c1.36,1.45,5.69.19,9.83-1.55-2.64,1.64-4.57,3.44-3.39,4.8,3.1,3.59,12-1.28,18.44-3.73,3.34-1.27,8.32-2.54,8.9-.35.35,1.24-2.19,2.75-4.11,3.21-3.66.86-8.85,2-8.34,4.25.74,3.36,9.67,2.54,12.76,2.18a66.14,66.14,0,0,0,7.49-1.54h0c1.65-.15,36.37,7,42,3.72,5.39-3.13,8.47-15.12,10.34-28.11l-49.27.5-6.31.07-36.69.38c-2.82,2.39-4.67,4.87-3.91,6.6a1.5,1.5,0,0,0,1,.91C245.6,259.12,244.69,260.9,245.7,262.38Z" style="opacity:0.1"></path><path d="M345.24,241.93,322,233.41s6.29-16.11,12.69-24.35,10.47-3.44,11.13,6.7S345.24,241.93,345.24,241.93Z" style="fill:#FFC727"></path><path d="M324.71,229.66a156.42,156.42,0,0,1,19.7,7.41s0,.18-.06.16c-5.49-1.7-16.15-5.91-19.72-7.34C324.57,229.87,324.64,229.64,324.71,229.66Z" style="fill:#263238"></path><path d="M323.9,234.12l21.34,7.81s1.23-16,.57-26.17c-.43-6.55-2.27-10.87-5.25-10.89Z" style="opacity:0.1"></path><path d="M332,215.1c3.56-.35,5.62-6.74,5.93-11.09,0-.34-1.38-3.13-3-6.62-.95-2.12-2-4.5-2.72-6.74l-12.88,8.22a37.78,37.78,0,0,1,4.29,8.13,5,5,0,0,1,.22.95s0,.1,0,.16C324.26,210,328.6,215.43,332,215.1Z" style="fill:#d3766a"></path><path d="M323.91,208l0,.15a8.9,8.9,0,0,0,1.46-.42c7.57-2.77,6.78-12.8,6.17-16.6l-12.18,7.78a37.3,37.3,0,0,1,4.29,8.13A5.54,5.54,0,0,1,323.91,208Z" style="fill:#263238"></path><path d="M333.8,170.65c2.92,5.87,3,21.76-.77,26.47-5.41,6.84-15.75,9.13-21.93,2.29-6-6.63-5.79-26.73-1.49-31.17C316,161.71,329.49,162,333.8,170.65Z" style="fill:#d3766a"></path><path d="M307.39,177.89s.37,3.78,3,4.47c.21.06,8.23,17.17,24.22,12.7,0,0,7.71-13,3.26-22.69-2.88-6.25-7.73-7.26-7.73-7.26s-10.8-6.53-20.74-.43S303.3,178.17,307.39,177.89Z" style="fill:#263238"></path><path d="M310.22,186.17s1.79-5.64,4.25-5.14,2.12,8-.06,9.64a2.63,2.63,0,0,1-3.78-.29Z" style="fill:#d3766a"></path><path d="M314.32,183.17s.06,0,0,.06c-1.51,1.24-1.92,3.12-2,5a1.44,1.44,0,0,1,1.95-1,.05.05,0,0,1,0,.1,1.62,1.62,0,0,0-1.53,1.07,8.22,8.22,0,0,0-.38,1.63c0,.18-.34.18-.34,0v0C311.27,187.74,312,184.13,314.32,183.17Z" style="fill:#263238"></path><path d="M301.66,364.12s22.63,42.27,22.64,42.3c4,7.93,7.28,14.95,8.67,18.74a.14.14,0,0,1,0,.06,6.13,6.13,0,0,1,.63,2.74.08.08,0,0,1,0,.07c-1.56,2.78-64,36.24-66.55,36.67s-4-6.85-2.62-10.08S284,427.88,284,427.88l-22.22-42.44Z" style="fill:#d3766a"></path><path d="M280.13,429.85c3.86-2.81,9.36-4.63,14-3.15.18.05.1.31-.06.33a66.31,66.31,0,0,0-13.71,3.35A.3.3,0,0,1,280.13,429.85Z" style="fill:#263238"></path><path d="M278,433.16c3.86-2.82,9.36-4.64,14-3.16.18.06.1.31-.06.33a67,67,0,0,0-13.71,3.35A.3.3,0,0,1,278,433.16Z" style="fill:#263238"></path><path d="M275.77,436.46c3.86-2.81,9.36-4.63,14-3.16.18.06.09.32-.06.34A65.37,65.37,0,0,0,276,437,.3.3,0,0,1,275.77,436.46Z" style="fill:#263238"></path><path d="M267.05,464.71c2.57-.44,65-33.9,66.56-36.68.61-1-3.74-10.43-9.31-21.61l-.18-.35-40.51,21.14.38.67s-18.16,23.5-19.56,26.74S264.48,465.15,267.05,464.71Z" style="fill:#37474f"></path><path d="M324.12,406.06l.18.37c5.57,11.18,9.92,20.55,9.31,21.6-.71,1.26-14.05,8.89-28.6,16.88-17.41,9.54-36.56,19.56-38,19.8-2.57.44-4-6.87-2.62-10.09S284,427.88,284,427.88l-.38-.66,13.51-7.06Z" style="fill:#FFC727"></path><path d="M266.46,461.91c10.38-5.9,52.82-28.71,63.53-33.75.09,0,.12,0,0,.06-10.16,6.07-52.78,28.54-63.47,33.86C266.33,462.19,266.24,462,266.46,461.91Z" style="fill:#263238"></path><path d="M321.84,399.86l-44.79,23.51S242.85,356.86,236.87,321c-1.11-6.66,10.65-26.23,18.7-30.45,16.37-8.58,60.47-7.49,69.26-11.16,2.82-1.18,2.53-15,2.53-15l48.49.76s15.69,28,1.86,48.09c-14.78,21.42-87.8,14.42-87.8,14.42Z" style="fill:#263238"></path><path d="M316.19,391.27a37.76,37.76,0,0,0-3.75,1.65c-1.38.62-2.76,1.24-4.13,1.91-2.62,1.27-5.21,2.61-7.78,4-5.19,2.77-10.34,5.6-15.43,8.56-2.9,1.68-5.78,3.38-8.63,5.14a.11.11,0,0,0,.11.18c5.23-2.58,10.41-5.27,15.6-7.94s10.37-5.34,15.44-8.21c1.46-.82,2.92-1.63,4.35-2.5s3-1.61,4.29-2.6C316.34,391.39,316.3,391.23,316.19,391.27Z" style="fill:#37474f"></path><path d="M236.87,321c3.14,18.85,14.07,46.14,23.73,67.82l30.74-57.91,1.58-3,25-47c-15.63,2.08-48.64,2.51-62.31,9.67C247.51,294.73,235.77,314.31,236.87,321Z" style="fill:#37474f"></path><path d="M254.5,391.26s-6.41,46.31-6.41,46.34c-.21,8.86-.54,16.62-1.09,20.62a.13.13,0,0,1,0,.06,6.16,6.16,0,0,1-.72,2.72l-.05.06c-2.68,1.72-73.5,2.15-76,1.34s-.34-7.94,2.4-10.15,29.78-14.5,29.78-14.5l6.85-46.27Z" style="fill:#d3766a"></path><path d="M198.08,437.69c4.73-.68,10.45.27,13.89,3.77.14.13-.06.32-.21.27a65.63,65.63,0,0,0-13.68-3.45A.3.3,0,0,1,198.08,437.69Z" style="fill:#263238"></path><path d="M194.61,439.59c4.73-.68,10.44.28,13.89,3.77.14.13-.06.32-.21.27a65.61,65.61,0,0,0-13.68-3.44A.3.3,0,0,1,194.61,439.59Z" style="fill:#263238"></path><path d="M191.14,441.5c4.73-.69,10.44.27,13.89,3.76.13.14-.06.32-.21.27a65.77,65.77,0,0,0-13.68-3.44A.3.3,0,0,1,191.14,441.5Z" style="fill:#263238"></path><path d="M170.24,462.4c2.48.82,73.3.39,76-1.35,1-.64,1.57-11,1.86-23.45,0-.13,0-.26,0-.39L202.4,437l0,.77s-27,12.29-29.78,14.51S167.76,461.59,170.24,462.4Z" style="fill:#FFC727"></path><path d="M171,459.65c11.93-.37,60.11-.72,71.93-.17.1,0,.1.07,0,.07-11.82.62-60,.58-71.93.29C170.78,459.84,170.77,459.66,171,459.65Z" style="fill:#263238"></path><path d="M272.53,338c-3.16,9.89-22.64,94.24-22.64,94.24l-52.14-.72s22.39-107.74,35-123.46c20.47-25.47,86.84-26.64,87.81-29.34,1.42-4,.53-14.87.53-14.87l53.76,1.24s16.86,32.16-3.07,50.29C354.1,331.5,274.53,331.76,272.53,338Z" style="fill:#263238"></path><path d="M247.27,422.39c-5.94-.3-12.09-.6-18-.57s-11.8,0-17.69.26c-3.34.14-6.67.19-10,.47-.11,0-.11.17,0,.18,5.93.48,11.89.52,17.83.58s11.8.12,17.69-.05c3.34-.09,6.68-.2,10-.37C247.42,422.87,247.62,422.41,247.27,422.39Z" style="fill:#37474f"></path><path d="M319.35,245.68,321.1,264l54.75,1.16s-14.6-45.4-30.66-59.32c-8-7-16.37-5.44-21.11.6-1.2,1.53-10.87,19.47-11.65,27.82C311.75,241.6,319.35,245.68,319.35,245.68Z" style="fill:#FFC727"></path><path d="M336,218.72c-4.92,23.91-11.86,50.47-17.27,53.74-10.23,6.19-31.37,2.12-36.52,1.54-4.15-.47-8-31.78-3.59-32.11,4.61-.35,21.35,2.62,23.23,1.81,1.42-.62,11.12-15.35,20.54-29.49C334.89,195.39,339.27,202.76,336,218.72Z" style="fill:#d3766a"></path><path d="M281.7,242s-26.71-3.06-37.52,1.07C239,245.06,219,258,222,262.92c2.69,4.46,18.5-8.63,18.5-8.63s-17.12,11.79-12.9,16.56,20.13-12.39,20.13-12.39S230.42,271,235.55,275.19c3.88,3.2,19.16-11.53,19.16-11.53s-14.81,10.85-11,14.31c4.25,3.82,19.2-8.89,19.2-8.89,11.27,7.14,19.37,5.24,25.16,3.67C289.51,272.38,281.7,242,281.7,242Z" style="fill:#d3766a"></path><path d="M246.17,249.83c-2.06,1.31-4.15,2.63-6.09,4.12s-3.83,3.05-5.62,4.72a41.54,41.54,0,0,0-6.35,7.14c3.6-4.41,10.46-9.85,12.4-11.34s3.79-3.08,5.72-4.57C246.28,249.86,246.22,249.8,246.17,249.83Z" style="fill:#263238"></path><path d="M251.69,256.73c-2.56,1.79-5.17,3.47-7.65,5.38s-5.84,4.66-8.18,6.72c-.18.16,0,.49.16.33,2.42-2,6-4.63,8.42-6.57s4.8-4,7.29-5.8C251.77,256.76,251.73,256.7,251.69,256.73Z" style="fill:#263238"></path><path d="M257.48,261.8a70,70,0,0,0-11.06,9.12c-.18.16,0,.2.2,0,3.62-3.1,6.44-5.56,10.95-9C257.64,261.89,257.57,261.75,257.48,261.8Z" style="fill:#263238"></path><path d="M310.58,228.15l22.58,7.23s4.71-15.88,4.72-25.87S332,200.76,325.53,208,310.58,228.15,310.58,228.15Z" style="fill:#FFC727"></path><path d="M333.31,230.94a150,150,0,0,0-19.24-6s-.09.14-.05.15c5.14,1.94,15.68,5,19.21,6C333.3,231.18,333.37,231,333.31,230.94Z" style="fill:#263238"></path><path d="M337.31,222.34s0-.05-.05,0c-.38.79-.71,1.58-1,2.39.33-1.76.61-3.52.86-5.28,0-.07-.09-.08-.1,0-1.31,5.19-2.75,10.37-3.95,15.59-.57,0-1.14,0-1.71-.08a.08.08,0,1,0,0,.15c.62.12,1.23.3,1.84.48a.3.3,0,0,0,.38-.14,76.4,76.4,0,0,0,2.39-9.09c.22-.47.43-.95.61-1.43A17.79,17.79,0,0,0,337.31,222.34Z" style="fill:#263238"></path><path d="M324.52,164c1.06-.26,5.25-2.42,9.68.46,4.2,2.73,9.51,13.85,11,16.13s5,1.41,6.83,4c1.61,2.24.14,3.85.64,5.75.39,1.48,2.63,3.07,2.13,5.66-.46,2.36-2.69,2.74-3.72,3.81s-.71,4.27-2.73,5.93-4.88.31-6.1.79-1.26,4.8-5.4,6-6.58-1.78-8.5-1.82-5.63,2.68-8.32,1.33-4.05-4-5.29-4.69-3,.14-4.92-1.82-.33-4.27-.79-6.43c-.32-1.51-2.08-2.34-2-4.85.09-3.45,4-4.2,4.23-7.79.18-2.83-1.51-14.15,3.85-19.12C318.84,164,324.52,164,324.52,164Z" style="fill:#263238"></path><path d="M344.89,180.06a3.92,3.92,0,0,0,1.58.94l1.74.64a11.27,11.27,0,0,1,3.23,1.57,3.7,3.7,0,0,1,1.54,2.9,5.47,5.47,0,0,1-.31,1.71,6.39,6.39,0,0,0-.42,1.9,3.13,3.13,0,0,0,.88,1.83c.39.49.8.94,1.16,1.41a4.41,4.41,0,0,1,1.08,3.19,2.46,2.46,0,0,1-.69,1.49,4.51,4.51,0,0,1-1.47,1c-.55.25-1.13.45-1.71.68a3.06,3.06,0,0,0-1.53,1,3.3,3.3,0,0,1,1.6-.84c.58-.17,1.18-.32,1.77-.53a4.92,4.92,0,0,0,1.65-1,3,3,0,0,0,.92-1.74,4.73,4.73,0,0,0-1.11-3.64c-.37-.51-.78-1-1.15-1.45a2.59,2.59,0,0,1-.7-1.43c0-1,.73-2.26.67-3.6a4.11,4.11,0,0,0-1.86-3.32,11.63,11.63,0,0,0-3.45-1.47l-1.77-.48A4.17,4.17,0,0,1,344.89,180.06Z" style="fill:#263238"></path><path d="M311.52,175.5a54,54,0,0,0-.53,6.59c-.08,1.09-.13,2.19-.29,3.25a7.28,7.28,0,0,1-.36,1.53,1.12,1.12,0,0,1-.15.31,1.32,1.32,0,0,1-.21.29c-.17.2-.37.38-.56.57a30.92,30.92,0,0,0-2.33,2.38,5.63,5.63,0,0,0-1.41,3.12,3.56,3.56,0,0,0,.29,1.73,4.58,4.58,0,0,0,1,1.36,7.15,7.15,0,0,1,2.05,2.52,6.69,6.69,0,0,0-1.8-2.76,4.13,4.13,0,0,1-.89-1.3,3,3,0,0,1-.16-1.5,5.45,5.45,0,0,1,1.36-2.76c.69-.81,1.53-1.51,2.33-2.29.2-.19.4-.4.59-.62a2.4,2.4,0,0,0,.46-.81,7.82,7.82,0,0,0,.38-1.68,28.55,28.55,0,0,0,.19-3.32l0-3.31A28,28,0,0,1,311.52,175.5Z" style="fill:#263238"></path><path d="M313.53,207.07a5.64,5.64,0,0,1,1.45,1.82c.43.66.85,1.32,1.32,2a10.93,10.93,0,0,0,1.57,1.83A5.17,5.17,0,0,0,320,214a6.54,6.54,0,0,0,4.71-1.17c.68-.41,1.34-.86,2-1.24a4.82,4.82,0,0,1,2.16-.81,4.52,4.52,0,0,0-2.32.5c-.72.34-1.41.73-2.11,1.08a6.64,6.64,0,0,1-4.28,1,4.59,4.59,0,0,1-1.88-1.08,14.07,14.07,0,0,1-1.6-1.67c-.5-.59-1-1.22-1.46-1.84-.25-.31-.51-.61-.78-.91A2.29,2.29,0,0,0,313.53,207.07Z" style="fill:#263238"></path><polygon points="301.02 334.18 298.39 349.95 280.57 462.19 277.69 462.19 290.65 349.95 292.57 334.18 301.02 334.18" style="fill:#c7c7c7"></polygon><polygon points="292.57 334.18 301.02 334.18 298.39 349.95 290.65 349.95 292.57 334.18" style="fill:#a6a6a6"></polygon><polygon points="356.98 462.19 354.11 462.19 336.29 349.95 333.66 334.18 342.11 334.18 344.02 349.95 356.98 462.19" style="fill:#c7c7c7"></polygon><polygon points="342.11 334.18 344.02 349.95 336.29 349.95 333.66 334.18 342.11 334.18" style="fill:#a6a6a6"></polygon><polygon points="410.44 462.19 407.57 462.19 389.75 349.95 387.11 334.18 395.56 334.18 397.48 349.95 410.44 462.19" style="fill:#c7c7c7"></polygon><polygon points="397.48 349.95 389.75 349.95 387.11 334.18 395.56 334.18 397.48 349.95" style="fill:#a6a6a6"></polygon><polygon points="405.88 341.59 275.29 341.59 275.29 327.83 324.18 327.83 340.61 211.89 400.9 211.89 405.88 341.59" style="fill:#c7c7c7"></polygon><polygon points="346.03 211.89 329.59 327.83 324.18 327.83 340.61 211.89 346.03 211.89" style="fill:#dbdbdb"></polygon><polygon points="329.63 327.83 275.29 327.83 275.29 341.59 327.77 341.59 329.63 327.83" style="fill:#dbdbdb"></polygon></g><g id="freepik--trash-can--inject-166"><path d="M78.06,435.49c1.82-.26,4.15-.26,4.28.78s-.69,1.6-.43,2.12a22.07,22.07,0,0,0,2.43,2.17,5.05,5.05,0,0,1,1.21,2.16c0,.26.43.69,0,1.21s-.68,1.3-1,1.69-.51.82,0,1.52.07,2.68-.7,3.37-3-.95-3.73-.78-.78.52-1.38.95a6.75,6.75,0,0,1-3.64,1.48c-1.56,0-2.34-1.39-3.29-2a12.58,12.58,0,0,0-2.68-1,4.93,4.93,0,0,1-2-1.47c-.18-.35-.78-.44-.52-1.39s.69-1.21.69-2,0-.92,0-1.8-.7-2.44-.1-3.13,1-1.74,2-1.74,4,.52,4,.52A8,8,0,0,0,74,437a2.5,2.5,0,0,1,2.1-1.21A6.49,6.49,0,0,0,78.06,435.49Z" style="fill:#fff"></path><path d="M67.28,444.28c1.24.57,2.5,1.08,3.76,1.58s2.52,1,3.79,1.5a34.2,34.2,0,0,0,3.8,1.23,2.6,2.6,0,0,0,.8.09l.76-.38a13.16,13.16,0,0,0,1.66-1A4.67,4.67,0,0,0,83.11,446a2.53,2.53,0,0,0,.18-.37l.06-.19,0-.08h0a1.48,1.48,0,0,0-.33-.58,18.29,18.29,0,0,0-3-2.58c-1.08-.81-2.2-1.56-3.35-2.28-.57-.37-1.15-.73-1.73-1.06q-.45-.25-.9-.48l-.46-.21c-.15,0-.35-.16-.46,0,.1-.16.33-.06.48-.05l.5.13c.33.11.65.24,1,.37.63.26,1.26.55,1.87.85,1.22.62,2.41,1.3,3.58,2a16.24,16.24,0,0,1,3.3,2.62,2.22,2.22,0,0,1,.6,1.21,1.17,1.17,0,0,1,0,.26l0,.16-.09.3a3.36,3.36,0,0,1-.26.54,5.68,5.68,0,0,1-1.54,1.65,13.79,13.79,0,0,1-1.83,1.09l-.47.23-.23.11-.13.06-.25.08a3.43,3.43,0,0,1-1.23-.13,24.81,24.81,0,0,1-3.89-1.48A51.66,51.66,0,0,1,67.28,444.28Z" style="fill:#c7c7c7"></path><path d="M72.45,446.63a22.72,22.72,0,0,1,2.24-3c.41-.47.85-.92,1.3-1.36.22-.22.47-.43.71-.64a3.85,3.85,0,0,1,.92-.6l.17-.07a1.43,1.43,0,0,1,.36,0,.89.89,0,0,1,.48.26,3,3,0,0,1,.35.43,9.59,9.59,0,0,1,.53.83c.3.56.59,1.11.84,1.69a15.5,15.5,0,0,1,1.18,3.56l-2-3.15c-.33-.51-.64-1-1-1.54a8.22,8.22,0,0,0-.49-.72,1.81,1.81,0,0,0-.24-.28s0,0,.09,0a.19.19,0,0,0,.13,0l0,0a3.26,3.26,0,0,0-.63.41l-.69.57-1.39,1.19C74.39,445.07,73.46,445.88,72.45,446.63Z" style="fill:#c7c7c7"></path><path d="M100.05,436.32c-.51-1.54-.42-3.32-2.15-3.13s-2.77-2-3.55-2.5-3.55,0-4.16.52-.86,1.53-1.47,2-1.47,1.14-2.25,1.83-1.9,1.65-1.56,3.38a7.94,7.94,0,0,0,1.65,3.2c.52.87-.35,2.43.34,4.42s4.07,2.77,4.94,2.42,3.18-1.82,4.44-1.82,1.62,1,2.74.44,2.77-1.91,2.86-2.43-.95-1-.61-1.78,1.74-2.34,1.56-3.35S100.44,437.5,100.05,436.32Z" style="fill:#fff"></path><path d="M96.84,433a47.86,47.86,0,0,0-6.25,2.49,3.51,3.51,0,0,0-.62.41c-.08,0-.13.39-.18.63-.09.54-.16,1.1-.22,1.66-.11,1.11-.2,2.23-.2,3.33a10.52,10.52,0,0,0,.08,1.61,1.19,1.19,0,0,0,.12.43,2,2,0,0,0,.61.18,16,16,0,0,0,3.26.16,14.18,14.18,0,0,0,1.62-.12c.47-.08,1.11-.24,1.63-.33,1.11-.22,2.21-.44,3.27-.71.26-.07.53-.14.75-.22l.13,0h0a.15.15,0,0,0-.08.11.54.54,0,0,0,0,.41.38.38,0,0,0,.11.19s.08.06.07.06h0l-.15-.06c-.48-.16-1-.29-1.58-.41L95.88,442c-1.1-.24-2.21-.48-3.31-.76-.55-.15-1.1-.29-1.66-.48a2.63,2.63,0,0,1-.93-.49.55.55,0,0,1-.1-.11.69.69,0,0,1-.08-.21,1.48,1.48,0,0,1,0-.21,1.22,1.22,0,0,1,.06-.32,4,4,0,0,1,.2-.46,14.29,14.29,0,0,1,2.15-2.75c.2-.21.4-.41.62-.6a3.37,3.37,0,0,1,.35-.29l.19-.14a.69.69,0,0,1,.28-.14.81.81,0,0,1,.64.15,4,4,0,0,1,.37.3,7.13,7.13,0,0,1,.6.64,43.32,43.32,0,0,1,3.68,5.71,53.93,53.93,0,0,0-4.1-5.34,7.6,7.6,0,0,0-.58-.56,1.18,1.18,0,0,0-.44-.28l-.08.06-.15.11-.29.27c-.2.19-.38.4-.56.6a13.43,13.43,0,0,0-1.89,2.65,1.44,1.44,0,0,0-.12.32s0,.11,0,.1h0a.76.76,0,0,0,0-.11l0,0a2.84,2.84,0,0,0,.59.23c.51.16,1.05.3,1.59.43,1.09.26,2.19.48,3.29.71l4.23.81c.56.12.19.11.79.3l.24.09.17.09a.64.64,0,0,1,.15.12.56.56,0,0,1,.14.23.65.65,0,0,1,0,.47,1.42,1.42,0,0,1-.24.25l-.16.1a1.28,1.28,0,0,1-.25.11,7.12,7.12,0,0,1-.87.27c-1.13.28-2.24.47-3.35.68-.59.09-1.05.21-1.69.31a17.49,17.49,0,0,1-1.75.11,17.91,17.91,0,0,1-3.48-.23,2.53,2.53,0,0,1-1-.36,1.08,1.08,0,0,1-.4-.59,2.6,2.6,0,0,1-.1-.5,11.68,11.68,0,0,1,0-1.77c.06-1.14.2-2.27.37-3.4.09-.56.18-1.12.3-1.68.11-.29,0-.55.38-.93a3.52,3.52,0,0,1,.8-.49,28,28,0,0,1,3.22-1.13C94.65,433.54,95.73,433.24,96.84,433Z" style="fill:#c7c7c7"></path><path d="M81.6,455.94c1.54.5,2.92,1.63,3.8.13s3.23-1.06,4.11-1.38,2.11-2.86,2-3.65-.72-1.61-.72-2.36,0-1.86-.14-2.9-.2-2.51-1.8-3.26a7.81,7.81,0,0,0-3.55-.57c-1-.1-1.75-1.72-3.76-2.34s-4.65,1.63-4.88,2.53-.42,3.64-1.17,4.66-1.8.68-2,1.95-.11,3.36.26,3.74,1.35-.19,1.8.57.85,2.78,1.77,3.24S80.42,455.55,81.6,455.94Z" style="fill:#ebebeb"></path><polygon points="59.08 394.38 57.11 396.35 57.05 395.63 57.05 395.62 58.3 394.38 59.08 394.38" style="fill:#FFC727"></polygon><polygon points="66.51 394.38 59.84 401.09 57.68 403.23 57.65 402.78 57.65 402.77 57.63 402.52 59.44 400.69 65.79 394.38 66.51 394.38" style="fill:#FFC727"></polygon><polygon points="73.96 394.38 63.57 404.83 58.28 410.09 58.27 409.99 58.22 409.41 63.17 404.42 73.28 394.38 73.96 394.38" style="fill:#FFC727"></polygon><polygon points="81.41 394.38 67.31 408.56 58.86 416.96 58.8 416.31 66.9 408.17 80.77 394.38 81.41 394.38" style="fill:#FFC727"></polygon><path d="M88.82,394.38l-3,3.09L71,412.31l-11.6,11.53,0-.62,11.25-11.33,14.83-14.73c.93-.94,1.88-1.86,2.82-2.78Z" style="fill:#FFC727"></path><path d="M96.23,394.38q-3.35,3.42-6.72,6.82L74.78,416,60,430.69l0-.57,14.39-14.48,14.84-14.75q3.3-3.27,6.61-6.51Z" style="fill:#FFC727"></path><path d="M103.6,394.38q-5.14,5.3-10.36,10.56L78.51,419.76,63.67,434.51c-1,1-2,2-3.07,3l0-.48c.92-1,1.87-1.9,2.8-2.85l14.75-14.84,14.83-14.73q5.19-5.14,10.44-10.25Z" style="fill:#FFC727"></path><path d="M110.86,394.46v0Q104,401.63,97,408.67L82.24,423.5,67.41,438.24l-6.22,6.12,0-.37c2-2,4-4,5.95-6.06l14.74-14.84,14.84-14.73Q103.73,401.39,110.86,394.46Z" style="fill:#FFC727"></path><path d="M110.19,402.5v0l0,.25h0q-4.73,4.83-9.46,9.63L86,427.23,71.14,442q-4.67,4.62-9.38,9.21v0l0-.23q4.53-4.65,9.1-9.27l14.74-14.83,14.84-14.74Q105.29,407.28,110.19,402.5Z" style="fill:#FFC727"></path><path d="M109.51,410.55l-.05.5c-1.66,1.7-3.33,3.39-5,5.09L89.71,431,74.88,445.71q-6.06,6-12.17,11.93h-.13q6-6.17,12-12.24l14.75-14.84,14.82-14.73Z" style="fill:#FFC727"></path><path d="M108.82,418.62l0,.65-.59.6L93.45,434.7,78.61,449.44c-2.77,2.75-5.55,5.47-8.34,8.2h-.33q4.19-4.26,8.36-8.51L93,434.3l14.84-14.74Z" style="fill:#FFC727"></path><path d="M108.13,426.75l-.06.72-10.89,11L82.34,453.18q-2.25,2.24-4.53,4.46h-.48l4.7-4.77L96.78,438Z" style="fill:#FFC727"></path><path d="M107.44,434.87l-.07.79-6.46,6.51L86.08,456.91l-.74.73h-.59l1-1,14.74-14.84Z" style="fill:#FFC727"></path><polygon points="106.75 443.01 106.68 443.86 104.65 445.9 92.83 457.64 92.18 457.64 104.24 445.5 106.75 443.01" style="fill:#FFC727"></polygon><polygon points="106.06 451.16 106.06 451.19 105.99 452.02 100.34 457.64 99.63 457.64 106.06 451.16" style="fill:#FFC727"></polygon><polygon points="110.77 395.62 110.7 396.36 108.74 394.38 109.52 394.38 110.77 395.62" style="fill:#FFC727"></polygon><polygon points="110.19 402.52 110.12 403.23 107.98 401.09 101.3 394.38 102.03 394.38 108.38 400.69 110.19 402.52" style="fill:#FFC727"></polygon><polygon points="109.6 409.41 109.55 409.99 109.54 410.1 104.24 404.83 93.85 394.38 94.53 394.38 104.65 404.42 109.6 409.41" style="fill:#FFC727"></polygon><polygon points="109.02 416.32 108.96 416.97 100.51 408.56 86.41 394.38 87.04 394.38 100.91 408.17 109.02 416.32" style="fill:#FFC727"></polygon><path d="M108.43,423.23l-.05.61-11.6-11.53L82,397.47c-1-1-2-2.06-3-3.09h.51c.95.92,1.9,1.84,2.83,2.78l14.84,14.73Z" style="fill:#FFC727"></path><path d="M107.84,430.12l0,.57L93,416,78.3,401.2q-3.36-3.4-6.71-6.82H72q3.3,3.24,6.61,6.51l14.84,14.75Z" style="fill:#FFC727"></path><path d="M107.26,437.05l-.05.49-3.08-3L89.31,419.76,74.56,404.94c-3.45-3.51-6.91-7-10.34-10.56h.22q5.24,5.1,10.44,10.25l14.83,14.73,14.74,14.84Z" style="fill:#FFC727"></path><path d="M106.67,444l0,.37c-2.08-2-4.16-4.07-6.23-6.12L85.57,423.5,70.83,408.67q-7-7.05-13.88-14.17v0q7.14,6.93,14.19,13.9L86,423.09l14.73,14.84Q103.71,441,106.67,444Z" style="fill:#FFC727"></path><path d="M106.09,450.93l0,.26q-4.73-4.57-9.38-9.21L81.84,427.23,67.1,412.41q-4.74-4.8-9.45-9.63h0l0-.27q4.9,4.77,9.78,9.59l14.83,14.74L97,441.66Q101.56,446.28,106.09,450.93Z" style="fill:#FFC727"></path><path d="M105.24,457.64h-.14Q99,451.7,92.94,445.71L78.11,431,63.36,416.14c-1.67-1.7-3.34-3.39-5-5.09l0-.5c1.79,1.76,3.58,3.51,5.36,5.28l14.84,14.73L93.24,445.4Q99.27,451.49,105.24,457.64Z" style="fill:#FFC727"></path><path d="M97.87,457.64h-.33c-2.79-2.73-5.56-5.45-8.33-8.2L74.37,434.7,59.63,419.87l-.58-.6,0-.64.94.93L74.78,434.3l14.73,14.83Q93.71,453.38,97.87,457.64Z" style="fill:#FFC727"></path><path d="M90.47,457.64H90c-1.51-1.48-3-3-4.53-4.46L70.64,438.43,59.75,427.48l-.06-.73L71,438l14.74,14.84C87.35,454.46,88.92,456,90.47,457.64Z" style="fill:#FFC727"></path><path d="M83.07,457.64h-.59l-.74-.73L66.9,442.17l-6.46-6.5-.06-.8,6.93,6.89L82,456.6C82.39,456.94,82.73,457.3,83.07,457.64Z" style="fill:#FFC727"></path><polygon points="75.64 457.64 74.98 457.64 63.17 445.9 61.14 443.86 61.14 443.85 61.06 443.02 63.57 445.5 75.64 457.64" style="fill:#FFC727"></polygon><polygon points="68.19 457.64 67.48 457.64 61.82 452.02 61.76 451.16 68.19 457.64" style="fill:#FFC727"></polygon><rect x="59.26" y="394.37" width="1.14" height="63.4" transform="translate(-38.46 7.2) rotate(-5.21)" style="fill:#FFC727"></rect><rect x="76.43" y="425.5" width="63.4" height="1.14" transform="translate(-326.07 494.64) rotate(-84.73)" style="fill:#FFC727"></rect><rect x="53.62" y="387.47" width="60.49" height="10.24" style="fill:#FFC727"></rect><rect x="59.86" y="452.16" width="48.02" height="10.24" style="fill:#FFC727"></rect></g></svg>