<?xml version="1.0" encoding="UTF-8" standalone="no"?>
<!-- Uploaded to: SVG Repo, www.svgrepo.com, Generator: SVG Repo Mixer Tools -->

<svg
   xmlns:dc="http://purl.org/dc/elements/1.1/"
   xmlns:cc="http://creativecommons.org/ns#"
   xmlns:rdf="http://www.w3.org/1999/02/22-rdf-syntax-ns#"
   xmlns:svg="http://www.w3.org/2000/svg"
   xmlns="http://www.w3.org/2000/svg"
   xmlns:sodipodi="http://sodipodi.sourceforge.net/DTD/sodipodi-0.dtd"
   xmlns:inkscape="http://www.inkscape.org/namespaces/inkscape"
   width="711.11176"
   height="709.22113"
   viewBox="0 0 32.000029 31.914951"
   version="1.1"
   preserveAspectRatio="xMidYMid meet"
   id="svg8"
   sodipodi:docname="brick_icon2_bw.svg"
   style="fill:#000000"
   inkscape:version="0.92.5 (2060ec1f9f, 2020-04-08)">
  <metadata
     id="metadata14">
    <rdf:RDF>
      <cc:Work
         rdf:about="">
        <dc:format>image/svg+xml</dc:format>
        <dc:type
           rdf:resource="http://purl.org/dc/dcmitype/StillImage" />
        <dc:title>blocks-group-line</dc:title>
      </cc:Work>
    </rdf:RDF>
  </metadata>
  <defs
     id="defs12" />
  <sodipodi:namedview
     pagecolor="#ffffff"
     bordercolor="#666666"
     borderopacity="1"
     objecttolerance="10"
     gridtolerance="10"
     guidetolerance="10"
     inkscape:pageopacity="0"
     inkscape:pageshadow="2"
     inkscape:window-width="2560"
     inkscape:window-height="1391"
     id="namedview10"
     showgrid="false"
     fit-margin-top="0"
     fit-margin-left="0"
     fit-margin-right="0"
     fit-margin-bottom="0"
     inkscape:zoom="1.4150781"
     inkscape:cx="354.74675"
     inkscape:cy="353.38835"
     inkscape:window-x="0"
     inkscape:window-y="0"
     inkscape:window-maximized="1"
     inkscape:current-layer="svg8" />
  <title
     id="title2">blocks-group-line</title>
  <path
     d="m 31.430003,16.772476 -6.93,-3.19 V 4.4424759 a 1,1 0 0 0 -0.6,-0.9 l -7.5,-3.45 a 1,1 0 0 0 -0.84,0 l -7.4999999,3.45 a 1,1 0 0 0 -0.58,0.91 v 9.1400001 l -6.90000004,3.18 a 1,1 0 0 0 -0.5799999984727,0.91 v 9.78 0 a 1,1 0 0 0 0.5799999984727,0.91 l 7.50000004,3.45 a 1,1 0 0 0 0.84,0 l 7.0799999,-3.26 7.08,3.26 a 1,1 0 0 0 0.84,0 l 7.5,-3.45 a 1,1 0 0 0 0.58,-0.91 v 0 -9.78 a 1,1 0 0 0 -0.57,-0.91 z m -2.81,0.91 -5.11,2.33 -5.11,-2.33 5.11,-2.35 z m -12.62,-15.5900001 5.11,2.35 -5.11,2.35 -5.1,-2.35 z m -7.4999999,13.2300001 5.1099999,2.35 -5.1099999,2.34 -5.11,-2.33 z m 6.4999999,11.49 -6.4999999,3 -6.5,-3 v -7.57 l 6.08,2.77 a 1,1 0 0 0 0.82,0 l 6.0799999,-2.8 z m -5.4999999,-13.23 v 0 -7.5700001 l 6.0799999,2.8 a 1,1 0 0 0 0.84,0 l 6.08,-2.8 v 7.5800001 0 l -6.5,3 z m 20.5099999,13.24 -6.5,3 -6.51,-3 v -7.59 l 6.09,2.78 a 1,1 0 0 0 0.81,0 l 6.08,-2.8 z"
     class="clr-i-outline clr-i-outline-path-1"
     id="path4"
     inkscape:connector-curvature="0" />
  <rect
     x="-2.099997"
     y="-1.9875242"
     width="36"
     height="36"
     id="rect6"
     style="fill-opacity:0" />
</svg>
