<?xml version="1.0" encoding="UTF-8" standalone="no"?>
<svg
   fill-rule="evenodd"
   stroke-width="27"
   aria-label="Logo"
   viewBox="0 0 344.60999 386.96451"
   version="1.1"
   id="svg12"
   sodipodi:docname="hugo_icon.svg"
   width="344.60999"
   height="386.96451"
   inkscape:version="1.2.2 (1:1.2.2+202305151915+b0a8486541)"
   xmlns:inkscape="http://www.inkscape.org/namespaces/inkscape"
   xmlns:sodipodi="http://sodipodi.sourceforge.net/DTD/sodipodi-0.dtd"
   xmlns="http://www.w3.org/2000/svg"
   xmlns:svg="http://www.w3.org/2000/svg">
  <defs
     id="defs16" />
  <sodipodi:namedview
     id="namedview14"
     pagecolor="#ffffff"
     bordercolor="#666666"
     borderopacity="1.0"
     inkscape:showpageshadow="2"
     inkscape:pageopacity="0.0"
     inkscape:pagecheckerboard="0"
     inkscape:deskcolor="#d1d1d1"
     showgrid="false"
     inkscape:zoom="0.80174146"
     inkscape:cx="519.49415"
     inkscape:cy="192.08187"
     inkscape:window-width="3440"
     inkscape:window-height="1391"
     inkscape:window-x="0"
     inkscape:window-y="0"
     inkscape:window-maximized="1"
     inkscape:current-layer="svg12" />
  <path
     fill="#ff4088"
     stroke="#c9177e"
     d="m 194.82,20.400762 114.41,66.54 a 44,44 0 0 1 21.88,38.039998 v 136.43 a 48,48 0 0 1 -24.45,41.82 l -113.55,63.94 a 49,49 0 0 1 -48.48,-0.23 l -104.57,-60.19 a 53,53 0 0 1 -26.56,-45.93 v -129.47 A 55,55 0 0 1 39.6,84.550762 l 102.8,-63.46 a 51,51 0 0 1 52.42,-0.69 z"
     id="path8" />
  <path
     fill="#ffffff"
     d="M 92.92,296.19076 V 88.970762 h 43.35 v 75.479998 h 71.92 V 88.970762 h 43.48 V 296.19076 h -43.48 v -90.61 h -71.92 v 90.61 z"
     id="path10"
     sodipodi:nodetypes="ccccccccccccc" style="stroke-opacity:0;" />
</svg>
