<?xml version="1.0" encoding="UTF-8" standalone="no"?>
<!-- Uploaded to: SVG Repo, www.svgrepo.com, Generator: SVG Repo Mixer Tools -->

<svg
   width="533.31787"
   height="530.05408"
   viewBox="0 0 15.999536 15.901622"
   fill="none"
   version="1.1"
   id="svg4"
   sodipodi:docname="facebook.svg"
   inkscape:version="1.2.2 (1:1.2.2+202305151915+b0a8486541)"
   xmlns:inkscape="http://www.inkscape.org/namespaces/inkscape"
   xmlns:sodipodi="http://sodipodi.sourceforge.net/DTD/sodipodi-0.dtd"
   xmlns="http://www.w3.org/2000/svg"
   xmlns:svg="http://www.w3.org/2000/svg">
  <defs
     id="defs8" />
  <sodipodi:namedview
     id="namedview6"
     pagecolor="#ffffff"
     bordercolor="#666666"
     borderopacity="1.0"
     inkscape:showpageshadow="2"
     inkscape:pageopacity="0.0"
     inkscape:pagecheckerboard="0"
     inkscape:deskcolor="#d1d1d1"
     showgrid="false"
     inkscape:zoom="1.28375"
     inkscape:cx="100.87634"
     inkscape:cy="260.95424"
     inkscape:window-width="3440"
     inkscape:window-height="1391"
     inkscape:window-x="0"
     inkscape:window-y="0"
     inkscape:window-maximized="1"
     inkscape:current-layer="svg4" />
  <path
     d="m 15.999392,7.9016223 c -0.0187,-1.5245 -0.4727,-3.01191 -1.3085,-4.28705 -0.8358,-1.27514 -2.0185,-2.28491 -3.4089,-2.91038003 -1.3905003,-0.62547 -2.9307003,-0.84059 -4.4393003,-0.62004 -1.50857,0.22056 -2.92273,0.8676 -4.0759,1.86495003 -1.15318,0.99734 -1.99734995,2.30344 -2.43309995,3.76447 -0.43574,1.46105 -0.44492,3.01615 -0.02644,4.4822497 0.41848,1.4661 1.24717995,2.782 2.38850995,3.7929 1.14132,1.0109 2.54775,1.6746 4.05363,1.9129 v -5.67 h -1.99999 V 7.9016223 h 1.99999 v -1.77 c -0.0463,-0.41154 -0.0017,-0.82825 0.1307,-1.22069 0.1324,-0.39244 0.3493,-0.75104 0.6354,-1.05049 0.2861,-0.29946 0.6344,-0.53247 1.0204,-0.68258 0.386,-0.15012 0.8003,-0.21369 1.2135,-0.18621 0.5998003,0.00821 1.1982003,0.0617 1.7900003,0.16 v 2 h -1 c -0.1724,-0.02175 -0.3476,-0.00447 -0.5124,0.05056 -0.1649003,0.05503 -0.3153003,0.1464 -0.4401003,0.26736 -0.1248,0.12096 -0.2208,0.26842 -0.2809,0.43145 -0.0602,0.1631 -0.0829,0.3376 -0.0666,0.5106 v 1.51 h 2.2200003 l -0.36,2.3299997 H 9.2493917 v 5.6 c 1.8899003,-0.2989 3.6101003,-1.2653 4.8485003,-2.7239 1.2384,-1.4586 1.913,-3.3126997 1.9015,-5.2260997 z"
     fill="#000000"
     id="path2" />
</svg>
