<?xml version="1.0" encoding="UTF-8" standalone="no"?>
<!-- Uploaded to: SVG Repo, www.svgrepo.com, Generator: SVG Repo Mixer Tools -->

<svg
   xmlns:dc="http://purl.org/dc/elements/1.1/"
   xmlns:cc="http://creativecommons.org/ns#"
   xmlns:rdf="http://www.w3.org/1999/02/22-rdf-syntax-ns#"
   xmlns:svg="http://www.w3.org/2000/svg"
   xmlns="http://www.w3.org/2000/svg"
   xmlns:sodipodi="http://sodipodi.sourceforge.net/DTD/sodipodi-0.dtd"
   xmlns:inkscape="http://www.inkscape.org/namespaces/inkscape"
   fill="#000000"
   version="1.1"
   width="800px"
   height="800px"
   viewBox="0 0 512 512"
   xml:space="preserve"
   id="svg5"
   sodipodi:docname="linkedin.svg"
   inkscape:version="0.92.5 (2060ec1f9f, 2020-04-08)"><metadata
   id="metadata11"><rdf:RDF><cc:Work
       rdf:about=""><dc:format>image/svg+xml</dc:format><dc:type
         rdf:resource="http://purl.org/dc/dcmitype/StillImage" /><dc:title></dc:title></cc:Work></rdf:RDF></metadata><defs
   id="defs9" /><sodipodi:namedview
   pagecolor="#ffffff"
   bordercolor="#666666"
   borderopacity="1"
   objecttolerance="10"
   gridtolerance="10"
   guidetolerance="10"
   inkscape:pageopacity="0"
   inkscape:pageshadow="2"
   inkscape:window-width="2560"
   inkscape:window-height="1391"
   id="namedview7"
   showgrid="false"
   inkscape:zoom="0.87613236"
   inkscape:cx="-173.68622"
   inkscape:cy="315.59571"
   inkscape:window-x="0"
   inkscape:window-y="0"
   inkscape:window-maximized="1"
   inkscape:current-layer="svg5" />

<g
   id="7935ec95c421cee6d86eb22ecd125aef"
   transform="translate(0,-10.24)">

<path
   style="clip-rule:evenodd;display:inline;fill-rule:evenodd"
   d="M 116.504,500.219 V 170.654 H 6.975 V 500.218 H 116.504 Z M 61.751,125.674 c 38.183,0 61.968,-25.328 61.968,-56.953 C 122.997,36.393 99.934,11.78 62.467,11.78 24.994,11.781 0.5,36.394 0.5,68.722 c 0,31.625 23.772,56.953 60.53,56.953 h 0.721 z m 115.373,374.545 c 0,0 1.437,-298.643 0,-329.564 H 286.67 v 47.794 h -0.727 c 14.404,-22.49 40.354,-55.533 99.44,-55.533 72.085,0 126.116,47.103 126.116,148.333 V 500.22 H 401.971 V 323.912 c 0,-44.301 -15.848,-74.531 -55.497,-74.531 -30.254,0 -48.284,20.38 -56.202,40.08 -2.897,7.012 -3.602,16.861 -3.602,26.711 v 184.047 z"
   id="path2"
   inkscape:connector-curvature="0">

</path>

</g>

</svg>