<?xml version="1.0" encoding="UTF-8" standalone="no"?>
<!-- Uploaded to: SVG Repo, www.svgrepo.com, Generator: SVG Repo Mixer Tools -->

<svg
   xmlns:dc="http://purl.org/dc/elements/1.1/"
   xmlns:cc="http://creativecommons.org/ns#"
   xmlns:rdf="http://www.w3.org/1999/02/22-rdf-syntax-ns#"
   xmlns:svg="http://www.w3.org/2000/svg"
   xmlns="http://www.w3.org/2000/svg"
   xmlns:sodipodi="http://sodipodi.sourceforge.net/DTD/sodipodi-0.dtd"
   xmlns:inkscape="http://www.inkscape.org/namespaces/inkscape"
   width="580.75732"
   height="582.99969"
   viewBox="0 0 17.42272 17.489991"
   version="1.1"
   id="svg4"
   sodipodi:docname="phone.svg"
   style="fill:none"
   inkscape:version="0.92.5 (2060ec1f9f, 2020-04-08)">
  <metadata
     id="metadata10">
    <rdf:RDF>
      <cc:Work
         rdf:about="">
        <dc:format>image/svg+xml</dc:format>
        <dc:type
           rdf:resource="http://purl.org/dc/dcmitype/StillImage" />
        <dc:title></dc:title>
      </cc:Work>
    </rdf:RDF>
  </metadata>
  <defs
     id="defs8" />
  <sodipodi:namedview
     pagecolor="#ffffff"
     bordercolor="#666666"
     borderopacity="1"
     objecttolerance="10"
     gridtolerance="10"
     guidetolerance="10"
     inkscape:pageopacity="0"
     inkscape:pageshadow="2"
     inkscape:window-width="2560"
     inkscape:window-height="1391"
     id="namedview6"
     showgrid="false"
     fit-margin-top="0"
     fit-margin-left="0"
     fit-margin-right="0"
     fit-margin-bottom="0"
     inkscape:zoom="1.4150781"
     inkscape:cx="293.14821"
     inkscape:cy="291.66667"
     inkscape:window-x="0"
     inkscape:window-y="0"
     inkscape:window-maximized="1"
     inkscape:current-layer="svg4" />
  <path
     d="m 15.152046,17.48999 h -0.23 c -2.5912,-0.2819 -5.0807003,-1.1654 -7.2700003,-2.58 -2.03382,-1.2953 -3.76062,-3.0187 -5.06,-5.05 C 1.1742057,7.66499 0.29056574,5.16822 0.01204574,2.57 c -0.03184,-0.3099 -4e-4,-0.62305 0.09243,-0.92043 0.09282,-0.29738 0.24509,-0.57281 0.44757,-0.80957 0.19694,-0.23993 0.44002,-0.4379 0.71485996,-0.58219 C 1.5417357,0.11353 1.8427257,0.02586 2.1520457,0 h 2.6 c 0.56312,5.7e-4 1.10747,0.20247 1.53476,0.56924 0.42729,0.36677 0.70934,0.87424 0.79524,1.43076 0.095,0.71488 0.2728,1.41627 0.53,2.09 0.1564,0.42338 0.1887,0.88263 0.0931,1.32374 -0.0957,0.4411 -0.3153,0.84572 -0.6331,1.16626 l -0.61,0.60999 c 0.9604,1.5162 2.2487,2.7977 3.7700003,3.75 l 0.61,-0.6 c 0.3205,-0.3178 0.7252,-0.5374 1.1663,-0.6331 0.4411,-0.0956 0.9003,-0.0633 1.3237,0.0931 0.6745,0.2548 1.3756,0.4326 2.09,0.53 0.566,0.0851 1.0815,0.3738 1.4498,0.812 0.3682,0.4383 0.5639,0.9958 0.5502,1.568 v 2.4 c 0,0.6242 -0.2473,1.223 -0.6877,1.6653 -0.4404,0.4423 -1.0381,0.6921 -1.6623,0.6947 z M 4.7520457,1.49 h -2.39 c -0.11735,0.00776 -0.23191,0.03923 -0.33675,0.09251 -0.10485,0.05328 -0.1978,0.12727 -0.27325,0.21749 -0.07342,0.08451 -0.129,0.18301 -0.16337,0.28956 -0.03437,0.10655 -0.04683,0.21895 -0.03663,0.33044 0.24249,2.35678 1.03362,4.62399 2.31,6.61999 1.17664,1.8467 2.74332,3.4134 4.59,4.59 1.9973003,1.2898 4.2670003,2.0978 6.6300003,2.36 0.1229,0.0069 0.2459,-0.0117 0.3612,-0.0547 0.1153,-0.0431 0.2205,-0.1096 0.3088,-0.1953 0.1592,-0.1632 0.2489,-0.3819 0.25,-0.61 v -2.39 c 0.0045,-0.2104 -0.0683,-0.4152 -0.2047,-0.5756 -0.1364,-0.1603 -0.3269,-0.2651 -0.5353,-0.2944 -0.8261,-0.1111 -1.6376,-0.3123 -2.42,-0.6 -0.1541,-0.0576 -0.3214,-0.0704 -0.4825,-0.0367 -0.1611,0.0336 -0.3093,0.1122 -0.4275,0.2267 l -1,1 c -0.1171,0.1142 -0.268,0.1876 -0.4301,0.2092 -0.1622,0.0216 -0.3269,-0.0097 -0.4699,-0.0892 -2.1338003,-1.2058 -3.9000303,-2.9685 -5.1100003,-5.1 -0.08282,-0.142 -0.11598,-0.3076 -0.09425,-0.4706 0.02173,-0.1629 0.09711,-0.31402 0.21425,-0.42939 l 1,-1 c 0.11468,-0.11598 0.19357,-0.2625 0.22726,-0.42208 0.03369,-0.15958 0.02076,-0.32549 -0.03726,-0.47792 -0.28881,-0.78202 -0.49003,-1.59364 -0.6,-2.42 C 5.6072357,2.04527 5.5033757,1.84746 5.3406957,1.70512 5.1780157,1.56277 4.9681757,1.48609 4.7520457,1.49 Z"
     id="path2"
     inkscape:connector-curvature="0"
     style="fill:#000000" />
</svg>
