<svg xmlns:xlink="http://www.w3.org/1999/xlink" width="33" height="20" viewBox="0 0 33 20" fill="none" xmlns="http://www.w3.org/2000/svg"><path d="M1.28375 19.41L0.79375 18.64C1.21375 17.0067 1.75042 15.07 2.40375 12.83C3.05708 10.5433 3.75708 8.28 4.50375 6.04C5.29708 3.75333 6.06708 1.77 6.81375 0.0899959H15.3538C14.9338 2.09666 14.4904 4.26667 14.0238 6.6C13.5571 8.88666 13.1371 11.15 12.7638 13.39C12.4371 15.5833 12.1571 17.59 11.9238 19.41H1.28375ZM31.69 0.0899959L32.18 0.859998C31.76 2.54 31.2233 4.5 30.57 6.74C29.9167 8.98 29.2167 11.2433 28.47 13.53C27.7233 15.77 26.9533 17.73 26.16 19.41H17.69C18.0167 17.9167 18.3433 16.33 18.67 14.65C18.9967 12.9233 19.3 11.22 19.58 9.54C19.9067 7.81333 20.1867 6.15667 20.42 4.57C20.7 2.93666 20.91 1.44333 21.05 0.0899959H31.69Z" fill="#040404"></path></svg>