<?xml version="1.0" encoding="UTF-8" standalone="no"?>
<!-- Uploaded to: SVG Repo, www.svgrepo.com, Generator: SVG Repo Mixer Tools -->

<svg
   xmlns:dc="http://purl.org/dc/elements/1.1/"
   xmlns:cc="http://creativecommons.org/ns#"
   xmlns:rdf="http://www.w3.org/1999/02/22-rdf-syntax-ns#"
   xmlns:svg="http://www.w3.org/2000/svg"
   xmlns="http://www.w3.org/2000/svg"
   xmlns:sodipodi="http://sodipodi.sourceforge.net/DTD/sodipodi-0.dtd"
   xmlns:inkscape="http://www.inkscape.org/namespaces/inkscape"
   width="591.23291"
   height="600"
   viewBox="0 0 378.38906 384"
   version="1.1"
   id="svg7"
   sodipodi:docname="shopping-cart.svg"
   inkscape:version="0.92.5 (2060ec1f9f, 2020-04-08)">
  <metadata
     id="metadata13">
    <rdf:RDF>
      <cc:Work
         rdf:about="">
        <dc:format>image/svg+xml</dc:format>
        <dc:type
           rdf:resource="http://purl.org/dc/dcmitype/StillImage" />
        <dc:title>shopping-cart</dc:title>
      </cc:Work>
    </rdf:RDF>
  </metadata>
  <defs
     id="defs11" />
  <sodipodi:namedview
     pagecolor="#ffffff"
     bordercolor="#666666"
     borderopacity="1"
     objecttolerance="10"
     gridtolerance="10"
     guidetolerance="10"
     inkscape:pageopacity="0"
     inkscape:pageshadow="2"
     inkscape:window-width="2560"
     inkscape:window-height="1391"
     id="namedview9"
     showgrid="false"
     fit-margin-top="0"
     fit-margin-left="0"
     fit-margin-right="0"
     fit-margin-bottom="0"
     inkscape:zoom="1.2390383"
     inkscape:cx="21.218451"
     inkscape:cy="384.69459"
     inkscape:window-x="0"
     inkscape:window-y="0"
     inkscape:window-maximized="1"
     inkscape:current-layer="svg7" />
  <title
     id="title2">shopping-cart</title>
  <g
     id="Page-1"
     style="fill:none;fill-rule:evenodd;stroke:none;stroke-width:1"
     transform="matrix(0.88714628,0,0,0.88714628,-16.500268,-54.035235)">
    <g
       id="icon"
       transform="translate(42.666667,85.333333)"
       style="fill:#000000">
      <path
         d="M 0,0 H 70.362209 L 89.749333,85.333333 H 378.38906 L 337.2462,277.33333 H 89.637791 L 36.288,42.666667 H 0 Z M 325.61067,128 H 99.456 l 24.23467,106.66667 h 179.05066 z m -186.944,256 c 17.67311,0 32,-14.32689 32,-32 0,-17.67311 -14.32689,-32 -32,-32 -17.67311,0 -32,14.32689 -32,32 0,17.67311 14.32689,32 32,32 z M 288,384 c 17.67311,0 32,-14.32689 32,-32 0,-17.67311 -14.32689,-32 -32,-32 -17.67311,0 -32,14.32689 -32,32 0,17.67311 14.32689,32 32,32 z"
         id="Combined-Shape"
         inkscape:connector-curvature="0" />
    </g>
  </g>
</svg>
