<?xml version="1.0" encoding="UTF-8" standalone="no"?>
<svg xmlns:dc="http://purl.org/dc/elements/1.1/" xmlns:cc="http://creativecommons.org/ns#" xmlns:rdf="http://www.w3.org/1999/02/22-rdf-syntax-ns#" xmlns:svg="http://www.w3.org/2000/svg" xmlns="http://www.w3.org/2000/svg" xmlns:xlink="http://www.w3.org/1999/xlink" xmlns:sodipodi="http://sodipodi.sourceforge.net/DTD/sodipodi-0.dtd" xmlns:inkscape="http://www.inkscape.org/namespaces/inkscape" viewBox="0 0 317.10001 98.099998" version="1.1" id="svg15" sodipodi:docname="youtube.svg" width="317.10001" height="98.099998" inkscape:version="0.92.5 (2060ec1f9f, 2020-04-08)">
  <metadata id="metadata21">
    <rdf:RDF>
      <cc:Work rdf:about="">
        <dc:format>image/svg+xml</dc:format>
        <dc:type rdf:resource="http://purl.org/dc/dcmitype/StillImage"/>
        <dc:title/>
      </cc:Work>
    </rdf:RDF>
  </metadata>
  <defs id="defs19"/>
  <sodipodi:namedview pagecolor="#ffffff" bordercolor="#666666" borderopacity="1" objecttolerance="10" gridtolerance="10" guidetolerance="10" inkscape:pageopacity="0" inkscape:pageshadow="2" inkscape:window-width="2560" inkscape:window-height="1391" id="namedview17" showgrid="false" fit-margin-top="0" fit-margin-left="0" fit-margin-right="0" fit-margin-bottom="0" inkscape:zoom="2.7689278" inkscape:cx="73.722301" inkscape:cy="47.8" inkscape:window-x="0" inkscape:window-y="0" inkscape:window-maximized="1" inkscape:current-layer="svg15"/>
  <g id="g11" style="fill:#ffffff" transform="translate(-173,-4.7)">
    <path d="m 227.9,99.7 c -3.1,-2.1 -5.3,-5.3 -6.6,-9.7 -1.3,-4.4 -1.9,-10.2 -1.9,-17.5 v -9.9 c 0,-7.3 0.7,-13.3 2.2,-17.7 1.5,-4.5 3.8,-7.7 7,-9.7 3.2,-2 7.3,-3.1 12.4,-3.1 5,0 9.1,1 12.1,3.1 3,2.1 5.3,5.3 6.7,9.7 1.4,4.4 2.1,10.3 2.1,17.6 v 9.9 c 0,7.3 -0.7,13.1 -2.1,17.5 -1.4,4.4 -3.6,7.6 -6.7,9.7 -3.1,2 -7.3,3.1 -12.5,3.1 -5.4,0.1 -9.6,-1 -12.7,-3 z M 245.2,89 c 0.9,-2.2 1.3,-5.9 1.3,-10.9 V 56.8 c 0,-4.9 -0.4,-8.5 -1.3,-10.7 -0.9,-2.3 -2.4,-3.4 -4.5,-3.4 -2.1,0 -3.5,1.1 -4.4,3.4 -0.9,2.3 -1.3,5.8 -1.3,10.7 v 21.3 c 0,5 0.4,8.7 1.2,10.9 0.8,2.2 2.3,3.3 4.5,3.3 2.1,0 3.6,-1.1 4.5,-3.3 z M 464.4,72.7 v 3.5 l 0.4,9.9 c 0.3,2.2 0.8,3.8 1.6,4.8 0.8,1 2.1,1.5 3.8,1.5 2.3,0 3.9,-0.9 4.7,-2.7 0.9,-1.8 1.3,-4.8 1.4,-8.9 l 13.3,0.8 c 0.1,0.6 0.1,1.4 0.1,2.4 0,6.3 -1.7,11 -5.2,14.1 -3.5,3.1 -8.3,4.7 -14.6,4.7 -7.6,0 -12.9,-2.4 -15.9,-7.1 -3,-4.7 -4.6,-12.1 -4.6,-22 V 61.6 c 0.34,-17 3.33,-29.45 20.9,-29.5 5.3,0 9.3,1 12.1,2.9 2.8,1.9 4.8,4.9 6,9 1.2,4.1 1.7,9.7 1.7,16.9 v 11.7 h -25.7 z m 2,-28.8 c -0.8,1 -1.3,2.5 -1.6,4.7 -0.3,2.2 -0.4,10 -0.4,10 v 4.9 h 11.2 v -4.9 c 0,4.9 -0.1,-7.7 -0.4,-10 -0.3,-2.3 -0.8,-3.9 -1.6,-4.8 -0.8,-0.9 -2,-1.4 -3.6,-1.4 -1.7,0.1 -2.9,0.6 -3.6,1.5 z M 190.5,71.4 173,8.2 h 15.3 c 0,0 7.15,31.7 9.6,46.6 h 0.4 c 2.78,-15.82 9.8,-46.6 9.8,-46.6 h 15.3 l -17.7,63.1 v 30.3 H 190.6 V 71.4 Z" id="path6" inkscape:connector-curvature="0" style="fill:#ffffff"/>
    <path id="A" d="m 311.5,33.4 v 68.3 h -12 l -1.3,-8.4 h -0.3 c -3.3,6.3 -8.2,9.5 -14.7,9.5 -11.77,-0.03 -13.08,-10 -13.2,-18.4 v -51 h 15.4 v 50.1 c 0,3 0.3,5.2 1,6.5 1.42,2.78 5.1,2.07 7.1,0.7 a 8,8 0 0 0 2.7,-3.1 V 33.4 Z" inkscape:connector-curvature="0" style="fill:#ffffff"/>
    <path d="M 353.3,20.6 H 338 v 81.1 H 323 V 20.6 H 307.7 V 8.2 h 45.5 v 12.4 z m 87.9,23.7 C 440.3,40 438.8,36.9 436.7,34.9 434.6,33 431.8,32 428.1,32 a 14.1,14.1 0 0 0 -7.9,2.4 c -2.5,1.6 -4.3,3.7 -5.7,6.3 h -0.1 v -36 h -14.8 v 96.9 h 12.7 l 1.6,-6.5 h 0.3 a 14,14 0 0 0 5.3,5.5 c 2.4,1.3 5,2 7.9,2 5.2,0 9,-2.4 11.5,-7.2 2.4,-4.8 3.7,-12.3 3.7,-22.4 V 62.2 c 0,-7.6 -0.5,-13.6 -1.4,-17.9 z m -14.1,27.9 c 0,5 -0.2,8.9 -0.6,11.7 -0.4,2.8 -1.1,4.8 -2.1,6 -1,1.2 -2.3,1.8 -3.9,1.8 -3.1,-0.1 -4.86,-1.5 -6.1,-3.6 V 49.3 c 0.5,-1.9 1.4,-3.4 2.7,-4.6 2.2,-2.47 5.96,-2.5 7.7,0 0.9,1.2 1.4,3.3 1.8,6.2 0.3,2.9 0.5,7 0.5,12.4 z" id="path9" inkscape:connector-curvature="0" style="fill:#ffffff"/>
  </g>
  <use xlink:href="#A" x="78.900002" id="use13" y="0" width="100%" height="100%" transform="translate(-173,-4.7)" style="fill:#ffffff"/>
</svg>